M48
; DRILL file KiCad 10.0.0 date 2026-04-01T17:05:29
; FORMAT={-:-/ absolute / metric / decimal}
; #@! TF.CreationDate,2026-04-01T17:05:29-04:00
; #@! TF.GenerationSoftware,Kicad,Pcbnew,10.0.0
; #@! TF.FileFunction,Plated,1,4,PTH
FMAT,2
METRIC
; #@! TA.AperFunction,Plated,PTH,ViaDrill
T1C0.200
; #@! TA.AperFunction,Plated,PTH,ViaDrill
T2C0.300
; #@! TA.AperFunction,Plated,PTH,ComponentDrill
T3C1.000
%
G90
G05
T1
X149.8Y-93.9
X149.8Y-94.5
X149.8Y-95.1
X150.2Y-88.2
X150.2Y-89.0
X150.2Y-89.8
X150.2Y-90.8
X150.2Y-92.0
X150.4Y-92.7
X150.4Y-93.3
X151.6Y-92.7
X151.6Y-93.3
X151.8Y-88.2
X151.8Y-89.0
X151.8Y-89.8
X151.8Y-90.8
X151.8Y-92.0
X152.2Y-93.9
X152.2Y-94.5
X152.2Y-95.1
T2
X103.75Y-70.25
X103.75Y-73.5
X106.11Y-79.893
X106.25Y-50.75
X107.25Y-96.5
X107.75Y-67.5
X109.0Y-70.1
X109.25Y-50.75
X110.5Y-96.5
X110.75Y-66.0
X111.75Y-77.0
X112.4Y-92.4
X112.7Y-67.2
X112.75Y-59.25
X113.0Y-84.25
X113.0Y-96.5
X114.0Y-50.75
X114.25Y-66.0
X115.0Y-77.0
X115.8Y-60.6
X115.8Y-63.0
X116.25Y-84.25
X116.25Y-96.5
X117.0Y-45.0
X117.75Y-63.0
X117.75Y-67.0
X118.0Y-76.25
X118.0Y-80.25
X118.0Y-82.5
X118.5Y-60.5
X119.0Y-89.0
X119.0Y-91.5
X120.0Y-45.0
X120.6Y-57.2
X120.7Y-52.2
X121.0Y-85.75
X121.2Y-87.8
X121.5Y-51.0
X121.5Y-96.25
X121.5Y-98.5
X122.7Y-66.3
X122.7Y-79.7
X123.3Y-71.6
X124.5Y-68.0
X124.75Y-52.0
X124.75Y-54.0
X124.75Y-96.25
X124.75Y-98.5
X125.2Y-88.0
X125.6Y-76.4
X125.9Y-61.2
X126.1Y-83.7
X127.0Y-44.75
X127.2Y-87.9
X127.5Y-68.0
X127.75Y-96.25
X127.75Y-98.5
X128.035Y-72.165
X128.05Y-78.85
X128.1Y-80.1
X128.2Y-83.8
X129.2Y-87.8
X129.4Y-86.0
X129.75Y-57.25
X130.0Y-44.75
X130.75Y-96.25
X130.75Y-98.5
X131.0Y-66.3
X131.2Y-85.9
X131.6Y-55.9
X132.0Y-80.0
X132.75Y-53.75
X132.75Y-57.25
X132.8Y-60.2
X133.0Y-61.6
X133.1Y-85.9
X133.2Y-87.7
X133.75Y-96.25
X133.75Y-98.5
X134.2Y-67.3
X134.2Y-83.8
X134.75Y-44.75
X135.0Y-80.0
X135.2Y-87.9
X135.7Y-66.4
X135.75Y-50.5
X135.75Y-53.75
X135.75Y-57.25
X136.2Y-83.7
X136.75Y-96.25
X136.75Y-98.5
X136.9Y-66.5
X137.75Y-44.75
X138.5Y-53.75
X138.5Y-68.75
X138.5Y-71.75
X139.5Y-96.25
X139.5Y-98.5
X140.75Y-44.75
X140.75Y-51.85
X141.0Y-57.25
X141.5Y-77.0
X141.5Y-80.0
X141.5Y-82.25
X143.0Y-91.25
X143.75Y-44.75
X144.5Y-80.0
X144.5Y-82.25
X145.75Y-67.25
X145.75Y-70.25
X146.0Y-91.25
X146.5Y-44.75
X146.6Y-52.0
X148.75Y-91.25
X149.5Y-44.75
X150.25Y-83.0
X151.0Y-72.6
X152.0Y-61.0
X152.5Y-44.75
X153.25Y-83.0
X155.2Y-84.2
X155.4Y-74.8
X155.5Y-44.75
X155.75Y-79.5
X156.4Y-84.0
X158.8Y-60.4
X159.75Y-73.25
X161.25Y-64.75
X161.25Y-67.75
X162.25Y-78.0
X162.25Y-81.0
X162.5Y-90.0
X164.0Y-60.0
X164.0Y-63.0
X164.0Y-66.0
X164.0Y-69.0
T3
X102.42Y-53.46
X102.42Y-56.0
X102.46Y-86.96
X102.46Y-89.5
X104.135Y-60.46
X104.135Y-63.0
X104.135Y-65.54
X104.96Y-53.46
X104.96Y-56.0
X105.0Y-86.96
X105.0Y-89.5
X107.5Y-53.46
X107.5Y-56.0
X107.54Y-86.96
X107.54Y-89.5
X108.37Y-46.23
X108.37Y-48.77
X110.04Y-53.46
X110.04Y-56.0
X110.08Y-86.96
X110.08Y-89.5
X110.91Y-46.23
X110.91Y-48.77
X111.2Y-79.435
X111.2Y-81.975
X112.58Y-53.46
X112.58Y-56.0
X112.62Y-86.96
X112.62Y-89.5
X113.45Y-46.23
X113.45Y-48.77
X114.8Y-79.435
X114.8Y-81.975
X115.12Y-53.46
X115.12Y-56.0
X115.16Y-86.96
X115.16Y-89.5
X115.99Y-46.23
X115.99Y-48.77
X118.53Y-46.23
X118.53Y-48.77
X121.07Y-46.23
X121.07Y-48.77
X123.61Y-46.23
X123.61Y-48.77
X126.15Y-46.23
X126.15Y-48.77
X128.69Y-46.23
X128.69Y-48.77
X131.23Y-46.23
X131.23Y-48.77
X133.77Y-46.23
X133.77Y-48.77
X136.31Y-46.23
X136.31Y-48.77
X138.85Y-46.23
X138.85Y-48.77
X141.39Y-46.23
X141.39Y-48.77
X143.93Y-46.23
X143.93Y-48.77
X146.47Y-46.23
X146.47Y-48.77
X149.01Y-46.23
X149.01Y-48.77
X149.84Y-53.46
X149.84Y-56.0
X151.55Y-46.23
X151.55Y-48.77
X152.38Y-53.46
X152.38Y-56.0
X154.09Y-46.23
X154.09Y-48.77
X154.92Y-53.46
X154.92Y-56.0
X156.63Y-46.23
X156.63Y-48.77
X157.46Y-53.46
X157.46Y-56.0
X160.0Y-53.46
X160.0Y-56.0
X162.54Y-53.46
X162.54Y-56.0
M30
