M48
; DRILL file KiCad 10.0.3 date 2026-06-17T11:32:17
; FORMAT={-:-/ absolute / metric / decimal}
; #@! TF.CreationDate,2026-06-17T11:32:17-04:00
; #@! TF.GenerationSoftware,Kicad,Pcbnew,10.0.3
; #@! TF.FileFunction,Plated,1,4,PTH
FMAT,2
METRIC
; #@! TA.AperFunction,Plated,PTH,ViaDrill
T1C0.300
; #@! TA.AperFunction,Plated,PTH,ViaDrill
T2C0.400
; #@! TA.AperFunction,Plated,PTH,ViaDrill
T3C0.600
; #@! TA.AperFunction,Plated,PTH,ComponentDrill
T4C0.600
; #@! TA.AperFunction,Plated,PTH,ComponentDrill
T5C1.020
; #@! TA.AperFunction,Plated,PTH,ComponentDrill
T6C1.200
; #@! TA.AperFunction,Plated,PTH,ComponentDrill
T7C2.700
%
G90
G05
T1
X101.3Y-77.1
X101.3Y-78.35
X101.3Y-79.6
X101.3Y-80.85
X101.4Y-93.0
X102.55Y-99.0
X102.8Y-77.1
X102.8Y-78.35
X102.8Y-79.6
X102.8Y-80.85
X104.25Y-77.1
X104.25Y-78.35
X104.25Y-79.6
X104.8Y-82.6
X104.95Y-75.0
X105.1Y-60.0
X105.5Y-99.0
X105.55Y-63.0
X105.55Y-93.0
X105.7Y-66.0
X107.35Y-96.0
X108.5Y-99.0
X108.55Y-93.0
X109.012Y-59.75
X110.0Y-54.8
X111.4Y-52.8
X111.5Y-69.5
X111.5Y-71.0
X111.5Y-72.5
X111.5Y-99.0
X111.55Y-63.0
X111.55Y-93.0
X113.0Y-69.5
X113.0Y-71.0
X113.0Y-72.5
X114.55Y-63.0
X114.55Y-99.0
X115.059Y-79.624
X115.8Y-74.8
X117.25Y-75.0
X117.443Y-91.25
X117.5Y-90.5
X117.5Y-92.0
X117.55Y-99.0
X118.193Y-91.25
X118.25Y-90.5
X118.25Y-92.0
X118.4Y-51.0
X118.943Y-91.25
X119.0Y-56.6
X119.0Y-90.5
X119.0Y-92.0
X120.55Y-99.0
X121.0Y-70.2
X121.0Y-71.0
X121.0Y-72.0
X122.0Y-70.2
X122.0Y-71.0
X122.0Y-72.0
X122.5Y-50.25
X123.05Y-76.95
X123.55Y-99.0
X124.25Y-55.25
X125.0Y-63.5
X125.95Y-72.0
X126.2Y-67.4
X126.55Y-99.0
X127.0Y-52.5
X127.0Y-65.5
X127.2Y-67.4
X128.2Y-67.4
X128.4Y-56.6
X128.95Y-84.0
X129.2Y-67.4
X129.55Y-99.0
X129.7Y-87.0
X131.0Y-76.0
X131.2Y-60.0
X131.21Y-67.0
X131.95Y-57.0
X132.2Y-58.2
X133.25Y-50.5
X133.5Y-84.25
X134.0Y-73.65
X135.0Y-73.65
X135.5Y-76.75
X135.55Y-99.0
X135.963Y-56.438
X136.0Y-73.65
X136.5Y-70.0
X136.753Y-53.482
X137.25Y-61.5
X138.25Y-50.5
X138.25Y-62.5
X138.55Y-99.0
X139.0Y-81.75
X139.4Y-63.5
X139.45Y-53.0
X139.486Y-76.389
X140.087Y-56.078
X140.75Y-64.5
X141.433Y-69.078
X141.55Y-99.0
X143.1Y-60.327
X144.15Y-60.25
X144.25Y-75.25
X144.25Y-80.75
X145.75Y-74.85
X145.75Y-75.95
X145.75Y-77.05
X146.75Y-64.0
X147.25Y-80.75
X147.5Y-71.0
X147.55Y-99.0
X148.0Y-51.0
X148.75Y-61.75
X150.55Y-93.0
X150.75Y-77.75
X152.0Y-54.5
X152.8Y-96.0
X153.4Y-83.236
X153.55Y-99.0
X153.75Y-52.25
X156.55Y-99.0
X157.25Y-88.0
X158.0Y-79.75
X158.5Y-80.5
X158.5Y-93.75
X158.593Y-58.093
X159.55Y-99.0
X160.0Y-65.5
X160.25Y-75.0
X161.0Y-76.0
X161.5Y-49.75
X161.5Y-54.5
X161.759Y-76.253
X162.55Y-99.0
T2
X154.25Y-68.5
X156.5Y-69.0
T3
X127.8Y-74.6
T5
X123.22Y-48.0
X125.76Y-48.0
X128.3Y-48.0
X132.46Y-48.0
X135.0Y-48.0
X137.54Y-48.0
T6
X116.96Y-95.5
X119.5Y-95.5
X141.735Y-48.0
X144.275Y-48.0
X148.735Y-47.982
X151.275Y-47.982
X160.5Y-81.21
X160.5Y-83.75
X160.5Y-88.25
X160.5Y-90.79
T7
X108.4Y-63.95
X108.4Y-71.15
X127.15Y-90.0
X134.35Y-90.0
X144.65Y-90.0
X151.85Y-90.0
T4
X101.85Y-60.8G85X102.95Y-60.8
G05
X101.85Y-74.3G85X102.95Y-74.3
G05
X124.0Y-96.55G85X124.0Y-95.45
G05
X137.5Y-96.55G85X137.5Y-95.45
G05
X141.5Y-96.55G85X141.5Y-95.45
G05
X155.0Y-96.55G85X155.0Y-95.45
G05
M30
