%TF.GenerationSoftware,KiCad,Pcbnew,10.0.0*%
%TF.CreationDate,2026-04-01T11:15:08-04:00*%
%TF.ProjectId,power_db_hat,706f7765-725f-4646-925f-6861742e6b69,rev?*%
%TF.SameCoordinates,Original*%
%TF.FileFunction,Paste,Top*%
%TF.FilePolarity,Positive*%
%FSLAX46Y46*%
G04 Gerber Fmt 4.6, Leading zero omitted, Abs format (unit mm)*
G04 Created by KiCad (PCBNEW 10.0.0) date 2026-04-01 11:15:08*
%MOMM*%
%LPD*%
G01*
G04 APERTURE LIST*
G04 Aperture macros list*
%AMRoundRect*
0 Rectangle with rounded corners*
0 $1 Rounding radius*
0 $2 $3 $4 $5 $6 $7 $8 $9 X,Y pos of 4 corners*
0 Add a 4 corners polygon primitive as box body*
4,1,4,$2,$3,$4,$5,$6,$7,$8,$9,$2,$3,0*
0 Add four circle primitives for the rounded corners*
1,1,$1+$1,$2,$3*
1,1,$1+$1,$4,$5*
1,1,$1+$1,$6,$7*
1,1,$1+$1,$8,$9*
0 Add four rect primitives between the rounded corners*
20,1,$1+$1,$2,$3,$4,$5,0*
20,1,$1+$1,$4,$5,$6,$7,0*
20,1,$1+$1,$6,$7,$8,$9,0*
20,1,$1+$1,$8,$9,$2,$3,0*%
G04 Aperture macros list end*
%ADD10RoundRect,0.162500X0.825000X0.162500X-0.825000X0.162500X-0.825000X-0.162500X0.825000X-0.162500X0*%
%ADD11RoundRect,0.237500X-0.287500X-0.237500X0.287500X-0.237500X0.287500X0.237500X-0.287500X0.237500X0*%
%ADD12RoundRect,0.237500X-0.250000X-0.237500X0.250000X-0.237500X0.250000X0.237500X-0.250000X0.237500X0*%
%ADD13RoundRect,0.237500X-0.237500X0.250000X-0.237500X-0.250000X0.237500X-0.250000X0.237500X0.250000X0*%
%ADD14RoundRect,0.237500X0.237500X-0.250000X0.237500X0.250000X-0.237500X0.250000X-0.237500X-0.250000X0*%
%ADD15RoundRect,0.237500X0.250000X0.237500X-0.250000X0.237500X-0.250000X-0.237500X0.250000X-0.237500X0*%
%ADD16RoundRect,0.237500X0.237500X-0.300000X0.237500X0.300000X-0.237500X0.300000X-0.237500X-0.300000X0*%
%ADD17RoundRect,0.249999X-0.450001X-1.425001X0.450001X-1.425001X0.450001X1.425001X-0.450001X1.425001X0*%
%ADD18RoundRect,0.250000X0.650000X-1.500000X0.650000X1.500000X-0.650000X1.500000X-0.650000X-1.500000X0*%
%ADD19R,0.900000X1.550000*%
%ADD20RoundRect,0.237500X0.300000X0.237500X-0.300000X0.237500X-0.300000X-0.237500X0.300000X-0.237500X0*%
%ADD21RoundRect,0.237500X-0.300000X-0.237500X0.300000X-0.237500X0.300000X0.237500X-0.300000X0.237500X0*%
%ADD22RoundRect,0.150000X0.587500X0.150000X-0.587500X0.150000X-0.587500X-0.150000X0.587500X-0.150000X0*%
%ADD23RoundRect,0.162500X0.162500X-0.825000X0.162500X0.825000X-0.162500X0.825000X-0.162500X-0.825000X0*%
%ADD24RoundRect,0.250000X-0.250000X-0.250000X0.250000X-0.250000X0.250000X0.250000X-0.250000X0.250000X0*%
%ADD25RoundRect,0.150000X-0.150000X0.587500X-0.150000X-0.587500X0.150000X-0.587500X0.150000X0.587500X0*%
%ADD26R,5.600000X3.100000*%
%ADD27RoundRect,0.250000X0.250000X-0.250000X0.250000X0.250000X-0.250000X0.250000X-0.250000X-0.250000X0*%
G04 APERTURE END LIST*
D10*
%TO.C,Q1*%
X116212500Y-89405000D03*
X116212500Y-88135000D03*
X116212500Y-86865000D03*
X116212500Y-85595000D03*
X111137500Y-89405000D03*
X111137500Y-88135000D03*
X111137500Y-86865000D03*
X111137500Y-85595000D03*
%TD*%
D11*
%TO.C,D4*%
X105337500Y-57900000D03*
X107087500Y-57900000D03*
%TD*%
D12*
%TO.C,R14*%
X160962500Y-92600000D03*
X162787500Y-92600000D03*
%TD*%
D13*
%TO.C,R25*%
X116000000Y-77337500D03*
X116000000Y-79162500D03*
%TD*%
D14*
%TO.C,R24*%
X118000000Y-80912500D03*
X118000000Y-79087500D03*
%TD*%
D15*
%TO.C,R11*%
X103325000Y-53800000D03*
X101500000Y-53800000D03*
%TD*%
D13*
%TO.C,R4*%
X124000000Y-49275000D03*
X124000000Y-51100000D03*
%TD*%
D16*
%TO.C,C21*%
X118750000Y-85362500D03*
X118750000Y-83637500D03*
%TD*%
D15*
%TO.C,R13*%
X103325000Y-57900000D03*
X101500000Y-57900000D03*
%TD*%
D17*
%TO.C,R34*%
X116450000Y-58000000D03*
X122550000Y-58000000D03*
%TD*%
D15*
%TO.C,R10*%
X103325000Y-51800000D03*
X101500000Y-51800000D03*
%TD*%
D12*
%TO.C,R7*%
X119087500Y-87250000D03*
X120912500Y-87250000D03*
%TD*%
D18*
%TO.C,D41*%
X125428140Y-84555348D03*
X125428140Y-79555348D03*
%TD*%
D16*
%TO.C,C12*%
X112500000Y-79112500D03*
X112500000Y-77387500D03*
%TD*%
D19*
%TO.C,U2*%
X133137500Y-82637500D03*
X135677500Y-82637500D03*
X138217500Y-82637500D03*
X140757500Y-82637500D03*
X143297500Y-82637500D03*
X145837500Y-82637500D03*
X148377500Y-82637500D03*
X150917500Y-82637500D03*
X150917500Y-70487500D03*
X148377500Y-70487500D03*
X145837500Y-70487500D03*
X143297500Y-70487500D03*
X140757500Y-70487500D03*
X138217500Y-70487500D03*
X135677500Y-70487500D03*
X133137500Y-70487500D03*
%TD*%
%TO.C,U6*%
X133110000Y-66080000D03*
X135650000Y-66080000D03*
X138190000Y-66080000D03*
X140730000Y-66080000D03*
X143270000Y-66080000D03*
X145810000Y-66080000D03*
X148350000Y-66080000D03*
X150890000Y-66080000D03*
X150890000Y-53930000D03*
X148350000Y-53930000D03*
X145810000Y-53930000D03*
X143270000Y-53930000D03*
X140730000Y-53930000D03*
X138190000Y-53930000D03*
X135650000Y-53930000D03*
X133110000Y-53930000D03*
%TD*%
D15*
%TO.C,R28*%
X108162500Y-82250000D03*
X106337500Y-82250000D03*
%TD*%
D12*
%TO.C,R29*%
X106687500Y-79400000D03*
X108512500Y-79400000D03*
%TD*%
D20*
%TO.C,C48*%
X114062500Y-47600000D03*
X112337500Y-47600000D03*
%TD*%
D10*
%TO.C,Q2*%
X107537500Y-88000000D03*
X107537500Y-86730000D03*
X107537500Y-85460000D03*
X107537500Y-84190000D03*
X102462500Y-88000000D03*
X102462500Y-86730000D03*
X102462500Y-85460000D03*
X102462500Y-84190000D03*
%TD*%
D20*
%TO.C,C27*%
X114662500Y-56200000D03*
X112937500Y-56200000D03*
%TD*%
D21*
%TO.C,C46*%
X158387500Y-53000000D03*
X160112500Y-53000000D03*
%TD*%
%TO.C,C30*%
X131425000Y-85107500D03*
X133150000Y-85107500D03*
%TD*%
D15*
%TO.C,R12*%
X103325000Y-55800000D03*
X101500000Y-55800000D03*
%TD*%
D11*
%TO.C,D5*%
X161025000Y-90900000D03*
X162775000Y-90900000D03*
%TD*%
D20*
%TO.C,C45*%
X160112500Y-51250000D03*
X158387500Y-51250000D03*
%TD*%
D22*
%TO.C,Q3*%
X124175000Y-55150000D03*
X124175000Y-53250000D03*
X122300000Y-54200000D03*
%TD*%
D20*
%TO.C,C17*%
X114662500Y-58200000D03*
X112937500Y-58200000D03*
%TD*%
D23*
%TO.C,Q4*%
X116330000Y-54275000D03*
X117600000Y-54275000D03*
X118870000Y-54275000D03*
X120140000Y-54275000D03*
X116330000Y-49200000D03*
X117600000Y-49200000D03*
X118870000Y-49200000D03*
X120140000Y-49200000D03*
%TD*%
D11*
%TO.C,D2*%
X105337500Y-53800000D03*
X107087500Y-53800000D03*
%TD*%
D24*
%TO.C,D11*%
X118750000Y-89000000D03*
X121250000Y-89000000D03*
%TD*%
D20*
%TO.C,C18*%
X103062500Y-89900000D03*
X101337500Y-89900000D03*
%TD*%
D21*
%TO.C,C47*%
X112337500Y-45090000D03*
X114062500Y-45090000D03*
%TD*%
D11*
%TO.C,D3*%
X105337500Y-55800000D03*
X107087500Y-55800000D03*
%TD*%
D25*
%TO.C,U4*%
X112200000Y-81062500D03*
X110300000Y-81062500D03*
X111250000Y-82937500D03*
%TD*%
D20*
%TO.C,C28*%
X114662500Y-54300000D03*
X112937500Y-54300000D03*
%TD*%
D14*
%TO.C,R27*%
X114250000Y-82912500D03*
X114250000Y-81087500D03*
%TD*%
D21*
%TO.C,C44*%
X131337500Y-68300000D03*
X133062500Y-68300000D03*
%TD*%
D11*
%TO.C,D1*%
X105337500Y-51800000D03*
X107087500Y-51800000D03*
%TD*%
D15*
%TO.C,R9*%
X122662500Y-83500000D03*
X120837500Y-83500000D03*
%TD*%
D26*
%TO.C,L1*%
X121500000Y-74300000D03*
X121500000Y-64200000D03*
%TD*%
D14*
%TO.C,R26*%
X114250000Y-79162500D03*
X114250000Y-77337500D03*
%TD*%
%TO.C,R5*%
X122200000Y-51100000D03*
X122200000Y-49275000D03*
%TD*%
D13*
%TO.C,R3*%
X127200000Y-53287500D03*
X127200000Y-55112500D03*
%TD*%
D27*
%TO.C,D7*%
X116200000Y-83450000D03*
X116200000Y-80950000D03*
%TD*%
D20*
%TO.C,C22*%
X107362500Y-89900000D03*
X105637500Y-89900000D03*
%TD*%
M02*
