%TF.GenerationSoftware,KiCad,Pcbnew,10.0.0*%
%TF.CreationDate,2026-06-17T12:53:07-04:00*%
%TF.ProjectId,power_db_hat,706f7765-725f-4646-925f-6861742e6b69,rev?*%
%TF.SameCoordinates,Original*%
%TF.FileFunction,Legend,Bot*%
%TF.FilePolarity,Positive*%
%FSLAX46Y46*%
G04 Gerber Fmt 4.6, Leading zero omitted, Abs format (unit mm)*
G04 Created by KiCad (PCBNEW 10.0.0) date 2026-06-17 12:53:07*
%MOMM*%
%LPD*%
G01*
G04 APERTURE LIST*
%ADD10C,0.150000*%
%ADD11C,0.120000*%
%ADD12C,0.325000*%
%ADD13C,0.127000*%
%ADD14C,0.200000*%
%ADD15C,0.152400*%
%ADD16C,0.000000*%
G04 APERTURE END LIST*
D10*
X120147161Y-45437216D02*
X119670971Y-45437216D01*
X120242399Y-45722931D02*
X119909066Y-44722931D01*
X119909066Y-44722931D02*
X119575733Y-45722931D01*
X118766209Y-45722931D02*
X119242399Y-45722931D01*
X119242399Y-45722931D02*
X119242399Y-44722931D01*
X118575732Y-44722931D02*
X118004304Y-44722931D01*
X118290018Y-45722931D02*
X118290018Y-44722931D01*
X117718589Y-45437216D02*
X117242399Y-45437216D01*
X117813827Y-45722931D02*
X117480494Y-44722931D01*
X117480494Y-44722931D02*
X117147161Y-45722931D01*
X116813827Y-45722931D02*
X116813827Y-44722931D01*
X115766209Y-45722931D02*
X116099542Y-45246740D01*
X116337637Y-45722931D02*
X116337637Y-44722931D01*
X116337637Y-44722931D02*
X115956685Y-44722931D01*
X115956685Y-44722931D02*
X115861447Y-44770550D01*
X115861447Y-44770550D02*
X115813828Y-44818169D01*
X115813828Y-44818169D02*
X115766209Y-44913407D01*
X115766209Y-44913407D02*
X115766209Y-45056264D01*
X115766209Y-45056264D02*
X115813828Y-45151502D01*
X115813828Y-45151502D02*
X115861447Y-45199121D01*
X115861447Y-45199121D02*
X115956685Y-45246740D01*
X115956685Y-45246740D02*
X116337637Y-45246740D01*
X114575732Y-45722931D02*
X114575732Y-44722931D01*
X114575732Y-44722931D02*
X114194780Y-44722931D01*
X114194780Y-44722931D02*
X114099542Y-44770550D01*
X114099542Y-44770550D02*
X114051923Y-44818169D01*
X114051923Y-44818169D02*
X114004304Y-44913407D01*
X114004304Y-44913407D02*
X114004304Y-45056264D01*
X114004304Y-45056264D02*
X114051923Y-45151502D01*
X114051923Y-45151502D02*
X114099542Y-45199121D01*
X114099542Y-45199121D02*
X114194780Y-45246740D01*
X114194780Y-45246740D02*
X114575732Y-45246740D01*
X113432875Y-45722931D02*
X113528113Y-45675312D01*
X113528113Y-45675312D02*
X113575732Y-45627692D01*
X113575732Y-45627692D02*
X113623351Y-45532454D01*
X113623351Y-45532454D02*
X113623351Y-45246740D01*
X113623351Y-45246740D02*
X113575732Y-45151502D01*
X113575732Y-45151502D02*
X113528113Y-45103883D01*
X113528113Y-45103883D02*
X113432875Y-45056264D01*
X113432875Y-45056264D02*
X113290018Y-45056264D01*
X113290018Y-45056264D02*
X113194780Y-45103883D01*
X113194780Y-45103883D02*
X113147161Y-45151502D01*
X113147161Y-45151502D02*
X113099542Y-45246740D01*
X113099542Y-45246740D02*
X113099542Y-45532454D01*
X113099542Y-45532454D02*
X113147161Y-45627692D01*
X113147161Y-45627692D02*
X113194780Y-45675312D01*
X113194780Y-45675312D02*
X113290018Y-45722931D01*
X113290018Y-45722931D02*
X113432875Y-45722931D01*
X112766208Y-45056264D02*
X112575732Y-45722931D01*
X112575732Y-45722931D02*
X112385256Y-45246740D01*
X112385256Y-45246740D02*
X112194780Y-45722931D01*
X112194780Y-45722931D02*
X112004304Y-45056264D01*
X111242399Y-45675312D02*
X111337637Y-45722931D01*
X111337637Y-45722931D02*
X111528113Y-45722931D01*
X111528113Y-45722931D02*
X111623351Y-45675312D01*
X111623351Y-45675312D02*
X111670970Y-45580073D01*
X111670970Y-45580073D02*
X111670970Y-45199121D01*
X111670970Y-45199121D02*
X111623351Y-45103883D01*
X111623351Y-45103883D02*
X111528113Y-45056264D01*
X111528113Y-45056264D02*
X111337637Y-45056264D01*
X111337637Y-45056264D02*
X111242399Y-45103883D01*
X111242399Y-45103883D02*
X111194780Y-45199121D01*
X111194780Y-45199121D02*
X111194780Y-45294359D01*
X111194780Y-45294359D02*
X111670970Y-45389597D01*
X110766208Y-45722931D02*
X110766208Y-45056264D01*
X110766208Y-45246740D02*
X110718589Y-45151502D01*
X110718589Y-45151502D02*
X110670970Y-45103883D01*
X110670970Y-45103883D02*
X110575732Y-45056264D01*
X110575732Y-45056264D02*
X110480494Y-45056264D01*
X109385255Y-45722931D02*
X109385255Y-44722931D01*
X109385255Y-45199121D02*
X108813827Y-45199121D01*
X108813827Y-45722931D02*
X108813827Y-44722931D01*
X108385255Y-45437216D02*
X107909065Y-45437216D01*
X108480493Y-45722931D02*
X108147160Y-44722931D01*
X108147160Y-44722931D02*
X107813827Y-45722931D01*
X107623350Y-44722931D02*
X107051922Y-44722931D01*
X107337636Y-45722931D02*
X107337636Y-44722931D01*
X116480494Y-46809065D02*
X116337637Y-46856684D01*
X116337637Y-46856684D02*
X116290018Y-46904303D01*
X116290018Y-46904303D02*
X116242399Y-46999541D01*
X116242399Y-46999541D02*
X116242399Y-47142398D01*
X116242399Y-47142398D02*
X116290018Y-47237636D01*
X116290018Y-47237636D02*
X116337637Y-47285256D01*
X116337637Y-47285256D02*
X116432875Y-47332875D01*
X116432875Y-47332875D02*
X116813827Y-47332875D01*
X116813827Y-47332875D02*
X116813827Y-46332875D01*
X116813827Y-46332875D02*
X116480494Y-46332875D01*
X116480494Y-46332875D02*
X116385256Y-46380494D01*
X116385256Y-46380494D02*
X116337637Y-46428113D01*
X116337637Y-46428113D02*
X116290018Y-46523351D01*
X116290018Y-46523351D02*
X116290018Y-46618589D01*
X116290018Y-46618589D02*
X116337637Y-46713827D01*
X116337637Y-46713827D02*
X116385256Y-46761446D01*
X116385256Y-46761446D02*
X116480494Y-46809065D01*
X116480494Y-46809065D02*
X116813827Y-46809065D01*
X115432875Y-47285256D02*
X115528113Y-47332875D01*
X115528113Y-47332875D02*
X115718589Y-47332875D01*
X115718589Y-47332875D02*
X115813827Y-47285256D01*
X115813827Y-47285256D02*
X115861446Y-47190017D01*
X115861446Y-47190017D02*
X115861446Y-46809065D01*
X115861446Y-46809065D02*
X115813827Y-46713827D01*
X115813827Y-46713827D02*
X115718589Y-46666208D01*
X115718589Y-46666208D02*
X115528113Y-46666208D01*
X115528113Y-46666208D02*
X115432875Y-46713827D01*
X115432875Y-46713827D02*
X115385256Y-46809065D01*
X115385256Y-46809065D02*
X115385256Y-46904303D01*
X115385256Y-46904303D02*
X115861446Y-46999541D01*
X114956684Y-46666208D02*
X114956684Y-47332875D01*
X114956684Y-46761446D02*
X114909065Y-46713827D01*
X114909065Y-46713827D02*
X114813827Y-46666208D01*
X114813827Y-46666208D02*
X114670970Y-46666208D01*
X114670970Y-46666208D02*
X114575732Y-46713827D01*
X114575732Y-46713827D02*
X114528113Y-46809065D01*
X114528113Y-46809065D02*
X114528113Y-47332875D01*
X113290017Y-47332875D02*
X113290017Y-46332875D01*
X113290017Y-46332875D02*
X113051922Y-46332875D01*
X113051922Y-46332875D02*
X112909065Y-46380494D01*
X112909065Y-46380494D02*
X112813827Y-46475732D01*
X112813827Y-46475732D02*
X112766208Y-46570970D01*
X112766208Y-46570970D02*
X112718589Y-46761446D01*
X112718589Y-46761446D02*
X112718589Y-46904303D01*
X112718589Y-46904303D02*
X112766208Y-47094779D01*
X112766208Y-47094779D02*
X112813827Y-47190017D01*
X112813827Y-47190017D02*
X112909065Y-47285256D01*
X112909065Y-47285256D02*
X113051922Y-47332875D01*
X113051922Y-47332875D02*
X113290017Y-47332875D01*
X112242398Y-46332875D02*
X112337636Y-46523351D01*
X111861446Y-47047160D02*
X111385256Y-47047160D01*
X111956684Y-47332875D02*
X111623351Y-46332875D01*
X111623351Y-46332875D02*
X111290018Y-47332875D01*
X110528113Y-46666208D02*
X110528113Y-47475732D01*
X110528113Y-47475732D02*
X110575732Y-47570970D01*
X110575732Y-47570970D02*
X110623351Y-47618589D01*
X110623351Y-47618589D02*
X110718589Y-47666208D01*
X110718589Y-47666208D02*
X110861446Y-47666208D01*
X110861446Y-47666208D02*
X110956684Y-47618589D01*
X110528113Y-47285256D02*
X110623351Y-47332875D01*
X110623351Y-47332875D02*
X110813827Y-47332875D01*
X110813827Y-47332875D02*
X110909065Y-47285256D01*
X110909065Y-47285256D02*
X110956684Y-47237636D01*
X110956684Y-47237636D02*
X111004303Y-47142398D01*
X111004303Y-47142398D02*
X111004303Y-46856684D01*
X111004303Y-46856684D02*
X110956684Y-46761446D01*
X110956684Y-46761446D02*
X110909065Y-46713827D01*
X110909065Y-46713827D02*
X110813827Y-46666208D01*
X110813827Y-46666208D02*
X110623351Y-46666208D01*
X110623351Y-46666208D02*
X110528113Y-46713827D01*
X110051922Y-46666208D02*
X110051922Y-47332875D01*
X110051922Y-46761446D02*
X110004303Y-46713827D01*
X110004303Y-46713827D02*
X109909065Y-46666208D01*
X109909065Y-46666208D02*
X109766208Y-46666208D01*
X109766208Y-46666208D02*
X109670970Y-46713827D01*
X109670970Y-46713827D02*
X109623351Y-46809065D01*
X109623351Y-46809065D02*
X109623351Y-47332875D01*
X109147160Y-47332875D02*
X109147160Y-46666208D01*
X109147160Y-46332875D02*
X109194779Y-46380494D01*
X109194779Y-46380494D02*
X109147160Y-46428113D01*
X109147160Y-46428113D02*
X109099541Y-46380494D01*
X109099541Y-46380494D02*
X109147160Y-46332875D01*
X109147160Y-46332875D02*
X109147160Y-46428113D01*
X108528113Y-47332875D02*
X108623351Y-47285256D01*
X108623351Y-47285256D02*
X108670970Y-47190017D01*
X108670970Y-47190017D02*
X108670970Y-46332875D01*
X108004303Y-47332875D02*
X108099541Y-47285256D01*
X108099541Y-47285256D02*
X108147160Y-47190017D01*
X108147160Y-47190017D02*
X108147160Y-46332875D01*
X107480493Y-47332875D02*
X107575731Y-47285256D01*
X107575731Y-47285256D02*
X107623350Y-47237636D01*
X107623350Y-47237636D02*
X107670969Y-47142398D01*
X107670969Y-47142398D02*
X107670969Y-46856684D01*
X107670969Y-46856684D02*
X107623350Y-46761446D01*
X107623350Y-46761446D02*
X107575731Y-46713827D01*
X107575731Y-46713827D02*
X107480493Y-46666208D01*
X107480493Y-46666208D02*
X107337636Y-46666208D01*
X107337636Y-46666208D02*
X107242398Y-46713827D01*
X107242398Y-46713827D02*
X107194779Y-46761446D01*
X107194779Y-46761446D02*
X107147160Y-46856684D01*
X107147160Y-46856684D02*
X107147160Y-47142398D01*
X107147160Y-47142398D02*
X107194779Y-47237636D01*
X107194779Y-47237636D02*
X107242398Y-47285256D01*
X107242398Y-47285256D02*
X107337636Y-47332875D01*
X107337636Y-47332875D02*
X107480493Y-47332875D01*
X121623351Y-48942819D02*
X121623351Y-47942819D01*
X121623351Y-47942819D02*
X121290018Y-48657104D01*
X121290018Y-48657104D02*
X120956685Y-47942819D01*
X120956685Y-47942819D02*
X120956685Y-48942819D01*
X120051923Y-48942819D02*
X120051923Y-48419009D01*
X120051923Y-48419009D02*
X120099542Y-48323771D01*
X120099542Y-48323771D02*
X120194780Y-48276152D01*
X120194780Y-48276152D02*
X120385256Y-48276152D01*
X120385256Y-48276152D02*
X120480494Y-48323771D01*
X120051923Y-48895200D02*
X120147161Y-48942819D01*
X120147161Y-48942819D02*
X120385256Y-48942819D01*
X120385256Y-48942819D02*
X120480494Y-48895200D01*
X120480494Y-48895200D02*
X120528113Y-48799961D01*
X120528113Y-48799961D02*
X120528113Y-48704723D01*
X120528113Y-48704723D02*
X120480494Y-48609485D01*
X120480494Y-48609485D02*
X120385256Y-48561866D01*
X120385256Y-48561866D02*
X120147161Y-48561866D01*
X120147161Y-48561866D02*
X120051923Y-48514247D01*
X119575732Y-48942819D02*
X119575732Y-48276152D01*
X119575732Y-48466628D02*
X119528113Y-48371390D01*
X119528113Y-48371390D02*
X119480494Y-48323771D01*
X119480494Y-48323771D02*
X119385256Y-48276152D01*
X119385256Y-48276152D02*
X119290018Y-48276152D01*
X118528113Y-48895200D02*
X118623351Y-48942819D01*
X118623351Y-48942819D02*
X118813827Y-48942819D01*
X118813827Y-48942819D02*
X118909065Y-48895200D01*
X118909065Y-48895200D02*
X118956684Y-48847580D01*
X118956684Y-48847580D02*
X119004303Y-48752342D01*
X119004303Y-48752342D02*
X119004303Y-48466628D01*
X119004303Y-48466628D02*
X118956684Y-48371390D01*
X118956684Y-48371390D02*
X118909065Y-48323771D01*
X118909065Y-48323771D02*
X118813827Y-48276152D01*
X118813827Y-48276152D02*
X118623351Y-48276152D01*
X118623351Y-48276152D02*
X118528113Y-48323771D01*
X118099541Y-48942819D02*
X118099541Y-47942819D01*
X117670970Y-48942819D02*
X117670970Y-48419009D01*
X117670970Y-48419009D02*
X117718589Y-48323771D01*
X117718589Y-48323771D02*
X117813827Y-48276152D01*
X117813827Y-48276152D02*
X117956684Y-48276152D01*
X117956684Y-48276152D02*
X118051922Y-48323771D01*
X118051922Y-48323771D02*
X118099541Y-48371390D01*
X116480493Y-48038057D02*
X116432874Y-47990438D01*
X116432874Y-47990438D02*
X116337636Y-47942819D01*
X116337636Y-47942819D02*
X116099541Y-47942819D01*
X116099541Y-47942819D02*
X116004303Y-47990438D01*
X116004303Y-47990438D02*
X115956684Y-48038057D01*
X115956684Y-48038057D02*
X115909065Y-48133295D01*
X115909065Y-48133295D02*
X115909065Y-48228533D01*
X115909065Y-48228533D02*
X115956684Y-48371390D01*
X115956684Y-48371390D02*
X116528112Y-48942819D01*
X116528112Y-48942819D02*
X115909065Y-48942819D01*
X115290017Y-47942819D02*
X115194779Y-47942819D01*
X115194779Y-47942819D02*
X115099541Y-47990438D01*
X115099541Y-47990438D02*
X115051922Y-48038057D01*
X115051922Y-48038057D02*
X115004303Y-48133295D01*
X115004303Y-48133295D02*
X114956684Y-48323771D01*
X114956684Y-48323771D02*
X114956684Y-48561866D01*
X114956684Y-48561866D02*
X115004303Y-48752342D01*
X115004303Y-48752342D02*
X115051922Y-48847580D01*
X115051922Y-48847580D02*
X115099541Y-48895200D01*
X115099541Y-48895200D02*
X115194779Y-48942819D01*
X115194779Y-48942819D02*
X115290017Y-48942819D01*
X115290017Y-48942819D02*
X115385255Y-48895200D01*
X115385255Y-48895200D02*
X115432874Y-48847580D01*
X115432874Y-48847580D02*
X115480493Y-48752342D01*
X115480493Y-48752342D02*
X115528112Y-48561866D01*
X115528112Y-48561866D02*
X115528112Y-48323771D01*
X115528112Y-48323771D02*
X115480493Y-48133295D01*
X115480493Y-48133295D02*
X115432874Y-48038057D01*
X115432874Y-48038057D02*
X115385255Y-47990438D01*
X115385255Y-47990438D02*
X115290017Y-47942819D01*
X114575731Y-48038057D02*
X114528112Y-47990438D01*
X114528112Y-47990438D02*
X114432874Y-47942819D01*
X114432874Y-47942819D02*
X114194779Y-47942819D01*
X114194779Y-47942819D02*
X114099541Y-47990438D01*
X114099541Y-47990438D02*
X114051922Y-48038057D01*
X114051922Y-48038057D02*
X114004303Y-48133295D01*
X114004303Y-48133295D02*
X114004303Y-48228533D01*
X114004303Y-48228533D02*
X114051922Y-48371390D01*
X114051922Y-48371390D02*
X114623350Y-48942819D01*
X114623350Y-48942819D02*
X114004303Y-48942819D01*
X113147160Y-47942819D02*
X113337636Y-47942819D01*
X113337636Y-47942819D02*
X113432874Y-47990438D01*
X113432874Y-47990438D02*
X113480493Y-48038057D01*
X113480493Y-48038057D02*
X113575731Y-48180914D01*
X113575731Y-48180914D02*
X113623350Y-48371390D01*
X113623350Y-48371390D02*
X113623350Y-48752342D01*
X113623350Y-48752342D02*
X113575731Y-48847580D01*
X113575731Y-48847580D02*
X113528112Y-48895200D01*
X113528112Y-48895200D02*
X113432874Y-48942819D01*
X113432874Y-48942819D02*
X113242398Y-48942819D01*
X113242398Y-48942819D02*
X113147160Y-48895200D01*
X113147160Y-48895200D02*
X113099541Y-48847580D01*
X113099541Y-48847580D02*
X113051922Y-48752342D01*
X113051922Y-48752342D02*
X113051922Y-48514247D01*
X113051922Y-48514247D02*
X113099541Y-48419009D01*
X113099541Y-48419009D02*
X113147160Y-48371390D01*
X113147160Y-48371390D02*
X113242398Y-48323771D01*
X113242398Y-48323771D02*
X113432874Y-48323771D01*
X113432874Y-48323771D02*
X113528112Y-48371390D01*
X113528112Y-48371390D02*
X113575731Y-48419009D01*
X113575731Y-48419009D02*
X113623350Y-48514247D01*
X111861445Y-48561866D02*
X111099541Y-48561866D01*
X109956683Y-48276152D02*
X109718588Y-48942819D01*
X109718588Y-48942819D02*
X109480493Y-48276152D01*
X108575731Y-48942819D02*
X109147159Y-48942819D01*
X108861445Y-48942819D02*
X108861445Y-47942819D01*
X108861445Y-47942819D02*
X108956683Y-48085676D01*
X108956683Y-48085676D02*
X109051921Y-48180914D01*
X109051921Y-48180914D02*
X109147159Y-48228533D01*
X108147159Y-48847580D02*
X108099540Y-48895200D01*
X108099540Y-48895200D02*
X108147159Y-48942819D01*
X108147159Y-48942819D02*
X108194778Y-48895200D01*
X108194778Y-48895200D02*
X108147159Y-48847580D01*
X108147159Y-48847580D02*
X108147159Y-48942819D01*
X107147160Y-48942819D02*
X107718588Y-48942819D01*
X107432874Y-48942819D02*
X107432874Y-47942819D01*
X107432874Y-47942819D02*
X107528112Y-48085676D01*
X107528112Y-48085676D02*
X107623350Y-48180914D01*
X107623350Y-48180914D02*
X107718588Y-48228533D01*
X137307499Y-73729819D02*
X137307499Y-73967914D01*
X137545594Y-73872676D02*
X137307499Y-73967914D01*
X137307499Y-73967914D02*
X137069404Y-73872676D01*
X137450356Y-74158390D02*
X137307499Y-73967914D01*
X137307499Y-73967914D02*
X137164642Y-74158390D01*
X137307500Y-74820180D02*
X137307500Y-74582085D01*
X137069405Y-74677323D02*
X137307500Y-74582085D01*
X137307500Y-74582085D02*
X137545595Y-74677323D01*
X137164643Y-74391609D02*
X137307500Y-74582085D01*
X137307500Y-74582085D02*
X137450357Y-74391609D01*
X118007499Y-67579819D02*
X118007499Y-67817914D01*
X118245594Y-67722676D02*
X118007499Y-67817914D01*
X118007499Y-67817914D02*
X117769404Y-67722676D01*
X118150356Y-68008390D02*
X118007499Y-67817914D01*
X118007499Y-67817914D02*
X117864642Y-68008390D01*
X118007500Y-68670180D02*
X118007500Y-68432085D01*
X117769405Y-68527323D02*
X118007500Y-68432085D01*
X118007500Y-68432085D02*
X118245595Y-68527323D01*
X117864643Y-68241609D02*
X118007500Y-68432085D01*
X118007500Y-68432085D02*
X118150357Y-68241609D01*
%TO.C,JP3*%
D11*
X152800000Y-69886000D02*
X152800000Y-72686000D01*
X152800000Y-72686000D02*
X154800000Y-72686000D01*
X154800000Y-69886000D02*
X152800000Y-69886000D01*
X154800000Y-72686000D02*
X154800000Y-69886000D01*
%TO.C,R23*%
X119827500Y-61417224D02*
X119827500Y-60907776D01*
X120872500Y-61417224D02*
X120872500Y-60907776D01*
%TO.C,C14*%
X116990000Y-65033767D02*
X116990000Y-64741233D01*
X118010000Y-65033767D02*
X118010000Y-64741233D01*
%TO.C,L2*%
X131900000Y-77150000D02*
X131900000Y-77550000D01*
X131900000Y-83350000D02*
X131900000Y-82950000D01*
X138100000Y-77150000D02*
X131900000Y-77150000D01*
X138100000Y-77150000D02*
X138100000Y-77550000D01*
X138100000Y-83350000D02*
X131900000Y-83350000D01*
X138100000Y-83350000D02*
X138100000Y-82950000D01*
%TO.C,C1*%
X108353733Y-74190000D02*
X108646267Y-74190000D01*
X108353733Y-75210000D02*
X108646267Y-75210000D01*
%TO.C,C6*%
X113240000Y-66783767D02*
X113240000Y-66491233D01*
X114260000Y-66783767D02*
X114260000Y-66491233D01*
%TO.C,R2*%
X152854724Y-85677500D02*
X152345276Y-85677500D01*
X152854724Y-86722500D02*
X152345276Y-86722500D01*
%TO.C,R41*%
X142254724Y-62477500D02*
X141745276Y-62477500D01*
X142254724Y-63522500D02*
X141745276Y-63522500D01*
%TO.C,C19*%
X157061252Y-74865000D02*
X156538748Y-74865000D01*
X157061252Y-76335000D02*
X156538748Y-76335000D01*
%TO.C,C3*%
X135246267Y-57190000D02*
X134953733Y-57190000D01*
X135246267Y-58210000D02*
X134953733Y-58210000D01*
%TO.C,U1*%
D12*
X137550500Y-61225000D02*
G75*
G02*
X137225500Y-61225000I-162500J0D01*
G01*
X137225500Y-61225000D02*
G75*
G02*
X137550500Y-61225000I162500J0D01*
G01*
%TO.C,Q5*%
D13*
X118850000Y-72850000D02*
X122150000Y-72850000D01*
X118850000Y-76150000D02*
X122150000Y-76150000D01*
D14*
X118100000Y-75500000D02*
G75*
G02*
X117900000Y-75500000I-100000J0D01*
G01*
X117900000Y-75500000D02*
G75*
G02*
X118100000Y-75500000I100000J0D01*
G01*
%TO.C,C29*%
D11*
X126890000Y-61208767D02*
X126890000Y-60916233D01*
X127910000Y-61208767D02*
X127910000Y-60916233D01*
%TO.C,C35*%
X145603733Y-68990000D02*
X145896267Y-68990000D01*
X145603733Y-70010000D02*
X145896267Y-70010000D01*
%TO.C,U9*%
X157600000Y-87340000D02*
X155600000Y-87340000D01*
X157610000Y-85060000D02*
X155610000Y-85060000D01*
X158250000Y-85130000D02*
X157970000Y-85130000D01*
X157970000Y-84850000D01*
X158250000Y-85130000D01*
G36*
X158250000Y-85130000D02*
G01*
X157970000Y-85130000D01*
X157970000Y-84850000D01*
X158250000Y-85130000D01*
G37*
%TO.C,C39*%
X120065000Y-80861252D02*
X120065000Y-80338748D01*
X121535000Y-80861252D02*
X121535000Y-80338748D01*
%TO.C,R8*%
X111927064Y-76590000D02*
X107572936Y-76590000D01*
X111927064Y-80010000D02*
X107572936Y-80010000D01*
%TO.C,R22*%
X122077500Y-60907776D02*
X122077500Y-61417224D01*
X123122500Y-60907776D02*
X123122500Y-61417224D01*
%TO.C,R42*%
X145495276Y-67227500D02*
X146004724Y-67227500D01*
X145495276Y-68272500D02*
X146004724Y-68272500D01*
%TO.C,C42*%
X147738748Y-77665000D02*
X148261252Y-77665000D01*
X147738748Y-79135000D02*
X148261252Y-79135000D01*
%TO.C,C5*%
X156946267Y-73290000D02*
X156653733Y-73290000D01*
X156946267Y-74310000D02*
X156653733Y-74310000D01*
%TO.C,C16*%
X123240000Y-71853733D02*
X123240000Y-72146267D01*
X124260000Y-71853733D02*
X124260000Y-72146267D01*
%TO.C,C20*%
X152746267Y-83890000D02*
X152453733Y-83890000D01*
X152746267Y-84910000D02*
X152453733Y-84910000D01*
%TO.C,C46*%
X154515000Y-47761252D02*
X154515000Y-47238748D01*
X155985000Y-47761252D02*
X155985000Y-47238748D01*
%TO.C,C33*%
X131765000Y-74388748D02*
X131765000Y-74911252D01*
X133235000Y-74388748D02*
X133235000Y-74911252D01*
%TO.C,R33*%
X124572936Y-79540000D02*
X128927064Y-79540000D01*
X124572936Y-82960000D02*
X128927064Y-82960000D01*
%TO.C,C36*%
X145453733Y-71090000D02*
X145746267Y-71090000D01*
X145453733Y-72110000D02*
X145746267Y-72110000D01*
%TO.C,C40*%
X147853733Y-74090000D02*
X148146267Y-74090000D01*
X147853733Y-75110000D02*
X148146267Y-75110000D01*
%TO.C,C31*%
X133990000Y-71196267D02*
X133990000Y-70903733D01*
X135010000Y-71196267D02*
X135010000Y-70903733D01*
%TO.C,F1*%
X120340000Y-89147936D02*
X120340000Y-90352064D01*
X122160000Y-89147936D02*
X122160000Y-90352064D01*
%TO.C,C7*%
X115240000Y-66783767D02*
X115240000Y-66491233D01*
X116260000Y-66783767D02*
X116260000Y-66491233D01*
%TO.C,R65*%
X129854724Y-65277500D02*
X129345276Y-65277500D01*
X129854724Y-66322500D02*
X129345276Y-66322500D01*
%TO.C,R43*%
X135445276Y-75127500D02*
X135954724Y-75127500D01*
X135445276Y-76172500D02*
X135954724Y-76172500D01*
%TO.C,U8*%
X156712500Y-79190000D02*
X154712500Y-79190000D01*
X156722500Y-76910000D02*
X154722500Y-76910000D01*
X157362500Y-76980000D02*
X157082500Y-76980000D01*
X157082500Y-76700000D01*
X157362500Y-76980000D01*
G36*
X157362500Y-76980000D02*
G01*
X157082500Y-76980000D01*
X157082500Y-76700000D01*
X157362500Y-76980000D01*
G37*
%TO.C,C8*%
X111015000Y-66873752D02*
X111015000Y-66351248D01*
X112485000Y-66873752D02*
X112485000Y-66351248D01*
%TO.C,C41*%
X118090000Y-80746267D02*
X118090000Y-80453733D01*
X119110000Y-80746267D02*
X119110000Y-80453733D01*
%TO.C,C25*%
X156746267Y-83490000D02*
X156453733Y-83490000D01*
X156746267Y-84510000D02*
X156453733Y-84510000D01*
%TO.C,C45*%
X156690000Y-47303733D02*
X156690000Y-47596267D01*
X157710000Y-47303733D02*
X157710000Y-47596267D01*
%TO.C,C26*%
X156861252Y-81465000D02*
X156338748Y-81465000D01*
X156861252Y-82935000D02*
X156338748Y-82935000D01*
%TO.C,R20*%
X117995276Y-70727500D02*
X118504724Y-70727500D01*
X117995276Y-71772500D02*
X118504724Y-71772500D01*
%TO.C,C11*%
X127090000Y-69391233D02*
X127090000Y-69683767D01*
X128110000Y-69391233D02*
X128110000Y-69683767D01*
%TO.C,C37*%
X143390000Y-77341233D02*
X143390000Y-77633767D01*
X144410000Y-77341233D02*
X144410000Y-77633767D01*
%TO.C,R44*%
X148327500Y-70954724D02*
X148327500Y-70445276D01*
X149372500Y-70954724D02*
X149372500Y-70445276D01*
%TO.C,JP2*%
X155400000Y-69861000D02*
X155400000Y-72661000D01*
X155400000Y-72661000D02*
X157400000Y-72661000D01*
X157400000Y-69861000D02*
X155400000Y-69861000D01*
X157400000Y-72661000D02*
X157400000Y-69861000D01*
%TO.C,C43*%
X115665000Y-80861252D02*
X115665000Y-80338748D01*
X117135000Y-80861252D02*
X117135000Y-80338748D01*
%TO.C,R19*%
X124677500Y-61342224D02*
X124677500Y-60832776D01*
X125722500Y-61342224D02*
X125722500Y-60832776D01*
%TO.C,R39*%
X142927500Y-56695276D02*
X142927500Y-57204724D01*
X143972500Y-56695276D02*
X143972500Y-57204724D01*
%TO.C,C10*%
X153490000Y-74746267D02*
X153490000Y-74453733D01*
X154510000Y-74746267D02*
X154510000Y-74453733D01*
%TO.C,U5*%
D15*
X138120300Y-69970300D02*
X139014860Y-69970300D01*
X138120300Y-70864860D02*
X138120300Y-69970300D01*
X138120300Y-75329700D02*
X138120300Y-74435140D01*
X139014860Y-75329700D02*
X138120300Y-75329700D01*
X142585140Y-69970300D02*
X143479700Y-69970300D01*
X143479700Y-69970300D02*
X143479700Y-70864860D01*
X143479700Y-74435140D02*
X143479700Y-75329700D01*
X143479700Y-75329700D02*
X142585140Y-75329700D01*
D16*
G36*
X139690500Y-76015500D02*
G01*
X139309500Y-76015500D01*
X139309500Y-75761500D01*
X139690500Y-75761500D01*
X139690500Y-76015500D01*
G37*
G36*
X142290500Y-69538500D02*
G01*
X141909500Y-69538500D01*
X141909500Y-69284500D01*
X142290500Y-69284500D01*
X142290500Y-69538500D01*
G37*
%TO.C,JP5*%
D11*
X130050000Y-53250000D02*
X130050000Y-55250000D01*
X130050000Y-55250000D02*
X132850000Y-55250000D01*
X132850000Y-53250000D02*
X130050000Y-53250000D01*
X132850000Y-55250000D02*
X132850000Y-53250000D01*
%TO.C,C9*%
X125090000Y-69391233D02*
X125090000Y-69683767D01*
X126110000Y-69391233D02*
X126110000Y-69683767D01*
%TO.C,U3*%
D15*
X118820300Y-63820300D02*
X119714860Y-63820300D01*
X118820300Y-64714860D02*
X118820300Y-63820300D01*
X118820300Y-69179700D02*
X118820300Y-68285140D01*
X119714860Y-69179700D02*
X118820300Y-69179700D01*
X123285140Y-63820300D02*
X124179700Y-63820300D01*
X124179700Y-63820300D02*
X124179700Y-64714860D01*
X124179700Y-68285140D02*
X124179700Y-69179700D01*
X124179700Y-69179700D02*
X123285140Y-69179700D01*
D16*
G36*
X120390500Y-69865500D02*
G01*
X120009500Y-69865500D01*
X120009500Y-69611500D01*
X120390500Y-69611500D01*
X120390500Y-69865500D01*
G37*
G36*
X122990500Y-63388500D02*
G01*
X122609500Y-63388500D01*
X122609500Y-63134500D01*
X122990500Y-63134500D01*
X122990500Y-63388500D01*
G37*
%TO.C,R66*%
D11*
X150177500Y-72804724D02*
X150177500Y-72295276D01*
X151222500Y-72804724D02*
X151222500Y-72295276D01*
%TO.C,C38*%
X147853733Y-75890000D02*
X148146267Y-75890000D01*
X147853733Y-76910000D02*
X148146267Y-76910000D01*
%TO.C,Q7*%
D13*
X139092500Y-80465000D02*
X139092500Y-77165000D01*
X142392500Y-80465000D02*
X142392500Y-77165000D01*
D14*
X141842500Y-81315000D02*
G75*
G02*
X141642500Y-81315000I-100000J0D01*
G01*
X141642500Y-81315000D02*
G75*
G02*
X141842500Y-81315000I100000J0D01*
G01*
%TO.C,C34*%
D11*
X135790000Y-71196267D02*
X135790000Y-70903733D01*
X136810000Y-71196267D02*
X136810000Y-70903733D01*
%TO.C,R40*%
X140677500Y-54195276D02*
X140677500Y-54704724D01*
X141722500Y-54195276D02*
X141722500Y-54704724D01*
%TO.C,R31*%
X130477500Y-62854724D02*
X130477500Y-62345276D01*
X131522500Y-62854724D02*
X131522500Y-62345276D01*
%TO.C,C13*%
X128865000Y-69276248D02*
X128865000Y-69798752D01*
X130335000Y-69276248D02*
X130335000Y-69798752D01*
%TO.C,C32*%
X131990000Y-71196267D02*
X131990000Y-70903733D01*
X133010000Y-71196267D02*
X133010000Y-70903733D01*
%TO.C,R32*%
X146517224Y-58377500D02*
X146007776Y-58377500D01*
X146517224Y-59422500D02*
X146007776Y-59422500D01*
%TO.C,D9*%
X150510000Y-82850000D02*
X143500000Y-82850000D01*
X150510000Y-82850000D02*
X150510000Y-86150000D01*
X150510000Y-86150000D02*
X143500000Y-86150000D01*
%TO.C,R35*%
X141577500Y-66882776D02*
X141577500Y-67392224D01*
X142622500Y-66882776D02*
X142622500Y-67392224D01*
%TO.C,R37*%
X133727500Y-55304724D02*
X133727500Y-54795276D01*
X134772500Y-55304724D02*
X134772500Y-54795276D01*
%TO.C,R36*%
X139777500Y-67392224D02*
X139777500Y-66882776D01*
X140822500Y-67392224D02*
X140822500Y-66882776D01*
%TO.C,R1*%
X151677500Y-77054724D02*
X151677500Y-76545276D01*
X152722500Y-77054724D02*
X152722500Y-76545276D01*
%TO.C,C15*%
X127253733Y-63490000D02*
X127546267Y-63490000D01*
X127253733Y-64510000D02*
X127546267Y-64510000D01*
%TO.C,D10*%
X101350000Y-63090000D02*
X101350000Y-70100000D01*
X101350000Y-63090000D02*
X104650000Y-63090000D01*
X104650000Y-63090000D02*
X104650000Y-70100000D01*
%TD*%
M02*
