%TF.GenerationSoftware,KiCad,Pcbnew,10.0.0*%
%TF.CreationDate,2026-04-01T11:15:08-04:00*%
%TF.ProjectId,power_db_hat,706f7765-725f-4646-925f-6861742e6b69,rev?*%
%TF.SameCoordinates,Original*%
%TF.FileFunction,Soldermask,Bot*%
%TF.FilePolarity,Negative*%
%FSLAX46Y46*%
G04 Gerber Fmt 4.6, Leading zero omitted, Abs format (unit mm)*
G04 Created by KiCad (PCBNEW 10.0.0) date 2026-04-01 11:15:08*
%MOMM*%
%LPD*%
G01*
G04 APERTURE LIST*
G04 Aperture macros list*
%AMRoundRect*
0 Rectangle with rounded corners*
0 $1 Rounding radius*
0 $2 $3 $4 $5 $6 $7 $8 $9 X,Y pos of 4 corners*
0 Add a 4 corners polygon primitive as box body*
4,1,4,$2,$3,$4,$5,$6,$7,$8,$9,$2,$3,0*
0 Add four circle primitives for the rounded corners*
1,1,$1+$1,$2,$3*
1,1,$1+$1,$4,$5*
1,1,$1+$1,$6,$7*
1,1,$1+$1,$8,$9*
0 Add four rect primitives between the rounded corners*
20,1,$1+$1,$2,$3,$4,$5,0*
20,1,$1+$1,$4,$5,$6,$7,0*
20,1,$1+$1,$6,$7,$8,$9,0*
20,1,$1+$1,$8,$9,$2,$3,0*%
%AMFreePoly0*
4,1,6,1.000000,0.000000,0.500000,-0.750000,-0.500000,-0.750000,-0.500000,0.750000,0.500000,0.750000,1.000000,0.000000,1.000000,0.000000,$1*%
%AMFreePoly1*
4,1,6,0.500000,-0.750000,-0.650000,-0.750000,-0.150000,0.000000,-0.650000,0.750000,0.500000,0.750000,0.500000,-0.750000,0.500000,-0.750000,$1*%
G04 Aperture macros list end*
%ADD10R,2.000000X0.900000*%
%ADD11RoundRect,1.025000X1.025000X-1.025000X1.025000X1.025000X-1.025000X1.025000X-1.025000X-1.025000X0*%
%ADD12C,4.100000*%
%ADD13C,2.700000*%
%ADD14R,0.900000X2.000000*%
%ADD15RoundRect,1.025000X1.025000X1.025000X-1.025000X1.025000X-1.025000X-1.025000X1.025000X-1.025000X0*%
%ADD16RoundRect,0.250000X0.750000X-0.750000X0.750000X0.750000X-0.750000X0.750000X-0.750000X-0.750000X0*%
%ADD17C,2.000000*%
%ADD18R,1.730000X2.030000*%
%ADD19O,1.730000X2.030000*%
%ADD20RoundRect,0.250000X0.750000X0.750000X-0.750000X0.750000X-0.750000X-0.750000X0.750000X-0.750000X0*%
%ADD21RoundRect,0.250000X-0.750000X-0.750000X0.750000X-0.750000X0.750000X0.750000X-0.750000X0.750000X0*%
%ADD22R,1.000000X3.000000*%
%ADD23FreePoly0,270.000000*%
%ADD24FreePoly1,270.000000*%
%ADD25RoundRect,0.237500X0.237500X-0.250000X0.237500X0.250000X-0.237500X0.250000X-0.237500X-0.250000X0*%
%ADD26RoundRect,0.237500X0.237500X-0.300000X0.237500X0.300000X-0.237500X0.300000X-0.237500X-0.300000X0*%
%ADD27RoundRect,0.475000X0.475000X2.075000X-0.475000X2.075000X-0.475000X-2.075000X0.475000X-2.075000X0*%
%ADD28RoundRect,0.237500X-0.300000X-0.237500X0.300000X-0.237500X0.300000X0.237500X-0.300000X0.237500X0*%
%ADD29RoundRect,0.237500X0.250000X0.237500X-0.250000X0.237500X-0.250000X-0.237500X0.250000X-0.237500X0*%
%ADD30RoundRect,0.237500X0.300000X0.237500X-0.300000X0.237500X-0.300000X-0.237500X0.300000X-0.237500X0*%
%ADD31R,1.050000X0.350000*%
%ADD32R,0.350000X1.050000*%
%ADD33R,2.200000X2.200000*%
%ADD34RoundRect,0.102000X-0.495000X-0.202500X0.495000X-0.202500X0.495000X0.202500X-0.495000X0.202500X0*%
%ADD35RoundRect,0.102000X-0.380000X-0.202500X0.380000X-0.202500X0.380000X0.202500X-0.380000X0.202500X0*%
%ADD36RoundRect,0.102000X-0.862500X-1.117500X0.862500X-1.117500X0.862500X1.117500X-0.862500X1.117500X0*%
%ADD37RoundRect,0.062500X0.187500X0.062500X-0.187500X0.062500X-0.187500X-0.062500X0.187500X-0.062500X0*%
%ADD38R,0.900000X1.600000*%
%ADD39RoundRect,0.249999X0.450001X1.425001X-0.450001X1.425001X-0.450001X-1.425001X0.450001X-1.425001X0*%
%ADD40RoundRect,0.237500X-0.237500X0.250000X-0.237500X-0.250000X0.237500X-0.250000X0.237500X0.250000X0*%
%ADD41RoundRect,0.237500X-0.250000X-0.237500X0.250000X-0.237500X0.250000X0.237500X-0.250000X0.237500X0*%
%ADD42RoundRect,0.237500X-0.237500X0.300000X-0.237500X-0.300000X0.237500X-0.300000X0.237500X0.300000X0*%
%ADD43RoundRect,0.249999X-0.450001X-1.425001X0.450001X-1.425001X0.450001X1.425001X-0.450001X1.425001X0*%
%ADD44RoundRect,0.250001X-0.624999X0.462499X-0.624999X-0.462499X0.624999X-0.462499X0.624999X0.462499X0*%
%ADD45R,0.965200X0.304800*%
%ADD46R,0.304800X0.965200*%
%ADD47R,3.200400X3.200400*%
%ADD48FreePoly0,180.000000*%
%ADD49FreePoly1,180.000000*%
%ADD50RoundRect,0.102000X0.202500X-0.495000X0.202500X0.495000X-0.202500X0.495000X-0.202500X-0.495000X0*%
%ADD51RoundRect,0.102000X0.202500X-0.380000X0.202500X0.380000X-0.202500X0.380000X-0.202500X-0.380000X0*%
%ADD52RoundRect,0.102000X1.117500X-0.862500X1.117500X0.862500X-1.117500X0.862500X-1.117500X-0.862500X0*%
%ADD53RoundRect,0.250000X1.500000X0.650000X-1.500000X0.650000X-1.500000X-0.650000X1.500000X-0.650000X0*%
%ADD54RoundRect,0.250000X-0.650000X1.500000X-0.650000X-1.500000X0.650000X-1.500000X0.650000X1.500000X0*%
G04 APERTURE END LIST*
%TO.C,JP3*%
G36*
X153050000Y-68775000D02*
G01*
X154550000Y-68775000D01*
X154550000Y-71225000D01*
X153050000Y-71225000D01*
X153050000Y-68775000D01*
G37*
%TO.C,JP2*%
G36*
X155650000Y-68750000D02*
G01*
X157150000Y-68750000D01*
X157150000Y-71200000D01*
X155650000Y-71200000D01*
X155650000Y-68750000D01*
G37*
%TO.C,JP5*%
G36*
X130225000Y-53500000D02*
G01*
X132675000Y-53500000D01*
X132675000Y-55000000D01*
X130225000Y-55000000D01*
X130225000Y-53500000D01*
G37*
%TD*%
D10*
%TO.C,J5*%
X102400000Y-74300000D03*
X102400000Y-60800000D03*
D11*
X108400000Y-63950000D03*
D12*
X108400000Y-71150000D03*
%TD*%
D13*
%TO.C,MH2*%
X161500000Y-47500000D03*
%TD*%
D14*
%TO.C,J2*%
X137500000Y-96000000D03*
X124000000Y-96000000D03*
D15*
X134350000Y-90000000D03*
D12*
X127150000Y-90000000D03*
%TD*%
D16*
%TO.C,J1*%
X160500000Y-72545000D03*
D17*
X160500000Y-70005000D03*
%TD*%
D14*
%TO.C,J8*%
X155000000Y-96000000D03*
X141500000Y-96000000D03*
D15*
X151850000Y-90000000D03*
D12*
X144650000Y-90000000D03*
%TD*%
D16*
%TO.C,J6*%
X160500000Y-65005000D03*
D17*
X160500000Y-62465000D03*
%TD*%
D13*
%TO.C,MH3*%
X103500000Y-96500000D03*
%TD*%
D16*
%TO.C,J7*%
X160500000Y-87545000D03*
D17*
X160500000Y-85005000D03*
%TD*%
D13*
%TO.C,MH1*%
X103500000Y-47500000D03*
%TD*%
D18*
%TO.C,J11*%
X132300000Y-47900000D03*
D19*
X129760000Y-47900000D03*
X127220000Y-47900000D03*
%TD*%
D20*
%TO.C,J15*%
X148160000Y-48000000D03*
D17*
X145620000Y-48000000D03*
%TD*%
D21*
%TO.C,J10*%
X109500000Y-95500000D03*
D17*
X112040000Y-95500000D03*
%TD*%
D13*
%TO.C,MH4*%
X161500000Y-96500000D03*
%TD*%
D20*
%TO.C,J4*%
X155335000Y-47982500D03*
D17*
X152795000Y-47982500D03*
%TD*%
D16*
%TO.C,J3*%
X160500000Y-80005000D03*
D17*
X160500000Y-77465000D03*
%TD*%
D18*
%TO.C,J12*%
X141360000Y-47875000D03*
D19*
X138820000Y-47875000D03*
X136280000Y-47875000D03*
%TD*%
D21*
%TO.C,J16*%
X116960000Y-95500000D03*
D17*
X119500000Y-95500000D03*
%TD*%
D13*
%TO.C,U7*%
X103520000Y-47380000D03*
X103520000Y-96380000D03*
X161520000Y-47380000D03*
X161520000Y-96380000D03*
D22*
X102440000Y-85540000D03*
X102420000Y-52000000D03*
X149840000Y-52000000D03*
X102440000Y-90580000D03*
X102420000Y-57040000D03*
X149840000Y-57040000D03*
X104980000Y-85540000D03*
X104960000Y-52000000D03*
X152380000Y-52000000D03*
X104980000Y-90580000D03*
X104960000Y-57040000D03*
X152380000Y-57040000D03*
X107520000Y-85540000D03*
X107500000Y-52000000D03*
X154920000Y-52000000D03*
X107520000Y-90580000D03*
X107500000Y-57040000D03*
X154920000Y-57040000D03*
X110060000Y-85540000D03*
X110040000Y-52000000D03*
X157460000Y-52000000D03*
X110060000Y-90580000D03*
X110040000Y-57040000D03*
X157460000Y-57040000D03*
X112600000Y-85540000D03*
X112580000Y-52000000D03*
X160000000Y-52000000D03*
X112600000Y-90580000D03*
X112580000Y-57040000D03*
X160000000Y-57040000D03*
X115140000Y-85540000D03*
X115120000Y-52000000D03*
X162540000Y-52000000D03*
X115140000Y-90580000D03*
X115120000Y-57040000D03*
X162540000Y-57040000D03*
%TD*%
D23*
%TO.C,JP3*%
X153800000Y-69275000D03*
D24*
X153800000Y-70725000D03*
%TD*%
D25*
%TO.C,R23*%
X120350000Y-62075000D03*
X120350000Y-60250000D03*
%TD*%
D26*
%TO.C,C14*%
X117500000Y-65750000D03*
X117500000Y-64025000D03*
%TD*%
D27*
%TO.C,L2*%
X137100000Y-80250000D03*
X132900000Y-80250000D03*
%TD*%
D28*
%TO.C,C1*%
X107637500Y-74700000D03*
X109362500Y-74700000D03*
%TD*%
D26*
%TO.C,C6*%
X113750000Y-67500000D03*
X113750000Y-65775000D03*
%TD*%
D29*
%TO.C,R2*%
X153512500Y-86200000D03*
X151687500Y-86200000D03*
%TD*%
%TO.C,R41*%
X142912500Y-63000000D03*
X141087500Y-63000000D03*
%TD*%
D30*
%TO.C,C19*%
X157662500Y-75600000D03*
X155937500Y-75600000D03*
%TD*%
%TO.C,C3*%
X135962500Y-57700000D03*
X134237500Y-57700000D03*
%TD*%
D31*
%TO.C,U1*%
X137912500Y-60250000D03*
X137912500Y-59600000D03*
X137912500Y-58950000D03*
X137912500Y-58300000D03*
D32*
X138787500Y-57425000D03*
X139437500Y-57425000D03*
X140087500Y-57425000D03*
X140737500Y-57425000D03*
D31*
X141612500Y-58300000D03*
X141612500Y-58950000D03*
X141612500Y-59600000D03*
X141612500Y-60250000D03*
D32*
X140737500Y-61125000D03*
X140087500Y-61125000D03*
X139437500Y-61125000D03*
X138787500Y-61125000D03*
D33*
X139762500Y-59275000D03*
%TD*%
D34*
%TO.C,Q5*%
X119065000Y-75492500D03*
X119065000Y-74830000D03*
X119065000Y-74170000D03*
X119065000Y-73507500D03*
D35*
X122050000Y-73507500D03*
X122050000Y-74170000D03*
X122050000Y-74830000D03*
X122050000Y-75492500D03*
D36*
X121057500Y-74500000D03*
%TD*%
D26*
%TO.C,C29*%
X127400000Y-61925000D03*
X127400000Y-60200000D03*
%TD*%
D28*
%TO.C,C35*%
X144887500Y-69500000D03*
X146612500Y-69500000D03*
%TD*%
D37*
%TO.C,U9*%
X157550000Y-85450000D03*
X157550000Y-85950000D03*
X157550000Y-86450000D03*
X157550000Y-86950000D03*
X155650000Y-86950000D03*
X155650000Y-86450000D03*
X155650000Y-85950000D03*
X155650000Y-85450000D03*
D38*
X156600000Y-86200000D03*
%TD*%
D26*
%TO.C,C39*%
X121820000Y-81462500D03*
X121820000Y-79737500D03*
%TD*%
D39*
%TO.C,R8*%
X112800000Y-78300000D03*
X106700000Y-78300000D03*
%TD*%
D40*
%TO.C,R22*%
X122600000Y-60250000D03*
X122600000Y-62075000D03*
%TD*%
D41*
%TO.C,R42*%
X144837500Y-67750000D03*
X146662500Y-67750000D03*
%TD*%
D28*
%TO.C,C42*%
X147137500Y-73750000D03*
X148862500Y-73750000D03*
%TD*%
D30*
%TO.C,C5*%
X157662500Y-73800000D03*
X155937500Y-73800000D03*
%TD*%
D42*
%TO.C,C16*%
X123750000Y-71137500D03*
X123750000Y-72862500D03*
%TD*%
D30*
%TO.C,C20*%
X153462500Y-84400000D03*
X151737500Y-84400000D03*
%TD*%
D42*
%TO.C,C33*%
X132500000Y-73787500D03*
X132500000Y-75512500D03*
%TD*%
D43*
%TO.C,R33*%
X123700000Y-81250000D03*
X129800000Y-81250000D03*
%TD*%
D42*
%TO.C,C23*%
X134300000Y-47537500D03*
X134300000Y-49262500D03*
%TD*%
D28*
%TO.C,C36*%
X144737500Y-71600000D03*
X146462500Y-71600000D03*
%TD*%
%TO.C,C40*%
X147137500Y-76000000D03*
X148862500Y-76000000D03*
%TD*%
D26*
%TO.C,C31*%
X134500000Y-71912500D03*
X134500000Y-70187500D03*
%TD*%
D44*
%TO.C,F1*%
X120250000Y-88262500D03*
X120250000Y-91237500D03*
%TD*%
D26*
%TO.C,C7*%
X115750000Y-67500000D03*
X115750000Y-65775000D03*
%TD*%
D29*
%TO.C,R65*%
X130512500Y-65800000D03*
X128687500Y-65800000D03*
%TD*%
D41*
%TO.C,R43*%
X134787500Y-75650000D03*
X136612500Y-75650000D03*
%TD*%
D37*
%TO.C,U8*%
X156662500Y-77300000D03*
X156662500Y-77800000D03*
X156662500Y-78300000D03*
X156662500Y-78800000D03*
X154762500Y-78800000D03*
X154762500Y-78300000D03*
X154762500Y-77800000D03*
X154762500Y-77300000D03*
D38*
X155712500Y-78050000D03*
%TD*%
D26*
%TO.C,C8*%
X111750000Y-67475000D03*
X111750000Y-65750000D03*
%TD*%
%TO.C,C41*%
X119310000Y-81462500D03*
X119310000Y-79737500D03*
%TD*%
D30*
%TO.C,C25*%
X157462500Y-82400000D03*
X155737500Y-82400000D03*
%TD*%
%TO.C,C26*%
X157462500Y-84110000D03*
X155737500Y-84110000D03*
%TD*%
D41*
%TO.C,R20*%
X117337500Y-71250000D03*
X119162500Y-71250000D03*
%TD*%
D42*
%TO.C,C11*%
X127600000Y-68675000D03*
X127600000Y-70400000D03*
%TD*%
%TO.C,C37*%
X143900000Y-76625000D03*
X143900000Y-78350000D03*
%TD*%
D25*
%TO.C,R44*%
X148850000Y-71612500D03*
X148850000Y-69787500D03*
%TD*%
D23*
%TO.C,JP2*%
X156400000Y-69250000D03*
D24*
X156400000Y-70700000D03*
%TD*%
D26*
%TO.C,C43*%
X116800000Y-81462500D03*
X116800000Y-79737500D03*
%TD*%
D25*
%TO.C,R19*%
X125200000Y-62000000D03*
X125200000Y-60175000D03*
%TD*%
D40*
%TO.C,R39*%
X143450000Y-56037500D03*
X143450000Y-57862500D03*
%TD*%
D26*
%TO.C,C10*%
X154000000Y-75462500D03*
X154000000Y-73737500D03*
%TD*%
D45*
%TO.C,U5*%
X138425100Y-73950000D03*
X138425100Y-73299999D03*
X138425100Y-72650000D03*
X138425100Y-72000001D03*
X138425100Y-71350000D03*
D46*
X139500000Y-70275100D03*
X140150001Y-70275100D03*
X140800000Y-70275100D03*
X141449999Y-70275100D03*
X142100000Y-70275100D03*
D45*
X143174900Y-71350000D03*
X143174900Y-72000001D03*
X143174900Y-72650000D03*
X143174900Y-73299999D03*
X143174900Y-73950000D03*
D46*
X142100000Y-75024900D03*
X141449999Y-75024900D03*
X140800000Y-75024900D03*
X140150001Y-75024900D03*
X139500000Y-75024900D03*
D47*
X140800000Y-72650000D03*
%TD*%
D48*
%TO.C,JP5*%
X132175000Y-54250000D03*
D49*
X130725000Y-54250000D03*
%TD*%
D42*
%TO.C,C9*%
X125600000Y-68675000D03*
X125600000Y-70400000D03*
%TD*%
D45*
%TO.C,U3*%
X119125100Y-67800000D03*
X119125100Y-67149999D03*
X119125100Y-66500000D03*
X119125100Y-65850001D03*
X119125100Y-65200000D03*
D46*
X120200000Y-64125100D03*
X120850001Y-64125100D03*
X121500000Y-64125100D03*
X122149999Y-64125100D03*
X122800000Y-64125100D03*
D45*
X123874900Y-65200000D03*
X123874900Y-65850001D03*
X123874900Y-66500000D03*
X123874900Y-67149999D03*
X123874900Y-67800000D03*
D46*
X122800000Y-68874900D03*
X122149999Y-68874900D03*
X121500000Y-68874900D03*
X120850001Y-68874900D03*
X120200000Y-68874900D03*
D47*
X121500000Y-66500000D03*
%TD*%
D25*
%TO.C,R66*%
X150700000Y-73462500D03*
X150700000Y-71637500D03*
%TD*%
D42*
%TO.C,C24*%
X143500000Y-47937500D03*
X143500000Y-49662500D03*
%TD*%
D28*
%TO.C,C38*%
X147137500Y-77650000D03*
X148862500Y-77650000D03*
%TD*%
D50*
%TO.C,Q7*%
X141735000Y-80250000D03*
X141072500Y-80250000D03*
X140412500Y-80250000D03*
X139750000Y-80250000D03*
D51*
X139750000Y-77265000D03*
X140412500Y-77265000D03*
X141072500Y-77265000D03*
X141735000Y-77265000D03*
D52*
X140742500Y-78257500D03*
%TD*%
D26*
%TO.C,C34*%
X136300000Y-71912500D03*
X136300000Y-70187500D03*
%TD*%
D40*
%TO.C,R40*%
X141200000Y-53537500D03*
X141200000Y-55362500D03*
%TD*%
D25*
%TO.C,R31*%
X131000000Y-63512500D03*
X131000000Y-61687500D03*
%TD*%
D42*
%TO.C,C13*%
X129600000Y-68675000D03*
X129600000Y-70400000D03*
%TD*%
D26*
%TO.C,C32*%
X132500000Y-71912500D03*
X132500000Y-70187500D03*
%TD*%
D29*
%TO.C,R32*%
X147175000Y-58900000D03*
X145350000Y-58900000D03*
%TD*%
D53*
%TO.C,D9*%
X148500000Y-84500000D03*
X143500000Y-84500000D03*
%TD*%
D40*
%TO.C,R35*%
X142100000Y-66225000D03*
X142100000Y-68050000D03*
%TD*%
D25*
%TO.C,R37*%
X134250000Y-55962500D03*
X134250000Y-54137500D03*
%TD*%
%TO.C,R36*%
X140300000Y-68050000D03*
X140300000Y-66225000D03*
%TD*%
%TO.C,R1*%
X152200000Y-77712500D03*
X152200000Y-75887500D03*
%TD*%
D28*
%TO.C,C15*%
X126537500Y-64000000D03*
X128262500Y-64000000D03*
%TD*%
D54*
%TO.C,D10*%
X103000000Y-65100000D03*
X103000000Y-70100000D03*
%TD*%
M02*
