%TF.GenerationSoftware,KiCad,Pcbnew,10.0.3*%
%TF.CreationDate,2026-06-16T17:40:58-04:00*%
%TF.ProjectId,power_db_hat,706f7765-725f-4646-925f-6861742e6b69,rev?*%
%TF.SameCoordinates,Original*%
%TF.FileFunction,Legend,Top*%
%TF.FilePolarity,Positive*%
%FSLAX46Y46*%
G04 Gerber Fmt 4.6, Leading zero omitted, Abs format (unit mm)*
G04 Created by KiCad (PCBNEW 10.0.3) date 2026-06-16 17:40:58*
%MOMM*%
%LPD*%
G01*
G04 APERTURE LIST*
%ADD10C,0.150000*%
%ADD11C,0.200000*%
%ADD12C,0.120000*%
%ADD13C,0.152400*%
%ADD14C,0.127000*%
G04 APERTURE END LIST*
D10*
X110184398Y-51518771D02*
X110555826Y-51518771D01*
X110555826Y-51518771D02*
X110355826Y-51747342D01*
X110355826Y-51747342D02*
X110441541Y-51747342D01*
X110441541Y-51747342D02*
X110498684Y-51775914D01*
X110498684Y-51775914D02*
X110527255Y-51804485D01*
X110527255Y-51804485D02*
X110555826Y-51861628D01*
X110555826Y-51861628D02*
X110555826Y-52004485D01*
X110555826Y-52004485D02*
X110527255Y-52061628D01*
X110527255Y-52061628D02*
X110498684Y-52090200D01*
X110498684Y-52090200D02*
X110441541Y-52118771D01*
X110441541Y-52118771D02*
X110270112Y-52118771D01*
X110270112Y-52118771D02*
X110212969Y-52090200D01*
X110212969Y-52090200D02*
X110184398Y-52061628D01*
X110727255Y-51518771D02*
X110927255Y-52118771D01*
X110927255Y-52118771D02*
X111127255Y-51518771D01*
X111270113Y-51518771D02*
X111641541Y-51518771D01*
X111641541Y-51518771D02*
X111441541Y-51747342D01*
X111441541Y-51747342D02*
X111527256Y-51747342D01*
X111527256Y-51747342D02*
X111584399Y-51775914D01*
X111584399Y-51775914D02*
X111612970Y-51804485D01*
X111612970Y-51804485D02*
X111641541Y-51861628D01*
X111641541Y-51861628D02*
X111641541Y-52004485D01*
X111641541Y-52004485D02*
X111612970Y-52061628D01*
X111612970Y-52061628D02*
X111584399Y-52090200D01*
X111584399Y-52090200D02*
X111527256Y-52118771D01*
X111527256Y-52118771D02*
X111355827Y-52118771D01*
X111355827Y-52118771D02*
X111298684Y-52090200D01*
X111298684Y-52090200D02*
X111270113Y-52061628D01*
X110527255Y-53518771D02*
X110241541Y-53518771D01*
X110241541Y-53518771D02*
X110212969Y-53804485D01*
X110212969Y-53804485D02*
X110241541Y-53775914D01*
X110241541Y-53775914D02*
X110298684Y-53747342D01*
X110298684Y-53747342D02*
X110441541Y-53747342D01*
X110441541Y-53747342D02*
X110498684Y-53775914D01*
X110498684Y-53775914D02*
X110527255Y-53804485D01*
X110527255Y-53804485D02*
X110555826Y-53861628D01*
X110555826Y-53861628D02*
X110555826Y-54004485D01*
X110555826Y-54004485D02*
X110527255Y-54061628D01*
X110527255Y-54061628D02*
X110498684Y-54090200D01*
X110498684Y-54090200D02*
X110441541Y-54118771D01*
X110441541Y-54118771D02*
X110298684Y-54118771D01*
X110298684Y-54118771D02*
X110241541Y-54090200D01*
X110241541Y-54090200D02*
X110212969Y-54061628D01*
X110727255Y-53518771D02*
X110927255Y-54118771D01*
X110927255Y-54118771D02*
X111127255Y-53518771D01*
X110555826Y-56118771D02*
X110212969Y-56118771D01*
X110384398Y-56118771D02*
X110384398Y-55518771D01*
X110384398Y-55518771D02*
X110327255Y-55604485D01*
X110327255Y-55604485D02*
X110270112Y-55661628D01*
X110270112Y-55661628D02*
X110212969Y-55690200D01*
X110784398Y-55575914D02*
X110812970Y-55547342D01*
X110812970Y-55547342D02*
X110870113Y-55518771D01*
X110870113Y-55518771D02*
X111012970Y-55518771D01*
X111012970Y-55518771D02*
X111070113Y-55547342D01*
X111070113Y-55547342D02*
X111098684Y-55575914D01*
X111098684Y-55575914D02*
X111127255Y-55633057D01*
X111127255Y-55633057D02*
X111127255Y-55690200D01*
X111127255Y-55690200D02*
X111098684Y-55775914D01*
X111098684Y-55775914D02*
X110755827Y-56118771D01*
X110755827Y-56118771D02*
X111127255Y-56118771D01*
X111298684Y-55518771D02*
X111498684Y-56118771D01*
X111498684Y-56118771D02*
X111698684Y-55518771D01*
X110212969Y-57575914D02*
X110241541Y-57547342D01*
X110241541Y-57547342D02*
X110298684Y-57518771D01*
X110298684Y-57518771D02*
X110441541Y-57518771D01*
X110441541Y-57518771D02*
X110498684Y-57547342D01*
X110498684Y-57547342D02*
X110527255Y-57575914D01*
X110527255Y-57575914D02*
X110555826Y-57633057D01*
X110555826Y-57633057D02*
X110555826Y-57690200D01*
X110555826Y-57690200D02*
X110527255Y-57775914D01*
X110527255Y-57775914D02*
X110184398Y-58118771D01*
X110184398Y-58118771D02*
X110555826Y-58118771D01*
X111070113Y-57718771D02*
X111070113Y-58118771D01*
X110927255Y-57490200D02*
X110784398Y-57918771D01*
X110784398Y-57918771D02*
X111155827Y-57918771D01*
X111298684Y-57518771D02*
X111498684Y-58118771D01*
X111498684Y-58118771D02*
X111698684Y-57518771D01*
X156991541Y-45168771D02*
X156991541Y-44568771D01*
X157277255Y-45168771D02*
X157277255Y-44568771D01*
X157277255Y-44568771D02*
X157620112Y-45168771D01*
X157620112Y-45168771D02*
X157620112Y-44568771D01*
X157905826Y-45168771D02*
X157905826Y-44568771D01*
X157905826Y-44568771D02*
X158048683Y-44568771D01*
X158048683Y-44568771D02*
X158134397Y-44597342D01*
X158134397Y-44597342D02*
X158191540Y-44654485D01*
X158191540Y-44654485D02*
X158220111Y-44711628D01*
X158220111Y-44711628D02*
X158248683Y-44825914D01*
X158248683Y-44825914D02*
X158248683Y-44911628D01*
X158248683Y-44911628D02*
X158220111Y-45025914D01*
X158220111Y-45025914D02*
X158191540Y-45083057D01*
X158191540Y-45083057D02*
X158134397Y-45140200D01*
X158134397Y-45140200D02*
X158048683Y-45168771D01*
X158048683Y-45168771D02*
X157905826Y-45168771D01*
X129070112Y-86346009D02*
X129212969Y-86393628D01*
X129212969Y-86393628D02*
X129260588Y-86441247D01*
X129260588Y-86441247D02*
X129308207Y-86536485D01*
X129308207Y-86536485D02*
X129308207Y-86679342D01*
X129308207Y-86679342D02*
X129260588Y-86774580D01*
X129260588Y-86774580D02*
X129212969Y-86822200D01*
X129212969Y-86822200D02*
X129117731Y-86869819D01*
X129117731Y-86869819D02*
X128736779Y-86869819D01*
X128736779Y-86869819D02*
X128736779Y-85869819D01*
X128736779Y-85869819D02*
X129070112Y-85869819D01*
X129070112Y-85869819D02*
X129165350Y-85917438D01*
X129165350Y-85917438D02*
X129212969Y-85965057D01*
X129212969Y-85965057D02*
X129260588Y-86060295D01*
X129260588Y-86060295D02*
X129260588Y-86155533D01*
X129260588Y-86155533D02*
X129212969Y-86250771D01*
X129212969Y-86250771D02*
X129165350Y-86298390D01*
X129165350Y-86298390D02*
X129070112Y-86346009D01*
X129070112Y-86346009D02*
X128736779Y-86346009D01*
X129689160Y-86584104D02*
X130165350Y-86584104D01*
X129593922Y-86869819D02*
X129927255Y-85869819D01*
X129927255Y-85869819D02*
X130260588Y-86869819D01*
X130451065Y-85869819D02*
X131022493Y-85869819D01*
X130736779Y-86869819D02*
X130736779Y-85869819D01*
X132070113Y-85965057D02*
X132117732Y-85917438D01*
X132117732Y-85917438D02*
X132212970Y-85869819D01*
X132212970Y-85869819D02*
X132451065Y-85869819D01*
X132451065Y-85869819D02*
X132546303Y-85917438D01*
X132546303Y-85917438D02*
X132593922Y-85965057D01*
X132593922Y-85965057D02*
X132641541Y-86060295D01*
X132641541Y-86060295D02*
X132641541Y-86155533D01*
X132641541Y-86155533D02*
X132593922Y-86298390D01*
X132593922Y-86298390D02*
X132022494Y-86869819D01*
X132022494Y-86869819D02*
X132641541Y-86869819D01*
X146470112Y-86346009D02*
X146612969Y-86393628D01*
X146612969Y-86393628D02*
X146660588Y-86441247D01*
X146660588Y-86441247D02*
X146708207Y-86536485D01*
X146708207Y-86536485D02*
X146708207Y-86679342D01*
X146708207Y-86679342D02*
X146660588Y-86774580D01*
X146660588Y-86774580D02*
X146612969Y-86822200D01*
X146612969Y-86822200D02*
X146517731Y-86869819D01*
X146517731Y-86869819D02*
X146136779Y-86869819D01*
X146136779Y-86869819D02*
X146136779Y-85869819D01*
X146136779Y-85869819D02*
X146470112Y-85869819D01*
X146470112Y-85869819D02*
X146565350Y-85917438D01*
X146565350Y-85917438D02*
X146612969Y-85965057D01*
X146612969Y-85965057D02*
X146660588Y-86060295D01*
X146660588Y-86060295D02*
X146660588Y-86155533D01*
X146660588Y-86155533D02*
X146612969Y-86250771D01*
X146612969Y-86250771D02*
X146565350Y-86298390D01*
X146565350Y-86298390D02*
X146470112Y-86346009D01*
X146470112Y-86346009D02*
X146136779Y-86346009D01*
X147089160Y-86584104D02*
X147565350Y-86584104D01*
X146993922Y-86869819D02*
X147327255Y-85869819D01*
X147327255Y-85869819D02*
X147660588Y-86869819D01*
X147851065Y-85869819D02*
X148422493Y-85869819D01*
X148136779Y-86869819D02*
X148136779Y-85869819D01*
X150041541Y-86869819D02*
X149470113Y-86869819D01*
X149755827Y-86869819D02*
X149755827Y-85869819D01*
X149755827Y-85869819D02*
X149660589Y-86012676D01*
X149660589Y-86012676D02*
X149565351Y-86107914D01*
X149565351Y-86107914D02*
X149470113Y-86155533D01*
X155312969Y-61869819D02*
X154836779Y-61869819D01*
X154836779Y-61869819D02*
X154836779Y-60869819D01*
X155646303Y-61346009D02*
X155979636Y-61346009D01*
X156122493Y-61869819D02*
X155646303Y-61869819D01*
X155646303Y-61869819D02*
X155646303Y-60869819D01*
X155646303Y-60869819D02*
X156122493Y-60869819D01*
X156551065Y-61869819D02*
X156551065Y-60869819D01*
X156551065Y-60869819D02*
X156789160Y-60869819D01*
X156789160Y-60869819D02*
X156932017Y-60917438D01*
X156932017Y-60917438D02*
X157027255Y-61012676D01*
X157027255Y-61012676D02*
X157074874Y-61107914D01*
X157074874Y-61107914D02*
X157122493Y-61298390D01*
X157122493Y-61298390D02*
X157122493Y-61441247D01*
X157122493Y-61441247D02*
X157074874Y-61631723D01*
X157074874Y-61631723D02*
X157027255Y-61726961D01*
X157027255Y-61726961D02*
X156932017Y-61822200D01*
X156932017Y-61822200D02*
X156789160Y-61869819D01*
X156789160Y-61869819D02*
X156551065Y-61869819D01*
X158074874Y-61869819D02*
X157503446Y-61869819D01*
X157789160Y-61869819D02*
X157789160Y-60869819D01*
X157789160Y-60869819D02*
X157693922Y-61012676D01*
X157693922Y-61012676D02*
X157598684Y-61107914D01*
X157598684Y-61107914D02*
X157503446Y-61155533D01*
X155312969Y-71155819D02*
X154836779Y-71155819D01*
X154836779Y-71155819D02*
X154836779Y-70155819D01*
X155646303Y-70632009D02*
X155979636Y-70632009D01*
X156122493Y-71155819D02*
X155646303Y-71155819D01*
X155646303Y-71155819D02*
X155646303Y-70155819D01*
X155646303Y-70155819D02*
X156122493Y-70155819D01*
X156551065Y-71155819D02*
X156551065Y-70155819D01*
X156551065Y-70155819D02*
X156789160Y-70155819D01*
X156789160Y-70155819D02*
X156932017Y-70203438D01*
X156932017Y-70203438D02*
X157027255Y-70298676D01*
X157027255Y-70298676D02*
X157074874Y-70393914D01*
X157074874Y-70393914D02*
X157122493Y-70584390D01*
X157122493Y-70584390D02*
X157122493Y-70727247D01*
X157122493Y-70727247D02*
X157074874Y-70917723D01*
X157074874Y-70917723D02*
X157027255Y-71012961D01*
X157027255Y-71012961D02*
X156932017Y-71108200D01*
X156932017Y-71108200D02*
X156789160Y-71155819D01*
X156789160Y-71155819D02*
X156551065Y-71155819D01*
X157503446Y-70251057D02*
X157551065Y-70203438D01*
X157551065Y-70203438D02*
X157646303Y-70155819D01*
X157646303Y-70155819D02*
X157884398Y-70155819D01*
X157884398Y-70155819D02*
X157979636Y-70203438D01*
X157979636Y-70203438D02*
X158027255Y-70251057D01*
X158027255Y-70251057D02*
X158074874Y-70346295D01*
X158074874Y-70346295D02*
X158074874Y-70441533D01*
X158074874Y-70441533D02*
X158027255Y-70584390D01*
X158027255Y-70584390D02*
X157455827Y-71155819D01*
X157455827Y-71155819D02*
X158074874Y-71155819D01*
X155336779Y-51869819D02*
X155336779Y-50869819D01*
X155336779Y-50869819D02*
X155908207Y-51869819D01*
X155908207Y-51869819D02*
X155908207Y-50869819D01*
X156241541Y-50869819D02*
X156812969Y-50869819D01*
X156527255Y-51869819D02*
X156527255Y-50869819D01*
X157717731Y-51774580D02*
X157670112Y-51822200D01*
X157670112Y-51822200D02*
X157527255Y-51869819D01*
X157527255Y-51869819D02*
X157432017Y-51869819D01*
X157432017Y-51869819D02*
X157289160Y-51822200D01*
X157289160Y-51822200D02*
X157193922Y-51726961D01*
X157193922Y-51726961D02*
X157146303Y-51631723D01*
X157146303Y-51631723D02*
X157098684Y-51441247D01*
X157098684Y-51441247D02*
X157098684Y-51298390D01*
X157098684Y-51298390D02*
X157146303Y-51107914D01*
X157146303Y-51107914D02*
X157193922Y-51012676D01*
X157193922Y-51012676D02*
X157289160Y-50917438D01*
X157289160Y-50917438D02*
X157432017Y-50869819D01*
X157432017Y-50869819D02*
X157527255Y-50869819D01*
X157527255Y-50869819D02*
X157670112Y-50917438D01*
X157670112Y-50917438D02*
X157717731Y-50965057D01*
X107022200Y-97910839D02*
X107069819Y-97767982D01*
X107069819Y-97767982D02*
X107069819Y-97529887D01*
X107069819Y-97529887D02*
X107022200Y-97434649D01*
X107022200Y-97434649D02*
X106974580Y-97387030D01*
X106974580Y-97387030D02*
X106879342Y-97339411D01*
X106879342Y-97339411D02*
X106784104Y-97339411D01*
X106784104Y-97339411D02*
X106688866Y-97387030D01*
X106688866Y-97387030D02*
X106641247Y-97434649D01*
X106641247Y-97434649D02*
X106593628Y-97529887D01*
X106593628Y-97529887D02*
X106546009Y-97720363D01*
X106546009Y-97720363D02*
X106498390Y-97815601D01*
X106498390Y-97815601D02*
X106450771Y-97863220D01*
X106450771Y-97863220D02*
X106355533Y-97910839D01*
X106355533Y-97910839D02*
X106260295Y-97910839D01*
X106260295Y-97910839D02*
X106165057Y-97863220D01*
X106165057Y-97863220D02*
X106117438Y-97815601D01*
X106117438Y-97815601D02*
X106069819Y-97720363D01*
X106069819Y-97720363D02*
X106069819Y-97482268D01*
X106069819Y-97482268D02*
X106117438Y-97339411D01*
X106069819Y-97006077D02*
X107069819Y-96767982D01*
X107069819Y-96767982D02*
X106355533Y-96577506D01*
X106355533Y-96577506D02*
X107069819Y-96387030D01*
X107069819Y-96387030D02*
X106069819Y-96148935D01*
X107069819Y-95767982D02*
X106069819Y-95767982D01*
X106069819Y-95434649D02*
X106069819Y-94863221D01*
X107069819Y-95148935D02*
X106069819Y-95148935D01*
X106974580Y-93958459D02*
X107022200Y-94006078D01*
X107022200Y-94006078D02*
X107069819Y-94148935D01*
X107069819Y-94148935D02*
X107069819Y-94244173D01*
X107069819Y-94244173D02*
X107022200Y-94387030D01*
X107022200Y-94387030D02*
X106926961Y-94482268D01*
X106926961Y-94482268D02*
X106831723Y-94529887D01*
X106831723Y-94529887D02*
X106641247Y-94577506D01*
X106641247Y-94577506D02*
X106498390Y-94577506D01*
X106498390Y-94577506D02*
X106307914Y-94529887D01*
X106307914Y-94529887D02*
X106212676Y-94482268D01*
X106212676Y-94482268D02*
X106117438Y-94387030D01*
X106117438Y-94387030D02*
X106069819Y-94244173D01*
X106069819Y-94244173D02*
X106069819Y-94148935D01*
X106069819Y-94148935D02*
X106117438Y-94006078D01*
X106117438Y-94006078D02*
X106165057Y-93958459D01*
X107069819Y-93529887D02*
X106069819Y-93529887D01*
X106546009Y-93529887D02*
X106546009Y-92958459D01*
X107069819Y-92958459D02*
X106069819Y-92958459D01*
X111355113Y-68910839D02*
X111307494Y-68863220D01*
X111307494Y-68863220D02*
X111259875Y-68767982D01*
X111259875Y-68767982D02*
X111259875Y-68529887D01*
X111259875Y-68529887D02*
X111307494Y-68434649D01*
X111307494Y-68434649D02*
X111355113Y-68387030D01*
X111355113Y-68387030D02*
X111450351Y-68339411D01*
X111450351Y-68339411D02*
X111545589Y-68339411D01*
X111545589Y-68339411D02*
X111688446Y-68387030D01*
X111688446Y-68387030D02*
X112259875Y-68958458D01*
X112259875Y-68958458D02*
X112259875Y-68339411D01*
X111593208Y-67482268D02*
X112259875Y-67482268D01*
X111212256Y-67720363D02*
X111926541Y-67958458D01*
X111926541Y-67958458D02*
X111926541Y-67339411D01*
X111259875Y-67101315D02*
X112259875Y-66767982D01*
X112259875Y-66767982D02*
X111259875Y-66434649D01*
X156584104Y-82710839D02*
X156584104Y-82234649D01*
X156869819Y-82806077D02*
X155869819Y-82472744D01*
X155869819Y-82472744D02*
X156869819Y-82139411D01*
X156774580Y-81234649D02*
X156822200Y-81282268D01*
X156822200Y-81282268D02*
X156869819Y-81425125D01*
X156869819Y-81425125D02*
X156869819Y-81520363D01*
X156869819Y-81520363D02*
X156822200Y-81663220D01*
X156822200Y-81663220D02*
X156726961Y-81758458D01*
X156726961Y-81758458D02*
X156631723Y-81806077D01*
X156631723Y-81806077D02*
X156441247Y-81853696D01*
X156441247Y-81853696D02*
X156298390Y-81853696D01*
X156298390Y-81853696D02*
X156107914Y-81806077D01*
X156107914Y-81806077D02*
X156012676Y-81758458D01*
X156012676Y-81758458D02*
X155917438Y-81663220D01*
X155917438Y-81663220D02*
X155869819Y-81520363D01*
X155869819Y-81520363D02*
X155869819Y-81425125D01*
X155869819Y-81425125D02*
X155917438Y-81282268D01*
X155917438Y-81282268D02*
X155965057Y-81234649D01*
X155869819Y-80948934D02*
X155869819Y-80377506D01*
X156869819Y-80663220D02*
X155869819Y-80663220D01*
X156869819Y-79520363D02*
X156869819Y-80091791D01*
X156869819Y-79806077D02*
X155869819Y-79806077D01*
X155869819Y-79806077D02*
X156012676Y-79901315D01*
X156012676Y-79901315D02*
X156107914Y-79996553D01*
X156107914Y-79996553D02*
X156155533Y-80091791D01*
X156574160Y-89710839D02*
X156574160Y-89234649D01*
X156859875Y-89806077D02*
X155859875Y-89472744D01*
X155859875Y-89472744D02*
X156859875Y-89139411D01*
X156764636Y-88234649D02*
X156812256Y-88282268D01*
X156812256Y-88282268D02*
X156859875Y-88425125D01*
X156859875Y-88425125D02*
X156859875Y-88520363D01*
X156859875Y-88520363D02*
X156812256Y-88663220D01*
X156812256Y-88663220D02*
X156717017Y-88758458D01*
X156717017Y-88758458D02*
X156621779Y-88806077D01*
X156621779Y-88806077D02*
X156431303Y-88853696D01*
X156431303Y-88853696D02*
X156288446Y-88853696D01*
X156288446Y-88853696D02*
X156097970Y-88806077D01*
X156097970Y-88806077D02*
X156002732Y-88758458D01*
X156002732Y-88758458D02*
X155907494Y-88663220D01*
X155907494Y-88663220D02*
X155859875Y-88520363D01*
X155859875Y-88520363D02*
X155859875Y-88425125D01*
X155859875Y-88425125D02*
X155907494Y-88282268D01*
X155907494Y-88282268D02*
X155955113Y-88234649D01*
X155859875Y-87948934D02*
X155859875Y-87377506D01*
X156859875Y-87663220D02*
X155859875Y-87663220D01*
X155955113Y-87091791D02*
X155907494Y-87044172D01*
X155907494Y-87044172D02*
X155859875Y-86948934D01*
X155859875Y-86948934D02*
X155859875Y-86710839D01*
X155859875Y-86710839D02*
X155907494Y-86615601D01*
X155907494Y-86615601D02*
X155955113Y-86567982D01*
X155955113Y-86567982D02*
X156050351Y-86520363D01*
X156050351Y-86520363D02*
X156145589Y-86520363D01*
X156145589Y-86520363D02*
X156288446Y-86567982D01*
X156288446Y-86567982D02*
X156859875Y-87139410D01*
X156859875Y-87139410D02*
X156859875Y-86520363D01*
X127960839Y-49427800D02*
X127817982Y-49380180D01*
X127817982Y-49380180D02*
X127579887Y-49380180D01*
X127579887Y-49380180D02*
X127484649Y-49427800D01*
X127484649Y-49427800D02*
X127437030Y-49475419D01*
X127437030Y-49475419D02*
X127389411Y-49570657D01*
X127389411Y-49570657D02*
X127389411Y-49665895D01*
X127389411Y-49665895D02*
X127437030Y-49761133D01*
X127437030Y-49761133D02*
X127484649Y-49808752D01*
X127484649Y-49808752D02*
X127579887Y-49856371D01*
X127579887Y-49856371D02*
X127770363Y-49903990D01*
X127770363Y-49903990D02*
X127865601Y-49951609D01*
X127865601Y-49951609D02*
X127913220Y-49999228D01*
X127913220Y-49999228D02*
X127960839Y-50094466D01*
X127960839Y-50094466D02*
X127960839Y-50189704D01*
X127960839Y-50189704D02*
X127913220Y-50284942D01*
X127913220Y-50284942D02*
X127865601Y-50332561D01*
X127865601Y-50332561D02*
X127770363Y-50380180D01*
X127770363Y-50380180D02*
X127532268Y-50380180D01*
X127532268Y-50380180D02*
X127389411Y-50332561D01*
X126579887Y-49427800D02*
X126675125Y-49380180D01*
X126675125Y-49380180D02*
X126865601Y-49380180D01*
X126865601Y-49380180D02*
X126960839Y-49427800D01*
X126960839Y-49427800D02*
X127008458Y-49523038D01*
X127008458Y-49523038D02*
X127008458Y-49903990D01*
X127008458Y-49903990D02*
X126960839Y-49999228D01*
X126960839Y-49999228D02*
X126865601Y-50046847D01*
X126865601Y-50046847D02*
X126675125Y-50046847D01*
X126675125Y-50046847D02*
X126579887Y-49999228D01*
X126579887Y-49999228D02*
X126532268Y-49903990D01*
X126532268Y-49903990D02*
X126532268Y-49808752D01*
X126532268Y-49808752D02*
X127008458Y-49713514D01*
X126103696Y-49380180D02*
X126103696Y-50046847D01*
X126103696Y-49856371D02*
X126056077Y-49951609D01*
X126056077Y-49951609D02*
X126008458Y-49999228D01*
X126008458Y-49999228D02*
X125913220Y-50046847D01*
X125913220Y-50046847D02*
X125817982Y-50046847D01*
X125579886Y-50046847D02*
X125341791Y-49380180D01*
X125341791Y-49380180D02*
X125103696Y-50046847D01*
X124579886Y-49380180D02*
X124675124Y-49427800D01*
X124675124Y-49427800D02*
X124722743Y-49475419D01*
X124722743Y-49475419D02*
X124770362Y-49570657D01*
X124770362Y-49570657D02*
X124770362Y-49856371D01*
X124770362Y-49856371D02*
X124722743Y-49951609D01*
X124722743Y-49951609D02*
X124675124Y-49999228D01*
X124675124Y-49999228D02*
X124579886Y-50046847D01*
X124579886Y-50046847D02*
X124437029Y-50046847D01*
X124437029Y-50046847D02*
X124341791Y-49999228D01*
X124341791Y-49999228D02*
X124294172Y-49951609D01*
X124294172Y-49951609D02*
X124246553Y-49856371D01*
X124246553Y-49856371D02*
X124246553Y-49570657D01*
X124246553Y-49570657D02*
X124294172Y-49475419D01*
X124294172Y-49475419D02*
X124341791Y-49427800D01*
X124341791Y-49427800D02*
X124437029Y-49380180D01*
X124437029Y-49380180D02*
X124579886Y-49380180D01*
X123294172Y-49380180D02*
X123865600Y-49380180D01*
X123579886Y-49380180D02*
X123579886Y-50380180D01*
X123579886Y-50380180D02*
X123675124Y-50237323D01*
X123675124Y-50237323D02*
X123770362Y-50142085D01*
X123770362Y-50142085D02*
X123865600Y-50094466D01*
X137210839Y-49427800D02*
X137067982Y-49380180D01*
X137067982Y-49380180D02*
X136829887Y-49380180D01*
X136829887Y-49380180D02*
X136734649Y-49427800D01*
X136734649Y-49427800D02*
X136687030Y-49475419D01*
X136687030Y-49475419D02*
X136639411Y-49570657D01*
X136639411Y-49570657D02*
X136639411Y-49665895D01*
X136639411Y-49665895D02*
X136687030Y-49761133D01*
X136687030Y-49761133D02*
X136734649Y-49808752D01*
X136734649Y-49808752D02*
X136829887Y-49856371D01*
X136829887Y-49856371D02*
X137020363Y-49903990D01*
X137020363Y-49903990D02*
X137115601Y-49951609D01*
X137115601Y-49951609D02*
X137163220Y-49999228D01*
X137163220Y-49999228D02*
X137210839Y-50094466D01*
X137210839Y-50094466D02*
X137210839Y-50189704D01*
X137210839Y-50189704D02*
X137163220Y-50284942D01*
X137163220Y-50284942D02*
X137115601Y-50332561D01*
X137115601Y-50332561D02*
X137020363Y-50380180D01*
X137020363Y-50380180D02*
X136782268Y-50380180D01*
X136782268Y-50380180D02*
X136639411Y-50332561D01*
X135829887Y-49427800D02*
X135925125Y-49380180D01*
X135925125Y-49380180D02*
X136115601Y-49380180D01*
X136115601Y-49380180D02*
X136210839Y-49427800D01*
X136210839Y-49427800D02*
X136258458Y-49523038D01*
X136258458Y-49523038D02*
X136258458Y-49903990D01*
X136258458Y-49903990D02*
X136210839Y-49999228D01*
X136210839Y-49999228D02*
X136115601Y-50046847D01*
X136115601Y-50046847D02*
X135925125Y-50046847D01*
X135925125Y-50046847D02*
X135829887Y-49999228D01*
X135829887Y-49999228D02*
X135782268Y-49903990D01*
X135782268Y-49903990D02*
X135782268Y-49808752D01*
X135782268Y-49808752D02*
X136258458Y-49713514D01*
X135353696Y-49380180D02*
X135353696Y-50046847D01*
X135353696Y-49856371D02*
X135306077Y-49951609D01*
X135306077Y-49951609D02*
X135258458Y-49999228D01*
X135258458Y-49999228D02*
X135163220Y-50046847D01*
X135163220Y-50046847D02*
X135067982Y-50046847D01*
X134829886Y-50046847D02*
X134591791Y-49380180D01*
X134591791Y-49380180D02*
X134353696Y-50046847D01*
X133829886Y-49380180D02*
X133925124Y-49427800D01*
X133925124Y-49427800D02*
X133972743Y-49475419D01*
X133972743Y-49475419D02*
X134020362Y-49570657D01*
X134020362Y-49570657D02*
X134020362Y-49856371D01*
X134020362Y-49856371D02*
X133972743Y-49951609D01*
X133972743Y-49951609D02*
X133925124Y-49999228D01*
X133925124Y-49999228D02*
X133829886Y-50046847D01*
X133829886Y-50046847D02*
X133687029Y-50046847D01*
X133687029Y-50046847D02*
X133591791Y-49999228D01*
X133591791Y-49999228D02*
X133544172Y-49951609D01*
X133544172Y-49951609D02*
X133496553Y-49856371D01*
X133496553Y-49856371D02*
X133496553Y-49570657D01*
X133496553Y-49570657D02*
X133544172Y-49475419D01*
X133544172Y-49475419D02*
X133591791Y-49427800D01*
X133591791Y-49427800D02*
X133687029Y-49380180D01*
X133687029Y-49380180D02*
X133829886Y-49380180D01*
X133115600Y-50284942D02*
X133067981Y-50332561D01*
X133067981Y-50332561D02*
X132972743Y-50380180D01*
X132972743Y-50380180D02*
X132734648Y-50380180D01*
X132734648Y-50380180D02*
X132639410Y-50332561D01*
X132639410Y-50332561D02*
X132591791Y-50284942D01*
X132591791Y-50284942D02*
X132544172Y-50189704D01*
X132544172Y-50189704D02*
X132544172Y-50094466D01*
X132544172Y-50094466D02*
X132591791Y-49951609D01*
X132591791Y-49951609D02*
X133163219Y-49380180D01*
X133163219Y-49380180D02*
X132544172Y-49380180D01*
X142163220Y-51731133D02*
X141401316Y-51731133D01*
X144687030Y-52380180D02*
X145163220Y-52380180D01*
X145163220Y-52380180D02*
X145210839Y-51903990D01*
X145210839Y-51903990D02*
X145163220Y-51951609D01*
X145163220Y-51951609D02*
X145067982Y-51999228D01*
X145067982Y-51999228D02*
X144829887Y-51999228D01*
X144829887Y-51999228D02*
X144734649Y-51951609D01*
X144734649Y-51951609D02*
X144687030Y-51903990D01*
X144687030Y-51903990D02*
X144639411Y-51808752D01*
X144639411Y-51808752D02*
X144639411Y-51570657D01*
X144639411Y-51570657D02*
X144687030Y-51475419D01*
X144687030Y-51475419D02*
X144734649Y-51427800D01*
X144734649Y-51427800D02*
X144829887Y-51380180D01*
X144829887Y-51380180D02*
X145067982Y-51380180D01*
X145067982Y-51380180D02*
X145163220Y-51427800D01*
X145163220Y-51427800D02*
X145210839Y-51475419D01*
X144353696Y-52380180D02*
X144020363Y-51380180D01*
X144020363Y-51380180D02*
X143687030Y-52380180D01*
X149163220Y-52011133D02*
X148401316Y-52011133D01*
X152054411Y-51332680D02*
X152625839Y-51332680D01*
X152340125Y-51332680D02*
X152340125Y-52332680D01*
X152340125Y-52332680D02*
X152435363Y-52189823D01*
X152435363Y-52189823D02*
X152530601Y-52094585D01*
X152530601Y-52094585D02*
X152625839Y-52046966D01*
X151673458Y-52237442D02*
X151625839Y-52285061D01*
X151625839Y-52285061D02*
X151530601Y-52332680D01*
X151530601Y-52332680D02*
X151292506Y-52332680D01*
X151292506Y-52332680D02*
X151197268Y-52285061D01*
X151197268Y-52285061D02*
X151149649Y-52237442D01*
X151149649Y-52237442D02*
X151102030Y-52142204D01*
X151102030Y-52142204D02*
X151102030Y-52046966D01*
X151102030Y-52046966D02*
X151149649Y-51904109D01*
X151149649Y-51904109D02*
X151721077Y-51332680D01*
X151721077Y-51332680D02*
X151102030Y-51332680D01*
X150816315Y-52332680D02*
X150482982Y-51332680D01*
X150482982Y-51332680D02*
X150149649Y-52332680D01*
X118045180Y-79238095D02*
X117235657Y-79238095D01*
X117235657Y-79238095D02*
X117140419Y-79285714D01*
X117140419Y-79285714D02*
X117092800Y-79333333D01*
X117092800Y-79333333D02*
X117045180Y-79428571D01*
X117045180Y-79428571D02*
X117045180Y-79619047D01*
X117045180Y-79619047D02*
X117092800Y-79714285D01*
X117092800Y-79714285D02*
X117140419Y-79761904D01*
X117140419Y-79761904D02*
X117235657Y-79809523D01*
X117235657Y-79809523D02*
X118045180Y-79809523D01*
X117711847Y-80714285D02*
X117045180Y-80714285D01*
X118092800Y-80476190D02*
X117378514Y-80238095D01*
X117378514Y-80238095D02*
X117378514Y-80857142D01*
X110973866Y-61530951D02*
X110973866Y-60769047D01*
X111014700Y-74021428D02*
X111014700Y-72878571D01*
X111586128Y-73449999D02*
X110443271Y-73449999D01*
X141704819Y-77499999D02*
X141942914Y-77499999D01*
X141847676Y-77738094D02*
X141942914Y-77499999D01*
X141942914Y-77499999D02*
X141847676Y-77261904D01*
X142133390Y-77642856D02*
X141942914Y-77499999D01*
X141942914Y-77499999D02*
X142133390Y-77357142D01*
X141704819Y-77499999D02*
X141942914Y-77499999D01*
X141847676Y-77738094D02*
X141942914Y-77499999D01*
X141942914Y-77499999D02*
X141847676Y-77261904D01*
X142133390Y-77642856D02*
X141942914Y-77499999D01*
X141942914Y-77499999D02*
X142133390Y-77357142D01*
X133011666Y-116979819D02*
X133011666Y-117694104D01*
X133011666Y-117694104D02*
X132964047Y-117836961D01*
X132964047Y-117836961D02*
X132868809Y-117932200D01*
X132868809Y-117932200D02*
X132725952Y-117979819D01*
X132725952Y-117979819D02*
X132630714Y-117979819D01*
X133440238Y-117075057D02*
X133487857Y-117027438D01*
X133487857Y-117027438D02*
X133583095Y-116979819D01*
X133583095Y-116979819D02*
X133821190Y-116979819D01*
X133821190Y-116979819D02*
X133916428Y-117027438D01*
X133916428Y-117027438D02*
X133964047Y-117075057D01*
X133964047Y-117075057D02*
X134011666Y-117170295D01*
X134011666Y-117170295D02*
X134011666Y-117265533D01*
X134011666Y-117265533D02*
X133964047Y-117408390D01*
X133964047Y-117408390D02*
X133392619Y-117979819D01*
X133392619Y-117979819D02*
X134011666Y-117979819D01*
X124278571Y-87614700D02*
X125421429Y-87614700D01*
X124850000Y-88186128D02*
X124850000Y-87043271D01*
X136578571Y-87614700D02*
X137721429Y-87614700D01*
X150511666Y-116979819D02*
X150511666Y-117694104D01*
X150511666Y-117694104D02*
X150464047Y-117836961D01*
X150464047Y-117836961D02*
X150368809Y-117932200D01*
X150368809Y-117932200D02*
X150225952Y-117979819D01*
X150225952Y-117979819D02*
X150130714Y-117979819D01*
X151130714Y-117408390D02*
X151035476Y-117360771D01*
X151035476Y-117360771D02*
X150987857Y-117313152D01*
X150987857Y-117313152D02*
X150940238Y-117217914D01*
X150940238Y-117217914D02*
X150940238Y-117170295D01*
X150940238Y-117170295D02*
X150987857Y-117075057D01*
X150987857Y-117075057D02*
X151035476Y-117027438D01*
X151035476Y-117027438D02*
X151130714Y-116979819D01*
X151130714Y-116979819D02*
X151321190Y-116979819D01*
X151321190Y-116979819D02*
X151416428Y-117027438D01*
X151416428Y-117027438D02*
X151464047Y-117075057D01*
X151464047Y-117075057D02*
X151511666Y-117170295D01*
X151511666Y-117170295D02*
X151511666Y-117217914D01*
X151511666Y-117217914D02*
X151464047Y-117313152D01*
X151464047Y-117313152D02*
X151416428Y-117360771D01*
X151416428Y-117360771D02*
X151321190Y-117408390D01*
X151321190Y-117408390D02*
X151130714Y-117408390D01*
X151130714Y-117408390D02*
X151035476Y-117456009D01*
X151035476Y-117456009D02*
X150987857Y-117503628D01*
X150987857Y-117503628D02*
X150940238Y-117598866D01*
X150940238Y-117598866D02*
X150940238Y-117789342D01*
X150940238Y-117789342D02*
X150987857Y-117884580D01*
X150987857Y-117884580D02*
X151035476Y-117932200D01*
X151035476Y-117932200D02*
X151130714Y-117979819D01*
X151130714Y-117979819D02*
X151321190Y-117979819D01*
X151321190Y-117979819D02*
X151416428Y-117932200D01*
X151416428Y-117932200D02*
X151464047Y-117884580D01*
X151464047Y-117884580D02*
X151511666Y-117789342D01*
X151511666Y-117789342D02*
X151511666Y-117598866D01*
X151511666Y-117598866D02*
X151464047Y-117503628D01*
X151464047Y-117503628D02*
X151416428Y-117456009D01*
X151416428Y-117456009D02*
X151321190Y-117408390D01*
X141778571Y-87614700D02*
X142921429Y-87614700D01*
X142350000Y-88186128D02*
X142350000Y-87043271D01*
X154078571Y-87614700D02*
X155221429Y-87614700D01*
%TO.C,U4*%
D11*
X116000000Y-80700001D02*
X116800001Y-80700001D01*
X116000000Y-80200002D02*
X116000000Y-80700001D01*
X118200001Y-80700001D02*
X119000000Y-80700001D01*
X119000000Y-80200002D02*
X119000000Y-80700001D01*
%TO.C,Q1*%
D12*
X111685000Y-84910000D02*
X115665000Y-84910000D01*
X111685000Y-85010000D02*
X111685000Y-84910000D01*
X111685000Y-90090000D02*
X111685000Y-89990000D01*
X115665000Y-84910000D02*
X115665000Y-85010000D01*
X115665000Y-89990000D02*
X115665000Y-90090000D01*
X115665000Y-90090000D02*
X111685000Y-90090000D01*
X116215000Y-90000000D02*
X116455000Y-90330000D01*
X115975000Y-90330000D01*
X116215000Y-90000000D01*
G36*
X116455000Y-90330000D02*
G01*
X115975000Y-90330000D01*
X116215000Y-90000000D01*
X116455000Y-90330000D01*
G37*
%TO.C,Q6*%
X149345000Y-66465000D02*
X149440000Y-66465000D01*
X149345000Y-70585000D02*
X149345000Y-66465000D01*
X149440000Y-70585000D02*
X149345000Y-70585000D01*
X154370000Y-66465000D02*
X154465000Y-66465000D01*
X154465000Y-66465000D02*
X154465000Y-70585000D01*
X154465000Y-70585000D02*
X154370000Y-70585000D01*
X149435000Y-71125000D02*
X149105000Y-71365000D01*
X149105000Y-70885000D01*
X149435000Y-71125000D01*
G36*
X149435000Y-71125000D02*
G01*
X149105000Y-71365000D01*
X149105000Y-70885000D01*
X149435000Y-71125000D01*
G37*
%TO.C,C49*%
X146896267Y-68990000D02*
X146603733Y-68990000D01*
X146896267Y-70010000D02*
X146603733Y-70010000D01*
%TO.C,D4*%
X104552500Y-57165000D02*
X104552500Y-58635000D01*
X104552500Y-58635000D02*
X107012500Y-58635000D01*
X107012500Y-57165000D02*
X104552500Y-57165000D01*
%TO.C,J5*%
X92940000Y-60540000D02*
X100640000Y-60540000D01*
X92940000Y-74560000D02*
X92940000Y-60540000D01*
X92940000Y-74560000D02*
X100640000Y-74560000D01*
X100640000Y-59690000D02*
X106250000Y-59690000D01*
X100640000Y-60540000D02*
X100640000Y-59690000D01*
X100640000Y-75410000D02*
X100640000Y-74560000D01*
X100640000Y-75410000D02*
X106250000Y-75410000D01*
X110360000Y-70000000D02*
X110360000Y-66260000D01*
X106250000Y-59690000D02*
G75*
G02*
X109772958Y-61683194I0J-4110000D01*
G01*
X110208718Y-72539900D02*
G75*
G02*
X106250000Y-75410000I-3918716J1239898D01*
G01*
%TO.C,R14*%
X153977500Y-47754724D02*
X153977500Y-47245276D01*
X155022500Y-47754724D02*
X155022500Y-47245276D01*
%TO.C,TP3*%
X109712500Y-55800000D02*
G75*
G02*
X108312500Y-55800000I-700000J0D01*
G01*
X108312500Y-55800000D02*
G75*
G02*
X109712500Y-55800000I700000J0D01*
G01*
%TO.C,U2*%
D13*
X140573600Y-75823600D02*
X140573600Y-79176400D01*
X143926400Y-79176400D02*
X143926400Y-75823600D01*
%TO.C,R25*%
D12*
X109667224Y-77977500D02*
X109157776Y-77977500D01*
X109667224Y-79022500D02*
X109157776Y-79022500D01*
%TO.C,R24*%
X113667224Y-77977500D02*
X113157776Y-77977500D01*
X113667224Y-79022500D02*
X113157776Y-79022500D01*
%TO.C,R11*%
X102667224Y-53277500D02*
X102157776Y-53277500D01*
X102667224Y-54322500D02*
X102157776Y-54322500D01*
%TO.C,C21*%
X120740000Y-85146267D02*
X120740000Y-84853733D01*
X121760000Y-85146267D02*
X121760000Y-84853733D01*
%TO.C,TP1*%
X109712500Y-51800000D02*
G75*
G02*
X108312500Y-51800000I-700000J0D01*
G01*
X108312500Y-51800000D02*
G75*
G02*
X109712500Y-51800000I700000J0D01*
G01*
%TO.C,R13*%
X102667224Y-57377500D02*
X102157776Y-57377500D01*
X102667224Y-58422500D02*
X102157776Y-58422500D01*
%TO.C,R34*%
X117822936Y-57490000D02*
X122177064Y-57490000D01*
X117822936Y-60910000D02*
X122177064Y-60910000D01*
%TO.C,R10*%
X102667224Y-51277500D02*
X102157776Y-51277500D01*
X102667224Y-52322500D02*
X102157776Y-52322500D01*
%TO.C,R7*%
X122254724Y-81477500D02*
X121745276Y-81477500D01*
X122254724Y-82522500D02*
X121745276Y-82522500D01*
%TO.C,D41*%
X124100000Y-86565348D02*
X124100000Y-79555348D01*
X124100000Y-86565348D02*
X127400000Y-86565348D01*
X127400000Y-86565348D02*
X127400000Y-79555348D01*
%TO.C,C12*%
X113240000Y-75896267D02*
X113240000Y-75603733D01*
X114260000Y-75896267D02*
X114260000Y-75603733D01*
%TO.C,U6*%
X132390000Y-65640000D02*
X132565000Y-65640000D01*
X132390000Y-68860000D02*
X132390000Y-65640000D01*
X132565000Y-68860000D02*
X132390000Y-68860000D01*
X135435000Y-65640000D02*
X135610000Y-65640000D01*
X135610000Y-65640000D02*
X135610000Y-68860000D01*
X135610000Y-68860000D02*
X135435000Y-68860000D01*
X135440000Y-65090000D02*
X135770000Y-64850000D01*
X135770000Y-65330000D01*
X135440000Y-65090000D01*
G36*
X135770000Y-65330000D02*
G01*
X135440000Y-65090000D01*
X135770000Y-64850000D01*
X135770000Y-65330000D01*
G37*
%TO.C,J2*%
X122890000Y-106460000D02*
X122890000Y-92150000D01*
X132040000Y-88040000D02*
X128300000Y-88040000D01*
X138610000Y-106460000D02*
X122890000Y-106460000D01*
X138610000Y-106460000D02*
X138610000Y-92150000D01*
X122890000Y-92150000D02*
G75*
G02*
X125798352Y-88219587I4110000J0D01*
G01*
X136616806Y-88627042D02*
G75*
G02*
X138610000Y-92150000I-2116805J-3522957D01*
G01*
%TO.C,TP2*%
X109700000Y-53800000D02*
G75*
G02*
X108300000Y-53800000I-700000J0D01*
G01*
X108300000Y-53800000D02*
G75*
G02*
X109700000Y-53800000I700000J0D01*
G01*
%TO.C,J1*%
X158790000Y-60515000D02*
X158790000Y-62315000D01*
X158790000Y-67185000D02*
X157800000Y-67185000D01*
X158790000Y-68985000D02*
X158790000Y-67185000D01*
X160240000Y-60515000D02*
X158790000Y-60515000D01*
X160240000Y-68985000D02*
X158790000Y-68985000D01*
X163060000Y-67715000D02*
X163060000Y-61785000D01*
%TO.C,R28*%
X107477500Y-81245276D02*
X107477500Y-81754724D01*
X108522500Y-81245276D02*
X108522500Y-81754724D01*
%TO.C,R29*%
X109245276Y-76227500D02*
X109754724Y-76227500D01*
X109245276Y-77272500D02*
X109754724Y-77272500D01*
%TO.C,C48*%
X113461252Y-47265000D02*
X112938748Y-47265000D01*
X113461252Y-48735000D02*
X112938748Y-48735000D01*
%TO.C,Q2*%
X103010000Y-83505000D02*
X106990000Y-83505000D01*
X103010000Y-83605000D02*
X103010000Y-83505000D01*
X103010000Y-88685000D02*
X103010000Y-88585000D01*
X106990000Y-83505000D02*
X106990000Y-83605000D01*
X106990000Y-88585000D02*
X106990000Y-88685000D01*
X106990000Y-88685000D02*
X103010000Y-88685000D01*
X107540000Y-88595000D02*
X107780000Y-88925000D01*
X107300000Y-88925000D01*
X107540000Y-88595000D01*
G36*
X107780000Y-88925000D02*
G01*
X107300000Y-88925000D01*
X107540000Y-88595000D01*
X107780000Y-88925000D01*
G37*
%TO.C,C27*%
X114061252Y-57265000D02*
X113538748Y-57265000D01*
X114061252Y-58735000D02*
X113538748Y-58735000D01*
%TO.C,C30*%
X137740000Y-76353733D02*
X137740000Y-76646267D01*
X138760000Y-76353733D02*
X138760000Y-76646267D01*
%TO.C,C50*%
X138216233Y-64490000D02*
X138508767Y-64490000D01*
X138216233Y-65510000D02*
X138508767Y-65510000D01*
%TO.C,J8*%
X140390000Y-106460000D02*
X140390000Y-92150000D01*
X149540000Y-88040000D02*
X145800000Y-88040000D01*
X156110000Y-106460000D02*
X140390000Y-106460000D01*
X156110000Y-106460000D02*
X156110000Y-92150000D01*
X140390000Y-92150000D02*
G75*
G02*
X143298352Y-88219587I4110000J0D01*
G01*
X154116806Y-88627042D02*
G75*
G02*
X156110000Y-92150000I-2116805J-3522957D01*
G01*
%TO.C,J6*%
X158790000Y-70015000D02*
X158790000Y-71815000D01*
X158790000Y-76685000D02*
X157800000Y-76685000D01*
X158790000Y-78485000D02*
X158790000Y-76685000D01*
X160240000Y-70015000D02*
X158790000Y-70015000D01*
X160240000Y-78485000D02*
X158790000Y-78485000D01*
X163060000Y-77215000D02*
X163060000Y-71285000D01*
%TO.C,R12*%
X102667224Y-55277500D02*
X102157776Y-55277500D01*
X102667224Y-56322500D02*
X102157776Y-56322500D01*
%TO.C,D5*%
X156015000Y-45840000D02*
X156015000Y-48300000D01*
X157485000Y-45840000D02*
X156015000Y-45840000D01*
X157485000Y-48300000D02*
X157485000Y-45840000D01*
%TO.C,J7*%
X157280000Y-86610000D02*
X164020000Y-86610000D01*
X157280000Y-92430000D02*
X157280000Y-86610000D01*
X159000000Y-92430000D02*
X159000000Y-86610000D01*
X162100000Y-92430000D02*
X162100000Y-86610000D01*
X163100000Y-92430000D02*
X163100000Y-86610000D01*
X164020000Y-86610000D02*
X164020000Y-90490000D01*
X164020000Y-91090000D02*
X164020000Y-92430000D01*
X164020000Y-92430000D02*
X157280000Y-92430000D01*
X164020000Y-90790000D02*
X164630000Y-90350000D01*
X164630000Y-91230000D01*
X164020000Y-90790000D01*
G36*
X164630000Y-91230000D02*
G01*
X164020000Y-90790000D01*
X164630000Y-90350000D01*
X164630000Y-91230000D01*
G37*
%TO.C,R17*%
X152290000Y-80177064D02*
X152290000Y-75822936D01*
X155710000Y-80177064D02*
X155710000Y-75822936D01*
%TO.C,C17*%
X114061252Y-59765000D02*
X113538748Y-59765000D01*
X114061252Y-61235000D02*
X113538748Y-61235000D01*
%TO.C,Q4*%
X115645000Y-49747500D02*
X115745000Y-49747500D01*
X115645000Y-53727500D02*
X115645000Y-49747500D01*
X115745000Y-53727500D02*
X115645000Y-53727500D01*
X120725000Y-49747500D02*
X120825000Y-49747500D01*
X120825000Y-49747500D02*
X120825000Y-53727500D01*
X120825000Y-53727500D02*
X120725000Y-53727500D01*
X115735000Y-54277500D02*
X115405000Y-54517500D01*
X115405000Y-54037500D01*
X115735000Y-54277500D01*
G36*
X115735000Y-54277500D02*
G01*
X115405000Y-54517500D01*
X115405000Y-54037500D01*
X115735000Y-54277500D01*
G37*
%TO.C,D2*%
X104552500Y-53065000D02*
X104552500Y-54535000D01*
X104552500Y-54535000D02*
X107012500Y-54535000D01*
X107012500Y-53065000D02*
X104552500Y-53065000D01*
%TO.C,U10*%
X138940000Y-67690000D02*
X143060000Y-67690000D01*
X138940000Y-67785000D02*
X138940000Y-67690000D01*
X138940000Y-72810000D02*
X138940000Y-72715000D01*
X143060000Y-67690000D02*
X143060000Y-67785000D01*
X143060000Y-72715000D02*
X143060000Y-72810000D01*
X143060000Y-72810000D02*
X138940000Y-72810000D01*
X138400000Y-67780000D02*
X138160000Y-67450000D01*
X138640000Y-67450000D01*
X138400000Y-67780000D01*
G36*
X138400000Y-67780000D02*
G01*
X138160000Y-67450000D01*
X138640000Y-67450000D01*
X138400000Y-67780000D01*
G37*
%TO.C,D11*%
X118400000Y-88760000D02*
X118400000Y-85500000D01*
X118400000Y-88760000D02*
X120100000Y-88760000D01*
X120100000Y-88760000D02*
X120100000Y-85500000D01*
%TO.C,C18*%
X102346267Y-89390000D02*
X102053733Y-89390000D01*
X102346267Y-90410000D02*
X102053733Y-90410000D01*
%TO.C,J11*%
X121850000Y-44600000D02*
X129650000Y-44600000D01*
X121850000Y-50650000D02*
X121850000Y-44600000D01*
X123220000Y-45710000D02*
X123220000Y-44700000D01*
X128300000Y-44700000D02*
X128300000Y-45710000D01*
X128300000Y-45710000D02*
X123220000Y-45710000D01*
X129650000Y-44600000D02*
X129650000Y-50650000D01*
X129650000Y-50650000D02*
X121850000Y-50650000D01*
%TO.C,R30*%
X111977500Y-81245276D02*
X111977500Y-81754724D01*
X113022500Y-81245276D02*
X113022500Y-81754724D01*
%TO.C,C2*%
X147146267Y-53240000D02*
X146853733Y-53240000D01*
X147146267Y-54260000D02*
X146853733Y-54260000D01*
%TO.C,C47*%
X113053733Y-44580000D02*
X113346267Y-44580000D01*
X113053733Y-45600000D02*
X113346267Y-45600000D01*
%TO.C,R3*%
X146995276Y-71977500D02*
X147504724Y-71977500D01*
X146995276Y-73022500D02*
X147504724Y-73022500D01*
%TO.C,D3*%
X104552500Y-55065000D02*
X104552500Y-56535000D01*
X104552500Y-56535000D02*
X107012500Y-56535000D01*
X107012500Y-55065000D02*
X104552500Y-55065000D01*
%TO.C,J20*%
X158790000Y-51020000D02*
X158790000Y-52820000D01*
X158790000Y-57690000D02*
X157800000Y-57690000D01*
X158790000Y-59490000D02*
X158790000Y-57690000D01*
X160240000Y-51020000D02*
X158790000Y-51020000D01*
X160240000Y-59490000D02*
X158790000Y-59490000D01*
X163060000Y-58220000D02*
X163060000Y-52290000D01*
%TO.C,C28*%
X114061252Y-54865000D02*
X113538748Y-54865000D01*
X114061252Y-56335000D02*
X113538748Y-56335000D01*
%TO.C,J15*%
X140095000Y-44480000D02*
X143975000Y-44480000D01*
X140095000Y-51220000D02*
X140095000Y-44480000D01*
X144575000Y-44480000D02*
X145915000Y-44480000D01*
X145915000Y-44480000D02*
X145915000Y-51220000D01*
X145915000Y-45400000D02*
X140095000Y-45400000D01*
X145915000Y-46400000D02*
X140095000Y-46400000D01*
X145915000Y-49500000D02*
X140095000Y-49500000D01*
X145915000Y-51220000D02*
X140095000Y-51220000D01*
X144275000Y-44480000D02*
X143835000Y-43870000D01*
X144715000Y-43870000D01*
X144275000Y-44480000D01*
G36*
X144275000Y-44480000D02*
G01*
X143835000Y-43870000D01*
X144715000Y-43870000D01*
X144275000Y-44480000D01*
G37*
%TO.C,R27*%
X113977500Y-81245276D02*
X113977500Y-81754724D01*
X115022500Y-81245276D02*
X115022500Y-81754724D01*
%TO.C,J10*%
X107860000Y-92280000D02*
X113680000Y-92280000D01*
X107860000Y-94000000D02*
X113680000Y-94000000D01*
X107860000Y-97100000D02*
X113680000Y-97100000D01*
X107860000Y-98100000D02*
X113680000Y-98100000D01*
X107860000Y-99020000D02*
X107860000Y-92280000D01*
X109200000Y-99020000D02*
X107860000Y-99020000D01*
X113680000Y-92280000D02*
X113680000Y-99020000D01*
X113680000Y-99020000D02*
X109800000Y-99020000D01*
X109500000Y-99020000D02*
X109940000Y-99630000D01*
X109060000Y-99630000D01*
X109500000Y-99020000D01*
G36*
X109940000Y-99630000D02*
G01*
X109060000Y-99630000D01*
X109500000Y-99020000D01*
X109940000Y-99630000D01*
G37*
%TO.C,D1*%
X104552500Y-51065000D02*
X104552500Y-52535000D01*
X104552500Y-52535000D02*
X107012500Y-52535000D01*
X107012500Y-51065000D02*
X104552500Y-51065000D01*
%TO.C,R16*%
X146495276Y-66977500D02*
X147004724Y-66977500D01*
X146495276Y-68022500D02*
X147004724Y-68022500D01*
%TO.C,J4*%
X147095000Y-44462500D02*
X150975000Y-44462500D01*
X147095000Y-51202500D02*
X147095000Y-44462500D01*
X151575000Y-44462500D02*
X152915000Y-44462500D01*
X152915000Y-44462500D02*
X152915000Y-51202500D01*
X152915000Y-45382500D02*
X147095000Y-45382500D01*
X152915000Y-46382500D02*
X147095000Y-46382500D01*
X152915000Y-49482500D02*
X147095000Y-49482500D01*
X152915000Y-51202500D02*
X147095000Y-51202500D01*
X151275000Y-44462500D02*
X150835000Y-43852500D01*
X151715000Y-43852500D01*
X151275000Y-44462500D01*
G36*
X151275000Y-44462500D02*
G01*
X150835000Y-43852500D01*
X151715000Y-43852500D01*
X151275000Y-44462500D01*
G37*
%TO.C,R6*%
X147290000Y-81677064D02*
X147290000Y-77322936D01*
X150710000Y-81677064D02*
X150710000Y-77322936D01*
%TO.C,R9*%
X122477500Y-85254724D02*
X122477500Y-84745276D01*
X123522500Y-85254724D02*
X123522500Y-84745276D01*
%TO.C,L1*%
D14*
X115100000Y-62850000D02*
X118380000Y-62850000D01*
X115100000Y-75650000D02*
X115100000Y-62850000D01*
X115100000Y-75650000D02*
X118380000Y-75650000D01*
X127900000Y-62850000D02*
X124620000Y-62850000D01*
X127900000Y-75650000D02*
X124620000Y-75650000D01*
X127900000Y-75650000D02*
X127900000Y-62850000D01*
%TO.C,R26*%
D12*
X111477500Y-76004724D02*
X111477500Y-75495276D01*
X112522500Y-76004724D02*
X112522500Y-75495276D01*
%TO.C,R5*%
X121677500Y-53004724D02*
X121677500Y-52495276D01*
X122722500Y-53004724D02*
X122722500Y-52495276D01*
%TO.C,J3*%
X157280000Y-79570000D02*
X164020000Y-79570000D01*
X157280000Y-85390000D02*
X157280000Y-79570000D01*
X159000000Y-85390000D02*
X159000000Y-79570000D01*
X162100000Y-85390000D02*
X162100000Y-79570000D01*
X163100000Y-85390000D02*
X163100000Y-79570000D01*
X164020000Y-79570000D02*
X164020000Y-83450000D01*
X164020000Y-84050000D02*
X164020000Y-85390000D01*
X164020000Y-85390000D02*
X157280000Y-85390000D01*
X164020000Y-83750000D02*
X164630000Y-83310000D01*
X164630000Y-84190000D01*
X164020000Y-83750000D01*
G36*
X164630000Y-84190000D02*
G01*
X164020000Y-83750000D01*
X164630000Y-83310000D01*
X164630000Y-84190000D01*
G37*
%TO.C,J12*%
X131090000Y-44600000D02*
X138890000Y-44600000D01*
X131090000Y-50650000D02*
X131090000Y-44600000D01*
X132460000Y-45710000D02*
X132460000Y-44700000D01*
X137540000Y-44700000D02*
X137540000Y-45710000D01*
X137540000Y-45710000D02*
X132460000Y-45710000D01*
X138890000Y-44600000D02*
X138890000Y-50650000D01*
X138890000Y-50650000D02*
X131090000Y-50650000D01*
%TO.C,J16*%
X115320000Y-92280000D02*
X121140000Y-92280000D01*
X115320000Y-94000000D02*
X121140000Y-94000000D01*
X115320000Y-97100000D02*
X121140000Y-97100000D01*
X115320000Y-98100000D02*
X121140000Y-98100000D01*
X115320000Y-99020000D02*
X115320000Y-92280000D01*
X116660000Y-99020000D02*
X115320000Y-99020000D01*
X121140000Y-92280000D02*
X121140000Y-99020000D01*
X121140000Y-99020000D02*
X117260000Y-99020000D01*
X116960000Y-99020000D02*
X117400000Y-99630000D01*
X116520000Y-99630000D01*
X116960000Y-99020000D01*
G36*
X117400000Y-99630000D02*
G01*
X116520000Y-99630000D01*
X116960000Y-99020000D01*
X117400000Y-99630000D01*
G37*
%TO.C,D7*%
X109400000Y-83760000D02*
X109400000Y-80500000D01*
X109400000Y-83760000D02*
X111100000Y-83760000D01*
X111100000Y-83760000D02*
X111100000Y-80500000D01*
%TO.C,TP4*%
X109700000Y-57800000D02*
G75*
G02*
X108300000Y-57800000I-700000J0D01*
G01*
X108300000Y-57800000D02*
G75*
G02*
X109700000Y-57800000I700000J0D01*
G01*
%TO.C,U11*%
X150890000Y-52890000D02*
X154110000Y-52890000D01*
X150890000Y-53090000D02*
X150890000Y-52890000D01*
X150890000Y-56110000D02*
X150890000Y-55910000D01*
X154110000Y-52890000D02*
X154110000Y-53090000D01*
X154110000Y-55910000D02*
X154110000Y-56110000D01*
X154110000Y-56110000D02*
X150890000Y-56110000D01*
X154660000Y-55910000D02*
X154900000Y-56240000D01*
X154420000Y-56240000D01*
X154660000Y-55910000D01*
G36*
X154900000Y-56240000D02*
G01*
X154420000Y-56240000D01*
X154660000Y-55910000D01*
X154900000Y-56240000D01*
G37*
%TO.C,C22*%
X106646267Y-89390000D02*
X106353733Y-89390000D01*
X106646267Y-90410000D02*
X106353733Y-90410000D01*
%TD*%
M02*
