%TF.GenerationSoftware,KiCad,Pcbnew,10.0.0*%
%TF.CreationDate,2026-04-01T16:59:59-04:00*%
%TF.ProjectId,power_db_hat,706f7765-725f-4646-925f-6861742e6b69,rev?*%
%TF.SameCoordinates,Original*%
%TF.FileFunction,Copper,L3,Inr*%
%TF.FilePolarity,Positive*%
%FSLAX46Y46*%
G04 Gerber Fmt 4.6, Leading zero omitted, Abs format (unit mm)*
G04 Created by KiCad (PCBNEW 10.0.0) date 2026-04-01 16:59:59*
%MOMM*%
%LPD*%
G01*
G04 APERTURE LIST*
G04 Aperture macros list*
%AMRoundRect*
0 Rectangle with rounded corners*
0 $1 Rounding radius*
0 $2 $3 $4 $5 $6 $7 $8 $9 X,Y pos of 4 corners*
0 Add a 4 corners polygon primitive as box body*
4,1,4,$2,$3,$4,$5,$6,$7,$8,$9,$2,$3,0*
0 Add four circle primitives for the rounded corners*
1,1,$1+$1,$2,$3*
1,1,$1+$1,$4,$5*
1,1,$1+$1,$6,$7*
1,1,$1+$1,$8,$9*
0 Add four rect primitives between the rounded corners*
20,1,$1+$1,$2,$3,$4,$5,0*
20,1,$1+$1,$4,$5,$6,$7,0*
20,1,$1+$1,$6,$7,$8,$9,0*
20,1,$1+$1,$8,$9,$2,$3,0*%
G04 Aperture macros list end*
%TA.AperFunction,ComponentPad*%
%ADD10R,2.000000X0.900000*%
%TD*%
%TA.AperFunction,ComponentPad*%
%ADD11RoundRect,1.025000X1.025000X-1.025000X1.025000X1.025000X-1.025000X1.025000X-1.025000X-1.025000X0*%
%TD*%
%TA.AperFunction,ComponentPad*%
%ADD12C,4.100000*%
%TD*%
%TA.AperFunction,ComponentPad*%
%ADD13R,0.900000X2.000000*%
%TD*%
%TA.AperFunction,ComponentPad*%
%ADD14RoundRect,1.025000X1.025000X1.025000X-1.025000X1.025000X-1.025000X-1.025000X1.025000X-1.025000X0*%
%TD*%
%TA.AperFunction,ComponentPad*%
%ADD15RoundRect,0.250000X0.750000X-0.750000X0.750000X0.750000X-0.750000X0.750000X-0.750000X-0.750000X0*%
%TD*%
%TA.AperFunction,ComponentPad*%
%ADD16C,2.000000*%
%TD*%
%TA.AperFunction,ComponentPad*%
%ADD17R,1.730000X2.030000*%
%TD*%
%TA.AperFunction,ComponentPad*%
%ADD18O,1.730000X2.030000*%
%TD*%
%TA.AperFunction,ComponentPad*%
%ADD19RoundRect,0.250000X0.750000X0.750000X-0.750000X0.750000X-0.750000X-0.750000X0.750000X-0.750000X0*%
%TD*%
%TA.AperFunction,ComponentPad*%
%ADD20RoundRect,0.250000X-0.750000X-0.750000X0.750000X-0.750000X0.750000X0.750000X-0.750000X0.750000X0*%
%TD*%
%TA.AperFunction,ViaPad*%
%ADD21C,0.600000*%
%TD*%
%TA.AperFunction,ViaPad*%
%ADD22C,0.900000*%
%TD*%
G04 APERTURE END LIST*
D10*
%TO.N,*%
%TO.C,J5*%
X102400000Y-74300000D03*
X102400000Y-60800000D03*
D11*
%TO.N,GND*%
X108400000Y-63950000D03*
D12*
%TO.N,+24V*%
X108400000Y-71150000D03*
%TD*%
D13*
%TO.N,*%
%TO.C,J2*%
X137500000Y-96000000D03*
X124000000Y-96000000D03*
D14*
%TO.N,/VBAT1+*%
X134350000Y-90000000D03*
D12*
%TO.N,/VBAT2+*%
X127150000Y-90000000D03*
%TD*%
D15*
%TO.N,Net-(J1-Pin_1)*%
%TO.C,J1*%
X160500000Y-72545000D03*
D16*
%TO.N,Net-(J1-Pin_2)*%
X160500000Y-70005000D03*
%TD*%
D13*
%TO.N,*%
%TO.C,J8*%
X155000000Y-96000000D03*
X141500000Y-96000000D03*
D14*
%TO.N,GND*%
X151850000Y-90000000D03*
D12*
%TO.N,/VBAT1+*%
X144650000Y-90000000D03*
%TD*%
D15*
%TO.N,Net-(J6-Pin_1)*%
%TO.C,J6*%
X160500000Y-65005000D03*
D16*
%TO.N,Net-(J6-Pin_2)*%
X160500000Y-62465000D03*
%TD*%
D15*
%TO.N,Net-(J7-Pin_1)*%
%TO.C,J7*%
X160500000Y-87545000D03*
D16*
%TO.N,Net-(J7-Pin_2)*%
X160500000Y-85005000D03*
%TD*%
D17*
%TO.N,+5V*%
%TO.C,J11*%
X132300000Y-47900000D03*
D18*
%TO.N,/SERVO_1*%
X129760000Y-47900000D03*
%TO.N,GND*%
X127220000Y-47900000D03*
%TD*%
D19*
%TO.N,+5V*%
%TO.C,J15*%
X148160000Y-48000000D03*
D16*
%TO.N,GND*%
X145620000Y-48000000D03*
%TD*%
D20*
%TO.N,GND*%
%TO.C,J10*%
X109500000Y-95500000D03*
D16*
X112040000Y-95500000D03*
%TD*%
D19*
%TO.N,+12V*%
%TO.C,J4*%
X155335000Y-47982500D03*
D16*
%TO.N,GND*%
X152795000Y-47982500D03*
%TD*%
D15*
%TO.N,Net-(J3-Pin_1)*%
%TO.C,J3*%
X160500000Y-80005000D03*
D16*
%TO.N,Net-(J3-Pin_2)*%
X160500000Y-77465000D03*
%TD*%
D17*
%TO.N,+5V*%
%TO.C,J12*%
X141360000Y-47875000D03*
D18*
%TO.N,/SERVO_2*%
X138820000Y-47875000D03*
%TO.N,GND*%
X136280000Y-47875000D03*
%TD*%
D20*
%TO.N,/VBAT_24V*%
%TO.C,J16*%
X116960000Y-95500000D03*
D16*
%TO.N,Net-(D11-A)*%
X119500000Y-95500000D03*
%TD*%
D21*
%TO.N,GND*%
X101400000Y-93000000D03*
X104800000Y-82600000D03*
X117800000Y-77000000D03*
X120400000Y-78600000D03*
%TO.N,+24V*%
X113000000Y-72500000D03*
X131250000Y-83750000D03*
X145750000Y-75950000D03*
X113000000Y-71000000D03*
X113000000Y-69500000D03*
X135000000Y-73650000D03*
X111500000Y-69500000D03*
X109012500Y-59750000D03*
X128200000Y-67400000D03*
X134000000Y-73650000D03*
X144150000Y-60250000D03*
X129200000Y-67400000D03*
X145750000Y-73750000D03*
X145750000Y-74850000D03*
X145750000Y-77050000D03*
X136000000Y-73650000D03*
X133200000Y-64400000D03*
X126200000Y-67400000D03*
X127200000Y-67400000D03*
X111500000Y-71000000D03*
X111500000Y-72500000D03*
%TO.N,GND*%
X138550000Y-99000000D03*
X142000000Y-57000000D03*
X126550000Y-99000000D03*
X147550000Y-99000000D03*
X114550000Y-99000000D03*
X131000000Y-76000000D03*
X138850000Y-81000000D03*
X105550000Y-63000000D03*
X131950000Y-57000000D03*
X117250000Y-75000000D03*
X144850000Y-81000000D03*
X102550000Y-99000000D03*
X138250000Y-75000000D03*
X107350000Y-96000000D03*
X156250000Y-57000000D03*
X127000000Y-65500000D03*
X139750000Y-84000000D03*
X159550000Y-93000000D03*
X123550000Y-99000000D03*
X111550000Y-93000000D03*
X150550000Y-93000000D03*
X144400000Y-63000000D03*
X125950000Y-72000000D03*
X114550000Y-63000000D03*
X152800000Y-96000000D03*
X117550000Y-99000000D03*
X120550000Y-99000000D03*
X162550000Y-99000000D03*
X111500000Y-99000000D03*
X135550000Y-99000000D03*
X128950000Y-84000000D03*
X147850000Y-81000000D03*
X152950000Y-72000000D03*
X131200000Y-60000000D03*
X156550000Y-99000000D03*
X133250000Y-50500000D03*
%TO.N,+24V*%
X128400000Y-78000000D03*
%TO.N,GND*%
X148000000Y-51000000D03*
X160150000Y-75000000D03*
X120000000Y-93000000D03*
X105500000Y-99000000D03*
X105100000Y-60000000D03*
X158350000Y-45000000D03*
X105550000Y-93000000D03*
X111550000Y-63000000D03*
X104950000Y-75000000D03*
X105700000Y-66000000D03*
X147550000Y-57000000D03*
X141550000Y-99000000D03*
X129550000Y-99000000D03*
X150250000Y-48000000D03*
X138250000Y-50500000D03*
X147100000Y-60000000D03*
X108850000Y-81000000D03*
X159550000Y-99000000D03*
X153550000Y-57000000D03*
X108550000Y-93000000D03*
X158000000Y-69127000D03*
X153550000Y-99000000D03*
X151000000Y-51000000D03*
X129700000Y-87000000D03*
X147400000Y-63000000D03*
X137950000Y-69000000D03*
X125000000Y-63500000D03*
X163150000Y-59400000D03*
X153850000Y-81000000D03*
X108500000Y-99000000D03*
X135500000Y-79500000D03*
D22*
%TO.N,+12V*%
X153800000Y-67500000D03*
D21*
X115800000Y-74800000D03*
X138500000Y-64500000D03*
X141250000Y-64500000D03*
X110000000Y-54800000D03*
D22*
X127800000Y-74600000D03*
D21*
%TO.N,+3V3*%
X135962500Y-56437500D03*
X153400000Y-82800000D03*
X156200000Y-52000000D03*
X138300000Y-62400000D03*
X139450000Y-53000000D03*
X152200000Y-74000000D03*
X118400000Y-51000000D03*
%TO.N,/power/5V_SNS-*%
X128400000Y-56600000D03*
X119000000Y-56600000D03*
%TO.N,/power/5V_SNS+*%
X132200000Y-58200000D03*
%TO.N,/LED_PWM_1*%
X161450000Y-59250000D03*
%TO.N,/LED_PWM_2*%
X140700000Y-52300000D03*
%TO.N,+5V*%
X132000000Y-46500000D03*
X148400000Y-46500000D03*
X122400000Y-44500000D03*
X134400000Y-44500000D03*
X140500000Y-46500000D03*
X120400000Y-44500000D03*
X144400000Y-44500000D03*
X116200000Y-46500000D03*
X114200000Y-46500000D03*
X124200000Y-46500000D03*
X148400000Y-44500000D03*
X134000000Y-46500000D03*
X118400000Y-44500000D03*
X126200000Y-46500000D03*
X136400000Y-44500000D03*
X130400000Y-44500000D03*
X140400000Y-44500000D03*
X146400000Y-46500000D03*
X138400000Y-44500000D03*
X137600000Y-46500000D03*
X142500000Y-46500000D03*
D22*
X156500000Y-67300000D03*
D21*
X144500000Y-46500000D03*
X146400000Y-44500000D03*
X120200000Y-46500000D03*
X128500000Y-46500000D03*
X122200000Y-46500000D03*
X124400000Y-44500000D03*
X142400000Y-44500000D03*
X116400000Y-44500000D03*
X126400000Y-44500000D03*
X118200000Y-46500000D03*
X132400000Y-44500000D03*
X128400000Y-44500000D03*
X111400000Y-52800000D03*
%TO.N,/power/24V_SNS*%
X102800000Y-78350000D03*
X101300000Y-78350000D03*
X102800000Y-80850000D03*
X143100000Y-60327000D03*
X101300000Y-80850000D03*
X104250000Y-77100000D03*
X102800000Y-79600000D03*
X101300000Y-77100000D03*
X102800000Y-77100000D03*
X101300000Y-79600000D03*
X104250000Y-79600000D03*
X104250000Y-78350000D03*
%TO.N,/IND*%
X164100000Y-54500000D03*
%TO.N,Net-(C16-Pad2)*%
X121000000Y-71000000D03*
X121000000Y-72000000D03*
X122000000Y-71000000D03*
X122000000Y-72000000D03*
X122000000Y-70200000D03*
X121000000Y-70200000D03*
%TO.N,/expansion/V_ACT*%
X158100000Y-77100000D03*
X159000000Y-83200000D03*
%TD*%
%TA.AperFunction,Conductor*%
%TO.N,GND*%
G36*
X116029363Y-43950185D02*
G01*
X116075118Y-44002989D01*
X116085062Y-44072147D01*
X116056037Y-44135703D01*
X116050005Y-44142181D01*
X115999502Y-44192683D01*
X115999500Y-44192686D01*
X115933608Y-44306812D01*
X115913305Y-44382587D01*
X115899500Y-44434108D01*
X115899500Y-44565892D01*
X115902914Y-44578632D01*
X115933608Y-44693187D01*
X115949095Y-44720011D01*
X115999500Y-44807314D01*
X116092686Y-44900500D01*
X116206814Y-44966392D01*
X116334108Y-45000500D01*
X116334110Y-45000500D01*
X116465890Y-45000500D01*
X116465892Y-45000500D01*
X116593186Y-44966392D01*
X116707314Y-44900500D01*
X116800500Y-44807314D01*
X116866392Y-44693186D01*
X116900500Y-44565892D01*
X116900500Y-44434108D01*
X116866392Y-44306814D01*
X116800500Y-44192686D01*
X116749995Y-44142181D01*
X116716510Y-44080858D01*
X116721494Y-44011166D01*
X116763366Y-43955233D01*
X116828830Y-43930816D01*
X116837676Y-43930500D01*
X117962324Y-43930500D01*
X118029363Y-43950185D01*
X118075118Y-44002989D01*
X118085062Y-44072147D01*
X118056037Y-44135703D01*
X118050005Y-44142181D01*
X117999502Y-44192683D01*
X117999500Y-44192686D01*
X117933608Y-44306812D01*
X117913305Y-44382587D01*
X117899500Y-44434108D01*
X117899500Y-44565892D01*
X117902914Y-44578632D01*
X117933608Y-44693187D01*
X117949095Y-44720011D01*
X117999500Y-44807314D01*
X118092686Y-44900500D01*
X118206814Y-44966392D01*
X118334108Y-45000500D01*
X118334110Y-45000500D01*
X118465890Y-45000500D01*
X118465892Y-45000500D01*
X118593186Y-44966392D01*
X118707314Y-44900500D01*
X118800500Y-44807314D01*
X118866392Y-44693186D01*
X118900500Y-44565892D01*
X118900500Y-44434108D01*
X118866392Y-44306814D01*
X118800500Y-44192686D01*
X118749995Y-44142181D01*
X118716510Y-44080858D01*
X118721494Y-44011166D01*
X118763366Y-43955233D01*
X118828830Y-43930816D01*
X118837676Y-43930500D01*
X119962324Y-43930500D01*
X120029363Y-43950185D01*
X120075118Y-44002989D01*
X120085062Y-44072147D01*
X120056037Y-44135703D01*
X120050005Y-44142181D01*
X119999502Y-44192683D01*
X119999500Y-44192686D01*
X119933608Y-44306812D01*
X119913305Y-44382587D01*
X119899500Y-44434108D01*
X119899500Y-44565892D01*
X119902914Y-44578632D01*
X119933608Y-44693187D01*
X119949095Y-44720011D01*
X119999500Y-44807314D01*
X120092686Y-44900500D01*
X120206814Y-44966392D01*
X120334108Y-45000500D01*
X120334110Y-45000500D01*
X120465890Y-45000500D01*
X120465892Y-45000500D01*
X120593186Y-44966392D01*
X120707314Y-44900500D01*
X120800500Y-44807314D01*
X120866392Y-44693186D01*
X120900500Y-44565892D01*
X120900500Y-44434108D01*
X120866392Y-44306814D01*
X120800500Y-44192686D01*
X120749995Y-44142181D01*
X120716510Y-44080858D01*
X120721494Y-44011166D01*
X120763366Y-43955233D01*
X120828830Y-43930816D01*
X120837676Y-43930500D01*
X121962324Y-43930500D01*
X122029363Y-43950185D01*
X122075118Y-44002989D01*
X122085062Y-44072147D01*
X122056037Y-44135703D01*
X122050005Y-44142181D01*
X121999502Y-44192683D01*
X121999500Y-44192686D01*
X121933608Y-44306812D01*
X121913305Y-44382587D01*
X121899500Y-44434108D01*
X121899500Y-44565892D01*
X121902914Y-44578632D01*
X121933608Y-44693187D01*
X121949095Y-44720011D01*
X121999500Y-44807314D01*
X122092686Y-44900500D01*
X122206814Y-44966392D01*
X122334108Y-45000500D01*
X122334110Y-45000500D01*
X122465890Y-45000500D01*
X122465892Y-45000500D01*
X122593186Y-44966392D01*
X122707314Y-44900500D01*
X122800500Y-44807314D01*
X122866392Y-44693186D01*
X122900500Y-44565892D01*
X122900500Y-44434108D01*
X122866392Y-44306814D01*
X122800500Y-44192686D01*
X122749995Y-44142181D01*
X122716510Y-44080858D01*
X122721494Y-44011166D01*
X122763366Y-43955233D01*
X122828830Y-43930816D01*
X122837676Y-43930500D01*
X123962324Y-43930500D01*
X124029363Y-43950185D01*
X124075118Y-44002989D01*
X124085062Y-44072147D01*
X124056037Y-44135703D01*
X124050005Y-44142181D01*
X123999502Y-44192683D01*
X123999500Y-44192686D01*
X123933608Y-44306812D01*
X123913305Y-44382587D01*
X123899500Y-44434108D01*
X123899500Y-44565892D01*
X123902914Y-44578632D01*
X123933608Y-44693187D01*
X123949095Y-44720011D01*
X123999500Y-44807314D01*
X124092686Y-44900500D01*
X124206814Y-44966392D01*
X124334108Y-45000500D01*
X124334110Y-45000500D01*
X124465890Y-45000500D01*
X124465892Y-45000500D01*
X124593186Y-44966392D01*
X124707314Y-44900500D01*
X124800500Y-44807314D01*
X124866392Y-44693186D01*
X124900500Y-44565892D01*
X124900500Y-44434108D01*
X124866392Y-44306814D01*
X124800500Y-44192686D01*
X124749995Y-44142181D01*
X124716510Y-44080858D01*
X124721494Y-44011166D01*
X124763366Y-43955233D01*
X124828830Y-43930816D01*
X124837676Y-43930500D01*
X125962324Y-43930500D01*
X126029363Y-43950185D01*
X126075118Y-44002989D01*
X126085062Y-44072147D01*
X126056037Y-44135703D01*
X126050005Y-44142181D01*
X125999502Y-44192683D01*
X125999500Y-44192686D01*
X125933608Y-44306812D01*
X125913305Y-44382587D01*
X125899500Y-44434108D01*
X125899500Y-44565892D01*
X125902914Y-44578632D01*
X125933608Y-44693187D01*
X125949095Y-44720011D01*
X125999500Y-44807314D01*
X126092686Y-44900500D01*
X126206814Y-44966392D01*
X126334108Y-45000500D01*
X126334110Y-45000500D01*
X126465890Y-45000500D01*
X126465892Y-45000500D01*
X126593186Y-44966392D01*
X126707314Y-44900500D01*
X126800500Y-44807314D01*
X126866392Y-44693186D01*
X126900500Y-44565892D01*
X126900500Y-44434108D01*
X126866392Y-44306814D01*
X126800500Y-44192686D01*
X126749995Y-44142181D01*
X126716510Y-44080858D01*
X126721494Y-44011166D01*
X126763366Y-43955233D01*
X126828830Y-43930816D01*
X126837676Y-43930500D01*
X127962324Y-43930500D01*
X128029363Y-43950185D01*
X128075118Y-44002989D01*
X128085062Y-44072147D01*
X128056037Y-44135703D01*
X128050005Y-44142181D01*
X127999502Y-44192683D01*
X127999500Y-44192686D01*
X127933608Y-44306812D01*
X127913305Y-44382587D01*
X127899500Y-44434108D01*
X127899500Y-44565892D01*
X127902914Y-44578632D01*
X127933608Y-44693187D01*
X127949095Y-44720011D01*
X127999500Y-44807314D01*
X128092686Y-44900500D01*
X128206814Y-44966392D01*
X128334108Y-45000500D01*
X128334110Y-45000500D01*
X128465890Y-45000500D01*
X128465892Y-45000500D01*
X128593186Y-44966392D01*
X128707314Y-44900500D01*
X128800500Y-44807314D01*
X128866392Y-44693186D01*
X128900500Y-44565892D01*
X128900500Y-44434108D01*
X128866392Y-44306814D01*
X128800500Y-44192686D01*
X128749995Y-44142181D01*
X128716510Y-44080858D01*
X128721494Y-44011166D01*
X128763366Y-43955233D01*
X128828830Y-43930816D01*
X128837676Y-43930500D01*
X129962324Y-43930500D01*
X130029363Y-43950185D01*
X130075118Y-44002989D01*
X130085062Y-44072147D01*
X130056037Y-44135703D01*
X130050005Y-44142181D01*
X129999502Y-44192683D01*
X129999500Y-44192686D01*
X129933608Y-44306812D01*
X129913305Y-44382587D01*
X129899500Y-44434108D01*
X129899500Y-44565892D01*
X129902914Y-44578632D01*
X129933608Y-44693187D01*
X129949095Y-44720011D01*
X129999500Y-44807314D01*
X130092686Y-44900500D01*
X130206814Y-44966392D01*
X130334108Y-45000500D01*
X130334110Y-45000500D01*
X130465890Y-45000500D01*
X130465892Y-45000500D01*
X130593186Y-44966392D01*
X130707314Y-44900500D01*
X130800500Y-44807314D01*
X130866392Y-44693186D01*
X130900500Y-44565892D01*
X130900500Y-44434108D01*
X130866392Y-44306814D01*
X130800500Y-44192686D01*
X130749995Y-44142181D01*
X130716510Y-44080858D01*
X130721494Y-44011166D01*
X130763366Y-43955233D01*
X130828830Y-43930816D01*
X130837676Y-43930500D01*
X131962324Y-43930500D01*
X132029363Y-43950185D01*
X132075118Y-44002989D01*
X132085062Y-44072147D01*
X132056037Y-44135703D01*
X132050005Y-44142181D01*
X131999502Y-44192683D01*
X131999500Y-44192686D01*
X131933608Y-44306812D01*
X131913305Y-44382587D01*
X131899500Y-44434108D01*
X131899500Y-44565892D01*
X131902914Y-44578632D01*
X131933608Y-44693187D01*
X131949095Y-44720011D01*
X131999500Y-44807314D01*
X132092686Y-44900500D01*
X132206814Y-44966392D01*
X132334108Y-45000500D01*
X132334110Y-45000500D01*
X132465890Y-45000500D01*
X132465892Y-45000500D01*
X132593186Y-44966392D01*
X132707314Y-44900500D01*
X132800500Y-44807314D01*
X132866392Y-44693186D01*
X132900500Y-44565892D01*
X132900500Y-44434108D01*
X132866392Y-44306814D01*
X132800500Y-44192686D01*
X132749995Y-44142181D01*
X132716510Y-44080858D01*
X132721494Y-44011166D01*
X132763366Y-43955233D01*
X132828830Y-43930816D01*
X132837676Y-43930500D01*
X133962324Y-43930500D01*
X134029363Y-43950185D01*
X134075118Y-44002989D01*
X134085062Y-44072147D01*
X134056037Y-44135703D01*
X134050005Y-44142181D01*
X133999502Y-44192683D01*
X133999500Y-44192686D01*
X133933608Y-44306812D01*
X133913305Y-44382587D01*
X133899500Y-44434108D01*
X133899500Y-44565892D01*
X133902914Y-44578632D01*
X133933608Y-44693187D01*
X133949095Y-44720011D01*
X133999500Y-44807314D01*
X134092686Y-44900500D01*
X134206814Y-44966392D01*
X134334108Y-45000500D01*
X134334110Y-45000500D01*
X134465890Y-45000500D01*
X134465892Y-45000500D01*
X134593186Y-44966392D01*
X134707314Y-44900500D01*
X134800500Y-44807314D01*
X134866392Y-44693186D01*
X134900500Y-44565892D01*
X134900500Y-44434108D01*
X134866392Y-44306814D01*
X134800500Y-44192686D01*
X134749995Y-44142181D01*
X134716510Y-44080858D01*
X134721494Y-44011166D01*
X134763366Y-43955233D01*
X134828830Y-43930816D01*
X134837676Y-43930500D01*
X135962324Y-43930500D01*
X136029363Y-43950185D01*
X136075118Y-44002989D01*
X136085062Y-44072147D01*
X136056037Y-44135703D01*
X136050005Y-44142181D01*
X135999502Y-44192683D01*
X135999500Y-44192686D01*
X135933608Y-44306812D01*
X135913305Y-44382587D01*
X135899500Y-44434108D01*
X135899500Y-44565892D01*
X135902914Y-44578632D01*
X135933608Y-44693187D01*
X135949095Y-44720011D01*
X135999500Y-44807314D01*
X136092686Y-44900500D01*
X136206814Y-44966392D01*
X136334108Y-45000500D01*
X136334110Y-45000500D01*
X136465890Y-45000500D01*
X136465892Y-45000500D01*
X136593186Y-44966392D01*
X136707314Y-44900500D01*
X136800500Y-44807314D01*
X136866392Y-44693186D01*
X136900500Y-44565892D01*
X136900500Y-44434108D01*
X136866392Y-44306814D01*
X136800500Y-44192686D01*
X136749995Y-44142181D01*
X136716510Y-44080858D01*
X136721494Y-44011166D01*
X136763366Y-43955233D01*
X136828830Y-43930816D01*
X136837676Y-43930500D01*
X137962324Y-43930500D01*
X138029363Y-43950185D01*
X138075118Y-44002989D01*
X138085062Y-44072147D01*
X138056037Y-44135703D01*
X138050005Y-44142181D01*
X137999502Y-44192683D01*
X137999500Y-44192686D01*
X137933608Y-44306812D01*
X137913305Y-44382587D01*
X137899500Y-44434108D01*
X137899500Y-44565892D01*
X137902914Y-44578632D01*
X137933608Y-44693187D01*
X137949095Y-44720011D01*
X137999500Y-44807314D01*
X138092686Y-44900500D01*
X138206814Y-44966392D01*
X138334108Y-45000500D01*
X138334110Y-45000500D01*
X138465890Y-45000500D01*
X138465892Y-45000500D01*
X138593186Y-44966392D01*
X138707314Y-44900500D01*
X138800500Y-44807314D01*
X138866392Y-44693186D01*
X138900500Y-44565892D01*
X138900500Y-44434108D01*
X138866392Y-44306814D01*
X138800500Y-44192686D01*
X138749995Y-44142181D01*
X138716510Y-44080858D01*
X138721494Y-44011166D01*
X138763366Y-43955233D01*
X138828830Y-43930816D01*
X138837676Y-43930500D01*
X139962324Y-43930500D01*
X140029363Y-43950185D01*
X140075118Y-44002989D01*
X140085062Y-44072147D01*
X140056037Y-44135703D01*
X140050005Y-44142181D01*
X139999502Y-44192683D01*
X139999500Y-44192686D01*
X139933608Y-44306812D01*
X139913305Y-44382587D01*
X139899500Y-44434108D01*
X139899500Y-44565892D01*
X139902914Y-44578632D01*
X139933608Y-44693187D01*
X139949095Y-44720011D01*
X139999500Y-44807314D01*
X140092686Y-44900500D01*
X140206814Y-44966392D01*
X140334108Y-45000500D01*
X140334110Y-45000500D01*
X140465890Y-45000500D01*
X140465892Y-45000500D01*
X140593186Y-44966392D01*
X140707314Y-44900500D01*
X140800500Y-44807314D01*
X140866392Y-44693186D01*
X140900500Y-44565892D01*
X140900500Y-44434108D01*
X140866392Y-44306814D01*
X140800500Y-44192686D01*
X140749995Y-44142181D01*
X140716510Y-44080858D01*
X140721494Y-44011166D01*
X140763366Y-43955233D01*
X140828830Y-43930816D01*
X140837676Y-43930500D01*
X141962324Y-43930500D01*
X142029363Y-43950185D01*
X142075118Y-44002989D01*
X142085062Y-44072147D01*
X142056037Y-44135703D01*
X142050005Y-44142181D01*
X141999502Y-44192683D01*
X141999500Y-44192686D01*
X141933608Y-44306812D01*
X141913305Y-44382587D01*
X141899500Y-44434108D01*
X141899500Y-44565892D01*
X141902914Y-44578632D01*
X141933608Y-44693187D01*
X141949095Y-44720011D01*
X141999500Y-44807314D01*
X142092686Y-44900500D01*
X142206814Y-44966392D01*
X142334108Y-45000500D01*
X142334110Y-45000500D01*
X142465890Y-45000500D01*
X142465892Y-45000500D01*
X142593186Y-44966392D01*
X142707314Y-44900500D01*
X142800500Y-44807314D01*
X142866392Y-44693186D01*
X142900500Y-44565892D01*
X142900500Y-44434108D01*
X142866392Y-44306814D01*
X142800500Y-44192686D01*
X142749995Y-44142181D01*
X142716510Y-44080858D01*
X142721494Y-44011166D01*
X142763366Y-43955233D01*
X142828830Y-43930816D01*
X142837676Y-43930500D01*
X143962324Y-43930500D01*
X144029363Y-43950185D01*
X144075118Y-44002989D01*
X144085062Y-44072147D01*
X144056037Y-44135703D01*
X144050005Y-44142181D01*
X143999502Y-44192683D01*
X143999500Y-44192686D01*
X143933608Y-44306812D01*
X143913305Y-44382587D01*
X143899500Y-44434108D01*
X143899500Y-44565892D01*
X143902914Y-44578632D01*
X143933608Y-44693187D01*
X143949095Y-44720011D01*
X143999500Y-44807314D01*
X144092686Y-44900500D01*
X144206814Y-44966392D01*
X144334108Y-45000500D01*
X144334110Y-45000500D01*
X144465890Y-45000500D01*
X144465892Y-45000500D01*
X144593186Y-44966392D01*
X144707314Y-44900500D01*
X144800500Y-44807314D01*
X144866392Y-44693186D01*
X144900500Y-44565892D01*
X144900500Y-44434108D01*
X144866392Y-44306814D01*
X144800500Y-44192686D01*
X144749995Y-44142181D01*
X144716510Y-44080858D01*
X144721494Y-44011166D01*
X144763366Y-43955233D01*
X144828830Y-43930816D01*
X144837676Y-43930500D01*
X145962324Y-43930500D01*
X146029363Y-43950185D01*
X146075118Y-44002989D01*
X146085062Y-44072147D01*
X146056037Y-44135703D01*
X146050005Y-44142181D01*
X145999502Y-44192683D01*
X145999500Y-44192686D01*
X145933608Y-44306812D01*
X145913305Y-44382587D01*
X145899500Y-44434108D01*
X145899500Y-44565892D01*
X145902914Y-44578632D01*
X145933608Y-44693187D01*
X145949095Y-44720011D01*
X145999500Y-44807314D01*
X146092686Y-44900500D01*
X146206814Y-44966392D01*
X146334108Y-45000500D01*
X146334110Y-45000500D01*
X146465890Y-45000500D01*
X146465892Y-45000500D01*
X146593186Y-44966392D01*
X146707314Y-44900500D01*
X146800500Y-44807314D01*
X146866392Y-44693186D01*
X146900500Y-44565892D01*
X146900500Y-44434108D01*
X146866392Y-44306814D01*
X146800500Y-44192686D01*
X146749995Y-44142181D01*
X146716510Y-44080858D01*
X146721494Y-44011166D01*
X146763366Y-43955233D01*
X146828830Y-43930816D01*
X146837676Y-43930500D01*
X147962324Y-43930500D01*
X148029363Y-43950185D01*
X148075118Y-44002989D01*
X148085062Y-44072147D01*
X148056037Y-44135703D01*
X148050005Y-44142181D01*
X147999502Y-44192683D01*
X147999500Y-44192686D01*
X147933608Y-44306812D01*
X147913305Y-44382587D01*
X147899500Y-44434108D01*
X147899500Y-44565892D01*
X147902914Y-44578632D01*
X147933608Y-44693187D01*
X147949095Y-44720011D01*
X147999500Y-44807314D01*
X148092686Y-44900500D01*
X148206814Y-44966392D01*
X148334108Y-45000500D01*
X148334110Y-45000500D01*
X148465890Y-45000500D01*
X148465892Y-45000500D01*
X148593186Y-44966392D01*
X148707314Y-44900500D01*
X148800500Y-44807314D01*
X148866392Y-44693186D01*
X148900500Y-44565892D01*
X148900500Y-44434108D01*
X148866392Y-44306814D01*
X148800500Y-44192686D01*
X148749995Y-44142181D01*
X148716510Y-44080858D01*
X148721494Y-44011166D01*
X148763366Y-43955233D01*
X148828830Y-43930816D01*
X148837676Y-43930500D01*
X162003591Y-43930500D01*
X162016519Y-43930500D01*
X162023472Y-43930695D01*
X162343297Y-43948656D01*
X162357094Y-43950210D01*
X162669457Y-44003283D01*
X162683014Y-44006377D01*
X162987469Y-44094089D01*
X163000595Y-44098682D01*
X163293312Y-44219930D01*
X163305826Y-44225956D01*
X163452123Y-44306812D01*
X163583132Y-44379218D01*
X163594906Y-44386616D01*
X163853312Y-44569964D01*
X163864180Y-44578632D01*
X164100418Y-44789749D01*
X164110250Y-44799581D01*
X164321367Y-45035819D01*
X164330038Y-45046691D01*
X164513383Y-45305093D01*
X164520781Y-45316867D01*
X164674039Y-45594166D01*
X164680072Y-45606694D01*
X164801317Y-45899405D01*
X164805910Y-45912530D01*
X164893622Y-46216985D01*
X164896716Y-46230542D01*
X164949787Y-46542894D01*
X164951344Y-46556712D01*
X164963701Y-46776742D01*
X164968671Y-46865247D01*
X164969305Y-46876527D01*
X164969500Y-46883480D01*
X164969500Y-96876519D01*
X164969305Y-96883472D01*
X164951344Y-97203287D01*
X164949787Y-97217105D01*
X164896716Y-97529457D01*
X164893622Y-97543014D01*
X164805910Y-97847469D01*
X164801317Y-97860594D01*
X164680072Y-98153305D01*
X164674039Y-98165833D01*
X164520781Y-98443132D01*
X164513383Y-98454906D01*
X164330038Y-98713308D01*
X164321367Y-98724180D01*
X164110250Y-98960418D01*
X164100418Y-98970250D01*
X163864180Y-99181367D01*
X163853308Y-99190038D01*
X163594906Y-99373383D01*
X163583132Y-99380781D01*
X163305833Y-99534039D01*
X163293305Y-99540072D01*
X163000594Y-99661317D01*
X162987469Y-99665910D01*
X162683014Y-99753622D01*
X162669457Y-99756716D01*
X162357105Y-99809787D01*
X162343287Y-99811344D01*
X162023472Y-99829305D01*
X162016519Y-99829500D01*
X103023481Y-99829500D01*
X103016528Y-99829305D01*
X102696712Y-99811344D01*
X102682894Y-99809787D01*
X102370542Y-99756716D01*
X102356985Y-99753622D01*
X102052530Y-99665910D01*
X102039405Y-99661317D01*
X101746694Y-99540072D01*
X101734166Y-99534039D01*
X101456867Y-99380781D01*
X101445093Y-99373383D01*
X101186691Y-99190038D01*
X101175819Y-99181367D01*
X100939581Y-98970250D01*
X100929749Y-98960418D01*
X100718632Y-98724180D01*
X100709961Y-98713308D01*
X100526616Y-98454906D01*
X100519218Y-98443132D01*
X100485764Y-98382602D01*
X100365956Y-98165826D01*
X100359930Y-98153312D01*
X100238682Y-97860594D01*
X100234089Y-97847469D01*
X100146377Y-97543014D01*
X100143283Y-97529457D01*
X100114127Y-97357858D01*
X100090210Y-97217094D01*
X100088656Y-97203297D01*
X100070695Y-96883472D01*
X100070500Y-96876519D01*
X100070500Y-96393713D01*
X102149500Y-96393713D01*
X102149500Y-96606287D01*
X102150042Y-96609710D01*
X102150042Y-96609713D01*
X102170757Y-96740498D01*
X102182754Y-96816243D01*
X102198138Y-96863591D01*
X102248444Y-97018414D01*
X102344951Y-97207820D01*
X102469890Y-97379786D01*
X102620213Y-97530109D01*
X102792179Y-97655048D01*
X102792181Y-97655049D01*
X102792184Y-97655051D01*
X102981588Y-97751557D01*
X103183757Y-97817246D01*
X103393713Y-97850500D01*
X103393714Y-97850500D01*
X103606286Y-97850500D01*
X103606287Y-97850500D01*
X103816243Y-97817246D01*
X104018412Y-97751557D01*
X104207816Y-97655051D01*
X104229789Y-97639086D01*
X104379786Y-97530109D01*
X104379788Y-97530106D01*
X104379792Y-97530104D01*
X104530104Y-97379792D01*
X104530106Y-97379788D01*
X104530109Y-97379786D01*
X104655048Y-97207820D01*
X104655047Y-97207820D01*
X104655051Y-97207816D01*
X104751557Y-97018412D01*
X104817246Y-96816243D01*
X104833782Y-96711835D01*
X104836375Y-96701047D01*
X104836108Y-96700983D01*
X104837242Y-96696254D01*
X104837246Y-96696243D01*
X104870500Y-96486287D01*
X104870500Y-96273713D01*
X104837246Y-96063757D01*
X104771557Y-95861588D01*
X104675051Y-95672184D01*
X104675049Y-95672181D01*
X104675048Y-95672179D01*
X104550109Y-95500213D01*
X104399786Y-95349890D01*
X104227820Y-95224951D01*
X104038414Y-95128444D01*
X104038413Y-95128443D01*
X104038412Y-95128443D01*
X103836243Y-95062754D01*
X103836241Y-95062753D01*
X103836240Y-95062753D01*
X103674957Y-95037208D01*
X103626287Y-95029500D01*
X103413713Y-95029500D01*
X103365042Y-95037208D01*
X103203760Y-95062753D01*
X103001585Y-95128444D01*
X102812179Y-95224951D01*
X102640213Y-95349890D01*
X102489890Y-95500213D01*
X102364951Y-95672179D01*
X102268444Y-95861585D01*
X102202753Y-96063760D01*
X102186940Y-96163587D01*
X102186938Y-96163606D01*
X102184692Y-96177789D01*
X102182754Y-96183757D01*
X102149500Y-96393713D01*
X100070500Y-96393713D01*
X100070500Y-94703085D01*
X115719500Y-94703085D01*
X115719500Y-94703092D01*
X115719500Y-94703093D01*
X115719500Y-96296912D01*
X115719501Y-96296918D01*
X115725780Y-96355335D01*
X115775069Y-96487485D01*
X115775070Y-96487487D01*
X115775071Y-96487489D01*
X115859597Y-96600403D01*
X115972511Y-96684929D01*
X116104665Y-96734219D01*
X116163085Y-96740500D01*
X117756914Y-96740499D01*
X117815335Y-96734219D01*
X117947489Y-96684929D01*
X118060403Y-96600403D01*
X118144929Y-96487489D01*
X118194219Y-96355335D01*
X118200500Y-96296915D01*
X118200499Y-96110410D01*
X118220183Y-96043374D01*
X118272987Y-95997619D01*
X118342145Y-95987675D01*
X118405701Y-96016700D01*
X118434984Y-96054118D01*
X118473240Y-96129199D01*
X118584310Y-96282073D01*
X118717927Y-96415690D01*
X118870801Y-96526760D01*
X118950347Y-96567290D01*
X119039163Y-96612545D01*
X119039165Y-96612545D01*
X119039168Y-96612547D01*
X119135497Y-96643846D01*
X119218881Y-96670940D01*
X119405514Y-96700500D01*
X119405519Y-96700500D01*
X119594486Y-96700500D01*
X119781118Y-96670940D01*
X119960832Y-96612547D01*
X120129199Y-96526760D01*
X120282073Y-96415690D01*
X120415690Y-96282073D01*
X120526760Y-96129199D01*
X120612547Y-95960832D01*
X120670940Y-95781118D01*
X120700500Y-95594486D01*
X120700500Y-95405513D01*
X120670940Y-95218881D01*
X120659780Y-95184537D01*
X120612547Y-95039168D01*
X120610436Y-95035026D01*
X120608107Y-95030453D01*
X120582526Y-94980247D01*
X123349500Y-94980247D01*
X123349500Y-97019752D01*
X123361131Y-97078229D01*
X123361132Y-97078230D01*
X123405447Y-97144552D01*
X123471769Y-97188867D01*
X123471770Y-97188868D01*
X123530247Y-97200499D01*
X123530250Y-97200500D01*
X123530252Y-97200500D01*
X124469750Y-97200500D01*
X124469751Y-97200499D01*
X124484568Y-97197552D01*
X124528229Y-97188868D01*
X124528229Y-97188867D01*
X124528231Y-97188867D01*
X124594552Y-97144552D01*
X124638867Y-97078231D01*
X124638867Y-97078229D01*
X124638868Y-97078229D01*
X124650499Y-97019752D01*
X124650500Y-97019750D01*
X124650500Y-94980249D01*
X124650499Y-94980247D01*
X136849500Y-94980247D01*
X136849500Y-97019752D01*
X136861131Y-97078229D01*
X136861132Y-97078230D01*
X136905447Y-97144552D01*
X136971769Y-97188867D01*
X136971770Y-97188868D01*
X137030247Y-97200499D01*
X137030250Y-97200500D01*
X137030252Y-97200500D01*
X137969750Y-97200500D01*
X137969751Y-97200499D01*
X137984568Y-97197552D01*
X138028229Y-97188868D01*
X138028229Y-97188867D01*
X138028231Y-97188867D01*
X138094552Y-97144552D01*
X138138867Y-97078231D01*
X138138867Y-97078229D01*
X138138868Y-97078229D01*
X138150499Y-97019752D01*
X138150500Y-97019750D01*
X138150500Y-94980249D01*
X138150499Y-94980247D01*
X140849500Y-94980247D01*
X140849500Y-97019752D01*
X140861131Y-97078229D01*
X140861132Y-97078230D01*
X140905447Y-97144552D01*
X140971769Y-97188867D01*
X140971770Y-97188868D01*
X141030247Y-97200499D01*
X141030250Y-97200500D01*
X141030252Y-97200500D01*
X141969750Y-97200500D01*
X141969751Y-97200499D01*
X141984568Y-97197552D01*
X142028229Y-97188868D01*
X142028229Y-97188867D01*
X142028231Y-97188867D01*
X142094552Y-97144552D01*
X142138867Y-97078231D01*
X142138867Y-97078229D01*
X142138868Y-97078229D01*
X142150499Y-97019752D01*
X142150500Y-97019750D01*
X142150500Y-94980249D01*
X142150499Y-94980247D01*
X154349500Y-94980247D01*
X154349500Y-97019752D01*
X154361131Y-97078229D01*
X154361132Y-97078230D01*
X154405447Y-97144552D01*
X154471769Y-97188867D01*
X154471770Y-97188868D01*
X154530247Y-97200499D01*
X154530250Y-97200500D01*
X154530252Y-97200500D01*
X155469750Y-97200500D01*
X155469751Y-97200499D01*
X155484568Y-97197552D01*
X155528229Y-97188868D01*
X155528229Y-97188867D01*
X155528231Y-97188867D01*
X155594552Y-97144552D01*
X155638867Y-97078231D01*
X155638867Y-97078229D01*
X155638868Y-97078229D01*
X155650499Y-97019752D01*
X155650500Y-97019750D01*
X155650500Y-96393713D01*
X160149500Y-96393713D01*
X160149500Y-96606287D01*
X160150042Y-96609710D01*
X160150042Y-96609713D01*
X160170757Y-96740498D01*
X160182754Y-96816243D01*
X160198138Y-96863591D01*
X160248444Y-97018414D01*
X160344951Y-97207820D01*
X160469890Y-97379786D01*
X160620213Y-97530109D01*
X160792179Y-97655048D01*
X160792181Y-97655049D01*
X160792184Y-97655051D01*
X160981588Y-97751557D01*
X161183757Y-97817246D01*
X161393713Y-97850500D01*
X161393714Y-97850500D01*
X161606286Y-97850500D01*
X161606287Y-97850500D01*
X161816243Y-97817246D01*
X162018412Y-97751557D01*
X162207816Y-97655051D01*
X162229789Y-97639086D01*
X162379786Y-97530109D01*
X162379788Y-97530106D01*
X162379792Y-97530104D01*
X162530104Y-97379792D01*
X162530106Y-97379788D01*
X162530109Y-97379786D01*
X162655048Y-97207820D01*
X162655047Y-97207820D01*
X162655051Y-97207816D01*
X162751557Y-97018412D01*
X162817246Y-96816243D01*
X162833782Y-96711835D01*
X162836375Y-96701047D01*
X162836108Y-96700983D01*
X162837242Y-96696254D01*
X162837246Y-96696243D01*
X162870500Y-96486287D01*
X162870500Y-96273713D01*
X162837246Y-96063757D01*
X162771557Y-95861588D01*
X162675051Y-95672184D01*
X162675049Y-95672181D01*
X162675048Y-95672179D01*
X162550109Y-95500213D01*
X162399786Y-95349890D01*
X162227820Y-95224951D01*
X162038414Y-95128444D01*
X162038413Y-95128443D01*
X162038412Y-95128443D01*
X161836243Y-95062754D01*
X161836241Y-95062753D01*
X161836240Y-95062753D01*
X161674957Y-95037208D01*
X161626287Y-95029500D01*
X161413713Y-95029500D01*
X161365042Y-95037208D01*
X161203760Y-95062753D01*
X161001585Y-95128444D01*
X160812179Y-95224951D01*
X160640213Y-95349890D01*
X160489890Y-95500213D01*
X160364951Y-95672179D01*
X160268444Y-95861585D01*
X160202753Y-96063760D01*
X160186940Y-96163587D01*
X160186938Y-96163606D01*
X160184692Y-96177789D01*
X160182754Y-96183757D01*
X160149500Y-96393713D01*
X155650500Y-96393713D01*
X155650500Y-94980249D01*
X155650499Y-94980247D01*
X155638868Y-94921770D01*
X155638867Y-94921769D01*
X155594552Y-94855447D01*
X155528230Y-94811132D01*
X155528229Y-94811131D01*
X155469752Y-94799500D01*
X155469748Y-94799500D01*
X154530252Y-94799500D01*
X154530247Y-94799500D01*
X154471770Y-94811131D01*
X154471769Y-94811132D01*
X154405447Y-94855447D01*
X154361132Y-94921769D01*
X154361131Y-94921770D01*
X154349500Y-94980247D01*
X142150499Y-94980247D01*
X142138868Y-94921770D01*
X142138867Y-94921769D01*
X142094552Y-94855447D01*
X142028230Y-94811132D01*
X142028229Y-94811131D01*
X141969752Y-94799500D01*
X141969748Y-94799500D01*
X141030252Y-94799500D01*
X141030247Y-94799500D01*
X140971770Y-94811131D01*
X140971769Y-94811132D01*
X140905447Y-94855447D01*
X140861132Y-94921769D01*
X140861131Y-94921770D01*
X140849500Y-94980247D01*
X138150499Y-94980247D01*
X138138868Y-94921770D01*
X138138867Y-94921769D01*
X138094552Y-94855447D01*
X138028230Y-94811132D01*
X138028229Y-94811131D01*
X137969752Y-94799500D01*
X137969748Y-94799500D01*
X137030252Y-94799500D01*
X137030247Y-94799500D01*
X136971770Y-94811131D01*
X136971769Y-94811132D01*
X136905447Y-94855447D01*
X136861132Y-94921769D01*
X136861131Y-94921770D01*
X136849500Y-94980247D01*
X124650499Y-94980247D01*
X124638868Y-94921770D01*
X124638867Y-94921769D01*
X124594552Y-94855447D01*
X124528230Y-94811132D01*
X124528229Y-94811131D01*
X124469752Y-94799500D01*
X124469748Y-94799500D01*
X123530252Y-94799500D01*
X123530247Y-94799500D01*
X123471770Y-94811131D01*
X123471769Y-94811132D01*
X123405447Y-94855447D01*
X123361132Y-94921769D01*
X123361131Y-94921770D01*
X123349500Y-94980247D01*
X120582526Y-94980247D01*
X120565016Y-94945882D01*
X120526760Y-94870801D01*
X120415690Y-94717927D01*
X120282073Y-94584310D01*
X120129199Y-94473240D01*
X119960836Y-94387454D01*
X119781118Y-94329059D01*
X119594486Y-94299500D01*
X119594481Y-94299500D01*
X119405519Y-94299500D01*
X119405514Y-94299500D01*
X119218881Y-94329059D01*
X119039163Y-94387454D01*
X118870800Y-94473240D01*
X118816749Y-94512511D01*
X118717927Y-94584310D01*
X118717925Y-94584312D01*
X118717924Y-94584312D01*
X118584312Y-94717924D01*
X118584312Y-94717925D01*
X118584310Y-94717927D01*
X118536610Y-94783579D01*
X118473240Y-94870800D01*
X118434984Y-94945882D01*
X118387009Y-94996678D01*
X118319188Y-95013473D01*
X118253053Y-94990935D01*
X118209602Y-94936220D01*
X118200499Y-94889587D01*
X118200499Y-94703087D01*
X118200498Y-94703081D01*
X118194219Y-94644664D01*
X118144930Y-94512514D01*
X118144929Y-94512511D01*
X118060403Y-94399597D01*
X117947489Y-94315071D01*
X117947487Y-94315070D01*
X117947485Y-94315069D01*
X117815338Y-94265782D01*
X117815337Y-94265781D01*
X117815335Y-94265781D01*
X117756915Y-94259500D01*
X117756905Y-94259500D01*
X116163087Y-94259500D01*
X116163081Y-94259501D01*
X116104664Y-94265780D01*
X115972514Y-94315069D01*
X115972507Y-94315073D01*
X115859597Y-94399597D01*
X115775073Y-94512507D01*
X115775069Y-94512514D01*
X115725782Y-94644661D01*
X115725781Y-94644665D01*
X115719500Y-94703085D01*
X100070500Y-94703085D01*
X100070500Y-89849879D01*
X124859500Y-89849879D01*
X124859500Y-90150120D01*
X124859501Y-90150137D01*
X124898689Y-90447802D01*
X124898690Y-90447807D01*
X124898691Y-90447813D01*
X124976402Y-90737837D01*
X125091305Y-91015236D01*
X125241432Y-91275264D01*
X125241434Y-91275267D01*
X125241435Y-91275268D01*
X125424214Y-91513470D01*
X125424220Y-91513477D01*
X125636522Y-91725779D01*
X125636528Y-91725784D01*
X125874736Y-91908568D01*
X126134764Y-92058695D01*
X126412163Y-92173598D01*
X126702187Y-92251309D01*
X126999873Y-92290500D01*
X126999880Y-92290500D01*
X127300120Y-92290500D01*
X127300127Y-92290500D01*
X127597813Y-92251309D01*
X127887837Y-92173598D01*
X128165236Y-92058695D01*
X128425264Y-91908568D01*
X128663472Y-91725784D01*
X128875784Y-91513472D01*
X129058568Y-91275264D01*
X129208695Y-91015236D01*
X129323598Y-90737837D01*
X129401309Y-90447813D01*
X129440500Y-90150127D01*
X129440500Y-89849873D01*
X129401309Y-89552187D01*
X129323598Y-89262163D01*
X129208695Y-88984764D01*
X129165530Y-88910000D01*
X132059500Y-88910000D01*
X132059500Y-91089999D01*
X132070028Y-91223770D01*
X132070029Y-91223776D01*
X132125686Y-91444653D01*
X132125687Y-91444656D01*
X132219892Y-91652055D01*
X132219895Y-91652061D01*
X132349612Y-91839297D01*
X132349616Y-91839302D01*
X132349619Y-91839306D01*
X132510694Y-92000381D01*
X132510698Y-92000384D01*
X132510702Y-92000387D01*
X132594862Y-92058693D01*
X132697941Y-92130106D01*
X132905342Y-92224312D01*
X132905346Y-92224313D01*
X133126223Y-92279970D01*
X133126226Y-92279970D01*
X133126232Y-92279972D01*
X133260006Y-92290500D01*
X133260014Y-92290500D01*
X135439986Y-92290500D01*
X135439994Y-92290500D01*
X135573768Y-92279972D01*
X135794658Y-92224312D01*
X136002059Y-92130106D01*
X136189306Y-92000381D01*
X136350381Y-91839306D01*
X136480106Y-91652059D01*
X136574312Y-91444658D01*
X136629972Y-91223768D01*
X136640500Y-91089994D01*
X136640500Y-89849879D01*
X142359500Y-89849879D01*
X142359500Y-90150120D01*
X142359501Y-90150137D01*
X142398689Y-90447802D01*
X142398690Y-90447807D01*
X142398691Y-90447813D01*
X142476402Y-90737837D01*
X142591305Y-91015236D01*
X142741432Y-91275264D01*
X142741434Y-91275267D01*
X142741435Y-91275268D01*
X142924214Y-91513470D01*
X142924220Y-91513477D01*
X143136522Y-91725779D01*
X143136528Y-91725784D01*
X143374736Y-91908568D01*
X143634764Y-92058695D01*
X143912163Y-92173598D01*
X144202187Y-92251309D01*
X144499873Y-92290500D01*
X144499880Y-92290500D01*
X144800120Y-92290500D01*
X144800127Y-92290500D01*
X145097813Y-92251309D01*
X145387837Y-92173598D01*
X145665236Y-92058695D01*
X145925264Y-91908568D01*
X146163472Y-91725784D01*
X146375784Y-91513472D01*
X146558568Y-91275264D01*
X146708695Y-91015236D01*
X146823598Y-90737837D01*
X146901309Y-90447813D01*
X146940500Y-90150127D01*
X146940500Y-89849873D01*
X146901309Y-89552187D01*
X146823598Y-89262163D01*
X146708695Y-88984764D01*
X146558568Y-88724736D01*
X146375784Y-88486528D01*
X146375779Y-88486522D01*
X146163477Y-88274220D01*
X146163470Y-88274214D01*
X145925268Y-88091435D01*
X145925267Y-88091434D01*
X145925264Y-88091432D01*
X145665236Y-87941305D01*
X145387837Y-87826402D01*
X145387835Y-87826401D01*
X145387834Y-87826401D01*
X145301671Y-87803314D01*
X145097813Y-87748691D01*
X145097807Y-87748690D01*
X145097802Y-87748689D01*
X144800137Y-87709501D01*
X144800132Y-87709500D01*
X144800127Y-87709500D01*
X144499873Y-87709500D01*
X144499867Y-87709500D01*
X144499862Y-87709501D01*
X144202197Y-87748689D01*
X144202190Y-87748690D01*
X144202187Y-87748691D01*
X144116021Y-87771778D01*
X143912165Y-87826401D01*
X143634770Y-87941302D01*
X143634761Y-87941306D01*
X143374731Y-88091435D01*
X143136529Y-88274214D01*
X143136522Y-88274220D01*
X142924220Y-88486522D01*
X142924214Y-88486529D01*
X142741435Y-88724731D01*
X142591306Y-88984761D01*
X142591302Y-88984770D01*
X142476401Y-89262165D01*
X142398692Y-89552184D01*
X142398689Y-89552197D01*
X142359501Y-89849862D01*
X142359500Y-89849879D01*
X136640500Y-89849879D01*
X136640500Y-88910006D01*
X136629972Y-88776232D01*
X136574312Y-88555342D01*
X136480106Y-88347941D01*
X136350381Y-88160694D01*
X136189306Y-87999619D01*
X136189302Y-87999616D01*
X136189297Y-87999612D01*
X136002061Y-87869895D01*
X136002055Y-87869892D01*
X135794656Y-87775687D01*
X135794653Y-87775686D01*
X135573776Y-87720029D01*
X135573770Y-87720028D01*
X135439999Y-87709500D01*
X135439994Y-87709500D01*
X133260006Y-87709500D01*
X133260000Y-87709500D01*
X133126229Y-87720028D01*
X133126223Y-87720029D01*
X132905346Y-87775686D01*
X132905343Y-87775687D01*
X132697944Y-87869892D01*
X132697938Y-87869895D01*
X132510702Y-87999612D01*
X132510690Y-87999622D01*
X132349622Y-88160690D01*
X132349612Y-88160702D01*
X132219895Y-88347938D01*
X132219892Y-88347944D01*
X132125687Y-88555343D01*
X132125686Y-88555346D01*
X132070029Y-88776223D01*
X132070028Y-88776229D01*
X132059500Y-88910000D01*
X129165530Y-88910000D01*
X129058568Y-88724736D01*
X128875784Y-88486528D01*
X128875779Y-88486522D01*
X128663477Y-88274220D01*
X128663470Y-88274214D01*
X128425268Y-88091435D01*
X128425267Y-88091434D01*
X128425264Y-88091432D01*
X128165236Y-87941305D01*
X127887837Y-87826402D01*
X127887835Y-87826401D01*
X127887834Y-87826401D01*
X127801671Y-87803314D01*
X127597813Y-87748691D01*
X127597807Y-87748690D01*
X127597802Y-87748689D01*
X127300137Y-87709501D01*
X127300132Y-87709500D01*
X127300127Y-87709500D01*
X126999873Y-87709500D01*
X126999867Y-87709500D01*
X126999862Y-87709501D01*
X126702197Y-87748689D01*
X126702190Y-87748690D01*
X126702187Y-87748691D01*
X126616021Y-87771778D01*
X126412165Y-87826401D01*
X126134770Y-87941302D01*
X126134761Y-87941306D01*
X125874731Y-88091435D01*
X125636529Y-88274214D01*
X125636522Y-88274220D01*
X125424220Y-88486522D01*
X125424214Y-88486529D01*
X125241435Y-88724731D01*
X125091306Y-88984761D01*
X125091302Y-88984770D01*
X124976401Y-89262165D01*
X124898692Y-89552184D01*
X124898689Y-89552197D01*
X124859501Y-89849862D01*
X124859500Y-89849879D01*
X100070500Y-89849879D01*
X100070500Y-84910513D01*
X159299500Y-84910513D01*
X159299500Y-85099486D01*
X159329059Y-85286118D01*
X159387454Y-85465836D01*
X159473240Y-85634199D01*
X159584310Y-85787073D01*
X159717927Y-85920690D01*
X159870801Y-86031760D01*
X159967207Y-86080881D01*
X160024385Y-86110015D01*
X160075181Y-86157990D01*
X160091976Y-86225811D01*
X160069439Y-86291946D01*
X160014723Y-86335397D01*
X159968090Y-86344500D01*
X159695730Y-86344500D01*
X159665300Y-86347353D01*
X159665298Y-86347353D01*
X159537119Y-86392206D01*
X159537117Y-86392207D01*
X159427850Y-86472850D01*
X159347207Y-86582117D01*
X159347206Y-86582119D01*
X159302353Y-86710298D01*
X159302353Y-86710300D01*
X159299500Y-86740730D01*
X159299500Y-88349269D01*
X159302353Y-88379699D01*
X159302353Y-88379701D01*
X159339735Y-88486529D01*
X159347207Y-88507882D01*
X159427850Y-88617150D01*
X159537118Y-88697793D01*
X159579845Y-88712744D01*
X159665299Y-88742646D01*
X159695730Y-88745500D01*
X159695734Y-88745500D01*
X161304270Y-88745500D01*
X161334699Y-88742646D01*
X161334701Y-88742646D01*
X161398790Y-88720219D01*
X161462882Y-88697793D01*
X161572150Y-88617150D01*
X161652793Y-88507882D01*
X161675219Y-88443790D01*
X161697646Y-88379701D01*
X161697646Y-88379699D01*
X161700500Y-88349269D01*
X161700500Y-86740730D01*
X161697646Y-86710300D01*
X161697646Y-86710298D01*
X161652793Y-86582119D01*
X161652792Y-86582117D01*
X161572150Y-86472850D01*
X161462882Y-86392207D01*
X161462880Y-86392206D01*
X161334700Y-86347353D01*
X161304270Y-86344500D01*
X161304266Y-86344500D01*
X161031910Y-86344500D01*
X160964871Y-86324815D01*
X160919116Y-86272011D01*
X160909172Y-86202853D01*
X160938197Y-86139297D01*
X160975615Y-86110015D01*
X161010224Y-86092380D01*
X161129199Y-86031760D01*
X161282073Y-85920690D01*
X161415690Y-85787073D01*
X161526760Y-85634199D01*
X161612547Y-85465832D01*
X161670940Y-85286118D01*
X161700500Y-85099486D01*
X161700500Y-84910513D01*
X161670940Y-84723881D01*
X161612545Y-84544163D01*
X161526759Y-84375800D01*
X161415690Y-84222927D01*
X161282073Y-84089310D01*
X161129199Y-83978240D01*
X160960836Y-83892454D01*
X160781118Y-83834059D01*
X160594486Y-83804500D01*
X160594481Y-83804500D01*
X160405519Y-83804500D01*
X160405514Y-83804500D01*
X160218881Y-83834059D01*
X160039163Y-83892454D01*
X159870800Y-83978240D01*
X159783579Y-84041610D01*
X159717927Y-84089310D01*
X159717925Y-84089312D01*
X159717924Y-84089312D01*
X159584312Y-84222924D01*
X159584312Y-84222925D01*
X159584310Y-84222927D01*
X159561977Y-84253666D01*
X159473240Y-84375800D01*
X159387454Y-84544163D01*
X159329059Y-84723881D01*
X159299500Y-84910513D01*
X100070500Y-84910513D01*
X100070500Y-83678842D01*
X130709500Y-83678842D01*
X130709500Y-83821158D01*
X130728604Y-83892453D01*
X130746334Y-83958624D01*
X130746335Y-83958627D01*
X130817489Y-84081871D01*
X130817491Y-84081874D01*
X130817492Y-84081875D01*
X130918125Y-84182508D01*
X131041375Y-84253666D01*
X131178842Y-84290500D01*
X131178844Y-84290500D01*
X131321156Y-84290500D01*
X131321158Y-84290500D01*
X131458625Y-84253666D01*
X131581875Y-84182508D01*
X131682508Y-84081875D01*
X131753666Y-83958625D01*
X131790500Y-83821158D01*
X131790500Y-83678842D01*
X131753666Y-83541375D01*
X131682508Y-83418125D01*
X131581875Y-83317492D01*
X131581874Y-83317491D01*
X131581871Y-83317489D01*
X131458627Y-83246335D01*
X131458626Y-83246334D01*
X131458625Y-83246334D01*
X131321158Y-83209500D01*
X131178842Y-83209500D01*
X131041375Y-83246334D01*
X131041372Y-83246335D01*
X130918128Y-83317489D01*
X130918123Y-83317493D01*
X130817493Y-83418123D01*
X130817489Y-83418128D01*
X130746335Y-83541372D01*
X130746334Y-83541375D01*
X130709500Y-83678842D01*
X100070500Y-83678842D01*
X100070500Y-82734108D01*
X152899500Y-82734108D01*
X152899500Y-82865892D01*
X152916554Y-82929539D01*
X152933608Y-82993187D01*
X152941475Y-83006812D01*
X152999500Y-83107314D01*
X153092686Y-83200500D01*
X153191521Y-83257563D01*
X153205944Y-83265890D01*
X153206814Y-83266392D01*
X153334108Y-83300500D01*
X153334110Y-83300500D01*
X153465890Y-83300500D01*
X153465892Y-83300500D01*
X153593186Y-83266392D01*
X153707314Y-83200500D01*
X153773706Y-83134108D01*
X158499500Y-83134108D01*
X158499500Y-83265891D01*
X158533608Y-83393187D01*
X158548008Y-83418128D01*
X158599500Y-83507314D01*
X158692686Y-83600500D01*
X158806814Y-83666392D01*
X158934108Y-83700500D01*
X158934110Y-83700500D01*
X159065890Y-83700500D01*
X159065892Y-83700500D01*
X159193186Y-83666392D01*
X159307314Y-83600500D01*
X159400500Y-83507314D01*
X159466392Y-83393186D01*
X159500500Y-83265892D01*
X159500500Y-83134108D01*
X159466392Y-83006814D01*
X159400500Y-82892686D01*
X159307314Y-82799500D01*
X159250250Y-82766554D01*
X159193187Y-82733608D01*
X159129539Y-82716554D01*
X159065892Y-82699500D01*
X158934108Y-82699500D01*
X158806812Y-82733608D01*
X158692686Y-82799500D01*
X158692683Y-82799502D01*
X158599502Y-82892683D01*
X158599500Y-82892686D01*
X158533608Y-83006812D01*
X158499500Y-83134108D01*
X153773706Y-83134108D01*
X153800500Y-83107314D01*
X153813023Y-83085622D01*
X153825520Y-83063980D01*
X153866390Y-82993189D01*
X153866392Y-82993186D01*
X153900500Y-82865892D01*
X153900500Y-82734108D01*
X153866392Y-82606814D01*
X153800500Y-82492686D01*
X153707314Y-82399500D01*
X153650250Y-82366554D01*
X153593187Y-82333608D01*
X153529539Y-82316554D01*
X153465892Y-82299500D01*
X153334108Y-82299500D01*
X153206812Y-82333608D01*
X153092686Y-82399500D01*
X153092683Y-82399502D01*
X152999502Y-82492683D01*
X152999500Y-82492686D01*
X152933608Y-82606812D01*
X152908773Y-82699500D01*
X152899500Y-82734108D01*
X100070500Y-82734108D01*
X100070500Y-77028842D01*
X100759500Y-77028842D01*
X100759500Y-77171158D01*
X100795000Y-77303644D01*
X100796334Y-77308624D01*
X100796335Y-77308627D01*
X100867489Y-77431871D01*
X100867491Y-77431874D01*
X100867492Y-77431875D01*
X100968125Y-77532508D01*
X100968126Y-77532509D01*
X100968128Y-77532510D01*
X101026812Y-77566391D01*
X101091375Y-77603666D01*
X101097198Y-77605226D01*
X101156856Y-77641591D01*
X101187384Y-77704438D01*
X101179089Y-77773814D01*
X101134603Y-77827691D01*
X101097199Y-77844773D01*
X101091375Y-77846334D01*
X101091374Y-77846334D01*
X101091372Y-77846335D01*
X100968128Y-77917489D01*
X100968123Y-77917493D01*
X100867493Y-78018123D01*
X100867489Y-78018128D01*
X100796335Y-78141372D01*
X100796334Y-78141375D01*
X100759500Y-78278842D01*
X100759500Y-78421158D01*
X100791478Y-78540500D01*
X100796334Y-78558624D01*
X100796335Y-78558627D01*
X100867489Y-78681871D01*
X100867491Y-78681874D01*
X100867492Y-78681875D01*
X100968125Y-78782508D01*
X100968126Y-78782509D01*
X100968128Y-78782510D01*
X101006216Y-78804500D01*
X101091375Y-78853666D01*
X101097198Y-78855226D01*
X101156856Y-78891591D01*
X101187384Y-78954438D01*
X101179089Y-79023814D01*
X101134603Y-79077691D01*
X101097199Y-79094773D01*
X101091375Y-79096334D01*
X101091374Y-79096334D01*
X101091372Y-79096335D01*
X100968128Y-79167489D01*
X100968123Y-79167493D01*
X100867493Y-79268123D01*
X100867489Y-79268128D01*
X100796335Y-79391372D01*
X100796334Y-79391375D01*
X100759500Y-79528842D01*
X100759500Y-79671157D01*
X100796334Y-79808624D01*
X100796335Y-79808627D01*
X100867489Y-79931871D01*
X100867491Y-79931874D01*
X100867492Y-79931875D01*
X100968125Y-80032508D01*
X101091375Y-80103666D01*
X101097198Y-80105226D01*
X101156856Y-80141591D01*
X101187384Y-80204438D01*
X101179089Y-80273814D01*
X101134603Y-80327691D01*
X101097199Y-80344773D01*
X101091375Y-80346334D01*
X101091374Y-80346334D01*
X101091372Y-80346335D01*
X100968128Y-80417489D01*
X100968123Y-80417493D01*
X100867493Y-80518123D01*
X100867489Y-80518128D01*
X100796335Y-80641372D01*
X100796334Y-80641375D01*
X100759500Y-80778842D01*
X100759500Y-80921157D01*
X100796334Y-81058624D01*
X100796335Y-81058627D01*
X100867489Y-81181871D01*
X100867491Y-81181874D01*
X100867492Y-81181875D01*
X100968125Y-81282508D01*
X101091375Y-81353666D01*
X101228842Y-81390500D01*
X101228844Y-81390500D01*
X101371156Y-81390500D01*
X101371158Y-81390500D01*
X101508625Y-81353666D01*
X101631875Y-81282508D01*
X101732508Y-81181875D01*
X101803666Y-81058625D01*
X101840500Y-80921158D01*
X101840500Y-80778842D01*
X101803666Y-80641375D01*
X101732508Y-80518125D01*
X101631875Y-80417492D01*
X101631874Y-80417491D01*
X101631871Y-80417489D01*
X101508627Y-80346335D01*
X101508623Y-80346333D01*
X101504489Y-80345226D01*
X101502805Y-80344774D01*
X101443145Y-80308411D01*
X101412615Y-80245564D01*
X101420909Y-80176188D01*
X101465394Y-80122310D01*
X101502804Y-80105225D01*
X101508625Y-80103666D01*
X101631875Y-80032508D01*
X101732508Y-79931875D01*
X101803666Y-79808625D01*
X101840500Y-79671158D01*
X101840500Y-79528842D01*
X101803666Y-79391375D01*
X101732508Y-79268125D01*
X101631875Y-79167492D01*
X101631874Y-79167491D01*
X101631871Y-79167489D01*
X101508627Y-79096335D01*
X101508623Y-79096333D01*
X101504489Y-79095226D01*
X101502805Y-79094774D01*
X101443145Y-79058411D01*
X101412615Y-78995564D01*
X101420909Y-78926188D01*
X101465394Y-78872310D01*
X101502804Y-78855225D01*
X101508625Y-78853666D01*
X101631875Y-78782508D01*
X101732508Y-78681875D01*
X101803666Y-78558625D01*
X101840500Y-78421158D01*
X101840500Y-78278842D01*
X101803666Y-78141375D01*
X101732508Y-78018125D01*
X101631875Y-77917492D01*
X101631874Y-77917491D01*
X101631871Y-77917489D01*
X101508627Y-77846335D01*
X101508623Y-77846333D01*
X101504489Y-77845226D01*
X101502805Y-77844774D01*
X101443145Y-77808411D01*
X101412615Y-77745564D01*
X101420909Y-77676188D01*
X101465394Y-77622310D01*
X101502804Y-77605225D01*
X101508625Y-77603666D01*
X101631875Y-77532508D01*
X101732508Y-77431875D01*
X101803666Y-77308625D01*
X101840500Y-77171158D01*
X101840500Y-77028842D01*
X102259500Y-77028842D01*
X102259500Y-77171158D01*
X102295000Y-77303644D01*
X102296334Y-77308624D01*
X102296335Y-77308627D01*
X102367489Y-77431871D01*
X102367491Y-77431874D01*
X102367492Y-77431875D01*
X102468125Y-77532508D01*
X102468126Y-77532509D01*
X102468128Y-77532510D01*
X102526812Y-77566391D01*
X102591375Y-77603666D01*
X102597198Y-77605226D01*
X102656856Y-77641591D01*
X102687384Y-77704438D01*
X102679089Y-77773814D01*
X102634603Y-77827691D01*
X102597199Y-77844773D01*
X102591375Y-77846334D01*
X102591374Y-77846334D01*
X102591372Y-77846335D01*
X102468128Y-77917489D01*
X102468123Y-77917493D01*
X102367493Y-78018123D01*
X102367489Y-78018128D01*
X102296335Y-78141372D01*
X102296334Y-78141375D01*
X102259500Y-78278842D01*
X102259500Y-78421158D01*
X102291478Y-78540500D01*
X102296334Y-78558624D01*
X102296335Y-78558627D01*
X102367489Y-78681871D01*
X102367491Y-78681874D01*
X102367492Y-78681875D01*
X102468125Y-78782508D01*
X102468126Y-78782509D01*
X102468128Y-78782510D01*
X102506216Y-78804500D01*
X102591375Y-78853666D01*
X102597198Y-78855226D01*
X102656856Y-78891591D01*
X102687384Y-78954438D01*
X102679089Y-79023814D01*
X102634603Y-79077691D01*
X102597199Y-79094773D01*
X102591375Y-79096334D01*
X102591374Y-79096334D01*
X102591372Y-79096335D01*
X102468128Y-79167489D01*
X102468123Y-79167493D01*
X102367493Y-79268123D01*
X102367489Y-79268128D01*
X102296335Y-79391372D01*
X102296334Y-79391375D01*
X102259500Y-79528842D01*
X102259500Y-79671157D01*
X102296334Y-79808624D01*
X102296335Y-79808627D01*
X102367489Y-79931871D01*
X102367491Y-79931874D01*
X102367492Y-79931875D01*
X102468125Y-80032508D01*
X102591375Y-80103666D01*
X102597198Y-80105226D01*
X102656856Y-80141591D01*
X102687384Y-80204438D01*
X102679089Y-80273814D01*
X102634603Y-80327691D01*
X102597199Y-80344773D01*
X102591375Y-80346334D01*
X102591374Y-80346334D01*
X102591372Y-80346335D01*
X102468128Y-80417489D01*
X102468123Y-80417493D01*
X102367493Y-80518123D01*
X102367489Y-80518128D01*
X102296335Y-80641372D01*
X102296334Y-80641375D01*
X102259500Y-80778842D01*
X102259500Y-80921157D01*
X102296334Y-81058624D01*
X102296335Y-81058627D01*
X102367489Y-81181871D01*
X102367491Y-81181874D01*
X102367492Y-81181875D01*
X102468125Y-81282508D01*
X102591375Y-81353666D01*
X102728842Y-81390500D01*
X102728844Y-81390500D01*
X102871156Y-81390500D01*
X102871158Y-81390500D01*
X103008625Y-81353666D01*
X103131875Y-81282508D01*
X103232508Y-81181875D01*
X103303666Y-81058625D01*
X103340500Y-80921158D01*
X103340500Y-80778842D01*
X103303666Y-80641375D01*
X103232508Y-80518125D01*
X103131875Y-80417492D01*
X103131874Y-80417491D01*
X103131871Y-80417489D01*
X103008627Y-80346335D01*
X103008623Y-80346333D01*
X103004489Y-80345226D01*
X103002805Y-80344774D01*
X102943145Y-80308411D01*
X102912615Y-80245564D01*
X102920909Y-80176188D01*
X102965394Y-80122310D01*
X103002804Y-80105225D01*
X103008625Y-80103666D01*
X103131875Y-80032508D01*
X103232508Y-79931875D01*
X103303666Y-79808625D01*
X103340500Y-79671158D01*
X103340500Y-79528842D01*
X103303666Y-79391375D01*
X103232508Y-79268125D01*
X103131875Y-79167492D01*
X103131874Y-79167491D01*
X103131871Y-79167489D01*
X103008627Y-79096335D01*
X103008623Y-79096333D01*
X103004489Y-79095226D01*
X103002805Y-79094774D01*
X102943145Y-79058411D01*
X102912615Y-78995564D01*
X102920909Y-78926188D01*
X102965394Y-78872310D01*
X103002804Y-78855225D01*
X103008625Y-78853666D01*
X103131875Y-78782508D01*
X103232508Y-78681875D01*
X103303666Y-78558625D01*
X103340500Y-78421158D01*
X103340500Y-78278842D01*
X103303666Y-78141375D01*
X103232508Y-78018125D01*
X103131875Y-77917492D01*
X103131874Y-77917491D01*
X103131871Y-77917489D01*
X103008627Y-77846335D01*
X103008623Y-77846333D01*
X103004489Y-77845226D01*
X103002805Y-77844774D01*
X102943145Y-77808411D01*
X102912615Y-77745564D01*
X102920909Y-77676188D01*
X102965394Y-77622310D01*
X103002804Y-77605225D01*
X103008625Y-77603666D01*
X103131875Y-77532508D01*
X103232508Y-77431875D01*
X103303666Y-77308625D01*
X103340500Y-77171158D01*
X103340500Y-77028842D01*
X103709500Y-77028842D01*
X103709500Y-77171158D01*
X103745000Y-77303644D01*
X103746334Y-77308624D01*
X103746335Y-77308627D01*
X103817489Y-77431871D01*
X103817491Y-77431874D01*
X103817492Y-77431875D01*
X103918125Y-77532508D01*
X103918126Y-77532509D01*
X103918128Y-77532510D01*
X103976812Y-77566391D01*
X104041375Y-77603666D01*
X104047198Y-77605226D01*
X104106856Y-77641591D01*
X104137384Y-77704438D01*
X104129089Y-77773814D01*
X104084603Y-77827691D01*
X104047199Y-77844773D01*
X104041375Y-77846334D01*
X104041374Y-77846334D01*
X104041372Y-77846335D01*
X103918128Y-77917489D01*
X103918123Y-77917493D01*
X103817493Y-78018123D01*
X103817489Y-78018128D01*
X103746335Y-78141372D01*
X103746334Y-78141375D01*
X103709500Y-78278842D01*
X103709500Y-78421158D01*
X103741478Y-78540500D01*
X103746334Y-78558624D01*
X103746335Y-78558627D01*
X103817489Y-78681871D01*
X103817491Y-78681874D01*
X103817492Y-78681875D01*
X103918125Y-78782508D01*
X103918126Y-78782509D01*
X103918128Y-78782510D01*
X103956216Y-78804500D01*
X104041375Y-78853666D01*
X104047198Y-78855226D01*
X104106856Y-78891591D01*
X104137384Y-78954438D01*
X104129089Y-79023814D01*
X104084603Y-79077691D01*
X104047199Y-79094773D01*
X104041375Y-79096334D01*
X104041374Y-79096334D01*
X104041372Y-79096335D01*
X103918128Y-79167489D01*
X103918123Y-79167493D01*
X103817493Y-79268123D01*
X103817489Y-79268128D01*
X103746335Y-79391372D01*
X103746334Y-79391375D01*
X103709500Y-79528842D01*
X103709500Y-79671157D01*
X103746334Y-79808624D01*
X103746335Y-79808627D01*
X103817489Y-79931871D01*
X103817491Y-79931874D01*
X103817492Y-79931875D01*
X103918125Y-80032508D01*
X104041375Y-80103666D01*
X104178842Y-80140500D01*
X104178844Y-80140500D01*
X104321156Y-80140500D01*
X104321158Y-80140500D01*
X104458625Y-80103666D01*
X104581875Y-80032508D01*
X104682508Y-79931875D01*
X104753666Y-79808625D01*
X104790500Y-79671158D01*
X104790500Y-79528842D01*
X104753666Y-79391375D01*
X104682508Y-79268125D01*
X104581875Y-79167492D01*
X104581874Y-79167491D01*
X104581871Y-79167489D01*
X104458627Y-79096335D01*
X104458623Y-79096333D01*
X104454489Y-79095226D01*
X104452805Y-79094774D01*
X104393145Y-79058411D01*
X104362615Y-78995564D01*
X104370909Y-78926188D01*
X104415394Y-78872310D01*
X104452804Y-78855225D01*
X104458625Y-78853666D01*
X104581875Y-78782508D01*
X104682508Y-78681875D01*
X104753666Y-78558625D01*
X104790500Y-78421158D01*
X104790500Y-78278842D01*
X104753666Y-78141375D01*
X104682508Y-78018125D01*
X104593225Y-77928842D01*
X127859500Y-77928842D01*
X127859500Y-78071157D01*
X127896334Y-78208624D01*
X127896335Y-78208627D01*
X127967489Y-78331871D01*
X127967491Y-78331874D01*
X127967492Y-78331875D01*
X128068125Y-78432508D01*
X128191375Y-78503666D01*
X128328842Y-78540500D01*
X128328844Y-78540500D01*
X128471156Y-78540500D01*
X128471158Y-78540500D01*
X128608625Y-78503666D01*
X128731875Y-78432508D01*
X128832508Y-78331875D01*
X128903666Y-78208625D01*
X128940500Y-78071158D01*
X128940500Y-77928842D01*
X128903666Y-77791375D01*
X128832508Y-77668125D01*
X128731875Y-77567492D01*
X128731874Y-77567491D01*
X128731871Y-77567489D01*
X128608627Y-77496335D01*
X128608626Y-77496334D01*
X128608625Y-77496334D01*
X128471158Y-77459500D01*
X128328842Y-77459500D01*
X128191375Y-77496334D01*
X128191372Y-77496335D01*
X128068128Y-77567489D01*
X128068123Y-77567493D01*
X127967493Y-77668123D01*
X127967489Y-77668128D01*
X127896335Y-77791372D01*
X127896334Y-77791375D01*
X127859500Y-77928842D01*
X104593225Y-77928842D01*
X104581875Y-77917492D01*
X104581874Y-77917491D01*
X104581871Y-77917489D01*
X104458627Y-77846335D01*
X104458623Y-77846333D01*
X104454489Y-77845226D01*
X104452805Y-77844774D01*
X104393145Y-77808411D01*
X104362615Y-77745564D01*
X104370909Y-77676188D01*
X104415394Y-77622310D01*
X104452804Y-77605225D01*
X104458625Y-77603666D01*
X104581875Y-77532508D01*
X104682508Y-77431875D01*
X104753666Y-77308625D01*
X104790500Y-77171158D01*
X104790500Y-77028842D01*
X104753666Y-76891375D01*
X104696688Y-76792686D01*
X104682510Y-76768128D01*
X104682506Y-76768123D01*
X104581876Y-76667493D01*
X104581871Y-76667489D01*
X104458627Y-76596335D01*
X104458626Y-76596334D01*
X104458625Y-76596334D01*
X104321158Y-76559500D01*
X104178842Y-76559500D01*
X104041375Y-76596334D01*
X104041372Y-76596335D01*
X103918128Y-76667489D01*
X103918123Y-76667493D01*
X103817493Y-76768123D01*
X103817489Y-76768128D01*
X103746335Y-76891372D01*
X103746334Y-76891375D01*
X103709500Y-77028842D01*
X103340500Y-77028842D01*
X103303666Y-76891375D01*
X103246688Y-76792686D01*
X103232510Y-76768128D01*
X103232506Y-76768123D01*
X103131876Y-76667493D01*
X103131871Y-76667489D01*
X103008627Y-76596335D01*
X103008626Y-76596334D01*
X103008625Y-76596334D01*
X102871158Y-76559500D01*
X102728842Y-76559500D01*
X102591375Y-76596334D01*
X102591372Y-76596335D01*
X102468128Y-76667489D01*
X102468123Y-76667493D01*
X102367493Y-76768123D01*
X102367489Y-76768128D01*
X102296335Y-76891372D01*
X102296334Y-76891375D01*
X102259500Y-77028842D01*
X101840500Y-77028842D01*
X101803666Y-76891375D01*
X101746688Y-76792686D01*
X101732510Y-76768128D01*
X101732506Y-76768123D01*
X101631876Y-76667493D01*
X101631871Y-76667489D01*
X101508627Y-76596335D01*
X101508626Y-76596334D01*
X101508625Y-76596334D01*
X101371158Y-76559500D01*
X101228842Y-76559500D01*
X101091375Y-76596334D01*
X101091372Y-76596335D01*
X100968128Y-76667489D01*
X100968123Y-76667493D01*
X100867493Y-76768123D01*
X100867489Y-76768128D01*
X100796335Y-76891372D01*
X100796334Y-76891375D01*
X100759500Y-77028842D01*
X100070500Y-77028842D01*
X100070500Y-73830247D01*
X101199500Y-73830247D01*
X101199500Y-74769752D01*
X101211131Y-74828229D01*
X101211132Y-74828230D01*
X101255447Y-74894552D01*
X101321769Y-74938867D01*
X101321770Y-74938868D01*
X101380247Y-74950499D01*
X101380250Y-74950500D01*
X101380252Y-74950500D01*
X103419750Y-74950500D01*
X103419751Y-74950499D01*
X103434568Y-74947552D01*
X103478229Y-74938868D01*
X103478229Y-74938867D01*
X103478231Y-74938867D01*
X103544552Y-74894552D01*
X103588867Y-74828231D01*
X103588867Y-74828229D01*
X103588868Y-74828229D01*
X103600499Y-74769752D01*
X103600500Y-74769750D01*
X103600500Y-74734108D01*
X115299500Y-74734108D01*
X115299500Y-74865891D01*
X115333608Y-74993187D01*
X115346011Y-75014669D01*
X115399500Y-75107314D01*
X115492686Y-75200500D01*
X115606814Y-75266392D01*
X115734108Y-75300500D01*
X115734110Y-75300500D01*
X115865890Y-75300500D01*
X115865892Y-75300500D01*
X115993186Y-75266392D01*
X116107314Y-75200500D01*
X116200500Y-75107314D01*
X116266392Y-74993186D01*
X116300500Y-74865892D01*
X116300500Y-74734108D01*
X116281734Y-74664071D01*
X127149499Y-74664071D01*
X127174497Y-74789738D01*
X127174499Y-74789744D01*
X127223533Y-74908124D01*
X127223538Y-74908133D01*
X127294723Y-75014668D01*
X127294726Y-75014672D01*
X127385327Y-75105273D01*
X127385331Y-75105276D01*
X127491866Y-75176461D01*
X127491872Y-75176464D01*
X127491873Y-75176465D01*
X127610256Y-75225501D01*
X127610260Y-75225501D01*
X127610261Y-75225502D01*
X127735928Y-75250500D01*
X127735931Y-75250500D01*
X127864071Y-75250500D01*
X127948615Y-75233682D01*
X127989744Y-75225501D01*
X128108127Y-75176465D01*
X128214669Y-75105276D01*
X128305276Y-75014669D01*
X128376465Y-74908127D01*
X128425501Y-74789744D01*
X128450500Y-74664069D01*
X128450500Y-74535931D01*
X128450500Y-74535928D01*
X128425502Y-74410261D01*
X128425501Y-74410260D01*
X128425501Y-74410256D01*
X128382861Y-74307314D01*
X128376466Y-74291875D01*
X128376461Y-74291866D01*
X128305276Y-74185331D01*
X128305273Y-74185327D01*
X128214672Y-74094726D01*
X128214668Y-74094723D01*
X128108133Y-74023538D01*
X128108124Y-74023533D01*
X127989744Y-73974499D01*
X127989738Y-73974497D01*
X127864071Y-73949500D01*
X127864069Y-73949500D01*
X127735931Y-73949500D01*
X127735929Y-73949500D01*
X127610261Y-73974497D01*
X127610255Y-73974499D01*
X127491875Y-74023533D01*
X127491866Y-74023538D01*
X127385331Y-74094723D01*
X127385327Y-74094726D01*
X127294726Y-74185327D01*
X127294723Y-74185331D01*
X127223538Y-74291866D01*
X127223533Y-74291875D01*
X127174499Y-74410255D01*
X127174497Y-74410261D01*
X127149500Y-74535928D01*
X127149500Y-74535931D01*
X127149500Y-74664069D01*
X127149500Y-74664071D01*
X127149499Y-74664071D01*
X116281734Y-74664071D01*
X116266392Y-74606814D01*
X116200500Y-74492686D01*
X116107314Y-74399500D01*
X116033392Y-74356821D01*
X115993187Y-74333608D01*
X115911752Y-74311788D01*
X115865892Y-74299500D01*
X115734108Y-74299500D01*
X115606812Y-74333608D01*
X115492686Y-74399500D01*
X115492683Y-74399502D01*
X115399502Y-74492683D01*
X115399500Y-74492686D01*
X115333608Y-74606812D01*
X115299500Y-74734108D01*
X103600500Y-74734108D01*
X103600500Y-73830249D01*
X103600499Y-73830247D01*
X103588868Y-73771770D01*
X103588867Y-73771769D01*
X103544552Y-73705447D01*
X103497214Y-73673817D01*
X103478230Y-73661132D01*
X103478229Y-73661131D01*
X103419752Y-73649500D01*
X103419748Y-73649500D01*
X101380252Y-73649500D01*
X101380247Y-73649500D01*
X101321770Y-73661131D01*
X101321769Y-73661132D01*
X101255447Y-73705447D01*
X101211132Y-73771769D01*
X101211131Y-73771770D01*
X101199500Y-73830247D01*
X100070500Y-73830247D01*
X100070500Y-73578842D01*
X133459500Y-73578842D01*
X133459500Y-73721158D01*
X133486295Y-73821156D01*
X133496334Y-73858624D01*
X133496335Y-73858627D01*
X133567489Y-73981871D01*
X133567491Y-73981874D01*
X133567492Y-73981875D01*
X133668125Y-74082508D01*
X133791375Y-74153666D01*
X133928842Y-74190500D01*
X133928844Y-74190500D01*
X134071156Y-74190500D01*
X134071158Y-74190500D01*
X134208625Y-74153666D01*
X134331875Y-74082508D01*
X134412319Y-74002064D01*
X134473642Y-73968579D01*
X134543334Y-73973563D01*
X134587681Y-74002064D01*
X134668125Y-74082508D01*
X134791375Y-74153666D01*
X134928842Y-74190500D01*
X134928844Y-74190500D01*
X135071156Y-74190500D01*
X135071158Y-74190500D01*
X135208625Y-74153666D01*
X135331875Y-74082508D01*
X135412319Y-74002064D01*
X135473642Y-73968579D01*
X135543334Y-73973563D01*
X135587681Y-74002064D01*
X135668125Y-74082508D01*
X135791375Y-74153666D01*
X135928842Y-74190500D01*
X135928844Y-74190500D01*
X136071156Y-74190500D01*
X136071158Y-74190500D01*
X136208625Y-74153666D01*
X136331875Y-74082508D01*
X136432508Y-73981875D01*
X136503666Y-73858625D01*
X136540500Y-73721158D01*
X136540500Y-73678842D01*
X145209500Y-73678842D01*
X145209500Y-73821158D01*
X145239766Y-73934110D01*
X145246334Y-73958624D01*
X145246335Y-73958627D01*
X145317489Y-74081871D01*
X145317491Y-74081874D01*
X145317492Y-74081875D01*
X145418125Y-74182508D01*
X145418127Y-74182509D01*
X145418131Y-74182512D01*
X145435627Y-74192614D01*
X145483842Y-74243181D01*
X145497064Y-74311788D01*
X145471096Y-74376653D01*
X145435627Y-74407386D01*
X145418131Y-74417487D01*
X145418123Y-74417493D01*
X145317493Y-74518123D01*
X145317489Y-74518128D01*
X145246335Y-74641372D01*
X145246334Y-74641375D01*
X145209500Y-74778842D01*
X145209500Y-74921158D01*
X145214246Y-74938868D01*
X145246334Y-75058624D01*
X145246335Y-75058627D01*
X145317489Y-75181871D01*
X145317491Y-75181874D01*
X145317492Y-75181875D01*
X145418125Y-75282508D01*
X145418127Y-75282509D01*
X145418131Y-75282512D01*
X145435627Y-75292614D01*
X145483842Y-75343181D01*
X145497064Y-75411788D01*
X145471096Y-75476653D01*
X145435627Y-75507386D01*
X145418131Y-75517487D01*
X145418123Y-75517493D01*
X145317493Y-75618123D01*
X145317489Y-75618128D01*
X145246335Y-75741372D01*
X145246334Y-75741375D01*
X145209500Y-75878842D01*
X145209500Y-76021157D01*
X145246334Y-76158624D01*
X145246335Y-76158627D01*
X145317489Y-76281871D01*
X145317491Y-76281874D01*
X145317492Y-76281875D01*
X145418125Y-76382508D01*
X145418127Y-76382509D01*
X145418131Y-76382512D01*
X145435627Y-76392614D01*
X145483842Y-76443181D01*
X145497064Y-76511788D01*
X145471096Y-76576653D01*
X145435627Y-76607386D01*
X145418131Y-76617487D01*
X145418123Y-76617493D01*
X145317493Y-76718123D01*
X145317489Y-76718128D01*
X145246335Y-76841372D01*
X145246334Y-76841375D01*
X145209500Y-76978842D01*
X145209500Y-77121158D01*
X145226307Y-77183881D01*
X145246334Y-77258624D01*
X145246335Y-77258627D01*
X145317489Y-77381871D01*
X145317491Y-77381874D01*
X145317492Y-77381875D01*
X145418125Y-77482508D01*
X145418126Y-77482509D01*
X145418128Y-77482510D01*
X145449288Y-77500500D01*
X145541375Y-77553666D01*
X145678842Y-77590500D01*
X145678844Y-77590500D01*
X145821156Y-77590500D01*
X145821158Y-77590500D01*
X145958625Y-77553666D01*
X146081875Y-77482508D01*
X146182508Y-77381875D01*
X146253666Y-77258625D01*
X146290500Y-77121158D01*
X146290500Y-77034108D01*
X157599500Y-77034108D01*
X157599500Y-77165892D01*
X157616554Y-77229539D01*
X157633608Y-77293187D01*
X157666554Y-77350250D01*
X157699500Y-77407314D01*
X157792686Y-77500500D01*
X157906814Y-77566392D01*
X158034108Y-77600500D01*
X158034110Y-77600500D01*
X158165890Y-77600500D01*
X158165892Y-77600500D01*
X158293186Y-77566392D01*
X158407314Y-77500500D01*
X158500500Y-77407314D01*
X158521747Y-77370513D01*
X159299500Y-77370513D01*
X159299500Y-77559486D01*
X159329059Y-77746118D01*
X159387454Y-77925836D01*
X159461500Y-78071158D01*
X159473240Y-78094199D01*
X159584310Y-78247073D01*
X159717927Y-78380690D01*
X159870801Y-78491760D01*
X159966457Y-78540499D01*
X160024385Y-78570015D01*
X160075181Y-78617990D01*
X160091976Y-78685811D01*
X160069439Y-78751946D01*
X160014723Y-78795397D01*
X159968090Y-78804500D01*
X159695730Y-78804500D01*
X159665300Y-78807353D01*
X159665298Y-78807353D01*
X159537119Y-78852206D01*
X159537117Y-78852207D01*
X159427850Y-78932850D01*
X159347207Y-79042117D01*
X159347206Y-79042119D01*
X159302353Y-79170298D01*
X159302353Y-79170300D01*
X159299500Y-79200730D01*
X159299500Y-80809269D01*
X159302353Y-80839699D01*
X159302353Y-80839701D01*
X159347206Y-80967880D01*
X159347207Y-80967882D01*
X159427850Y-81077150D01*
X159537118Y-81157793D01*
X159579845Y-81172744D01*
X159665299Y-81202646D01*
X159695730Y-81205500D01*
X159695734Y-81205500D01*
X161304270Y-81205500D01*
X161334699Y-81202646D01*
X161334701Y-81202646D01*
X161398790Y-81180219D01*
X161462882Y-81157793D01*
X161572150Y-81077150D01*
X161652793Y-80967882D01*
X161690864Y-80859082D01*
X161697646Y-80839701D01*
X161697646Y-80839699D01*
X161700500Y-80809269D01*
X161700500Y-79200730D01*
X161697646Y-79170300D01*
X161697646Y-79170298D01*
X161652793Y-79042119D01*
X161652792Y-79042117D01*
X161639284Y-79023814D01*
X161572150Y-78932850D01*
X161462882Y-78852207D01*
X161462880Y-78852206D01*
X161334700Y-78807353D01*
X161304270Y-78804500D01*
X161304266Y-78804500D01*
X161031910Y-78804500D01*
X160964871Y-78784815D01*
X160919116Y-78732011D01*
X160909172Y-78662853D01*
X160938197Y-78599297D01*
X160975615Y-78570015D01*
X161033543Y-78540499D01*
X161129199Y-78491760D01*
X161282073Y-78380690D01*
X161415690Y-78247073D01*
X161526760Y-78094199D01*
X161612547Y-77925832D01*
X161670940Y-77746118D01*
X161671028Y-77745564D01*
X161700500Y-77559486D01*
X161700500Y-77370513D01*
X161670940Y-77183881D01*
X161622275Y-77034108D01*
X161612547Y-77004168D01*
X161612545Y-77004165D01*
X161612545Y-77004163D01*
X161529600Y-76841375D01*
X161526760Y-76835801D01*
X161415690Y-76682927D01*
X161282073Y-76549310D01*
X161129199Y-76438240D01*
X161099974Y-76423349D01*
X160960836Y-76352454D01*
X160781118Y-76294059D01*
X160594486Y-76264500D01*
X160594481Y-76264500D01*
X160405519Y-76264500D01*
X160405514Y-76264500D01*
X160218881Y-76294059D01*
X160039163Y-76352454D01*
X159870800Y-76438240D01*
X159783579Y-76501610D01*
X159717927Y-76549310D01*
X159717925Y-76549312D01*
X159717924Y-76549312D01*
X159584312Y-76682924D01*
X159584312Y-76682925D01*
X159584310Y-76682927D01*
X159558737Y-76718125D01*
X159473240Y-76835800D01*
X159387454Y-77004163D01*
X159329059Y-77183881D01*
X159299500Y-77370513D01*
X158521747Y-77370513D01*
X158566392Y-77293186D01*
X158600500Y-77165892D01*
X158600500Y-77034108D01*
X158566392Y-76906814D01*
X158500500Y-76792686D01*
X158407314Y-76699500D01*
X158350250Y-76666554D01*
X158293187Y-76633608D01*
X158229539Y-76616554D01*
X158165892Y-76599500D01*
X158034108Y-76599500D01*
X157906812Y-76633608D01*
X157792686Y-76699500D01*
X157792683Y-76699502D01*
X157699502Y-76792683D01*
X157699500Y-76792686D01*
X157633608Y-76906812D01*
X157614308Y-76978842D01*
X157599500Y-77034108D01*
X146290500Y-77034108D01*
X146290500Y-76978842D01*
X146253666Y-76841375D01*
X146182508Y-76718125D01*
X146081875Y-76617492D01*
X146081873Y-76617491D01*
X146081868Y-76617487D01*
X146064374Y-76607387D01*
X146016158Y-76556821D01*
X146002934Y-76488214D01*
X146028902Y-76423349D01*
X146064374Y-76392613D01*
X146081868Y-76382512D01*
X146081867Y-76382512D01*
X146081875Y-76382508D01*
X146182508Y-76281875D01*
X146253666Y-76158625D01*
X146290500Y-76021158D01*
X146290500Y-75878842D01*
X146253666Y-75741375D01*
X146182508Y-75618125D01*
X146081875Y-75517492D01*
X146081873Y-75517491D01*
X146081868Y-75517487D01*
X146064374Y-75507387D01*
X146016158Y-75456821D01*
X146002934Y-75388214D01*
X146028902Y-75323349D01*
X146064374Y-75292613D01*
X146081868Y-75282512D01*
X146081867Y-75282512D01*
X146081875Y-75282508D01*
X146182508Y-75181875D01*
X146253666Y-75058625D01*
X146290500Y-74921158D01*
X146290500Y-74778842D01*
X146253666Y-74641375D01*
X146182508Y-74518125D01*
X146081875Y-74417492D01*
X146081873Y-74417491D01*
X146081868Y-74417487D01*
X146064374Y-74407387D01*
X146016158Y-74356821D01*
X146002934Y-74288214D01*
X146028902Y-74223349D01*
X146064374Y-74192613D01*
X146081868Y-74182512D01*
X146081867Y-74182512D01*
X146081875Y-74182508D01*
X146182508Y-74081875D01*
X146253666Y-73958625D01*
X146260235Y-73934108D01*
X151699500Y-73934108D01*
X151699500Y-74065892D01*
X151707226Y-74094726D01*
X151733608Y-74193187D01*
X151762473Y-74243181D01*
X151799500Y-74307314D01*
X151892686Y-74400500D01*
X152006814Y-74466392D01*
X152134108Y-74500500D01*
X152134110Y-74500500D01*
X152265890Y-74500500D01*
X152265892Y-74500500D01*
X152393186Y-74466392D01*
X152507314Y-74400500D01*
X152600500Y-74307314D01*
X152666392Y-74193186D01*
X152700500Y-74065892D01*
X152700500Y-73934108D01*
X152666392Y-73806814D01*
X152600500Y-73692686D01*
X152507314Y-73599500D01*
X152450250Y-73566554D01*
X152393187Y-73533608D01*
X152297174Y-73507882D01*
X152265892Y-73499500D01*
X152134108Y-73499500D01*
X152006812Y-73533608D01*
X151892686Y-73599500D01*
X151892683Y-73599502D01*
X151799502Y-73692683D01*
X151799500Y-73692686D01*
X151733608Y-73806812D01*
X151719725Y-73858625D01*
X151699500Y-73934108D01*
X146260235Y-73934108D01*
X146290500Y-73821158D01*
X146290500Y-73678842D01*
X146253666Y-73541375D01*
X146182508Y-73418125D01*
X146081875Y-73317492D01*
X146081874Y-73317491D01*
X146081871Y-73317489D01*
X145958627Y-73246335D01*
X145958626Y-73246334D01*
X145958625Y-73246334D01*
X145821158Y-73209500D01*
X145678842Y-73209500D01*
X145541375Y-73246334D01*
X145541372Y-73246335D01*
X145418128Y-73317489D01*
X145418123Y-73317493D01*
X145317493Y-73418123D01*
X145317489Y-73418128D01*
X145246335Y-73541372D01*
X145246334Y-73541375D01*
X145209500Y-73678842D01*
X136540500Y-73678842D01*
X136540500Y-73578842D01*
X136503666Y-73441375D01*
X136450487Y-73349266D01*
X136432510Y-73318128D01*
X136432506Y-73318123D01*
X136331876Y-73217493D01*
X136331871Y-73217489D01*
X136208627Y-73146335D01*
X136208626Y-73146334D01*
X136208625Y-73146334D01*
X136071158Y-73109500D01*
X135928842Y-73109500D01*
X135791375Y-73146334D01*
X135791372Y-73146335D01*
X135668128Y-73217489D01*
X135668123Y-73217493D01*
X135587681Y-73297936D01*
X135526358Y-73331421D01*
X135456666Y-73326437D01*
X135412319Y-73297936D01*
X135331876Y-73217493D01*
X135331871Y-73217489D01*
X135208627Y-73146335D01*
X135208626Y-73146334D01*
X135208625Y-73146334D01*
X135071158Y-73109500D01*
X134928842Y-73109500D01*
X134791375Y-73146334D01*
X134791372Y-73146335D01*
X134668128Y-73217489D01*
X134668123Y-73217493D01*
X134587681Y-73297936D01*
X134526358Y-73331421D01*
X134456666Y-73326437D01*
X134412319Y-73297936D01*
X134331876Y-73217493D01*
X134331871Y-73217489D01*
X134208627Y-73146335D01*
X134208626Y-73146334D01*
X134208625Y-73146334D01*
X134071158Y-73109500D01*
X133928842Y-73109500D01*
X133791375Y-73146334D01*
X133791372Y-73146335D01*
X133668128Y-73217489D01*
X133668123Y-73217493D01*
X133567493Y-73318123D01*
X133567489Y-73318128D01*
X133496335Y-73441372D01*
X133496334Y-73441375D01*
X133459500Y-73578842D01*
X100070500Y-73578842D01*
X100070500Y-70999879D01*
X106109500Y-70999879D01*
X106109500Y-71300120D01*
X106109501Y-71300137D01*
X106148689Y-71597802D01*
X106148690Y-71597807D01*
X106148691Y-71597813D01*
X106226402Y-71887837D01*
X106341305Y-72165236D01*
X106491432Y-72425264D01*
X106491434Y-72425267D01*
X106491435Y-72425268D01*
X106674214Y-72663470D01*
X106674220Y-72663477D01*
X106886522Y-72875779D01*
X106886529Y-72875785D01*
X107026476Y-72983170D01*
X107124736Y-73058568D01*
X107384764Y-73208695D01*
X107662163Y-73323598D01*
X107952187Y-73401309D01*
X108249873Y-73440500D01*
X108249880Y-73440500D01*
X108550120Y-73440500D01*
X108550127Y-73440500D01*
X108847813Y-73401309D01*
X109137837Y-73323598D01*
X109415236Y-73208695D01*
X109675264Y-73058568D01*
X109913472Y-72875784D01*
X110125784Y-72663472D01*
X110305822Y-72428842D01*
X110959500Y-72428842D01*
X110959500Y-72571158D01*
X110984236Y-72663472D01*
X110996334Y-72708624D01*
X110996335Y-72708627D01*
X111067489Y-72831871D01*
X111067491Y-72831874D01*
X111067492Y-72831875D01*
X111168125Y-72932508D01*
X111291375Y-73003666D01*
X111428842Y-73040500D01*
X111428844Y-73040500D01*
X111571156Y-73040500D01*
X111571158Y-73040500D01*
X111708625Y-73003666D01*
X111831875Y-72932508D01*
X111932508Y-72831875D01*
X112003666Y-72708625D01*
X112040500Y-72571158D01*
X112040500Y-72428842D01*
X112459500Y-72428842D01*
X112459500Y-72571158D01*
X112484236Y-72663472D01*
X112496334Y-72708624D01*
X112496335Y-72708627D01*
X112567489Y-72831871D01*
X112567491Y-72831874D01*
X112567492Y-72831875D01*
X112668125Y-72932508D01*
X112791375Y-73003666D01*
X112928842Y-73040500D01*
X112928844Y-73040500D01*
X113071156Y-73040500D01*
X113071158Y-73040500D01*
X113208625Y-73003666D01*
X113331875Y-72932508D01*
X113432508Y-72831875D01*
X113503666Y-72708625D01*
X113540500Y-72571158D01*
X113540500Y-72428842D01*
X113503666Y-72291375D01*
X113468087Y-72229750D01*
X113432510Y-72168128D01*
X113432506Y-72168123D01*
X113331876Y-72067493D01*
X113331871Y-72067489D01*
X113208627Y-71996335D01*
X113208626Y-71996334D01*
X113208625Y-71996334D01*
X113071158Y-71959500D01*
X112928842Y-71959500D01*
X112791375Y-71996334D01*
X112791372Y-71996335D01*
X112668128Y-72067489D01*
X112668123Y-72067493D01*
X112567493Y-72168123D01*
X112567489Y-72168128D01*
X112496335Y-72291372D01*
X112496334Y-72291375D01*
X112459500Y-72428842D01*
X112040500Y-72428842D01*
X112003666Y-72291375D01*
X111968087Y-72229750D01*
X111932510Y-72168128D01*
X111932506Y-72168123D01*
X111831876Y-72067493D01*
X111831871Y-72067489D01*
X111708627Y-71996335D01*
X111708626Y-71996334D01*
X111708625Y-71996334D01*
X111571158Y-71959500D01*
X111428842Y-71959500D01*
X111291375Y-71996334D01*
X111291372Y-71996335D01*
X111168128Y-72067489D01*
X111168123Y-72067493D01*
X111067493Y-72168123D01*
X111067489Y-72168128D01*
X110996335Y-72291372D01*
X110996334Y-72291375D01*
X110959500Y-72428842D01*
X110305822Y-72428842D01*
X110308568Y-72425264D01*
X110458695Y-72165236D01*
X110573598Y-71887837D01*
X110651309Y-71597813D01*
X110690500Y-71300127D01*
X110690500Y-70999873D01*
X110686272Y-70967758D01*
X110682210Y-70936900D01*
X110681149Y-70928842D01*
X110959500Y-70928842D01*
X110959500Y-71071158D01*
X110994788Y-71202853D01*
X110996334Y-71208624D01*
X110996335Y-71208627D01*
X111067489Y-71331871D01*
X111067491Y-71331874D01*
X111067492Y-71331875D01*
X111168125Y-71432508D01*
X111168126Y-71432509D01*
X111168128Y-71432510D01*
X111226814Y-71466392D01*
X111291375Y-71503666D01*
X111428842Y-71540500D01*
X111428844Y-71540500D01*
X111571156Y-71540500D01*
X111571158Y-71540500D01*
X111708625Y-71503666D01*
X111831875Y-71432508D01*
X111932508Y-71331875D01*
X112003666Y-71208625D01*
X112040500Y-71071158D01*
X112040500Y-70928842D01*
X112459500Y-70928842D01*
X112459500Y-71071158D01*
X112494788Y-71202853D01*
X112496334Y-71208624D01*
X112496335Y-71208627D01*
X112567489Y-71331871D01*
X112567491Y-71331874D01*
X112567492Y-71331875D01*
X112668125Y-71432508D01*
X112668126Y-71432509D01*
X112668128Y-71432510D01*
X112726814Y-71466392D01*
X112791375Y-71503666D01*
X112928842Y-71540500D01*
X112928844Y-71540500D01*
X113071156Y-71540500D01*
X113071158Y-71540500D01*
X113208625Y-71503666D01*
X113331875Y-71432508D01*
X113432508Y-71331875D01*
X113503666Y-71208625D01*
X113540500Y-71071158D01*
X113540500Y-70928842D01*
X113503666Y-70791375D01*
X113446688Y-70692686D01*
X113432510Y-70668128D01*
X113432506Y-70668123D01*
X113331876Y-70567493D01*
X113331871Y-70567489D01*
X113208627Y-70496335D01*
X113208626Y-70496334D01*
X113208625Y-70496334D01*
X113071158Y-70459500D01*
X112928842Y-70459500D01*
X112791375Y-70496334D01*
X112791372Y-70496335D01*
X112668128Y-70567489D01*
X112668123Y-70567493D01*
X112567493Y-70668123D01*
X112567489Y-70668128D01*
X112496335Y-70791372D01*
X112496334Y-70791375D01*
X112459500Y-70928842D01*
X112040500Y-70928842D01*
X112003666Y-70791375D01*
X111946688Y-70692686D01*
X111932510Y-70668128D01*
X111932506Y-70668123D01*
X111831876Y-70567493D01*
X111831871Y-70567489D01*
X111708627Y-70496335D01*
X111708626Y-70496334D01*
X111708625Y-70496334D01*
X111571158Y-70459500D01*
X111428842Y-70459500D01*
X111291375Y-70496334D01*
X111291372Y-70496335D01*
X111168128Y-70567489D01*
X111168123Y-70567493D01*
X111067493Y-70668123D01*
X111067489Y-70668128D01*
X110996335Y-70791372D01*
X110996334Y-70791375D01*
X110959500Y-70928842D01*
X110681149Y-70928842D01*
X110665083Y-70806812D01*
X110651309Y-70702187D01*
X110573598Y-70412163D01*
X110458695Y-70134764D01*
X110458316Y-70134108D01*
X120499500Y-70134108D01*
X120499500Y-70265892D01*
X120516554Y-70329539D01*
X120533608Y-70393187D01*
X120566554Y-70450250D01*
X120599500Y-70507314D01*
X120599502Y-70507316D01*
X120604505Y-70512319D01*
X120637990Y-70573642D01*
X120633006Y-70643334D01*
X120604505Y-70687681D01*
X120599502Y-70692683D01*
X120599500Y-70692686D01*
X120533608Y-70806812D01*
X120503096Y-70920687D01*
X120499500Y-70934108D01*
X120499500Y-71065892D01*
X120500911Y-71071157D01*
X120533608Y-71193187D01*
X120552444Y-71225811D01*
X120599500Y-71307314D01*
X120599502Y-71307316D01*
X120692687Y-71400501D01*
X120694158Y-71401630D01*
X120695083Y-71402897D01*
X120698433Y-71406247D01*
X120697910Y-71406769D01*
X120735356Y-71458060D01*
X120739506Y-71527807D01*
X120705289Y-71588725D01*
X120694158Y-71598370D01*
X120692687Y-71599498D01*
X120599502Y-71692683D01*
X120599500Y-71692686D01*
X120533608Y-71806812D01*
X120499500Y-71934108D01*
X120499500Y-72065891D01*
X120533608Y-72193187D01*
X120566554Y-72250250D01*
X120599500Y-72307314D01*
X120692686Y-72400500D01*
X120806814Y-72466392D01*
X120934108Y-72500500D01*
X120934110Y-72500500D01*
X121065890Y-72500500D01*
X121065892Y-72500500D01*
X121193186Y-72466392D01*
X121307314Y-72400500D01*
X121400500Y-72307314D01*
X121400504Y-72307306D01*
X121401625Y-72305847D01*
X121402892Y-72304921D01*
X121406247Y-72301567D01*
X121406770Y-72302090D01*
X121458053Y-72264645D01*
X121527799Y-72260491D01*
X121588719Y-72294704D01*
X121598375Y-72305847D01*
X121599498Y-72307311D01*
X121599500Y-72307314D01*
X121692686Y-72400500D01*
X121806814Y-72466392D01*
X121934108Y-72500500D01*
X121934110Y-72500500D01*
X122065890Y-72500500D01*
X122065892Y-72500500D01*
X122193186Y-72466392D01*
X122307314Y-72400500D01*
X122400500Y-72307314D01*
X122466392Y-72193186D01*
X122500500Y-72065892D01*
X122500500Y-71934108D01*
X122466392Y-71806814D01*
X122400500Y-71692686D01*
X122307314Y-71599500D01*
X122307311Y-71599498D01*
X122305847Y-71598375D01*
X122304921Y-71597107D01*
X122301567Y-71593753D01*
X122302090Y-71593229D01*
X122264645Y-71541947D01*
X122260491Y-71472201D01*
X122294704Y-71411281D01*
X122305847Y-71401625D01*
X122307306Y-71400504D01*
X122307314Y-71400500D01*
X122400500Y-71307314D01*
X122466392Y-71193186D01*
X122500500Y-71065892D01*
X122500500Y-70934108D01*
X122466392Y-70806814D01*
X122400500Y-70692686D01*
X122395495Y-70687681D01*
X122362010Y-70626358D01*
X122366994Y-70556666D01*
X122395495Y-70512319D01*
X122400500Y-70507314D01*
X122466392Y-70393186D01*
X122500500Y-70265892D01*
X122500500Y-70134108D01*
X122466392Y-70006814D01*
X122410792Y-69910513D01*
X159299500Y-69910513D01*
X159299500Y-70099486D01*
X159329059Y-70286118D01*
X159387454Y-70465836D01*
X159455815Y-70600000D01*
X159473240Y-70634199D01*
X159584310Y-70787073D01*
X159717927Y-70920690D01*
X159870801Y-71031760D01*
X159948120Y-71071156D01*
X160024385Y-71110015D01*
X160075181Y-71157990D01*
X160091976Y-71225811D01*
X160069439Y-71291946D01*
X160014723Y-71335397D01*
X159968090Y-71344500D01*
X159695730Y-71344500D01*
X159665300Y-71347353D01*
X159665298Y-71347353D01*
X159537119Y-71392206D01*
X159537117Y-71392207D01*
X159427850Y-71472850D01*
X159347207Y-71582117D01*
X159347206Y-71582119D01*
X159302353Y-71710298D01*
X159302353Y-71710300D01*
X159299500Y-71740730D01*
X159299500Y-73349269D01*
X159302353Y-73379699D01*
X159302353Y-73379701D01*
X159344274Y-73499500D01*
X159347207Y-73507882D01*
X159427850Y-73617150D01*
X159537118Y-73697793D01*
X159558992Y-73705447D01*
X159665299Y-73742646D01*
X159695730Y-73745500D01*
X159695734Y-73745500D01*
X161304270Y-73745500D01*
X161334699Y-73742646D01*
X161334701Y-73742646D01*
X161398790Y-73720219D01*
X161462882Y-73697793D01*
X161572150Y-73617150D01*
X161652793Y-73507882D01*
X161690084Y-73401310D01*
X161697646Y-73379701D01*
X161697646Y-73379699D01*
X161700500Y-73349269D01*
X161700500Y-71740730D01*
X161697646Y-71710300D01*
X161697646Y-71710298D01*
X161658875Y-71599500D01*
X161652793Y-71582118D01*
X161572150Y-71472850D01*
X161462882Y-71392207D01*
X161462880Y-71392206D01*
X161334700Y-71347353D01*
X161304270Y-71344500D01*
X161304266Y-71344500D01*
X161031910Y-71344500D01*
X160964871Y-71324815D01*
X160919116Y-71272011D01*
X160909172Y-71202853D01*
X160938197Y-71139297D01*
X160975615Y-71110015D01*
X161010224Y-71092380D01*
X161129199Y-71031760D01*
X161282073Y-70920690D01*
X161415690Y-70787073D01*
X161526760Y-70634199D01*
X161612547Y-70465832D01*
X161670940Y-70286118D01*
X161673848Y-70267758D01*
X161700500Y-70099486D01*
X161700500Y-69910513D01*
X161670940Y-69723881D01*
X161642555Y-69636522D01*
X161612547Y-69544168D01*
X161612545Y-69544165D01*
X161612545Y-69544163D01*
X161553787Y-69428844D01*
X161526760Y-69375801D01*
X161415690Y-69222927D01*
X161282073Y-69089310D01*
X161129199Y-68978240D01*
X161092420Y-68959500D01*
X160960836Y-68892454D01*
X160781118Y-68834059D01*
X160594486Y-68804500D01*
X160594481Y-68804500D01*
X160405519Y-68804500D01*
X160405514Y-68804500D01*
X160218881Y-68834059D01*
X160039163Y-68892454D01*
X159870800Y-68978240D01*
X159845895Y-68996335D01*
X159717927Y-69089310D01*
X159717925Y-69089312D01*
X159717924Y-69089312D01*
X159584312Y-69222924D01*
X159584312Y-69222925D01*
X159584310Y-69222927D01*
X159570863Y-69241435D01*
X159473240Y-69375800D01*
X159387454Y-69544163D01*
X159329059Y-69723881D01*
X159299500Y-69910513D01*
X122410792Y-69910513D01*
X122400500Y-69892686D01*
X122307314Y-69799500D01*
X122250250Y-69766554D01*
X122193187Y-69733608D01*
X122129539Y-69716554D01*
X122065892Y-69699500D01*
X121934108Y-69699500D01*
X121806812Y-69733608D01*
X121692686Y-69799500D01*
X121692683Y-69799502D01*
X121599498Y-69892687D01*
X121598370Y-69894158D01*
X121597102Y-69895083D01*
X121593753Y-69898433D01*
X121593230Y-69897910D01*
X121541940Y-69935356D01*
X121472193Y-69939506D01*
X121411275Y-69905289D01*
X121401630Y-69894158D01*
X121400501Y-69892687D01*
X121307316Y-69799502D01*
X121307314Y-69799500D01*
X121250250Y-69766554D01*
X121193187Y-69733608D01*
X121129539Y-69716554D01*
X121065892Y-69699500D01*
X120934108Y-69699500D01*
X120806812Y-69733608D01*
X120692686Y-69799500D01*
X120692683Y-69799502D01*
X120599502Y-69892683D01*
X120599500Y-69892686D01*
X120533608Y-70006812D01*
X120524582Y-70040499D01*
X120499500Y-70134108D01*
X110458316Y-70134108D01*
X110308568Y-69874736D01*
X110125784Y-69636528D01*
X110125779Y-69636522D01*
X109918099Y-69428842D01*
X110959500Y-69428842D01*
X110959500Y-69571157D01*
X110996334Y-69708624D01*
X110996335Y-69708627D01*
X111067489Y-69831871D01*
X111067491Y-69831874D01*
X111067492Y-69831875D01*
X111168125Y-69932508D01*
X111168126Y-69932509D01*
X111168128Y-69932510D01*
X111180246Y-69939506D01*
X111291375Y-70003666D01*
X111428842Y-70040500D01*
X111428844Y-70040500D01*
X111571156Y-70040500D01*
X111571158Y-70040500D01*
X111708625Y-70003666D01*
X111831875Y-69932508D01*
X111932508Y-69831875D01*
X112003666Y-69708625D01*
X112040500Y-69571158D01*
X112040500Y-69428842D01*
X112459500Y-69428842D01*
X112459500Y-69571157D01*
X112496334Y-69708624D01*
X112496335Y-69708627D01*
X112567489Y-69831871D01*
X112567491Y-69831874D01*
X112567492Y-69831875D01*
X112668125Y-69932508D01*
X112668126Y-69932509D01*
X112668128Y-69932510D01*
X112680246Y-69939506D01*
X112791375Y-70003666D01*
X112928842Y-70040500D01*
X112928844Y-70040500D01*
X113071156Y-70040500D01*
X113071158Y-70040500D01*
X113208625Y-70003666D01*
X113331875Y-69932508D01*
X113432508Y-69831875D01*
X113503666Y-69708625D01*
X113540500Y-69571158D01*
X113540500Y-69428842D01*
X113503666Y-69291375D01*
X113432508Y-69168125D01*
X113331875Y-69067492D01*
X113331874Y-69067491D01*
X113331871Y-69067489D01*
X113208627Y-68996335D01*
X113208626Y-68996334D01*
X113208625Y-68996334D01*
X113071158Y-68959500D01*
X112928842Y-68959500D01*
X112791375Y-68996334D01*
X112791372Y-68996335D01*
X112668128Y-69067489D01*
X112668123Y-69067493D01*
X112567493Y-69168123D01*
X112567489Y-69168128D01*
X112496335Y-69291372D01*
X112496334Y-69291375D01*
X112459500Y-69428842D01*
X112040500Y-69428842D01*
X112003666Y-69291375D01*
X111932508Y-69168125D01*
X111831875Y-69067492D01*
X111831874Y-69067491D01*
X111831871Y-69067489D01*
X111708627Y-68996335D01*
X111708626Y-68996334D01*
X111708625Y-68996334D01*
X111571158Y-68959500D01*
X111428842Y-68959500D01*
X111291375Y-68996334D01*
X111291372Y-68996335D01*
X111168128Y-69067489D01*
X111168123Y-69067493D01*
X111067493Y-69168123D01*
X111067489Y-69168128D01*
X110996335Y-69291372D01*
X110996334Y-69291375D01*
X110959500Y-69428842D01*
X109918099Y-69428842D01*
X109913477Y-69424220D01*
X109913470Y-69424214D01*
X109675268Y-69241435D01*
X109675267Y-69241434D01*
X109675264Y-69241432D01*
X109415236Y-69091305D01*
X109410424Y-69089312D01*
X109185959Y-68996335D01*
X109137837Y-68976402D01*
X109137835Y-68976401D01*
X109137834Y-68976401D01*
X109051671Y-68953314D01*
X108847813Y-68898691D01*
X108847807Y-68898690D01*
X108847802Y-68898689D01*
X108550137Y-68859501D01*
X108550132Y-68859500D01*
X108550127Y-68859500D01*
X108249873Y-68859500D01*
X108249867Y-68859500D01*
X108249862Y-68859501D01*
X107952197Y-68898689D01*
X107952190Y-68898690D01*
X107952187Y-68898691D01*
X107866021Y-68921778D01*
X107662165Y-68976401D01*
X107384770Y-69091302D01*
X107384761Y-69091306D01*
X107124731Y-69241435D01*
X106886529Y-69424214D01*
X106886522Y-69424220D01*
X106674220Y-69636522D01*
X106674214Y-69636529D01*
X106491435Y-69874731D01*
X106341306Y-70134761D01*
X106341302Y-70134770D01*
X106226401Y-70412165D01*
X106187683Y-70556666D01*
X106164461Y-70643334D01*
X106148692Y-70702184D01*
X106148689Y-70702197D01*
X106109501Y-70999862D01*
X106109500Y-70999879D01*
X100070500Y-70999879D01*
X100070500Y-67328842D01*
X125659500Y-67328842D01*
X125659500Y-67471158D01*
X125684396Y-67564069D01*
X125696334Y-67608624D01*
X125696335Y-67608627D01*
X125767489Y-67731871D01*
X125767491Y-67731874D01*
X125767492Y-67731875D01*
X125868125Y-67832508D01*
X125991375Y-67903666D01*
X126128842Y-67940500D01*
X126128844Y-67940500D01*
X126271156Y-67940500D01*
X126271158Y-67940500D01*
X126408625Y-67903666D01*
X126531875Y-67832508D01*
X126612319Y-67752064D01*
X126673642Y-67718579D01*
X126743334Y-67723563D01*
X126787681Y-67752064D01*
X126868125Y-67832508D01*
X126991375Y-67903666D01*
X127128842Y-67940500D01*
X127128844Y-67940500D01*
X127271156Y-67940500D01*
X127271158Y-67940500D01*
X127408625Y-67903666D01*
X127531875Y-67832508D01*
X127612319Y-67752064D01*
X127673642Y-67718579D01*
X127743334Y-67723563D01*
X127787681Y-67752064D01*
X127868125Y-67832508D01*
X127991375Y-67903666D01*
X128128842Y-67940500D01*
X128128844Y-67940500D01*
X128271156Y-67940500D01*
X128271158Y-67940500D01*
X128408625Y-67903666D01*
X128531875Y-67832508D01*
X128612319Y-67752064D01*
X128673642Y-67718579D01*
X128743334Y-67723563D01*
X128787681Y-67752064D01*
X128868125Y-67832508D01*
X128991375Y-67903666D01*
X129128842Y-67940500D01*
X129128844Y-67940500D01*
X129271156Y-67940500D01*
X129271158Y-67940500D01*
X129408625Y-67903666D01*
X129531875Y-67832508D01*
X129632508Y-67731875D01*
X129703666Y-67608625D01*
X129715604Y-67564071D01*
X153149499Y-67564071D01*
X153174497Y-67689738D01*
X153174499Y-67689744D01*
X153223533Y-67808124D01*
X153223538Y-67808133D01*
X153294723Y-67914668D01*
X153294726Y-67914672D01*
X153385327Y-68005273D01*
X153385331Y-68005276D01*
X153491866Y-68076461D01*
X153491872Y-68076464D01*
X153491873Y-68076465D01*
X153610256Y-68125501D01*
X153610260Y-68125501D01*
X153610261Y-68125502D01*
X153735928Y-68150500D01*
X153735931Y-68150500D01*
X153864071Y-68150500D01*
X153948615Y-68133682D01*
X153989744Y-68125501D01*
X154108127Y-68076465D01*
X154214669Y-68005276D01*
X154305276Y-67914669D01*
X154376465Y-67808127D01*
X154425501Y-67689744D01*
X154450500Y-67564069D01*
X154450500Y-67435931D01*
X154450500Y-67435928D01*
X154436206Y-67364071D01*
X155849499Y-67364071D01*
X155874497Y-67489738D01*
X155874499Y-67489744D01*
X155923533Y-67608124D01*
X155923538Y-67608133D01*
X155994723Y-67714668D01*
X155994726Y-67714672D01*
X156085327Y-67805273D01*
X156085331Y-67805276D01*
X156191866Y-67876461D01*
X156191872Y-67876464D01*
X156191873Y-67876465D01*
X156310256Y-67925501D01*
X156310260Y-67925501D01*
X156310261Y-67925502D01*
X156435928Y-67950500D01*
X156435931Y-67950500D01*
X156564071Y-67950500D01*
X156648615Y-67933682D01*
X156689744Y-67925501D01*
X156808127Y-67876465D01*
X156914669Y-67805276D01*
X157005276Y-67714669D01*
X157076465Y-67608127D01*
X157125501Y-67489744D01*
X157150500Y-67364069D01*
X157150500Y-67235931D01*
X157150500Y-67235928D01*
X157125502Y-67110261D01*
X157125501Y-67110260D01*
X157125501Y-67110256D01*
X157076465Y-66991873D01*
X157076464Y-66991872D01*
X157076461Y-66991866D01*
X157005276Y-66885331D01*
X157005273Y-66885327D01*
X156914672Y-66794726D01*
X156914668Y-66794723D01*
X156808133Y-66723538D01*
X156808124Y-66723533D01*
X156689744Y-66674499D01*
X156689738Y-66674497D01*
X156564071Y-66649500D01*
X156564069Y-66649500D01*
X156435931Y-66649500D01*
X156435929Y-66649500D01*
X156310261Y-66674497D01*
X156310255Y-66674499D01*
X156191875Y-66723533D01*
X156191866Y-66723538D01*
X156085331Y-66794723D01*
X156085327Y-66794726D01*
X155994726Y-66885327D01*
X155994723Y-66885331D01*
X155923538Y-66991866D01*
X155923533Y-66991875D01*
X155874499Y-67110255D01*
X155874497Y-67110261D01*
X155849500Y-67235928D01*
X155849500Y-67235931D01*
X155849500Y-67364069D01*
X155849500Y-67364071D01*
X155849499Y-67364071D01*
X154436206Y-67364071D01*
X154425502Y-67310261D01*
X154425501Y-67310260D01*
X154425501Y-67310256D01*
X154425499Y-67310251D01*
X154411847Y-67277291D01*
X154376466Y-67191876D01*
X154376466Y-67191875D01*
X154376465Y-67191873D01*
X154376463Y-67191870D01*
X154376461Y-67191866D01*
X154305276Y-67085331D01*
X154305273Y-67085327D01*
X154214672Y-66994726D01*
X154214668Y-66994723D01*
X154108133Y-66923538D01*
X154108124Y-66923533D01*
X153989744Y-66874499D01*
X153989738Y-66874497D01*
X153864071Y-66849500D01*
X153864069Y-66849500D01*
X153735931Y-66849500D01*
X153735929Y-66849500D01*
X153610261Y-66874497D01*
X153610255Y-66874499D01*
X153491875Y-66923533D01*
X153491866Y-66923538D01*
X153385331Y-66994723D01*
X153385327Y-66994726D01*
X153294726Y-67085327D01*
X153294723Y-67085331D01*
X153223538Y-67191866D01*
X153223533Y-67191875D01*
X153174499Y-67310255D01*
X153174497Y-67310261D01*
X153149500Y-67435928D01*
X153149500Y-67435931D01*
X153149500Y-67564069D01*
X153149500Y-67564071D01*
X153149499Y-67564071D01*
X129715604Y-67564071D01*
X129740500Y-67471158D01*
X129740500Y-67328842D01*
X129703666Y-67191375D01*
X129642440Y-67085327D01*
X129632510Y-67068128D01*
X129632506Y-67068123D01*
X129531876Y-66967493D01*
X129531871Y-66967489D01*
X129408627Y-66896335D01*
X129408626Y-66896334D01*
X129408625Y-66896334D01*
X129271158Y-66859500D01*
X129128842Y-66859500D01*
X128991375Y-66896334D01*
X128991372Y-66896335D01*
X128868128Y-66967489D01*
X128868123Y-66967493D01*
X128787681Y-67047936D01*
X128726358Y-67081421D01*
X128656666Y-67076437D01*
X128612319Y-67047936D01*
X128531876Y-66967493D01*
X128531871Y-66967489D01*
X128408627Y-66896335D01*
X128408626Y-66896334D01*
X128408625Y-66896334D01*
X128271158Y-66859500D01*
X128128842Y-66859500D01*
X127991375Y-66896334D01*
X127991372Y-66896335D01*
X127868128Y-66967489D01*
X127868123Y-66967493D01*
X127787681Y-67047936D01*
X127726358Y-67081421D01*
X127656666Y-67076437D01*
X127612319Y-67047936D01*
X127531876Y-66967493D01*
X127531871Y-66967489D01*
X127408627Y-66896335D01*
X127408626Y-66896334D01*
X127408625Y-66896334D01*
X127271158Y-66859500D01*
X127128842Y-66859500D01*
X126991375Y-66896334D01*
X126991372Y-66896335D01*
X126868128Y-66967489D01*
X126868123Y-66967493D01*
X126787681Y-67047936D01*
X126726358Y-67081421D01*
X126656666Y-67076437D01*
X126612319Y-67047936D01*
X126531876Y-66967493D01*
X126531871Y-66967489D01*
X126408627Y-66896335D01*
X126408626Y-66896334D01*
X126408625Y-66896334D01*
X126271158Y-66859500D01*
X126128842Y-66859500D01*
X125991375Y-66896334D01*
X125991372Y-66896335D01*
X125868128Y-66967489D01*
X125868123Y-66967493D01*
X125767493Y-67068123D01*
X125767489Y-67068128D01*
X125696335Y-67191372D01*
X125696334Y-67191375D01*
X125659500Y-67328842D01*
X100070500Y-67328842D01*
X100070500Y-64328842D01*
X132659500Y-64328842D01*
X132659500Y-64471158D01*
X132684884Y-64565890D01*
X132696334Y-64608624D01*
X132696335Y-64608627D01*
X132767489Y-64731871D01*
X132767491Y-64731874D01*
X132767492Y-64731875D01*
X132868125Y-64832508D01*
X132991375Y-64903666D01*
X133128842Y-64940500D01*
X133128844Y-64940500D01*
X133271156Y-64940500D01*
X133271158Y-64940500D01*
X133408625Y-64903666D01*
X133531875Y-64832508D01*
X133632508Y-64731875D01*
X133703666Y-64608625D01*
X133740500Y-64471158D01*
X133740500Y-64434108D01*
X137999500Y-64434108D01*
X137999500Y-64565891D01*
X138033608Y-64693187D01*
X138055943Y-64731871D01*
X138099500Y-64807314D01*
X138192686Y-64900500D01*
X138306814Y-64966392D01*
X138434108Y-65000500D01*
X138434110Y-65000500D01*
X138565890Y-65000500D01*
X138565892Y-65000500D01*
X138693186Y-64966392D01*
X138807314Y-64900500D01*
X138900500Y-64807314D01*
X138966392Y-64693186D01*
X139000500Y-64565892D01*
X139000500Y-64434108D01*
X140749500Y-64434108D01*
X140749500Y-64565891D01*
X140783608Y-64693187D01*
X140805943Y-64731871D01*
X140849500Y-64807314D01*
X140942686Y-64900500D01*
X141056814Y-64966392D01*
X141184108Y-65000500D01*
X141184110Y-65000500D01*
X141315890Y-65000500D01*
X141315892Y-65000500D01*
X141443186Y-64966392D01*
X141557314Y-64900500D01*
X141650500Y-64807314D01*
X141716392Y-64693186D01*
X141750500Y-64565892D01*
X141750500Y-64434108D01*
X141716392Y-64306814D01*
X141650500Y-64192686D01*
X141557314Y-64099500D01*
X141500250Y-64066554D01*
X141443187Y-64033608D01*
X141379539Y-64016554D01*
X141315892Y-63999500D01*
X141184108Y-63999500D01*
X141056812Y-64033608D01*
X140942686Y-64099500D01*
X140942683Y-64099502D01*
X140849502Y-64192683D01*
X140849500Y-64192686D01*
X140783608Y-64306812D01*
X140749500Y-64434108D01*
X139000500Y-64434108D01*
X138966392Y-64306814D01*
X138900500Y-64192686D01*
X138807314Y-64099500D01*
X138750250Y-64066554D01*
X138693187Y-64033608D01*
X138629539Y-64016554D01*
X138565892Y-63999500D01*
X138434108Y-63999500D01*
X138306812Y-64033608D01*
X138192686Y-64099500D01*
X138192683Y-64099502D01*
X138099502Y-64192683D01*
X138099500Y-64192686D01*
X138033608Y-64306812D01*
X137999500Y-64434108D01*
X133740500Y-64434108D01*
X133740500Y-64328842D01*
X133703666Y-64191375D01*
X133668087Y-64129750D01*
X133632510Y-64068128D01*
X133632506Y-64068123D01*
X133531876Y-63967493D01*
X133531871Y-63967489D01*
X133408627Y-63896335D01*
X133408626Y-63896334D01*
X133408625Y-63896334D01*
X133271158Y-63859500D01*
X133128842Y-63859500D01*
X132991375Y-63896334D01*
X132991372Y-63896335D01*
X132868128Y-63967489D01*
X132868123Y-63967493D01*
X132767493Y-64068123D01*
X132767489Y-64068128D01*
X132696335Y-64191372D01*
X132696334Y-64191375D01*
X132659500Y-64328842D01*
X100070500Y-64328842D01*
X100070500Y-62334108D01*
X137799500Y-62334108D01*
X137799500Y-62465891D01*
X137833608Y-62593187D01*
X137866554Y-62650250D01*
X137899500Y-62707314D01*
X137992686Y-62800500D01*
X138106814Y-62866392D01*
X138234108Y-62900500D01*
X138234110Y-62900500D01*
X138365890Y-62900500D01*
X138365892Y-62900500D01*
X138493186Y-62866392D01*
X138607314Y-62800500D01*
X138700500Y-62707314D01*
X138766392Y-62593186D01*
X138800500Y-62465892D01*
X138800500Y-62370513D01*
X159299500Y-62370513D01*
X159299500Y-62559486D01*
X159329059Y-62746118D01*
X159387454Y-62925836D01*
X159473240Y-63094199D01*
X159584310Y-63247073D01*
X159717927Y-63380690D01*
X159870801Y-63491760D01*
X159967207Y-63540881D01*
X160024385Y-63570015D01*
X160075181Y-63617990D01*
X160091976Y-63685811D01*
X160069439Y-63751946D01*
X160014723Y-63795397D01*
X159968090Y-63804500D01*
X159695730Y-63804500D01*
X159665300Y-63807353D01*
X159665298Y-63807353D01*
X159537119Y-63852206D01*
X159537117Y-63852207D01*
X159427850Y-63932850D01*
X159347207Y-64042117D01*
X159347206Y-64042119D01*
X159302353Y-64170298D01*
X159302353Y-64170300D01*
X159299500Y-64200730D01*
X159299500Y-65809269D01*
X159302353Y-65839699D01*
X159302353Y-65839701D01*
X159347206Y-65967880D01*
X159347207Y-65967882D01*
X159427850Y-66077150D01*
X159537118Y-66157793D01*
X159579845Y-66172744D01*
X159665299Y-66202646D01*
X159695730Y-66205500D01*
X159695734Y-66205500D01*
X161304270Y-66205500D01*
X161334699Y-66202646D01*
X161334701Y-66202646D01*
X161398790Y-66180219D01*
X161462882Y-66157793D01*
X161572150Y-66077150D01*
X161652793Y-65967882D01*
X161675219Y-65903790D01*
X161697646Y-65839701D01*
X161697646Y-65839699D01*
X161700500Y-65809269D01*
X161700500Y-64200730D01*
X161697646Y-64170300D01*
X161697646Y-64170298D01*
X161661893Y-64068125D01*
X161652793Y-64042118D01*
X161572150Y-63932850D01*
X161462882Y-63852207D01*
X161462880Y-63852206D01*
X161334700Y-63807353D01*
X161304270Y-63804500D01*
X161304266Y-63804500D01*
X161031910Y-63804500D01*
X160964871Y-63784815D01*
X160919116Y-63732011D01*
X160909172Y-63662853D01*
X160938197Y-63599297D01*
X160975615Y-63570015D01*
X161010224Y-63552380D01*
X161129199Y-63491760D01*
X161282073Y-63380690D01*
X161415690Y-63247073D01*
X161526760Y-63094199D01*
X161612547Y-62925832D01*
X161670940Y-62746118D01*
X161695162Y-62593186D01*
X161700500Y-62559486D01*
X161700500Y-62370513D01*
X161670940Y-62183881D01*
X161612545Y-62004163D01*
X161526759Y-61835800D01*
X161415690Y-61682927D01*
X161282073Y-61549310D01*
X161129199Y-61438240D01*
X160960836Y-61352454D01*
X160781118Y-61294059D01*
X160594486Y-61264500D01*
X160594481Y-61264500D01*
X160405519Y-61264500D01*
X160405514Y-61264500D01*
X160218881Y-61294059D01*
X160039163Y-61352454D01*
X159870800Y-61438240D01*
X159783579Y-61501610D01*
X159717927Y-61549310D01*
X159717925Y-61549312D01*
X159717924Y-61549312D01*
X159584312Y-61682924D01*
X159584312Y-61682925D01*
X159584310Y-61682927D01*
X159536610Y-61748579D01*
X159473240Y-61835800D01*
X159387454Y-62004163D01*
X159329059Y-62183881D01*
X159299500Y-62370513D01*
X138800500Y-62370513D01*
X138800500Y-62334108D01*
X138766392Y-62206814D01*
X138700500Y-62092686D01*
X138607314Y-61999500D01*
X138550250Y-61966554D01*
X138493187Y-61933608D01*
X138429539Y-61916554D01*
X138365892Y-61899500D01*
X138234108Y-61899500D01*
X138106812Y-61933608D01*
X137992686Y-61999500D01*
X137992683Y-61999502D01*
X137899502Y-62092683D01*
X137899500Y-62092686D01*
X137833608Y-62206812D01*
X137799500Y-62334108D01*
X100070500Y-62334108D01*
X100070500Y-60330247D01*
X101199500Y-60330247D01*
X101199500Y-61269752D01*
X101211131Y-61328229D01*
X101211132Y-61328230D01*
X101255447Y-61394552D01*
X101321769Y-61438867D01*
X101321770Y-61438868D01*
X101380247Y-61450499D01*
X101380250Y-61450500D01*
X101380252Y-61450500D01*
X103419750Y-61450500D01*
X103419751Y-61450499D01*
X103434568Y-61447552D01*
X103478229Y-61438868D01*
X103478229Y-61438867D01*
X103478231Y-61438867D01*
X103544552Y-61394552D01*
X103588867Y-61328231D01*
X103588867Y-61328229D01*
X103588868Y-61328229D01*
X103600499Y-61269752D01*
X103600500Y-61269750D01*
X103600500Y-60330249D01*
X103600499Y-60330247D01*
X103588868Y-60271770D01*
X103588867Y-60271769D01*
X103544552Y-60205447D01*
X103478230Y-60161132D01*
X103478229Y-60161131D01*
X103419752Y-60149500D01*
X103419748Y-60149500D01*
X101380252Y-60149500D01*
X101380247Y-60149500D01*
X101321770Y-60161131D01*
X101321769Y-60161132D01*
X101255447Y-60205447D01*
X101211132Y-60271769D01*
X101211131Y-60271770D01*
X101199500Y-60330247D01*
X100070500Y-60330247D01*
X100070500Y-59678842D01*
X108472000Y-59678842D01*
X108472000Y-59821158D01*
X108504988Y-59944269D01*
X108508834Y-59958624D01*
X108508835Y-59958627D01*
X108579989Y-60081871D01*
X108579991Y-60081874D01*
X108579992Y-60081875D01*
X108680625Y-60182508D01*
X108803875Y-60253666D01*
X108941342Y-60290500D01*
X108941344Y-60290500D01*
X109083656Y-60290500D01*
X109083658Y-60290500D01*
X109213004Y-60255842D01*
X142559500Y-60255842D01*
X142559500Y-60398157D01*
X142596334Y-60535624D01*
X142596335Y-60535627D01*
X142667489Y-60658871D01*
X142667491Y-60658874D01*
X142667492Y-60658875D01*
X142768125Y-60759508D01*
X142891375Y-60830666D01*
X143028842Y-60867500D01*
X143028844Y-60867500D01*
X143171156Y-60867500D01*
X143171158Y-60867500D01*
X143308625Y-60830666D01*
X143431875Y-60759508D01*
X143532508Y-60658875D01*
X143547600Y-60632733D01*
X143598167Y-60584518D01*
X143666774Y-60571294D01*
X143731639Y-60597262D01*
X143742669Y-60607052D01*
X143818125Y-60682508D01*
X143941375Y-60753666D01*
X144078842Y-60790500D01*
X144078844Y-60790500D01*
X144221156Y-60790500D01*
X144221158Y-60790500D01*
X144358625Y-60753666D01*
X144481875Y-60682508D01*
X144582508Y-60581875D01*
X144653666Y-60458625D01*
X144690500Y-60321158D01*
X144690500Y-60178842D01*
X144653666Y-60041375D01*
X144582508Y-59918125D01*
X144481875Y-59817492D01*
X144481874Y-59817491D01*
X144481871Y-59817489D01*
X144358627Y-59746335D01*
X144358626Y-59746334D01*
X144358625Y-59746334D01*
X144221158Y-59709500D01*
X144078842Y-59709500D01*
X143941375Y-59746334D01*
X143941372Y-59746335D01*
X143818128Y-59817489D01*
X143818123Y-59817493D01*
X143717493Y-59918123D01*
X143717491Y-59918126D01*
X143702397Y-59944269D01*
X143651828Y-59992483D01*
X143583221Y-60005704D01*
X143518357Y-59979735D01*
X143507330Y-59969947D01*
X143431876Y-59894493D01*
X143431871Y-59894489D01*
X143308627Y-59823335D01*
X143308626Y-59823334D01*
X143308625Y-59823334D01*
X143171158Y-59786500D01*
X143028842Y-59786500D01*
X142891375Y-59823334D01*
X142891372Y-59823335D01*
X142768128Y-59894489D01*
X142768123Y-59894493D01*
X142667493Y-59995123D01*
X142667489Y-59995128D01*
X142596335Y-60118372D01*
X142596334Y-60118375D01*
X142559500Y-60255842D01*
X109213004Y-60255842D01*
X109221125Y-60253666D01*
X109344375Y-60182508D01*
X109445008Y-60081875D01*
X109516166Y-59958625D01*
X109553000Y-59821158D01*
X109553000Y-59678842D01*
X109516166Y-59541375D01*
X109480587Y-59479750D01*
X109445010Y-59418128D01*
X109445006Y-59418123D01*
X109344376Y-59317493D01*
X109344371Y-59317489D01*
X109285273Y-59283369D01*
X109285272Y-59283369D01*
X109221125Y-59246334D01*
X109083658Y-59209500D01*
X108941342Y-59209500D01*
X108803875Y-59246334D01*
X108803872Y-59246335D01*
X108680628Y-59317489D01*
X108680623Y-59317493D01*
X108579993Y-59418123D01*
X108579989Y-59418128D01*
X108508835Y-59541372D01*
X108508834Y-59541375D01*
X108472000Y-59678842D01*
X100070500Y-59678842D01*
X100070500Y-59184108D01*
X160949500Y-59184108D01*
X160949500Y-59315891D01*
X160983608Y-59443187D01*
X161016554Y-59500250D01*
X161049500Y-59557314D01*
X161142686Y-59650500D01*
X161256814Y-59716392D01*
X161384108Y-59750500D01*
X161384110Y-59750500D01*
X161515890Y-59750500D01*
X161515892Y-59750500D01*
X161643186Y-59716392D01*
X161757314Y-59650500D01*
X161850500Y-59557314D01*
X161916392Y-59443186D01*
X161950500Y-59315892D01*
X161950500Y-59184108D01*
X161916392Y-59056814D01*
X161850500Y-58942686D01*
X161757314Y-58849500D01*
X161700250Y-58816554D01*
X161643187Y-58783608D01*
X161579539Y-58766554D01*
X161515892Y-58749500D01*
X161384108Y-58749500D01*
X161256812Y-58783608D01*
X161142686Y-58849500D01*
X161142683Y-58849502D01*
X161049502Y-58942683D01*
X161049500Y-58942686D01*
X160983608Y-59056812D01*
X160949500Y-59184108D01*
X100070500Y-59184108D01*
X100070500Y-58134108D01*
X131699500Y-58134108D01*
X131699500Y-58265891D01*
X131733608Y-58393187D01*
X131766554Y-58450250D01*
X131799500Y-58507314D01*
X131892686Y-58600500D01*
X132006814Y-58666392D01*
X132134108Y-58700500D01*
X132134110Y-58700500D01*
X132265890Y-58700500D01*
X132265892Y-58700500D01*
X132393186Y-58666392D01*
X132507314Y-58600500D01*
X132600500Y-58507314D01*
X132666392Y-58393186D01*
X132700500Y-58265892D01*
X132700500Y-58134108D01*
X132666392Y-58006814D01*
X132600500Y-57892686D01*
X132507314Y-57799500D01*
X132450250Y-57766554D01*
X132393187Y-57733608D01*
X132329539Y-57716554D01*
X132265892Y-57699500D01*
X132134108Y-57699500D01*
X132006812Y-57733608D01*
X131892686Y-57799500D01*
X131892683Y-57799502D01*
X131799502Y-57892683D01*
X131799500Y-57892686D01*
X131733608Y-58006812D01*
X131699500Y-58134108D01*
X100070500Y-58134108D01*
X100070500Y-56534108D01*
X118499500Y-56534108D01*
X118499500Y-56665891D01*
X118533608Y-56793187D01*
X118559480Y-56837997D01*
X118599500Y-56907314D01*
X118692686Y-57000500D01*
X118806814Y-57066392D01*
X118934108Y-57100500D01*
X118934110Y-57100500D01*
X119065890Y-57100500D01*
X119065892Y-57100500D01*
X119193186Y-57066392D01*
X119307314Y-57000500D01*
X119400500Y-56907314D01*
X119466392Y-56793186D01*
X119500500Y-56665892D01*
X119500500Y-56534108D01*
X127899500Y-56534108D01*
X127899500Y-56665891D01*
X127933608Y-56793187D01*
X127959480Y-56837997D01*
X127999500Y-56907314D01*
X128092686Y-57000500D01*
X128206814Y-57066392D01*
X128334108Y-57100500D01*
X128334110Y-57100500D01*
X128465890Y-57100500D01*
X128465892Y-57100500D01*
X128593186Y-57066392D01*
X128707314Y-57000500D01*
X128800500Y-56907314D01*
X128866392Y-56793186D01*
X128900500Y-56665892D01*
X128900500Y-56534108D01*
X128866392Y-56406814D01*
X128846066Y-56371608D01*
X135462000Y-56371608D01*
X135462000Y-56503391D01*
X135496108Y-56630687D01*
X135516434Y-56665892D01*
X135562000Y-56744814D01*
X135655186Y-56838000D01*
X135769314Y-56903892D01*
X135896608Y-56938000D01*
X135896610Y-56938000D01*
X136028390Y-56938000D01*
X136028392Y-56938000D01*
X136155686Y-56903892D01*
X136269814Y-56838000D01*
X136363000Y-56744814D01*
X136428892Y-56630686D01*
X136463000Y-56503392D01*
X136463000Y-56371608D01*
X136428892Y-56244314D01*
X136363000Y-56130186D01*
X136269814Y-56037000D01*
X136212750Y-56004054D01*
X136155687Y-55971108D01*
X136092039Y-55954054D01*
X136028392Y-55937000D01*
X135896608Y-55937000D01*
X135769312Y-55971108D01*
X135655186Y-56037000D01*
X135655183Y-56037002D01*
X135562002Y-56130183D01*
X135562000Y-56130186D01*
X135496108Y-56244312D01*
X135462000Y-56371608D01*
X128846066Y-56371608D01*
X128800500Y-56292686D01*
X128707314Y-56199500D01*
X128650250Y-56166554D01*
X128593187Y-56133608D01*
X128529539Y-56116554D01*
X128465892Y-56099500D01*
X128334108Y-56099500D01*
X128206812Y-56133608D01*
X128092686Y-56199500D01*
X128092683Y-56199502D01*
X127999502Y-56292683D01*
X127999500Y-56292686D01*
X127933608Y-56406812D01*
X127899500Y-56534108D01*
X119500500Y-56534108D01*
X119466392Y-56406814D01*
X119400500Y-56292686D01*
X119307314Y-56199500D01*
X119250250Y-56166554D01*
X119193187Y-56133608D01*
X119129539Y-56116554D01*
X119065892Y-56099500D01*
X118934108Y-56099500D01*
X118806812Y-56133608D01*
X118692686Y-56199500D01*
X118692683Y-56199502D01*
X118599502Y-56292683D01*
X118599500Y-56292686D01*
X118533608Y-56406812D01*
X118499500Y-56534108D01*
X100070500Y-56534108D01*
X100070500Y-54734108D01*
X109499500Y-54734108D01*
X109499500Y-54865891D01*
X109533608Y-54993187D01*
X109566554Y-55050250D01*
X109599500Y-55107314D01*
X109692686Y-55200500D01*
X109806814Y-55266392D01*
X109934108Y-55300500D01*
X109934110Y-55300500D01*
X110065890Y-55300500D01*
X110065892Y-55300500D01*
X110193186Y-55266392D01*
X110307314Y-55200500D01*
X110400500Y-55107314D01*
X110466392Y-54993186D01*
X110500500Y-54865892D01*
X110500500Y-54734108D01*
X110466392Y-54606814D01*
X110442764Y-54565890D01*
X110400503Y-54492691D01*
X110400502Y-54492690D01*
X110400500Y-54492686D01*
X110341922Y-54434108D01*
X163599500Y-54434108D01*
X163599500Y-54565891D01*
X163633608Y-54693187D01*
X163666554Y-54750250D01*
X163699500Y-54807314D01*
X163792686Y-54900500D01*
X163906814Y-54966392D01*
X164034108Y-55000500D01*
X164034110Y-55000500D01*
X164165890Y-55000500D01*
X164165892Y-55000500D01*
X164293186Y-54966392D01*
X164407314Y-54900500D01*
X164500500Y-54807314D01*
X164566392Y-54693186D01*
X164600500Y-54565892D01*
X164600500Y-54434108D01*
X164566392Y-54306814D01*
X164500500Y-54192686D01*
X164407314Y-54099500D01*
X164350250Y-54066554D01*
X164293187Y-54033608D01*
X164229539Y-54016554D01*
X164165892Y-53999500D01*
X164034108Y-53999500D01*
X163906812Y-54033608D01*
X163792686Y-54099500D01*
X163792683Y-54099502D01*
X163699502Y-54192683D01*
X163699500Y-54192686D01*
X163633608Y-54306812D01*
X163599500Y-54434108D01*
X110341922Y-54434108D01*
X110307314Y-54399500D01*
X110250250Y-54366554D01*
X110193187Y-54333608D01*
X110093188Y-54306814D01*
X110065892Y-54299500D01*
X109934108Y-54299500D01*
X109806812Y-54333608D01*
X109692686Y-54399500D01*
X109692683Y-54399502D01*
X109599502Y-54492683D01*
X109599500Y-54492686D01*
X109533608Y-54606812D01*
X109499500Y-54734108D01*
X100070500Y-54734108D01*
X100070500Y-52734108D01*
X110899500Y-52734108D01*
X110899500Y-52865892D01*
X110916554Y-52929539D01*
X110933608Y-52993187D01*
X110966554Y-53050250D01*
X110999500Y-53107314D01*
X111092686Y-53200500D01*
X111206814Y-53266392D01*
X111334108Y-53300500D01*
X111334110Y-53300500D01*
X111465890Y-53300500D01*
X111465892Y-53300500D01*
X111593186Y-53266392D01*
X111707314Y-53200500D01*
X111800500Y-53107314D01*
X111866392Y-52993186D01*
X111882222Y-52934108D01*
X138949500Y-52934108D01*
X138949500Y-53065892D01*
X138966554Y-53129539D01*
X138983608Y-53193187D01*
X139016554Y-53250250D01*
X139049500Y-53307314D01*
X139142686Y-53400500D01*
X139256814Y-53466392D01*
X139384108Y-53500500D01*
X139384110Y-53500500D01*
X139515890Y-53500500D01*
X139515892Y-53500500D01*
X139643186Y-53466392D01*
X139757314Y-53400500D01*
X139850500Y-53307314D01*
X139916392Y-53193186D01*
X139950500Y-53065892D01*
X139950500Y-52934108D01*
X139916392Y-52806814D01*
X139850500Y-52692686D01*
X139757314Y-52599500D01*
X139700250Y-52566554D01*
X139643187Y-52533608D01*
X139579539Y-52516554D01*
X139515892Y-52499500D01*
X139384108Y-52499500D01*
X139256812Y-52533608D01*
X139142686Y-52599500D01*
X139142683Y-52599502D01*
X139049502Y-52692683D01*
X139049500Y-52692686D01*
X138983608Y-52806812D01*
X138967778Y-52865892D01*
X138949500Y-52934108D01*
X111882222Y-52934108D01*
X111900500Y-52865892D01*
X111900500Y-52734108D01*
X111866392Y-52606814D01*
X111800500Y-52492686D01*
X111707314Y-52399500D01*
X111593186Y-52333608D01*
X111465892Y-52299500D01*
X111334108Y-52299500D01*
X111206812Y-52333608D01*
X111092686Y-52399500D01*
X111092683Y-52399502D01*
X110999502Y-52492683D01*
X110999500Y-52492686D01*
X110933608Y-52606812D01*
X110933473Y-52607316D01*
X110899500Y-52734108D01*
X100070500Y-52734108D01*
X100070500Y-52234108D01*
X140199500Y-52234108D01*
X140199500Y-52365891D01*
X140233608Y-52493187D01*
X140256946Y-52533608D01*
X140299500Y-52607314D01*
X140392686Y-52700500D01*
X140506814Y-52766392D01*
X140634108Y-52800500D01*
X140634110Y-52800500D01*
X140765890Y-52800500D01*
X140765892Y-52800500D01*
X140893186Y-52766392D01*
X141007314Y-52700500D01*
X141100500Y-52607314D01*
X141166392Y-52493186D01*
X141200500Y-52365892D01*
X141200500Y-52234108D01*
X141166392Y-52106814D01*
X141142764Y-52065890D01*
X141100503Y-51992691D01*
X141100502Y-51992690D01*
X141100500Y-51992686D01*
X141041922Y-51934108D01*
X155699500Y-51934108D01*
X155699500Y-52065891D01*
X155733608Y-52193187D01*
X155766554Y-52250250D01*
X155799500Y-52307314D01*
X155892686Y-52400500D01*
X156006814Y-52466392D01*
X156134108Y-52500500D01*
X156134110Y-52500500D01*
X156265890Y-52500500D01*
X156265892Y-52500500D01*
X156393186Y-52466392D01*
X156507314Y-52400500D01*
X156600500Y-52307314D01*
X156666392Y-52193186D01*
X156700500Y-52065892D01*
X156700500Y-51934108D01*
X156666392Y-51806814D01*
X156600500Y-51692686D01*
X156507314Y-51599500D01*
X156450250Y-51566554D01*
X156393187Y-51533608D01*
X156329539Y-51516554D01*
X156265892Y-51499500D01*
X156134108Y-51499500D01*
X156006812Y-51533608D01*
X155892686Y-51599500D01*
X155892683Y-51599502D01*
X155799502Y-51692683D01*
X155799500Y-51692686D01*
X155733608Y-51806812D01*
X155699500Y-51934108D01*
X141041922Y-51934108D01*
X141007314Y-51899500D01*
X140950250Y-51866554D01*
X140893187Y-51833608D01*
X140793188Y-51806814D01*
X140765892Y-51799500D01*
X140634108Y-51799500D01*
X140506812Y-51833608D01*
X140392686Y-51899500D01*
X140392683Y-51899502D01*
X140299502Y-51992683D01*
X140299500Y-51992686D01*
X140233608Y-52106812D01*
X140199500Y-52234108D01*
X100070500Y-52234108D01*
X100070500Y-50934108D01*
X117899500Y-50934108D01*
X117899500Y-51065891D01*
X117933608Y-51193187D01*
X117966554Y-51250250D01*
X117999500Y-51307314D01*
X118092686Y-51400500D01*
X118206814Y-51466392D01*
X118334108Y-51500500D01*
X118334110Y-51500500D01*
X118465890Y-51500500D01*
X118465892Y-51500500D01*
X118593186Y-51466392D01*
X118707314Y-51400500D01*
X118800500Y-51307314D01*
X118866392Y-51193186D01*
X118900500Y-51065892D01*
X118900500Y-50934108D01*
X118866392Y-50806814D01*
X118800500Y-50692686D01*
X118707314Y-50599500D01*
X118650250Y-50566554D01*
X118593187Y-50533608D01*
X118529539Y-50516554D01*
X118465892Y-50499500D01*
X118334108Y-50499500D01*
X118206812Y-50533608D01*
X118092686Y-50599500D01*
X118092683Y-50599502D01*
X117999502Y-50692683D01*
X117999500Y-50692686D01*
X117933608Y-50806812D01*
X117899500Y-50934108D01*
X100070500Y-50934108D01*
X100070500Y-47393713D01*
X102149500Y-47393713D01*
X102149500Y-47606287D01*
X102150042Y-47609710D01*
X102150042Y-47609713D01*
X102182753Y-47816239D01*
X102248444Y-48018414D01*
X102344951Y-48207820D01*
X102469890Y-48379786D01*
X102620213Y-48530109D01*
X102792179Y-48655048D01*
X102792181Y-48655049D01*
X102792184Y-48655051D01*
X102981588Y-48751557D01*
X103183757Y-48817246D01*
X103393713Y-48850500D01*
X103393714Y-48850500D01*
X103606286Y-48850500D01*
X103606287Y-48850500D01*
X103816243Y-48817246D01*
X104018412Y-48751557D01*
X104207816Y-48655051D01*
X104229789Y-48639086D01*
X104379786Y-48530109D01*
X104379788Y-48530106D01*
X104379792Y-48530104D01*
X104530104Y-48379792D01*
X104530106Y-48379788D01*
X104530109Y-48379786D01*
X104655048Y-48207820D01*
X104655047Y-48207820D01*
X104655051Y-48207816D01*
X104751557Y-48018412D01*
X104817246Y-47816243D01*
X104833782Y-47711835D01*
X104836375Y-47701047D01*
X104836108Y-47700983D01*
X104837242Y-47696254D01*
X104837246Y-47696243D01*
X104870500Y-47486287D01*
X104870500Y-47273713D01*
X104837246Y-47063757D01*
X104771557Y-46861588D01*
X104675051Y-46672184D01*
X104675049Y-46672181D01*
X104675048Y-46672179D01*
X104550109Y-46500214D01*
X104550105Y-46500209D01*
X104484004Y-46434108D01*
X113699500Y-46434108D01*
X113699500Y-46565892D01*
X113716554Y-46629539D01*
X113733608Y-46693187D01*
X113760894Y-46740447D01*
X113799500Y-46807314D01*
X113892686Y-46900500D01*
X114006814Y-46966392D01*
X114134108Y-47000500D01*
X114134110Y-47000500D01*
X114265890Y-47000500D01*
X114265892Y-47000500D01*
X114393186Y-46966392D01*
X114507314Y-46900500D01*
X114600500Y-46807314D01*
X114666392Y-46693186D01*
X114700500Y-46565892D01*
X114700500Y-46434108D01*
X115699500Y-46434108D01*
X115699500Y-46565892D01*
X115716554Y-46629539D01*
X115733608Y-46693187D01*
X115760894Y-46740447D01*
X115799500Y-46807314D01*
X115892686Y-46900500D01*
X116006814Y-46966392D01*
X116134108Y-47000500D01*
X116134110Y-47000500D01*
X116265890Y-47000500D01*
X116265892Y-47000500D01*
X116393186Y-46966392D01*
X116507314Y-46900500D01*
X116600500Y-46807314D01*
X116666392Y-46693186D01*
X116700500Y-46565892D01*
X116700500Y-46434108D01*
X117699500Y-46434108D01*
X117699500Y-46565892D01*
X117716554Y-46629539D01*
X117733608Y-46693187D01*
X117760894Y-46740447D01*
X117799500Y-46807314D01*
X117892686Y-46900500D01*
X118006814Y-46966392D01*
X118134108Y-47000500D01*
X118134110Y-47000500D01*
X118265890Y-47000500D01*
X118265892Y-47000500D01*
X118393186Y-46966392D01*
X118507314Y-46900500D01*
X118600500Y-46807314D01*
X118666392Y-46693186D01*
X118700500Y-46565892D01*
X118700500Y-46434108D01*
X119699500Y-46434108D01*
X119699500Y-46565892D01*
X119716554Y-46629539D01*
X119733608Y-46693187D01*
X119760894Y-46740447D01*
X119799500Y-46807314D01*
X119892686Y-46900500D01*
X120006814Y-46966392D01*
X120134108Y-47000500D01*
X120134110Y-47000500D01*
X120265890Y-47000500D01*
X120265892Y-47000500D01*
X120393186Y-46966392D01*
X120507314Y-46900500D01*
X120600500Y-46807314D01*
X120666392Y-46693186D01*
X120700500Y-46565892D01*
X120700500Y-46434108D01*
X121699500Y-46434108D01*
X121699500Y-46565892D01*
X121716554Y-46629539D01*
X121733608Y-46693187D01*
X121760894Y-46740447D01*
X121799500Y-46807314D01*
X121892686Y-46900500D01*
X122006814Y-46966392D01*
X122134108Y-47000500D01*
X122134110Y-47000500D01*
X122265890Y-47000500D01*
X122265892Y-47000500D01*
X122393186Y-46966392D01*
X122507314Y-46900500D01*
X122600500Y-46807314D01*
X122666392Y-46693186D01*
X122700500Y-46565892D01*
X122700500Y-46434108D01*
X123699500Y-46434108D01*
X123699500Y-46565892D01*
X123716554Y-46629539D01*
X123733608Y-46693187D01*
X123760894Y-46740447D01*
X123799500Y-46807314D01*
X123892686Y-46900500D01*
X124006814Y-46966392D01*
X124134108Y-47000500D01*
X124134110Y-47000500D01*
X124265890Y-47000500D01*
X124265892Y-47000500D01*
X124393186Y-46966392D01*
X124507314Y-46900500D01*
X124600500Y-46807314D01*
X124666392Y-46693186D01*
X124700500Y-46565892D01*
X124700500Y-46434108D01*
X125699500Y-46434108D01*
X125699500Y-46565892D01*
X125716554Y-46629539D01*
X125733608Y-46693187D01*
X125760894Y-46740447D01*
X125799500Y-46807314D01*
X125892686Y-46900500D01*
X126006814Y-46966392D01*
X126134108Y-47000500D01*
X126134110Y-47000500D01*
X126265890Y-47000500D01*
X126265892Y-47000500D01*
X126393186Y-46966392D01*
X126507314Y-46900500D01*
X126600500Y-46807314D01*
X126666392Y-46693186D01*
X126700500Y-46565892D01*
X126700500Y-46434108D01*
X127999500Y-46434108D01*
X127999500Y-46565892D01*
X128016554Y-46629539D01*
X128033608Y-46693187D01*
X128060894Y-46740447D01*
X128099500Y-46807314D01*
X128192686Y-46900500D01*
X128306814Y-46966392D01*
X128434108Y-47000500D01*
X128434110Y-47000500D01*
X128565890Y-47000500D01*
X128565892Y-47000500D01*
X128693186Y-46966392D01*
X128735597Y-46941905D01*
X128803496Y-46925432D01*
X128869523Y-46948283D01*
X128912715Y-47003204D01*
X128919358Y-47072757D01*
X128900701Y-47118182D01*
X128815766Y-47245298D01*
X128735447Y-47439204D01*
X128735445Y-47439210D01*
X128694500Y-47645054D01*
X128694500Y-47645057D01*
X128694500Y-48154943D01*
X128694500Y-48154945D01*
X128694499Y-48154945D01*
X128735445Y-48360789D01*
X128735447Y-48360795D01*
X128815765Y-48554701D01*
X128932373Y-48729218D01*
X129080781Y-48877626D01*
X129255298Y-48994234D01*
X129352251Y-49034393D01*
X129449205Y-49074553D01*
X129449209Y-49074553D01*
X129449210Y-49074554D01*
X129655054Y-49115500D01*
X129655057Y-49115500D01*
X129864945Y-49115500D01*
X130049107Y-49078867D01*
X130070795Y-49074553D01*
X130264703Y-48994233D01*
X130439216Y-48877628D01*
X130587628Y-48729216D01*
X130704233Y-48554703D01*
X130784553Y-48360795D01*
X130825500Y-48154943D01*
X130825500Y-47645057D01*
X130825500Y-47645054D01*
X130784554Y-47439210D01*
X130784553Y-47439209D01*
X130784553Y-47439205D01*
X130744393Y-47342251D01*
X130704234Y-47245298D01*
X130587626Y-47070781D01*
X130439218Y-46922373D01*
X130353723Y-46865247D01*
X131234500Y-46865247D01*
X131234500Y-48934752D01*
X131246131Y-48993229D01*
X131246132Y-48993230D01*
X131290447Y-49059552D01*
X131356769Y-49103867D01*
X131356770Y-49103868D01*
X131415247Y-49115499D01*
X131415250Y-49115500D01*
X131415252Y-49115500D01*
X133184750Y-49115500D01*
X133184751Y-49115499D01*
X133199568Y-49112552D01*
X133243229Y-49103868D01*
X133243229Y-49103867D01*
X133243231Y-49103867D01*
X133309552Y-49059552D01*
X133353867Y-48993231D01*
X133353867Y-48993229D01*
X133353868Y-48993229D01*
X133365499Y-48934752D01*
X133365500Y-48934750D01*
X133365500Y-46891147D01*
X133365500Y-46865252D01*
X133353867Y-46806769D01*
X133309552Y-46740448D01*
X133293669Y-46729835D01*
X133293669Y-46729834D01*
X133243230Y-46696132D01*
X133243229Y-46696131D01*
X133184752Y-46684500D01*
X133184748Y-46684500D01*
X132624500Y-46684500D01*
X132557461Y-46664815D01*
X132511706Y-46612011D01*
X132500500Y-46560500D01*
X132500500Y-46434110D01*
X132500500Y-46434108D01*
X133499500Y-46434108D01*
X133499500Y-46565891D01*
X133510526Y-46607044D01*
X133510527Y-46607046D01*
X133533608Y-46693186D01*
X133599500Y-46807314D01*
X133692686Y-46900500D01*
X133806814Y-46966392D01*
X133934108Y-47000500D01*
X133934110Y-47000500D01*
X134065890Y-47000500D01*
X134065892Y-47000500D01*
X134193186Y-46966392D01*
X134307314Y-46900500D01*
X134400500Y-46807314D01*
X134466392Y-46693186D01*
X134500500Y-46565892D01*
X134500500Y-46434108D01*
X137099500Y-46434108D01*
X137099500Y-46565892D01*
X137116554Y-46629539D01*
X137133608Y-46693187D01*
X137160894Y-46740447D01*
X137199500Y-46807314D01*
X137292686Y-46900500D01*
X137406814Y-46966392D01*
X137534108Y-47000500D01*
X137534110Y-47000500D01*
X137665889Y-47000500D01*
X137665892Y-47000500D01*
X137782198Y-46969336D01*
X137852044Y-46970999D01*
X137909907Y-47010161D01*
X137937411Y-47074390D01*
X137925825Y-47143292D01*
X137917391Y-47158000D01*
X137875767Y-47220296D01*
X137795447Y-47414204D01*
X137795445Y-47414210D01*
X137754500Y-47620054D01*
X137754500Y-47620057D01*
X137754500Y-48129943D01*
X137754500Y-48129945D01*
X137754499Y-48129945D01*
X137795445Y-48335789D01*
X137795447Y-48335795D01*
X137875765Y-48529701D01*
X137992373Y-48704218D01*
X138140781Y-48852626D01*
X138315298Y-48969234D01*
X138375654Y-48994234D01*
X138509205Y-49049553D01*
X138509209Y-49049553D01*
X138509210Y-49049554D01*
X138715054Y-49090500D01*
X138715057Y-49090500D01*
X138924945Y-49090500D01*
X139080527Y-49059552D01*
X139130795Y-49049553D01*
X139324703Y-48969233D01*
X139499216Y-48852628D01*
X139647628Y-48704216D01*
X139764233Y-48529703D01*
X139844553Y-48335795D01*
X139885500Y-48129943D01*
X139885500Y-47620057D01*
X139885500Y-47620054D01*
X139844554Y-47414210D01*
X139844553Y-47414209D01*
X139844553Y-47414205D01*
X139774589Y-47245298D01*
X139764234Y-47220298D01*
X139647626Y-47045781D01*
X139499218Y-46897373D01*
X139324701Y-46780765D01*
X139130795Y-46700447D01*
X139130789Y-46700445D01*
X138924945Y-46659500D01*
X138924943Y-46659500D01*
X138715057Y-46659500D01*
X138715055Y-46659500D01*
X138509210Y-46700445D01*
X138509204Y-46700447D01*
X138315298Y-46780766D01*
X138257460Y-46819412D01*
X138190782Y-46840289D01*
X138123402Y-46821804D01*
X138076713Y-46769825D01*
X138065537Y-46700854D01*
X138068795Y-46684216D01*
X138072019Y-46672184D01*
X138100500Y-46565892D01*
X138100500Y-46434108D01*
X139999500Y-46434108D01*
X139999500Y-46565892D01*
X140016554Y-46629539D01*
X140033608Y-46693187D01*
X140060894Y-46740447D01*
X140099500Y-46807314D01*
X140192686Y-46900500D01*
X140232498Y-46923485D01*
X140280715Y-46974051D01*
X140294500Y-47030873D01*
X140294500Y-48909752D01*
X140306131Y-48968229D01*
X140306132Y-48968230D01*
X140350447Y-49034552D01*
X140416769Y-49078867D01*
X140416770Y-49078868D01*
X140475247Y-49090499D01*
X140475250Y-49090500D01*
X140475252Y-49090500D01*
X142244750Y-49090500D01*
X142244751Y-49090499D01*
X142259568Y-49087552D01*
X142303229Y-49078868D01*
X142303229Y-49078867D01*
X142303231Y-49078867D01*
X142369552Y-49034552D01*
X142413867Y-48968231D01*
X142413867Y-48968229D01*
X142413868Y-48968229D01*
X142425499Y-48909752D01*
X142425500Y-48909750D01*
X142425500Y-47195730D01*
X146959500Y-47195730D01*
X146959500Y-48804269D01*
X146962353Y-48834699D01*
X146962353Y-48834701D01*
X147007206Y-48962880D01*
X147007207Y-48962882D01*
X147087850Y-49072150D01*
X147197118Y-49152793D01*
X147239845Y-49167744D01*
X147325299Y-49197646D01*
X147355730Y-49200500D01*
X147355734Y-49200500D01*
X148964270Y-49200500D01*
X148994699Y-49197646D01*
X148994701Y-49197646D01*
X149058790Y-49175219D01*
X149122882Y-49152793D01*
X149232150Y-49072150D01*
X149312793Y-48962882D01*
X149342625Y-48877626D01*
X149357646Y-48834701D01*
X149357646Y-48834699D01*
X149360500Y-48804269D01*
X149360500Y-47195731D01*
X149359673Y-47186913D01*
X149359673Y-47186912D01*
X149358859Y-47178230D01*
X154134500Y-47178230D01*
X154134500Y-48786769D01*
X154137353Y-48817199D01*
X154137353Y-48817201D01*
X154178487Y-48934752D01*
X154182207Y-48945382D01*
X154262850Y-49054650D01*
X154372118Y-49135293D01*
X154414845Y-49150244D01*
X154500299Y-49180146D01*
X154530730Y-49183000D01*
X154530734Y-49183000D01*
X156139270Y-49183000D01*
X156169699Y-49180146D01*
X156169701Y-49180146D01*
X156233790Y-49157719D01*
X156297882Y-49135293D01*
X156407150Y-49054650D01*
X156487793Y-48945382D01*
X156532630Y-48817246D01*
X156532646Y-48817201D01*
X156532646Y-48817199D01*
X156535500Y-48786769D01*
X156535500Y-47393713D01*
X160149500Y-47393713D01*
X160149500Y-47606287D01*
X160150042Y-47609710D01*
X160150042Y-47609713D01*
X160182753Y-47816239D01*
X160248444Y-48018414D01*
X160344951Y-48207820D01*
X160469890Y-48379786D01*
X160620213Y-48530109D01*
X160792179Y-48655048D01*
X160792181Y-48655049D01*
X160792184Y-48655051D01*
X160981588Y-48751557D01*
X161183757Y-48817246D01*
X161393713Y-48850500D01*
X161393714Y-48850500D01*
X161606286Y-48850500D01*
X161606287Y-48850500D01*
X161816243Y-48817246D01*
X162018412Y-48751557D01*
X162207816Y-48655051D01*
X162229789Y-48639086D01*
X162379786Y-48530109D01*
X162379788Y-48530106D01*
X162379792Y-48530104D01*
X162530104Y-48379792D01*
X162530106Y-48379788D01*
X162530109Y-48379786D01*
X162655048Y-48207820D01*
X162655047Y-48207820D01*
X162655051Y-48207816D01*
X162751557Y-48018412D01*
X162817246Y-47816243D01*
X162833782Y-47711835D01*
X162836375Y-47701047D01*
X162836108Y-47700983D01*
X162837242Y-47696254D01*
X162837246Y-47696243D01*
X162870500Y-47486287D01*
X162870500Y-47273713D01*
X162837246Y-47063757D01*
X162771557Y-46861588D01*
X162675051Y-46672184D01*
X162675049Y-46672181D01*
X162675048Y-46672179D01*
X162550109Y-46500213D01*
X162399786Y-46349890D01*
X162227820Y-46224951D01*
X162038414Y-46128444D01*
X162038413Y-46128443D01*
X162038412Y-46128443D01*
X161836243Y-46062754D01*
X161836241Y-46062753D01*
X161836240Y-46062753D01*
X161674957Y-46037208D01*
X161626287Y-46029500D01*
X161413713Y-46029500D01*
X161365042Y-46037208D01*
X161203760Y-46062753D01*
X161001585Y-46128444D01*
X160812179Y-46224951D01*
X160640213Y-46349890D01*
X160489890Y-46500213D01*
X160364951Y-46672179D01*
X160268444Y-46861585D01*
X160268443Y-46861587D01*
X160268443Y-46861588D01*
X160263589Y-46876527D01*
X160202753Y-47063760D01*
X160186940Y-47163587D01*
X160186938Y-47163606D01*
X160184692Y-47177789D01*
X160182754Y-47183757D01*
X160149500Y-47393713D01*
X156535500Y-47393713D01*
X156535500Y-47178230D01*
X156532646Y-47147800D01*
X156532646Y-47147798D01*
X156487793Y-47019619D01*
X156487792Y-47019617D01*
X156407150Y-46910350D01*
X156297882Y-46829707D01*
X156297880Y-46829706D01*
X156169700Y-46784853D01*
X156139270Y-46782000D01*
X156139266Y-46782000D01*
X154530734Y-46782000D01*
X154530730Y-46782000D01*
X154500300Y-46784853D01*
X154500298Y-46784853D01*
X154372119Y-46829706D01*
X154372117Y-46829707D01*
X154262850Y-46910350D01*
X154182207Y-47019617D01*
X154182206Y-47019619D01*
X154137353Y-47147798D01*
X154137353Y-47147800D01*
X154134500Y-47178230D01*
X149358859Y-47178230D01*
X149357646Y-47165300D01*
X149357646Y-47165298D01*
X149312793Y-47037119D01*
X149312792Y-47037117D01*
X149299877Y-47019618D01*
X149232150Y-46927850D01*
X149122882Y-46847207D01*
X149122880Y-46847206D01*
X148994701Y-46802353D01*
X148987199Y-46801650D01*
X148922292Y-46775789D01*
X148881670Y-46718941D01*
X148878230Y-46649156D01*
X148878987Y-46646177D01*
X148900500Y-46565892D01*
X148900500Y-46434108D01*
X148866392Y-46306814D01*
X148800500Y-46192686D01*
X148707314Y-46099500D01*
X148643668Y-46062754D01*
X148593187Y-46033608D01*
X148529539Y-46016554D01*
X148465892Y-45999500D01*
X148334108Y-45999500D01*
X148206812Y-46033608D01*
X148092686Y-46099500D01*
X148092683Y-46099502D01*
X147999502Y-46192683D01*
X147999500Y-46192686D01*
X147933608Y-46306812D01*
X147922066Y-46349890D01*
X147899500Y-46434108D01*
X147899500Y-46565892D01*
X147920270Y-46643407D01*
X147918607Y-46713257D01*
X147879444Y-46771119D01*
X147815216Y-46798623D01*
X147800495Y-46799500D01*
X147355730Y-46799500D01*
X147325300Y-46802353D01*
X147325298Y-46802353D01*
X147197119Y-46847206D01*
X147197117Y-46847207D01*
X147087850Y-46927850D01*
X147007207Y-47037117D01*
X147007206Y-47037119D01*
X146962353Y-47165298D01*
X146962353Y-47165300D01*
X146959500Y-47195730D01*
X142425500Y-47195730D01*
X142425500Y-47124500D01*
X142445185Y-47057461D01*
X142497989Y-47011706D01*
X142549500Y-47000500D01*
X142565890Y-47000500D01*
X142565892Y-47000500D01*
X142693186Y-46966392D01*
X142807314Y-46900500D01*
X142900500Y-46807314D01*
X142966392Y-46693186D01*
X143000500Y-46565892D01*
X143000500Y-46434108D01*
X143999500Y-46434108D01*
X143999500Y-46565892D01*
X144016554Y-46629539D01*
X144033608Y-46693187D01*
X144060894Y-46740447D01*
X144099500Y-46807314D01*
X144192686Y-46900500D01*
X144306814Y-46966392D01*
X144434108Y-47000500D01*
X144434110Y-47000500D01*
X144565890Y-47000500D01*
X144565892Y-47000500D01*
X144693186Y-46966392D01*
X144807314Y-46900500D01*
X144900500Y-46807314D01*
X144966392Y-46693186D01*
X145000500Y-46565892D01*
X145000500Y-46434108D01*
X145899500Y-46434108D01*
X145899500Y-46565892D01*
X145916554Y-46629539D01*
X145933608Y-46693187D01*
X145960894Y-46740447D01*
X145999500Y-46807314D01*
X146092686Y-46900500D01*
X146206814Y-46966392D01*
X146334108Y-47000500D01*
X146334110Y-47000500D01*
X146465890Y-47000500D01*
X146465892Y-47000500D01*
X146593186Y-46966392D01*
X146707314Y-46900500D01*
X146800500Y-46807314D01*
X146866392Y-46693186D01*
X146900500Y-46565892D01*
X146900500Y-46434108D01*
X146866392Y-46306814D01*
X146800500Y-46192686D01*
X146707314Y-46099500D01*
X146643668Y-46062754D01*
X146593187Y-46033608D01*
X146529539Y-46016554D01*
X146465892Y-45999500D01*
X146334108Y-45999500D01*
X146206812Y-46033608D01*
X146092686Y-46099500D01*
X146092683Y-46099502D01*
X145999502Y-46192683D01*
X145999500Y-46192686D01*
X145933608Y-46306812D01*
X145922066Y-46349890D01*
X145899500Y-46434108D01*
X145000500Y-46434108D01*
X144966392Y-46306814D01*
X144900500Y-46192686D01*
X144807314Y-46099500D01*
X144743668Y-46062754D01*
X144693187Y-46033608D01*
X144629539Y-46016554D01*
X144565892Y-45999500D01*
X144434108Y-45999500D01*
X144306812Y-46033608D01*
X144192686Y-46099500D01*
X144192683Y-46099502D01*
X144099502Y-46192683D01*
X144099500Y-46192686D01*
X144033608Y-46306812D01*
X144022066Y-46349890D01*
X143999500Y-46434108D01*
X143000500Y-46434108D01*
X142966392Y-46306814D01*
X142900500Y-46192686D01*
X142807314Y-46099500D01*
X142743668Y-46062754D01*
X142693187Y-46033608D01*
X142629539Y-46016554D01*
X142565892Y-45999500D01*
X142434108Y-45999500D01*
X142306812Y-46033608D01*
X142192686Y-46099500D01*
X142192683Y-46099502D01*
X142099502Y-46192683D01*
X142099500Y-46192686D01*
X142033608Y-46306812D01*
X141999500Y-46434108D01*
X141999500Y-46535500D01*
X141979815Y-46602539D01*
X141927011Y-46648294D01*
X141875500Y-46659500D01*
X141124500Y-46659500D01*
X141057461Y-46639815D01*
X141011706Y-46587011D01*
X141000500Y-46535500D01*
X141000500Y-46434110D01*
X141000500Y-46434108D01*
X140966392Y-46306814D01*
X140900500Y-46192686D01*
X140807314Y-46099500D01*
X140743668Y-46062754D01*
X140693187Y-46033608D01*
X140629539Y-46016554D01*
X140565892Y-45999500D01*
X140434108Y-45999500D01*
X140306812Y-46033608D01*
X140192686Y-46099500D01*
X140192683Y-46099502D01*
X140099502Y-46192683D01*
X140099500Y-46192686D01*
X140033608Y-46306812D01*
X140022066Y-46349890D01*
X139999500Y-46434108D01*
X138100500Y-46434108D01*
X138066392Y-46306814D01*
X138000500Y-46192686D01*
X137907314Y-46099500D01*
X137843668Y-46062754D01*
X137793187Y-46033608D01*
X137729539Y-46016554D01*
X137665892Y-45999500D01*
X137534108Y-45999500D01*
X137406812Y-46033608D01*
X137292686Y-46099500D01*
X137292683Y-46099502D01*
X137199502Y-46192683D01*
X137199500Y-46192686D01*
X137133608Y-46306812D01*
X137122066Y-46349890D01*
X137099500Y-46434108D01*
X134500500Y-46434108D01*
X134466392Y-46306814D01*
X134400500Y-46192686D01*
X134307314Y-46099500D01*
X134243668Y-46062754D01*
X134193187Y-46033608D01*
X134129539Y-46016554D01*
X134065892Y-45999500D01*
X133934108Y-45999500D01*
X133806812Y-46033608D01*
X133692686Y-46099500D01*
X133692683Y-46099502D01*
X133599502Y-46192683D01*
X133599500Y-46192686D01*
X133533608Y-46306812D01*
X133499500Y-46434108D01*
X132500500Y-46434108D01*
X132466392Y-46306814D01*
X132400500Y-46192686D01*
X132307314Y-46099500D01*
X132243668Y-46062754D01*
X132193187Y-46033608D01*
X132129539Y-46016554D01*
X132065892Y-45999500D01*
X131934108Y-45999500D01*
X131806812Y-46033608D01*
X131692686Y-46099500D01*
X131692683Y-46099502D01*
X131599502Y-46192683D01*
X131599500Y-46192686D01*
X131533608Y-46306812D01*
X131499500Y-46434108D01*
X131499500Y-46565977D01*
X131479815Y-46633016D01*
X131427011Y-46678771D01*
X131399692Y-46687594D01*
X131356770Y-46696132D01*
X131356769Y-46696132D01*
X131290447Y-46740447D01*
X131246132Y-46806769D01*
X131246131Y-46806770D01*
X131234500Y-46865247D01*
X130353723Y-46865247D01*
X130264701Y-46805765D01*
X130070795Y-46725447D01*
X130070789Y-46725445D01*
X129864945Y-46684500D01*
X129864943Y-46684500D01*
X129655057Y-46684500D01*
X129655055Y-46684500D01*
X129449210Y-46725445D01*
X129449204Y-46725447D01*
X129255298Y-46805766D01*
X129121301Y-46895299D01*
X129054623Y-46916176D01*
X128987243Y-46897691D01*
X128940554Y-46845712D01*
X128929378Y-46776742D01*
X128945025Y-46730194D01*
X128966391Y-46693188D01*
X128972019Y-46672184D01*
X129000500Y-46565892D01*
X129000500Y-46434108D01*
X128966392Y-46306814D01*
X128900500Y-46192686D01*
X128807314Y-46099500D01*
X128743668Y-46062754D01*
X128693187Y-46033608D01*
X128629539Y-46016554D01*
X128565892Y-45999500D01*
X128434108Y-45999500D01*
X128306812Y-46033608D01*
X128192686Y-46099500D01*
X128192683Y-46099502D01*
X128099502Y-46192683D01*
X128099500Y-46192686D01*
X128033608Y-46306812D01*
X128022066Y-46349890D01*
X127999500Y-46434108D01*
X126700500Y-46434108D01*
X126666392Y-46306814D01*
X126600500Y-46192686D01*
X126507314Y-46099500D01*
X126443668Y-46062754D01*
X126393187Y-46033608D01*
X126329539Y-46016554D01*
X126265892Y-45999500D01*
X126134108Y-45999500D01*
X126006812Y-46033608D01*
X125892686Y-46099500D01*
X125892683Y-46099502D01*
X125799502Y-46192683D01*
X125799500Y-46192686D01*
X125733608Y-46306812D01*
X125722066Y-46349890D01*
X125699500Y-46434108D01*
X124700500Y-46434108D01*
X124666392Y-46306814D01*
X124600500Y-46192686D01*
X124507314Y-46099500D01*
X124443668Y-46062754D01*
X124393187Y-46033608D01*
X124329539Y-46016554D01*
X124265892Y-45999500D01*
X124134108Y-45999500D01*
X124006812Y-46033608D01*
X123892686Y-46099500D01*
X123892683Y-46099502D01*
X123799502Y-46192683D01*
X123799500Y-46192686D01*
X123733608Y-46306812D01*
X123722066Y-46349890D01*
X123699500Y-46434108D01*
X122700500Y-46434108D01*
X122666392Y-46306814D01*
X122600500Y-46192686D01*
X122507314Y-46099500D01*
X122443668Y-46062754D01*
X122393187Y-46033608D01*
X122329539Y-46016554D01*
X122265892Y-45999500D01*
X122134108Y-45999500D01*
X122006812Y-46033608D01*
X121892686Y-46099500D01*
X121892683Y-46099502D01*
X121799502Y-46192683D01*
X121799500Y-46192686D01*
X121733608Y-46306812D01*
X121722066Y-46349890D01*
X121699500Y-46434108D01*
X120700500Y-46434108D01*
X120666392Y-46306814D01*
X120600500Y-46192686D01*
X120507314Y-46099500D01*
X120443668Y-46062754D01*
X120393187Y-46033608D01*
X120329539Y-46016554D01*
X120265892Y-45999500D01*
X120134108Y-45999500D01*
X120006812Y-46033608D01*
X119892686Y-46099500D01*
X119892683Y-46099502D01*
X119799502Y-46192683D01*
X119799500Y-46192686D01*
X119733608Y-46306812D01*
X119722066Y-46349890D01*
X119699500Y-46434108D01*
X118700500Y-46434108D01*
X118666392Y-46306814D01*
X118600500Y-46192686D01*
X118507314Y-46099500D01*
X118443668Y-46062754D01*
X118393187Y-46033608D01*
X118329539Y-46016554D01*
X118265892Y-45999500D01*
X118134108Y-45999500D01*
X118006812Y-46033608D01*
X117892686Y-46099500D01*
X117892683Y-46099502D01*
X117799502Y-46192683D01*
X117799500Y-46192686D01*
X117733608Y-46306812D01*
X117722066Y-46349890D01*
X117699500Y-46434108D01*
X116700500Y-46434108D01*
X116666392Y-46306814D01*
X116600500Y-46192686D01*
X116507314Y-46099500D01*
X116443668Y-46062754D01*
X116393187Y-46033608D01*
X116329539Y-46016554D01*
X116265892Y-45999500D01*
X116134108Y-45999500D01*
X116006812Y-46033608D01*
X115892686Y-46099500D01*
X115892683Y-46099502D01*
X115799502Y-46192683D01*
X115799500Y-46192686D01*
X115733608Y-46306812D01*
X115722066Y-46349890D01*
X115699500Y-46434108D01*
X114700500Y-46434108D01*
X114666392Y-46306814D01*
X114600500Y-46192686D01*
X114507314Y-46099500D01*
X114443668Y-46062754D01*
X114393187Y-46033608D01*
X114329539Y-46016554D01*
X114265892Y-45999500D01*
X114134108Y-45999500D01*
X114006812Y-46033608D01*
X113892686Y-46099500D01*
X113892683Y-46099502D01*
X113799502Y-46192683D01*
X113799500Y-46192686D01*
X113733608Y-46306812D01*
X113722066Y-46349890D01*
X113699500Y-46434108D01*
X104484004Y-46434108D01*
X104399786Y-46349890D01*
X104227820Y-46224951D01*
X104038414Y-46128444D01*
X104038413Y-46128443D01*
X104038412Y-46128443D01*
X103836243Y-46062754D01*
X103836241Y-46062753D01*
X103836240Y-46062753D01*
X103674957Y-46037208D01*
X103626287Y-46029500D01*
X103413713Y-46029500D01*
X103365042Y-46037208D01*
X103203760Y-46062753D01*
X103001585Y-46128444D01*
X102812179Y-46224951D01*
X102640213Y-46349890D01*
X102489890Y-46500213D01*
X102364951Y-46672179D01*
X102268444Y-46861585D01*
X102268443Y-46861587D01*
X102268443Y-46861588D01*
X102263589Y-46876527D01*
X102202753Y-47063760D01*
X102186940Y-47163587D01*
X102186938Y-47163606D01*
X102184692Y-47177789D01*
X102182754Y-47183757D01*
X102149500Y-47393713D01*
X100070500Y-47393713D01*
X100070500Y-46883480D01*
X100070695Y-46876527D01*
X100071328Y-46865252D01*
X100088656Y-46556700D01*
X100090210Y-46542907D01*
X100143283Y-46230537D01*
X100146377Y-46216985D01*
X100153378Y-46192686D01*
X100234090Y-45912526D01*
X100238682Y-45899405D01*
X100359933Y-45606680D01*
X100365953Y-45594180D01*
X100519221Y-45316861D01*
X100526616Y-45305093D01*
X100709970Y-45046678D01*
X100718621Y-45035831D01*
X100929750Y-44799579D01*
X100939581Y-44789749D01*
X101175831Y-44578621D01*
X101186678Y-44569970D01*
X101445098Y-44386612D01*
X101456861Y-44379221D01*
X101734180Y-44225953D01*
X101746680Y-44219933D01*
X102039409Y-44098680D01*
X102052526Y-44094090D01*
X102356990Y-44006375D01*
X102370537Y-44003283D01*
X102682907Y-43950210D01*
X102696700Y-43948656D01*
X103016528Y-43930695D01*
X103023481Y-43930500D01*
X103036409Y-43930500D01*
X115962324Y-43930500D01*
X116029363Y-43950185D01*
G37*
%TD.AperFunction*%
%TD*%
M02*
