%TF.GenerationSoftware,KiCad,Pcbnew,10.0.3*%
%TF.CreationDate,2026-06-17T11:32:05-04:00*%
%TF.ProjectId,power_db_hat,706f7765-725f-4646-925f-6861742e6b69,rev?*%
%TF.SameCoordinates,Original*%
%TF.FileFunction,Copper,L3,Inr*%
%TF.FilePolarity,Positive*%
%FSLAX46Y46*%
G04 Gerber Fmt 4.6, Leading zero omitted, Abs format (unit mm)*
G04 Created by KiCad (PCBNEW 10.0.3) date 2026-06-17 11:32:05*
%MOMM*%
%LPD*%
G01*
G04 APERTURE LIST*
G04 Aperture macros list*
%AMRoundRect*
0 Rectangle with rounded corners*
0 $1 Rounding radius*
0 $2 $3 $4 $5 $6 $7 $8 $9 X,Y pos of 4 corners*
0 Add a 4 corners polygon primitive as box body*
4,1,4,$2,$3,$4,$5,$6,$7,$8,$9,$2,$3,0*
0 Add four circle primitives for the rounded corners*
1,1,$1+$1,$2,$3*
1,1,$1+$1,$4,$5*
1,1,$1+$1,$6,$7*
1,1,$1+$1,$8,$9*
0 Add four rect primitives between the rounded corners*
20,1,$1+$1,$2,$3,$4,$5,0*
20,1,$1+$1,$4,$5,$6,$7,0*
20,1,$1+$1,$6,$7,$8,$9,0*
20,1,$1+$1,$8,$9,$2,$3,0*%
G04 Aperture macros list end*
%TA.AperFunction,ComponentPad*%
%ADD10R,2.000000X0.900000*%
%TD*%
%TA.AperFunction,ComponentPad*%
%ADD11RoundRect,1.025000X1.025000X-1.025000X1.025000X1.025000X-1.025000X1.025000X-1.025000X-1.025000X0*%
%TD*%
%TA.AperFunction,ComponentPad*%
%ADD12C,4.100000*%
%TD*%
%TA.AperFunction,ComponentPad*%
%ADD13R,0.900000X2.000000*%
%TD*%
%TA.AperFunction,ComponentPad*%
%ADD14RoundRect,1.025000X1.025000X1.025000X-1.025000X1.025000X-1.025000X-1.025000X1.025000X-1.025000X0*%
%TD*%
%TA.AperFunction,ComponentPad*%
%ADD15RoundRect,0.250000X0.750000X-0.750000X0.750000X0.750000X-0.750000X0.750000X-0.750000X-0.750000X0*%
%TD*%
%TA.AperFunction,ComponentPad*%
%ADD16C,2.000000*%
%TD*%
%TA.AperFunction,ComponentPad*%
%ADD17R,1.730000X2.030000*%
%TD*%
%TA.AperFunction,ComponentPad*%
%ADD18O,1.730000X2.030000*%
%TD*%
%TA.AperFunction,ComponentPad*%
%ADD19RoundRect,0.250000X0.750000X0.750000X-0.750000X0.750000X-0.750000X-0.750000X0.750000X-0.750000X0*%
%TD*%
%TA.AperFunction,ComponentPad*%
%ADD20RoundRect,0.250000X-0.750000X-0.750000X0.750000X-0.750000X0.750000X0.750000X-0.750000X0.750000X0*%
%TD*%
%TA.AperFunction,ViaPad*%
%ADD21C,0.600000*%
%TD*%
%TA.AperFunction,ViaPad*%
%ADD22C,0.800000*%
%TD*%
%TA.AperFunction,ViaPad*%
%ADD23C,0.900000*%
%TD*%
G04 APERTURE END LIST*
D10*
%TO.N,*%
%TO.C,J5*%
X102400000Y-74300000D03*
X102400000Y-60800000D03*
D11*
%TO.N,GND*%
X108400000Y-63950000D03*
D12*
%TO.N,+24V*%
X108400000Y-71150000D03*
%TD*%
D13*
%TO.N,*%
%TO.C,J2*%
X137500000Y-96000000D03*
X124000000Y-96000000D03*
D14*
%TO.N,/VBAT1+*%
X134350000Y-90000000D03*
D12*
%TO.N,/VBAT2+*%
X127150000Y-90000000D03*
%TD*%
D13*
%TO.N,*%
%TO.C,J8*%
X155000000Y-96000000D03*
X141500000Y-96000000D03*
D14*
%TO.N,GND*%
X151850000Y-90000000D03*
D12*
%TO.N,/VBAT1+*%
X144650000Y-90000000D03*
%TD*%
D15*
%TO.N,Net-(J7-Pin_1)*%
%TO.C,J7*%
X160500000Y-90790000D03*
D16*
%TO.N,Net-(J7-Pin_2)*%
X160500000Y-88250000D03*
%TD*%
D17*
%TO.N,/SERVO_1*%
%TO.C,J11*%
X128300000Y-48000000D03*
D18*
%TO.N,+5V*%
X125760000Y-48000000D03*
%TO.N,GND*%
X123220000Y-48000000D03*
%TD*%
D19*
%TO.N,+5V*%
%TO.C,J15*%
X144275000Y-48000000D03*
D16*
%TO.N,GND*%
X141735000Y-48000000D03*
%TD*%
D19*
%TO.N,+12V*%
%TO.C,J4*%
X151275000Y-47982500D03*
D16*
%TO.N,GND*%
X148735000Y-47982500D03*
%TD*%
D15*
%TO.N,Net-(J3-Pin_1)*%
%TO.C,J3*%
X160500000Y-83750000D03*
D16*
%TO.N,Net-(J3-Pin_2)*%
X160500000Y-81210000D03*
%TD*%
D17*
%TO.N,/SERVO_2*%
%TO.C,J12*%
X137540000Y-48000000D03*
D18*
%TO.N,+5V*%
X135000000Y-48000000D03*
%TO.N,GND*%
X132460000Y-48000000D03*
%TD*%
D20*
%TO.N,GND*%
%TO.C,J16*%
X116960000Y-95500000D03*
D16*
%TO.N,Net-(J16-Pin_2)*%
X119500000Y-95500000D03*
%TD*%
D21*
%TO.N,/VBAT_24V*%
X119000000Y-90500000D03*
X119000000Y-92000000D03*
X117442827Y-91250000D03*
X117500000Y-90500000D03*
X117500000Y-92000000D03*
X118250000Y-90500000D03*
X118192827Y-91250000D03*
X118250000Y-92000000D03*
X118942827Y-91250000D03*
%TO.N,GND*%
X138550000Y-99000000D03*
X148750000Y-61750000D03*
X126550000Y-99000000D03*
X123050000Y-76950000D03*
X147550000Y-99000000D03*
X114550000Y-99000000D03*
X131000000Y-76000000D03*
X105550000Y-63000000D03*
X131950000Y-57000000D03*
X117250000Y-75000000D03*
X102550000Y-99000000D03*
X107350000Y-96000000D03*
X124250000Y-55250000D03*
X146750000Y-64000000D03*
X127000000Y-65500000D03*
X139486276Y-76388761D03*
X135500000Y-76750000D03*
X158500000Y-93750000D03*
X123550000Y-99000000D03*
X111550000Y-93000000D03*
X150550000Y-93000000D03*
X125950000Y-72000000D03*
X114550000Y-63000000D03*
X152800000Y-96000000D03*
X117550000Y-99000000D03*
X120550000Y-99000000D03*
X162550000Y-99000000D03*
X111500000Y-99000000D03*
X135550000Y-99000000D03*
X128950000Y-84000000D03*
X133500000Y-84250000D03*
X147500000Y-71000000D03*
X131200000Y-60000000D03*
X156550000Y-99000000D03*
X133250000Y-50500000D03*
X101400000Y-93000000D03*
X148000000Y-51000000D03*
X139000000Y-81750000D03*
X105500000Y-99000000D03*
X105100000Y-60000000D03*
X147250000Y-80750000D03*
X105550000Y-93000000D03*
X111550000Y-63000000D03*
X104950000Y-75000000D03*
X105700000Y-66000000D03*
X104800000Y-82600000D03*
X141550000Y-99000000D03*
X129550000Y-99000000D03*
X138250000Y-50500000D03*
X159550000Y-99000000D03*
X144250000Y-80750000D03*
X108550000Y-93000000D03*
X153550000Y-99000000D03*
X129700000Y-87000000D03*
X125000000Y-63500000D03*
X157250000Y-88000000D03*
X108500000Y-99000000D03*
X115058601Y-79624476D03*
X136500000Y-70000000D03*
X144250000Y-75250000D03*
%TO.N,+24V*%
X113000000Y-72500000D03*
X145750000Y-75950000D03*
X113000000Y-71000000D03*
X113000000Y-69500000D03*
X135000000Y-73650000D03*
X111500000Y-69500000D03*
X109012500Y-59750000D03*
X128200000Y-67400000D03*
X134000000Y-73650000D03*
X144150000Y-60250000D03*
X129200000Y-67400000D03*
X160250000Y-75000000D03*
X145750000Y-74850000D03*
X141433000Y-69077500D03*
X145750000Y-77050000D03*
X136000000Y-73650000D03*
X160000000Y-65500000D03*
X126200000Y-67400000D03*
X127200000Y-67400000D03*
X111500000Y-71000000D03*
X111500000Y-72500000D03*
%TO.N,+12V*%
X139400000Y-63500000D03*
D22*
X154250000Y-68500000D03*
D21*
X140750000Y-64500000D03*
X115800000Y-74800000D03*
X110000000Y-54800000D03*
D23*
X127800000Y-74600000D03*
D21*
%TO.N,+3V3*%
X135962500Y-56437500D03*
X150750000Y-77750000D03*
X153400000Y-83236000D03*
X137250000Y-61500000D03*
X153750000Y-52250000D03*
X139450000Y-53000000D03*
X118400000Y-51000000D03*
%TO.N,/power/5V_SNS-*%
X128400000Y-56600000D03*
X119000000Y-56600000D03*
%TO.N,/power/5V_SNS+*%
X132200000Y-58200000D03*
%TO.N,/I2C_SCL*%
X122500000Y-50250000D03*
X136753078Y-53481530D03*
%TO.N,/I2C_SDA*%
X140086580Y-56077634D03*
X127000000Y-52500000D03*
%TO.N,/LED_PWM_1*%
X158592893Y-58092893D03*
%TO.N,+5V*%
X161500000Y-54500000D03*
D22*
X156500000Y-69000000D03*
D21*
X152000000Y-54500000D03*
X111400000Y-52800000D03*
%TO.N,/power/24V_SNS*%
X131210000Y-67000000D03*
X138250000Y-62500000D03*
X102800000Y-78350000D03*
X101300000Y-78350000D03*
X102800000Y-80850000D03*
X143100000Y-60327000D03*
X101300000Y-80850000D03*
X104250000Y-77100000D03*
X102800000Y-79600000D03*
X101300000Y-77100000D03*
X102800000Y-77100000D03*
X101300000Y-79600000D03*
X104250000Y-79600000D03*
X104250000Y-78350000D03*
%TO.N,/IND*%
X161500000Y-49750000D03*
%TO.N,Net-(C16-Pad2)*%
X121000000Y-71000000D03*
X121000000Y-72000000D03*
X122000000Y-71000000D03*
X122000000Y-72000000D03*
X122000000Y-70200000D03*
X121000000Y-70200000D03*
%TO.N,/MOTOR_1_B*%
X158000000Y-79750000D03*
X161000000Y-76000000D03*
%TO.N,/MOTOR_1_A*%
X158500000Y-80500000D03*
X161758949Y-76252983D03*
%TD*%
%TA.AperFunction,Conductor*%
%TO.N,GND*%
G36*
X162023472Y-43930695D02*
G01*
X162343297Y-43948656D01*
X162357094Y-43950210D01*
X162669457Y-44003283D01*
X162683014Y-44006377D01*
X162987469Y-44094089D01*
X163000595Y-44098682D01*
X163293312Y-44219930D01*
X163305826Y-44225956D01*
X163472593Y-44318125D01*
X163583132Y-44379218D01*
X163594906Y-44386616D01*
X163853312Y-44569964D01*
X163864180Y-44578632D01*
X164100418Y-44789749D01*
X164110250Y-44799581D01*
X164321367Y-45035819D01*
X164330038Y-45046691D01*
X164513383Y-45305093D01*
X164520781Y-45316867D01*
X164674039Y-45594166D01*
X164680072Y-45606694D01*
X164801320Y-45899411D01*
X164805914Y-45912541D01*
X164811336Y-45931364D01*
X164816181Y-45965382D01*
X164942469Y-97249404D01*
X164940717Y-97270479D01*
X164896717Y-97529454D01*
X164893623Y-97543012D01*
X164805910Y-97847469D01*
X164801317Y-97860594D01*
X164680072Y-98153305D01*
X164674039Y-98165833D01*
X164520781Y-98443132D01*
X164513383Y-98454906D01*
X164330038Y-98713308D01*
X164321367Y-98724180D01*
X164110250Y-98960418D01*
X164100418Y-98970250D01*
X163864180Y-99181367D01*
X163853308Y-99190038D01*
X163594906Y-99373383D01*
X163583132Y-99380781D01*
X163305833Y-99534039D01*
X163293305Y-99540072D01*
X163000594Y-99661317D01*
X162987469Y-99665910D01*
X162683014Y-99753622D01*
X162669457Y-99756716D01*
X162357105Y-99809787D01*
X162343287Y-99811344D01*
X162023472Y-99829305D01*
X162016519Y-99829500D01*
X103023481Y-99829500D01*
X103016528Y-99829305D01*
X102696712Y-99811344D01*
X102682894Y-99809787D01*
X102370542Y-99756716D01*
X102356985Y-99753622D01*
X102052530Y-99665910D01*
X102039405Y-99661317D01*
X101746694Y-99540072D01*
X101734166Y-99534039D01*
X101456867Y-99380781D01*
X101445093Y-99373383D01*
X101186691Y-99190038D01*
X101175819Y-99181367D01*
X100939581Y-98970250D01*
X100929749Y-98960418D01*
X100718632Y-98724180D01*
X100709961Y-98713308D01*
X100526616Y-98454906D01*
X100519218Y-98443132D01*
X100485764Y-98382602D01*
X100365956Y-98165826D01*
X100359930Y-98153312D01*
X100238682Y-97860594D01*
X100234089Y-97847469D01*
X100146377Y-97543014D01*
X100143283Y-97529457D01*
X100090210Y-97217094D01*
X100088656Y-97203297D01*
X100070695Y-96883472D01*
X100070500Y-96876519D01*
X100070500Y-96393713D01*
X102149500Y-96393713D01*
X102149500Y-96606287D01*
X102182754Y-96816243D01*
X102198138Y-96863591D01*
X102248444Y-97018414D01*
X102344951Y-97207820D01*
X102469890Y-97379786D01*
X102620213Y-97530109D01*
X102792179Y-97655048D01*
X102792181Y-97655049D01*
X102792184Y-97655051D01*
X102981588Y-97751557D01*
X103183757Y-97817246D01*
X103393713Y-97850500D01*
X103393714Y-97850500D01*
X103606286Y-97850500D01*
X103606287Y-97850500D01*
X103816243Y-97817246D01*
X104018412Y-97751557D01*
X104207816Y-97655051D01*
X104229789Y-97639086D01*
X104379786Y-97530109D01*
X104379788Y-97530106D01*
X104379792Y-97530104D01*
X104530104Y-97379792D01*
X104530106Y-97379788D01*
X104530109Y-97379786D01*
X104655048Y-97207820D01*
X104655047Y-97207820D01*
X104655051Y-97207816D01*
X104751557Y-97018412D01*
X104817246Y-96816243D01*
X104833782Y-96711835D01*
X104836375Y-96701047D01*
X104836108Y-96700983D01*
X104837242Y-96696254D01*
X104837246Y-96696243D01*
X104870500Y-96486287D01*
X104870500Y-96273713D01*
X104837246Y-96063757D01*
X104771557Y-95861588D01*
X104675051Y-95672184D01*
X104675049Y-95672181D01*
X104675048Y-95672179D01*
X104550109Y-95500213D01*
X104455409Y-95405513D01*
X118299500Y-95405513D01*
X118299500Y-95594486D01*
X118329059Y-95781118D01*
X118387454Y-95960836D01*
X118439897Y-96063760D01*
X118473240Y-96129199D01*
X118584310Y-96282073D01*
X118717927Y-96415690D01*
X118870801Y-96526760D01*
X118950347Y-96567290D01*
X119039163Y-96612545D01*
X119039165Y-96612545D01*
X119039168Y-96612547D01*
X119135497Y-96643846D01*
X119218881Y-96670940D01*
X119405514Y-96700500D01*
X119405519Y-96700500D01*
X119594486Y-96700500D01*
X119781118Y-96670940D01*
X119960832Y-96612547D01*
X120129199Y-96526760D01*
X120282073Y-96415690D01*
X120415690Y-96282073D01*
X120526760Y-96129199D01*
X120612547Y-95960832D01*
X120670940Y-95781118D01*
X120700500Y-95594486D01*
X120700500Y-95405513D01*
X120670940Y-95218881D01*
X120659780Y-95184537D01*
X120612547Y-95039168D01*
X120610436Y-95035026D01*
X120608107Y-95030453D01*
X120582526Y-94980247D01*
X123349500Y-94980247D01*
X123349500Y-97019752D01*
X123361131Y-97078229D01*
X123361132Y-97078230D01*
X123405447Y-97144552D01*
X123471769Y-97188867D01*
X123471770Y-97188868D01*
X123530247Y-97200499D01*
X123530250Y-97200500D01*
X123530252Y-97200500D01*
X124469750Y-97200500D01*
X124469751Y-97200499D01*
X124484568Y-97197552D01*
X124528229Y-97188868D01*
X124528229Y-97188867D01*
X124528231Y-97188867D01*
X124594552Y-97144552D01*
X124638867Y-97078231D01*
X124638867Y-97078229D01*
X124638868Y-97078229D01*
X124650499Y-97019752D01*
X124650500Y-97019750D01*
X124650500Y-94980249D01*
X124650499Y-94980247D01*
X136849500Y-94980247D01*
X136849500Y-97019752D01*
X136861131Y-97078229D01*
X136861132Y-97078230D01*
X136905447Y-97144552D01*
X136971769Y-97188867D01*
X136971770Y-97188868D01*
X137030247Y-97200499D01*
X137030250Y-97200500D01*
X137030252Y-97200500D01*
X137969750Y-97200500D01*
X137969751Y-97200499D01*
X137984568Y-97197552D01*
X138028229Y-97188868D01*
X138028229Y-97188867D01*
X138028231Y-97188867D01*
X138094552Y-97144552D01*
X138138867Y-97078231D01*
X138138867Y-97078229D01*
X138138868Y-97078229D01*
X138150499Y-97019752D01*
X138150500Y-97019750D01*
X138150500Y-94980249D01*
X138150499Y-94980247D01*
X140849500Y-94980247D01*
X140849500Y-97019752D01*
X140861131Y-97078229D01*
X140861132Y-97078230D01*
X140905447Y-97144552D01*
X140971769Y-97188867D01*
X140971770Y-97188868D01*
X141030247Y-97200499D01*
X141030250Y-97200500D01*
X141030252Y-97200500D01*
X141969750Y-97200500D01*
X141969751Y-97200499D01*
X141984568Y-97197552D01*
X142028229Y-97188868D01*
X142028229Y-97188867D01*
X142028231Y-97188867D01*
X142094552Y-97144552D01*
X142138867Y-97078231D01*
X142138867Y-97078229D01*
X142138868Y-97078229D01*
X142150499Y-97019752D01*
X142150500Y-97019750D01*
X142150500Y-94980249D01*
X142150499Y-94980247D01*
X154349500Y-94980247D01*
X154349500Y-97019752D01*
X154361131Y-97078229D01*
X154361132Y-97078230D01*
X154405447Y-97144552D01*
X154471769Y-97188867D01*
X154471770Y-97188868D01*
X154530247Y-97200499D01*
X154530250Y-97200500D01*
X154530252Y-97200500D01*
X155469750Y-97200500D01*
X155469751Y-97200499D01*
X155484568Y-97197552D01*
X155528229Y-97188868D01*
X155528229Y-97188867D01*
X155528231Y-97188867D01*
X155594552Y-97144552D01*
X155638867Y-97078231D01*
X155638867Y-97078229D01*
X155638868Y-97078229D01*
X155650499Y-97019752D01*
X155650500Y-97019750D01*
X155650500Y-96393713D01*
X160149500Y-96393713D01*
X160149500Y-96606287D01*
X160182754Y-96816243D01*
X160198138Y-96863591D01*
X160248444Y-97018414D01*
X160344951Y-97207820D01*
X160469890Y-97379786D01*
X160620213Y-97530109D01*
X160792179Y-97655048D01*
X160792181Y-97655049D01*
X160792184Y-97655051D01*
X160981588Y-97751557D01*
X161183757Y-97817246D01*
X161393713Y-97850500D01*
X161393714Y-97850500D01*
X161606286Y-97850500D01*
X161606287Y-97850500D01*
X161816243Y-97817246D01*
X162018412Y-97751557D01*
X162207816Y-97655051D01*
X162229789Y-97639086D01*
X162379786Y-97530109D01*
X162379788Y-97530106D01*
X162379792Y-97530104D01*
X162530104Y-97379792D01*
X162530106Y-97379788D01*
X162530109Y-97379786D01*
X162655048Y-97207820D01*
X162655047Y-97207820D01*
X162655051Y-97207816D01*
X162751557Y-97018412D01*
X162817246Y-96816243D01*
X162833782Y-96711835D01*
X162836375Y-96701047D01*
X162836108Y-96700983D01*
X162837242Y-96696254D01*
X162837246Y-96696243D01*
X162870500Y-96486287D01*
X162870500Y-96273713D01*
X162837246Y-96063757D01*
X162771557Y-95861588D01*
X162675051Y-95672184D01*
X162675049Y-95672181D01*
X162675048Y-95672179D01*
X162550109Y-95500213D01*
X162399786Y-95349890D01*
X162227820Y-95224951D01*
X162038414Y-95128444D01*
X162038413Y-95128443D01*
X162038412Y-95128443D01*
X161836243Y-95062754D01*
X161836241Y-95062753D01*
X161836240Y-95062753D01*
X161674957Y-95037208D01*
X161626287Y-95029500D01*
X161413713Y-95029500D01*
X161365042Y-95037208D01*
X161203760Y-95062753D01*
X161001585Y-95128444D01*
X160812179Y-95224951D01*
X160640213Y-95349890D01*
X160489890Y-95500213D01*
X160364951Y-95672179D01*
X160268444Y-95861585D01*
X160202753Y-96063760D01*
X160186217Y-96168158D01*
X160186200Y-96168226D01*
X160186200Y-96168266D01*
X160184674Y-96177843D01*
X160182754Y-96183757D01*
X160149500Y-96393713D01*
X155650500Y-96393713D01*
X155650500Y-94980249D01*
X155650499Y-94980247D01*
X155638868Y-94921770D01*
X155638867Y-94921769D01*
X155594552Y-94855447D01*
X155528230Y-94811132D01*
X155528229Y-94811131D01*
X155469752Y-94799500D01*
X155469748Y-94799500D01*
X154530252Y-94799500D01*
X154530247Y-94799500D01*
X154471770Y-94811131D01*
X154471769Y-94811132D01*
X154405447Y-94855447D01*
X154361132Y-94921769D01*
X154361131Y-94921770D01*
X154349500Y-94980247D01*
X142150499Y-94980247D01*
X142138868Y-94921770D01*
X142138867Y-94921769D01*
X142094552Y-94855447D01*
X142028230Y-94811132D01*
X142028229Y-94811131D01*
X141969752Y-94799500D01*
X141969748Y-94799500D01*
X141030252Y-94799500D01*
X141030247Y-94799500D01*
X140971770Y-94811131D01*
X140971769Y-94811132D01*
X140905447Y-94855447D01*
X140861132Y-94921769D01*
X140861131Y-94921770D01*
X140849500Y-94980247D01*
X138150499Y-94980247D01*
X138138868Y-94921770D01*
X138138867Y-94921769D01*
X138094552Y-94855447D01*
X138028230Y-94811132D01*
X138028229Y-94811131D01*
X137969752Y-94799500D01*
X137969748Y-94799500D01*
X137030252Y-94799500D01*
X137030247Y-94799500D01*
X136971770Y-94811131D01*
X136971769Y-94811132D01*
X136905447Y-94855447D01*
X136861132Y-94921769D01*
X136861131Y-94921770D01*
X136849500Y-94980247D01*
X124650499Y-94980247D01*
X124638868Y-94921770D01*
X124638867Y-94921769D01*
X124594552Y-94855447D01*
X124528230Y-94811132D01*
X124528229Y-94811131D01*
X124469752Y-94799500D01*
X124469748Y-94799500D01*
X123530252Y-94799500D01*
X123530247Y-94799500D01*
X123471770Y-94811131D01*
X123471769Y-94811132D01*
X123405447Y-94855447D01*
X123361132Y-94921769D01*
X123361131Y-94921770D01*
X123349500Y-94980247D01*
X120582526Y-94980247D01*
X120526759Y-94870800D01*
X120515605Y-94855448D01*
X120415690Y-94717927D01*
X120282073Y-94584310D01*
X120129199Y-94473240D01*
X119960836Y-94387454D01*
X119781118Y-94329059D01*
X119594486Y-94299500D01*
X119594481Y-94299500D01*
X119405519Y-94299500D01*
X119405514Y-94299500D01*
X119218881Y-94329059D01*
X119039163Y-94387454D01*
X118870800Y-94473240D01*
X118783579Y-94536610D01*
X118717927Y-94584310D01*
X118717925Y-94584312D01*
X118717924Y-94584312D01*
X118584312Y-94717924D01*
X118584312Y-94717925D01*
X118584310Y-94717927D01*
X118536610Y-94783579D01*
X118473240Y-94870800D01*
X118387454Y-95039163D01*
X118329059Y-95218881D01*
X118299500Y-95405513D01*
X104455409Y-95405513D01*
X104399786Y-95349890D01*
X104227820Y-95224951D01*
X104038414Y-95128444D01*
X104038413Y-95128443D01*
X104038412Y-95128443D01*
X103836243Y-95062754D01*
X103836241Y-95062753D01*
X103836240Y-95062753D01*
X103674957Y-95037208D01*
X103626287Y-95029500D01*
X103413713Y-95029500D01*
X103365042Y-95037208D01*
X103203760Y-95062753D01*
X103001585Y-95128444D01*
X102812179Y-95224951D01*
X102640213Y-95349890D01*
X102489890Y-95500213D01*
X102364951Y-95672179D01*
X102268444Y-95861585D01*
X102202753Y-96063760D01*
X102186217Y-96168158D01*
X102186200Y-96168226D01*
X102186200Y-96168266D01*
X102184674Y-96177843D01*
X102182754Y-96183757D01*
X102149500Y-96393713D01*
X100070500Y-96393713D01*
X100070500Y-91178842D01*
X116902327Y-91178842D01*
X116902327Y-91321157D01*
X116939161Y-91458624D01*
X116939162Y-91458627D01*
X117010316Y-91581871D01*
X117010320Y-91581876D01*
X117010854Y-91582410D01*
X117011160Y-91582970D01*
X117015265Y-91588320D01*
X117014430Y-91588960D01*
X117044339Y-91643733D01*
X117039355Y-91713425D01*
X117030561Y-91732089D01*
X116996336Y-91791370D01*
X116996334Y-91791375D01*
X116959500Y-91928842D01*
X116959500Y-92071158D01*
X116975296Y-92130107D01*
X116996334Y-92208624D01*
X116996335Y-92208627D01*
X117067489Y-92331871D01*
X117067491Y-92331874D01*
X117067492Y-92331875D01*
X117168125Y-92432508D01*
X117291375Y-92503666D01*
X117428842Y-92540500D01*
X117428844Y-92540500D01*
X117571156Y-92540500D01*
X117571158Y-92540500D01*
X117708625Y-92503666D01*
X117813001Y-92443404D01*
X117880900Y-92426932D01*
X117936998Y-92443404D01*
X118041375Y-92503666D01*
X118178842Y-92540500D01*
X118178844Y-92540500D01*
X118321156Y-92540500D01*
X118321158Y-92540500D01*
X118458625Y-92503666D01*
X118563001Y-92443404D01*
X118630900Y-92426932D01*
X118686998Y-92443404D01*
X118791375Y-92503666D01*
X118928842Y-92540500D01*
X118928844Y-92540500D01*
X119071156Y-92540500D01*
X119071158Y-92540500D01*
X119208625Y-92503666D01*
X119331875Y-92432508D01*
X119432508Y-92331875D01*
X119503666Y-92208625D01*
X119540500Y-92071158D01*
X119540500Y-91928842D01*
X119503666Y-91791375D01*
X119432508Y-91668125D01*
X119431972Y-91667589D01*
X119431665Y-91667026D01*
X119427562Y-91661680D01*
X119428395Y-91661040D01*
X119398487Y-91606266D01*
X119403471Y-91536574D01*
X119412266Y-91517908D01*
X119414828Y-91513470D01*
X119446493Y-91458625D01*
X119483327Y-91321158D01*
X119483327Y-91178842D01*
X119446493Y-91041375D01*
X119412265Y-90982091D01*
X119395793Y-90914192D01*
X119418646Y-90848165D01*
X119431979Y-90832404D01*
X119431982Y-90832400D01*
X119432508Y-90831875D01*
X119503666Y-90708625D01*
X119540500Y-90571158D01*
X119540500Y-90428842D01*
X119503666Y-90291375D01*
X119432508Y-90168125D01*
X119331875Y-90067492D01*
X119331874Y-90067491D01*
X119331871Y-90067489D01*
X119208627Y-89996335D01*
X119208626Y-89996334D01*
X119208625Y-89996334D01*
X119071158Y-89959500D01*
X118928842Y-89959500D01*
X118791375Y-89996334D01*
X118791374Y-89996334D01*
X118686999Y-90056595D01*
X118619099Y-90073067D01*
X118563001Y-90056595D01*
X118458625Y-89996334D01*
X118419050Y-89985730D01*
X118321158Y-89959500D01*
X118178842Y-89959500D01*
X118041375Y-89996334D01*
X118041374Y-89996334D01*
X117936999Y-90056595D01*
X117869099Y-90073067D01*
X117813001Y-90056595D01*
X117708625Y-89996334D01*
X117669050Y-89985730D01*
X117571158Y-89959500D01*
X117428842Y-89959500D01*
X117291375Y-89996334D01*
X117291372Y-89996335D01*
X117168128Y-90067489D01*
X117168123Y-90067493D01*
X117067493Y-90168123D01*
X117067489Y-90168128D01*
X116996335Y-90291372D01*
X116996334Y-90291375D01*
X116959500Y-90428842D01*
X116959500Y-90571157D01*
X116996334Y-90708624D01*
X116996337Y-90708631D01*
X117030560Y-90767908D01*
X117047033Y-90835808D01*
X117024180Y-90901835D01*
X117010861Y-90917581D01*
X117010320Y-90918121D01*
X116939162Y-91041372D01*
X116939161Y-91041375D01*
X116902327Y-91178842D01*
X100070500Y-91178842D01*
X100070500Y-89849879D01*
X124859500Y-89849879D01*
X124859500Y-90150120D01*
X124859501Y-90150137D01*
X124898689Y-90447802D01*
X124898690Y-90447807D01*
X124898691Y-90447813D01*
X124976402Y-90737837D01*
X125091305Y-91015236D01*
X125241432Y-91275264D01*
X125241434Y-91275267D01*
X125241435Y-91275268D01*
X125424214Y-91513470D01*
X125424220Y-91513477D01*
X125636522Y-91725779D01*
X125636529Y-91725785D01*
X125776476Y-91833170D01*
X125874736Y-91908568D01*
X126134764Y-92058695D01*
X126412163Y-92173598D01*
X126702187Y-92251309D01*
X126999873Y-92290500D01*
X126999880Y-92290500D01*
X127300120Y-92290500D01*
X127300127Y-92290500D01*
X127597813Y-92251309D01*
X127887837Y-92173598D01*
X128165236Y-92058695D01*
X128425264Y-91908568D01*
X128663472Y-91725784D01*
X128875784Y-91513472D01*
X129058568Y-91275264D01*
X129208695Y-91015236D01*
X129323598Y-90737837D01*
X129401309Y-90447813D01*
X129440500Y-90150127D01*
X129440500Y-89849873D01*
X129401309Y-89552187D01*
X129323598Y-89262163D01*
X129208695Y-88984764D01*
X129165530Y-88910000D01*
X132059500Y-88910000D01*
X132059500Y-91089999D01*
X132070028Y-91223770D01*
X132070029Y-91223776D01*
X132125686Y-91444653D01*
X132125687Y-91444656D01*
X132219892Y-91652055D01*
X132219895Y-91652061D01*
X132349612Y-91839297D01*
X132349616Y-91839302D01*
X132349619Y-91839306D01*
X132510694Y-92000381D01*
X132510698Y-92000384D01*
X132510702Y-92000387D01*
X132697938Y-92130104D01*
X132697941Y-92130106D01*
X132905342Y-92224312D01*
X132905346Y-92224313D01*
X133126223Y-92279970D01*
X133126226Y-92279970D01*
X133126232Y-92279972D01*
X133260006Y-92290500D01*
X133260014Y-92290500D01*
X135439986Y-92290500D01*
X135439994Y-92290500D01*
X135573768Y-92279972D01*
X135794658Y-92224312D01*
X136002059Y-92130106D01*
X136189306Y-92000381D01*
X136350381Y-91839306D01*
X136480106Y-91652059D01*
X136574312Y-91444658D01*
X136629972Y-91223768D01*
X136640500Y-91089994D01*
X136640500Y-89849879D01*
X142359500Y-89849879D01*
X142359500Y-90150120D01*
X142359501Y-90150137D01*
X142398689Y-90447802D01*
X142398690Y-90447807D01*
X142398691Y-90447813D01*
X142476402Y-90737837D01*
X142591305Y-91015236D01*
X142741432Y-91275264D01*
X142741434Y-91275267D01*
X142741435Y-91275268D01*
X142924214Y-91513470D01*
X142924220Y-91513477D01*
X143136522Y-91725779D01*
X143136529Y-91725785D01*
X143276476Y-91833170D01*
X143374736Y-91908568D01*
X143634764Y-92058695D01*
X143912163Y-92173598D01*
X144202187Y-92251309D01*
X144499873Y-92290500D01*
X144499880Y-92290500D01*
X144800120Y-92290500D01*
X144800127Y-92290500D01*
X145097813Y-92251309D01*
X145387837Y-92173598D01*
X145665236Y-92058695D01*
X145925264Y-91908568D01*
X146163472Y-91725784D01*
X146375784Y-91513472D01*
X146558568Y-91275264D01*
X146708695Y-91015236D01*
X146823598Y-90737837D01*
X146901309Y-90447813D01*
X146940500Y-90150127D01*
X146940500Y-89849873D01*
X146901309Y-89552187D01*
X146823598Y-89262163D01*
X146708695Y-88984764D01*
X146558568Y-88724736D01*
X146375784Y-88486528D01*
X146375779Y-88486522D01*
X146163477Y-88274220D01*
X146163467Y-88274212D01*
X146130640Y-88249022D01*
X146008776Y-88155513D01*
X159299500Y-88155513D01*
X159299500Y-88344486D01*
X159329059Y-88531118D01*
X159387454Y-88710836D01*
X159473240Y-88879199D01*
X159584310Y-89032073D01*
X159717927Y-89165690D01*
X159870801Y-89276760D01*
X159967207Y-89325881D01*
X160024385Y-89355015D01*
X160075181Y-89402990D01*
X160091976Y-89470811D01*
X160069439Y-89536946D01*
X160014723Y-89580397D01*
X159968090Y-89589500D01*
X159695730Y-89589500D01*
X159665300Y-89592353D01*
X159665298Y-89592353D01*
X159537119Y-89637206D01*
X159537117Y-89637207D01*
X159427850Y-89717850D01*
X159347207Y-89827117D01*
X159347206Y-89827119D01*
X159302353Y-89955298D01*
X159302353Y-89955300D01*
X159299500Y-89985730D01*
X159299500Y-91594269D01*
X159302353Y-91624699D01*
X159302353Y-91624701D01*
X159337725Y-91725785D01*
X159347207Y-91752882D01*
X159427850Y-91862150D01*
X159537118Y-91942793D01*
X159579845Y-91957744D01*
X159665299Y-91987646D01*
X159695730Y-91990500D01*
X159695734Y-91990500D01*
X161304270Y-91990500D01*
X161334699Y-91987646D01*
X161334701Y-91987646D01*
X161398790Y-91965219D01*
X161462882Y-91942793D01*
X161572150Y-91862150D01*
X161652793Y-91752882D01*
X161682451Y-91668125D01*
X161697646Y-91624701D01*
X161697646Y-91624699D01*
X161700500Y-91594269D01*
X161700500Y-89985730D01*
X161697646Y-89955300D01*
X161697646Y-89955298D01*
X161652793Y-89827119D01*
X161652792Y-89827117D01*
X161572150Y-89717850D01*
X161462882Y-89637207D01*
X161462880Y-89637206D01*
X161334700Y-89592353D01*
X161304270Y-89589500D01*
X161304266Y-89589500D01*
X161031910Y-89589500D01*
X160964871Y-89569815D01*
X160919116Y-89517011D01*
X160909172Y-89447853D01*
X160938197Y-89384297D01*
X160975615Y-89355015D01*
X161010224Y-89337380D01*
X161129199Y-89276760D01*
X161282073Y-89165690D01*
X161415690Y-89032073D01*
X161526760Y-88879199D01*
X161612547Y-88710832D01*
X161670940Y-88531118D01*
X161699952Y-88347944D01*
X161700500Y-88344486D01*
X161700500Y-88155513D01*
X161670940Y-87968881D01*
X161612545Y-87789163D01*
X161526759Y-87620800D01*
X161415690Y-87467927D01*
X161282073Y-87334310D01*
X161129199Y-87223240D01*
X160960836Y-87137454D01*
X160781118Y-87079059D01*
X160594486Y-87049500D01*
X160594481Y-87049500D01*
X160405519Y-87049500D01*
X160405514Y-87049500D01*
X160218881Y-87079059D01*
X160039163Y-87137454D01*
X159870800Y-87223240D01*
X159783579Y-87286610D01*
X159717927Y-87334310D01*
X159717925Y-87334312D01*
X159717924Y-87334312D01*
X159584312Y-87467924D01*
X159584312Y-87467925D01*
X159584310Y-87467927D01*
X159536610Y-87533579D01*
X159473240Y-87620800D01*
X159387454Y-87789163D01*
X159329059Y-87968881D01*
X159299500Y-88155513D01*
X146008776Y-88155513D01*
X145925268Y-88091435D01*
X145925267Y-88091434D01*
X145925264Y-88091432D01*
X145665236Y-87941305D01*
X145387837Y-87826402D01*
X145387835Y-87826401D01*
X145387834Y-87826401D01*
X145301671Y-87803314D01*
X145097813Y-87748691D01*
X145097807Y-87748690D01*
X145097802Y-87748689D01*
X144800137Y-87709501D01*
X144800132Y-87709500D01*
X144800127Y-87709500D01*
X144499873Y-87709500D01*
X144499867Y-87709500D01*
X144499862Y-87709501D01*
X144202197Y-87748689D01*
X144202190Y-87748690D01*
X144202187Y-87748691D01*
X144116021Y-87771778D01*
X143912165Y-87826401D01*
X143634770Y-87941302D01*
X143634761Y-87941306D01*
X143374731Y-88091435D01*
X143136529Y-88274214D01*
X143136522Y-88274220D01*
X142924220Y-88486522D01*
X142924214Y-88486529D01*
X142741435Y-88724731D01*
X142591306Y-88984761D01*
X142591302Y-88984770D01*
X142476401Y-89262165D01*
X142398692Y-89552184D01*
X142398689Y-89552197D01*
X142359501Y-89849862D01*
X142359500Y-89849879D01*
X136640500Y-89849879D01*
X136640500Y-88910006D01*
X136629972Y-88776232D01*
X136613493Y-88710836D01*
X136574313Y-88555346D01*
X136574312Y-88555343D01*
X136563308Y-88531118D01*
X136480106Y-88347941D01*
X136429028Y-88274214D01*
X136350387Y-88160702D01*
X136350384Y-88160698D01*
X136350381Y-88160694D01*
X136189306Y-87999619D01*
X136189302Y-87999616D01*
X136189297Y-87999612D01*
X136002061Y-87869895D01*
X136002055Y-87869892D01*
X135794656Y-87775687D01*
X135794653Y-87775686D01*
X135573776Y-87720029D01*
X135573770Y-87720028D01*
X135439999Y-87709500D01*
X135439994Y-87709500D01*
X133260006Y-87709500D01*
X133260000Y-87709500D01*
X133126229Y-87720028D01*
X133126223Y-87720029D01*
X132905346Y-87775686D01*
X132905343Y-87775687D01*
X132697944Y-87869892D01*
X132697938Y-87869895D01*
X132510702Y-87999612D01*
X132510690Y-87999622D01*
X132349622Y-88160690D01*
X132349612Y-88160702D01*
X132219895Y-88347938D01*
X132219892Y-88347944D01*
X132125687Y-88555343D01*
X132125686Y-88555346D01*
X132070029Y-88776223D01*
X132070028Y-88776229D01*
X132059500Y-88910000D01*
X129165530Y-88910000D01*
X129058568Y-88724736D01*
X128875784Y-88486528D01*
X128875779Y-88486522D01*
X128663477Y-88274220D01*
X128663470Y-88274214D01*
X128425268Y-88091435D01*
X128425267Y-88091434D01*
X128425264Y-88091432D01*
X128165236Y-87941305D01*
X127887837Y-87826402D01*
X127887835Y-87826401D01*
X127887834Y-87826401D01*
X127801671Y-87803314D01*
X127597813Y-87748691D01*
X127597807Y-87748690D01*
X127597802Y-87748689D01*
X127300137Y-87709501D01*
X127300132Y-87709500D01*
X127300127Y-87709500D01*
X126999873Y-87709500D01*
X126999867Y-87709500D01*
X126999862Y-87709501D01*
X126702197Y-87748689D01*
X126702190Y-87748690D01*
X126702187Y-87748691D01*
X126616021Y-87771778D01*
X126412165Y-87826401D01*
X126134770Y-87941302D01*
X126134761Y-87941306D01*
X125874731Y-88091435D01*
X125636529Y-88274214D01*
X125636522Y-88274220D01*
X125424220Y-88486522D01*
X125424214Y-88486529D01*
X125241435Y-88724731D01*
X125091306Y-88984761D01*
X125091302Y-88984770D01*
X124976401Y-89262165D01*
X124898692Y-89552184D01*
X124898689Y-89552197D01*
X124859501Y-89849862D01*
X124859500Y-89849879D01*
X100070500Y-89849879D01*
X100070500Y-83170108D01*
X152899500Y-83170108D01*
X152899500Y-83301891D01*
X152933608Y-83429187D01*
X152966554Y-83486250D01*
X152999500Y-83543314D01*
X153092686Y-83636500D01*
X153206814Y-83702392D01*
X153334108Y-83736500D01*
X153334110Y-83736500D01*
X153465890Y-83736500D01*
X153465892Y-83736500D01*
X153593186Y-83702392D01*
X153707314Y-83636500D01*
X153800500Y-83543314D01*
X153866392Y-83429186D01*
X153900500Y-83301892D01*
X153900500Y-83170108D01*
X153866392Y-83042814D01*
X153800500Y-82928686D01*
X153707314Y-82835500D01*
X153623516Y-82787119D01*
X153593187Y-82769608D01*
X153529539Y-82752554D01*
X153465892Y-82735500D01*
X153334108Y-82735500D01*
X153206812Y-82769608D01*
X153092686Y-82835500D01*
X153092683Y-82835502D01*
X152999502Y-82928683D01*
X152999500Y-82928686D01*
X152933608Y-83042812D01*
X152899500Y-83170108D01*
X100070500Y-83170108D01*
X100070500Y-77028842D01*
X100759500Y-77028842D01*
X100759500Y-77171158D01*
X100782937Y-77258624D01*
X100796334Y-77308624D01*
X100796335Y-77308627D01*
X100867489Y-77431871D01*
X100867491Y-77431874D01*
X100867492Y-77431875D01*
X100968125Y-77532508D01*
X101091375Y-77603666D01*
X101097198Y-77605226D01*
X101156856Y-77641591D01*
X101187384Y-77704438D01*
X101179089Y-77773814D01*
X101134603Y-77827691D01*
X101097199Y-77844773D01*
X101091375Y-77846334D01*
X101091374Y-77846334D01*
X101091372Y-77846335D01*
X100968128Y-77917489D01*
X100968123Y-77917493D01*
X100867493Y-78018123D01*
X100867489Y-78018128D01*
X100796335Y-78141372D01*
X100796334Y-78141375D01*
X100759500Y-78278842D01*
X100759500Y-78421157D01*
X100796334Y-78558624D01*
X100796335Y-78558627D01*
X100867489Y-78681871D01*
X100867491Y-78681874D01*
X100867492Y-78681875D01*
X100968125Y-78782508D01*
X101091375Y-78853666D01*
X101097198Y-78855226D01*
X101156856Y-78891591D01*
X101187384Y-78954438D01*
X101179089Y-79023814D01*
X101134603Y-79077691D01*
X101097199Y-79094773D01*
X101091375Y-79096334D01*
X101091374Y-79096334D01*
X101091372Y-79096335D01*
X100968128Y-79167489D01*
X100968123Y-79167493D01*
X100867493Y-79268123D01*
X100867489Y-79268128D01*
X100796335Y-79391372D01*
X100796334Y-79391375D01*
X100759500Y-79528842D01*
X100759500Y-79671158D01*
X100762971Y-79684110D01*
X100796334Y-79808624D01*
X100796335Y-79808627D01*
X100867489Y-79931871D01*
X100867491Y-79931874D01*
X100867492Y-79931875D01*
X100968125Y-80032508D01*
X100968126Y-80032509D01*
X100968128Y-80032510D01*
X101011094Y-80057316D01*
X101091375Y-80103666D01*
X101097198Y-80105226D01*
X101156856Y-80141591D01*
X101187384Y-80204438D01*
X101179089Y-80273814D01*
X101134603Y-80327691D01*
X101097199Y-80344773D01*
X101091375Y-80346334D01*
X101091374Y-80346334D01*
X101091372Y-80346335D01*
X100968128Y-80417489D01*
X100968123Y-80417493D01*
X100867493Y-80518123D01*
X100867489Y-80518128D01*
X100796335Y-80641372D01*
X100796334Y-80641375D01*
X100759500Y-80778842D01*
X100759500Y-80921158D01*
X100780760Y-81000499D01*
X100796334Y-81058624D01*
X100796335Y-81058627D01*
X100867489Y-81181871D01*
X100867491Y-81181874D01*
X100867492Y-81181875D01*
X100968125Y-81282508D01*
X100968126Y-81282509D01*
X100968128Y-81282510D01*
X101006192Y-81304486D01*
X101091375Y-81353666D01*
X101228842Y-81390500D01*
X101228844Y-81390500D01*
X101371156Y-81390500D01*
X101371158Y-81390500D01*
X101508625Y-81353666D01*
X101631875Y-81282508D01*
X101732508Y-81181875D01*
X101803666Y-81058625D01*
X101840500Y-80921158D01*
X101840500Y-80778842D01*
X101803666Y-80641375D01*
X101732508Y-80518125D01*
X101631875Y-80417492D01*
X101631874Y-80417491D01*
X101631871Y-80417489D01*
X101508627Y-80346335D01*
X101508623Y-80346333D01*
X101504489Y-80345226D01*
X101502805Y-80344774D01*
X101443145Y-80308411D01*
X101412615Y-80245564D01*
X101420909Y-80176188D01*
X101465394Y-80122310D01*
X101502804Y-80105225D01*
X101508625Y-80103666D01*
X101631875Y-80032508D01*
X101732508Y-79931875D01*
X101803666Y-79808625D01*
X101840500Y-79671158D01*
X101840500Y-79528842D01*
X101803666Y-79391375D01*
X101732508Y-79268125D01*
X101631875Y-79167492D01*
X101631874Y-79167491D01*
X101631871Y-79167489D01*
X101508627Y-79096335D01*
X101508623Y-79096333D01*
X101504489Y-79095226D01*
X101502805Y-79094774D01*
X101443145Y-79058411D01*
X101412615Y-78995564D01*
X101420909Y-78926188D01*
X101465394Y-78872310D01*
X101502804Y-78855225D01*
X101508625Y-78853666D01*
X101631875Y-78782508D01*
X101732508Y-78681875D01*
X101803666Y-78558625D01*
X101840500Y-78421158D01*
X101840500Y-78278842D01*
X101803666Y-78141375D01*
X101732508Y-78018125D01*
X101631875Y-77917492D01*
X101631874Y-77917491D01*
X101631871Y-77917489D01*
X101508627Y-77846335D01*
X101508623Y-77846333D01*
X101504489Y-77845226D01*
X101502805Y-77844774D01*
X101443145Y-77808411D01*
X101412615Y-77745564D01*
X101420909Y-77676188D01*
X101465394Y-77622310D01*
X101502804Y-77605225D01*
X101508625Y-77603666D01*
X101631875Y-77532508D01*
X101732508Y-77431875D01*
X101803666Y-77308625D01*
X101840500Y-77171158D01*
X101840500Y-77028842D01*
X102259500Y-77028842D01*
X102259500Y-77171158D01*
X102282937Y-77258624D01*
X102296334Y-77308624D01*
X102296335Y-77308627D01*
X102367489Y-77431871D01*
X102367491Y-77431874D01*
X102367492Y-77431875D01*
X102468125Y-77532508D01*
X102591375Y-77603666D01*
X102597198Y-77605226D01*
X102656856Y-77641591D01*
X102687384Y-77704438D01*
X102679089Y-77773814D01*
X102634603Y-77827691D01*
X102597199Y-77844773D01*
X102591375Y-77846334D01*
X102591374Y-77846334D01*
X102591372Y-77846335D01*
X102468128Y-77917489D01*
X102468123Y-77917493D01*
X102367493Y-78018123D01*
X102367489Y-78018128D01*
X102296335Y-78141372D01*
X102296334Y-78141375D01*
X102259500Y-78278842D01*
X102259500Y-78421157D01*
X102296334Y-78558624D01*
X102296335Y-78558627D01*
X102367489Y-78681871D01*
X102367491Y-78681874D01*
X102367492Y-78681875D01*
X102468125Y-78782508D01*
X102591375Y-78853666D01*
X102597198Y-78855226D01*
X102656856Y-78891591D01*
X102687384Y-78954438D01*
X102679089Y-79023814D01*
X102634603Y-79077691D01*
X102597199Y-79094773D01*
X102591375Y-79096334D01*
X102591374Y-79096334D01*
X102591372Y-79096335D01*
X102468128Y-79167489D01*
X102468123Y-79167493D01*
X102367493Y-79268123D01*
X102367489Y-79268128D01*
X102296335Y-79391372D01*
X102296334Y-79391375D01*
X102259500Y-79528842D01*
X102259500Y-79671158D01*
X102262971Y-79684110D01*
X102296334Y-79808624D01*
X102296335Y-79808627D01*
X102367489Y-79931871D01*
X102367491Y-79931874D01*
X102367492Y-79931875D01*
X102468125Y-80032508D01*
X102468126Y-80032509D01*
X102468128Y-80032510D01*
X102511094Y-80057316D01*
X102591375Y-80103666D01*
X102597198Y-80105226D01*
X102656856Y-80141591D01*
X102687384Y-80204438D01*
X102679089Y-80273814D01*
X102634603Y-80327691D01*
X102597199Y-80344773D01*
X102591375Y-80346334D01*
X102591374Y-80346334D01*
X102591372Y-80346335D01*
X102468128Y-80417489D01*
X102468123Y-80417493D01*
X102367493Y-80518123D01*
X102367489Y-80518128D01*
X102296335Y-80641372D01*
X102296334Y-80641375D01*
X102259500Y-80778842D01*
X102259500Y-80921158D01*
X102280760Y-81000499D01*
X102296334Y-81058624D01*
X102296335Y-81058627D01*
X102367489Y-81181871D01*
X102367491Y-81181874D01*
X102367492Y-81181875D01*
X102468125Y-81282508D01*
X102468126Y-81282509D01*
X102468128Y-81282510D01*
X102506192Y-81304486D01*
X102591375Y-81353666D01*
X102728842Y-81390500D01*
X102728844Y-81390500D01*
X102871156Y-81390500D01*
X102871158Y-81390500D01*
X103008625Y-81353666D01*
X103131875Y-81282508D01*
X103232508Y-81181875D01*
X103270822Y-81115513D01*
X159299500Y-81115513D01*
X159299500Y-81304486D01*
X159329059Y-81491118D01*
X159387454Y-81670836D01*
X159473240Y-81839199D01*
X159584310Y-81992073D01*
X159717927Y-82125690D01*
X159870801Y-82236760D01*
X159967207Y-82285881D01*
X160024385Y-82315015D01*
X160075181Y-82362990D01*
X160091976Y-82430811D01*
X160069439Y-82496946D01*
X160014723Y-82540397D01*
X159968090Y-82549500D01*
X159695730Y-82549500D01*
X159665300Y-82552353D01*
X159665298Y-82552353D01*
X159537119Y-82597206D01*
X159537117Y-82597207D01*
X159427850Y-82677850D01*
X159347207Y-82787117D01*
X159347206Y-82787119D01*
X159302353Y-82915298D01*
X159302353Y-82915300D01*
X159299500Y-82945730D01*
X159299500Y-84554269D01*
X159302353Y-84584699D01*
X159302353Y-84584701D01*
X159347206Y-84712880D01*
X159347207Y-84712882D01*
X159427850Y-84822150D01*
X159537118Y-84902793D01*
X159579845Y-84917744D01*
X159665299Y-84947646D01*
X159695730Y-84950500D01*
X159695734Y-84950500D01*
X161304270Y-84950500D01*
X161334699Y-84947646D01*
X161334701Y-84947646D01*
X161398790Y-84925219D01*
X161462882Y-84902793D01*
X161572150Y-84822150D01*
X161652793Y-84712882D01*
X161675219Y-84648790D01*
X161697646Y-84584701D01*
X161697646Y-84584699D01*
X161700500Y-84554269D01*
X161700500Y-82945730D01*
X161697646Y-82915300D01*
X161697646Y-82915298D01*
X161652793Y-82787119D01*
X161652792Y-82787117D01*
X161614697Y-82735500D01*
X161572150Y-82677850D01*
X161462882Y-82597207D01*
X161462880Y-82597206D01*
X161334700Y-82552353D01*
X161304270Y-82549500D01*
X161304266Y-82549500D01*
X161031910Y-82549500D01*
X160964871Y-82529815D01*
X160919116Y-82477011D01*
X160909172Y-82407853D01*
X160938197Y-82344297D01*
X160975615Y-82315015D01*
X161010224Y-82297380D01*
X161129199Y-82236760D01*
X161282073Y-82125690D01*
X161415690Y-81992073D01*
X161526760Y-81839199D01*
X161612547Y-81670832D01*
X161670940Y-81491118D01*
X161700500Y-81304486D01*
X161700500Y-81115513D01*
X161670940Y-80928881D01*
X161643846Y-80845497D01*
X161612547Y-80749168D01*
X161612545Y-80749165D01*
X161612545Y-80749163D01*
X161526759Y-80580800D01*
X161515926Y-80565890D01*
X161415690Y-80427927D01*
X161282073Y-80294310D01*
X161129199Y-80183240D01*
X161115359Y-80176188D01*
X160960836Y-80097454D01*
X160781118Y-80039059D01*
X160594486Y-80009500D01*
X160594481Y-80009500D01*
X160405519Y-80009500D01*
X160405514Y-80009500D01*
X160218881Y-80039059D01*
X160039163Y-80097454D01*
X159870800Y-80183240D01*
X159825171Y-80216392D01*
X159717927Y-80294310D01*
X159717925Y-80294312D01*
X159717924Y-80294312D01*
X159584312Y-80427924D01*
X159584312Y-80427925D01*
X159584310Y-80427927D01*
X159579818Y-80434110D01*
X159473240Y-80580800D01*
X159387454Y-80749163D01*
X159329059Y-80928881D01*
X159299500Y-81115513D01*
X103270822Y-81115513D01*
X103303666Y-81058625D01*
X103340500Y-80921158D01*
X103340500Y-80778842D01*
X103303666Y-80641375D01*
X103232508Y-80518125D01*
X103131875Y-80417492D01*
X103131874Y-80417491D01*
X103131871Y-80417489D01*
X103008627Y-80346335D01*
X103008623Y-80346333D01*
X103004489Y-80345226D01*
X103002805Y-80344774D01*
X102943145Y-80308411D01*
X102912615Y-80245564D01*
X102920909Y-80176188D01*
X102965394Y-80122310D01*
X103002804Y-80105225D01*
X103008625Y-80103666D01*
X103131875Y-80032508D01*
X103232508Y-79931875D01*
X103303666Y-79808625D01*
X103340500Y-79671158D01*
X103340500Y-79528842D01*
X103303666Y-79391375D01*
X103232508Y-79268125D01*
X103131875Y-79167492D01*
X103131874Y-79167491D01*
X103131871Y-79167489D01*
X103008627Y-79096335D01*
X103008623Y-79096333D01*
X103004489Y-79095226D01*
X103002805Y-79094774D01*
X102943145Y-79058411D01*
X102912615Y-78995564D01*
X102920909Y-78926188D01*
X102965394Y-78872310D01*
X103002804Y-78855225D01*
X103008625Y-78853666D01*
X103131875Y-78782508D01*
X103232508Y-78681875D01*
X103303666Y-78558625D01*
X103340500Y-78421158D01*
X103340500Y-78278842D01*
X103303666Y-78141375D01*
X103232508Y-78018125D01*
X103131875Y-77917492D01*
X103131874Y-77917491D01*
X103131871Y-77917489D01*
X103008627Y-77846335D01*
X103008623Y-77846333D01*
X103004489Y-77845226D01*
X103002805Y-77844774D01*
X102943145Y-77808411D01*
X102912615Y-77745564D01*
X102920909Y-77676188D01*
X102965394Y-77622310D01*
X103002804Y-77605225D01*
X103008625Y-77603666D01*
X103131875Y-77532508D01*
X103232508Y-77431875D01*
X103303666Y-77308625D01*
X103340500Y-77171158D01*
X103340500Y-77028842D01*
X103709500Y-77028842D01*
X103709500Y-77171158D01*
X103732937Y-77258624D01*
X103746334Y-77308624D01*
X103746335Y-77308627D01*
X103817489Y-77431871D01*
X103817491Y-77431874D01*
X103817492Y-77431875D01*
X103918125Y-77532508D01*
X104041375Y-77603666D01*
X104047198Y-77605226D01*
X104106856Y-77641591D01*
X104137384Y-77704438D01*
X104129089Y-77773814D01*
X104084603Y-77827691D01*
X104047199Y-77844773D01*
X104041375Y-77846334D01*
X104041374Y-77846334D01*
X104041372Y-77846335D01*
X103918128Y-77917489D01*
X103918123Y-77917493D01*
X103817493Y-78018123D01*
X103817489Y-78018128D01*
X103746335Y-78141372D01*
X103746334Y-78141375D01*
X103709500Y-78278842D01*
X103709500Y-78421157D01*
X103746334Y-78558624D01*
X103746335Y-78558627D01*
X103817489Y-78681871D01*
X103817491Y-78681874D01*
X103817492Y-78681875D01*
X103918125Y-78782508D01*
X104041375Y-78853666D01*
X104047198Y-78855226D01*
X104106856Y-78891591D01*
X104137384Y-78954438D01*
X104129089Y-79023814D01*
X104084603Y-79077691D01*
X104047199Y-79094773D01*
X104041375Y-79096334D01*
X104041374Y-79096334D01*
X104041372Y-79096335D01*
X103918128Y-79167489D01*
X103918123Y-79167493D01*
X103817493Y-79268123D01*
X103817489Y-79268128D01*
X103746335Y-79391372D01*
X103746334Y-79391375D01*
X103709500Y-79528842D01*
X103709500Y-79671158D01*
X103712971Y-79684110D01*
X103746334Y-79808624D01*
X103746335Y-79808627D01*
X103817489Y-79931871D01*
X103817491Y-79931874D01*
X103817492Y-79931875D01*
X103918125Y-80032508D01*
X103918126Y-80032509D01*
X103918128Y-80032510D01*
X103961094Y-80057316D01*
X104041375Y-80103666D01*
X104178842Y-80140500D01*
X104178844Y-80140500D01*
X104321156Y-80140500D01*
X104321158Y-80140500D01*
X104458625Y-80103666D01*
X104581875Y-80032508D01*
X104682508Y-79931875D01*
X104753666Y-79808625D01*
X104787030Y-79684108D01*
X157499500Y-79684108D01*
X157499500Y-79815892D01*
X157516554Y-79879539D01*
X157533608Y-79943187D01*
X157547115Y-79966581D01*
X157599500Y-80057314D01*
X157692686Y-80150500D01*
X157806814Y-80216392D01*
X157921247Y-80247054D01*
X157980907Y-80283418D01*
X158011436Y-80346264D01*
X158008928Y-80398920D01*
X157999500Y-80434106D01*
X157999500Y-80565891D01*
X158033608Y-80693187D01*
X158065926Y-80749163D01*
X158099500Y-80807314D01*
X158192686Y-80900500D01*
X158306814Y-80966392D01*
X158434108Y-81000500D01*
X158434110Y-81000500D01*
X158565890Y-81000500D01*
X158565892Y-81000500D01*
X158693186Y-80966392D01*
X158807314Y-80900500D01*
X158900500Y-80807314D01*
X158966392Y-80693186D01*
X159000500Y-80565892D01*
X159000500Y-80434108D01*
X158966392Y-80306814D01*
X158900500Y-80192686D01*
X158807314Y-80099500D01*
X158693186Y-80033608D01*
X158578751Y-80002945D01*
X158519092Y-79966581D01*
X158488563Y-79903734D01*
X158491071Y-79851078D01*
X158500500Y-79815892D01*
X158500500Y-79684108D01*
X158466392Y-79556814D01*
X158400500Y-79442686D01*
X158307314Y-79349500D01*
X158250250Y-79316554D01*
X158193187Y-79283608D01*
X158129539Y-79266554D01*
X158065892Y-79249500D01*
X157934108Y-79249500D01*
X157806812Y-79283608D01*
X157692686Y-79349500D01*
X157692683Y-79349502D01*
X157599502Y-79442683D01*
X157599500Y-79442686D01*
X157533608Y-79556812D01*
X157502970Y-79671156D01*
X157499500Y-79684108D01*
X104787030Y-79684108D01*
X104790500Y-79671158D01*
X104790500Y-79528842D01*
X104753666Y-79391375D01*
X104682508Y-79268125D01*
X104581875Y-79167492D01*
X104581874Y-79167491D01*
X104581871Y-79167489D01*
X104458627Y-79096335D01*
X104458623Y-79096333D01*
X104454489Y-79095226D01*
X104452805Y-79094774D01*
X104393145Y-79058411D01*
X104362615Y-78995564D01*
X104370909Y-78926188D01*
X104415394Y-78872310D01*
X104452804Y-78855225D01*
X104458625Y-78853666D01*
X104581875Y-78782508D01*
X104682508Y-78681875D01*
X104753666Y-78558625D01*
X104790500Y-78421158D01*
X104790500Y-78278842D01*
X104753666Y-78141375D01*
X104682508Y-78018125D01*
X104581875Y-77917492D01*
X104581874Y-77917491D01*
X104581871Y-77917489D01*
X104458627Y-77846335D01*
X104458623Y-77846333D01*
X104454489Y-77845226D01*
X104452805Y-77844774D01*
X104393145Y-77808411D01*
X104362615Y-77745564D01*
X104369962Y-77684108D01*
X150249500Y-77684108D01*
X150249500Y-77815891D01*
X150283608Y-77943187D01*
X150316554Y-78000250D01*
X150349500Y-78057314D01*
X150442686Y-78150500D01*
X150556814Y-78216392D01*
X150684108Y-78250500D01*
X150684110Y-78250500D01*
X150815890Y-78250500D01*
X150815892Y-78250500D01*
X150943186Y-78216392D01*
X151057314Y-78150500D01*
X151150500Y-78057314D01*
X151216392Y-77943186D01*
X151250500Y-77815892D01*
X151250500Y-77684108D01*
X151216392Y-77556814D01*
X151214574Y-77553666D01*
X151173490Y-77482506D01*
X151150500Y-77442686D01*
X151057314Y-77349500D01*
X150986515Y-77308624D01*
X150943187Y-77283608D01*
X150879539Y-77266554D01*
X150815892Y-77249500D01*
X150684108Y-77249500D01*
X150556812Y-77283608D01*
X150442686Y-77349500D01*
X150442683Y-77349502D01*
X150349502Y-77442683D01*
X150349500Y-77442686D01*
X150283608Y-77556812D01*
X150249500Y-77684108D01*
X104369962Y-77684108D01*
X104370909Y-77676188D01*
X104415394Y-77622310D01*
X104452804Y-77605225D01*
X104458625Y-77603666D01*
X104581875Y-77532508D01*
X104682508Y-77431875D01*
X104753666Y-77308625D01*
X104790500Y-77171158D01*
X104790500Y-77028842D01*
X104753666Y-76891375D01*
X104682508Y-76768125D01*
X104581875Y-76667492D01*
X104581874Y-76667491D01*
X104581871Y-76667489D01*
X104458627Y-76596335D01*
X104458626Y-76596334D01*
X104458625Y-76596334D01*
X104321158Y-76559500D01*
X104178842Y-76559500D01*
X104041375Y-76596334D01*
X104041372Y-76596335D01*
X103918128Y-76667489D01*
X103918123Y-76667493D01*
X103817493Y-76768123D01*
X103817489Y-76768128D01*
X103746335Y-76891372D01*
X103746334Y-76891375D01*
X103709500Y-77028842D01*
X103340500Y-77028842D01*
X103303666Y-76891375D01*
X103232508Y-76768125D01*
X103131875Y-76667492D01*
X103131874Y-76667491D01*
X103131871Y-76667489D01*
X103008627Y-76596335D01*
X103008626Y-76596334D01*
X103008625Y-76596334D01*
X102871158Y-76559500D01*
X102728842Y-76559500D01*
X102591375Y-76596334D01*
X102591372Y-76596335D01*
X102468128Y-76667489D01*
X102468123Y-76667493D01*
X102367493Y-76768123D01*
X102367489Y-76768128D01*
X102296335Y-76891372D01*
X102296334Y-76891375D01*
X102259500Y-77028842D01*
X101840500Y-77028842D01*
X101803666Y-76891375D01*
X101732508Y-76768125D01*
X101631875Y-76667492D01*
X101631874Y-76667491D01*
X101631871Y-76667489D01*
X101508627Y-76596335D01*
X101508626Y-76596334D01*
X101508625Y-76596334D01*
X101371158Y-76559500D01*
X101228842Y-76559500D01*
X101091375Y-76596334D01*
X101091372Y-76596335D01*
X100968128Y-76667489D01*
X100968123Y-76667493D01*
X100867493Y-76768123D01*
X100867489Y-76768128D01*
X100796335Y-76891372D01*
X100796334Y-76891375D01*
X100759500Y-77028842D01*
X100070500Y-77028842D01*
X100070500Y-73830247D01*
X101199500Y-73830247D01*
X101199500Y-74769752D01*
X101211131Y-74828229D01*
X101211132Y-74828230D01*
X101255447Y-74894552D01*
X101321769Y-74938867D01*
X101321770Y-74938868D01*
X101380247Y-74950499D01*
X101380250Y-74950500D01*
X101380252Y-74950500D01*
X103419750Y-74950500D01*
X103419751Y-74950499D01*
X103434568Y-74947552D01*
X103478229Y-74938868D01*
X103478229Y-74938867D01*
X103478231Y-74938867D01*
X103544552Y-74894552D01*
X103588867Y-74828231D01*
X103588867Y-74828229D01*
X103588868Y-74828229D01*
X103600499Y-74769752D01*
X103600500Y-74769750D01*
X103600500Y-74734108D01*
X115299500Y-74734108D01*
X115299500Y-74865891D01*
X115333608Y-74993187D01*
X115346011Y-75014669D01*
X115399500Y-75107314D01*
X115492686Y-75200500D01*
X115606814Y-75266392D01*
X115734108Y-75300500D01*
X115734110Y-75300500D01*
X115865890Y-75300500D01*
X115865892Y-75300500D01*
X115993186Y-75266392D01*
X116107314Y-75200500D01*
X116200500Y-75107314D01*
X116266392Y-74993186D01*
X116300500Y-74865892D01*
X116300500Y-74734108D01*
X116281734Y-74664071D01*
X127149499Y-74664071D01*
X127174497Y-74789738D01*
X127174499Y-74789744D01*
X127223533Y-74908124D01*
X127223538Y-74908133D01*
X127294723Y-75014668D01*
X127294726Y-75014672D01*
X127385327Y-75105273D01*
X127385331Y-75105276D01*
X127491866Y-75176461D01*
X127491872Y-75176464D01*
X127491873Y-75176465D01*
X127610256Y-75225501D01*
X127610260Y-75225501D01*
X127610261Y-75225502D01*
X127735928Y-75250500D01*
X127735931Y-75250500D01*
X127864071Y-75250500D01*
X127948615Y-75233682D01*
X127989744Y-75225501D01*
X128108127Y-75176465D01*
X128214669Y-75105276D01*
X128305276Y-75014669D01*
X128376465Y-74908127D01*
X128425501Y-74789744D01*
X128427670Y-74778842D01*
X145209500Y-74778842D01*
X145209500Y-74921158D01*
X145214246Y-74938868D01*
X145246334Y-75058624D01*
X145246335Y-75058627D01*
X145317489Y-75181871D01*
X145317491Y-75181874D01*
X145317492Y-75181875D01*
X145418125Y-75282508D01*
X145418127Y-75282509D01*
X145418131Y-75282512D01*
X145435627Y-75292614D01*
X145483842Y-75343181D01*
X145497064Y-75411788D01*
X145471096Y-75476653D01*
X145435627Y-75507386D01*
X145418131Y-75517487D01*
X145418123Y-75517493D01*
X145317493Y-75618123D01*
X145317489Y-75618128D01*
X145246335Y-75741372D01*
X145246334Y-75741375D01*
X145209500Y-75878842D01*
X145209500Y-76021158D01*
X145221487Y-76065892D01*
X145246334Y-76158624D01*
X145246335Y-76158627D01*
X145317489Y-76281871D01*
X145317491Y-76281874D01*
X145317492Y-76281875D01*
X145418125Y-76382508D01*
X145418127Y-76382509D01*
X145418131Y-76382512D01*
X145435627Y-76392614D01*
X145483842Y-76443181D01*
X145497064Y-76511788D01*
X145471096Y-76576653D01*
X145435627Y-76607386D01*
X145418131Y-76617487D01*
X145418123Y-76617493D01*
X145317493Y-76718123D01*
X145317489Y-76718128D01*
X145246335Y-76841372D01*
X145246334Y-76841375D01*
X145209500Y-76978842D01*
X145209500Y-77121158D01*
X145222898Y-77171158D01*
X145246334Y-77258624D01*
X145246335Y-77258627D01*
X145317489Y-77381871D01*
X145317491Y-77381874D01*
X145317492Y-77381875D01*
X145418125Y-77482508D01*
X145541375Y-77553666D01*
X145678842Y-77590500D01*
X145678844Y-77590500D01*
X145821156Y-77590500D01*
X145821158Y-77590500D01*
X145958625Y-77553666D01*
X146081875Y-77482508D01*
X146182508Y-77381875D01*
X146253666Y-77258625D01*
X146290500Y-77121158D01*
X146290500Y-76978842D01*
X146253666Y-76841375D01*
X146182508Y-76718125D01*
X146081875Y-76617492D01*
X146081873Y-76617491D01*
X146081868Y-76617487D01*
X146064374Y-76607387D01*
X146016158Y-76556821D01*
X146002934Y-76488214D01*
X146028902Y-76423349D01*
X146064374Y-76392613D01*
X146081868Y-76382512D01*
X146081867Y-76382512D01*
X146081875Y-76382508D01*
X146182508Y-76281875D01*
X146253666Y-76158625D01*
X146290500Y-76021158D01*
X146290500Y-75878842D01*
X146253666Y-75741375D01*
X146182508Y-75618125D01*
X146081875Y-75517492D01*
X146081873Y-75517491D01*
X146081868Y-75517487D01*
X146064374Y-75507387D01*
X146016158Y-75456821D01*
X146002934Y-75388214D01*
X146028902Y-75323349D01*
X146064374Y-75292613D01*
X146081868Y-75282512D01*
X146081867Y-75282512D01*
X146081875Y-75282508D01*
X146182508Y-75181875D01*
X146253666Y-75058625D01*
X146288441Y-74928842D01*
X159709500Y-74928842D01*
X159709500Y-75071158D01*
X159739167Y-75181875D01*
X159746334Y-75208624D01*
X159746335Y-75208627D01*
X159817489Y-75331871D01*
X159817491Y-75331874D01*
X159817492Y-75331875D01*
X159918125Y-75432508D01*
X159918126Y-75432509D01*
X159918128Y-75432510D01*
X159979750Y-75468087D01*
X160041375Y-75503666D01*
X160178842Y-75540500D01*
X160178844Y-75540500D01*
X160321155Y-75540500D01*
X160321158Y-75540500D01*
X160458625Y-75503666D01*
X160458630Y-75503663D01*
X160465695Y-75501770D01*
X160535545Y-75503433D01*
X160593407Y-75542595D01*
X160620912Y-75606823D01*
X160609326Y-75675726D01*
X160603294Y-75685492D01*
X160603564Y-75685648D01*
X160599501Y-75692684D01*
X160599500Y-75692686D01*
X160579684Y-75727006D01*
X160533608Y-75806812D01*
X160499500Y-75934108D01*
X160499500Y-76065891D01*
X160533608Y-76193187D01*
X160566554Y-76250250D01*
X160599500Y-76307314D01*
X160692686Y-76400500D01*
X160806814Y-76466392D01*
X160934108Y-76500500D01*
X160934110Y-76500500D01*
X161065889Y-76500500D01*
X161065892Y-76500500D01*
X161193186Y-76466392D01*
X161193189Y-76466390D01*
X161197448Y-76465249D01*
X161267298Y-76466912D01*
X161325161Y-76506074D01*
X161336927Y-76523021D01*
X161358449Y-76560297D01*
X161451635Y-76653483D01*
X161565763Y-76719375D01*
X161693057Y-76753483D01*
X161693059Y-76753483D01*
X161824839Y-76753483D01*
X161824841Y-76753483D01*
X161952135Y-76719375D01*
X162066263Y-76653483D01*
X162159449Y-76560297D01*
X162225341Y-76446169D01*
X162259449Y-76318875D01*
X162259449Y-76187091D01*
X162225341Y-76059797D01*
X162159449Y-75945669D01*
X162066263Y-75852483D01*
X162009199Y-75819537D01*
X161952136Y-75786591D01*
X161888488Y-75769537D01*
X161824841Y-75752483D01*
X161693057Y-75752483D01*
X161561499Y-75787733D01*
X161491649Y-75786070D01*
X161433786Y-75746907D01*
X161422019Y-75729958D01*
X161400500Y-75692686D01*
X161307314Y-75599500D01*
X161250250Y-75566554D01*
X161193187Y-75533608D01*
X161129539Y-75516554D01*
X161065892Y-75499500D01*
X160934108Y-75499500D01*
X160934106Y-75499500D01*
X160808318Y-75533204D01*
X160738468Y-75531541D01*
X160680606Y-75492378D01*
X160653103Y-75428149D01*
X160664690Y-75359247D01*
X160677858Y-75337932D01*
X160682499Y-75331883D01*
X160682508Y-75331875D01*
X160753666Y-75208625D01*
X160790500Y-75071158D01*
X160790500Y-74928842D01*
X160753666Y-74791375D01*
X160682508Y-74668125D01*
X160581875Y-74567492D01*
X160581874Y-74567491D01*
X160581871Y-74567489D01*
X160458627Y-74496335D01*
X160458626Y-74496334D01*
X160458625Y-74496334D01*
X160321158Y-74459500D01*
X160178842Y-74459500D01*
X160041375Y-74496334D01*
X160041372Y-74496335D01*
X159918128Y-74567489D01*
X159918123Y-74567493D01*
X159817493Y-74668123D01*
X159817489Y-74668128D01*
X159746335Y-74791372D01*
X159746334Y-74791375D01*
X159709500Y-74928842D01*
X146288441Y-74928842D01*
X146290500Y-74921158D01*
X146290500Y-74778842D01*
X146253666Y-74641375D01*
X146218087Y-74579750D01*
X146182510Y-74518128D01*
X146182506Y-74518123D01*
X146081876Y-74417493D01*
X146081871Y-74417489D01*
X145958627Y-74346335D01*
X145958626Y-74346334D01*
X145958625Y-74346334D01*
X145821158Y-74309500D01*
X145678842Y-74309500D01*
X145541375Y-74346334D01*
X145541372Y-74346335D01*
X145418128Y-74417489D01*
X145418123Y-74417493D01*
X145317493Y-74518123D01*
X145317489Y-74518128D01*
X145246335Y-74641372D01*
X145246334Y-74641375D01*
X145209500Y-74778842D01*
X128427670Y-74778842D01*
X128429479Y-74769748D01*
X128434099Y-74746523D01*
X128450500Y-74664071D01*
X128450500Y-74535928D01*
X128425502Y-74410261D01*
X128425501Y-74410260D01*
X128425501Y-74410256D01*
X128376465Y-74291873D01*
X128376464Y-74291872D01*
X128376461Y-74291866D01*
X128305276Y-74185331D01*
X128305273Y-74185327D01*
X128214672Y-74094726D01*
X128214668Y-74094723D01*
X128108133Y-74023538D01*
X128108124Y-74023533D01*
X127989744Y-73974499D01*
X127989738Y-73974497D01*
X127864071Y-73949500D01*
X127864069Y-73949500D01*
X127735931Y-73949500D01*
X127735929Y-73949500D01*
X127610261Y-73974497D01*
X127610255Y-73974499D01*
X127491875Y-74023533D01*
X127491866Y-74023538D01*
X127385331Y-74094723D01*
X127385327Y-74094726D01*
X127294726Y-74185327D01*
X127294723Y-74185331D01*
X127223538Y-74291866D01*
X127223533Y-74291875D01*
X127174499Y-74410255D01*
X127174497Y-74410261D01*
X127149500Y-74535928D01*
X127149500Y-74535931D01*
X127149500Y-74664069D01*
X127149500Y-74664071D01*
X127149499Y-74664071D01*
X116281734Y-74664071D01*
X116266392Y-74606814D01*
X116200500Y-74492686D01*
X116107314Y-74399500D01*
X116015230Y-74346335D01*
X115993187Y-74333608D01*
X115929539Y-74316554D01*
X115865892Y-74299500D01*
X115734108Y-74299500D01*
X115606812Y-74333608D01*
X115492686Y-74399500D01*
X115492683Y-74399502D01*
X115399502Y-74492683D01*
X115399500Y-74492686D01*
X115333608Y-74606812D01*
X115299500Y-74734108D01*
X103600500Y-74734108D01*
X103600500Y-73830249D01*
X103600499Y-73830247D01*
X103588868Y-73771770D01*
X103588867Y-73771769D01*
X103544552Y-73705447D01*
X103497214Y-73673817D01*
X103478230Y-73661132D01*
X103478229Y-73661131D01*
X103419752Y-73649500D01*
X103419748Y-73649500D01*
X101380252Y-73649500D01*
X101380247Y-73649500D01*
X101321770Y-73661131D01*
X101321769Y-73661132D01*
X101255447Y-73705447D01*
X101211132Y-73771769D01*
X101211131Y-73771770D01*
X101199500Y-73830247D01*
X100070500Y-73830247D01*
X100070500Y-73578842D01*
X133459500Y-73578842D01*
X133459500Y-73721158D01*
X133473062Y-73771770D01*
X133496334Y-73858624D01*
X133496335Y-73858627D01*
X133567489Y-73981871D01*
X133567491Y-73981874D01*
X133567492Y-73981875D01*
X133668125Y-74082508D01*
X133791375Y-74153666D01*
X133928842Y-74190500D01*
X133928844Y-74190500D01*
X134071156Y-74190500D01*
X134071158Y-74190500D01*
X134208625Y-74153666D01*
X134331875Y-74082508D01*
X134412319Y-74002064D01*
X134473642Y-73968579D01*
X134543334Y-73973563D01*
X134587681Y-74002064D01*
X134668125Y-74082508D01*
X134791375Y-74153666D01*
X134928842Y-74190500D01*
X134928844Y-74190500D01*
X135071156Y-74190500D01*
X135071158Y-74190500D01*
X135208625Y-74153666D01*
X135331875Y-74082508D01*
X135412319Y-74002064D01*
X135473642Y-73968579D01*
X135543334Y-73973563D01*
X135587681Y-74002064D01*
X135668125Y-74082508D01*
X135791375Y-74153666D01*
X135928842Y-74190500D01*
X135928844Y-74190500D01*
X136071156Y-74190500D01*
X136071158Y-74190500D01*
X136208625Y-74153666D01*
X136331875Y-74082508D01*
X136432508Y-73981875D01*
X136503666Y-73858625D01*
X136540500Y-73721158D01*
X136540500Y-73578842D01*
X136503666Y-73441375D01*
X136468087Y-73379750D01*
X136432510Y-73318128D01*
X136432506Y-73318123D01*
X136331876Y-73217493D01*
X136331871Y-73217489D01*
X136208627Y-73146335D01*
X136208626Y-73146334D01*
X136208625Y-73146334D01*
X136071158Y-73109500D01*
X135928842Y-73109500D01*
X135791375Y-73146334D01*
X135791372Y-73146335D01*
X135668128Y-73217489D01*
X135668123Y-73217493D01*
X135587681Y-73297936D01*
X135526358Y-73331421D01*
X135456666Y-73326437D01*
X135412319Y-73297936D01*
X135331876Y-73217493D01*
X135331871Y-73217489D01*
X135208627Y-73146335D01*
X135208626Y-73146334D01*
X135208625Y-73146334D01*
X135071158Y-73109500D01*
X134928842Y-73109500D01*
X134791375Y-73146334D01*
X134791372Y-73146335D01*
X134668128Y-73217489D01*
X134668123Y-73217493D01*
X134587681Y-73297936D01*
X134526358Y-73331421D01*
X134456666Y-73326437D01*
X134412319Y-73297936D01*
X134331876Y-73217493D01*
X134331871Y-73217489D01*
X134208627Y-73146335D01*
X134208626Y-73146334D01*
X134208625Y-73146334D01*
X134071158Y-73109500D01*
X133928842Y-73109500D01*
X133791375Y-73146334D01*
X133791372Y-73146335D01*
X133668128Y-73217489D01*
X133668123Y-73217493D01*
X133567493Y-73318123D01*
X133567489Y-73318128D01*
X133496335Y-73441372D01*
X133496334Y-73441375D01*
X133459500Y-73578842D01*
X100070500Y-73578842D01*
X100070500Y-70999879D01*
X106109500Y-70999879D01*
X106109500Y-71300120D01*
X106109501Y-71300137D01*
X106148689Y-71597802D01*
X106148690Y-71597807D01*
X106148691Y-71597813D01*
X106226402Y-71887837D01*
X106341305Y-72165236D01*
X106491432Y-72425264D01*
X106491434Y-72425267D01*
X106491435Y-72425268D01*
X106674214Y-72663470D01*
X106674220Y-72663477D01*
X106886522Y-72875779D01*
X106886529Y-72875785D01*
X107026476Y-72983170D01*
X107124736Y-73058568D01*
X107384764Y-73208695D01*
X107662163Y-73323598D01*
X107952187Y-73401309D01*
X108249873Y-73440500D01*
X108249880Y-73440500D01*
X108550120Y-73440500D01*
X108550127Y-73440500D01*
X108847813Y-73401309D01*
X109137837Y-73323598D01*
X109415236Y-73208695D01*
X109675264Y-73058568D01*
X109913472Y-72875784D01*
X110125784Y-72663472D01*
X110305822Y-72428842D01*
X110959500Y-72428842D01*
X110959500Y-72571158D01*
X110984236Y-72663472D01*
X110996334Y-72708624D01*
X110996335Y-72708627D01*
X111067489Y-72831871D01*
X111067491Y-72831874D01*
X111067492Y-72831875D01*
X111168125Y-72932508D01*
X111291375Y-73003666D01*
X111428842Y-73040500D01*
X111428844Y-73040500D01*
X111571156Y-73040500D01*
X111571158Y-73040500D01*
X111708625Y-73003666D01*
X111831875Y-72932508D01*
X111932508Y-72831875D01*
X112003666Y-72708625D01*
X112040500Y-72571158D01*
X112040500Y-72428842D01*
X112459500Y-72428842D01*
X112459500Y-72571158D01*
X112484236Y-72663472D01*
X112496334Y-72708624D01*
X112496335Y-72708627D01*
X112567489Y-72831871D01*
X112567491Y-72831874D01*
X112567492Y-72831875D01*
X112668125Y-72932508D01*
X112791375Y-73003666D01*
X112928842Y-73040500D01*
X112928844Y-73040500D01*
X113071156Y-73040500D01*
X113071158Y-73040500D01*
X113208625Y-73003666D01*
X113331875Y-72932508D01*
X113432508Y-72831875D01*
X113503666Y-72708625D01*
X113540500Y-72571158D01*
X113540500Y-72428842D01*
X113503666Y-72291375D01*
X113468087Y-72229750D01*
X113432510Y-72168128D01*
X113432506Y-72168123D01*
X113331876Y-72067493D01*
X113331871Y-72067489D01*
X113208627Y-71996335D01*
X113208626Y-71996334D01*
X113208625Y-71996334D01*
X113071158Y-71959500D01*
X112928842Y-71959500D01*
X112791375Y-71996334D01*
X112791372Y-71996335D01*
X112668128Y-72067489D01*
X112668123Y-72067493D01*
X112567493Y-72168123D01*
X112567489Y-72168128D01*
X112496335Y-72291372D01*
X112496334Y-72291375D01*
X112459500Y-72428842D01*
X112040500Y-72428842D01*
X112003666Y-72291375D01*
X111968087Y-72229750D01*
X111932510Y-72168128D01*
X111932506Y-72168123D01*
X111831876Y-72067493D01*
X111831871Y-72067489D01*
X111708627Y-71996335D01*
X111708626Y-71996334D01*
X111708625Y-71996334D01*
X111571158Y-71959500D01*
X111428842Y-71959500D01*
X111291375Y-71996334D01*
X111291372Y-71996335D01*
X111168128Y-72067489D01*
X111168123Y-72067493D01*
X111067493Y-72168123D01*
X111067489Y-72168128D01*
X110996335Y-72291372D01*
X110996334Y-72291375D01*
X110959500Y-72428842D01*
X110305822Y-72428842D01*
X110308568Y-72425264D01*
X110458695Y-72165236D01*
X110573598Y-71887837D01*
X110651309Y-71597813D01*
X110690500Y-71300127D01*
X110690500Y-70999873D01*
X110686272Y-70967758D01*
X110682210Y-70936900D01*
X110681149Y-70928842D01*
X110959500Y-70928842D01*
X110959500Y-71071158D01*
X110992198Y-71193187D01*
X110996334Y-71208624D01*
X110996335Y-71208627D01*
X111067489Y-71331871D01*
X111067491Y-71331874D01*
X111067492Y-71331875D01*
X111168125Y-71432508D01*
X111168126Y-71432509D01*
X111168128Y-71432510D01*
X111226814Y-71466392D01*
X111291375Y-71503666D01*
X111428842Y-71540500D01*
X111428844Y-71540500D01*
X111571156Y-71540500D01*
X111571158Y-71540500D01*
X111708625Y-71503666D01*
X111831875Y-71432508D01*
X111932508Y-71331875D01*
X112003666Y-71208625D01*
X112040500Y-71071158D01*
X112040500Y-70928842D01*
X112459500Y-70928842D01*
X112459500Y-71071158D01*
X112492198Y-71193187D01*
X112496334Y-71208624D01*
X112496335Y-71208627D01*
X112567489Y-71331871D01*
X112567491Y-71331874D01*
X112567492Y-71331875D01*
X112668125Y-71432508D01*
X112668126Y-71432509D01*
X112668128Y-71432510D01*
X112726814Y-71466392D01*
X112791375Y-71503666D01*
X112928842Y-71540500D01*
X112928844Y-71540500D01*
X113071156Y-71540500D01*
X113071158Y-71540500D01*
X113208625Y-71503666D01*
X113331875Y-71432508D01*
X113432508Y-71331875D01*
X113503666Y-71208625D01*
X113540500Y-71071158D01*
X113540500Y-70928842D01*
X113503666Y-70791375D01*
X113446688Y-70692686D01*
X113432510Y-70668128D01*
X113432506Y-70668123D01*
X113331876Y-70567493D01*
X113331871Y-70567489D01*
X113208627Y-70496335D01*
X113208626Y-70496334D01*
X113208625Y-70496334D01*
X113071158Y-70459500D01*
X112928842Y-70459500D01*
X112791375Y-70496334D01*
X112791372Y-70496335D01*
X112668128Y-70567489D01*
X112668123Y-70567493D01*
X112567493Y-70668123D01*
X112567489Y-70668128D01*
X112496335Y-70791372D01*
X112496334Y-70791375D01*
X112459500Y-70928842D01*
X112040500Y-70928842D01*
X112003666Y-70791375D01*
X111946688Y-70692686D01*
X111932510Y-70668128D01*
X111932506Y-70668123D01*
X111831876Y-70567493D01*
X111831871Y-70567489D01*
X111708627Y-70496335D01*
X111708626Y-70496334D01*
X111708625Y-70496334D01*
X111571158Y-70459500D01*
X111428842Y-70459500D01*
X111291375Y-70496334D01*
X111291372Y-70496335D01*
X111168128Y-70567489D01*
X111168123Y-70567493D01*
X111067493Y-70668123D01*
X111067489Y-70668128D01*
X110996335Y-70791372D01*
X110996334Y-70791375D01*
X110959500Y-70928842D01*
X110681149Y-70928842D01*
X110665083Y-70806812D01*
X110651309Y-70702187D01*
X110573598Y-70412163D01*
X110458695Y-70134764D01*
X110458316Y-70134108D01*
X120499500Y-70134108D01*
X120499500Y-70265891D01*
X120533608Y-70393187D01*
X120566554Y-70450250D01*
X120599500Y-70507314D01*
X120599502Y-70507316D01*
X120604505Y-70512319D01*
X120637990Y-70573642D01*
X120633006Y-70643334D01*
X120604505Y-70687681D01*
X120599502Y-70692683D01*
X120599500Y-70692686D01*
X120533608Y-70806812D01*
X120500911Y-70928842D01*
X120499500Y-70934108D01*
X120499500Y-71065892D01*
X120500911Y-71071157D01*
X120533608Y-71193187D01*
X120566554Y-71250250D01*
X120599500Y-71307314D01*
X120599502Y-71307316D01*
X120692687Y-71400501D01*
X120694158Y-71401630D01*
X120695083Y-71402897D01*
X120698433Y-71406247D01*
X120697910Y-71406769D01*
X120735356Y-71458060D01*
X120739506Y-71527807D01*
X120705289Y-71588725D01*
X120694158Y-71598370D01*
X120692687Y-71599498D01*
X120599502Y-71692683D01*
X120599500Y-71692686D01*
X120533608Y-71806812D01*
X120499500Y-71934108D01*
X120499500Y-72065891D01*
X120533608Y-72193187D01*
X120566554Y-72250250D01*
X120599500Y-72307314D01*
X120692686Y-72400500D01*
X120806814Y-72466392D01*
X120934108Y-72500500D01*
X120934110Y-72500500D01*
X121065890Y-72500500D01*
X121065892Y-72500500D01*
X121193186Y-72466392D01*
X121307314Y-72400500D01*
X121400500Y-72307314D01*
X121400504Y-72307306D01*
X121401625Y-72305847D01*
X121402892Y-72304921D01*
X121406247Y-72301567D01*
X121406770Y-72302090D01*
X121458053Y-72264645D01*
X121527799Y-72260491D01*
X121588719Y-72294704D01*
X121598375Y-72305847D01*
X121599498Y-72307311D01*
X121599500Y-72307314D01*
X121692686Y-72400500D01*
X121806814Y-72466392D01*
X121934108Y-72500500D01*
X121934110Y-72500500D01*
X122065890Y-72500500D01*
X122065892Y-72500500D01*
X122193186Y-72466392D01*
X122307314Y-72400500D01*
X122400500Y-72307314D01*
X122466392Y-72193186D01*
X122500500Y-72065892D01*
X122500500Y-71934108D01*
X122466392Y-71806814D01*
X122400500Y-71692686D01*
X122307314Y-71599500D01*
X122307311Y-71599498D01*
X122305847Y-71598375D01*
X122304921Y-71597107D01*
X122301567Y-71593753D01*
X122302090Y-71593229D01*
X122264645Y-71541947D01*
X122260491Y-71472201D01*
X122294704Y-71411281D01*
X122305847Y-71401625D01*
X122307306Y-71400504D01*
X122307314Y-71400500D01*
X122400500Y-71307314D01*
X122466392Y-71193186D01*
X122500500Y-71065892D01*
X122500500Y-70934108D01*
X122466392Y-70806814D01*
X122400500Y-70692686D01*
X122395495Y-70687681D01*
X122362010Y-70626358D01*
X122366994Y-70556666D01*
X122395495Y-70512319D01*
X122400500Y-70507314D01*
X122466392Y-70393186D01*
X122500500Y-70265892D01*
X122500500Y-70134108D01*
X122466392Y-70006814D01*
X122464574Y-70003666D01*
X122457563Y-69991521D01*
X122400500Y-69892686D01*
X122307314Y-69799500D01*
X122250250Y-69766554D01*
X122193187Y-69733608D01*
X122129539Y-69716554D01*
X122065892Y-69699500D01*
X121934108Y-69699500D01*
X121806812Y-69733608D01*
X121692686Y-69799500D01*
X121692683Y-69799502D01*
X121599498Y-69892687D01*
X121598370Y-69894158D01*
X121597102Y-69895083D01*
X121593753Y-69898433D01*
X121593230Y-69897910D01*
X121541940Y-69935356D01*
X121472193Y-69939506D01*
X121411275Y-69905289D01*
X121401630Y-69894158D01*
X121400501Y-69892687D01*
X121307316Y-69799502D01*
X121307314Y-69799500D01*
X121250250Y-69766554D01*
X121193187Y-69733608D01*
X121129539Y-69716554D01*
X121065892Y-69699500D01*
X120934108Y-69699500D01*
X120806812Y-69733608D01*
X120692686Y-69799500D01*
X120692683Y-69799502D01*
X120599502Y-69892683D01*
X120599500Y-69892686D01*
X120533608Y-70006812D01*
X120499500Y-70134108D01*
X110458316Y-70134108D01*
X110308568Y-69874736D01*
X110125784Y-69636528D01*
X110125779Y-69636522D01*
X109918099Y-69428842D01*
X110959500Y-69428842D01*
X110959500Y-69571158D01*
X110962182Y-69581165D01*
X110996334Y-69708624D01*
X110996335Y-69708627D01*
X111067489Y-69831871D01*
X111067491Y-69831874D01*
X111067492Y-69831875D01*
X111168125Y-69932508D01*
X111168126Y-69932509D01*
X111168128Y-69932510D01*
X111180246Y-69939506D01*
X111291375Y-70003666D01*
X111428842Y-70040500D01*
X111428844Y-70040500D01*
X111571156Y-70040500D01*
X111571158Y-70040500D01*
X111708625Y-70003666D01*
X111831875Y-69932508D01*
X111932508Y-69831875D01*
X112003666Y-69708625D01*
X112040500Y-69571158D01*
X112040500Y-69428842D01*
X112459500Y-69428842D01*
X112459500Y-69571158D01*
X112462182Y-69581165D01*
X112496334Y-69708624D01*
X112496335Y-69708627D01*
X112567489Y-69831871D01*
X112567491Y-69831874D01*
X112567492Y-69831875D01*
X112668125Y-69932508D01*
X112668126Y-69932509D01*
X112668128Y-69932510D01*
X112680246Y-69939506D01*
X112791375Y-70003666D01*
X112928842Y-70040500D01*
X112928844Y-70040500D01*
X113071156Y-70040500D01*
X113071158Y-70040500D01*
X113208625Y-70003666D01*
X113331875Y-69932508D01*
X113432508Y-69831875D01*
X113503666Y-69708625D01*
X113540500Y-69571158D01*
X113540500Y-69428842D01*
X113503666Y-69291375D01*
X113432508Y-69168125D01*
X113331875Y-69067492D01*
X113331874Y-69067491D01*
X113331871Y-69067489D01*
X113225960Y-69006342D01*
X140892500Y-69006342D01*
X140892500Y-69148658D01*
X140917360Y-69241435D01*
X140929334Y-69286124D01*
X140929335Y-69286127D01*
X141000489Y-69409371D01*
X141000491Y-69409374D01*
X141000492Y-69409375D01*
X141101125Y-69510008D01*
X141224375Y-69581166D01*
X141361842Y-69618000D01*
X141361844Y-69618000D01*
X141504156Y-69618000D01*
X141504158Y-69618000D01*
X141641625Y-69581166D01*
X141764875Y-69510008D01*
X141865508Y-69409375D01*
X141936666Y-69286125D01*
X141973500Y-69148658D01*
X141973500Y-69006342D01*
X141936666Y-68868875D01*
X141865508Y-68745625D01*
X141764875Y-68644992D01*
X141764874Y-68644991D01*
X141764871Y-68644989D01*
X141641627Y-68573835D01*
X141641626Y-68573834D01*
X141641625Y-68573834D01*
X141504158Y-68537000D01*
X141361842Y-68537000D01*
X141224375Y-68573834D01*
X141224372Y-68573835D01*
X141101128Y-68644989D01*
X141101123Y-68644993D01*
X141000493Y-68745623D01*
X141000489Y-68745628D01*
X140929335Y-68868872D01*
X140929334Y-68868875D01*
X140892500Y-69006342D01*
X113225960Y-69006342D01*
X113208627Y-68996335D01*
X113208626Y-68996334D01*
X113208625Y-68996334D01*
X113071158Y-68959500D01*
X112928842Y-68959500D01*
X112791375Y-68996334D01*
X112791372Y-68996335D01*
X112668128Y-69067489D01*
X112668123Y-69067493D01*
X112567493Y-69168123D01*
X112567489Y-69168128D01*
X112496335Y-69291372D01*
X112496334Y-69291375D01*
X112459500Y-69428842D01*
X112040500Y-69428842D01*
X112003666Y-69291375D01*
X111932508Y-69168125D01*
X111831875Y-69067492D01*
X111831874Y-69067491D01*
X111831871Y-69067489D01*
X111708627Y-68996335D01*
X111708626Y-68996334D01*
X111708625Y-68996334D01*
X111571158Y-68959500D01*
X111428842Y-68959500D01*
X111291375Y-68996334D01*
X111291372Y-68996335D01*
X111168128Y-69067489D01*
X111168123Y-69067493D01*
X111067493Y-69168123D01*
X111067489Y-69168128D01*
X110996335Y-69291372D01*
X110996334Y-69291375D01*
X110959500Y-69428842D01*
X109918099Y-69428842D01*
X109913477Y-69424220D01*
X109913470Y-69424214D01*
X109675268Y-69241435D01*
X109675267Y-69241434D01*
X109675264Y-69241432D01*
X109415236Y-69091305D01*
X109385664Y-69079056D01*
X109185959Y-68996335D01*
X109137837Y-68976402D01*
X109137835Y-68976401D01*
X109137834Y-68976401D01*
X109051671Y-68953314D01*
X108847813Y-68898691D01*
X108847807Y-68898690D01*
X108847802Y-68898689D01*
X108550137Y-68859501D01*
X108550132Y-68859500D01*
X108550127Y-68859500D01*
X108249873Y-68859500D01*
X108249867Y-68859500D01*
X108249862Y-68859501D01*
X107952197Y-68898689D01*
X107952190Y-68898690D01*
X107952187Y-68898691D01*
X107869141Y-68920943D01*
X107662165Y-68976401D01*
X107384770Y-69091302D01*
X107384761Y-69091306D01*
X107251702Y-69168128D01*
X107141437Y-69231790D01*
X107124731Y-69241435D01*
X106886529Y-69424214D01*
X106886522Y-69424220D01*
X106674220Y-69636522D01*
X106674214Y-69636529D01*
X106491435Y-69874731D01*
X106341306Y-70134761D01*
X106341302Y-70134770D01*
X106226401Y-70412165D01*
X106187683Y-70556666D01*
X106164461Y-70643334D01*
X106148692Y-70702184D01*
X106148689Y-70702197D01*
X106109501Y-70999862D01*
X106109500Y-70999879D01*
X100070500Y-70999879D01*
X100070500Y-68420943D01*
X153649500Y-68420943D01*
X153649500Y-68579057D01*
X153667168Y-68644993D01*
X153690423Y-68731783D01*
X153690426Y-68731790D01*
X153769475Y-68868709D01*
X153769479Y-68868714D01*
X153769480Y-68868716D01*
X153881284Y-68980520D01*
X153881286Y-68980521D01*
X153881290Y-68980524D01*
X154018209Y-69059573D01*
X154018216Y-69059577D01*
X154170943Y-69100500D01*
X154170945Y-69100500D01*
X154329055Y-69100500D01*
X154329057Y-69100500D01*
X154481784Y-69059577D01*
X154618716Y-68980520D01*
X154678293Y-68920943D01*
X155899500Y-68920943D01*
X155899500Y-69079057D01*
X155923367Y-69168128D01*
X155940423Y-69231783D01*
X155940426Y-69231790D01*
X156019475Y-69368709D01*
X156019479Y-69368714D01*
X156019480Y-69368716D01*
X156131284Y-69480520D01*
X156131286Y-69480521D01*
X156131290Y-69480524D01*
X156268209Y-69559573D01*
X156268216Y-69559577D01*
X156420943Y-69600500D01*
X156420945Y-69600500D01*
X156579055Y-69600500D01*
X156579057Y-69600500D01*
X156731784Y-69559577D01*
X156868716Y-69480520D01*
X156980520Y-69368716D01*
X157059577Y-69231784D01*
X157100500Y-69079057D01*
X157100500Y-68920943D01*
X157059577Y-68768216D01*
X156988435Y-68644993D01*
X156980524Y-68631290D01*
X156980518Y-68631282D01*
X156868717Y-68519481D01*
X156868709Y-68519475D01*
X156731790Y-68440426D01*
X156731786Y-68440424D01*
X156731784Y-68440423D01*
X156579057Y-68399500D01*
X156420943Y-68399500D01*
X156268216Y-68440423D01*
X156268209Y-68440426D01*
X156131290Y-68519475D01*
X156131282Y-68519481D01*
X156019481Y-68631282D01*
X156019475Y-68631290D01*
X155940426Y-68768209D01*
X155940423Y-68768216D01*
X155899500Y-68920943D01*
X154678293Y-68920943D01*
X154730520Y-68868716D01*
X154735841Y-68859500D01*
X154740855Y-68850816D01*
X154788547Y-68768209D01*
X154809577Y-68731784D01*
X154850500Y-68579057D01*
X154850500Y-68420943D01*
X154809577Y-68268216D01*
X154809573Y-68268209D01*
X154730524Y-68131290D01*
X154730518Y-68131282D01*
X154618717Y-68019481D01*
X154618709Y-68019475D01*
X154481790Y-67940426D01*
X154481786Y-67940424D01*
X154481784Y-67940423D01*
X154329057Y-67899500D01*
X154170943Y-67899500D01*
X154018216Y-67940423D01*
X154018209Y-67940426D01*
X153881290Y-68019475D01*
X153881282Y-68019481D01*
X153769481Y-68131282D01*
X153769475Y-68131290D01*
X153690426Y-68268209D01*
X153690423Y-68268216D01*
X153649500Y-68420943D01*
X100070500Y-68420943D01*
X100070500Y-67328842D01*
X125659500Y-67328842D01*
X125659500Y-67471158D01*
X125668211Y-67503666D01*
X125696334Y-67608624D01*
X125696335Y-67608627D01*
X125767489Y-67731871D01*
X125767491Y-67731874D01*
X125767492Y-67731875D01*
X125868125Y-67832508D01*
X125991375Y-67903666D01*
X126128842Y-67940500D01*
X126128844Y-67940500D01*
X126271156Y-67940500D01*
X126271158Y-67940500D01*
X126408625Y-67903666D01*
X126531875Y-67832508D01*
X126612319Y-67752064D01*
X126673642Y-67718579D01*
X126743334Y-67723563D01*
X126787681Y-67752064D01*
X126868125Y-67832508D01*
X126991375Y-67903666D01*
X127128842Y-67940500D01*
X127128844Y-67940500D01*
X127271156Y-67940500D01*
X127271158Y-67940500D01*
X127408625Y-67903666D01*
X127531875Y-67832508D01*
X127612319Y-67752064D01*
X127673642Y-67718579D01*
X127743334Y-67723563D01*
X127787681Y-67752064D01*
X127868125Y-67832508D01*
X127991375Y-67903666D01*
X128128842Y-67940500D01*
X128128844Y-67940500D01*
X128271156Y-67940500D01*
X128271158Y-67940500D01*
X128408625Y-67903666D01*
X128531875Y-67832508D01*
X128612319Y-67752064D01*
X128673642Y-67718579D01*
X128743334Y-67723563D01*
X128787681Y-67752064D01*
X128868125Y-67832508D01*
X128991375Y-67903666D01*
X129128842Y-67940500D01*
X129128844Y-67940500D01*
X129271156Y-67940500D01*
X129271158Y-67940500D01*
X129408625Y-67903666D01*
X129531875Y-67832508D01*
X129632508Y-67731875D01*
X129703666Y-67608625D01*
X129740500Y-67471158D01*
X129740500Y-67328842D01*
X129703666Y-67191375D01*
X129668087Y-67129750D01*
X129632510Y-67068128D01*
X129632506Y-67068123D01*
X129531876Y-66967493D01*
X129531871Y-66967489D01*
X129464932Y-66928842D01*
X130669500Y-66928842D01*
X130669500Y-67071158D01*
X130700011Y-67185025D01*
X130706334Y-67208624D01*
X130706335Y-67208627D01*
X130777489Y-67331871D01*
X130777491Y-67331874D01*
X130777492Y-67331875D01*
X130878125Y-67432508D01*
X131001375Y-67503666D01*
X131138842Y-67540500D01*
X131138844Y-67540500D01*
X131281156Y-67540500D01*
X131281158Y-67540500D01*
X131418625Y-67503666D01*
X131541875Y-67432508D01*
X131642508Y-67331875D01*
X131713666Y-67208625D01*
X131750500Y-67071158D01*
X131750500Y-66928842D01*
X131713666Y-66791375D01*
X131642508Y-66668125D01*
X131541875Y-66567492D01*
X131541874Y-66567491D01*
X131541871Y-66567489D01*
X131418627Y-66496335D01*
X131418626Y-66496334D01*
X131418625Y-66496334D01*
X131281158Y-66459500D01*
X131138842Y-66459500D01*
X131001375Y-66496334D01*
X131001372Y-66496335D01*
X130878128Y-66567489D01*
X130878123Y-66567493D01*
X130777493Y-66668123D01*
X130777489Y-66668128D01*
X130706335Y-66791372D01*
X130706334Y-66791375D01*
X130669500Y-66928842D01*
X129464932Y-66928842D01*
X129408627Y-66896335D01*
X129408626Y-66896334D01*
X129408625Y-66896334D01*
X129271158Y-66859500D01*
X129128842Y-66859500D01*
X128991375Y-66896334D01*
X128991372Y-66896335D01*
X128868128Y-66967489D01*
X128868123Y-66967493D01*
X128787681Y-67047936D01*
X128726358Y-67081421D01*
X128656666Y-67076437D01*
X128612319Y-67047936D01*
X128531876Y-66967493D01*
X128531871Y-66967489D01*
X128408627Y-66896335D01*
X128408626Y-66896334D01*
X128408625Y-66896334D01*
X128271158Y-66859500D01*
X128128842Y-66859500D01*
X127991375Y-66896334D01*
X127991372Y-66896335D01*
X127868128Y-66967489D01*
X127868123Y-66967493D01*
X127787681Y-67047936D01*
X127726358Y-67081421D01*
X127656666Y-67076437D01*
X127612319Y-67047936D01*
X127531876Y-66967493D01*
X127531871Y-66967489D01*
X127408627Y-66896335D01*
X127408626Y-66896334D01*
X127408625Y-66896334D01*
X127271158Y-66859500D01*
X127128842Y-66859500D01*
X126991375Y-66896334D01*
X126991372Y-66896335D01*
X126868128Y-66967489D01*
X126868123Y-66967493D01*
X126787681Y-67047936D01*
X126726358Y-67081421D01*
X126656666Y-67076437D01*
X126612319Y-67047936D01*
X126531876Y-66967493D01*
X126531871Y-66967489D01*
X126408627Y-66896335D01*
X126408626Y-66896334D01*
X126408625Y-66896334D01*
X126271158Y-66859500D01*
X126128842Y-66859500D01*
X125991375Y-66896334D01*
X125991372Y-66896335D01*
X125868128Y-66967489D01*
X125868123Y-66967493D01*
X125767493Y-67068123D01*
X125767489Y-67068128D01*
X125696335Y-67191372D01*
X125696334Y-67191375D01*
X125659500Y-67328842D01*
X100070500Y-67328842D01*
X100070500Y-65428842D01*
X159459500Y-65428842D01*
X159459500Y-65571157D01*
X159496334Y-65708624D01*
X159496335Y-65708627D01*
X159567489Y-65831871D01*
X159567491Y-65831874D01*
X159567492Y-65831875D01*
X159668125Y-65932508D01*
X159791375Y-66003666D01*
X159928842Y-66040500D01*
X159928844Y-66040500D01*
X160071156Y-66040500D01*
X160071158Y-66040500D01*
X160208625Y-66003666D01*
X160331875Y-65932508D01*
X160432508Y-65831875D01*
X160503666Y-65708625D01*
X160540500Y-65571158D01*
X160540500Y-65428842D01*
X160503666Y-65291375D01*
X160432508Y-65168125D01*
X160331875Y-65067492D01*
X160331874Y-65067491D01*
X160331871Y-65067489D01*
X160208627Y-64996335D01*
X160208626Y-64996334D01*
X160208625Y-64996334D01*
X160071158Y-64959500D01*
X159928842Y-64959500D01*
X159791375Y-64996334D01*
X159791372Y-64996335D01*
X159668128Y-65067489D01*
X159668123Y-65067493D01*
X159567493Y-65168123D01*
X159567489Y-65168128D01*
X159496335Y-65291372D01*
X159496334Y-65291375D01*
X159459500Y-65428842D01*
X100070500Y-65428842D01*
X100070500Y-64434108D01*
X140249500Y-64434108D01*
X140249500Y-64565891D01*
X140283608Y-64693187D01*
X140316554Y-64750250D01*
X140349500Y-64807314D01*
X140442686Y-64900500D01*
X140556814Y-64966392D01*
X140684108Y-65000500D01*
X140684110Y-65000500D01*
X140815890Y-65000500D01*
X140815892Y-65000500D01*
X140943186Y-64966392D01*
X141057314Y-64900500D01*
X141150500Y-64807314D01*
X141216392Y-64693186D01*
X141250500Y-64565892D01*
X141250500Y-64434108D01*
X141216392Y-64306814D01*
X141150500Y-64192686D01*
X141057314Y-64099500D01*
X141000250Y-64066554D01*
X140943187Y-64033608D01*
X140879539Y-64016554D01*
X140815892Y-63999500D01*
X140684108Y-63999500D01*
X140556812Y-64033608D01*
X140442686Y-64099500D01*
X140442683Y-64099502D01*
X140349502Y-64192683D01*
X140349500Y-64192686D01*
X140283608Y-64306812D01*
X140249500Y-64434108D01*
X100070500Y-64434108D01*
X100070500Y-63434108D01*
X138899500Y-63434108D01*
X138899500Y-63565891D01*
X138933608Y-63693187D01*
X138966554Y-63750250D01*
X138999500Y-63807314D01*
X139092686Y-63900500D01*
X139206814Y-63966392D01*
X139334108Y-64000500D01*
X139334110Y-64000500D01*
X139465890Y-64000500D01*
X139465892Y-64000500D01*
X139593186Y-63966392D01*
X139707314Y-63900500D01*
X139800500Y-63807314D01*
X139866392Y-63693186D01*
X139900500Y-63565892D01*
X139900500Y-63434108D01*
X139866392Y-63306814D01*
X139800500Y-63192686D01*
X139707314Y-63099500D01*
X139650250Y-63066554D01*
X139593187Y-63033608D01*
X139529539Y-63016554D01*
X139465892Y-62999500D01*
X139334108Y-62999500D01*
X139206812Y-63033608D01*
X139092686Y-63099500D01*
X139092683Y-63099502D01*
X138999502Y-63192683D01*
X138999500Y-63192686D01*
X138933608Y-63306812D01*
X138899500Y-63434108D01*
X100070500Y-63434108D01*
X100070500Y-62428842D01*
X137709500Y-62428842D01*
X137709500Y-62571157D01*
X137746334Y-62708624D01*
X137746335Y-62708627D01*
X137817489Y-62831871D01*
X137817491Y-62831874D01*
X137817492Y-62831875D01*
X137918125Y-62932508D01*
X138041375Y-63003666D01*
X138178842Y-63040500D01*
X138178844Y-63040500D01*
X138321156Y-63040500D01*
X138321158Y-63040500D01*
X138458625Y-63003666D01*
X138581875Y-62932508D01*
X138682508Y-62831875D01*
X138753666Y-62708625D01*
X138790500Y-62571158D01*
X138790500Y-62428842D01*
X138753666Y-62291375D01*
X138682508Y-62168125D01*
X138581875Y-62067492D01*
X138581874Y-62067491D01*
X138581871Y-62067489D01*
X138458627Y-61996335D01*
X138458626Y-61996334D01*
X138458625Y-61996334D01*
X138321158Y-61959500D01*
X138178842Y-61959500D01*
X138041375Y-61996334D01*
X138041372Y-61996335D01*
X137918128Y-62067489D01*
X137918123Y-62067493D01*
X137817493Y-62168123D01*
X137817489Y-62168128D01*
X137746335Y-62291372D01*
X137746334Y-62291375D01*
X137709500Y-62428842D01*
X100070500Y-62428842D01*
X100070500Y-60330247D01*
X101199500Y-60330247D01*
X101199500Y-61269752D01*
X101211131Y-61328229D01*
X101211132Y-61328230D01*
X101255447Y-61394552D01*
X101321769Y-61438867D01*
X101321770Y-61438868D01*
X101380247Y-61450499D01*
X101380250Y-61450500D01*
X101380252Y-61450500D01*
X103419750Y-61450500D01*
X103419751Y-61450499D01*
X103434568Y-61447552D01*
X103478229Y-61438868D01*
X103478229Y-61438867D01*
X103478231Y-61438867D01*
X103485353Y-61434108D01*
X136749500Y-61434108D01*
X136749500Y-61565891D01*
X136783608Y-61693187D01*
X136816554Y-61750250D01*
X136849500Y-61807314D01*
X136942686Y-61900500D01*
X137056814Y-61966392D01*
X137184108Y-62000500D01*
X137184110Y-62000500D01*
X137315890Y-62000500D01*
X137315892Y-62000500D01*
X137443186Y-61966392D01*
X137557314Y-61900500D01*
X137650500Y-61807314D01*
X137716392Y-61693186D01*
X137750500Y-61565892D01*
X137750500Y-61434108D01*
X137716392Y-61306814D01*
X137650500Y-61192686D01*
X137557314Y-61099500D01*
X137500250Y-61066554D01*
X137443187Y-61033608D01*
X137379539Y-61016554D01*
X137315892Y-60999500D01*
X137184108Y-60999500D01*
X137056812Y-61033608D01*
X136942686Y-61099500D01*
X136942683Y-61099502D01*
X136849502Y-61192683D01*
X136849500Y-61192686D01*
X136783608Y-61306812D01*
X136749500Y-61434108D01*
X103485353Y-61434108D01*
X103544552Y-61394552D01*
X103588867Y-61328231D01*
X103588867Y-61328229D01*
X103588868Y-61328229D01*
X103600499Y-61269752D01*
X103600500Y-61269750D01*
X103600500Y-60330249D01*
X103600499Y-60330247D01*
X103588868Y-60271770D01*
X103588867Y-60271769D01*
X103544552Y-60205447D01*
X103478230Y-60161132D01*
X103478229Y-60161131D01*
X103419752Y-60149500D01*
X103419748Y-60149500D01*
X101380252Y-60149500D01*
X101380247Y-60149500D01*
X101321770Y-60161131D01*
X101321769Y-60161132D01*
X101255447Y-60205447D01*
X101211132Y-60271769D01*
X101211131Y-60271770D01*
X101199500Y-60330247D01*
X100070500Y-60330247D01*
X100070500Y-59678842D01*
X108472000Y-59678842D01*
X108472000Y-59821158D01*
X108504988Y-59944269D01*
X108508834Y-59958624D01*
X108508835Y-59958627D01*
X108579989Y-60081871D01*
X108579991Y-60081874D01*
X108579992Y-60081875D01*
X108680625Y-60182508D01*
X108803875Y-60253666D01*
X108941342Y-60290500D01*
X108941344Y-60290500D01*
X109083656Y-60290500D01*
X109083658Y-60290500D01*
X109213004Y-60255842D01*
X142559500Y-60255842D01*
X142559500Y-60398157D01*
X142596334Y-60535624D01*
X142596335Y-60535627D01*
X142667489Y-60658871D01*
X142667491Y-60658874D01*
X142667492Y-60658875D01*
X142768125Y-60759508D01*
X142891375Y-60830666D01*
X143028842Y-60867500D01*
X143028844Y-60867500D01*
X143171156Y-60867500D01*
X143171158Y-60867500D01*
X143308625Y-60830666D01*
X143431875Y-60759508D01*
X143532508Y-60658875D01*
X143547600Y-60632733D01*
X143598167Y-60584518D01*
X143666774Y-60571294D01*
X143731639Y-60597262D01*
X143742669Y-60607052D01*
X143818125Y-60682508D01*
X143941375Y-60753666D01*
X144078842Y-60790500D01*
X144078844Y-60790500D01*
X144221156Y-60790500D01*
X144221158Y-60790500D01*
X144358625Y-60753666D01*
X144481875Y-60682508D01*
X144582508Y-60581875D01*
X144653666Y-60458625D01*
X144690500Y-60321158D01*
X144690500Y-60178842D01*
X144653666Y-60041375D01*
X144582508Y-59918125D01*
X144481875Y-59817492D01*
X144481874Y-59817491D01*
X144481871Y-59817489D01*
X144358627Y-59746335D01*
X144358626Y-59746334D01*
X144358625Y-59746334D01*
X144221158Y-59709500D01*
X144078842Y-59709500D01*
X143941375Y-59746334D01*
X143941372Y-59746335D01*
X143818128Y-59817489D01*
X143818123Y-59817493D01*
X143717493Y-59918123D01*
X143717491Y-59918126D01*
X143702397Y-59944269D01*
X143651828Y-59992483D01*
X143583221Y-60005704D01*
X143518357Y-59979735D01*
X143507330Y-59969947D01*
X143431876Y-59894493D01*
X143431871Y-59894489D01*
X143308627Y-59823335D01*
X143308626Y-59823334D01*
X143308625Y-59823334D01*
X143171158Y-59786500D01*
X143028842Y-59786500D01*
X142891375Y-59823334D01*
X142891372Y-59823335D01*
X142768128Y-59894489D01*
X142768123Y-59894493D01*
X142667493Y-59995123D01*
X142667489Y-59995128D01*
X142596335Y-60118372D01*
X142596334Y-60118375D01*
X142559500Y-60255842D01*
X109213004Y-60255842D01*
X109221125Y-60253666D01*
X109344375Y-60182508D01*
X109445008Y-60081875D01*
X109516166Y-59958625D01*
X109553000Y-59821158D01*
X109553000Y-59678842D01*
X109516166Y-59541375D01*
X109445008Y-59418125D01*
X109344375Y-59317492D01*
X109344374Y-59317491D01*
X109344371Y-59317489D01*
X109221127Y-59246335D01*
X109221126Y-59246334D01*
X109221125Y-59246334D01*
X109083658Y-59209500D01*
X108941342Y-59209500D01*
X108803875Y-59246334D01*
X108803872Y-59246335D01*
X108680628Y-59317489D01*
X108680623Y-59317493D01*
X108579993Y-59418123D01*
X108579989Y-59418128D01*
X108508835Y-59541372D01*
X108508834Y-59541375D01*
X108472000Y-59678842D01*
X100070500Y-59678842D01*
X100070500Y-58134108D01*
X131699500Y-58134108D01*
X131699500Y-58265891D01*
X131733608Y-58393187D01*
X131766554Y-58450250D01*
X131799500Y-58507314D01*
X131892686Y-58600500D01*
X132006814Y-58666392D01*
X132134108Y-58700500D01*
X132134110Y-58700500D01*
X132265890Y-58700500D01*
X132265892Y-58700500D01*
X132393186Y-58666392D01*
X132507314Y-58600500D01*
X132600500Y-58507314D01*
X132666392Y-58393186D01*
X132700500Y-58265892D01*
X132700500Y-58134108D01*
X132671801Y-58027001D01*
X158092393Y-58027001D01*
X158092393Y-58158784D01*
X158126501Y-58286080D01*
X158159447Y-58343143D01*
X158192393Y-58400207D01*
X158285579Y-58493393D01*
X158399707Y-58559285D01*
X158527001Y-58593393D01*
X158527003Y-58593393D01*
X158658783Y-58593393D01*
X158658785Y-58593393D01*
X158786079Y-58559285D01*
X158900207Y-58493393D01*
X158993393Y-58400207D01*
X159059285Y-58286079D01*
X159093393Y-58158785D01*
X159093393Y-58027001D01*
X159059285Y-57899707D01*
X158993393Y-57785579D01*
X158900207Y-57692393D01*
X158843143Y-57659447D01*
X158786080Y-57626501D01*
X158722432Y-57609447D01*
X158658785Y-57592393D01*
X158527001Y-57592393D01*
X158399705Y-57626501D01*
X158285579Y-57692393D01*
X158285576Y-57692395D01*
X158192395Y-57785576D01*
X158192393Y-57785579D01*
X158126501Y-57899705D01*
X158092393Y-58027001D01*
X132671801Y-58027001D01*
X132666392Y-58006814D01*
X132600500Y-57892686D01*
X132507314Y-57799500D01*
X132450250Y-57766554D01*
X132393187Y-57733608D01*
X132329539Y-57716554D01*
X132265892Y-57699500D01*
X132134108Y-57699500D01*
X132006812Y-57733608D01*
X131892686Y-57799500D01*
X131892683Y-57799502D01*
X131799502Y-57892683D01*
X131799500Y-57892686D01*
X131733608Y-58006812D01*
X131699500Y-58134108D01*
X100070500Y-58134108D01*
X100070500Y-56534108D01*
X118499500Y-56534108D01*
X118499500Y-56665891D01*
X118533608Y-56793187D01*
X118559480Y-56837997D01*
X118599500Y-56907314D01*
X118692686Y-57000500D01*
X118806814Y-57066392D01*
X118934108Y-57100500D01*
X118934110Y-57100500D01*
X119065890Y-57100500D01*
X119065892Y-57100500D01*
X119193186Y-57066392D01*
X119307314Y-57000500D01*
X119400500Y-56907314D01*
X119466392Y-56793186D01*
X119500500Y-56665892D01*
X119500500Y-56534108D01*
X127899500Y-56534108D01*
X127899500Y-56665891D01*
X127933608Y-56793187D01*
X127959480Y-56837997D01*
X127999500Y-56907314D01*
X128092686Y-57000500D01*
X128206814Y-57066392D01*
X128334108Y-57100500D01*
X128334110Y-57100500D01*
X128465890Y-57100500D01*
X128465892Y-57100500D01*
X128593186Y-57066392D01*
X128707314Y-57000500D01*
X128800500Y-56907314D01*
X128866392Y-56793186D01*
X128900500Y-56665892D01*
X128900500Y-56534108D01*
X128866392Y-56406814D01*
X128846066Y-56371608D01*
X135462000Y-56371608D01*
X135462000Y-56503392D01*
X135472888Y-56544026D01*
X135496108Y-56630687D01*
X135516434Y-56665892D01*
X135562000Y-56744814D01*
X135655186Y-56838000D01*
X135769314Y-56903892D01*
X135896608Y-56938000D01*
X135896610Y-56938000D01*
X136028390Y-56938000D01*
X136028392Y-56938000D01*
X136155686Y-56903892D01*
X136269814Y-56838000D01*
X136363000Y-56744814D01*
X136428892Y-56630686D01*
X136463000Y-56503392D01*
X136463000Y-56371608D01*
X136428892Y-56244314D01*
X136363000Y-56130186D01*
X136269814Y-56037000D01*
X136226066Y-56011742D01*
X139586080Y-56011742D01*
X139586080Y-56143525D01*
X139620188Y-56270821D01*
X139632812Y-56292686D01*
X139686080Y-56384948D01*
X139779266Y-56478134D01*
X139893394Y-56544026D01*
X140020688Y-56578134D01*
X140020690Y-56578134D01*
X140152470Y-56578134D01*
X140152472Y-56578134D01*
X140279766Y-56544026D01*
X140393894Y-56478134D01*
X140487080Y-56384948D01*
X140552972Y-56270820D01*
X140587080Y-56143526D01*
X140587080Y-56011742D01*
X140552972Y-55884448D01*
X140487080Y-55770320D01*
X140393894Y-55677134D01*
X140336830Y-55644188D01*
X140279767Y-55611242D01*
X140216119Y-55594188D01*
X140152472Y-55577134D01*
X140020688Y-55577134D01*
X139893392Y-55611242D01*
X139779266Y-55677134D01*
X139779263Y-55677136D01*
X139686082Y-55770317D01*
X139686080Y-55770320D01*
X139620188Y-55884446D01*
X139586080Y-56011742D01*
X136226066Y-56011742D01*
X136212750Y-56004054D01*
X136155687Y-55971108D01*
X136092039Y-55954054D01*
X136028392Y-55937000D01*
X135896608Y-55937000D01*
X135769312Y-55971108D01*
X135655186Y-56037000D01*
X135655183Y-56037002D01*
X135562002Y-56130183D01*
X135562000Y-56130186D01*
X135496108Y-56244312D01*
X135483147Y-56292686D01*
X135462000Y-56371608D01*
X128846066Y-56371608D01*
X128800500Y-56292686D01*
X128707314Y-56199500D01*
X128650250Y-56166554D01*
X128593187Y-56133608D01*
X128529539Y-56116554D01*
X128465892Y-56099500D01*
X128334108Y-56099500D01*
X128206812Y-56133608D01*
X128092686Y-56199500D01*
X128092683Y-56199502D01*
X127999502Y-56292683D01*
X127999500Y-56292686D01*
X127933608Y-56406812D01*
X127899500Y-56534108D01*
X119500500Y-56534108D01*
X119466392Y-56406814D01*
X119400500Y-56292686D01*
X119307314Y-56199500D01*
X119250250Y-56166554D01*
X119193187Y-56133608D01*
X119129539Y-56116554D01*
X119065892Y-56099500D01*
X118934108Y-56099500D01*
X118806812Y-56133608D01*
X118692686Y-56199500D01*
X118692683Y-56199502D01*
X118599502Y-56292683D01*
X118599500Y-56292686D01*
X118533608Y-56406812D01*
X118499500Y-56534108D01*
X100070500Y-56534108D01*
X100070500Y-54734108D01*
X109499500Y-54734108D01*
X109499500Y-54865891D01*
X109533608Y-54993187D01*
X109566554Y-55050250D01*
X109599500Y-55107314D01*
X109692686Y-55200500D01*
X109806814Y-55266392D01*
X109934108Y-55300500D01*
X109934110Y-55300500D01*
X110065890Y-55300500D01*
X110065892Y-55300500D01*
X110193186Y-55266392D01*
X110307314Y-55200500D01*
X110400500Y-55107314D01*
X110466392Y-54993186D01*
X110500500Y-54865892D01*
X110500500Y-54734108D01*
X110466392Y-54606814D01*
X110442764Y-54565890D01*
X110400503Y-54492691D01*
X110400502Y-54492690D01*
X110400500Y-54492686D01*
X110341922Y-54434108D01*
X151499500Y-54434108D01*
X151499500Y-54565891D01*
X151533608Y-54693187D01*
X151566554Y-54750250D01*
X151599500Y-54807314D01*
X151692686Y-54900500D01*
X151806814Y-54966392D01*
X151934108Y-55000500D01*
X151934110Y-55000500D01*
X152065890Y-55000500D01*
X152065892Y-55000500D01*
X152193186Y-54966392D01*
X152307314Y-54900500D01*
X152400500Y-54807314D01*
X152466392Y-54693186D01*
X152500500Y-54565892D01*
X152500500Y-54434108D01*
X160999500Y-54434108D01*
X160999500Y-54565891D01*
X161033608Y-54693187D01*
X161066554Y-54750250D01*
X161099500Y-54807314D01*
X161192686Y-54900500D01*
X161306814Y-54966392D01*
X161434108Y-55000500D01*
X161434110Y-55000500D01*
X161565890Y-55000500D01*
X161565892Y-55000500D01*
X161693186Y-54966392D01*
X161807314Y-54900500D01*
X161900500Y-54807314D01*
X161966392Y-54693186D01*
X162000500Y-54565892D01*
X162000500Y-54434108D01*
X161966392Y-54306814D01*
X161900500Y-54192686D01*
X161807314Y-54099500D01*
X161750250Y-54066554D01*
X161693187Y-54033608D01*
X161629539Y-54016554D01*
X161565892Y-53999500D01*
X161434108Y-53999500D01*
X161306812Y-54033608D01*
X161192686Y-54099500D01*
X161192683Y-54099502D01*
X161099502Y-54192683D01*
X161099500Y-54192686D01*
X161033608Y-54306812D01*
X160999500Y-54434108D01*
X152500500Y-54434108D01*
X152466392Y-54306814D01*
X152400500Y-54192686D01*
X152307314Y-54099500D01*
X152250250Y-54066554D01*
X152193187Y-54033608D01*
X152129539Y-54016554D01*
X152065892Y-53999500D01*
X151934108Y-53999500D01*
X151806812Y-54033608D01*
X151692686Y-54099500D01*
X151692683Y-54099502D01*
X151599502Y-54192683D01*
X151599500Y-54192686D01*
X151533608Y-54306812D01*
X151499500Y-54434108D01*
X110341922Y-54434108D01*
X110307314Y-54399500D01*
X110250250Y-54366554D01*
X110193187Y-54333608D01*
X110093188Y-54306814D01*
X110065892Y-54299500D01*
X109934108Y-54299500D01*
X109806812Y-54333608D01*
X109692686Y-54399500D01*
X109692683Y-54399502D01*
X109599502Y-54492683D01*
X109599500Y-54492686D01*
X109533608Y-54606812D01*
X109499500Y-54734108D01*
X100070500Y-54734108D01*
X100070500Y-53415638D01*
X136252578Y-53415638D01*
X136252578Y-53547421D01*
X136286686Y-53674717D01*
X136319632Y-53731780D01*
X136352578Y-53788844D01*
X136445764Y-53882030D01*
X136559892Y-53947922D01*
X136687186Y-53982030D01*
X136687188Y-53982030D01*
X136818968Y-53982030D01*
X136818970Y-53982030D01*
X136946264Y-53947922D01*
X137060392Y-53882030D01*
X137153578Y-53788844D01*
X137219470Y-53674716D01*
X137253578Y-53547422D01*
X137253578Y-53415638D01*
X137219470Y-53288344D01*
X137153578Y-53174216D01*
X137060392Y-53081030D01*
X136977838Y-53033367D01*
X136977837Y-53033366D01*
X136946266Y-53015139D01*
X136946265Y-53015138D01*
X136946264Y-53015138D01*
X136818970Y-52981030D01*
X136687186Y-52981030D01*
X136559890Y-53015138D01*
X136445764Y-53081030D01*
X136445761Y-53081032D01*
X136352580Y-53174213D01*
X136352578Y-53174216D01*
X136286686Y-53288342D01*
X136252578Y-53415638D01*
X100070500Y-53415638D01*
X100070500Y-52734108D01*
X110899500Y-52734108D01*
X110899500Y-52865891D01*
X110933608Y-52993187D01*
X110956806Y-53033366D01*
X110999500Y-53107314D01*
X111092686Y-53200500D01*
X111206814Y-53266392D01*
X111334108Y-53300500D01*
X111334110Y-53300500D01*
X111465890Y-53300500D01*
X111465892Y-53300500D01*
X111593186Y-53266392D01*
X111707314Y-53200500D01*
X111800500Y-53107314D01*
X111866392Y-52993186D01*
X111900500Y-52865892D01*
X111900500Y-52734108D01*
X111866392Y-52606814D01*
X111862170Y-52599502D01*
X111800503Y-52492691D01*
X111800502Y-52492690D01*
X111800500Y-52492686D01*
X111741922Y-52434108D01*
X126499500Y-52434108D01*
X126499500Y-52565891D01*
X126533608Y-52693187D01*
X126566554Y-52750250D01*
X126599500Y-52807314D01*
X126692686Y-52900500D01*
X126806814Y-52966392D01*
X126934108Y-53000500D01*
X126934110Y-53000500D01*
X127065890Y-53000500D01*
X127065892Y-53000500D01*
X127193186Y-52966392D01*
X127249103Y-52934108D01*
X138949500Y-52934108D01*
X138949500Y-53065892D01*
X138966554Y-53129539D01*
X138983608Y-53193187D01*
X139016554Y-53250250D01*
X139049500Y-53307314D01*
X139142686Y-53400500D01*
X139256814Y-53466392D01*
X139384108Y-53500500D01*
X139384110Y-53500500D01*
X139515890Y-53500500D01*
X139515892Y-53500500D01*
X139643186Y-53466392D01*
X139757314Y-53400500D01*
X139850500Y-53307314D01*
X139916392Y-53193186D01*
X139950500Y-53065892D01*
X139950500Y-52934108D01*
X139916392Y-52806814D01*
X139850500Y-52692686D01*
X139757314Y-52599500D01*
X139699100Y-52565890D01*
X139643187Y-52533608D01*
X139579539Y-52516554D01*
X139515892Y-52499500D01*
X139384108Y-52499500D01*
X139256812Y-52533608D01*
X139142686Y-52599500D01*
X139142683Y-52599502D01*
X139049502Y-52692683D01*
X139049500Y-52692686D01*
X138983608Y-52806812D01*
X138967778Y-52865892D01*
X138949500Y-52934108D01*
X127249103Y-52934108D01*
X127307314Y-52900500D01*
X127400500Y-52807314D01*
X127466392Y-52693186D01*
X127500500Y-52565892D01*
X127500500Y-52434108D01*
X127466392Y-52306814D01*
X127400500Y-52192686D01*
X127391922Y-52184108D01*
X153249500Y-52184108D01*
X153249500Y-52315891D01*
X153283608Y-52443187D01*
X153312185Y-52492683D01*
X153349500Y-52557314D01*
X153442686Y-52650500D01*
X153556814Y-52716392D01*
X153684108Y-52750500D01*
X153684110Y-52750500D01*
X153815890Y-52750500D01*
X153815892Y-52750500D01*
X153943186Y-52716392D01*
X154057314Y-52650500D01*
X154150500Y-52557314D01*
X154216392Y-52443186D01*
X154250500Y-52315892D01*
X154250500Y-52184108D01*
X154216392Y-52056814D01*
X154150500Y-51942686D01*
X154057314Y-51849500D01*
X154000250Y-51816554D01*
X153943187Y-51783608D01*
X153879539Y-51766554D01*
X153815892Y-51749500D01*
X153684108Y-51749500D01*
X153556812Y-51783608D01*
X153442686Y-51849500D01*
X153442683Y-51849502D01*
X153349502Y-51942683D01*
X153349500Y-51942686D01*
X153283608Y-52056812D01*
X153249500Y-52184108D01*
X127391922Y-52184108D01*
X127307314Y-52099500D01*
X127233380Y-52056814D01*
X127193187Y-52033608D01*
X127129539Y-52016554D01*
X127065892Y-51999500D01*
X126934108Y-51999500D01*
X126806812Y-52033608D01*
X126692686Y-52099500D01*
X126692683Y-52099502D01*
X126599502Y-52192683D01*
X126599500Y-52192686D01*
X126533608Y-52306812D01*
X126499500Y-52434108D01*
X111741922Y-52434108D01*
X111707314Y-52399500D01*
X111650250Y-52366554D01*
X111593187Y-52333608D01*
X111493188Y-52306814D01*
X111465892Y-52299500D01*
X111334108Y-52299500D01*
X111206812Y-52333608D01*
X111092686Y-52399500D01*
X111092683Y-52399502D01*
X110999502Y-52492683D01*
X110999500Y-52492686D01*
X110933608Y-52606812D01*
X110899500Y-52734108D01*
X100070500Y-52734108D01*
X100070500Y-50934108D01*
X117899500Y-50934108D01*
X117899500Y-51065891D01*
X117933608Y-51193187D01*
X117966554Y-51250250D01*
X117999500Y-51307314D01*
X118092686Y-51400500D01*
X118206814Y-51466392D01*
X118334108Y-51500500D01*
X118334110Y-51500500D01*
X118465890Y-51500500D01*
X118465892Y-51500500D01*
X118593186Y-51466392D01*
X118707314Y-51400500D01*
X118800500Y-51307314D01*
X118866392Y-51193186D01*
X118900500Y-51065892D01*
X118900500Y-50934108D01*
X118866392Y-50806814D01*
X118800500Y-50692686D01*
X118707314Y-50599500D01*
X118650250Y-50566554D01*
X118593187Y-50533608D01*
X118529539Y-50516554D01*
X118465892Y-50499500D01*
X118334108Y-50499500D01*
X118206812Y-50533608D01*
X118092686Y-50599500D01*
X118092683Y-50599502D01*
X117999502Y-50692683D01*
X117999500Y-50692686D01*
X117933608Y-50806812D01*
X117899500Y-50934108D01*
X100070500Y-50934108D01*
X100070500Y-50184108D01*
X121999500Y-50184108D01*
X121999500Y-50315891D01*
X122033608Y-50443187D01*
X122066121Y-50499500D01*
X122099500Y-50557314D01*
X122192686Y-50650500D01*
X122306814Y-50716392D01*
X122434108Y-50750500D01*
X122434110Y-50750500D01*
X122565890Y-50750500D01*
X122565892Y-50750500D01*
X122693186Y-50716392D01*
X122807314Y-50650500D01*
X122900500Y-50557314D01*
X122966392Y-50443186D01*
X123000500Y-50315892D01*
X123000500Y-50184108D01*
X122966392Y-50056814D01*
X122900500Y-49942686D01*
X122807314Y-49849500D01*
X122693186Y-49783608D01*
X122565892Y-49749500D01*
X122434108Y-49749500D01*
X122306812Y-49783608D01*
X122192686Y-49849500D01*
X122192683Y-49849502D01*
X122099502Y-49942683D01*
X122099500Y-49942686D01*
X122033608Y-50056812D01*
X121999500Y-50184108D01*
X100070500Y-50184108D01*
X100070500Y-49684108D01*
X160999500Y-49684108D01*
X160999500Y-49815891D01*
X161033608Y-49943187D01*
X161066554Y-50000250D01*
X161099500Y-50057314D01*
X161192686Y-50150500D01*
X161306814Y-50216392D01*
X161434108Y-50250500D01*
X161434110Y-50250500D01*
X161565890Y-50250500D01*
X161565892Y-50250500D01*
X161693186Y-50216392D01*
X161807314Y-50150500D01*
X161900500Y-50057314D01*
X161966392Y-49943186D01*
X162000500Y-49815892D01*
X162000500Y-49684108D01*
X161966392Y-49556814D01*
X161900500Y-49442686D01*
X161807314Y-49349500D01*
X161750250Y-49316554D01*
X161693187Y-49283608D01*
X161629539Y-49266554D01*
X161565892Y-49249500D01*
X161434108Y-49249500D01*
X161306812Y-49283608D01*
X161192686Y-49349500D01*
X161192683Y-49349502D01*
X161099502Y-49442683D01*
X161099500Y-49442686D01*
X161033608Y-49556812D01*
X160999500Y-49684108D01*
X100070500Y-49684108D01*
X100070500Y-47393713D01*
X102149500Y-47393713D01*
X102149500Y-47398655D01*
X102149500Y-47606286D01*
X102182753Y-47816239D01*
X102248444Y-48018414D01*
X102344951Y-48207820D01*
X102469890Y-48379786D01*
X102620213Y-48530109D01*
X102792179Y-48655048D01*
X102792181Y-48655049D01*
X102792184Y-48655051D01*
X102981588Y-48751557D01*
X103183757Y-48817246D01*
X103393713Y-48850500D01*
X103393714Y-48850500D01*
X103606286Y-48850500D01*
X103606287Y-48850500D01*
X103816243Y-48817246D01*
X104018412Y-48751557D01*
X104207816Y-48655051D01*
X104229789Y-48639086D01*
X104379786Y-48530109D01*
X104379788Y-48530106D01*
X104379792Y-48530104D01*
X104530104Y-48379792D01*
X104530106Y-48379788D01*
X104530109Y-48379786D01*
X104620810Y-48254945D01*
X124694499Y-48254945D01*
X124735445Y-48460789D01*
X124735447Y-48460795D01*
X124815765Y-48654701D01*
X124932373Y-48829218D01*
X125080781Y-48977626D01*
X125255298Y-49094234D01*
X125352251Y-49134393D01*
X125449205Y-49174553D01*
X125449209Y-49174553D01*
X125449210Y-49174554D01*
X125655054Y-49215500D01*
X125655057Y-49215500D01*
X125864945Y-49215500D01*
X126003433Y-49187952D01*
X126070795Y-49174553D01*
X126264703Y-49094233D01*
X126439216Y-48977628D01*
X126587628Y-48829216D01*
X126704233Y-48654703D01*
X126784553Y-48460795D01*
X126825500Y-48254943D01*
X126825500Y-47745057D01*
X126825500Y-47745054D01*
X126784554Y-47539210D01*
X126784553Y-47539209D01*
X126784553Y-47539205D01*
X126724288Y-47393713D01*
X126704234Y-47345298D01*
X126587626Y-47170781D01*
X126439218Y-47022373D01*
X126353723Y-46965247D01*
X127234500Y-46965247D01*
X127234500Y-49034752D01*
X127246131Y-49093229D01*
X127246132Y-49093230D01*
X127290447Y-49159552D01*
X127356769Y-49203867D01*
X127356770Y-49203868D01*
X127415247Y-49215499D01*
X127415250Y-49215500D01*
X127415252Y-49215500D01*
X129184750Y-49215500D01*
X129184751Y-49215499D01*
X129199568Y-49212552D01*
X129243229Y-49203868D01*
X129243229Y-49203867D01*
X129243231Y-49203867D01*
X129309552Y-49159552D01*
X129353867Y-49093231D01*
X129353867Y-49093229D01*
X129353868Y-49093229D01*
X129365499Y-49034752D01*
X129365500Y-49034750D01*
X129365500Y-48254945D01*
X133934499Y-48254945D01*
X133975445Y-48460789D01*
X133975447Y-48460795D01*
X134055765Y-48654701D01*
X134172373Y-48829218D01*
X134320781Y-48977626D01*
X134495298Y-49094234D01*
X134592251Y-49134393D01*
X134689205Y-49174553D01*
X134689209Y-49174553D01*
X134689210Y-49174554D01*
X134895054Y-49215500D01*
X134895057Y-49215500D01*
X135104945Y-49215500D01*
X135243433Y-49187952D01*
X135310795Y-49174553D01*
X135504703Y-49094233D01*
X135679216Y-48977628D01*
X135827628Y-48829216D01*
X135944233Y-48654703D01*
X136024553Y-48460795D01*
X136065500Y-48254943D01*
X136065500Y-47745057D01*
X136065500Y-47745054D01*
X136024554Y-47539210D01*
X136024553Y-47539209D01*
X136024553Y-47539205D01*
X135964288Y-47393713D01*
X135944234Y-47345298D01*
X135827626Y-47170781D01*
X135679218Y-47022373D01*
X135593723Y-46965247D01*
X136474500Y-46965247D01*
X136474500Y-49034752D01*
X136486131Y-49093229D01*
X136486132Y-49093230D01*
X136530447Y-49159552D01*
X136596769Y-49203867D01*
X136596770Y-49203868D01*
X136655247Y-49215499D01*
X136655250Y-49215500D01*
X136655252Y-49215500D01*
X138424750Y-49215500D01*
X138424751Y-49215499D01*
X138439568Y-49212552D01*
X138483229Y-49203868D01*
X138483229Y-49203867D01*
X138483231Y-49203867D01*
X138549552Y-49159552D01*
X138593867Y-49093231D01*
X138593867Y-49093229D01*
X138593868Y-49093229D01*
X138605499Y-49034752D01*
X138605500Y-49034750D01*
X138605500Y-47195730D01*
X143074500Y-47195730D01*
X143074500Y-48804269D01*
X143077353Y-48834699D01*
X143077353Y-48834701D01*
X143122206Y-48962880D01*
X143122207Y-48962882D01*
X143202850Y-49072150D01*
X143312118Y-49152793D01*
X143354845Y-49167744D01*
X143440299Y-49197646D01*
X143470730Y-49200500D01*
X143470734Y-49200500D01*
X145079270Y-49200500D01*
X145109699Y-49197646D01*
X145109701Y-49197646D01*
X145175698Y-49174552D01*
X145237882Y-49152793D01*
X145347150Y-49072150D01*
X145427793Y-48962882D01*
X145450219Y-48898790D01*
X145472646Y-48834701D01*
X145472646Y-48834699D01*
X145475500Y-48804269D01*
X145475500Y-47195731D01*
X145474673Y-47186913D01*
X145474673Y-47186912D01*
X145473859Y-47178230D01*
X150074500Y-47178230D01*
X150074500Y-48786769D01*
X150077353Y-48817199D01*
X150077353Y-48817201D01*
X150122206Y-48945380D01*
X150122207Y-48945382D01*
X150202850Y-49054650D01*
X150312118Y-49135293D01*
X150354845Y-49150244D01*
X150440299Y-49180146D01*
X150470730Y-49183000D01*
X150470734Y-49183000D01*
X152079270Y-49183000D01*
X152109699Y-49180146D01*
X152109701Y-49180146D01*
X152173790Y-49157719D01*
X152237882Y-49135293D01*
X152347150Y-49054650D01*
X152427793Y-48945382D01*
X152466523Y-48834699D01*
X152472646Y-48817201D01*
X152472646Y-48817199D01*
X152475500Y-48786769D01*
X152475500Y-47393713D01*
X160149500Y-47393713D01*
X160149500Y-47398655D01*
X160149500Y-47606286D01*
X160182753Y-47816239D01*
X160248444Y-48018414D01*
X160344951Y-48207820D01*
X160469890Y-48379786D01*
X160620213Y-48530109D01*
X160792179Y-48655048D01*
X160792181Y-48655049D01*
X160792184Y-48655051D01*
X160981588Y-48751557D01*
X161183757Y-48817246D01*
X161393713Y-48850500D01*
X161393714Y-48850500D01*
X161606286Y-48850500D01*
X161606287Y-48850500D01*
X161816243Y-48817246D01*
X162018412Y-48751557D01*
X162207816Y-48655051D01*
X162229789Y-48639086D01*
X162379786Y-48530109D01*
X162379788Y-48530106D01*
X162379792Y-48530104D01*
X162530104Y-48379792D01*
X162530106Y-48379788D01*
X162530109Y-48379786D01*
X162655048Y-48207820D01*
X162655047Y-48207820D01*
X162655051Y-48207816D01*
X162751557Y-48018412D01*
X162817246Y-47816243D01*
X162833782Y-47711835D01*
X162836375Y-47701047D01*
X162836108Y-47700983D01*
X162837242Y-47696254D01*
X162837246Y-47696243D01*
X162870500Y-47486287D01*
X162870500Y-47273713D01*
X162837246Y-47063757D01*
X162771557Y-46861588D01*
X162675051Y-46672184D01*
X162675049Y-46672181D01*
X162675048Y-46672179D01*
X162550109Y-46500213D01*
X162399786Y-46349890D01*
X162227820Y-46224951D01*
X162038414Y-46128444D01*
X162038413Y-46128443D01*
X162038412Y-46128443D01*
X161836243Y-46062754D01*
X161836241Y-46062753D01*
X161836240Y-46062753D01*
X161674957Y-46037208D01*
X161626287Y-46029500D01*
X161413713Y-46029500D01*
X161365042Y-46037208D01*
X161203760Y-46062753D01*
X161001585Y-46128444D01*
X160812179Y-46224951D01*
X160640213Y-46349890D01*
X160489890Y-46500213D01*
X160364951Y-46672179D01*
X160268444Y-46861585D01*
X160202753Y-47063760D01*
X160186217Y-47168158D01*
X160186200Y-47168226D01*
X160186200Y-47168266D01*
X160184674Y-47177843D01*
X160182754Y-47183757D01*
X160149500Y-47393713D01*
X152475500Y-47393713D01*
X152475500Y-47178230D01*
X152472646Y-47147800D01*
X152472646Y-47147798D01*
X152428757Y-47022373D01*
X152427793Y-47019618D01*
X152347150Y-46910350D01*
X152237882Y-46829707D01*
X152237880Y-46829706D01*
X152109700Y-46784853D01*
X152079270Y-46782000D01*
X152079266Y-46782000D01*
X150470734Y-46782000D01*
X150470730Y-46782000D01*
X150440300Y-46784853D01*
X150440298Y-46784853D01*
X150312119Y-46829706D01*
X150312117Y-46829707D01*
X150202850Y-46910350D01*
X150122207Y-47019617D01*
X150122206Y-47019619D01*
X150077353Y-47147798D01*
X150077353Y-47147800D01*
X150074500Y-47178230D01*
X145473859Y-47178230D01*
X145472646Y-47165300D01*
X145472646Y-47165298D01*
X145427793Y-47037119D01*
X145427792Y-47037117D01*
X145347150Y-46927850D01*
X145237882Y-46847207D01*
X145237880Y-46847206D01*
X145109700Y-46802353D01*
X145079270Y-46799500D01*
X145079266Y-46799500D01*
X143470734Y-46799500D01*
X143470730Y-46799500D01*
X143440300Y-46802353D01*
X143440298Y-46802353D01*
X143312119Y-46847206D01*
X143312117Y-46847207D01*
X143202850Y-46927850D01*
X143122207Y-47037117D01*
X143122206Y-47037119D01*
X143077353Y-47165298D01*
X143077353Y-47165300D01*
X143074500Y-47195730D01*
X138605500Y-47195730D01*
X138605500Y-46965249D01*
X138605499Y-46965247D01*
X138593868Y-46906770D01*
X138593867Y-46906769D01*
X138549552Y-46840447D01*
X138483230Y-46796132D01*
X138483229Y-46796131D01*
X138424752Y-46784500D01*
X138424748Y-46784500D01*
X136655252Y-46784500D01*
X136655247Y-46784500D01*
X136596770Y-46796131D01*
X136596769Y-46796132D01*
X136530447Y-46840447D01*
X136486132Y-46906769D01*
X136486131Y-46906770D01*
X136474500Y-46965247D01*
X135593723Y-46965247D01*
X135504701Y-46905765D01*
X135310795Y-46825447D01*
X135310789Y-46825445D01*
X135104945Y-46784500D01*
X135104943Y-46784500D01*
X134895057Y-46784500D01*
X134895055Y-46784500D01*
X134689210Y-46825445D01*
X134689204Y-46825447D01*
X134495298Y-46905765D01*
X134320781Y-47022373D01*
X134172373Y-47170781D01*
X134055765Y-47345298D01*
X133975447Y-47539204D01*
X133975445Y-47539210D01*
X133934500Y-47745054D01*
X133934500Y-47745057D01*
X133934500Y-48254943D01*
X133934500Y-48254945D01*
X133934499Y-48254945D01*
X129365500Y-48254945D01*
X129365500Y-46965249D01*
X129365499Y-46965247D01*
X129353868Y-46906770D01*
X129353867Y-46906769D01*
X129309552Y-46840447D01*
X129243230Y-46796132D01*
X129243229Y-46796131D01*
X129184752Y-46784500D01*
X129184748Y-46784500D01*
X127415252Y-46784500D01*
X127415247Y-46784500D01*
X127356770Y-46796131D01*
X127356769Y-46796132D01*
X127290447Y-46840447D01*
X127246132Y-46906769D01*
X127246131Y-46906770D01*
X127234500Y-46965247D01*
X126353723Y-46965247D01*
X126264701Y-46905765D01*
X126070795Y-46825447D01*
X126070789Y-46825445D01*
X125864945Y-46784500D01*
X125864943Y-46784500D01*
X125655057Y-46784500D01*
X125655055Y-46784500D01*
X125449210Y-46825445D01*
X125449204Y-46825447D01*
X125255298Y-46905765D01*
X125080781Y-47022373D01*
X124932373Y-47170781D01*
X124815765Y-47345298D01*
X124735447Y-47539204D01*
X124735445Y-47539210D01*
X124694500Y-47745054D01*
X124694500Y-47745057D01*
X124694500Y-48254943D01*
X124694500Y-48254945D01*
X124694499Y-48254945D01*
X104620810Y-48254945D01*
X104655048Y-48207820D01*
X104655047Y-48207820D01*
X104655051Y-48207816D01*
X104751557Y-48018412D01*
X104817246Y-47816243D01*
X104833782Y-47711835D01*
X104836375Y-47701047D01*
X104836108Y-47700983D01*
X104837242Y-47696254D01*
X104837246Y-47696243D01*
X104870500Y-47486287D01*
X104870500Y-47273713D01*
X104837246Y-47063757D01*
X104771557Y-46861588D01*
X104675051Y-46672184D01*
X104675049Y-46672181D01*
X104675048Y-46672179D01*
X104550109Y-46500213D01*
X104399786Y-46349890D01*
X104227820Y-46224951D01*
X104038414Y-46128444D01*
X104038413Y-46128443D01*
X104038412Y-46128443D01*
X103836243Y-46062754D01*
X103836241Y-46062753D01*
X103836240Y-46062753D01*
X103674957Y-46037208D01*
X103626287Y-46029500D01*
X103413713Y-46029500D01*
X103365042Y-46037208D01*
X103203760Y-46062753D01*
X103001585Y-46128444D01*
X102812179Y-46224951D01*
X102640213Y-46349890D01*
X102489890Y-46500213D01*
X102364951Y-46672179D01*
X102268444Y-46861585D01*
X102202753Y-47063760D01*
X102186217Y-47168158D01*
X102186200Y-47168226D01*
X102186200Y-47168266D01*
X102184674Y-47177843D01*
X102182754Y-47183757D01*
X102149500Y-47393713D01*
X100070500Y-47393713D01*
X100070500Y-46883480D01*
X100070695Y-46876527D01*
X100073564Y-46825445D01*
X100088656Y-46556700D01*
X100090210Y-46542907D01*
X100143283Y-46230537D01*
X100146377Y-46216985D01*
X100171886Y-46128444D01*
X100234090Y-45912526D01*
X100238682Y-45899405D01*
X100359933Y-45606680D01*
X100365953Y-45594180D01*
X100519221Y-45316861D01*
X100526616Y-45305093D01*
X100709970Y-45046678D01*
X100718621Y-45035831D01*
X100929750Y-44799579D01*
X100939581Y-44789749D01*
X101175831Y-44578621D01*
X101186678Y-44569970D01*
X101445098Y-44386612D01*
X101456861Y-44379221D01*
X101734180Y-44225953D01*
X101746680Y-44219933D01*
X102039409Y-44098680D01*
X102052526Y-44094090D01*
X102356990Y-44006375D01*
X102370537Y-44003283D01*
X102682907Y-43950210D01*
X102696700Y-43948656D01*
X103016528Y-43930695D01*
X103023481Y-43930500D01*
X103036409Y-43930500D01*
X162003591Y-43930500D01*
X162016519Y-43930500D01*
X162023472Y-43930695D01*
G37*
%TD.AperFunction*%
%TD*%
M02*
