%TF.GenerationSoftware,KiCad,Pcbnew,10.0.3*%
%TF.CreationDate,2026-06-16T17:40:58-04:00*%
%TF.ProjectId,power_db_hat,706f7765-725f-4646-925f-6861742e6b69,rev?*%
%TF.SameCoordinates,Original*%
%TF.FileFunction,Soldermask,Top*%
%TF.FilePolarity,Negative*%
%FSLAX46Y46*%
G04 Gerber Fmt 4.6, Leading zero omitted, Abs format (unit mm)*
G04 Created by KiCad (PCBNEW 10.0.3) date 2026-06-16 17:40:58*
%MOMM*%
%LPD*%
G01*
G04 APERTURE LIST*
G04 Aperture macros list*
%AMRoundRect*
0 Rectangle with rounded corners*
0 $1 Rounding radius*
0 $2 $3 $4 $5 $6 $7 $8 $9 X,Y pos of 4 corners*
0 Add a 4 corners polygon primitive as box body*
4,1,4,$2,$3,$4,$5,$6,$7,$8,$9,$2,$3,0*
0 Add four circle primitives for the rounded corners*
1,1,$1+$1,$2,$3*
1,1,$1+$1,$4,$5*
1,1,$1+$1,$6,$7*
1,1,$1+$1,$8,$9*
0 Add four rect primitives between the rounded corners*
20,1,$1+$1,$2,$3,$4,$5,0*
20,1,$1+$1,$4,$5,$6,$7,0*
20,1,$1+$1,$6,$7,$8,$9,0*
20,1,$1+$1,$8,$9,$2,$3,0*%
G04 Aperture macros list end*
%ADD10R,0.599999X1.200000*%
%ADD11RoundRect,0.162500X0.825000X0.162500X-0.825000X0.162500X-0.825000X-0.162500X0.825000X-0.162500X0*%
%ADD12RoundRect,0.150000X0.150000X-0.825000X0.150000X0.825000X-0.150000X0.825000X-0.150000X-0.825000X0*%
%ADD13RoundRect,0.237500X0.300000X0.237500X-0.300000X0.237500X-0.300000X-0.237500X0.300000X-0.237500X0*%
%ADD14RoundRect,0.237500X-0.287500X-0.237500X0.287500X-0.237500X0.287500X0.237500X-0.287500X0.237500X0*%
%ADD15R,2.000000X0.900000*%
%ADD16RoundRect,1.025000X1.025000X-1.025000X1.025000X1.025000X-1.025000X1.025000X-1.025000X-1.025000X0*%
%ADD17C,4.100000*%
%ADD18C,2.700000*%
%ADD19RoundRect,0.237500X0.237500X-0.250000X0.237500X0.250000X-0.237500X0.250000X-0.237500X-0.250000X0*%
%ADD20C,1.000000*%
%ADD21R,0.431800X1.333500*%
%ADD22RoundRect,0.237500X0.250000X0.237500X-0.250000X0.237500X-0.250000X-0.237500X0.250000X-0.237500X0*%
%ADD23RoundRect,0.237500X0.237500X-0.300000X0.237500X0.300000X-0.237500X0.300000X-0.237500X-0.300000X0*%
%ADD24RoundRect,0.249999X-0.450001X-1.425001X0.450001X-1.425001X0.450001X1.425001X-0.450001X1.425001X0*%
%ADD25RoundRect,0.250000X0.650000X-1.500000X0.650000X1.500000X-0.650000X1.500000X-0.650000X-1.500000X0*%
%ADD26RoundRect,0.087500X-0.087500X0.662500X-0.087500X-0.662500X0.087500X-0.662500X0.087500X0.662500X0*%
%ADD27R,0.900000X2.000000*%
%ADD28RoundRect,1.025000X1.025000X1.025000X-1.025000X1.025000X-1.025000X-1.025000X1.025000X-1.025000X0*%
%ADD29RoundRect,0.150000X0.700000X-0.150000X0.700000X0.150000X-0.700000X0.150000X-0.700000X-0.150000X0*%
%ADD30RoundRect,0.250000X1.100000X-0.250000X1.100000X0.250000X-1.100000X0.250000X-1.100000X-0.250000X0*%
%ADD31RoundRect,0.237500X-0.237500X0.250000X-0.237500X-0.250000X0.237500X-0.250000X0.237500X0.250000X0*%
%ADD32RoundRect,0.237500X-0.250000X-0.237500X0.250000X-0.237500X0.250000X0.237500X-0.250000X0.237500X0*%
%ADD33RoundRect,0.250000X0.250000X0.475000X-0.250000X0.475000X-0.250000X-0.475000X0.250000X-0.475000X0*%
%ADD34RoundRect,0.237500X-0.237500X0.300000X-0.237500X-0.300000X0.237500X-0.300000X0.237500X0.300000X0*%
%ADD35RoundRect,0.237500X-0.300000X-0.237500X0.300000X-0.237500X0.300000X0.237500X-0.300000X0.237500X0*%
%ADD36RoundRect,0.237500X-0.237500X0.287500X-0.237500X-0.287500X0.237500X-0.287500X0.237500X0.287500X0*%
%ADD37RoundRect,0.250000X0.750000X-0.750000X0.750000X0.750000X-0.750000X0.750000X-0.750000X-0.750000X0*%
%ADD38C,2.000000*%
%ADD39RoundRect,0.250000X1.425000X-0.362500X1.425000X0.362500X-1.425000X0.362500X-1.425000X-0.362500X0*%
%ADD40RoundRect,0.162500X0.162500X-0.825000X0.162500X0.825000X-0.162500X0.825000X-0.162500X-0.825000X0*%
%ADD41RoundRect,0.150000X-0.825000X-0.150000X0.825000X-0.150000X0.825000X0.150000X-0.825000X0.150000X0*%
%ADD42RoundRect,0.250000X0.250000X-0.250000X0.250000X0.250000X-0.250000X0.250000X-0.250000X-0.250000X0*%
%ADD43R,1.730000X2.030000*%
%ADD44O,1.730000X2.030000*%
%ADD45RoundRect,0.250000X0.750000X0.750000X-0.750000X0.750000X-0.750000X-0.750000X0.750000X-0.750000X0*%
%ADD46RoundRect,0.250000X-0.750000X-0.750000X0.750000X-0.750000X0.750000X0.750000X-0.750000X0.750000X0*%
%ADD47RoundRect,0.102000X2.800000X-1.550000X2.800000X1.550000X-2.800000X1.550000X-2.800000X-1.550000X0*%
%ADD48RoundRect,0.075000X0.650000X0.075000X-0.650000X0.075000X-0.650000X-0.075000X0.650000X-0.075000X0*%
G04 APERTURE END LIST*
D10*
%TO.C,U4*%
X118450001Y-79100002D03*
X116550002Y-79100002D03*
X117500000Y-80900001D03*
%TD*%
D11*
%TO.C,Q1*%
X116212500Y-89405000D03*
X116212500Y-88135000D03*
X116212500Y-86865000D03*
X116212500Y-85595000D03*
X111137500Y-89405000D03*
X111137500Y-88135000D03*
X111137500Y-86865000D03*
X111137500Y-85595000D03*
%TD*%
D12*
%TO.C,Q6*%
X150000000Y-71000000D03*
X151270000Y-71000000D03*
X152540000Y-71000000D03*
X153810000Y-71000000D03*
X153810000Y-66050000D03*
X152540000Y-66050000D03*
X151270000Y-66050000D03*
X150000000Y-66050000D03*
%TD*%
D13*
%TO.C,C49*%
X147612500Y-69500000D03*
X145887500Y-69500000D03*
%TD*%
D14*
%TO.C,D4*%
X105337500Y-57900000D03*
X107087500Y-57900000D03*
%TD*%
D15*
%TO.C,J5*%
X102400000Y-74300000D03*
X102400000Y-60800000D03*
D16*
X108400000Y-63950000D03*
D17*
X108400000Y-71150000D03*
%TD*%
D18*
%TO.C,MH2*%
X161500000Y-47500000D03*
%TD*%
D19*
%TO.C,R14*%
X154500000Y-48412500D03*
X154500000Y-46587500D03*
%TD*%
D20*
%TO.C,TP3*%
X109012500Y-55800000D03*
%TD*%
D21*
%TO.C,U2*%
X141275001Y-79716150D03*
X141924999Y-79716150D03*
X142575001Y-79716150D03*
X143224999Y-79716150D03*
X143224999Y-75283850D03*
X142575001Y-75283850D03*
X141924999Y-75283850D03*
X141275001Y-75283850D03*
%TD*%
D22*
%TO.C,R25*%
X110325000Y-78500000D03*
X108500000Y-78500000D03*
%TD*%
%TO.C,R24*%
X114325000Y-78500000D03*
X112500000Y-78500000D03*
%TD*%
%TO.C,R11*%
X103325000Y-53800000D03*
X101500000Y-53800000D03*
%TD*%
D23*
%TO.C,C21*%
X121250000Y-85862500D03*
X121250000Y-84137500D03*
%TD*%
D20*
%TO.C,TP1*%
X109012500Y-51800000D03*
%TD*%
D22*
%TO.C,R13*%
X103325000Y-57900000D03*
X101500000Y-57900000D03*
%TD*%
D24*
%TO.C,R34*%
X116950000Y-59200000D03*
X123050000Y-59200000D03*
%TD*%
D22*
%TO.C,R10*%
X103325000Y-51800000D03*
X101500000Y-51800000D03*
%TD*%
%TO.C,R7*%
X122912500Y-82000000D03*
X121087500Y-82000000D03*
%TD*%
D25*
%TO.C,D41*%
X125750000Y-84555348D03*
X125750000Y-79555348D03*
%TD*%
D23*
%TO.C,C12*%
X113750000Y-76612500D03*
X113750000Y-74887500D03*
%TD*%
D26*
%TO.C,U6*%
X135000000Y-65150000D03*
X134500000Y-65150000D03*
X134000000Y-65150000D03*
X133500000Y-65150000D03*
X133000000Y-65150000D03*
X133000000Y-69350000D03*
X133500000Y-69350000D03*
X134000000Y-69350000D03*
X134500000Y-69350000D03*
X135000000Y-69350000D03*
%TD*%
D27*
%TO.C,J2*%
X137500000Y-96000000D03*
X124000000Y-96000000D03*
D28*
X134350000Y-90000000D03*
D17*
X127150000Y-90000000D03*
%TD*%
D20*
%TO.C,TP2*%
X109000000Y-53800000D03*
%TD*%
D29*
%TO.C,J1*%
X158650000Y-66625000D03*
X158650000Y-65375000D03*
X158650000Y-64125000D03*
X158650000Y-62875000D03*
D30*
X161850000Y-68475000D03*
X161850000Y-61025000D03*
%TD*%
D31*
%TO.C,R28*%
X108000000Y-80587500D03*
X108000000Y-82412500D03*
%TD*%
D32*
%TO.C,R29*%
X108587500Y-76750000D03*
X110412500Y-76750000D03*
%TD*%
D33*
%TO.C,C48*%
X114150000Y-48000000D03*
X112250000Y-48000000D03*
%TD*%
D11*
%TO.C,Q2*%
X107537500Y-88000000D03*
X107537500Y-86730000D03*
X107537500Y-85460000D03*
X107537500Y-84190000D03*
X102462500Y-88000000D03*
X102462500Y-86730000D03*
X102462500Y-85460000D03*
X102462500Y-84190000D03*
%TD*%
D33*
%TO.C,C27*%
X114750000Y-58000000D03*
X112850000Y-58000000D03*
%TD*%
D34*
%TO.C,C30*%
X138250000Y-75637500D03*
X138250000Y-77362500D03*
%TD*%
D35*
%TO.C,C50*%
X137500000Y-65000000D03*
X139225000Y-65000000D03*
%TD*%
D27*
%TO.C,J8*%
X155000000Y-96000000D03*
X141500000Y-96000000D03*
D28*
X151850000Y-90000000D03*
D17*
X144650000Y-90000000D03*
%TD*%
D29*
%TO.C,J6*%
X158650000Y-76125000D03*
X158650000Y-74875000D03*
X158650000Y-73625000D03*
X158650000Y-72375000D03*
D30*
X161850000Y-77975000D03*
X161850000Y-70525000D03*
%TD*%
D22*
%TO.C,R12*%
X103325000Y-55800000D03*
X101500000Y-55800000D03*
%TD*%
D36*
%TO.C,D5*%
X156750000Y-46625000D03*
X156750000Y-48375000D03*
%TD*%
D18*
%TO.C,MH3*%
X103500000Y-96500000D03*
%TD*%
D37*
%TO.C,J7*%
X160500000Y-90790000D03*
D38*
X160500000Y-88250000D03*
%TD*%
D39*
%TO.C,R17*%
X154000000Y-80962500D03*
X154000000Y-75037500D03*
%TD*%
D18*
%TO.C,MH1*%
X103500000Y-47500000D03*
%TD*%
D33*
%TO.C,C17*%
X114750000Y-60500000D03*
X112850000Y-60500000D03*
%TD*%
D40*
%TO.C,Q4*%
X116330000Y-54275000D03*
X117600000Y-54275000D03*
X118870000Y-54275000D03*
X120140000Y-54275000D03*
X116330000Y-49200000D03*
X117600000Y-49200000D03*
X118870000Y-49200000D03*
X120140000Y-49200000D03*
%TD*%
D14*
%TO.C,D2*%
X105337500Y-53800000D03*
X107087500Y-53800000D03*
%TD*%
D41*
%TO.C,U10*%
X138525000Y-68345000D03*
X138525000Y-69615000D03*
X138525000Y-70885000D03*
X138525000Y-72155000D03*
X143475000Y-72155000D03*
X143475000Y-70885000D03*
X143475000Y-69615000D03*
X143475000Y-68345000D03*
%TD*%
D42*
%TO.C,D11*%
X119250000Y-88000000D03*
X119250000Y-85500000D03*
%TD*%
D13*
%TO.C,C18*%
X103062500Y-89900000D03*
X101337500Y-89900000D03*
%TD*%
D43*
%TO.C,J11*%
X128300000Y-48000000D03*
D44*
X125760000Y-48000000D03*
X123220000Y-48000000D03*
%TD*%
D31*
%TO.C,R30*%
X112500000Y-80587500D03*
X112500000Y-82412500D03*
%TD*%
D13*
%TO.C,C2*%
X147862500Y-53750000D03*
X146137500Y-53750000D03*
%TD*%
D35*
%TO.C,C47*%
X112337500Y-45090000D03*
X114062500Y-45090000D03*
%TD*%
D32*
%TO.C,R3*%
X146337500Y-72500000D03*
X148162500Y-72500000D03*
%TD*%
D14*
%TO.C,D3*%
X105337500Y-55800000D03*
X107087500Y-55800000D03*
%TD*%
D29*
%TO.C,J20*%
X158650000Y-57130000D03*
X158650000Y-55880000D03*
X158650000Y-54630000D03*
X158650000Y-53380000D03*
D30*
X161850000Y-58980000D03*
X161850000Y-51530000D03*
%TD*%
D33*
%TO.C,C28*%
X114750000Y-55600000D03*
X112850000Y-55600000D03*
%TD*%
D45*
%TO.C,J15*%
X144275000Y-48000000D03*
D38*
X141735000Y-48000000D03*
%TD*%
D31*
%TO.C,R27*%
X114500000Y-80587500D03*
X114500000Y-82412500D03*
%TD*%
D46*
%TO.C,J10*%
X109500000Y-95500000D03*
D38*
X112040000Y-95500000D03*
%TD*%
D14*
%TO.C,D1*%
X105337500Y-51800000D03*
X107087500Y-51800000D03*
%TD*%
D18*
%TO.C,MH4*%
X161500000Y-96500000D03*
%TD*%
D32*
%TO.C,R16*%
X145837500Y-67500000D03*
X147662500Y-67500000D03*
%TD*%
D45*
%TO.C,J4*%
X151275000Y-47982500D03*
D38*
X148735000Y-47982500D03*
%TD*%
D39*
%TO.C,R6*%
X149000000Y-82462500D03*
X149000000Y-76537500D03*
%TD*%
D19*
%TO.C,R9*%
X123000000Y-85912500D03*
X123000000Y-84087500D03*
%TD*%
D47*
%TO.C,L1*%
X121500000Y-74300000D03*
X121500000Y-64200000D03*
%TD*%
D19*
%TO.C,R26*%
X112000000Y-76662500D03*
X112000000Y-74837500D03*
%TD*%
%TO.C,R5*%
X122200000Y-53662500D03*
X122200000Y-51837500D03*
%TD*%
D37*
%TO.C,J3*%
X160500000Y-83750000D03*
D38*
X160500000Y-81210000D03*
%TD*%
D43*
%TO.C,J12*%
X137540000Y-48000000D03*
D44*
X135000000Y-48000000D03*
X132460000Y-48000000D03*
%TD*%
D46*
%TO.C,J16*%
X116960000Y-95500000D03*
D38*
X119500000Y-95500000D03*
%TD*%
D42*
%TO.C,D7*%
X110250000Y-83000000D03*
X110250000Y-80500000D03*
%TD*%
D18*
%TO.C,U7*%
X103520000Y-47380000D03*
X103520000Y-96380000D03*
X161520000Y-47380000D03*
X161520000Y-96380000D03*
%TD*%
D20*
%TO.C,TP4*%
X109000000Y-57800000D03*
%TD*%
D48*
%TO.C,U11*%
X154650000Y-55500000D03*
X154650000Y-55000000D03*
X154650000Y-54500000D03*
X154650000Y-54000000D03*
X154650000Y-53500000D03*
X150350000Y-53500000D03*
X150350000Y-54000000D03*
X150350000Y-54500000D03*
X150350000Y-55000000D03*
X150350000Y-55500000D03*
%TD*%
D13*
%TO.C,C22*%
X107362500Y-89900000D03*
X105637500Y-89900000D03*
%TD*%
M02*
