%TF.GenerationSoftware,KiCad,Pcbnew,10.0.0*%
%TF.CreationDate,2026-04-01T16:59:59-04:00*%
%TF.ProjectId,power_db_hat,706f7765-725f-4646-925f-6861742e6b69,rev?*%
%TF.SameCoordinates,Original*%
%TF.FileFunction,Legend,Top*%
%TF.FilePolarity,Positive*%
%FSLAX46Y46*%
G04 Gerber Fmt 4.6, Leading zero omitted, Abs format (unit mm)*
G04 Created by KiCad (PCBNEW 10.0.0) date 2026-04-01 16:59:59*
%MOMM*%
%LPD*%
G01*
G04 APERTURE LIST*
%ADD10C,0.150000*%
%ADD11C,0.120000*%
%ADD12C,0.200000*%
%ADD13C,0.127000*%
G04 APERTURE END LIST*
D10*
X110184398Y-51518771D02*
X110555826Y-51518771D01*
X110555826Y-51518771D02*
X110355826Y-51747342D01*
X110355826Y-51747342D02*
X110441541Y-51747342D01*
X110441541Y-51747342D02*
X110498684Y-51775914D01*
X110498684Y-51775914D02*
X110527255Y-51804485D01*
X110527255Y-51804485D02*
X110555826Y-51861628D01*
X110555826Y-51861628D02*
X110555826Y-52004485D01*
X110555826Y-52004485D02*
X110527255Y-52061628D01*
X110527255Y-52061628D02*
X110498684Y-52090200D01*
X110498684Y-52090200D02*
X110441541Y-52118771D01*
X110441541Y-52118771D02*
X110270112Y-52118771D01*
X110270112Y-52118771D02*
X110212969Y-52090200D01*
X110212969Y-52090200D02*
X110184398Y-52061628D01*
X110727255Y-51518771D02*
X110927255Y-52118771D01*
X110927255Y-52118771D02*
X111127255Y-51518771D01*
X111270113Y-51518771D02*
X111641541Y-51518771D01*
X111641541Y-51518771D02*
X111441541Y-51747342D01*
X111441541Y-51747342D02*
X111527256Y-51747342D01*
X111527256Y-51747342D02*
X111584399Y-51775914D01*
X111584399Y-51775914D02*
X111612970Y-51804485D01*
X111612970Y-51804485D02*
X111641541Y-51861628D01*
X111641541Y-51861628D02*
X111641541Y-52004485D01*
X111641541Y-52004485D02*
X111612970Y-52061628D01*
X111612970Y-52061628D02*
X111584399Y-52090200D01*
X111584399Y-52090200D02*
X111527256Y-52118771D01*
X111527256Y-52118771D02*
X111355827Y-52118771D01*
X111355827Y-52118771D02*
X111298684Y-52090200D01*
X111298684Y-52090200D02*
X111270113Y-52061628D01*
X110527255Y-53518771D02*
X110241541Y-53518771D01*
X110241541Y-53518771D02*
X110212969Y-53804485D01*
X110212969Y-53804485D02*
X110241541Y-53775914D01*
X110241541Y-53775914D02*
X110298684Y-53747342D01*
X110298684Y-53747342D02*
X110441541Y-53747342D01*
X110441541Y-53747342D02*
X110498684Y-53775914D01*
X110498684Y-53775914D02*
X110527255Y-53804485D01*
X110527255Y-53804485D02*
X110555826Y-53861628D01*
X110555826Y-53861628D02*
X110555826Y-54004485D01*
X110555826Y-54004485D02*
X110527255Y-54061628D01*
X110527255Y-54061628D02*
X110498684Y-54090200D01*
X110498684Y-54090200D02*
X110441541Y-54118771D01*
X110441541Y-54118771D02*
X110298684Y-54118771D01*
X110298684Y-54118771D02*
X110241541Y-54090200D01*
X110241541Y-54090200D02*
X110212969Y-54061628D01*
X110727255Y-53518771D02*
X110927255Y-54118771D01*
X110927255Y-54118771D02*
X111127255Y-53518771D01*
X110555826Y-56118771D02*
X110212969Y-56118771D01*
X110384398Y-56118771D02*
X110384398Y-55518771D01*
X110384398Y-55518771D02*
X110327255Y-55604485D01*
X110327255Y-55604485D02*
X110270112Y-55661628D01*
X110270112Y-55661628D02*
X110212969Y-55690200D01*
X110784398Y-55575914D02*
X110812970Y-55547342D01*
X110812970Y-55547342D02*
X110870113Y-55518771D01*
X110870113Y-55518771D02*
X111012970Y-55518771D01*
X111012970Y-55518771D02*
X111070113Y-55547342D01*
X111070113Y-55547342D02*
X111098684Y-55575914D01*
X111098684Y-55575914D02*
X111127255Y-55633057D01*
X111127255Y-55633057D02*
X111127255Y-55690200D01*
X111127255Y-55690200D02*
X111098684Y-55775914D01*
X111098684Y-55775914D02*
X110755827Y-56118771D01*
X110755827Y-56118771D02*
X111127255Y-56118771D01*
X111298684Y-55518771D02*
X111498684Y-56118771D01*
X111498684Y-56118771D02*
X111698684Y-55518771D01*
X110212969Y-57575914D02*
X110241541Y-57547342D01*
X110241541Y-57547342D02*
X110298684Y-57518771D01*
X110298684Y-57518771D02*
X110441541Y-57518771D01*
X110441541Y-57518771D02*
X110498684Y-57547342D01*
X110498684Y-57547342D02*
X110527255Y-57575914D01*
X110527255Y-57575914D02*
X110555826Y-57633057D01*
X110555826Y-57633057D02*
X110555826Y-57690200D01*
X110555826Y-57690200D02*
X110527255Y-57775914D01*
X110527255Y-57775914D02*
X110184398Y-58118771D01*
X110184398Y-58118771D02*
X110555826Y-58118771D01*
X111070113Y-57718771D02*
X111070113Y-58118771D01*
X110927255Y-57490200D02*
X110784398Y-57918771D01*
X110784398Y-57918771D02*
X111155827Y-57918771D01*
X111298684Y-57518771D02*
X111498684Y-58118771D01*
X111498684Y-58118771D02*
X111698684Y-57518771D01*
X158441541Y-91318771D02*
X158441541Y-90718771D01*
X158727255Y-91318771D02*
X158727255Y-90718771D01*
X158727255Y-90718771D02*
X159070112Y-91318771D01*
X159070112Y-91318771D02*
X159070112Y-90718771D01*
X159355826Y-91318771D02*
X159355826Y-90718771D01*
X159355826Y-90718771D02*
X159498683Y-90718771D01*
X159498683Y-90718771D02*
X159584397Y-90747342D01*
X159584397Y-90747342D02*
X159641540Y-90804485D01*
X159641540Y-90804485D02*
X159670111Y-90861628D01*
X159670111Y-90861628D02*
X159698683Y-90975914D01*
X159698683Y-90975914D02*
X159698683Y-91061628D01*
X159698683Y-91061628D02*
X159670111Y-91175914D01*
X159670111Y-91175914D02*
X159641540Y-91233057D01*
X159641540Y-91233057D02*
X159584397Y-91290200D01*
X159584397Y-91290200D02*
X159498683Y-91318771D01*
X159498683Y-91318771D02*
X159355826Y-91318771D01*
X129070112Y-86346009D02*
X129212969Y-86393628D01*
X129212969Y-86393628D02*
X129260588Y-86441247D01*
X129260588Y-86441247D02*
X129308207Y-86536485D01*
X129308207Y-86536485D02*
X129308207Y-86679342D01*
X129308207Y-86679342D02*
X129260588Y-86774580D01*
X129260588Y-86774580D02*
X129212969Y-86822200D01*
X129212969Y-86822200D02*
X129117731Y-86869819D01*
X129117731Y-86869819D02*
X128736779Y-86869819D01*
X128736779Y-86869819D02*
X128736779Y-85869819D01*
X128736779Y-85869819D02*
X129070112Y-85869819D01*
X129070112Y-85869819D02*
X129165350Y-85917438D01*
X129165350Y-85917438D02*
X129212969Y-85965057D01*
X129212969Y-85965057D02*
X129260588Y-86060295D01*
X129260588Y-86060295D02*
X129260588Y-86155533D01*
X129260588Y-86155533D02*
X129212969Y-86250771D01*
X129212969Y-86250771D02*
X129165350Y-86298390D01*
X129165350Y-86298390D02*
X129070112Y-86346009D01*
X129070112Y-86346009D02*
X128736779Y-86346009D01*
X129689160Y-86584104D02*
X130165350Y-86584104D01*
X129593922Y-86869819D02*
X129927255Y-85869819D01*
X129927255Y-85869819D02*
X130260588Y-86869819D01*
X130451065Y-85869819D02*
X131022493Y-85869819D01*
X130736779Y-86869819D02*
X130736779Y-85869819D01*
X132070113Y-85965057D02*
X132117732Y-85917438D01*
X132117732Y-85917438D02*
X132212970Y-85869819D01*
X132212970Y-85869819D02*
X132451065Y-85869819D01*
X132451065Y-85869819D02*
X132546303Y-85917438D01*
X132546303Y-85917438D02*
X132593922Y-85965057D01*
X132593922Y-85965057D02*
X132641541Y-86060295D01*
X132641541Y-86060295D02*
X132641541Y-86155533D01*
X132641541Y-86155533D02*
X132593922Y-86298390D01*
X132593922Y-86298390D02*
X132022494Y-86869819D01*
X132022494Y-86869819D02*
X132641541Y-86869819D01*
X146470112Y-86346009D02*
X146612969Y-86393628D01*
X146612969Y-86393628D02*
X146660588Y-86441247D01*
X146660588Y-86441247D02*
X146708207Y-86536485D01*
X146708207Y-86536485D02*
X146708207Y-86679342D01*
X146708207Y-86679342D02*
X146660588Y-86774580D01*
X146660588Y-86774580D02*
X146612969Y-86822200D01*
X146612969Y-86822200D02*
X146517731Y-86869819D01*
X146517731Y-86869819D02*
X146136779Y-86869819D01*
X146136779Y-86869819D02*
X146136779Y-85869819D01*
X146136779Y-85869819D02*
X146470112Y-85869819D01*
X146470112Y-85869819D02*
X146565350Y-85917438D01*
X146565350Y-85917438D02*
X146612969Y-85965057D01*
X146612969Y-85965057D02*
X146660588Y-86060295D01*
X146660588Y-86060295D02*
X146660588Y-86155533D01*
X146660588Y-86155533D02*
X146612969Y-86250771D01*
X146612969Y-86250771D02*
X146565350Y-86298390D01*
X146565350Y-86298390D02*
X146470112Y-86346009D01*
X146470112Y-86346009D02*
X146136779Y-86346009D01*
X147089160Y-86584104D02*
X147565350Y-86584104D01*
X146993922Y-86869819D02*
X147327255Y-85869819D01*
X147327255Y-85869819D02*
X147660588Y-86869819D01*
X147851065Y-85869819D02*
X148422493Y-85869819D01*
X148136779Y-86869819D02*
X148136779Y-85869819D01*
X150041541Y-86869819D02*
X149470113Y-86869819D01*
X149755827Y-86869819D02*
X149755827Y-85869819D01*
X149755827Y-85869819D02*
X149660589Y-86012676D01*
X149660589Y-86012676D02*
X149565351Y-86107914D01*
X149565351Y-86107914D02*
X149470113Y-86155533D01*
X107022200Y-97910839D02*
X107069819Y-97767982D01*
X107069819Y-97767982D02*
X107069819Y-97529887D01*
X107069819Y-97529887D02*
X107022200Y-97434649D01*
X107022200Y-97434649D02*
X106974580Y-97387030D01*
X106974580Y-97387030D02*
X106879342Y-97339411D01*
X106879342Y-97339411D02*
X106784104Y-97339411D01*
X106784104Y-97339411D02*
X106688866Y-97387030D01*
X106688866Y-97387030D02*
X106641247Y-97434649D01*
X106641247Y-97434649D02*
X106593628Y-97529887D01*
X106593628Y-97529887D02*
X106546009Y-97720363D01*
X106546009Y-97720363D02*
X106498390Y-97815601D01*
X106498390Y-97815601D02*
X106450771Y-97863220D01*
X106450771Y-97863220D02*
X106355533Y-97910839D01*
X106355533Y-97910839D02*
X106260295Y-97910839D01*
X106260295Y-97910839D02*
X106165057Y-97863220D01*
X106165057Y-97863220D02*
X106117438Y-97815601D01*
X106117438Y-97815601D02*
X106069819Y-97720363D01*
X106069819Y-97720363D02*
X106069819Y-97482268D01*
X106069819Y-97482268D02*
X106117438Y-97339411D01*
X106069819Y-97006077D02*
X107069819Y-96767982D01*
X107069819Y-96767982D02*
X106355533Y-96577506D01*
X106355533Y-96577506D02*
X107069819Y-96387030D01*
X107069819Y-96387030D02*
X106069819Y-96148935D01*
X107069819Y-95767982D02*
X106069819Y-95767982D01*
X106069819Y-95434649D02*
X106069819Y-94863221D01*
X107069819Y-95148935D02*
X106069819Y-95148935D01*
X106974580Y-93958459D02*
X107022200Y-94006078D01*
X107022200Y-94006078D02*
X107069819Y-94148935D01*
X107069819Y-94148935D02*
X107069819Y-94244173D01*
X107069819Y-94244173D02*
X107022200Y-94387030D01*
X107022200Y-94387030D02*
X106926961Y-94482268D01*
X106926961Y-94482268D02*
X106831723Y-94529887D01*
X106831723Y-94529887D02*
X106641247Y-94577506D01*
X106641247Y-94577506D02*
X106498390Y-94577506D01*
X106498390Y-94577506D02*
X106307914Y-94529887D01*
X106307914Y-94529887D02*
X106212676Y-94482268D01*
X106212676Y-94482268D02*
X106117438Y-94387030D01*
X106117438Y-94387030D02*
X106069819Y-94244173D01*
X106069819Y-94244173D02*
X106069819Y-94148935D01*
X106069819Y-94148935D02*
X106117438Y-94006078D01*
X106117438Y-94006078D02*
X106165057Y-93958459D01*
X107069819Y-93529887D02*
X106069819Y-93529887D01*
X106546009Y-93529887D02*
X106546009Y-92958459D01*
X107069819Y-92958459D02*
X106069819Y-92958459D01*
X111355113Y-68910839D02*
X111307494Y-68863220D01*
X111307494Y-68863220D02*
X111259875Y-68767982D01*
X111259875Y-68767982D02*
X111259875Y-68529887D01*
X111259875Y-68529887D02*
X111307494Y-68434649D01*
X111307494Y-68434649D02*
X111355113Y-68387030D01*
X111355113Y-68387030D02*
X111450351Y-68339411D01*
X111450351Y-68339411D02*
X111545589Y-68339411D01*
X111545589Y-68339411D02*
X111688446Y-68387030D01*
X111688446Y-68387030D02*
X112259875Y-68958458D01*
X112259875Y-68958458D02*
X112259875Y-68339411D01*
X111593208Y-67482268D02*
X112259875Y-67482268D01*
X111212256Y-67720363D02*
X111926541Y-67958458D01*
X111926541Y-67958458D02*
X111926541Y-67339411D01*
X111259875Y-67101315D02*
X112259875Y-66767982D01*
X112259875Y-66767982D02*
X111259875Y-66434649D01*
X156869819Y-64787030D02*
X156869819Y-65263220D01*
X156869819Y-65263220D02*
X155869819Y-65263220D01*
X156346009Y-64453696D02*
X156346009Y-64120363D01*
X156869819Y-63977506D02*
X156869819Y-64453696D01*
X156869819Y-64453696D02*
X155869819Y-64453696D01*
X155869819Y-64453696D02*
X155869819Y-63977506D01*
X156869819Y-63548934D02*
X155869819Y-63548934D01*
X155869819Y-63548934D02*
X155869819Y-63310839D01*
X155869819Y-63310839D02*
X155917438Y-63167982D01*
X155917438Y-63167982D02*
X156012676Y-63072744D01*
X156012676Y-63072744D02*
X156107914Y-63025125D01*
X156107914Y-63025125D02*
X156298390Y-62977506D01*
X156298390Y-62977506D02*
X156441247Y-62977506D01*
X156441247Y-62977506D02*
X156631723Y-63025125D01*
X156631723Y-63025125D02*
X156726961Y-63072744D01*
X156726961Y-63072744D02*
X156822200Y-63167982D01*
X156822200Y-63167982D02*
X156869819Y-63310839D01*
X156869819Y-63310839D02*
X156869819Y-63548934D01*
X156869819Y-62025125D02*
X156869819Y-62596553D01*
X156869819Y-62310839D02*
X155869819Y-62310839D01*
X155869819Y-62310839D02*
X156012676Y-62406077D01*
X156012676Y-62406077D02*
X156107914Y-62501315D01*
X156107914Y-62501315D02*
X156155533Y-62596553D01*
X156869819Y-72387030D02*
X156869819Y-72863220D01*
X156869819Y-72863220D02*
X155869819Y-72863220D01*
X156346009Y-72053696D02*
X156346009Y-71720363D01*
X156869819Y-71577506D02*
X156869819Y-72053696D01*
X156869819Y-72053696D02*
X155869819Y-72053696D01*
X155869819Y-72053696D02*
X155869819Y-71577506D01*
X156869819Y-71148934D02*
X155869819Y-71148934D01*
X155869819Y-71148934D02*
X155869819Y-70910839D01*
X155869819Y-70910839D02*
X155917438Y-70767982D01*
X155917438Y-70767982D02*
X156012676Y-70672744D01*
X156012676Y-70672744D02*
X156107914Y-70625125D01*
X156107914Y-70625125D02*
X156298390Y-70577506D01*
X156298390Y-70577506D02*
X156441247Y-70577506D01*
X156441247Y-70577506D02*
X156631723Y-70625125D01*
X156631723Y-70625125D02*
X156726961Y-70672744D01*
X156726961Y-70672744D02*
X156822200Y-70767982D01*
X156822200Y-70767982D02*
X156869819Y-70910839D01*
X156869819Y-70910839D02*
X156869819Y-71148934D01*
X155965057Y-70196553D02*
X155917438Y-70148934D01*
X155917438Y-70148934D02*
X155869819Y-70053696D01*
X155869819Y-70053696D02*
X155869819Y-69815601D01*
X155869819Y-69815601D02*
X155917438Y-69720363D01*
X155917438Y-69720363D02*
X155965057Y-69672744D01*
X155965057Y-69672744D02*
X156060295Y-69625125D01*
X156060295Y-69625125D02*
X156155533Y-69625125D01*
X156155533Y-69625125D02*
X156298390Y-69672744D01*
X156298390Y-69672744D02*
X156869819Y-70244172D01*
X156869819Y-70244172D02*
X156869819Y-69625125D01*
X156584104Y-80110839D02*
X156584104Y-79634649D01*
X156869819Y-80206077D02*
X155869819Y-79872744D01*
X155869819Y-79872744D02*
X156869819Y-79539411D01*
X156774580Y-78634649D02*
X156822200Y-78682268D01*
X156822200Y-78682268D02*
X156869819Y-78825125D01*
X156869819Y-78825125D02*
X156869819Y-78920363D01*
X156869819Y-78920363D02*
X156822200Y-79063220D01*
X156822200Y-79063220D02*
X156726961Y-79158458D01*
X156726961Y-79158458D02*
X156631723Y-79206077D01*
X156631723Y-79206077D02*
X156441247Y-79253696D01*
X156441247Y-79253696D02*
X156298390Y-79253696D01*
X156298390Y-79253696D02*
X156107914Y-79206077D01*
X156107914Y-79206077D02*
X156012676Y-79158458D01*
X156012676Y-79158458D02*
X155917438Y-79063220D01*
X155917438Y-79063220D02*
X155869819Y-78920363D01*
X155869819Y-78920363D02*
X155869819Y-78825125D01*
X155869819Y-78825125D02*
X155917438Y-78682268D01*
X155917438Y-78682268D02*
X155965057Y-78634649D01*
X155869819Y-78348934D02*
X155869819Y-77777506D01*
X156869819Y-78063220D02*
X155869819Y-78063220D01*
X156869819Y-76920363D02*
X156869819Y-77491791D01*
X156869819Y-77206077D02*
X155869819Y-77206077D01*
X155869819Y-77206077D02*
X156012676Y-77301315D01*
X156012676Y-77301315D02*
X156107914Y-77396553D01*
X156107914Y-77396553D02*
X156155533Y-77491791D01*
X156574160Y-87710839D02*
X156574160Y-87234649D01*
X156859875Y-87806077D02*
X155859875Y-87472744D01*
X155859875Y-87472744D02*
X156859875Y-87139411D01*
X156764636Y-86234649D02*
X156812256Y-86282268D01*
X156812256Y-86282268D02*
X156859875Y-86425125D01*
X156859875Y-86425125D02*
X156859875Y-86520363D01*
X156859875Y-86520363D02*
X156812256Y-86663220D01*
X156812256Y-86663220D02*
X156717017Y-86758458D01*
X156717017Y-86758458D02*
X156621779Y-86806077D01*
X156621779Y-86806077D02*
X156431303Y-86853696D01*
X156431303Y-86853696D02*
X156288446Y-86853696D01*
X156288446Y-86853696D02*
X156097970Y-86806077D01*
X156097970Y-86806077D02*
X156002732Y-86758458D01*
X156002732Y-86758458D02*
X155907494Y-86663220D01*
X155907494Y-86663220D02*
X155859875Y-86520363D01*
X155859875Y-86520363D02*
X155859875Y-86425125D01*
X155859875Y-86425125D02*
X155907494Y-86282268D01*
X155907494Y-86282268D02*
X155955113Y-86234649D01*
X155859875Y-85948934D02*
X155859875Y-85377506D01*
X156859875Y-85663220D02*
X155859875Y-85663220D01*
X155955113Y-85091791D02*
X155907494Y-85044172D01*
X155907494Y-85044172D02*
X155859875Y-84948934D01*
X155859875Y-84948934D02*
X155859875Y-84710839D01*
X155859875Y-84710839D02*
X155907494Y-84615601D01*
X155907494Y-84615601D02*
X155955113Y-84567982D01*
X155955113Y-84567982D02*
X156050351Y-84520363D01*
X156050351Y-84520363D02*
X156145589Y-84520363D01*
X156145589Y-84520363D02*
X156288446Y-84567982D01*
X156288446Y-84567982D02*
X156859875Y-85139410D01*
X156859875Y-85139410D02*
X156859875Y-84520363D01*
X133110839Y-51377800D02*
X132967982Y-51330180D01*
X132967982Y-51330180D02*
X132729887Y-51330180D01*
X132729887Y-51330180D02*
X132634649Y-51377800D01*
X132634649Y-51377800D02*
X132587030Y-51425419D01*
X132587030Y-51425419D02*
X132539411Y-51520657D01*
X132539411Y-51520657D02*
X132539411Y-51615895D01*
X132539411Y-51615895D02*
X132587030Y-51711133D01*
X132587030Y-51711133D02*
X132634649Y-51758752D01*
X132634649Y-51758752D02*
X132729887Y-51806371D01*
X132729887Y-51806371D02*
X132920363Y-51853990D01*
X132920363Y-51853990D02*
X133015601Y-51901609D01*
X133015601Y-51901609D02*
X133063220Y-51949228D01*
X133063220Y-51949228D02*
X133110839Y-52044466D01*
X133110839Y-52044466D02*
X133110839Y-52139704D01*
X133110839Y-52139704D02*
X133063220Y-52234942D01*
X133063220Y-52234942D02*
X133015601Y-52282561D01*
X133015601Y-52282561D02*
X132920363Y-52330180D01*
X132920363Y-52330180D02*
X132682268Y-52330180D01*
X132682268Y-52330180D02*
X132539411Y-52282561D01*
X131729887Y-51377800D02*
X131825125Y-51330180D01*
X131825125Y-51330180D02*
X132015601Y-51330180D01*
X132015601Y-51330180D02*
X132110839Y-51377800D01*
X132110839Y-51377800D02*
X132158458Y-51473038D01*
X132158458Y-51473038D02*
X132158458Y-51853990D01*
X132158458Y-51853990D02*
X132110839Y-51949228D01*
X132110839Y-51949228D02*
X132015601Y-51996847D01*
X132015601Y-51996847D02*
X131825125Y-51996847D01*
X131825125Y-51996847D02*
X131729887Y-51949228D01*
X131729887Y-51949228D02*
X131682268Y-51853990D01*
X131682268Y-51853990D02*
X131682268Y-51758752D01*
X131682268Y-51758752D02*
X132158458Y-51663514D01*
X131253696Y-51330180D02*
X131253696Y-51996847D01*
X131253696Y-51806371D02*
X131206077Y-51901609D01*
X131206077Y-51901609D02*
X131158458Y-51949228D01*
X131158458Y-51949228D02*
X131063220Y-51996847D01*
X131063220Y-51996847D02*
X130967982Y-51996847D01*
X130729886Y-51996847D02*
X130491791Y-51330180D01*
X130491791Y-51330180D02*
X130253696Y-51996847D01*
X129729886Y-51330180D02*
X129825124Y-51377800D01*
X129825124Y-51377800D02*
X129872743Y-51425419D01*
X129872743Y-51425419D02*
X129920362Y-51520657D01*
X129920362Y-51520657D02*
X129920362Y-51806371D01*
X129920362Y-51806371D02*
X129872743Y-51901609D01*
X129872743Y-51901609D02*
X129825124Y-51949228D01*
X129825124Y-51949228D02*
X129729886Y-51996847D01*
X129729886Y-51996847D02*
X129587029Y-51996847D01*
X129587029Y-51996847D02*
X129491791Y-51949228D01*
X129491791Y-51949228D02*
X129444172Y-51901609D01*
X129444172Y-51901609D02*
X129396553Y-51806371D01*
X129396553Y-51806371D02*
X129396553Y-51520657D01*
X129396553Y-51520657D02*
X129444172Y-51425419D01*
X129444172Y-51425419D02*
X129491791Y-51377800D01*
X129491791Y-51377800D02*
X129587029Y-51330180D01*
X129587029Y-51330180D02*
X129729886Y-51330180D01*
X128444172Y-51330180D02*
X129015600Y-51330180D01*
X128729886Y-51330180D02*
X128729886Y-52330180D01*
X128729886Y-52330180D02*
X128825124Y-52187323D01*
X128825124Y-52187323D02*
X128920362Y-52092085D01*
X128920362Y-52092085D02*
X129015600Y-52044466D01*
X142110839Y-51377800D02*
X141967982Y-51330180D01*
X141967982Y-51330180D02*
X141729887Y-51330180D01*
X141729887Y-51330180D02*
X141634649Y-51377800D01*
X141634649Y-51377800D02*
X141587030Y-51425419D01*
X141587030Y-51425419D02*
X141539411Y-51520657D01*
X141539411Y-51520657D02*
X141539411Y-51615895D01*
X141539411Y-51615895D02*
X141587030Y-51711133D01*
X141587030Y-51711133D02*
X141634649Y-51758752D01*
X141634649Y-51758752D02*
X141729887Y-51806371D01*
X141729887Y-51806371D02*
X141920363Y-51853990D01*
X141920363Y-51853990D02*
X142015601Y-51901609D01*
X142015601Y-51901609D02*
X142063220Y-51949228D01*
X142063220Y-51949228D02*
X142110839Y-52044466D01*
X142110839Y-52044466D02*
X142110839Y-52139704D01*
X142110839Y-52139704D02*
X142063220Y-52234942D01*
X142063220Y-52234942D02*
X142015601Y-52282561D01*
X142015601Y-52282561D02*
X141920363Y-52330180D01*
X141920363Y-52330180D02*
X141682268Y-52330180D01*
X141682268Y-52330180D02*
X141539411Y-52282561D01*
X140729887Y-51377800D02*
X140825125Y-51330180D01*
X140825125Y-51330180D02*
X141015601Y-51330180D01*
X141015601Y-51330180D02*
X141110839Y-51377800D01*
X141110839Y-51377800D02*
X141158458Y-51473038D01*
X141158458Y-51473038D02*
X141158458Y-51853990D01*
X141158458Y-51853990D02*
X141110839Y-51949228D01*
X141110839Y-51949228D02*
X141015601Y-51996847D01*
X141015601Y-51996847D02*
X140825125Y-51996847D01*
X140825125Y-51996847D02*
X140729887Y-51949228D01*
X140729887Y-51949228D02*
X140682268Y-51853990D01*
X140682268Y-51853990D02*
X140682268Y-51758752D01*
X140682268Y-51758752D02*
X141158458Y-51663514D01*
X140253696Y-51330180D02*
X140253696Y-51996847D01*
X140253696Y-51806371D02*
X140206077Y-51901609D01*
X140206077Y-51901609D02*
X140158458Y-51949228D01*
X140158458Y-51949228D02*
X140063220Y-51996847D01*
X140063220Y-51996847D02*
X139967982Y-51996847D01*
X139729886Y-51996847D02*
X139491791Y-51330180D01*
X139491791Y-51330180D02*
X139253696Y-51996847D01*
X138729886Y-51330180D02*
X138825124Y-51377800D01*
X138825124Y-51377800D02*
X138872743Y-51425419D01*
X138872743Y-51425419D02*
X138920362Y-51520657D01*
X138920362Y-51520657D02*
X138920362Y-51806371D01*
X138920362Y-51806371D02*
X138872743Y-51901609D01*
X138872743Y-51901609D02*
X138825124Y-51949228D01*
X138825124Y-51949228D02*
X138729886Y-51996847D01*
X138729886Y-51996847D02*
X138587029Y-51996847D01*
X138587029Y-51996847D02*
X138491791Y-51949228D01*
X138491791Y-51949228D02*
X138444172Y-51901609D01*
X138444172Y-51901609D02*
X138396553Y-51806371D01*
X138396553Y-51806371D02*
X138396553Y-51520657D01*
X138396553Y-51520657D02*
X138444172Y-51425419D01*
X138444172Y-51425419D02*
X138491791Y-51377800D01*
X138491791Y-51377800D02*
X138587029Y-51330180D01*
X138587029Y-51330180D02*
X138729886Y-51330180D01*
X138015600Y-52234942D02*
X137967981Y-52282561D01*
X137967981Y-52282561D02*
X137872743Y-52330180D01*
X137872743Y-52330180D02*
X137634648Y-52330180D01*
X137634648Y-52330180D02*
X137539410Y-52282561D01*
X137539410Y-52282561D02*
X137491791Y-52234942D01*
X137491791Y-52234942D02*
X137444172Y-52139704D01*
X137444172Y-52139704D02*
X137444172Y-52044466D01*
X137444172Y-52044466D02*
X137491791Y-51901609D01*
X137491791Y-51901609D02*
X138063219Y-51330180D01*
X138063219Y-51330180D02*
X137444172Y-51330180D01*
X110973866Y-61530951D02*
X110973866Y-60769047D01*
X111014700Y-74021428D02*
X111014700Y-72878571D01*
X111586128Y-73449999D02*
X110443271Y-73449999D01*
X133011666Y-116979819D02*
X133011666Y-117694104D01*
X133011666Y-117694104D02*
X132964047Y-117836961D01*
X132964047Y-117836961D02*
X132868809Y-117932200D01*
X132868809Y-117932200D02*
X132725952Y-117979819D01*
X132725952Y-117979819D02*
X132630714Y-117979819D01*
X133440238Y-117075057D02*
X133487857Y-117027438D01*
X133487857Y-117027438D02*
X133583095Y-116979819D01*
X133583095Y-116979819D02*
X133821190Y-116979819D01*
X133821190Y-116979819D02*
X133916428Y-117027438D01*
X133916428Y-117027438D02*
X133964047Y-117075057D01*
X133964047Y-117075057D02*
X134011666Y-117170295D01*
X134011666Y-117170295D02*
X134011666Y-117265533D01*
X134011666Y-117265533D02*
X133964047Y-117408390D01*
X133964047Y-117408390D02*
X133392619Y-117979819D01*
X133392619Y-117979819D02*
X134011666Y-117979819D01*
X124278571Y-87614700D02*
X125421429Y-87614700D01*
X124850000Y-88186128D02*
X124850000Y-87043271D01*
X136578571Y-87614700D02*
X137721429Y-87614700D01*
X150511666Y-116979819D02*
X150511666Y-117694104D01*
X150511666Y-117694104D02*
X150464047Y-117836961D01*
X150464047Y-117836961D02*
X150368809Y-117932200D01*
X150368809Y-117932200D02*
X150225952Y-117979819D01*
X150225952Y-117979819D02*
X150130714Y-117979819D01*
X151130714Y-117408390D02*
X151035476Y-117360771D01*
X151035476Y-117360771D02*
X150987857Y-117313152D01*
X150987857Y-117313152D02*
X150940238Y-117217914D01*
X150940238Y-117217914D02*
X150940238Y-117170295D01*
X150940238Y-117170295D02*
X150987857Y-117075057D01*
X150987857Y-117075057D02*
X151035476Y-117027438D01*
X151035476Y-117027438D02*
X151130714Y-116979819D01*
X151130714Y-116979819D02*
X151321190Y-116979819D01*
X151321190Y-116979819D02*
X151416428Y-117027438D01*
X151416428Y-117027438D02*
X151464047Y-117075057D01*
X151464047Y-117075057D02*
X151511666Y-117170295D01*
X151511666Y-117170295D02*
X151511666Y-117217914D01*
X151511666Y-117217914D02*
X151464047Y-117313152D01*
X151464047Y-117313152D02*
X151416428Y-117360771D01*
X151416428Y-117360771D02*
X151321190Y-117408390D01*
X151321190Y-117408390D02*
X151130714Y-117408390D01*
X151130714Y-117408390D02*
X151035476Y-117456009D01*
X151035476Y-117456009D02*
X150987857Y-117503628D01*
X150987857Y-117503628D02*
X150940238Y-117598866D01*
X150940238Y-117598866D02*
X150940238Y-117789342D01*
X150940238Y-117789342D02*
X150987857Y-117884580D01*
X150987857Y-117884580D02*
X151035476Y-117932200D01*
X151035476Y-117932200D02*
X151130714Y-117979819D01*
X151130714Y-117979819D02*
X151321190Y-117979819D01*
X151321190Y-117979819D02*
X151416428Y-117932200D01*
X151416428Y-117932200D02*
X151464047Y-117884580D01*
X151464047Y-117884580D02*
X151511666Y-117789342D01*
X151511666Y-117789342D02*
X151511666Y-117598866D01*
X151511666Y-117598866D02*
X151464047Y-117503628D01*
X151464047Y-117503628D02*
X151416428Y-117456009D01*
X151416428Y-117456009D02*
X151321190Y-117408390D01*
X141778571Y-87614700D02*
X142921429Y-87614700D01*
X142350000Y-88186128D02*
X142350000Y-87043271D01*
X154078571Y-87614700D02*
X155221429Y-87614700D01*
%TO.C,C46*%
D11*
X158938748Y-52465000D02*
X159461252Y-52465000D01*
X158938748Y-53935000D02*
X159461252Y-53935000D01*
%TO.C,C48*%
X113461252Y-48735000D02*
X112938748Y-48735000D01*
X113461252Y-47265000D02*
X112938748Y-47265000D01*
%TO.C,C28*%
X114061252Y-56335000D02*
X113538748Y-56335000D01*
X114061252Y-54865000D02*
X113538748Y-54865000D01*
%TO.C,C27*%
X114061252Y-58735000D02*
X113538748Y-58735000D01*
X114061252Y-57265000D02*
X113538748Y-57265000D01*
%TO.C,C17*%
X114061252Y-61535000D02*
X113538748Y-61535000D01*
X114061252Y-60065000D02*
X113538748Y-60065000D01*
%TO.C,Q1*%
X111685000Y-84910000D02*
X115665000Y-84910000D01*
X111685000Y-85010000D02*
X111685000Y-84910000D01*
X111685000Y-90090000D02*
X111685000Y-89990000D01*
X115665000Y-84910000D02*
X115665000Y-85010000D01*
X115665000Y-89990000D02*
X115665000Y-90090000D01*
X115665000Y-90090000D02*
X111685000Y-90090000D01*
X116455000Y-90330000D02*
X115975000Y-90330000D01*
X116215000Y-90000000D01*
X116455000Y-90330000D01*
G36*
X116455000Y-90330000D02*
G01*
X115975000Y-90330000D01*
X116215000Y-90000000D01*
X116455000Y-90330000D01*
G37*
%TO.C,D4*%
X104552500Y-57165000D02*
X104552500Y-58635000D01*
X104552500Y-58635000D02*
X107012500Y-58635000D01*
X107012500Y-57165000D02*
X104552500Y-57165000D01*
%TO.C,J5*%
X92940000Y-60540000D02*
X100640000Y-60540000D01*
X92940000Y-74560000D02*
X92940000Y-60540000D01*
X92940000Y-74560000D02*
X100640000Y-74560000D01*
X100640000Y-59690000D02*
X106250000Y-59690000D01*
X100640000Y-60540000D02*
X100640000Y-59690000D01*
X100640000Y-75410000D02*
X100640000Y-74560000D01*
X100640000Y-75410000D02*
X106250000Y-75410000D01*
X110360000Y-70000000D02*
X110360000Y-66260000D01*
X106250000Y-59690000D02*
G75*
G02*
X109772958Y-61683194I0J-4110000D01*
G01*
X110208718Y-72539900D02*
G75*
G02*
X106250000Y-75410000I-3918716J1239898D01*
G01*
%TO.C,R14*%
X161620276Y-92077500D02*
X162129724Y-92077500D01*
X161620276Y-93122500D02*
X162129724Y-93122500D01*
%TO.C,TP3*%
X109712500Y-55800000D02*
G75*
G02*
X108312500Y-55800000I-700000J0D01*
G01*
X108312500Y-55800000D02*
G75*
G02*
X109712500Y-55800000I700000J0D01*
G01*
%TO.C,R25*%
X115477500Y-77995276D02*
X115477500Y-78504724D01*
X116522500Y-77995276D02*
X116522500Y-78504724D01*
%TO.C,R24*%
X117477500Y-80254724D02*
X117477500Y-79745276D01*
X118522500Y-80254724D02*
X118522500Y-79745276D01*
%TO.C,R11*%
X102667224Y-53277500D02*
X102157776Y-53277500D01*
X102667224Y-54322500D02*
X102157776Y-54322500D01*
%TO.C,R4*%
X123477500Y-49932776D02*
X123477500Y-50442224D01*
X124522500Y-49932776D02*
X124522500Y-50442224D01*
%TO.C,C21*%
X118240000Y-84646267D02*
X118240000Y-84353733D01*
X119260000Y-84646267D02*
X119260000Y-84353733D01*
%TO.C,TP1*%
X109712500Y-51800000D02*
G75*
G02*
X108312500Y-51800000I-700000J0D01*
G01*
X108312500Y-51800000D02*
G75*
G02*
X109712500Y-51800000I700000J0D01*
G01*
%TO.C,R13*%
X102667224Y-57377500D02*
X102157776Y-57377500D01*
X102667224Y-58422500D02*
X102157776Y-58422500D01*
%TO.C,R34*%
X117822936Y-57490000D02*
X122177064Y-57490000D01*
X117822936Y-60910000D02*
X122177064Y-60910000D01*
%TO.C,R10*%
X102667224Y-51277500D02*
X102157776Y-51277500D01*
X102667224Y-52322500D02*
X102157776Y-52322500D01*
%TO.C,R7*%
X119745276Y-86727500D02*
X120254724Y-86727500D01*
X119745276Y-87772500D02*
X120254724Y-87772500D01*
%TO.C,D41*%
X123778140Y-86565348D02*
X123778140Y-79555348D01*
X123778140Y-86565348D02*
X127078140Y-86565348D01*
X127078140Y-86565348D02*
X127078140Y-79555348D01*
%TO.C,C12*%
X111990000Y-78396267D02*
X111990000Y-78103733D01*
X113010000Y-78396267D02*
X113010000Y-78103733D01*
%TO.C,U2*%
D12*
X129327500Y-71612500D02*
X154727500Y-71612500D01*
X129327500Y-81512500D02*
X129327500Y-71612500D01*
X132337500Y-83412500D02*
X132337500Y-81862500D01*
X154727500Y-71612500D02*
X154727500Y-81512500D01*
X154727500Y-81512500D02*
X129327500Y-81512500D01*
%TO.C,U6*%
X129300000Y-55055000D02*
X154700000Y-55055000D01*
X129300000Y-64955000D02*
X129300000Y-55055000D01*
X132310000Y-66855000D02*
X132310000Y-65305000D01*
X154700000Y-55055000D02*
X154700000Y-64955000D01*
X154700000Y-64955000D02*
X129300000Y-64955000D01*
%TO.C,J2*%
D11*
X122890000Y-106460000D02*
X122890000Y-92150000D01*
X132040000Y-88040000D02*
X128300000Y-88040000D01*
X138610000Y-106460000D02*
X122890000Y-106460000D01*
X138610000Y-106460000D02*
X138610000Y-92150000D01*
X122890000Y-92150000D02*
G75*
G02*
X125798352Y-88219587I4110000J0D01*
G01*
X136616806Y-88627042D02*
G75*
G02*
X138610000Y-92150000I-2116805J-3522957D01*
G01*
%TO.C,TP2*%
X109700000Y-53800000D02*
G75*
G02*
X108300000Y-53800000I-700000J0D01*
G01*
X108300000Y-53800000D02*
G75*
G02*
X109700000Y-53800000I700000J0D01*
G01*
%TO.C,J1*%
X157280000Y-68365000D02*
X164020000Y-68365000D01*
X157280000Y-74185000D02*
X157280000Y-68365000D01*
X159000000Y-74185000D02*
X159000000Y-68365000D01*
X162100000Y-74185000D02*
X162100000Y-68365000D01*
X163100000Y-74185000D02*
X163100000Y-68365000D01*
X164020000Y-68365000D02*
X164020000Y-72245000D01*
X164020000Y-72845000D02*
X164020000Y-74185000D01*
X164020000Y-74185000D02*
X157280000Y-74185000D01*
X164630000Y-72985000D02*
X164020000Y-72545000D01*
X164630000Y-72105000D01*
X164630000Y-72985000D01*
G36*
X164630000Y-72985000D02*
G01*
X164020000Y-72545000D01*
X164630000Y-72105000D01*
X164630000Y-72985000D01*
G37*
%TO.C,R28*%
X107504724Y-81727500D02*
X106995276Y-81727500D01*
X107504724Y-82772500D02*
X106995276Y-82772500D01*
%TO.C,R29*%
X107345276Y-78877500D02*
X107854724Y-78877500D01*
X107345276Y-79922500D02*
X107854724Y-79922500D01*
%TO.C,Q2*%
X103010000Y-83505000D02*
X106990000Y-83505000D01*
X103010000Y-83605000D02*
X103010000Y-83505000D01*
X103010000Y-88685000D02*
X103010000Y-88585000D01*
X106990000Y-83505000D02*
X106990000Y-83605000D01*
X106990000Y-88585000D02*
X106990000Y-88685000D01*
X106990000Y-88685000D02*
X103010000Y-88685000D01*
X107780000Y-88925000D02*
X107300000Y-88925000D01*
X107540000Y-88595000D01*
X107780000Y-88925000D01*
G36*
X107780000Y-88925000D02*
G01*
X107300000Y-88925000D01*
X107540000Y-88595000D01*
X107780000Y-88925000D01*
G37*
%TO.C,J8*%
X140390000Y-106460000D02*
X140390000Y-92150000D01*
X149540000Y-88040000D02*
X145800000Y-88040000D01*
X156110000Y-106460000D02*
X140390000Y-106460000D01*
X156110000Y-106460000D02*
X156110000Y-92150000D01*
X140390000Y-92150000D02*
G75*
G02*
X143298352Y-88219587I4110000J0D01*
G01*
X154116806Y-88627042D02*
G75*
G02*
X156110000Y-92150000I-2116805J-3522957D01*
G01*
%TO.C,J6*%
X157280000Y-60825000D02*
X164020000Y-60825000D01*
X157280000Y-66645000D02*
X157280000Y-60825000D01*
X159000000Y-66645000D02*
X159000000Y-60825000D01*
X162100000Y-66645000D02*
X162100000Y-60825000D01*
X163100000Y-66645000D02*
X163100000Y-60825000D01*
X164020000Y-60825000D02*
X164020000Y-64705000D01*
X164020000Y-65305000D02*
X164020000Y-66645000D01*
X164020000Y-66645000D02*
X157280000Y-66645000D01*
X164630000Y-65445000D02*
X164020000Y-65005000D01*
X164630000Y-64565000D01*
X164630000Y-65445000D01*
G36*
X164630000Y-65445000D02*
G01*
X164020000Y-65005000D01*
X164630000Y-64565000D01*
X164630000Y-65445000D01*
G37*
%TO.C,C30*%
X132141233Y-84597500D02*
X132433767Y-84597500D01*
X132141233Y-85617500D02*
X132433767Y-85617500D01*
%TO.C,R12*%
X102667224Y-55277500D02*
X102157776Y-55277500D01*
X102667224Y-56322500D02*
X102157776Y-56322500D01*
%TO.C,D5*%
X160240000Y-90165000D02*
X160240000Y-91635000D01*
X160240000Y-91635000D02*
X162700000Y-91635000D01*
X162700000Y-90165000D02*
X160240000Y-90165000D01*
%TO.C,J7*%
X157280000Y-83365000D02*
X164020000Y-83365000D01*
X157280000Y-89185000D02*
X157280000Y-83365000D01*
X159000000Y-89185000D02*
X159000000Y-83365000D01*
X162100000Y-89185000D02*
X162100000Y-83365000D01*
X163100000Y-89185000D02*
X163100000Y-83365000D01*
X164020000Y-83365000D02*
X164020000Y-87245000D01*
X164020000Y-87845000D02*
X164020000Y-89185000D01*
X164020000Y-89185000D02*
X157280000Y-89185000D01*
X164630000Y-87985000D02*
X164020000Y-87545000D01*
X164630000Y-87105000D01*
X164630000Y-87985000D01*
G36*
X164630000Y-87985000D02*
G01*
X164020000Y-87545000D01*
X164630000Y-87105000D01*
X164630000Y-87985000D01*
G37*
%TO.C,C45*%
X159396267Y-50740000D02*
X159103733Y-50740000D01*
X159396267Y-51760000D02*
X159103733Y-51760000D01*
%TO.C,Q3*%
X122477500Y-52640000D02*
X123997500Y-52640000D01*
X122477500Y-53640000D02*
X122477500Y-52640000D01*
X122477500Y-55760000D02*
X122477500Y-54760000D01*
X123997500Y-52640000D02*
X123997500Y-52690000D01*
X123997500Y-53810000D02*
X123997500Y-54590000D01*
X123997500Y-55710000D02*
X123997500Y-55760000D01*
X123997500Y-55760000D02*
X122477500Y-55760000D01*
X124537500Y-54580000D02*
X124297500Y-54250000D01*
X124777500Y-54250000D01*
X124537500Y-54580000D01*
G36*
X124537500Y-54580000D02*
G01*
X124297500Y-54250000D01*
X124777500Y-54250000D01*
X124537500Y-54580000D01*
G37*
%TO.C,Q4*%
X115645000Y-49747500D02*
X115745000Y-49747500D01*
X115645000Y-53727500D02*
X115645000Y-49747500D01*
X115745000Y-53727500D02*
X115645000Y-53727500D01*
X120725000Y-49747500D02*
X120825000Y-49747500D01*
X120825000Y-49747500D02*
X120825000Y-53727500D01*
X120825000Y-53727500D02*
X120725000Y-53727500D01*
X115735000Y-54277500D02*
X115405000Y-54517500D01*
X115405000Y-54037500D01*
X115735000Y-54277500D01*
G36*
X115735000Y-54277500D02*
G01*
X115405000Y-54517500D01*
X115405000Y-54037500D01*
X115735000Y-54277500D01*
G37*
%TO.C,D2*%
X104552500Y-53065000D02*
X104552500Y-54535000D01*
X104552500Y-54535000D02*
X107012500Y-54535000D01*
X107012500Y-53065000D02*
X104552500Y-53065000D01*
%TO.C,D11*%
X117990000Y-88150000D02*
X117990000Y-89850000D01*
X117990000Y-88150000D02*
X121250000Y-88150000D01*
X117990000Y-89850000D02*
X121250000Y-89850000D01*
%TO.C,C18*%
X102346267Y-89390000D02*
X102053733Y-89390000D01*
X102346267Y-90410000D02*
X102053733Y-90410000D01*
%TO.C,J11*%
X125850000Y-44500000D02*
X133650000Y-44500000D01*
X125850000Y-50550000D02*
X125850000Y-44500000D01*
X127220000Y-45610000D02*
X127220000Y-44600000D01*
X132300000Y-44600000D02*
X132300000Y-45610000D01*
X132300000Y-45610000D02*
X127220000Y-45610000D01*
X133650000Y-44500000D02*
X133650000Y-50550000D01*
X133650000Y-50550000D02*
X125850000Y-50550000D01*
%TO.C,C47*%
X113053733Y-44580000D02*
X113346267Y-44580000D01*
X113053733Y-45600000D02*
X113346267Y-45600000D01*
%TO.C,D3*%
X104552500Y-55065000D02*
X104552500Y-56535000D01*
X104552500Y-56535000D02*
X107012500Y-56535000D01*
X107012500Y-55065000D02*
X104552500Y-55065000D01*
%TO.C,U4*%
X109690000Y-81240000D02*
X109740000Y-81240000D01*
X109690000Y-82760000D02*
X109690000Y-81240000D01*
X110690000Y-82760000D02*
X109690000Y-82760000D01*
X110860000Y-81240000D02*
X111640000Y-81240000D01*
X112760000Y-81240000D02*
X112810000Y-81240000D01*
X112810000Y-81240000D02*
X112810000Y-82760000D01*
X112810000Y-82760000D02*
X111810000Y-82760000D01*
X111630000Y-80700000D02*
X111300000Y-80940000D01*
X111300000Y-80460000D01*
X111630000Y-80700000D01*
G36*
X111630000Y-80700000D02*
G01*
X111300000Y-80940000D01*
X111300000Y-80460000D01*
X111630000Y-80700000D01*
G37*
%TO.C,J15*%
X143980000Y-44480000D02*
X147860000Y-44480000D01*
X143980000Y-51220000D02*
X143980000Y-44480000D01*
X148460000Y-44480000D02*
X149800000Y-44480000D01*
X149800000Y-44480000D02*
X149800000Y-51220000D01*
X149800000Y-45400000D02*
X143980000Y-45400000D01*
X149800000Y-46400000D02*
X143980000Y-46400000D01*
X149800000Y-49500000D02*
X143980000Y-49500000D01*
X149800000Y-51220000D02*
X143980000Y-51220000D01*
X148160000Y-44480000D02*
X147720000Y-43870000D01*
X148600000Y-43870000D01*
X148160000Y-44480000D01*
G36*
X148160000Y-44480000D02*
G01*
X147720000Y-43870000D01*
X148600000Y-43870000D01*
X148160000Y-44480000D01*
G37*
%TO.C,R27*%
X113727500Y-82254724D02*
X113727500Y-81745276D01*
X114772500Y-82254724D02*
X114772500Y-81745276D01*
%TO.C,C44*%
X132053733Y-67790000D02*
X132346267Y-67790000D01*
X132053733Y-68810000D02*
X132346267Y-68810000D01*
%TO.C,J10*%
X107860000Y-92280000D02*
X113680000Y-92280000D01*
X107860000Y-94000000D02*
X113680000Y-94000000D01*
X107860000Y-97100000D02*
X113680000Y-97100000D01*
X107860000Y-98100000D02*
X113680000Y-98100000D01*
X107860000Y-99020000D02*
X107860000Y-92280000D01*
X109200000Y-99020000D02*
X107860000Y-99020000D01*
X113680000Y-92280000D02*
X113680000Y-99020000D01*
X113680000Y-99020000D02*
X109800000Y-99020000D01*
X109940000Y-99630000D02*
X109060000Y-99630000D01*
X109500000Y-99020000D01*
X109940000Y-99630000D01*
G36*
X109940000Y-99630000D02*
G01*
X109060000Y-99630000D01*
X109500000Y-99020000D01*
X109940000Y-99630000D01*
G37*
%TO.C,D1*%
X104552500Y-51065000D02*
X104552500Y-52535000D01*
X104552500Y-52535000D02*
X107012500Y-52535000D01*
X107012500Y-51065000D02*
X104552500Y-51065000D01*
%TO.C,J4*%
X151155000Y-44462500D02*
X155035000Y-44462500D01*
X151155000Y-51202500D02*
X151155000Y-44462500D01*
X155635000Y-44462500D02*
X156975000Y-44462500D01*
X156975000Y-44462500D02*
X156975000Y-51202500D01*
X156975000Y-45382500D02*
X151155000Y-45382500D01*
X156975000Y-46382500D02*
X151155000Y-46382500D01*
X156975000Y-49482500D02*
X151155000Y-49482500D01*
X156975000Y-51202500D02*
X151155000Y-51202500D01*
X155335000Y-44462500D02*
X154895000Y-43852500D01*
X155775000Y-43852500D01*
X155335000Y-44462500D01*
G36*
X155335000Y-44462500D02*
G01*
X154895000Y-43852500D01*
X155775000Y-43852500D01*
X155335000Y-44462500D01*
G37*
%TO.C,R9*%
X122004724Y-82977500D02*
X121495276Y-82977500D01*
X122004724Y-84022500D02*
X121495276Y-84022500D01*
%TO.C,L1*%
D13*
X115100000Y-62850000D02*
X118380000Y-62850000D01*
X115100000Y-75650000D02*
X115100000Y-62850000D01*
X115100000Y-75650000D02*
X118380000Y-75650000D01*
X127900000Y-62850000D02*
X124620000Y-62850000D01*
X127900000Y-75650000D02*
X124620000Y-75650000D01*
X127900000Y-75650000D02*
X127900000Y-62850000D01*
%TO.C,R26*%
D11*
X113727500Y-78504724D02*
X113727500Y-77995276D01*
X114772500Y-78504724D02*
X114772500Y-77995276D01*
%TO.C,R5*%
X121677500Y-50442224D02*
X121677500Y-49932776D01*
X122722500Y-50442224D02*
X122722500Y-49932776D01*
%TO.C,J3*%
X157280000Y-75825000D02*
X164020000Y-75825000D01*
X157280000Y-81645000D02*
X157280000Y-75825000D01*
X159000000Y-81645000D02*
X159000000Y-75825000D01*
X162100000Y-81645000D02*
X162100000Y-75825000D01*
X163100000Y-81645000D02*
X163100000Y-75825000D01*
X164020000Y-75825000D02*
X164020000Y-79705000D01*
X164020000Y-80305000D02*
X164020000Y-81645000D01*
X164020000Y-81645000D02*
X157280000Y-81645000D01*
X164630000Y-80445000D02*
X164020000Y-80005000D01*
X164630000Y-79565000D01*
X164630000Y-80445000D01*
G36*
X164630000Y-80445000D02*
G01*
X164020000Y-80005000D01*
X164630000Y-79565000D01*
X164630000Y-80445000D01*
G37*
%TO.C,J12*%
X134910000Y-44475000D02*
X142710000Y-44475000D01*
X134910000Y-50525000D02*
X134910000Y-44475000D01*
X136280000Y-45585000D02*
X136280000Y-44575000D01*
X141360000Y-44575000D02*
X141360000Y-45585000D01*
X141360000Y-45585000D02*
X136280000Y-45585000D01*
X142710000Y-44475000D02*
X142710000Y-50525000D01*
X142710000Y-50525000D02*
X134910000Y-50525000D01*
%TO.C,J16*%
X115320000Y-92280000D02*
X121140000Y-92280000D01*
X115320000Y-94000000D02*
X121140000Y-94000000D01*
X115320000Y-97100000D02*
X121140000Y-97100000D01*
X115320000Y-98100000D02*
X121140000Y-98100000D01*
X115320000Y-99020000D02*
X115320000Y-92280000D01*
X116660000Y-99020000D02*
X115320000Y-99020000D01*
X121140000Y-92280000D02*
X121140000Y-99020000D01*
X121140000Y-99020000D02*
X117260000Y-99020000D01*
X117400000Y-99630000D02*
X116520000Y-99630000D01*
X116960000Y-99020000D01*
X117400000Y-99630000D01*
G36*
X117400000Y-99630000D02*
G01*
X116520000Y-99630000D01*
X116960000Y-99020000D01*
X117400000Y-99630000D01*
G37*
%TO.C,R3*%
X126677500Y-53945276D02*
X126677500Y-54454724D01*
X127722500Y-53945276D02*
X127722500Y-54454724D01*
%TO.C,D7*%
X115350000Y-84210000D02*
X115350000Y-80950000D01*
X115350000Y-84210000D02*
X117050000Y-84210000D01*
X117050000Y-84210000D02*
X117050000Y-80950000D01*
%TO.C,TP4*%
X109700000Y-57800000D02*
G75*
G02*
X108300000Y-57800000I-700000J0D01*
G01*
X108300000Y-57800000D02*
G75*
G02*
X109700000Y-57800000I700000J0D01*
G01*
%TO.C,C22*%
X106646267Y-89390000D02*
X106353733Y-89390000D01*
X106646267Y-90410000D02*
X106353733Y-90410000D01*
%TD*%
M02*
