%TF.GenerationSoftware,KiCad,Pcbnew,10.0.3*%
%TF.CreationDate,2026-06-17T19:44:49-04:00*%
%TF.ProjectId,Ion-0,496f6e2d-302e-46b6-9963-61645f706362,V0.5*%
%TF.SameCoordinates,Original*%
%TF.FileFunction,Profile,NP*%
%FSLAX46Y46*%
G04 Gerber Fmt 4.6, Leading zero omitted, Abs format (unit mm)*
G04 Created by KiCad (PCBNEW 10.0.3) date 2026-06-17 19:44:49*
%MOMM*%
%LPD*%
G01*
G04 APERTURE LIST*
%TA.AperFunction,Profile*%
%ADD10C,0.050000*%
%TD*%
G04 APERTURE END LIST*
D10*
X0Y80401068D02*
G75*
G02*
X6000000Y86401070I6000000J2D01*
G01*
X0Y10001068D02*
X0Y80401068D01*
X4750000Y71800000D02*
G75*
G02*
X1550000Y71800000I-1600000J0D01*
G01*
X1550000Y71800000D02*
G75*
G02*
X4750000Y71800000I1600000J0D01*
G01*
X6000000Y86401066D02*
X18700000Y86401068D01*
X7950000Y5800000D02*
G75*
G02*
X4750000Y5800000I-1600000J0D01*
G01*
X4750000Y5800000D02*
G75*
G02*
X7950000Y5800000I1600000J0D01*
G01*
X10000000Y1068D02*
G75*
G02*
X-32Y10001068I0J10000032D01*
G01*
X18700000Y86401068D02*
G75*
G02*
X20699968Y84401068I0J-1999968D01*
G01*
X20700000Y84401068D02*
X20700000Y68000000D01*
X22700000Y66000000D02*
G75*
G02*
X20700000Y68000000I0J2000000D01*
G01*
X22700000Y66000000D02*
X36700000Y66000000D01*
X38700000Y84401068D02*
X38700000Y68000000D01*
X38700000Y84401068D02*
G75*
G02*
X40700000Y86401000I1999900J32D01*
G01*
X38700000Y68000000D02*
G75*
G02*
X36700000Y66000000I-2000000J0D01*
G01*
X44600000Y1068D02*
X10000000Y1068D01*
X49850000Y5800000D02*
G75*
G02*
X46650000Y5800000I-1600000J0D01*
G01*
X46650000Y5800000D02*
G75*
G02*
X49850000Y5800000I1600000J0D01*
G01*
X48600000Y86401068D02*
X40700000Y86401068D01*
X48600000Y86401068D02*
G75*
G02*
X54600068Y80401068I0J-6000068D01*
G01*
X53050000Y71800000D02*
G75*
G02*
X49850000Y71800000I-1600000J0D01*
G01*
X49850000Y71800000D02*
G75*
G02*
X53050000Y71800000I1600000J0D01*
G01*
X54600000Y80401068D02*
X54600000Y10001068D01*
X54600000Y10001068D02*
G75*
G02*
X44600000Y1070I-10000000J2D01*
G01*
M02*
