%TF.GenerationSoftware,KiCad,Pcbnew,10.0.3*%
%TF.CreationDate,2026-06-17T19:44:49-04:00*%
%TF.ProjectId,Ion-0,496f6e2d-302e-46b6-9963-61645f706362,V0.5*%
%TF.SameCoordinates,Original*%
%TF.FileFunction,Paste,Top*%
%TF.FilePolarity,Positive*%
%FSLAX46Y46*%
G04 Gerber Fmt 4.6, Leading zero omitted, Abs format (unit mm)*
G04 Created by KiCad (PCBNEW 10.0.3) date 2026-06-17 19:44:49*
%MOMM*%
%LPD*%
G01*
G04 APERTURE LIST*
G04 Aperture macros list*
%AMRoundRect*
0 Rectangle with rounded corners*
0 $1 Rounding radius*
0 $2 $3 $4 $5 $6 $7 $8 $9 X,Y pos of 4 corners*
0 Add a 4 corners polygon primitive as box body*
4,1,4,$2,$3,$4,$5,$6,$7,$8,$9,$2,$3,0*
0 Add four circle primitives for the rounded corners*
1,1,$1+$1,$2,$3*
1,1,$1+$1,$4,$5*
1,1,$1+$1,$6,$7*
1,1,$1+$1,$8,$9*
0 Add four rect primitives between the rounded corners*
20,1,$1+$1,$2,$3,$4,$5,0*
20,1,$1+$1,$4,$5,$6,$7,0*
20,1,$1+$1,$6,$7,$8,$9,0*
20,1,$1+$1,$8,$9,$2,$3,0*%
G04 Aperture macros list end*
%ADD10C,0.000000*%
%ADD11C,0.010000*%
%ADD12RoundRect,0.140000X-0.170000X0.140000X-0.170000X-0.140000X0.170000X-0.140000X0.170000X0.140000X0*%
%ADD13RoundRect,0.225000X0.250000X-0.225000X0.250000X0.225000X-0.250000X0.225000X-0.250000X-0.225000X0*%
%ADD14RoundRect,0.237500X-0.250000X-0.237500X0.250000X-0.237500X0.250000X0.237500X-0.250000X0.237500X0*%
%ADD15RoundRect,0.250000X0.700000X-0.275000X0.700000X0.275000X-0.700000X0.275000X-0.700000X-0.275000X0*%
%ADD16RoundRect,0.150000X-0.150000X0.587500X-0.150000X-0.587500X0.150000X-0.587500X0.150000X0.587500X0*%
%ADD17R,3.000000X1.000000*%
%ADD18RoundRect,0.237500X0.250000X0.237500X-0.250000X0.237500X-0.250000X-0.237500X0.250000X-0.237500X0*%
%ADD19RoundRect,0.225000X0.225000X0.250000X-0.225000X0.250000X-0.225000X-0.250000X0.225000X-0.250000X0*%
%ADD20RoundRect,0.225000X-0.225000X-0.250000X0.225000X-0.250000X0.225000X0.250000X-0.225000X0.250000X0*%
%ADD21R,0.675000X0.250000*%
%ADD22R,0.250000X0.575000*%
%ADD23RoundRect,0.150000X0.150000X0.625000X-0.150000X0.625000X-0.150000X-0.625000X0.150000X-0.625000X0*%
%ADD24RoundRect,0.250000X0.350000X0.650000X-0.350000X0.650000X-0.350000X-0.650000X0.350000X-0.650000X0*%
%ADD25RoundRect,0.237500X0.237500X-0.250000X0.237500X0.250000X-0.237500X0.250000X-0.237500X-0.250000X0*%
%ADD26RoundRect,0.147500X0.147500X0.172500X-0.147500X0.172500X-0.147500X-0.172500X0.147500X-0.172500X0*%
%ADD27RoundRect,0.218750X-0.218750X-0.256250X0.218750X-0.256250X0.218750X0.256250X-0.218750X0.256250X0*%
%ADD28RoundRect,0.225000X-0.250000X0.225000X-0.250000X-0.225000X0.250000X-0.225000X0.250000X0.225000X0*%
%ADD29RoundRect,0.237500X-0.237500X0.287500X-0.237500X-0.287500X0.237500X-0.287500X0.237500X0.287500X0*%
%ADD30O,1.699999X0.449999*%
%ADD31RoundRect,0.150000X-0.825000X-0.150000X0.825000X-0.150000X0.825000X0.150000X-0.825000X0.150000X0*%
%ADD32R,0.550000X0.950000*%
%ADD33R,0.599999X0.240000*%
%ADD34RoundRect,0.250000X-0.625000X0.312500X-0.625000X-0.312500X0.625000X-0.312500X0.625000X0.312500X0*%
%ADD35RoundRect,0.237500X-0.237500X0.250000X-0.237500X-0.250000X0.237500X-0.250000X0.237500X0.250000X0*%
%ADD36R,4.200000X2.000000*%
%ADD37RoundRect,0.218750X0.218750X0.256250X-0.218750X0.256250X-0.218750X-0.256250X0.218750X-0.256250X0*%
%ADD38RoundRect,0.150000X0.587500X0.150000X-0.587500X0.150000X-0.587500X-0.150000X0.587500X-0.150000X0*%
%ADD39RoundRect,0.150000X-0.150000X-0.350000X0.150000X-0.350000X0.150000X0.350000X-0.150000X0.350000X0*%
%ADD40RoundRect,0.100000X-0.200000X-0.100000X0.200000X-0.100000X0.200000X0.100000X-0.200000X0.100000X0*%
%ADD41RoundRect,0.100000X0.400000X0.400000X-0.400000X0.400000X-0.400000X-0.400000X0.400000X-0.400000X0*%
%ADD42RoundRect,0.105000X0.420000X0.995000X-0.420000X0.995000X-0.420000X-0.995000X0.420000X-0.995000X0*%
%ADD43R,0.304800X1.143000*%
%ADD44R,1.143000X0.304800*%
%ADD45RoundRect,0.218750X0.256250X-0.218750X0.256250X0.218750X-0.256250X0.218750X-0.256250X-0.218750X0*%
G04 APERTURE END LIST*
D10*
%TO.C,U7*%
G36*
X15907501Y52544998D02*
G01*
X14407502Y52544998D01*
X14407502Y53604999D01*
X15907501Y53604999D01*
X15907501Y52544998D01*
G37*
G36*
X15907501Y51285001D02*
G01*
X14407502Y51285001D01*
X14407502Y52345001D01*
X15907501Y52345001D01*
X15907501Y51285001D01*
G37*
D11*
%TO.C,U6*%
X32670000Y54030000D02*
X33370000Y54030000D01*
X33370000Y52630000D01*
X33270000Y52630000D01*
X33270000Y51730000D01*
X32770000Y51730000D01*
X32770000Y52630000D01*
X32670000Y52630000D01*
X32670000Y54030000D01*
G36*
X33370000Y52630000D02*
G01*
X33270000Y52630000D01*
X33270000Y51730000D01*
X32770000Y51730000D01*
X32770000Y52630000D01*
X32670000Y52630000D01*
X32670000Y54030000D01*
X33370000Y54030000D01*
X33370000Y52630000D01*
G37*
X32670000Y41530000D02*
X33370000Y41530000D01*
X33370000Y42930000D01*
X33270000Y42930000D01*
X33270000Y43830000D01*
X32770000Y43830000D01*
X32770000Y42930000D01*
X32670000Y42930000D01*
X32670000Y41530000D01*
G36*
X33270000Y42930000D02*
G01*
X33370000Y42930000D01*
X33370000Y41530000D01*
X32670000Y41530000D01*
X32670000Y42930000D01*
X32770000Y42930000D01*
X32770000Y43830000D01*
X33270000Y43830000D01*
X33270000Y42930000D01*
G37*
X33720000Y54030000D02*
X34520000Y54030000D01*
X34520000Y52630000D01*
X34420000Y52630000D01*
X34420000Y51730000D01*
X33820000Y51730000D01*
X33820000Y52630000D01*
X33720000Y52630000D01*
X33720000Y54030000D01*
G36*
X34520000Y52630000D02*
G01*
X34420000Y52630000D01*
X34420000Y51730000D01*
X33820000Y51730000D01*
X33820000Y52630000D01*
X33720000Y52630000D01*
X33720000Y54030000D01*
X34520000Y54030000D01*
X34520000Y52630000D01*
G37*
X33720000Y41530000D02*
X34520000Y41530000D01*
X34520000Y42930000D01*
X34420000Y42930000D01*
X34420000Y43830000D01*
X33820000Y43830000D01*
X33820000Y42930000D01*
X33720000Y42930000D01*
X33720000Y41530000D01*
G36*
X34420000Y42930000D02*
G01*
X34520000Y42930000D01*
X34520000Y41530000D01*
X33720000Y41530000D01*
X33720000Y42930000D01*
X33820000Y42930000D01*
X33820000Y43830000D01*
X34420000Y43830000D01*
X34420000Y42930000D01*
G37*
X34820000Y54030000D02*
X35620000Y54030000D01*
X35620000Y52630000D01*
X35520000Y52630000D01*
X35520000Y51730000D01*
X34920000Y51730000D01*
X34920000Y52630000D01*
X34820000Y52630000D01*
X34820000Y54030000D01*
G36*
X35620000Y52630000D02*
G01*
X35520000Y52630000D01*
X35520000Y51730000D01*
X34920000Y51730000D01*
X34920000Y52630000D01*
X34820000Y52630000D01*
X34820000Y54030000D01*
X35620000Y54030000D01*
X35620000Y52630000D01*
G37*
X34820000Y41530000D02*
X35620000Y41530000D01*
X35620000Y42930000D01*
X35520000Y42930000D01*
X35520000Y43830000D01*
X34920000Y43830000D01*
X34920000Y42930000D01*
X34820000Y42930000D01*
X34820000Y41530000D01*
G36*
X35520000Y42930000D02*
G01*
X35620000Y42930000D01*
X35620000Y41530000D01*
X34820000Y41530000D01*
X34820000Y42930000D01*
X34920000Y42930000D01*
X34920000Y43830000D01*
X35520000Y43830000D01*
X35520000Y42930000D01*
G37*
X35920000Y54030000D02*
X36720000Y54030000D01*
X36720000Y52630000D01*
X36620000Y52630000D01*
X36620000Y51730000D01*
X36020000Y51730000D01*
X36020000Y52630000D01*
X35920000Y52630000D01*
X35920000Y54030000D01*
G36*
X36720000Y52630000D02*
G01*
X36620000Y52630000D01*
X36620000Y51730000D01*
X36020000Y51730000D01*
X36020000Y52630000D01*
X35920000Y52630000D01*
X35920000Y54030000D01*
X36720000Y54030000D01*
X36720000Y52630000D01*
G37*
X35920000Y41530000D02*
X36720000Y41530000D01*
X36720000Y42930000D01*
X36620000Y42930000D01*
X36620000Y43830000D01*
X36020000Y43830000D01*
X36020000Y42930000D01*
X35920000Y42930000D01*
X35920000Y41530000D01*
G36*
X36620000Y42930000D02*
G01*
X36720000Y42930000D01*
X36720000Y41530000D01*
X35920000Y41530000D01*
X35920000Y42930000D01*
X36020000Y42930000D01*
X36020000Y43830000D01*
X36620000Y43830000D01*
X36620000Y42930000D01*
G37*
X37020000Y54030000D02*
X37820000Y54030000D01*
X37820000Y52630000D01*
X37720000Y52630000D01*
X37720000Y51730000D01*
X37120000Y51730000D01*
X37120000Y52630000D01*
X37020000Y52630000D01*
X37020000Y54030000D01*
G36*
X37820000Y52630000D02*
G01*
X37720000Y52630000D01*
X37720000Y51730000D01*
X37120000Y51730000D01*
X37120000Y52630000D01*
X37020000Y52630000D01*
X37020000Y54030000D01*
X37820000Y54030000D01*
X37820000Y52630000D01*
G37*
X37020000Y41530000D02*
X37820000Y41530000D01*
X37820000Y42930000D01*
X37720000Y42930000D01*
X37720000Y43830000D01*
X37120000Y43830000D01*
X37120000Y42930000D01*
X37020000Y42930000D01*
X37020000Y41530000D01*
G36*
X37720000Y42930000D02*
G01*
X37820000Y42930000D01*
X37820000Y41530000D01*
X37020000Y41530000D01*
X37020000Y42930000D01*
X37120000Y42930000D01*
X37120000Y43830000D01*
X37720000Y43830000D01*
X37720000Y42930000D01*
G37*
X38120000Y54030000D02*
X38920000Y54030000D01*
X38920000Y52630000D01*
X38820000Y52630000D01*
X38820000Y51730000D01*
X38220000Y51730000D01*
X38220000Y52630000D01*
X38120000Y52630000D01*
X38120000Y54030000D01*
G36*
X38920000Y52630000D02*
G01*
X38820000Y52630000D01*
X38820000Y51730000D01*
X38220000Y51730000D01*
X38220000Y52630000D01*
X38120000Y52630000D01*
X38120000Y54030000D01*
X38920000Y54030000D01*
X38920000Y52630000D01*
G37*
X38120000Y41530000D02*
X38920000Y41530000D01*
X38920000Y42930000D01*
X38820000Y42930000D01*
X38820000Y43830000D01*
X38220000Y43830000D01*
X38220000Y42930000D01*
X38120000Y42930000D01*
X38120000Y41530000D01*
G36*
X38820000Y42930000D02*
G01*
X38920000Y42930000D01*
X38920000Y41530000D01*
X38120000Y41530000D01*
X38120000Y42930000D01*
X38220000Y42930000D01*
X38220000Y43830000D01*
X38820000Y43830000D01*
X38820000Y42930000D01*
G37*
X39220000Y54030000D02*
X40020000Y54030000D01*
X40020000Y52630000D01*
X39920000Y52630000D01*
X39920000Y51730000D01*
X39320000Y51730000D01*
X39320000Y52630000D01*
X39220000Y52630000D01*
X39220000Y54030000D01*
G36*
X40020000Y52630000D02*
G01*
X39920000Y52630000D01*
X39920000Y51730000D01*
X39320000Y51730000D01*
X39320000Y52630000D01*
X39220000Y52630000D01*
X39220000Y54030000D01*
X40020000Y54030000D01*
X40020000Y52630000D01*
G37*
X39220000Y41530000D02*
X40020000Y41530000D01*
X40020000Y42930000D01*
X39920000Y42930000D01*
X39920000Y43830000D01*
X39320000Y43830000D01*
X39320000Y42930000D01*
X39220000Y42930000D01*
X39220000Y41530000D01*
G36*
X39920000Y42930000D02*
G01*
X40020000Y42930000D01*
X40020000Y41530000D01*
X39220000Y41530000D01*
X39220000Y42930000D01*
X39320000Y42930000D01*
X39320000Y43830000D01*
X39920000Y43830000D01*
X39920000Y42930000D01*
G37*
X40320000Y54030000D02*
X41120000Y54030000D01*
X41120000Y52630000D01*
X41020000Y52630000D01*
X41020000Y51730000D01*
X40420000Y51730000D01*
X40420000Y52630000D01*
X40320000Y52630000D01*
X40320000Y54030000D01*
G36*
X41120000Y52630000D02*
G01*
X41020000Y52630000D01*
X41020000Y51730000D01*
X40420000Y51730000D01*
X40420000Y52630000D01*
X40320000Y52630000D01*
X40320000Y54030000D01*
X41120000Y54030000D01*
X41120000Y52630000D01*
G37*
X40320000Y41530000D02*
X41120000Y41530000D01*
X41120000Y42930000D01*
X41020000Y42930000D01*
X41020000Y43830000D01*
X40420000Y43830000D01*
X40420000Y42930000D01*
X40320000Y42930000D01*
X40320000Y41530000D01*
G36*
X41020000Y42930000D02*
G01*
X41120000Y42930000D01*
X41120000Y41530000D01*
X40320000Y41530000D01*
X40320000Y42930000D01*
X40420000Y42930000D01*
X40420000Y43830000D01*
X41020000Y43830000D01*
X41020000Y42930000D01*
G37*
X41470000Y54030000D02*
X42170000Y54030000D01*
X42170000Y52630000D01*
X42070000Y52630000D01*
X42070000Y51730000D01*
X41570000Y51730000D01*
X41570000Y52630000D01*
X41470000Y52630000D01*
X41470000Y54030000D01*
G36*
X42170000Y52630000D02*
G01*
X42070000Y52630000D01*
X42070000Y51730000D01*
X41570000Y51730000D01*
X41570000Y52630000D01*
X41470000Y52630000D01*
X41470000Y54030000D01*
X42170000Y54030000D01*
X42170000Y52630000D01*
G37*
X41470000Y41530000D02*
X42170000Y41530000D01*
X42170000Y42930000D01*
X42070000Y42930000D01*
X42070000Y43830000D01*
X41570000Y43830000D01*
X41570000Y42930000D01*
X41470000Y42930000D01*
X41470000Y41530000D01*
G36*
X42070000Y42930000D02*
G01*
X42170000Y42930000D01*
X42170000Y41530000D01*
X41470000Y41530000D01*
X41470000Y42930000D01*
X41570000Y42930000D01*
X41570000Y43830000D01*
X42070000Y43830000D01*
X42070000Y42930000D01*
G37*
D10*
%TO.C,U5*%
G36*
X26040000Y15600000D02*
G01*
X24665200Y15600000D01*
X24665200Y16974800D01*
X26040000Y16974800D01*
X26040000Y15600000D01*
G37*
G36*
X26040000Y14025200D02*
G01*
X24665200Y14025200D01*
X24665200Y15400000D01*
X26040000Y15400000D01*
X26040000Y14025200D01*
G37*
G36*
X27614800Y15600000D02*
G01*
X26240000Y15600000D01*
X26240000Y16974800D01*
X27614800Y16974800D01*
X27614800Y15600000D01*
G37*
G36*
X27614800Y14025200D02*
G01*
X26240000Y14025200D01*
X26240000Y15400000D01*
X27614800Y15400000D01*
X27614800Y14025200D01*
G37*
%TD*%
D12*
%TO.C,C11*%
X40720000Y58440000D03*
X40720000Y57480000D03*
%TD*%
D13*
%TO.C,C9*%
X20967500Y53830000D03*
X20967500Y55380000D03*
%TD*%
D14*
%TO.C,R28*%
X19297500Y38390000D03*
X21122500Y38390000D03*
%TD*%
D15*
%TO.C,Y2*%
X24140000Y29360000D03*
X24140000Y32510000D03*
%TD*%
D16*
%TO.C,D1*%
X45950000Y76360000D03*
X44050000Y76360000D03*
X45000000Y74485000D03*
%TD*%
D17*
%TO.C,J5*%
X8295000Y57900000D03*
X13335000Y57900000D03*
X8295000Y60440000D03*
X13335000Y60440000D03*
X8295000Y62980000D03*
X13335000Y62980000D03*
X8295000Y65520000D03*
X13335000Y65520000D03*
X8295000Y68060000D03*
X13335000Y68060000D03*
X8295000Y70600000D03*
X13335000Y70600000D03*
%TD*%
D18*
%TO.C,R25*%
X20502500Y41280000D03*
X18677500Y41280000D03*
%TD*%
D19*
%TO.C,C2*%
X21955000Y29675000D03*
X20405000Y29675000D03*
%TD*%
%TO.C,C27*%
X22455000Y12540000D03*
X20905000Y12540000D03*
%TD*%
%TO.C,C25*%
X29410000Y20860000D03*
X27860000Y20860000D03*
%TD*%
D20*
%TO.C,C16*%
X7400000Y76260000D03*
X8950000Y76260000D03*
%TD*%
%TO.C,C19*%
X7770000Y37605000D03*
X9320000Y37605000D03*
%TD*%
D21*
%TO.C,U3*%
X26197500Y28360000D03*
D22*
X27010000Y28297500D03*
X27510000Y28297500D03*
X28010000Y28297500D03*
X28510000Y28297500D03*
D21*
X29322500Y28360000D03*
X29322500Y28860000D03*
X29322500Y29360000D03*
X29322500Y29860000D03*
X29322500Y30360000D03*
X29322500Y30860000D03*
X29322500Y31360000D03*
X29322500Y31860000D03*
X29322500Y32360000D03*
X29322500Y32860000D03*
D22*
X28510000Y32922500D03*
X28010000Y32922500D03*
X27510000Y32922500D03*
X27010000Y32922500D03*
D21*
X26197500Y32860000D03*
X26197500Y32360000D03*
X26197500Y31860000D03*
X26197500Y31360000D03*
X26197500Y30860000D03*
X26197500Y30360000D03*
X26197500Y29860000D03*
X26197500Y29360000D03*
X26197500Y28860000D03*
%TD*%
D14*
%TO.C,R42*%
X17770000Y34050000D03*
X19595000Y34050000D03*
%TD*%
D23*
%TO.C,J13*%
X16390000Y81070000D03*
X15390000Y81070000D03*
X14390000Y81070000D03*
X13390000Y81070000D03*
D24*
X17690000Y84945000D03*
X12090000Y84945000D03*
%TD*%
D25*
%TO.C,R34*%
X23930000Y58545000D03*
X23930000Y60370000D03*
%TD*%
D20*
%TO.C,C14*%
X39685000Y25870000D03*
X41235000Y25870000D03*
%TD*%
D14*
%TO.C,R27*%
X7632500Y35605000D03*
X9457500Y35605000D03*
%TD*%
D26*
%TO.C,L1*%
X43255000Y58435000D03*
X42285000Y58435000D03*
%TD*%
D27*
%TO.C,D8*%
X17892500Y79800000D03*
X19467500Y79800000D03*
%TD*%
D25*
%TO.C,R38*%
X14660000Y76240000D03*
X14660000Y78065000D03*
%TD*%
D18*
%TO.C,R23*%
X21122500Y36810000D03*
X19297500Y36810000D03*
%TD*%
D25*
%TO.C,R45*%
X25975000Y21777500D03*
X25975000Y23602500D03*
%TD*%
%TO.C,R32*%
X30010000Y58520000D03*
X30010000Y60345000D03*
%TD*%
D28*
%TO.C,C4*%
X25975000Y26717500D03*
X25975000Y25167500D03*
%TD*%
D29*
%TO.C,D2*%
X36090000Y64120000D03*
X36090000Y62370000D03*
%TD*%
D30*
%TO.C,U4*%
X15750000Y45415002D03*
X15750000Y44765001D03*
X15750000Y44115002D03*
X15750000Y43465001D03*
X19949999Y43465001D03*
X19949999Y44115002D03*
X19949999Y44765001D03*
X19949999Y45415002D03*
%TD*%
D14*
%TO.C,R4*%
X7632500Y31605000D03*
X9457500Y31605000D03*
%TD*%
D19*
%TO.C,C20*%
X19949999Y47215002D03*
X18399999Y47215002D03*
%TD*%
D31*
%TO.C,U8*%
X12070000Y39510000D03*
X12070000Y38240000D03*
X12070000Y36970000D03*
X12070000Y35700000D03*
X17020000Y35700000D03*
X17020000Y36970000D03*
X17020000Y38240000D03*
X17020000Y39510000D03*
%TD*%
D29*
%TO.C,D3*%
X33050000Y64120000D03*
X33050000Y62370000D03*
%TD*%
D14*
%TO.C,R47*%
X39535000Y27460000D03*
X41360000Y27460000D03*
%TD*%
D32*
%TO.C,U2*%
X13885000Y29800000D03*
X15135000Y29800000D03*
X16385000Y29800000D03*
X17635000Y29800000D03*
X17635000Y31950000D03*
X16385000Y31950000D03*
X15135000Y31950000D03*
X13885000Y31950000D03*
%TD*%
D29*
%TO.C,D5*%
X26970000Y64120000D03*
X26970000Y62370000D03*
%TD*%
D33*
%TO.C,U7*%
X16557500Y51445000D03*
X16557500Y51944999D03*
X16557500Y52445001D03*
X16557500Y52945000D03*
X16557500Y53444999D03*
X13757500Y53444999D03*
X13757500Y52945000D03*
X13757500Y52445001D03*
X13757500Y51944999D03*
X13757500Y51445000D03*
%TD*%
D14*
%TO.C,R5*%
X7632500Y29605000D03*
X9457500Y29605000D03*
%TD*%
D18*
%TO.C,R11*%
X27500000Y8560000D03*
X25675000Y8560000D03*
%TD*%
D14*
%TO.C,R10*%
X27760000Y34342500D03*
X29585000Y34342500D03*
%TD*%
D34*
%TO.C,R39*%
X16500000Y13452500D03*
X16500000Y10527500D03*
%TD*%
D25*
%TO.C,R43*%
X30130000Y16867500D03*
X30130000Y18692500D03*
%TD*%
D35*
%TO.C,R46*%
X47340000Y38940000D03*
X47340000Y37115000D03*
%TD*%
D28*
%TO.C,C1*%
X13850000Y27350000D03*
X13850000Y25800000D03*
%TD*%
D13*
%TO.C,C7*%
X47720000Y28410000D03*
X47720000Y29960000D03*
%TD*%
D25*
%TO.C,R8*%
X29510000Y25030000D03*
X29510000Y26855000D03*
%TD*%
D16*
%TO.C,Q2*%
X23950000Y10557500D03*
X22050000Y10557500D03*
X23000000Y8682500D03*
%TD*%
D17*
%TO.C,J3*%
X41795000Y10480000D03*
X46835000Y10480000D03*
X41795000Y13020000D03*
X46835000Y13020000D03*
X41795000Y15560000D03*
X46835000Y15560000D03*
X41795000Y18100000D03*
X46835000Y18100000D03*
X41795000Y20640000D03*
X46835000Y20640000D03*
X41795000Y23180000D03*
X46835000Y23180000D03*
%TD*%
D25*
%TO.C,R16*%
X30850000Y51850000D03*
X30850000Y53675000D03*
%TD*%
D19*
%TO.C,C17*%
X9935000Y7870000D03*
X8385000Y7870000D03*
%TD*%
D35*
%TO.C,R14*%
X9870000Y54610000D03*
X9870000Y52785000D03*
%TD*%
D19*
%TO.C,C3*%
X21945000Y32510000D03*
X20395000Y32510000D03*
%TD*%
D28*
%TO.C,C8*%
X18917500Y55380000D03*
X18917500Y53830000D03*
%TD*%
D18*
%TO.C,R9*%
X29592500Y35850000D03*
X27767500Y35850000D03*
%TD*%
D28*
%TO.C,C5*%
X27510000Y26717500D03*
X27510000Y25167500D03*
%TD*%
D36*
%TO.C,BZ1*%
X20400000Y19550000D03*
X20400000Y27550000D03*
%TD*%
D37*
%TO.C,D9*%
X11275000Y79800000D03*
X9700000Y79800000D03*
%TD*%
D38*
%TO.C,Q1*%
X34387500Y24160000D03*
X34387500Y26060000D03*
X32512500Y25110000D03*
%TD*%
D13*
%TO.C,C18*%
X16500000Y15452500D03*
X16500000Y17002500D03*
%TD*%
D18*
%TO.C,R7*%
X11712500Y46965000D03*
X9887500Y46965000D03*
%TD*%
D20*
%TO.C,C28*%
X20460000Y17550000D03*
X22010000Y17550000D03*
%TD*%
D25*
%TO.C,R30*%
X36090000Y58545000D03*
X36090000Y60370000D03*
%TD*%
D35*
%TO.C,R17*%
X28850000Y53675000D03*
X28850000Y51850000D03*
%TD*%
%TO.C,R19*%
X34920000Y10031100D03*
X34920000Y8206100D03*
%TD*%
D18*
%TO.C,R29*%
X27500000Y10560000D03*
X25675000Y10560000D03*
%TD*%
D35*
%TO.C,R15*%
X11870000Y54610000D03*
X11870000Y52785000D03*
%TD*%
D29*
%TO.C,D6*%
X23930000Y64120000D03*
X23930000Y62370000D03*
%TD*%
D35*
%TO.C,R44*%
X30090000Y14142500D03*
X30090000Y12317500D03*
%TD*%
D39*
%TO.C,U1*%
X44360000Y29060000D03*
X44360000Y27760000D03*
X45160000Y29060000D03*
X45160000Y27760000D03*
D40*
X43360000Y29360000D03*
X43360000Y28410000D03*
X43360000Y27460000D03*
X46160000Y27460000D03*
X46160000Y28410000D03*
X46160000Y29360000D03*
%TD*%
D18*
%TO.C,R24*%
X17020000Y41280000D03*
X15195000Y41280000D03*
%TD*%
D14*
%TO.C,R6*%
X9887500Y42965000D03*
X11712500Y42965000D03*
%TD*%
D25*
%TO.C,R18*%
X26850000Y51850000D03*
X26850000Y53675000D03*
%TD*%
D19*
%TO.C,C23*%
X9320000Y33605000D03*
X7770000Y33605000D03*
%TD*%
%TO.C,C22*%
X20715000Y50930000D03*
X19165000Y50930000D03*
%TD*%
%TO.C,C26*%
X29415000Y22340000D03*
X27865000Y22340000D03*
%TD*%
D20*
%TO.C,C6*%
X31322500Y29860000D03*
X32872500Y29860000D03*
%TD*%
D28*
%TO.C,C12*%
X13860000Y47155000D03*
X13860000Y45605000D03*
%TD*%
D14*
%TO.C,R41*%
X7632500Y27605000D03*
X9457500Y27605000D03*
%TD*%
D25*
%TO.C,R31*%
X33050000Y58520000D03*
X33050000Y60345000D03*
%TD*%
D35*
%TO.C,R20*%
X21210000Y16082500D03*
X21210000Y14257500D03*
%TD*%
%TO.C,R35*%
X16460000Y78065000D03*
X16460000Y76240000D03*
%TD*%
D14*
%TO.C,R26*%
X7632500Y39605000D03*
X9457500Y39605000D03*
%TD*%
D34*
%TO.C,R40*%
X18850000Y13462500D03*
X18850000Y10537500D03*
%TD*%
D13*
%TO.C,C13*%
X18500000Y15452500D03*
X18500000Y17002500D03*
%TD*%
D14*
%TO.C,R22*%
X31087500Y8500000D03*
X32912500Y8500000D03*
%TD*%
D28*
%TO.C,C10*%
X43890000Y47575000D03*
X43890000Y46025000D03*
%TD*%
D25*
%TO.C,R37*%
X12860000Y76240000D03*
X12860000Y78065000D03*
%TD*%
D17*
%TO.C,J4*%
X8295000Y10480000D03*
X13335000Y10480000D03*
X8295000Y13020000D03*
X13335000Y13020000D03*
X8295000Y15560000D03*
X13335000Y15560000D03*
X8295000Y18100000D03*
X13335000Y18100000D03*
X8295000Y20640000D03*
X13335000Y20640000D03*
X8295000Y23180000D03*
X13335000Y23180000D03*
%TD*%
D25*
%TO.C,R33*%
X26970000Y58520000D03*
X26970000Y60345000D03*
%TD*%
D20*
%TO.C,C21*%
X22665000Y37610000D03*
X24215000Y37610000D03*
%TD*%
D29*
%TO.C,D4*%
X30010000Y64120000D03*
X30010000Y62370000D03*
%TD*%
D41*
%TO.C,J6*%
X40720000Y60700000D03*
D42*
X39245000Y62200000D03*
D41*
X40720000Y63700000D03*
D42*
X42195000Y62200000D03*
%TD*%
D25*
%TO.C,R21*%
X29530000Y8560000D03*
X29530000Y10385000D03*
%TD*%
D35*
%TO.C,R36*%
X11060000Y78065000D03*
X11060000Y76240000D03*
%TD*%
D23*
%TO.C,J10*%
X46500000Y81070000D03*
X45500000Y81070000D03*
X44500000Y81070000D03*
X43500000Y81070000D03*
D24*
X47800000Y84945000D03*
X42200000Y84945000D03*
%TD*%
D43*
%TO.C,U5*%
X27640000Y17900300D03*
X27140001Y17900300D03*
X26639999Y17900300D03*
X26140000Y17900300D03*
X25640001Y17900300D03*
X25139999Y17900300D03*
X24640000Y17900300D03*
D44*
X23739700Y17000000D03*
X23739700Y16500001D03*
X23739700Y15999999D03*
X23739700Y15500000D03*
X23739700Y15000001D03*
X23739700Y14499999D03*
X23739700Y14000000D03*
D43*
X24640000Y13099700D03*
X25139999Y13099700D03*
X25640001Y13099700D03*
X26140000Y13099700D03*
X26639999Y13099700D03*
X27140001Y13099700D03*
X27640000Y13099700D03*
D44*
X28540300Y14000000D03*
X28540300Y14499999D03*
X28540300Y15000001D03*
X28540300Y15500000D03*
X28540300Y15999999D03*
X28540300Y16500001D03*
X28540300Y17000000D03*
%TD*%
D20*
%TO.C,C15*%
X7400000Y74260000D03*
X8950000Y74260000D03*
%TD*%
D45*
%TO.C,D7*%
X18460000Y76365000D03*
X18460000Y77940000D03*
%TD*%
M02*
