%TF.GenerationSoftware,KiCad,Pcbnew,10.0.3*%
%TF.CreationDate,2026-06-17T19:44:49-04:00*%
%TF.ProjectId,Ion-0,496f6e2d-302e-46b6-9963-61645f706362,V0.5*%
%TF.SameCoordinates,Original*%
%TF.FileFunction,Soldermask,Bot*%
%TF.FilePolarity,Negative*%
%FSLAX46Y46*%
G04 Gerber Fmt 4.6, Leading zero omitted, Abs format (unit mm)*
G04 Created by KiCad (PCBNEW 10.0.3) date 2026-06-17 19:44:49*
%MOMM*%
%LPD*%
G01*
G04 APERTURE LIST*
G04 Aperture macros list*
%AMRoundRect*
0 Rectangle with rounded corners*
0 $1 Rounding radius*
0 $2 $3 $4 $5 $6 $7 $8 $9 X,Y pos of 4 corners*
0 Add a 4 corners polygon primitive as box body*
4,1,4,$2,$3,$4,$5,$6,$7,$8,$9,$2,$3,0*
0 Add four circle primitives for the rounded corners*
1,1,$1+$1,$2,$3*
1,1,$1+$1,$4,$5*
1,1,$1+$1,$6,$7*
1,1,$1+$1,$8,$9*
0 Add four rect primitives between the rounded corners*
20,1,$1+$1,$2,$3,$4,$5,0*
20,1,$1+$1,$4,$5,$6,$7,0*
20,1,$1+$1,$6,$7,$8,$9,0*
20,1,$1+$1,$8,$9,$2,$3,0*%
G04 Aperture macros list end*
%ADD10RoundRect,0.250000X-0.750000X-0.750000X0.750000X-0.750000X0.750000X0.750000X-0.750000X0.750000X0*%
%ADD11C,2.000000*%
%ADD12C,0.499999*%
%ADD13R,1.700000X1.700000*%
%ADD14C,1.700000*%
%ADD15RoundRect,0.225000X-0.225000X-0.250000X0.225000X-0.250000X0.225000X0.250000X-0.225000X0.250000X0*%
G04 APERTURE END LIST*
D10*
%TO.C,J15*%
X34970000Y3930000D03*
D11*
X37510000Y3930000D03*
X40050000Y3930000D03*
X42590000Y3930000D03*
%TD*%
D10*
%TO.C,J8*%
X13050000Y3930000D03*
D11*
X15590000Y3930000D03*
%TD*%
D12*
%TO.C,U7*%
X15732500Y52445001D03*
X15157500Y51495000D03*
X15157500Y53395002D03*
X14582500Y52445001D03*
%TD*%
D10*
%TO.C,J7*%
X21310000Y3930000D03*
D11*
X23850000Y3930000D03*
X26390000Y3930000D03*
X28930000Y3930000D03*
%TD*%
D13*
%TO.C,J1*%
X4420000Y66800000D03*
D14*
X1880000Y66800000D03*
X4420000Y64260000D03*
X1880000Y64260000D03*
X4420000Y61720000D03*
X1880000Y61720000D03*
X4420000Y59180000D03*
X1880000Y59180000D03*
X4420000Y56640000D03*
X1880000Y56640000D03*
X4420000Y54100000D03*
X1880000Y54100000D03*
X4420000Y51560000D03*
X1880000Y51560000D03*
X4420000Y49020000D03*
X1880000Y49020000D03*
X4420000Y46480000D03*
X1880000Y46480000D03*
X4420000Y43940000D03*
X1880000Y43940000D03*
X4420000Y41400000D03*
X1880000Y41400000D03*
X4420000Y38860000D03*
X1880000Y38860000D03*
X4420000Y36320000D03*
X1880000Y36320000D03*
X4420000Y33780000D03*
X1880000Y33780000D03*
X4420000Y31240000D03*
X1880000Y31240000D03*
X4420000Y28700000D03*
X1880000Y28700000D03*
X4420000Y26160000D03*
X1880000Y26160000D03*
X4420000Y23620000D03*
X1880000Y23620000D03*
X4420000Y21080000D03*
X1880000Y21080000D03*
X4420000Y18540000D03*
X1880000Y18540000D03*
X4420000Y16000000D03*
X1880000Y16000000D03*
X4420000Y13460000D03*
X1880000Y13460000D03*
X4420000Y10920000D03*
X1880000Y10920000D03*
%TD*%
D13*
%TO.C,J2*%
X52720000Y66800000D03*
D14*
X50180000Y66800000D03*
X52720000Y64260000D03*
X50180000Y64260000D03*
X52720000Y61720000D03*
X50180000Y61720000D03*
X52720000Y59180000D03*
X50180000Y59180000D03*
X52720000Y56640000D03*
X50180000Y56640000D03*
X52720000Y54100000D03*
X50180000Y54100000D03*
X52720000Y51560000D03*
X50180000Y51560000D03*
X52720000Y49020000D03*
X50180000Y49020000D03*
X52720000Y46480000D03*
X50180000Y46480000D03*
X52720000Y43940000D03*
X50180000Y43940000D03*
X52720000Y41400000D03*
X50180000Y41400000D03*
X52720000Y38860000D03*
X50180000Y38860000D03*
X52720000Y36320000D03*
X50180000Y36320000D03*
X52720000Y33780000D03*
X50180000Y33780000D03*
X52720000Y31240000D03*
X50180000Y31240000D03*
X52720000Y28700000D03*
X50180000Y28700000D03*
X52720000Y26160000D03*
X50180000Y26160000D03*
X52720000Y23620000D03*
X50180000Y23620000D03*
X52720000Y21080000D03*
X50180000Y21080000D03*
X52720000Y18540000D03*
X50180000Y18540000D03*
X52720000Y16000000D03*
X50180000Y16000000D03*
X52720000Y13460000D03*
X50180000Y13460000D03*
X52720000Y10920000D03*
X50180000Y10920000D03*
%TD*%
D15*
%TO.C,C29*%
X28515000Y15530000D03*
X30065000Y15530000D03*
%TD*%
M02*
