%TF.GenerationSoftware,KiCad,Pcbnew,10.0.3*%
%TF.CreationDate,2026-06-17T19:44:49-04:00*%
%TF.ProjectId,Ion-0,496f6e2d-302e-46b6-9963-61645f706362,V0.5*%
%TF.SameCoordinates,Original*%
%TF.FileFunction,Legend,Top*%
%TF.FilePolarity,Positive*%
%FSLAX46Y46*%
G04 Gerber Fmt 4.6, Leading zero omitted, Abs format (unit mm)*
G04 Created by KiCad (PCBNEW 10.0.3) date 2026-06-17 19:44:49*
%MOMM*%
%LPD*%
G01*
G04 APERTURE LIST*
%ADD10C,0.200000*%
%ADD11C,0.150000*%
%ADD12C,0.120000*%
%ADD13C,0.127000*%
%ADD14C,0.100000*%
%ADD15C,0.152400*%
G04 APERTURE END LIST*
D10*
X9789300Y773972D02*
X9789300Y2273972D01*
X9789300Y1559686D02*
X10646443Y1559686D01*
X10646443Y773972D02*
X10646443Y2273972D01*
X11360729Y1559686D02*
X11860729Y1559686D01*
X12075015Y773972D02*
X11360729Y773972D01*
X11360729Y773972D02*
X11360729Y2273972D01*
X11360729Y2273972D02*
X12075015Y2273972D01*
X12646444Y1202543D02*
X13360730Y1202543D01*
X12503587Y773972D02*
X13003587Y2273972D01*
X13003587Y2273972D02*
X13503587Y773972D01*
X13789301Y2273972D02*
X14646444Y2273972D01*
X14217872Y773972D02*
X14217872Y2273972D01*
X15146443Y1559686D02*
X15646443Y1559686D01*
X15860729Y773972D02*
X15146443Y773972D01*
X15146443Y773972D02*
X15146443Y2273972D01*
X15146443Y2273972D02*
X15860729Y2273972D01*
X17360729Y773972D02*
X16860729Y1488258D01*
X16503586Y773972D02*
X16503586Y2273972D01*
X16503586Y2273972D02*
X17075015Y2273972D01*
X17075015Y2273972D02*
X17217872Y2202543D01*
X17217872Y2202543D02*
X17289301Y2131115D01*
X17289301Y2131115D02*
X17360729Y1988258D01*
X17360729Y1988258D02*
X17360729Y1773972D01*
X17360729Y1773972D02*
X17289301Y1631115D01*
X17289301Y1631115D02*
X17217872Y1559686D01*
X17217872Y1559686D02*
X17075015Y1488258D01*
X17075015Y1488258D02*
X16503586Y1488258D01*
X21168720Y673972D02*
X21168720Y2173972D01*
X21168720Y2173972D02*
X21740149Y2173972D01*
X21740149Y2173972D02*
X21883006Y2102543D01*
X21883006Y2102543D02*
X21954435Y2031115D01*
X21954435Y2031115D02*
X22025863Y1888258D01*
X22025863Y1888258D02*
X22025863Y1673972D01*
X22025863Y1673972D02*
X21954435Y1531115D01*
X21954435Y1531115D02*
X21883006Y1459686D01*
X21883006Y1459686D02*
X21740149Y1388258D01*
X21740149Y1388258D02*
X21168720Y1388258D01*
X23525863Y673972D02*
X23025863Y1388258D01*
X22668720Y673972D02*
X22668720Y2173972D01*
X22668720Y2173972D02*
X23240149Y2173972D01*
X23240149Y2173972D02*
X23383006Y2102543D01*
X23383006Y2102543D02*
X23454435Y2031115D01*
X23454435Y2031115D02*
X23525863Y1888258D01*
X23525863Y1888258D02*
X23525863Y1673972D01*
X23525863Y1673972D02*
X23454435Y1531115D01*
X23454435Y1531115D02*
X23383006Y1459686D01*
X23383006Y1459686D02*
X23240149Y1388258D01*
X23240149Y1388258D02*
X22668720Y1388258D01*
X24454435Y2173972D02*
X24740149Y2173972D01*
X24740149Y2173972D02*
X24883006Y2102543D01*
X24883006Y2102543D02*
X25025863Y1959686D01*
X25025863Y1959686D02*
X25097292Y1673972D01*
X25097292Y1673972D02*
X25097292Y1173972D01*
X25097292Y1173972D02*
X25025863Y888258D01*
X25025863Y888258D02*
X24883006Y745400D01*
X24883006Y745400D02*
X24740149Y673972D01*
X24740149Y673972D02*
X24454435Y673972D01*
X24454435Y673972D02*
X24311578Y745400D01*
X24311578Y745400D02*
X24168720Y888258D01*
X24168720Y888258D02*
X24097292Y1173972D01*
X24097292Y1173972D02*
X24097292Y1673972D01*
X24097292Y1673972D02*
X24168720Y1959686D01*
X24168720Y1959686D02*
X24311578Y2102543D01*
X24311578Y2102543D02*
X24454435Y2173972D01*
X26240149Y1459686D02*
X26454435Y1388258D01*
X26454435Y1388258D02*
X26525864Y1316829D01*
X26525864Y1316829D02*
X26597292Y1173972D01*
X26597292Y1173972D02*
X26597292Y959686D01*
X26597292Y959686D02*
X26525864Y816829D01*
X26525864Y816829D02*
X26454435Y745400D01*
X26454435Y745400D02*
X26311578Y673972D01*
X26311578Y673972D02*
X25740149Y673972D01*
X25740149Y673972D02*
X25740149Y2173972D01*
X25740149Y2173972D02*
X26240149Y2173972D01*
X26240149Y2173972D02*
X26383007Y2102543D01*
X26383007Y2102543D02*
X26454435Y2031115D01*
X26454435Y2031115D02*
X26525864Y1888258D01*
X26525864Y1888258D02*
X26525864Y1745400D01*
X26525864Y1745400D02*
X26454435Y1602543D01*
X26454435Y1602543D02*
X26383007Y1531115D01*
X26383007Y1531115D02*
X26240149Y1459686D01*
X26240149Y1459686D02*
X25740149Y1459686D01*
X27240149Y1459686D02*
X27740149Y1459686D01*
X27954435Y673972D02*
X27240149Y673972D01*
X27240149Y673972D02*
X27240149Y2173972D01*
X27240149Y2173972D02*
X27954435Y2173972D01*
X28525864Y745400D02*
X28740150Y673972D01*
X28740150Y673972D02*
X29097292Y673972D01*
X29097292Y673972D02*
X29240150Y745400D01*
X29240150Y745400D02*
X29311578Y816829D01*
X29311578Y816829D02*
X29383007Y959686D01*
X29383007Y959686D02*
X29383007Y1102543D01*
X29383007Y1102543D02*
X29311578Y1245400D01*
X29311578Y1245400D02*
X29240150Y1316829D01*
X29240150Y1316829D02*
X29097292Y1388258D01*
X29097292Y1388258D02*
X28811578Y1459686D01*
X28811578Y1459686D02*
X28668721Y1531115D01*
X28668721Y1531115D02*
X28597292Y1602543D01*
X28597292Y1602543D02*
X28525864Y1745400D01*
X28525864Y1745400D02*
X28525864Y1888258D01*
X28525864Y1888258D02*
X28597292Y2031115D01*
X28597292Y2031115D02*
X28668721Y2102543D01*
X28668721Y2102543D02*
X28811578Y2173972D01*
X28811578Y2173972D02*
X29168721Y2173972D01*
X29168721Y2173972D02*
X29383007Y2102543D01*
X34647292Y625400D02*
X34861578Y553972D01*
X34861578Y553972D02*
X35218720Y553972D01*
X35218720Y553972D02*
X35361578Y625400D01*
X35361578Y625400D02*
X35433006Y696829D01*
X35433006Y696829D02*
X35504435Y839686D01*
X35504435Y839686D02*
X35504435Y982543D01*
X35504435Y982543D02*
X35433006Y1125400D01*
X35433006Y1125400D02*
X35361578Y1196829D01*
X35361578Y1196829D02*
X35218720Y1268258D01*
X35218720Y1268258D02*
X34933006Y1339686D01*
X34933006Y1339686D02*
X34790149Y1411115D01*
X34790149Y1411115D02*
X34718720Y1482543D01*
X34718720Y1482543D02*
X34647292Y1625400D01*
X34647292Y1625400D02*
X34647292Y1768258D01*
X34647292Y1768258D02*
X34718720Y1911115D01*
X34718720Y1911115D02*
X34790149Y1982543D01*
X34790149Y1982543D02*
X34933006Y2053972D01*
X34933006Y2053972D02*
X35290149Y2053972D01*
X35290149Y2053972D02*
X35504435Y1982543D01*
X35933006Y2053972D02*
X36790149Y2053972D01*
X36361577Y553972D02*
X36361577Y2053972D01*
X37290148Y1339686D02*
X37790148Y1339686D01*
X38004434Y553972D02*
X37290148Y553972D01*
X37290148Y553972D02*
X37290148Y2053972D01*
X37290148Y2053972D02*
X38004434Y2053972D01*
X38647291Y553972D02*
X38647291Y2053972D01*
X38647291Y2053972D02*
X39218720Y2053972D01*
X39218720Y2053972D02*
X39361577Y1982543D01*
X39361577Y1982543D02*
X39433006Y1911115D01*
X39433006Y1911115D02*
X39504434Y1768258D01*
X39504434Y1768258D02*
X39504434Y1553972D01*
X39504434Y1553972D02*
X39433006Y1411115D01*
X39433006Y1411115D02*
X39361577Y1339686D01*
X39361577Y1339686D02*
X39218720Y1268258D01*
X39218720Y1268258D02*
X38647291Y1268258D01*
X40147291Y553972D02*
X40147291Y2053972D01*
X40147291Y2053972D02*
X40718720Y2053972D01*
X40718720Y2053972D02*
X40861577Y1982543D01*
X40861577Y1982543D02*
X40933006Y1911115D01*
X40933006Y1911115D02*
X41004434Y1768258D01*
X41004434Y1768258D02*
X41004434Y1553972D01*
X41004434Y1553972D02*
X40933006Y1411115D01*
X40933006Y1411115D02*
X40861577Y1339686D01*
X40861577Y1339686D02*
X40718720Y1268258D01*
X40718720Y1268258D02*
X40147291Y1268258D01*
X41647291Y1339686D02*
X42147291Y1339686D01*
X42361577Y553972D02*
X41647291Y553972D01*
X41647291Y553972D02*
X41647291Y2053972D01*
X41647291Y2053972D02*
X42361577Y2053972D01*
X43861577Y553972D02*
X43361577Y1268258D01*
X43004434Y553972D02*
X43004434Y2053972D01*
X43004434Y2053972D02*
X43575863Y2053972D01*
X43575863Y2053972D02*
X43718720Y1982543D01*
X43718720Y1982543D02*
X43790149Y1911115D01*
X43790149Y1911115D02*
X43861577Y1768258D01*
X43861577Y1768258D02*
X43861577Y1553972D01*
X43861577Y1553972D02*
X43790149Y1411115D01*
X43790149Y1411115D02*
X43718720Y1339686D01*
X43718720Y1339686D02*
X43575863Y1268258D01*
X43575863Y1268258D02*
X43004434Y1268258D01*
D11*
X42239580Y57317143D02*
X42287200Y57269524D01*
X42287200Y57269524D02*
X42334819Y57126667D01*
X42334819Y57126667D02*
X42334819Y57031429D01*
X42334819Y57031429D02*
X42287200Y56888572D01*
X42287200Y56888572D02*
X42191961Y56793334D01*
X42191961Y56793334D02*
X42096723Y56745715D01*
X42096723Y56745715D02*
X41906247Y56698096D01*
X41906247Y56698096D02*
X41763390Y56698096D01*
X41763390Y56698096D02*
X41572914Y56745715D01*
X41572914Y56745715D02*
X41477676Y56793334D01*
X41477676Y56793334D02*
X41382438Y56888572D01*
X41382438Y56888572D02*
X41334819Y57031429D01*
X41334819Y57031429D02*
X41334819Y57126667D01*
X41334819Y57126667D02*
X41382438Y57269524D01*
X41382438Y57269524D02*
X41430057Y57317143D01*
X42334819Y58269524D02*
X42334819Y57698096D01*
X42334819Y57983810D02*
X41334819Y57983810D01*
X41334819Y57983810D02*
X41477676Y57888572D01*
X41477676Y57888572D02*
X41572914Y57793334D01*
X41572914Y57793334D02*
X41620533Y57698096D01*
X42334819Y59221905D02*
X42334819Y58650477D01*
X42334819Y58936191D02*
X41334819Y58936191D01*
X41334819Y58936191D02*
X41477676Y58840953D01*
X41477676Y58840953D02*
X41572914Y58745715D01*
X41572914Y58745715D02*
X41620533Y58650477D01*
X37970476Y8695181D02*
X37970476Y7980896D01*
X37970476Y7980896D02*
X37922857Y7838039D01*
X37922857Y7838039D02*
X37827619Y7742800D01*
X37827619Y7742800D02*
X37684762Y7695181D01*
X37684762Y7695181D02*
X37589524Y7695181D01*
X38970476Y7695181D02*
X38399048Y7695181D01*
X38684762Y7695181D02*
X38684762Y8695181D01*
X38684762Y8695181D02*
X38589524Y8552324D01*
X38589524Y8552324D02*
X38494286Y8457086D01*
X38494286Y8457086D02*
X38399048Y8409467D01*
X39875238Y8695181D02*
X39399048Y8695181D01*
X39399048Y8695181D02*
X39351429Y8218991D01*
X39351429Y8218991D02*
X39399048Y8266610D01*
X39399048Y8266610D02*
X39494286Y8314229D01*
X39494286Y8314229D02*
X39732381Y8314229D01*
X39732381Y8314229D02*
X39827619Y8266610D01*
X39827619Y8266610D02*
X39875238Y8218991D01*
X39875238Y8218991D02*
X39922857Y8123753D01*
X39922857Y8123753D02*
X39922857Y7885658D01*
X39922857Y7885658D02*
X39875238Y7790420D01*
X39875238Y7790420D02*
X39827619Y7742800D01*
X39827619Y7742800D02*
X39732381Y7695181D01*
X39732381Y7695181D02*
X39494286Y7695181D01*
X39494286Y7695181D02*
X39399048Y7742800D01*
X39399048Y7742800D02*
X39351429Y7790420D01*
X21763809Y30956372D02*
X21763809Y30480181D01*
X21430476Y31480181D02*
X21763809Y30956372D01*
X21763809Y30956372D02*
X22097142Y31480181D01*
X22382857Y31384943D02*
X22430476Y31432562D01*
X22430476Y31432562D02*
X22525714Y31480181D01*
X22525714Y31480181D02*
X22763809Y31480181D01*
X22763809Y31480181D02*
X22859047Y31432562D01*
X22859047Y31432562D02*
X22906666Y31384943D01*
X22906666Y31384943D02*
X22954285Y31289705D01*
X22954285Y31289705D02*
X22954285Y31194467D01*
X22954285Y31194467D02*
X22906666Y31051610D01*
X22906666Y31051610D02*
X22335238Y30480181D01*
X22335238Y30480181D02*
X22954285Y30480181D01*
X27312380Y31293724D02*
X27312380Y30775629D01*
X27312380Y30775629D02*
X27342857Y30714677D01*
X27342857Y30714677D02*
X27373333Y30684200D01*
X27373333Y30684200D02*
X27434285Y30653724D01*
X27434285Y30653724D02*
X27556190Y30653724D01*
X27556190Y30653724D02*
X27617142Y30684200D01*
X27617142Y30684200D02*
X27647619Y30714677D01*
X27647619Y30714677D02*
X27678095Y30775629D01*
X27678095Y30775629D02*
X27678095Y31293724D01*
X27921904Y31293724D02*
X28318095Y31293724D01*
X28318095Y31293724D02*
X28104761Y31049915D01*
X28104761Y31049915D02*
X28196190Y31049915D01*
X28196190Y31049915D02*
X28257142Y31019439D01*
X28257142Y31019439D02*
X28287618Y30988962D01*
X28287618Y30988962D02*
X28318095Y30928010D01*
X28318095Y30928010D02*
X28318095Y30775629D01*
X28318095Y30775629D02*
X28287618Y30714677D01*
X28287618Y30714677D02*
X28257142Y30684200D01*
X28257142Y30684200D02*
X28196190Y30653724D01*
X28196190Y30653724D02*
X28013333Y30653724D01*
X28013333Y30653724D02*
X27952380Y30684200D01*
X27952380Y30684200D02*
X27921904Y30714677D01*
X8877976Y82975181D02*
X8877976Y82260896D01*
X8877976Y82260896D02*
X8830357Y82118039D01*
X8830357Y82118039D02*
X8735119Y82022800D01*
X8735119Y82022800D02*
X8592262Y81975181D01*
X8592262Y81975181D02*
X8497024Y81975181D01*
X9877976Y81975181D02*
X9306548Y81975181D01*
X9592262Y81975181D02*
X9592262Y82975181D01*
X9592262Y82975181D02*
X9497024Y82832324D01*
X9497024Y82832324D02*
X9401786Y82737086D01*
X9401786Y82737086D02*
X9306548Y82689467D01*
X10211310Y82975181D02*
X10830357Y82975181D01*
X10830357Y82975181D02*
X10497024Y82594229D01*
X10497024Y82594229D02*
X10639881Y82594229D01*
X10639881Y82594229D02*
X10735119Y82546610D01*
X10735119Y82546610D02*
X10782738Y82498991D01*
X10782738Y82498991D02*
X10830357Y82403753D01*
X10830357Y82403753D02*
X10830357Y82165658D01*
X10830357Y82165658D02*
X10782738Y82070420D01*
X10782738Y82070420D02*
X10735119Y82022800D01*
X10735119Y82022800D02*
X10639881Y81975181D01*
X10639881Y81975181D02*
X10354167Y81975181D01*
X10354167Y81975181D02*
X10258929Y82022800D01*
X10258929Y82022800D02*
X10211310Y82070420D01*
X15788095Y47445181D02*
X15788095Y46635658D01*
X15788095Y46635658D02*
X15835714Y46540420D01*
X15835714Y46540420D02*
X15883333Y46492800D01*
X15883333Y46492800D02*
X15978571Y46445181D01*
X15978571Y46445181D02*
X16169047Y46445181D01*
X16169047Y46445181D02*
X16264285Y46492800D01*
X16264285Y46492800D02*
X16311904Y46540420D01*
X16311904Y46540420D02*
X16359523Y46635658D01*
X16359523Y46635658D02*
X16359523Y47445181D01*
X17264285Y47111848D02*
X17264285Y46445181D01*
X17026190Y47492800D02*
X16788095Y46778515D01*
X16788095Y46778515D02*
X17407142Y46778515D01*
X13783095Y38025181D02*
X13783095Y37215658D01*
X13783095Y37215658D02*
X13830714Y37120420D01*
X13830714Y37120420D02*
X13878333Y37072800D01*
X13878333Y37072800D02*
X13973571Y37025181D01*
X13973571Y37025181D02*
X14164047Y37025181D01*
X14164047Y37025181D02*
X14259285Y37072800D01*
X14259285Y37072800D02*
X14306904Y37120420D01*
X14306904Y37120420D02*
X14354523Y37215658D01*
X14354523Y37215658D02*
X14354523Y38025181D01*
X14973571Y37596610D02*
X14878333Y37644229D01*
X14878333Y37644229D02*
X14830714Y37691848D01*
X14830714Y37691848D02*
X14783095Y37787086D01*
X14783095Y37787086D02*
X14783095Y37834705D01*
X14783095Y37834705D02*
X14830714Y37929943D01*
X14830714Y37929943D02*
X14878333Y37977562D01*
X14878333Y37977562D02*
X14973571Y38025181D01*
X14973571Y38025181D02*
X15164047Y38025181D01*
X15164047Y38025181D02*
X15259285Y37977562D01*
X15259285Y37977562D02*
X15306904Y37929943D01*
X15306904Y37929943D02*
X15354523Y37834705D01*
X15354523Y37834705D02*
X15354523Y37787086D01*
X15354523Y37787086D02*
X15306904Y37691848D01*
X15306904Y37691848D02*
X15259285Y37644229D01*
X15259285Y37644229D02*
X15164047Y37596610D01*
X15164047Y37596610D02*
X14973571Y37596610D01*
X14973571Y37596610D02*
X14878333Y37548991D01*
X14878333Y37548991D02*
X14830714Y37501372D01*
X14830714Y37501372D02*
X14783095Y37406134D01*
X14783095Y37406134D02*
X14783095Y37215658D01*
X14783095Y37215658D02*
X14830714Y37120420D01*
X14830714Y37120420D02*
X14878333Y37072800D01*
X14878333Y37072800D02*
X14973571Y37025181D01*
X14973571Y37025181D02*
X15164047Y37025181D01*
X15164047Y37025181D02*
X15259285Y37072800D01*
X15259285Y37072800D02*
X15306904Y37120420D01*
X15306904Y37120420D02*
X15354523Y37215658D01*
X15354523Y37215658D02*
X15354523Y37406134D01*
X15354523Y37406134D02*
X15306904Y37501372D01*
X15306904Y37501372D02*
X15259285Y37548991D01*
X15259285Y37548991D02*
X15164047Y37596610D01*
X11564819Y30113096D02*
X12374342Y30113096D01*
X12374342Y30113096D02*
X12469580Y30160715D01*
X12469580Y30160715D02*
X12517200Y30208334D01*
X12517200Y30208334D02*
X12564819Y30303572D01*
X12564819Y30303572D02*
X12564819Y30494048D01*
X12564819Y30494048D02*
X12517200Y30589286D01*
X12517200Y30589286D02*
X12469580Y30636905D01*
X12469580Y30636905D02*
X12374342Y30684524D01*
X12374342Y30684524D02*
X11564819Y30684524D01*
X11660057Y31113096D02*
X11612438Y31160715D01*
X11612438Y31160715D02*
X11564819Y31255953D01*
X11564819Y31255953D02*
X11564819Y31494048D01*
X11564819Y31494048D02*
X11612438Y31589286D01*
X11612438Y31589286D02*
X11660057Y31636905D01*
X11660057Y31636905D02*
X11755295Y31684524D01*
X11755295Y31684524D02*
X11850533Y31684524D01*
X11850533Y31684524D02*
X11993390Y31636905D01*
X11993390Y31636905D02*
X12564819Y31065477D01*
X12564819Y31065477D02*
X12564819Y31684524D01*
X14395595Y55715181D02*
X14395595Y54905658D01*
X14395595Y54905658D02*
X14443214Y54810420D01*
X14443214Y54810420D02*
X14490833Y54762800D01*
X14490833Y54762800D02*
X14586071Y54715181D01*
X14586071Y54715181D02*
X14776547Y54715181D01*
X14776547Y54715181D02*
X14871785Y54762800D01*
X14871785Y54762800D02*
X14919404Y54810420D01*
X14919404Y54810420D02*
X14967023Y54905658D01*
X14967023Y54905658D02*
X14967023Y55715181D01*
X15347976Y55715181D02*
X16014642Y55715181D01*
X16014642Y55715181D02*
X15586071Y54715181D01*
X20161009Y22669048D02*
X20208628Y22811905D01*
X20208628Y22811905D02*
X20256247Y22859524D01*
X20256247Y22859524D02*
X20351485Y22907143D01*
X20351485Y22907143D02*
X20494342Y22907143D01*
X20494342Y22907143D02*
X20589580Y22859524D01*
X20589580Y22859524D02*
X20637200Y22811905D01*
X20637200Y22811905D02*
X20684819Y22716667D01*
X20684819Y22716667D02*
X20684819Y22335715D01*
X20684819Y22335715D02*
X19684819Y22335715D01*
X19684819Y22335715D02*
X19684819Y22669048D01*
X19684819Y22669048D02*
X19732438Y22764286D01*
X19732438Y22764286D02*
X19780057Y22811905D01*
X19780057Y22811905D02*
X19875295Y22859524D01*
X19875295Y22859524D02*
X19970533Y22859524D01*
X19970533Y22859524D02*
X20065771Y22811905D01*
X20065771Y22811905D02*
X20113390Y22764286D01*
X20113390Y22764286D02*
X20161009Y22669048D01*
X20161009Y22669048D02*
X20161009Y22335715D01*
X19684819Y23240477D02*
X19684819Y23907143D01*
X19684819Y23907143D02*
X20684819Y23240477D01*
X20684819Y23240477D02*
X20684819Y23907143D01*
X20684819Y24811905D02*
X20684819Y24240477D01*
X20684819Y24526191D02*
X19684819Y24526191D01*
X19684819Y24526191D02*
X19827676Y24430953D01*
X19827676Y24430953D02*
X19922914Y24335715D01*
X19922914Y24335715D02*
X19970533Y24240477D01*
X30739819Y47090596D02*
X31549342Y47090596D01*
X31549342Y47090596D02*
X31644580Y47138215D01*
X31644580Y47138215D02*
X31692200Y47185834D01*
X31692200Y47185834D02*
X31739819Y47281072D01*
X31739819Y47281072D02*
X31739819Y47471548D01*
X31739819Y47471548D02*
X31692200Y47566786D01*
X31692200Y47566786D02*
X31644580Y47614405D01*
X31644580Y47614405D02*
X31549342Y47662024D01*
X31549342Y47662024D02*
X30739819Y47662024D01*
X30739819Y48566786D02*
X30739819Y48376310D01*
X30739819Y48376310D02*
X30787438Y48281072D01*
X30787438Y48281072D02*
X30835057Y48233453D01*
X30835057Y48233453D02*
X30977914Y48138215D01*
X30977914Y48138215D02*
X31168390Y48090596D01*
X31168390Y48090596D02*
X31549342Y48090596D01*
X31549342Y48090596D02*
X31644580Y48138215D01*
X31644580Y48138215D02*
X31692200Y48185834D01*
X31692200Y48185834D02*
X31739819Y48281072D01*
X31739819Y48281072D02*
X31739819Y48471548D01*
X31739819Y48471548D02*
X31692200Y48566786D01*
X31692200Y48566786D02*
X31644580Y48614405D01*
X31644580Y48614405D02*
X31549342Y48662024D01*
X31549342Y48662024D02*
X31311247Y48662024D01*
X31311247Y48662024D02*
X31216009Y48614405D01*
X31216009Y48614405D02*
X31168390Y48566786D01*
X31168390Y48566786D02*
X31120771Y48471548D01*
X31120771Y48471548D02*
X31120771Y48281072D01*
X31120771Y48281072D02*
X31168390Y48185834D01*
X31168390Y48185834D02*
X31216009Y48138215D01*
X31216009Y48138215D02*
X31311247Y48090596D01*
X44098095Y32095181D02*
X44098095Y31285658D01*
X44098095Y31285658D02*
X44145714Y31190420D01*
X44145714Y31190420D02*
X44193333Y31142800D01*
X44193333Y31142800D02*
X44288571Y31095181D01*
X44288571Y31095181D02*
X44479047Y31095181D01*
X44479047Y31095181D02*
X44574285Y31142800D01*
X44574285Y31142800D02*
X44621904Y31190420D01*
X44621904Y31190420D02*
X44669523Y31285658D01*
X44669523Y31285658D02*
X44669523Y32095181D01*
X45669523Y31095181D02*
X45098095Y31095181D01*
X45383809Y31095181D02*
X45383809Y32095181D01*
X45383809Y32095181D02*
X45288571Y31952324D01*
X45288571Y31952324D02*
X45193333Y31857086D01*
X45193333Y31857086D02*
X45098095Y31809467D01*
X24786666Y8695181D02*
X24786666Y7980896D01*
X24786666Y7980896D02*
X24739047Y7838039D01*
X24739047Y7838039D02*
X24643809Y7742800D01*
X24643809Y7742800D02*
X24500952Y7695181D01*
X24500952Y7695181D02*
X24405714Y7695181D01*
X25167619Y8695181D02*
X25834285Y8695181D01*
X25834285Y8695181D02*
X25405714Y7695181D01*
X44190476Y79635181D02*
X44190476Y78920896D01*
X44190476Y78920896D02*
X44142857Y78778039D01*
X44142857Y78778039D02*
X44047619Y78682800D01*
X44047619Y78682800D02*
X43904762Y78635181D01*
X43904762Y78635181D02*
X43809524Y78635181D01*
X45190476Y78635181D02*
X44619048Y78635181D01*
X44904762Y78635181D02*
X44904762Y79635181D01*
X44904762Y79635181D02*
X44809524Y79492324D01*
X44809524Y79492324D02*
X44714286Y79397086D01*
X44714286Y79397086D02*
X44619048Y79349467D01*
X45809524Y79635181D02*
X45904762Y79635181D01*
X45904762Y79635181D02*
X46000000Y79587562D01*
X46000000Y79587562D02*
X46047619Y79539943D01*
X46047619Y79539943D02*
X46095238Y79444705D01*
X46095238Y79444705D02*
X46142857Y79254229D01*
X46142857Y79254229D02*
X46142857Y79016134D01*
X46142857Y79016134D02*
X46095238Y78825658D01*
X46095238Y78825658D02*
X46047619Y78730420D01*
X46047619Y78730420D02*
X46000000Y78682800D01*
X46000000Y78682800D02*
X45904762Y78635181D01*
X45904762Y78635181D02*
X45809524Y78635181D01*
X45809524Y78635181D02*
X45714286Y78682800D01*
X45714286Y78682800D02*
X45666667Y78730420D01*
X45666667Y78730420D02*
X45619048Y78825658D01*
X45619048Y78825658D02*
X45571429Y79016134D01*
X45571429Y79016134D02*
X45571429Y79254229D01*
X45571429Y79254229D02*
X45619048Y79444705D01*
X45619048Y79444705D02*
X45666667Y79539943D01*
X45666667Y79539943D02*
X45714286Y79587562D01*
X45714286Y79587562D02*
X45809524Y79635181D01*
X30835180Y16261905D02*
X30025657Y16261905D01*
X30025657Y16261905D02*
X29930419Y16214286D01*
X29930419Y16214286D02*
X29882800Y16166667D01*
X29882800Y16166667D02*
X29835180Y16071429D01*
X29835180Y16071429D02*
X29835180Y15880953D01*
X29835180Y15880953D02*
X29882800Y15785715D01*
X29882800Y15785715D02*
X29930419Y15738096D01*
X29930419Y15738096D02*
X30025657Y15690477D01*
X30025657Y15690477D02*
X30835180Y15690477D01*
X30835180Y14738096D02*
X30835180Y15214286D01*
X30835180Y15214286D02*
X30358990Y15261905D01*
X30358990Y15261905D02*
X30406609Y15214286D01*
X30406609Y15214286D02*
X30454228Y15119048D01*
X30454228Y15119048D02*
X30454228Y14880953D01*
X30454228Y14880953D02*
X30406609Y14785715D01*
X30406609Y14785715D02*
X30358990Y14738096D01*
X30358990Y14738096D02*
X30263752Y14690477D01*
X30263752Y14690477D02*
X30025657Y14690477D01*
X30025657Y14690477D02*
X29930419Y14738096D01*
X29930419Y14738096D02*
X29882800Y14785715D01*
X29882800Y14785715D02*
X29835180Y14880953D01*
X29835180Y14880953D02*
X29835180Y15119048D01*
X29835180Y15119048D02*
X29882800Y15214286D01*
X29882800Y15214286D02*
X29930419Y15261905D01*
%TO.C,C11*%
D12*
X40360000Y58067836D02*
X40360000Y57852164D01*
X41080000Y58067836D02*
X41080000Y57852164D01*
%TO.C,J15*%
X33330000Y7150000D02*
X44230000Y7150000D01*
X33330000Y5430000D02*
X44230000Y5430000D01*
X33330000Y2330000D02*
X44230000Y2330000D01*
X33330000Y1330000D02*
X44230000Y1330000D01*
X33330000Y410000D02*
X33330000Y7150000D01*
X34670000Y410000D02*
X33330000Y410000D01*
X44230000Y7150000D02*
X44230000Y410000D01*
X44230000Y410000D02*
X35270000Y410000D01*
X34970000Y410000D02*
X35410000Y-200000D01*
X34530000Y-200000D01*
X34970000Y410000D01*
G36*
X35410000Y-200000D02*
G01*
X34530000Y-200000D01*
X34970000Y410000D01*
X35410000Y-200000D01*
G37*
%TO.C,C9*%
X20457500Y54464420D02*
X20457500Y54745580D01*
X21477500Y54464420D02*
X21477500Y54745580D01*
%TO.C,R28*%
X19955276Y38912500D02*
X20464724Y38912500D01*
X19955276Y37867500D02*
X20464724Y37867500D01*
%TO.C,Y2*%
X23230000Y30099758D02*
X23230000Y31770242D01*
X25050000Y30099758D02*
X25050000Y31770242D01*
%TO.C,D1*%
X43440000Y76182500D02*
X43490000Y76182500D01*
X43440000Y74662500D02*
X43440000Y76182500D01*
X44440000Y74662500D02*
X43440000Y74662500D01*
X44610000Y76182500D02*
X45390000Y76182500D01*
X46510000Y76182500D02*
X46560000Y76182500D01*
X46560000Y76182500D02*
X46560000Y74662500D01*
X46560000Y74662500D02*
X45560000Y74662500D01*
X45380000Y76722500D02*
X45050000Y76482500D01*
X45050000Y76962500D01*
X45380000Y76722500D01*
G36*
X45380000Y76722500D02*
G01*
X45050000Y76482500D01*
X45050000Y76962500D01*
X45380000Y76722500D01*
G37*
%TO.C,J5*%
X8215000Y71360000D02*
X8215000Y71930000D01*
X8215000Y68820000D02*
X8215000Y69840000D01*
X8215000Y66280000D02*
X8215000Y67300000D01*
X8215000Y63740000D02*
X8215000Y64760000D01*
X8215000Y61200000D02*
X8215000Y62220000D01*
X8215000Y58660000D02*
X8215000Y59680000D01*
X8215000Y57140000D02*
X6855000Y57140000D01*
X8215000Y56570000D02*
X8215000Y57140000D01*
X13415000Y71930000D02*
X8215000Y71930000D01*
X13415000Y71360000D02*
X13415000Y71930000D01*
X13415000Y68820000D02*
X13415000Y69840000D01*
X13415000Y66280000D02*
X13415000Y67300000D01*
X13415000Y63740000D02*
X13415000Y64760000D01*
X13415000Y61200000D02*
X13415000Y62220000D01*
X13415000Y58660000D02*
X13415000Y59680000D01*
X13415000Y56570000D02*
X8215000Y56570000D01*
X13415000Y56570000D02*
X13415000Y57140000D01*
%TO.C,R25*%
X19844724Y41802500D02*
X19335276Y41802500D01*
X19844724Y40757500D02*
X19335276Y40757500D01*
%TO.C,C2*%
X21320580Y30185000D02*
X21039420Y30185000D01*
X21320580Y29165000D02*
X21039420Y29165000D01*
%TO.C,C27*%
X21820580Y13050000D02*
X21539420Y13050000D01*
X21820580Y12030000D02*
X21539420Y12030000D01*
%TO.C,C25*%
X28775580Y21370000D02*
X28494420Y21370000D01*
X28775580Y20350000D02*
X28494420Y20350000D01*
%TO.C,C16*%
X8034420Y76770000D02*
X8315580Y76770000D01*
X8034420Y75750000D02*
X8315580Y75750000D01*
%TO.C,C19*%
X8404420Y38115000D02*
X8685580Y38115000D01*
X8404420Y37095000D02*
X8685580Y37095000D01*
%TO.C,U3*%
D13*
X25860000Y33298500D02*
X26571500Y33298500D01*
X25860000Y27921500D02*
X26571500Y27921500D01*
X29660000Y33298500D02*
X28948500Y33298500D01*
X29660000Y27921500D02*
X28948500Y27921500D01*
D14*
X25410000Y28360000D02*
G75*
G02*
X25310000Y28360000I-50000J0D01*
G01*
X25310000Y28360000D02*
G75*
G02*
X25410000Y28360000I50000J0D01*
G01*
%TO.C,R42*%
D12*
X18427776Y34572500D02*
X18937224Y34572500D01*
X18427776Y33527500D02*
X18937224Y33527500D01*
%TO.C,J13*%
X11780000Y83785000D02*
X11780000Y81285000D01*
X11780000Y81285000D02*
X12830000Y81285000D01*
X16830000Y85755000D02*
X12950000Y85755000D01*
X16950000Y81285000D02*
X16950000Y80295000D01*
X18000000Y83785000D02*
X18000000Y81285000D01*
X18000000Y81285000D02*
X16950000Y81285000D01*
%TO.C,R34*%
X23407500Y59202776D02*
X23407500Y59712224D01*
X24452500Y59202776D02*
X24452500Y59712224D01*
%TO.C,C14*%
X40319420Y26380000D02*
X40600580Y26380000D01*
X40319420Y25360000D02*
X40600580Y25360000D01*
%TO.C,R27*%
X8290276Y36127500D02*
X8799724Y36127500D01*
X8290276Y35082500D02*
X8799724Y35082500D01*
%TO.C,D8*%
X17195000Y80535000D02*
X17195000Y79065000D01*
X17195000Y79065000D02*
X19480000Y79065000D01*
X19480000Y80535000D02*
X17195000Y80535000D01*
%TO.C,R38*%
X14137500Y76897776D02*
X14137500Y77407224D01*
X15182500Y76897776D02*
X15182500Y77407224D01*
%TO.C,R23*%
X20464724Y37332500D02*
X19955276Y37332500D01*
X20464724Y36287500D02*
X19955276Y36287500D01*
%TO.C,R45*%
X25452500Y22435276D02*
X25452500Y22944724D01*
X26497500Y22435276D02*
X26497500Y22944724D01*
%TO.C,R32*%
X29487500Y59177776D02*
X29487500Y59687224D01*
X30532500Y59177776D02*
X30532500Y59687224D01*
%TO.C,C4*%
X25465000Y26083080D02*
X25465000Y25801920D01*
X26485000Y26083080D02*
X26485000Y25801920D01*
%TO.C,D2*%
X35355000Y64905000D02*
X35355000Y62445000D01*
X36825000Y64905000D02*
X35355000Y64905000D01*
X36825000Y62445000D02*
X36825000Y64905000D01*
%TO.C,U4*%
D10*
X16900000Y45290001D02*
X17600001Y45990002D01*
X16900000Y42890003D02*
X16900000Y45290001D01*
X16900000Y42890003D02*
X18799999Y42890003D01*
X17600001Y45990002D02*
X18799999Y45990002D01*
X18799999Y42890003D02*
X18799999Y45990002D01*
%TO.C,R4*%
D12*
X8290276Y32127500D02*
X8799724Y32127500D01*
X8290276Y31082500D02*
X8799724Y31082500D01*
%TO.C,C20*%
X19315579Y47725002D02*
X19034419Y47725002D01*
X19315579Y46705002D02*
X19034419Y46705002D01*
%TO.C,U8*%
X12485000Y40165000D02*
X16605000Y40165000D01*
X12485000Y40070000D02*
X12485000Y40165000D01*
X12485000Y35045000D02*
X12485000Y35140000D01*
X16605000Y40165000D02*
X16605000Y40070000D01*
X16605000Y35140000D02*
X16605000Y35045000D01*
X16605000Y35045000D02*
X12485000Y35045000D01*
X11945000Y40075000D02*
X11705000Y40405000D01*
X12185000Y40405000D01*
X11945000Y40075000D01*
G36*
X11945000Y40075000D02*
G01*
X11705000Y40405000D01*
X12185000Y40405000D01*
X11945000Y40075000D01*
G37*
%TO.C,D3*%
X32315000Y64905000D02*
X32315000Y62445000D01*
X33785000Y64905000D02*
X32315000Y64905000D01*
X33785000Y62445000D02*
X33785000Y64905000D01*
%TO.C,R47*%
X40192776Y27982500D02*
X40702224Y27982500D01*
X40192776Y26937500D02*
X40702224Y26937500D01*
%TO.C,U2*%
X13160000Y32525000D02*
X13660000Y32525000D01*
X13160000Y32025000D02*
X13160000Y32525000D01*
X13160000Y29525000D02*
X13160000Y30275000D01*
X17860000Y32525000D02*
X18360000Y32525000D01*
X18360000Y32525000D02*
X18360000Y32025000D01*
X18360000Y29725000D02*
X18360000Y29225000D01*
X18360000Y29225000D02*
X17860000Y29225000D01*
X13160000Y29325000D02*
X13160000Y28965000D01*
X12800000Y29325000D01*
X13160000Y29325000D01*
G36*
X13160000Y28965000D02*
G01*
X12800000Y29325000D01*
X13160000Y29325000D01*
X13160000Y28965000D01*
G37*
%TO.C,D5*%
X26235000Y64905000D02*
X26235000Y62445000D01*
X27705000Y64905000D02*
X26235000Y64905000D01*
X27705000Y62445000D02*
X27705000Y64905000D01*
%TO.C,U7*%
D10*
X13457498Y54145003D02*
X13457498Y53985003D01*
X13457498Y50904999D02*
X13457498Y50744999D01*
X13617498Y54145003D02*
X13457498Y54145003D01*
X13617498Y50744999D02*
X13457498Y50744999D01*
X16857499Y50904999D02*
X16857499Y50744999D01*
X16857499Y50744999D02*
X16307500Y50744999D01*
X16857502Y54145003D02*
X16697502Y54145003D01*
X16857502Y54145003D02*
X16857502Y53985003D01*
%TO.C,R5*%
D12*
X8290276Y30127500D02*
X8799724Y30127500D01*
X8290276Y29082500D02*
X8799724Y29082500D01*
%TO.C,R11*%
X26842224Y9082500D02*
X26332776Y9082500D01*
X26842224Y8037500D02*
X26332776Y8037500D01*
%TO.C,R10*%
X28417776Y34865000D02*
X28927224Y34865000D01*
X28417776Y33820000D02*
X28927224Y33820000D01*
%TO.C,R39*%
X15590000Y12717064D02*
X15590000Y11262936D01*
X17410000Y12717064D02*
X17410000Y11262936D01*
%TO.C,R43*%
X29607500Y17525276D02*
X29607500Y18034724D01*
X30652500Y17525276D02*
X30652500Y18034724D01*
%TO.C,R46*%
X46817500Y38282224D02*
X46817500Y37772776D01*
X47862500Y38282224D02*
X47862500Y37772776D01*
%TO.C,C1*%
X13340000Y26715580D02*
X13340000Y26434420D01*
X14360000Y26715580D02*
X14360000Y26434420D01*
%TO.C,JP5*%
X42630000Y57535000D02*
X44630000Y57535000D01*
X42630000Y54735000D02*
X42630000Y57535000D01*
X44630000Y57535000D02*
X44630000Y54735000D01*
X44630000Y54735000D02*
X42630000Y54735000D01*
%TO.C,C7*%
X47210000Y29044420D02*
X47210000Y29325580D01*
X48230000Y29044420D02*
X48230000Y29325580D01*
%TO.C,R8*%
X28987500Y25687776D02*
X28987500Y26197224D01*
X30032500Y25687776D02*
X30032500Y26197224D01*
%TO.C,Q2*%
X21440000Y10380000D02*
X21490000Y10380000D01*
X21440000Y8860000D02*
X21440000Y10380000D01*
X22440000Y8860000D02*
X21440000Y8860000D01*
X22610000Y10380000D02*
X23390000Y10380000D01*
X24510000Y10380000D02*
X24560000Y10380000D01*
X24560000Y10380000D02*
X24560000Y8860000D01*
X24560000Y8860000D02*
X23560000Y8860000D01*
X23380000Y10920000D02*
X23050000Y10680000D01*
X23050000Y11160000D01*
X23380000Y10920000D01*
G36*
X23380000Y10920000D02*
G01*
X23050000Y10680000D01*
X23050000Y11160000D01*
X23380000Y10920000D01*
G37*
%TO.C,J3*%
X41715000Y23940000D02*
X41715000Y24510000D01*
X41715000Y21400000D02*
X41715000Y22420000D01*
X41715000Y18860000D02*
X41715000Y19880000D01*
X41715000Y16320000D02*
X41715000Y17340000D01*
X41715000Y13780000D02*
X41715000Y14800000D01*
X41715000Y11240000D02*
X41715000Y12260000D01*
X41715000Y9720000D02*
X40355000Y9720000D01*
X41715000Y9150000D02*
X41715000Y9720000D01*
X46915000Y24510000D02*
X41715000Y24510000D01*
X46915000Y23940000D02*
X46915000Y24510000D01*
X46915000Y21400000D02*
X46915000Y22420000D01*
X46915000Y18860000D02*
X46915000Y19880000D01*
X46915000Y16320000D02*
X46915000Y17340000D01*
X46915000Y13780000D02*
X46915000Y14800000D01*
X46915000Y11240000D02*
X46915000Y12260000D01*
X46915000Y9150000D02*
X41715000Y9150000D01*
X46915000Y9150000D02*
X46915000Y9720000D01*
%TO.C,R16*%
X30327500Y52507776D02*
X30327500Y53017224D01*
X31372500Y52507776D02*
X31372500Y53017224D01*
%TO.C,C17*%
X9300580Y8380000D02*
X9019420Y8380000D01*
X9300580Y7360000D02*
X9019420Y7360000D01*
%TO.C,R14*%
X9347500Y53952224D02*
X9347500Y53442776D01*
X10392500Y53952224D02*
X10392500Y53442776D01*
%TO.C,C3*%
X21310580Y33020000D02*
X21029420Y33020000D01*
X21310580Y32000000D02*
X21029420Y32000000D01*
%TO.C,C8*%
X18407500Y54745580D02*
X18407500Y54464420D01*
X19427500Y54745580D02*
X19427500Y54464420D01*
%TO.C,R9*%
X28934724Y36372500D02*
X28425276Y36372500D01*
X28934724Y35327500D02*
X28425276Y35327500D01*
%TO.C,C5*%
X27000000Y26083080D02*
X27000000Y25801920D01*
X28020000Y26083080D02*
X28020000Y25801920D01*
%TO.C,BZ1*%
X15800000Y28150000D02*
X18000000Y28150000D01*
X15800000Y18950000D02*
X15800000Y28150000D01*
X15800000Y18950000D02*
X18000000Y18950000D01*
X18000000Y18950000D02*
X18000000Y18550000D01*
X22800000Y28150000D02*
X25000000Y28150000D01*
X22800000Y18950000D02*
X25000000Y18950000D01*
X25000000Y28150000D02*
X25000000Y18950000D01*
%TO.C,D9*%
X9687500Y79065000D02*
X11972500Y79065000D01*
X11972500Y80535000D02*
X9687500Y80535000D01*
X11972500Y79065000D02*
X11972500Y80535000D01*
%TO.C,Q1*%
X32690000Y26670000D02*
X34210000Y26670000D01*
X32690000Y25670000D02*
X32690000Y26670000D01*
X32690000Y23550000D02*
X32690000Y24550000D01*
X34210000Y26670000D02*
X34210000Y26620000D01*
X34210000Y25500000D02*
X34210000Y24720000D01*
X34210000Y23600000D02*
X34210000Y23550000D01*
X34210000Y23550000D02*
X32690000Y23550000D01*
X34750000Y24730000D02*
X34510000Y25060000D01*
X34990000Y25060000D01*
X34750000Y24730000D01*
G36*
X34750000Y24730000D02*
G01*
X34510000Y25060000D01*
X34990000Y25060000D01*
X34750000Y24730000D01*
G37*
%TO.C,C18*%
X15990000Y16086920D02*
X15990000Y16368080D01*
X17010000Y16086920D02*
X17010000Y16368080D01*
%TO.C,R7*%
X11054724Y47487500D02*
X10545276Y47487500D01*
X11054724Y46442500D02*
X10545276Y46442500D01*
%TO.C,C28*%
X21094420Y18060000D02*
X21375580Y18060000D01*
X21094420Y17040000D02*
X21375580Y17040000D01*
%TO.C,R30*%
X35567500Y59202776D02*
X35567500Y59712224D01*
X36612500Y59202776D02*
X36612500Y59712224D01*
%TO.C,R17*%
X28327500Y53017224D02*
X28327500Y52507776D01*
X29372500Y53017224D02*
X29372500Y52507776D01*
%TO.C,R19*%
X34397500Y9373324D02*
X34397500Y8863876D01*
X35442500Y9373324D02*
X35442500Y8863876D01*
%TO.C,R29*%
X26842224Y11082500D02*
X26332776Y11082500D01*
X26842224Y10037500D02*
X26332776Y10037500D01*
%TO.C,R15*%
X11347500Y53952224D02*
X11347500Y53442776D01*
X12392500Y53952224D02*
X12392500Y53442776D01*
%TO.C,D6*%
X23195000Y64905000D02*
X23195000Y62445000D01*
X24665000Y64905000D02*
X23195000Y64905000D01*
X24665000Y62445000D02*
X24665000Y64905000D01*
%TO.C,R44*%
X29567500Y13484724D02*
X29567500Y12975276D01*
X30612500Y13484724D02*
X30612500Y12975276D01*
%TO.C,U6*%
D13*
X32370000Y44290000D02*
X32370000Y51270000D01*
X42770000Y44290000D02*
X42770000Y51270000D01*
D10*
X33120000Y41030000D02*
G75*
G02*
X32920000Y41030000I-100000J0D01*
G01*
X32920000Y41030000D02*
G75*
G02*
X33120000Y41030000I100000J0D01*
G01*
%TO.C,U1*%
D12*
X46260000Y30110000D02*
X43460000Y30110000D01*
X46260000Y26710000D02*
X43260000Y26710000D01*
X43160000Y29810000D02*
X42880000Y29810000D01*
X43160000Y30090000D01*
X43160000Y29810000D01*
G36*
X43160000Y29810000D02*
G01*
X42880000Y29810000D01*
X43160000Y30090000D01*
X43160000Y29810000D01*
G37*
%TO.C,R24*%
X16362224Y41802500D02*
X15852776Y41802500D01*
X16362224Y40757500D02*
X15852776Y40757500D01*
%TO.C,R6*%
X10545276Y43487500D02*
X11054724Y43487500D01*
X10545276Y42442500D02*
X11054724Y42442500D01*
%TO.C,R18*%
X26327500Y52507776D02*
X26327500Y53017224D01*
X27372500Y52507776D02*
X27372500Y53017224D01*
%TO.C,C23*%
X8685580Y34115000D02*
X8404420Y34115000D01*
X8685580Y33095000D02*
X8404420Y33095000D01*
%TO.C,C22*%
X20080580Y51440000D02*
X19799420Y51440000D01*
X20080580Y50420000D02*
X19799420Y50420000D01*
%TO.C,C26*%
X28780580Y22850000D02*
X28499420Y22850000D01*
X28780580Y21830000D02*
X28499420Y21830000D01*
%TO.C,C6*%
X31956920Y30370000D02*
X32238080Y30370000D01*
X31956920Y29350000D02*
X32238080Y29350000D01*
%TO.C,C12*%
X13350000Y46520580D02*
X13350000Y46239420D01*
X14370000Y46520580D02*
X14370000Y46239420D01*
%TO.C,R41*%
X8290276Y28127500D02*
X8799724Y28127500D01*
X8290276Y27082500D02*
X8799724Y27082500D01*
%TO.C,R31*%
X32527500Y59177776D02*
X32527500Y59687224D01*
X33572500Y59177776D02*
X33572500Y59687224D01*
%TO.C,R20*%
X20687500Y15424724D02*
X20687500Y14915276D01*
X21732500Y15424724D02*
X21732500Y14915276D01*
%TO.C,R35*%
X15937500Y77407224D02*
X15937500Y76897776D01*
X16982500Y77407224D02*
X16982500Y76897776D01*
%TO.C,R26*%
X8290276Y40127500D02*
X8799724Y40127500D01*
X8290276Y39082500D02*
X8799724Y39082500D01*
%TO.C,R40*%
X17940000Y12727064D02*
X17940000Y11272936D01*
X19760000Y12727064D02*
X19760000Y11272936D01*
%TO.C,C13*%
X17990000Y16086920D02*
X17990000Y16368080D01*
X19010000Y16086920D02*
X19010000Y16368080D01*
%TO.C,R22*%
X31745276Y9022500D02*
X32254724Y9022500D01*
X31745276Y7977500D02*
X32254724Y7977500D01*
%TO.C,C10*%
X43380000Y46940580D02*
X43380000Y46659420D01*
X44400000Y46940580D02*
X44400000Y46659420D01*
%TO.C,R37*%
X12337500Y76897776D02*
X12337500Y77407224D01*
X13382500Y76897776D02*
X13382500Y77407224D01*
%TO.C,J4*%
X8215000Y23940000D02*
X8215000Y24510000D01*
X8215000Y21400000D02*
X8215000Y22420000D01*
X8215000Y18860000D02*
X8215000Y19880000D01*
X8215000Y16320000D02*
X8215000Y17340000D01*
X8215000Y13780000D02*
X8215000Y14800000D01*
X8215000Y11240000D02*
X8215000Y12260000D01*
X8215000Y9720000D02*
X6855000Y9720000D01*
X8215000Y9150000D02*
X8215000Y9720000D01*
X13415000Y24510000D02*
X8215000Y24510000D01*
X13415000Y23940000D02*
X13415000Y24510000D01*
X13415000Y21400000D02*
X13415000Y22420000D01*
X13415000Y18860000D02*
X13415000Y19880000D01*
X13415000Y16320000D02*
X13415000Y17340000D01*
X13415000Y13780000D02*
X13415000Y14800000D01*
X13415000Y11240000D02*
X13415000Y12260000D01*
X13415000Y9150000D02*
X8215000Y9150000D01*
X13415000Y9150000D02*
X13415000Y9720000D01*
%TO.C,R33*%
X26447500Y59177776D02*
X26447500Y59687224D01*
X27492500Y59177776D02*
X27492500Y59687224D01*
%TO.C,C21*%
X23299420Y38120000D02*
X23580580Y38120000D01*
X23299420Y37100000D02*
X23580580Y37100000D01*
%TO.C,D4*%
X29275000Y64905000D02*
X29275000Y62445000D01*
X30745000Y64905000D02*
X29275000Y64905000D01*
X30745000Y62445000D02*
X30745000Y64905000D01*
%TO.C,J6*%
X39220000Y63700000D02*
X40020000Y63700000D01*
X39220000Y63500000D02*
X39220000Y63700000D01*
X39220000Y60700000D02*
X39220000Y60900000D01*
X40020000Y63700000D02*
X40020000Y64200000D01*
X40020000Y60700000D02*
X39220000Y60700000D01*
X41420000Y63700000D02*
X41420000Y64200000D01*
X41420000Y63700000D02*
X42020000Y63700000D01*
X42020000Y63700000D02*
X42220000Y63500000D01*
X42220000Y60900000D02*
X42220000Y60700000D01*
X42220000Y60700000D02*
X41420000Y60700000D01*
%TO.C,J7*%
X19670000Y7150000D02*
X30570000Y7150000D01*
X19670000Y5430000D02*
X30570000Y5430000D01*
X19670000Y2330000D02*
X30570000Y2330000D01*
X19670000Y1330000D02*
X30570000Y1330000D01*
X19670000Y410000D02*
X19670000Y7150000D01*
X21010000Y410000D02*
X19670000Y410000D01*
X30570000Y7150000D02*
X30570000Y410000D01*
X30570000Y410000D02*
X21610000Y410000D01*
X21310000Y410000D02*
X21750000Y-200000D01*
X20870000Y-200000D01*
X21310000Y410000D01*
G36*
X21750000Y-200000D02*
G01*
X20870000Y-200000D01*
X21310000Y410000D01*
X21750000Y-200000D01*
G37*
%TO.C,R21*%
X29007500Y9217776D02*
X29007500Y9727224D01*
X30052500Y9217776D02*
X30052500Y9727224D01*
%TO.C,R36*%
X10537500Y77407224D02*
X10537500Y76897776D01*
X11582500Y77407224D02*
X11582500Y76897776D01*
%TO.C,J10*%
X41890000Y83785000D02*
X41890000Y81285000D01*
X41890000Y81285000D02*
X42940000Y81285000D01*
X46940000Y85755000D02*
X43060000Y85755000D01*
X47060000Y81285000D02*
X47060000Y80295000D01*
X48110000Y83785000D02*
X48110000Y81285000D01*
X48110000Y81285000D02*
X47060000Y81285000D01*
%TO.C,U5*%
D15*
X23434900Y18205100D02*
X23434900Y17485140D01*
X23434900Y13514860D02*
X23434900Y12794900D01*
X23434900Y12794900D02*
X24154860Y12794900D01*
X24154860Y18205100D02*
X23434900Y18205100D01*
X28125140Y12794900D02*
X28845100Y12794900D01*
X28845100Y18205100D02*
X28125140Y18205100D01*
X28845100Y17485140D02*
X28845100Y18205100D01*
X28845100Y12794900D02*
X28845100Y13514860D01*
%TO.C,C15*%
D12*
X8034420Y74770000D02*
X8315580Y74770000D01*
X8034420Y73750000D02*
X8315580Y73750000D01*
%TO.C,D7*%
X17725000Y77952500D02*
X17725000Y75667500D01*
X17725000Y75667500D02*
X19195000Y75667500D01*
X19195000Y75667500D02*
X19195000Y77952500D01*
%TD*%
M02*
