M48
; DRILL file KiCad 10.0.3 date 2026-06-17T19:44:50
; FORMAT={-:-/ absolute / inch / decimal}
; #@! TF.CreationDate,2026-06-17T19:44:50-04:00
; #@! TF.GenerationSoftware,Kicad,Pcbnew,10.0.3
; #@! TF.FileFunction,Plated,1,4,PTH
FMAT,2
INCH
; #@! TA.AperFunction,Plated,PTH,ViaDrill
T1C0.0079
; #@! TA.AperFunction,Plated,PTH,ComponentDrill
T2C0.0080
; #@! TA.AperFunction,Plated,PTH,ViaDrill
T3C0.0098
; #@! TA.AperFunction,Plated,PTH,ViaDrill
T4C0.0118
; #@! TA.AperFunction,Plated,PTH,ViaDrill
T5C0.0197
; #@! TA.AperFunction,Plated,PTH,ViaDrill
T6C0.0276
; #@! TA.AperFunction,Plated,PTH,ComponentDrill
T7C0.0394
; #@! TA.AperFunction,Plated,PTH,ComponentDrill
T8C0.0472
%
G90
G05
T1
X1.5661Y2.385
X1.5709Y2.2992
X1.5709Y2.2677
X1.5748Y2.3268
X1.5748Y2.2362
X1.5772Y2.1175
X1.5795Y2.3535
X1.5795Y2.2087
X1.5795Y2.1819
X1.5795Y2.1504
X1.626Y2.3307
X1.6268Y2.3535
X1.6268Y2.2087
X1.6268Y2.1819
X1.6268Y2.1504
X1.627Y2.1188
X1.6299Y2.2362
X1.6339Y2.2677
X1.6402Y2.385
T2
X0.5741Y2.0648
X0.5968Y2.1022
X0.5968Y2.0274
X0.6194Y2.0648
T3
X0.4252Y0.4646
X0.6614Y0.4646
X0.7421Y0.4646
X1.252Y0.7008
X1.265Y0.5707
X1.3585Y0.4809
T4
X0.0709Y3.1811
X0.0709Y3.063
X0.0709Y2.9449
X0.0709Y2.7087
X0.0709Y0.3465
X0.0709Y0.2283
X0.189Y3.2992
X0.189Y3.1811
X0.189Y3.063
X0.189Y2.9449
X0.189Y2.7087
X0.189Y0.3465
X0.189Y0.1102
X0.2528Y1.4807
X0.2807Y1.9224
X0.2913Y2.9689
X0.3071Y3.2992
X0.3071Y3.1811
X0.3071Y3.063
X0.3071Y2.8268
X0.3071Y2.2362
X0.3071Y2.0
X0.3071Y1.7638
X0.3071Y1.6457
X0.3071Y0.1102
X0.3094Y2.3295
X0.3133Y2.1967
X0.3173Y2.1496
X0.387Y3.0748
X0.4118Y1.4555
X0.4252Y3.2992
X0.4252Y2.9449
X0.4252Y2.8268
X0.4252Y2.5906
X0.4252Y2.4724
X0.4252Y1.8819
X0.4252Y1.7638
X0.4252Y1.6457
X0.4252Y1.2913
X0.4252Y0.937
X0.4252Y0.8189
X0.4252Y0.3465
X0.4252Y0.1102
X0.4283Y2.1953
X0.4307Y0.9791
X0.4308Y1.8075
X0.4331Y1.9882
X0.4606Y1.6417
X0.4676Y1.8874
X0.4776Y0.9815
X0.4941Y1.7368
X0.4952Y1.8149
X0.509Y2.1734
X0.5122Y2.0051
X0.5433Y3.2992
X0.5433Y2.8268
X0.5433Y0.3465
X0.5467Y1.1138
X0.5969Y1.2937
X0.6161Y2.7795
X0.6161Y2.7295
X0.6161Y2.6795
X0.6161Y2.5795
X0.6161Y2.4795
X0.6161Y2.3795
X0.6161Y2.3295
X0.6161Y2.2795
X0.6161Y2.2295
X0.6177Y2.1736
X0.6406Y1.9994
X0.6614Y2.9449
X0.6614Y1.8819
X0.6614Y1.0551
X0.6614Y0.937
X0.6614Y0.8189
X0.6884Y3.0768
X0.6898Y0.6694
X0.7456Y2.0778
X0.7531Y1.3917
X0.7531Y1.226
X0.7717Y0.6969
X0.7795Y3.2992
X0.7795Y3.063
X0.7795Y2.9449
X0.7795Y2.8268
X0.7795Y2.7087
X0.7795Y2.5906
X0.7795Y2.4724
X0.7795Y0.937
X0.7831Y1.935
X0.8331Y1.9469
X0.8331Y1.8287
X0.835Y0.6012
X0.8528Y1.6252
X0.8681Y0.0575
X0.8713Y1.3917
X0.8713Y1.226
X0.8735Y0.608
X0.8831Y0.6339
X0.8831Y0.5394
X0.8858Y0.5834
X0.8917Y0.66
X0.8976Y2.4724
X0.8976Y2.3543
X0.8976Y1.7638
X0.8976Y1.6457
X0.8976Y0.937
X0.9055Y0.4535
X0.9067Y1.685
X0.9213Y1.0994
X0.9421Y2.237
X0.9622Y1.052
X0.9681Y0.9898
X0.9781Y0.475
X0.9846Y1.3465
X0.9862Y0.0575
X0.9898Y0.6496
X0.9898Y0.6102
X0.9898Y0.5709
X0.9909Y2.1138
X0.9909Y1.4807
X1.0157Y2.4724
X1.0157Y2.3543
X1.0157Y2.2362
X1.0157Y1.7638
X1.0157Y1.6457
X1.0157Y1.5276
X1.0268Y1.4465
X1.0291Y0.6496
X1.0291Y0.6102
X1.0291Y0.5709
X1.0291Y0.472
X1.0319Y1.3441
X1.0571Y1.9969
X1.0618Y2.237
X1.063Y0.7598
X1.0654Y0.4755
X1.0685Y0.6496
X1.0685Y0.6102
X1.0685Y0.5709
X1.0929Y1.2051
X1.098Y0.7606
X1.1043Y0.0575
X1.1236Y0.6882
X1.1236Y0.5331
X1.1339Y2.4724
X1.1339Y2.3543
X1.1339Y2.2362
X1.1339Y1.6457
X1.1339Y1.5276
X1.1358Y1.9957
X1.1626Y0.3031
X1.1665Y0.2531
X1.1815Y2.237
X1.2004Y0.2839
X1.2047Y1.1165
X1.2051Y0.9854
X1.2118Y1.4114
X1.2146Y1.9957
X1.2161Y1.3516
X1.2272Y0.7984
X1.2295Y1.6205
X1.2335Y0.4295
X1.2483Y1.4408
X1.252Y2.4724
X1.252Y2.3543
X1.252Y1.8819
X1.261Y1.6205
X1.3012Y2.237
X1.3185Y0.2839
X1.3264Y0.2291
X1.3701Y2.4724
X1.3701Y2.3543
X1.3701Y2.2362
X1.3701Y1.5276
X1.3701Y1.4366
X1.3701Y1.2913
X1.3969Y1.0681
X1.4051Y0.0575
X1.4209Y2.237
X1.4406Y1.1323
X1.4732Y1.7783
X1.4882Y2.4724
X1.4882Y2.3543
X1.4882Y2.2362
X1.4882Y1.8819
X1.4882Y1.5276
X1.4882Y1.4366
X1.4882Y1.2913
X1.4882Y0.937
X1.4882Y0.7008
X1.4882Y0.5303
X1.5201Y1.9917
X1.5232Y0.0575
X1.5565Y1.1242
X1.6063Y3.2992
X1.6063Y3.1811
X1.6063Y3.063
X1.6063Y2.9449
X1.6063Y2.8268
X1.6063Y2.7087
X1.6063Y2.5906
X1.6063Y2.0
X1.6063Y1.8819
X1.6063Y1.4366
X1.6063Y1.2913
X1.6063Y0.4646
X1.6063Y0.3465
X1.6413Y0.0575
X1.6469Y1.7807
X1.6846Y1.8103
X1.7075Y1.1972
X1.7244Y3.2992
X1.7244Y3.063
X1.7244Y2.7087
X1.7244Y2.5906
X1.7244Y2.4724
X1.7244Y2.3543
X1.7244Y1.4094
X1.7244Y1.2913
X1.7244Y0.4646
X1.7244Y0.3465
X1.7447Y0.9976
X1.7447Y0.7614
X1.7447Y0.6433
X1.7453Y0.5429
X1.7717Y2.9902
X1.7858Y2.3516
X1.7858Y2.2335
X1.7858Y2.1154
X1.7858Y1.9961
X1.7858Y1.878
X1.8185Y1.1976
X1.8425Y3.063
X1.8425Y2.9449
X1.8425Y2.8268
X1.8425Y1.2913
X1.8425Y0.4646
X1.8425Y0.3465
X1.8787Y1.0858
X1.9606Y3.2992
X1.9606Y3.1811
X1.9606Y3.063
X1.9606Y2.9449
X1.9606Y2.7087
X1.9606Y0.3465
X2.0787Y3.1811
X2.0787Y3.063
X2.0787Y2.9449
X2.0787Y2.7087
X2.0787Y0.3465
X2.0787Y0.2283
T5
X0.4252Y0.7142
X0.4252Y0.6142
X0.4252Y0.5142
X0.4252Y0.4142
T6
X0.7747Y0.6268
X1.548Y0.6126
T7
X0.074Y2.6299
X0.074Y2.5299
X0.074Y2.4299
X0.074Y2.3299
X0.074Y2.2299
X0.074Y2.1299
X0.074Y2.0299
X0.074Y1.9299
X0.074Y1.8299
X0.074Y1.7299
X0.074Y1.6299
X0.074Y1.5299
X0.074Y1.4299
X0.074Y1.3299
X0.074Y1.2299
X0.074Y1.1299
X0.074Y1.0299
X0.074Y0.9299
X0.074Y0.8299
X0.074Y0.7299
X0.074Y0.6299
X0.074Y0.5299
X0.074Y0.4299
X0.174Y2.6299
X0.174Y2.5299
X0.174Y2.4299
X0.174Y2.3299
X0.174Y2.2299
X0.174Y2.1299
X0.174Y2.0299
X0.174Y1.9299
X0.174Y1.8299
X0.174Y1.7299
X0.174Y1.6299
X0.174Y1.5299
X0.174Y1.4299
X0.174Y1.3299
X0.174Y1.2299
X0.174Y1.1299
X0.174Y1.0299
X0.174Y0.9299
X0.174Y0.8299
X0.174Y0.7299
X0.174Y0.6299
X0.174Y0.5299
X0.174Y0.4299
X1.9756Y2.6299
X1.9756Y2.5299
X1.9756Y2.4299
X1.9756Y2.3299
X1.9756Y2.2299
X1.9756Y2.1299
X1.9756Y2.0299
X1.9756Y1.9299
X1.9756Y1.8299
X1.9756Y1.7299
X1.9756Y1.6299
X1.9756Y1.5299
X1.9756Y1.4299
X1.9756Y1.3299
X1.9756Y1.2299
X1.9756Y1.1299
X1.9756Y1.0299
X1.9756Y0.9299
X1.9756Y0.8299
X1.9756Y0.7299
X1.9756Y0.6299
X1.9756Y0.5299
X1.9756Y0.4299
X2.0756Y2.6299
X2.0756Y2.5299
X2.0756Y2.4299
X2.0756Y2.3299
X2.0756Y2.2299
X2.0756Y2.1299
X2.0756Y2.0299
X2.0756Y1.9299
X2.0756Y1.8299
X2.0756Y1.7299
X2.0756Y1.6299
X2.0756Y1.5299
X2.0756Y1.4299
X2.0756Y1.3299
X2.0756Y1.2299
X2.0756Y1.1299
X2.0756Y1.0299
X2.0756Y0.9299
X2.0756Y0.8299
X2.0756Y0.7299
X2.0756Y0.6299
X2.0756Y0.5299
X2.0756Y0.4299
T8
X0.5138Y0.1547
X0.6138Y0.1547
X0.839Y0.1547
X0.939Y0.1547
X1.039Y0.1547
X1.139Y0.1547
X1.3768Y0.1547
X1.4768Y0.1547
X1.5768Y0.1547
X1.6768Y0.1547
M30
