%TF.GenerationSoftware,KiCad,Pcbnew,10.0.3*%
%TF.CreationDate,2026-06-17T19:44:49-04:00*%
%TF.ProjectId,Ion-0,496f6e2d-302e-46b6-9963-61645f706362,V0.5*%
%TF.SameCoordinates,Original*%
%TF.FileFunction,Legend,Bot*%
%TF.FilePolarity,Positive*%
%FSLAX46Y46*%
G04 Gerber Fmt 4.6, Leading zero omitted, Abs format (unit mm)*
G04 Created by KiCad (PCBNEW 10.0.3) date 2026-06-17 19:44:49*
%MOMM*%
%LPD*%
G01*
G04 APERTURE LIST*
%ADD10C,0.200000*%
%ADD11C,0.150000*%
%ADD12C,0.120000*%
%ADD13C,0.100000*%
%ADD14C,0.000000*%
G04 APERTURE END LIST*
D10*
G36*
X46851932Y27015000D02*
G01*
X46561167Y27015000D01*
X46483790Y27242830D01*
X46068968Y27242830D01*
X45991592Y27015000D01*
X45693237Y27015000D01*
X45852190Y27444868D01*
X46138889Y27444868D01*
X46413870Y27444868D01*
X46276379Y27846257D01*
X46138889Y27444868D01*
X45852190Y27444868D01*
X46106515Y28132656D01*
X46438654Y28132656D01*
X46851932Y27015000D01*
G37*
G36*
X44706356Y27015000D02*
G01*
X44976904Y27015000D01*
X44976904Y27105810D01*
X45051706Y27053720D01*
X45114461Y27018896D01*
X45157004Y27002882D01*
X45206183Y26992775D01*
X45263169Y26989208D01*
X45332552Y26994827D01*
X45390218Y27010594D01*
X45438331Y27035548D01*
X45478505Y27069674D01*
X45509808Y27111746D01*
X45533320Y27163881D01*
X45548508Y27228235D01*
X45554001Y27307512D01*
X45554001Y27857541D01*
X45281975Y27857541D01*
X45281975Y27438621D01*
X45277878Y27332162D01*
X45270614Y27291954D01*
X45258668Y27261838D01*
X45240788Y27237810D01*
X45215480Y27221203D01*
X45183433Y27212064D01*
X45134678Y27208441D01*
X45099470Y27211435D01*
X45058108Y27221203D01*
X45016996Y27236907D01*
X44976904Y27258816D01*
X44976904Y27857541D01*
X44706356Y27857541D01*
X44706356Y27015000D01*
G37*
G36*
X43911504Y27021986D02*
G01*
X44003926Y27004254D01*
X44123415Y26997806D01*
X44203980Y27002608D01*
X44268055Y27015714D01*
X44318640Y27035619D01*
X44358230Y27061480D01*
X44389755Y27095793D01*
X44413679Y27141476D01*
X44429443Y27201421D01*
X44435271Y27279436D01*
X44435271Y27672698D01*
X44546499Y27672698D01*
X44546499Y27857541D01*
X44435271Y27857541D01*
X44435271Y28098266D01*
X44164790Y28098266D01*
X44164790Y27857541D01*
X43911504Y27857541D01*
X43911504Y27672698D01*
X44164790Y27672698D01*
X44164790Y27375350D01*
X44164051Y27298444D01*
X44160570Y27266745D01*
X44152028Y27239405D01*
X44137658Y27216210D01*
X44114818Y27197963D01*
X44084640Y27187012D01*
X44037039Y27182649D01*
X43981761Y27191716D01*
X43934072Y27208441D01*
X43911504Y27208441D01*
X43911504Y27021986D01*
G37*
G36*
X42902793Y27015000D02*
G01*
X43174752Y27015000D01*
X43174752Y27433920D01*
X43180058Y27535879D01*
X43187938Y27583036D01*
X43198059Y27610703D01*
X43216578Y27634747D01*
X43242053Y27651271D01*
X43274046Y27660457D01*
X43322787Y27664100D01*
X43359582Y27661150D01*
X43397611Y27652077D01*
X43435754Y27637128D01*
X43479890Y27613725D01*
X43479890Y27015000D01*
X43750371Y27015000D01*
X43750371Y28184240D01*
X43479890Y28184240D01*
X43479890Y27766731D01*
X43407109Y27817846D01*
X43341258Y27853242D01*
X43272063Y27875613D01*
X43193626Y27883333D01*
X43125840Y27877821D01*
X43068837Y27862271D01*
X43020655Y27837526D01*
X42979834Y27803539D01*
X42947912Y27761756D01*
X42923928Y27709672D01*
X42908415Y27645042D01*
X42902793Y27565029D01*
X42902793Y27015000D01*
G37*
G36*
X42342004Y27877948D02*
G01*
X42418601Y27862657D01*
X42485182Y27838399D01*
X42543179Y27805605D01*
X42593692Y27764179D01*
X42636508Y27714513D01*
X42670147Y27657998D01*
X42694865Y27593647D01*
X42710363Y27520136D01*
X42715801Y27435868D01*
X42710414Y27352302D01*
X42695045Y27279219D01*
X42670504Y27215071D01*
X42637075Y27158572D01*
X42594498Y27108765D01*
X42544278Y27067264D01*
X42486391Y27034374D01*
X42419697Y27010011D01*
X42342717Y26994632D01*
X42253694Y26989208D01*
X42164667Y26994633D01*
X42087695Y27010013D01*
X42021016Y27034377D01*
X41963150Y27067266D01*
X41912957Y27108765D01*
X41870353Y27158576D01*
X41836905Y27215076D01*
X41812352Y27279225D01*
X41796976Y27352306D01*
X41791681Y27434390D01*
X42071873Y27434390D01*
X42075637Y27358896D01*
X42085038Y27309325D01*
X42101783Y27266850D01*
X42124465Y27232084D01*
X42150462Y27207068D01*
X42181221Y27190642D01*
X42215372Y27181447D01*
X42251477Y27178350D01*
X42292805Y27181856D01*
X42327779Y27191783D01*
X42358654Y27209018D01*
X42385206Y27234367D01*
X42406361Y27268445D01*
X42422820Y27315303D01*
X42432153Y27368126D01*
X42435581Y27434390D01*
X42431548Y27507923D01*
X42420939Y27562074D01*
X42402909Y27609098D01*
X42381445Y27641935D01*
X42352050Y27668763D01*
X42323278Y27683713D01*
X42291483Y27691442D01*
X42253694Y27694191D01*
X42215633Y27690957D01*
X42180885Y27681496D01*
X42149751Y27664518D01*
X42122987Y27638174D01*
X42102318Y27604855D01*
X42085441Y27558313D01*
X42075593Y27505259D01*
X42071873Y27434390D01*
X41791681Y27434390D01*
X41791586Y27435868D01*
X41796945Y27519489D01*
X41812236Y27592648D01*
X41836649Y27656882D01*
X41869895Y27713471D01*
X41912218Y27763373D01*
X41962120Y27804950D01*
X42019871Y27837935D01*
X42086649Y27862402D01*
X42163984Y27877870D01*
X42253694Y27883333D01*
X42342004Y27877948D01*
G37*
G36*
X40986122Y27595322D02*
G01*
X41010168Y27595322D01*
X41065782Y27604994D01*
X41129658Y27608218D01*
X41185872Y27606227D01*
X41231885Y27600762D01*
X41276745Y27591012D01*
X41327329Y27575440D01*
X41327329Y27015000D01*
X41597810Y27015000D01*
X41597810Y27857541D01*
X41327329Y27857541D01*
X41327329Y27733551D01*
X41265248Y27782354D01*
X41214008Y27814617D01*
X41171771Y27833831D01*
X41106422Y27851964D01*
X41049998Y27857541D01*
X41017691Y27856735D01*
X40986122Y27854518D01*
X40986122Y27595322D01*
G37*
G36*
X40510313Y27560932D02*
G01*
X40791338Y27560932D01*
X40791338Y27857541D01*
X40510313Y27857541D01*
X40510313Y27560932D01*
G37*
G36*
X40510313Y27015000D02*
G01*
X40791338Y27015000D01*
X40791338Y27311609D01*
X40510313Y27311609D01*
X40510313Y27015000D01*
G37*
G36*
X39797807Y27015000D02*
G01*
X39507042Y27015000D01*
X39429666Y27242830D01*
X39014844Y27242830D01*
X38937468Y27015000D01*
X38639113Y27015000D01*
X38798066Y27444868D01*
X39084765Y27444868D01*
X39359746Y27444868D01*
X39222255Y27846257D01*
X39084765Y27444868D01*
X38798066Y27444868D01*
X39052390Y28132656D01*
X39384530Y28132656D01*
X39797807Y27015000D01*
G37*
G36*
X38493093Y27015000D02*
G01*
X38233896Y27015000D01*
X38222612Y27057114D01*
X38173159Y27031803D01*
X38121190Y27013187D01*
X38065411Y27001895D01*
X37997133Y26997806D01*
X37917619Y27005798D01*
X37846470Y27029113D01*
X37781833Y27067851D01*
X37722488Y27123542D01*
X37675396Y27189164D01*
X37641193Y27264032D01*
X37619875Y27349856D01*
X37612990Y27441039D01*
X37891211Y27441039D01*
X37898037Y27357761D01*
X37916283Y27295906D01*
X37943803Y27250487D01*
X37972209Y27223647D01*
X38007304Y27203974D01*
X38050523Y27191452D01*
X38103861Y27186947D01*
X38166998Y27190709D01*
X38222612Y27205082D01*
X38222612Y27631592D01*
X38184794Y27651016D01*
X38145236Y27665242D01*
X38104704Y27674129D01*
X38066315Y27676996D01*
X38017524Y27672530D01*
X37980004Y27660348D01*
X37951241Y27641468D01*
X37929563Y27615740D01*
X37909580Y27573066D01*
X37896205Y27516113D01*
X37891211Y27441039D01*
X37612990Y27441039D01*
X37612402Y27448831D01*
X37618628Y27551642D01*
X37635988Y27637298D01*
X37662988Y27708560D01*
X37698845Y27767739D01*
X37746289Y27818021D01*
X37801940Y27853629D01*
X37867423Y27875602D01*
X37945280Y27883333D01*
X38001246Y27879702D01*
X38050934Y27869275D01*
X38095264Y27852503D01*
X38158761Y27817552D01*
X38222612Y27772172D01*
X38222612Y28184240D01*
X38493093Y28184240D01*
X38493093Y27015000D01*
G37*
G36*
X36866246Y27826241D02*
G01*
X36965854Y27867145D01*
X37017903Y27878850D01*
X37090180Y27883333D01*
X37162301Y27875669D01*
X37235932Y27852033D01*
X37303662Y27814194D01*
X37359922Y27764112D01*
X37407748Y27699466D01*
X37445224Y27621114D01*
X37462103Y27564718D01*
X37472689Y27501311D01*
X37476389Y27429890D01*
X37469852Y27328192D01*
X37451494Y27242326D01*
X37422667Y27169766D01*
X37383968Y27108429D01*
X37333412Y27055860D01*
X37276488Y27019178D01*
X37211893Y26996921D01*
X37137533Y26989208D01*
X37061069Y26996584D01*
X36997020Y27017486D01*
X36936409Y27051364D01*
X36866246Y27102922D01*
X36866246Y27015000D01*
X36595698Y27015000D01*
X36595698Y27662891D01*
X36866246Y27662891D01*
X36866246Y27246189D01*
X36899737Y27225970D01*
X36939189Y27209516D01*
X36980204Y27198890D01*
X37017304Y27195545D01*
X37077771Y27202584D01*
X37122279Y27221701D01*
X37154862Y27251898D01*
X37176747Y27292030D01*
X37191840Y27350360D01*
X37197647Y27432979D01*
X37190973Y27510510D01*
X37172684Y27571199D01*
X37144316Y27618628D01*
X37115303Y27647156D01*
X37079935Y27667858D01*
X37036888Y27680922D01*
X36984258Y27685594D01*
X36926360Y27680287D01*
X36866246Y27662891D01*
X36595698Y27662891D01*
X36595698Y28184240D01*
X36866246Y28184240D01*
X36866246Y27826241D01*
G37*
G36*
X36011978Y27877841D02*
G01*
X36090740Y27862207D01*
X36159617Y27837340D01*
X36219999Y27803649D01*
X36272962Y27761022D01*
X36318204Y27709801D01*
X36353529Y27652117D01*
X36379332Y27587053D01*
X36395425Y27513355D01*
X36401049Y27429487D01*
X36395057Y27344740D01*
X36378008Y27271412D01*
X36350788Y27207678D01*
X36313578Y27152076D01*
X36265842Y27103593D01*
X36211082Y27064803D01*
X36146494Y27033414D01*
X36070523Y27009747D01*
X35981281Y26994599D01*
X35876611Y26989208D01*
X35780464Y26993544D01*
X35697007Y27005799D01*
X35615230Y27026861D01*
X35524187Y27059331D01*
X35524187Y27277220D01*
X35554210Y27277220D01*
X35606073Y27244072D01*
X35681222Y27209784D01*
X35763011Y27186193D01*
X35847259Y27178350D01*
X35936206Y27185239D01*
X36002782Y27203675D01*
X36052050Y27231412D01*
X36090788Y27271280D01*
X36115934Y27321411D01*
X36127546Y27384686D01*
X35508402Y27384686D01*
X35508402Y27479459D01*
X35513246Y27543737D01*
X35777405Y27543737D01*
X36128285Y27543737D01*
X36118452Y27601536D01*
X36099366Y27644013D01*
X36071999Y27674780D01*
X36036411Y27697004D01*
X35994127Y27710805D01*
X35943442Y27715684D01*
X35889033Y27710185D01*
X35848896Y27695376D01*
X35819519Y27672496D01*
X35798263Y27641307D01*
X35783822Y27599436D01*
X35777405Y27543737D01*
X35513246Y27543737D01*
X35515765Y27577166D01*
X35536310Y27657733D01*
X35568537Y27724265D01*
X35612108Y27779157D01*
X35666732Y27822516D01*
X35734505Y27854915D01*
X35818271Y27875787D01*
X35921680Y27883333D01*
X36011978Y27877841D01*
G37*
G36*
X35046967Y27015000D02*
G01*
X35317447Y27015000D01*
X35317447Y28184240D01*
X35046967Y28184240D01*
X35046967Y27015000D01*
G37*
G36*
X33442083Y27015000D02*
G01*
X34251376Y27015000D01*
X34251376Y28132656D01*
X33442083Y28132656D01*
X33442083Y27917722D01*
X33964372Y27917722D01*
X33964372Y27724282D01*
X33479697Y27724282D01*
X33479697Y27509348D01*
X33964372Y27509348D01*
X33964372Y27229934D01*
X33442083Y27229934D01*
X33442083Y27015000D01*
G37*
G36*
X32944915Y27015000D02*
G01*
X33215396Y27015000D01*
X33215396Y28184240D01*
X32944915Y28184240D01*
X32944915Y27015000D01*
G37*
G36*
X32689883Y27015000D02*
G01*
X32430686Y27015000D01*
X32419402Y27057114D01*
X32369949Y27031803D01*
X32317980Y27013187D01*
X32262201Y27001895D01*
X32193923Y26997806D01*
X32114409Y27005798D01*
X32043260Y27029113D01*
X31978623Y27067851D01*
X31919278Y27123542D01*
X31872186Y27189164D01*
X31837983Y27264032D01*
X31816665Y27349856D01*
X31809780Y27441039D01*
X32088001Y27441039D01*
X32094827Y27357761D01*
X32113073Y27295906D01*
X32140593Y27250487D01*
X32168999Y27223647D01*
X32204094Y27203974D01*
X32247313Y27191452D01*
X32300651Y27186947D01*
X32363788Y27190709D01*
X32419402Y27205082D01*
X32419402Y27631592D01*
X32381584Y27651016D01*
X32342026Y27665242D01*
X32301494Y27674129D01*
X32263105Y27676996D01*
X32214314Y27672530D01*
X32176794Y27660348D01*
X32148030Y27641468D01*
X32126353Y27615740D01*
X32106370Y27573066D01*
X32092994Y27516113D01*
X32088001Y27441039D01*
X31809780Y27441039D01*
X31809192Y27448831D01*
X31815418Y27551642D01*
X31832778Y27637298D01*
X31859778Y27708560D01*
X31895635Y27767739D01*
X31943079Y27818021D01*
X31998730Y27853629D01*
X32064213Y27875602D01*
X32142070Y27883333D01*
X32198036Y27879702D01*
X32247724Y27869275D01*
X32292054Y27852503D01*
X32355551Y27817552D01*
X32419402Y27772172D01*
X32419402Y28184240D01*
X32689883Y28184240D01*
X32689883Y27015000D01*
G37*
G36*
X31366374Y27879496D02*
G01*
X31463148Y27867951D01*
X31602520Y27841353D01*
X31602520Y27638308D01*
X31577735Y27638308D01*
X31468790Y27674780D01*
X31393585Y27692818D01*
X31325994Y27698490D01*
X31251564Y27694853D01*
X31196879Y27685312D01*
X31157674Y27671556D01*
X31126160Y27648978D01*
X31107356Y27617511D01*
X31100582Y27574097D01*
X31100582Y27569529D01*
X31218979Y27560759D01*
X31331300Y27548372D01*
X31437257Y27528107D01*
X31517621Y27500012D01*
X31565522Y27473826D01*
X31604221Y27442874D01*
X31634894Y27407053D01*
X31657097Y27365875D01*
X31671167Y27315945D01*
X31676202Y27255189D01*
X31670916Y27198507D01*
X31655638Y27148579D01*
X31630579Y27104063D01*
X31595064Y27064032D01*
X31552400Y27031512D01*
X31505257Y27008327D01*
X31452750Y26994122D01*
X31393698Y26989208D01*
X31343759Y26991773D01*
X31299799Y26999082D01*
X31257710Y27011186D01*
X31217117Y27027762D01*
X31156263Y27064570D01*
X31102127Y27104399D01*
X31102127Y27015000D01*
X30833863Y27015000D01*
X30833863Y27234300D01*
X31102127Y27234300D01*
X31135895Y27210002D01*
X31175406Y27190574D01*
X31217281Y27178082D01*
X31257618Y27174051D01*
X31305346Y27176172D01*
X31332778Y27181171D01*
X31355360Y27190448D01*
X31374085Y27203403D01*
X31389214Y27219478D01*
X31396653Y27235039D01*
X31401154Y27277958D01*
X31395510Y27314841D01*
X31379727Y27342304D01*
X31354571Y27363240D01*
X31317732Y27379582D01*
X31280708Y27388751D01*
X31220878Y27398053D01*
X31102127Y27410479D01*
X31102127Y27234300D01*
X30833863Y27234300D01*
X30833863Y27589411D01*
X30840993Y27663872D01*
X30860888Y27724011D01*
X30892495Y27772826D01*
X30936427Y27812270D01*
X30987975Y27840192D01*
X31057518Y27862523D01*
X31149639Y27877671D01*
X31269641Y27883333D01*
X31366374Y27879496D01*
G37*
G36*
X29972919Y27595322D02*
G01*
X29996965Y27595322D01*
X30052579Y27604994D01*
X30116454Y27608218D01*
X30172668Y27606227D01*
X30218682Y27600762D01*
X30263541Y27591012D01*
X30314126Y27575440D01*
X30314126Y27015000D01*
X30584607Y27015000D01*
X30584607Y27857541D01*
X30314126Y27857541D01*
X30314126Y27733551D01*
X30252045Y27782354D01*
X30200805Y27814617D01*
X30158568Y27833831D01*
X30093219Y27851964D01*
X30036795Y27857541D01*
X30004487Y27856735D01*
X29972919Y27854518D01*
X29972919Y27595322D01*
G37*
G36*
X28923774Y27015000D02*
G01*
X29238585Y27015000D01*
X29475280Y27381865D01*
X29548962Y27292601D01*
X29548962Y27015000D01*
X29819443Y27015000D01*
X29819443Y28184240D01*
X29548962Y28184240D01*
X29548962Y27485437D01*
X29257391Y27857541D01*
X28945536Y27857541D01*
X29249130Y27494437D01*
X28923774Y27015000D01*
G37*
G36*
X28474481Y27877948D02*
G01*
X28551078Y27862657D01*
X28617660Y27838399D01*
X28675656Y27805605D01*
X28726169Y27764179D01*
X28768985Y27714513D01*
X28802624Y27657998D01*
X28827343Y27593647D01*
X28842841Y27520136D01*
X28848278Y27435868D01*
X28842892Y27352302D01*
X28827522Y27279219D01*
X28802982Y27215071D01*
X28769552Y27158572D01*
X28726975Y27108765D01*
X28676756Y27067264D01*
X28618868Y27034374D01*
X28552175Y27010011D01*
X28475195Y26994632D01*
X28386171Y26989208D01*
X28297145Y26994633D01*
X28220172Y27010013D01*
X28153493Y27034377D01*
X28095627Y27067266D01*
X28045434Y27108765D01*
X28002831Y27158576D01*
X27969383Y27215076D01*
X27944830Y27279225D01*
X27929453Y27352306D01*
X27924159Y27434390D01*
X28204351Y27434390D01*
X28208114Y27358896D01*
X28217515Y27309325D01*
X28234260Y27266850D01*
X28256942Y27232084D01*
X28282940Y27207068D01*
X28313698Y27190642D01*
X28347849Y27181447D01*
X28383954Y27178350D01*
X28425282Y27181856D01*
X28460256Y27191783D01*
X28491131Y27209018D01*
X28517684Y27234367D01*
X28538838Y27268445D01*
X28555297Y27315303D01*
X28564631Y27368126D01*
X28568059Y27434390D01*
X28564025Y27507923D01*
X28553416Y27562074D01*
X28535387Y27609098D01*
X28513922Y27641935D01*
X28484527Y27668763D01*
X28455756Y27683713D01*
X28423961Y27691442D01*
X28386171Y27694191D01*
X28348110Y27690957D01*
X28313362Y27681496D01*
X28282228Y27664518D01*
X28255464Y27638174D01*
X28234795Y27604855D01*
X28217918Y27558313D01*
X28208070Y27505259D01*
X28204351Y27434390D01*
X27924159Y27434390D01*
X27924064Y27435868D01*
X27929423Y27519489D01*
X27944714Y27592648D01*
X27969127Y27656882D01*
X28002372Y27713471D01*
X28044695Y27763373D01*
X28094597Y27804950D01*
X28152349Y27837935D01*
X28219126Y27862402D01*
X28296461Y27877870D01*
X28386171Y27883333D01*
X28474481Y27877948D01*
G37*
G36*
X26889426Y27015000D02*
G01*
X27159974Y27015000D01*
X27159974Y27105810D01*
X27234777Y27053720D01*
X27297532Y27018896D01*
X27340075Y27002882D01*
X27389253Y26992775D01*
X27446239Y26989208D01*
X27515623Y26994827D01*
X27573288Y27010594D01*
X27621402Y27035548D01*
X27661576Y27069674D01*
X27692879Y27111746D01*
X27716391Y27163881D01*
X27731578Y27228235D01*
X27737071Y27307512D01*
X27737071Y27857541D01*
X27465046Y27857541D01*
X27465046Y27438621D01*
X27460949Y27332162D01*
X27453684Y27291954D01*
X27441739Y27261838D01*
X27423859Y27237810D01*
X27398551Y27221203D01*
X27366503Y27212064D01*
X27317749Y27208441D01*
X27282540Y27211435D01*
X27241179Y27221203D01*
X27200066Y27236907D01*
X27159974Y27258816D01*
X27159974Y27857541D01*
X26889426Y27857541D01*
X26889426Y27015000D01*
G37*
G36*
X25738456Y27015000D02*
G01*
X26053267Y27015000D01*
X26289963Y27381865D01*
X26363645Y27292601D01*
X26363645Y27015000D01*
X26634125Y27015000D01*
X26634125Y28184240D01*
X26363645Y28184240D01*
X26363645Y27485437D01*
X26072074Y27857541D01*
X25760218Y27857541D01*
X26063812Y27494437D01*
X25738456Y27015000D01*
G37*
G36*
X25220399Y27311743D02*
G01*
X25028033Y27857541D01*
X24750030Y27857541D01*
X25218921Y26705496D01*
X25511970Y26705496D01*
X25378174Y27019299D01*
X25706552Y27857541D01*
X25422504Y27857541D01*
X25220399Y27311743D01*
G37*
G36*
X46727203Y25167000D02*
G01*
X46440199Y25167000D01*
X46440199Y25575375D01*
X46307209Y25575375D01*
X46002070Y25167000D01*
X45649646Y25167000D01*
X46023161Y25644556D01*
X45955317Y25683549D01*
X45901187Y25726920D01*
X45858938Y25774658D01*
X45827980Y25829553D01*
X45808429Y25896070D01*
X45804283Y25944120D01*
X46099798Y25944120D01*
X46103662Y25898950D01*
X46113702Y25867617D01*
X46131129Y25840917D01*
X46157629Y25815496D01*
X46192144Y25795825D01*
X46235811Y25784263D01*
X46285215Y25779298D01*
X46351539Y25777412D01*
X46440199Y25777412D01*
X46440199Y26082618D01*
X46335755Y26082618D01*
X46244811Y26079931D01*
X46207254Y26074709D01*
X46176435Y26065088D01*
X46139590Y26043553D01*
X46117127Y26017130D01*
X46104347Y25984564D01*
X46099798Y25944120D01*
X45804283Y25944120D01*
X45801443Y25977032D01*
X45805960Y26036233D01*
X45818637Y26085668D01*
X45838654Y26127082D01*
X45882071Y26181069D01*
X45938934Y26224474D01*
X46003646Y26255529D01*
X46072730Y26273372D01*
X46147497Y26281595D01*
X46243266Y26284656D01*
X46727203Y26284656D01*
X46727203Y25167000D01*
G37*
G36*
X45211140Y26029841D02*
G01*
X45289903Y26014207D01*
X45358780Y25989340D01*
X45419162Y25955649D01*
X45472124Y25913022D01*
X45517367Y25861801D01*
X45552692Y25804117D01*
X45578494Y25739053D01*
X45594587Y25665355D01*
X45600211Y25581487D01*
X45594220Y25496740D01*
X45577171Y25423412D01*
X45549951Y25359678D01*
X45512740Y25304076D01*
X45465005Y25255593D01*
X45410244Y25216803D01*
X45345657Y25185414D01*
X45269685Y25161747D01*
X45180443Y25146599D01*
X45075773Y25141208D01*
X44979626Y25145544D01*
X44896169Y25157799D01*
X44814392Y25178861D01*
X44723349Y25211331D01*
X44723349Y25429220D01*
X44753373Y25429220D01*
X44805236Y25396072D01*
X44880385Y25361784D01*
X44962174Y25338193D01*
X45046421Y25330350D01*
X45135369Y25337239D01*
X45201945Y25355675D01*
X45251213Y25383412D01*
X45289950Y25423280D01*
X45315097Y25473411D01*
X45326708Y25536686D01*
X44707565Y25536686D01*
X44707565Y25631459D01*
X44712408Y25695737D01*
X44976568Y25695737D01*
X45327447Y25695737D01*
X45317615Y25753536D01*
X45298529Y25796013D01*
X45271161Y25826780D01*
X45235574Y25849004D01*
X45193290Y25862805D01*
X45142604Y25867684D01*
X45088195Y25862185D01*
X45048059Y25847376D01*
X45018681Y25824496D01*
X44997426Y25793307D01*
X44982984Y25751436D01*
X44976568Y25695737D01*
X44712408Y25695737D01*
X44714927Y25729166D01*
X44735473Y25809733D01*
X44767699Y25876265D01*
X44811270Y25931157D01*
X44865894Y25974516D01*
X44933667Y26006915D01*
X45017434Y26027787D01*
X45120842Y26035333D01*
X45211140Y26029841D01*
G37*
G36*
X43666748Y26009541D02*
G01*
X43992104Y25167000D01*
X44298654Y25167000D01*
X44621793Y26009541D01*
X44335528Y26009541D01*
X44140140Y25430361D01*
X43947035Y26009541D01*
X43666748Y26009541D01*
G37*
G36*
X43245613Y25167000D02*
G01*
X43516093Y25167000D01*
X43516093Y26009541D01*
X43245613Y26009541D01*
X43245613Y25167000D01*
G37*
G36*
X43238090Y26129904D02*
G01*
X43523616Y26129904D01*
X43523616Y26336240D01*
X43238090Y26336240D01*
X43238090Y26129904D01*
G37*
G36*
X42257186Y25433182D02*
G01*
X42264501Y25370783D01*
X42285862Y25315788D01*
X42321753Y25266370D01*
X42374392Y25221540D01*
X42433965Y25188349D01*
X42505717Y25163224D01*
X42591923Y25147023D01*
X42695248Y25141208D01*
X42805086Y25146678D01*
X42899637Y25162097D01*
X42986411Y25185415D01*
X43046933Y25208375D01*
X43046933Y25429220D01*
X43022149Y25429220D01*
X42975199Y25399868D01*
X42899637Y25365613D01*
X42804260Y25337671D01*
X42749763Y25329035D01*
X42690009Y25326051D01*
X42615734Y25330997D01*
X42572064Y25342843D01*
X42549762Y25356702D01*
X42537702Y25372962D01*
X42533712Y25392479D01*
X42539597Y25419654D01*
X42556280Y25437347D01*
X42584204Y25449505D01*
X42641918Y25464146D01*
X42723458Y25478856D01*
X42817021Y25498133D01*
X42890974Y25523702D01*
X42946653Y25555219D01*
X42987558Y25592032D01*
X43018085Y25637304D01*
X43036687Y25689613D01*
X43043172Y25750881D01*
X43036160Y25808666D01*
X43015437Y25860876D01*
X42980163Y25909101D01*
X42927847Y25954195D01*
X42869091Y25987795D01*
X42798509Y26013160D01*
X42713891Y26029481D01*
X42612633Y26035333D01*
X42519212Y26030439D01*
X42431148Y26016056D01*
X42349466Y25994776D01*
X42295539Y25974883D01*
X42295539Y25760218D01*
X42318845Y25760218D01*
X42382216Y25796057D01*
X42456000Y25825369D01*
X42533700Y25844248D01*
X42611894Y25850490D01*
X42674317Y25845853D01*
X42721980Y25833362D01*
X42748643Y25818948D01*
X42762317Y25802986D01*
X42766646Y25784801D01*
X42761359Y25757736D01*
X42746362Y25738791D01*
X42718751Y25725152D01*
X42650918Y25707089D01*
X42561922Y25690834D01*
X42466075Y25670886D01*
X42397490Y25647088D01*
X42345997Y25617582D01*
X42308300Y25582964D01*
X42280304Y25540481D01*
X42263174Y25491163D01*
X42257186Y25433182D01*
G37*
G36*
X41806632Y25167000D02*
G01*
X42077112Y25167000D01*
X42077112Y26009541D01*
X41806632Y26009541D01*
X41806632Y25167000D01*
G37*
G36*
X41799109Y26129904D02*
G01*
X42084635Y26129904D01*
X42084635Y26336240D01*
X41799109Y26336240D01*
X41799109Y26129904D01*
G37*
G36*
X41239394Y26029948D02*
G01*
X41315991Y26014657D01*
X41382572Y25990399D01*
X41440569Y25957605D01*
X41491082Y25916179D01*
X41533898Y25866513D01*
X41567537Y25809998D01*
X41592255Y25745647D01*
X41607753Y25672136D01*
X41613191Y25587868D01*
X41607804Y25504302D01*
X41592435Y25431219D01*
X41567894Y25367071D01*
X41534465Y25310572D01*
X41491888Y25260765D01*
X41441668Y25219264D01*
X41383781Y25186374D01*
X41317087Y25162011D01*
X41240108Y25146632D01*
X41151084Y25141208D01*
X41062057Y25146633D01*
X40985085Y25162013D01*
X40918406Y25186377D01*
X40860540Y25219266D01*
X40810347Y25260765D01*
X40767743Y25310576D01*
X40734296Y25367076D01*
X40709742Y25431225D01*
X40694366Y25504306D01*
X40689071Y25586390D01*
X40969263Y25586390D01*
X40973027Y25510896D01*
X40982428Y25461325D01*
X40999173Y25418850D01*
X41021855Y25384084D01*
X41047852Y25359068D01*
X41078611Y25342642D01*
X41112762Y25333447D01*
X41148867Y25330350D01*
X41190195Y25333856D01*
X41225169Y25343783D01*
X41256044Y25361018D01*
X41282596Y25386367D01*
X41303751Y25420445D01*
X41320210Y25467303D01*
X41329544Y25520126D01*
X41332971Y25586390D01*
X41328938Y25659923D01*
X41318329Y25714074D01*
X41300299Y25761098D01*
X41278835Y25793935D01*
X41249440Y25820763D01*
X41220669Y25835713D01*
X41188874Y25843442D01*
X41151084Y25846191D01*
X41113023Y25842957D01*
X41078275Y25833496D01*
X41047141Y25816518D01*
X41020377Y25790174D01*
X40999708Y25756855D01*
X40982831Y25710313D01*
X40972983Y25657259D01*
X40969263Y25586390D01*
X40689071Y25586390D01*
X40688976Y25587868D01*
X40694335Y25671489D01*
X40709626Y25744648D01*
X40734039Y25808882D01*
X40767285Y25865471D01*
X40809608Y25915373D01*
X40859510Y25956950D01*
X40917261Y25989935D01*
X40984039Y26014402D01*
X41061374Y26029870D01*
X41151084Y26035333D01*
X41239394Y26029948D01*
G37*
G36*
X39647622Y25167000D02*
G01*
X39919581Y25167000D01*
X39919581Y25585920D01*
X39924887Y25687879D01*
X39932767Y25735036D01*
X39942888Y25762703D01*
X39961407Y25786747D01*
X39986882Y25803271D01*
X40018875Y25812457D01*
X40067616Y25816100D01*
X40104411Y25813150D01*
X40142440Y25804077D01*
X40180583Y25789128D01*
X40224719Y25765725D01*
X40224719Y25167000D01*
X40495200Y25167000D01*
X40495200Y26009541D01*
X40224719Y26009541D01*
X40224719Y25918731D01*
X40151938Y25969846D01*
X40086087Y26005242D01*
X40016892Y26027613D01*
X39938455Y26035333D01*
X39870669Y26029821D01*
X39813666Y26014271D01*
X39765484Y25989526D01*
X39724663Y25955539D01*
X39692741Y25913756D01*
X39668757Y25861672D01*
X39653244Y25797042D01*
X39647622Y25717029D01*
X39647622Y25167000D01*
G37*
G36*
X39076705Y25712932D02*
G01*
X39357731Y25712932D01*
X39357731Y26009541D01*
X39076705Y26009541D01*
X39076705Y25712932D01*
G37*
G36*
X39076705Y25167000D02*
G01*
X39357731Y25167000D01*
X39357731Y25463609D01*
X39076705Y25463609D01*
X39076705Y25167000D01*
G37*
G36*
X37634567Y25167000D02*
G01*
X38289846Y25167000D01*
X38289846Y25369038D01*
X38106481Y25369038D01*
X38106481Y26082618D01*
X38289846Y26082618D01*
X38289846Y26284656D01*
X37634567Y26284656D01*
X37634567Y26082618D01*
X37817932Y26082618D01*
X37817932Y25369038D01*
X37634567Y25369038D01*
X37634567Y25167000D01*
G37*
G36*
X37101920Y26029948D02*
G01*
X37178517Y26014657D01*
X37245098Y25990399D01*
X37303095Y25957605D01*
X37353608Y25916179D01*
X37396424Y25866513D01*
X37430063Y25809998D01*
X37454782Y25745647D01*
X37470280Y25672136D01*
X37475717Y25587868D01*
X37470331Y25504302D01*
X37454961Y25431219D01*
X37430421Y25367071D01*
X37396991Y25310572D01*
X37354414Y25260765D01*
X37304195Y25219264D01*
X37246307Y25186374D01*
X37179614Y25162011D01*
X37102634Y25146632D01*
X37013610Y25141208D01*
X36924584Y25146633D01*
X36847611Y25162013D01*
X36780932Y25186377D01*
X36723066Y25219266D01*
X36672873Y25260765D01*
X36630270Y25310576D01*
X36596822Y25367076D01*
X36572268Y25431225D01*
X36556892Y25504306D01*
X36551597Y25586390D01*
X36831789Y25586390D01*
X36835553Y25510896D01*
X36844954Y25461325D01*
X36861699Y25418850D01*
X36884381Y25384084D01*
X36910378Y25359068D01*
X36941137Y25342642D01*
X36975288Y25333447D01*
X37011393Y25330350D01*
X37052721Y25333856D01*
X37087695Y25343783D01*
X37118570Y25361018D01*
X37145122Y25386367D01*
X37166277Y25420445D01*
X37182736Y25467303D01*
X37192070Y25520126D01*
X37195498Y25586390D01*
X37191464Y25659923D01*
X37180855Y25714074D01*
X37162826Y25761098D01*
X37141361Y25793935D01*
X37111966Y25820763D01*
X37083195Y25835713D01*
X37051400Y25843442D01*
X37013610Y25846191D01*
X36975549Y25842957D01*
X36940801Y25833496D01*
X36909667Y25816518D01*
X36882903Y25790174D01*
X36862234Y25756855D01*
X36845357Y25710313D01*
X36835509Y25657259D01*
X36831789Y25586390D01*
X36551597Y25586390D01*
X36551502Y25587868D01*
X36556862Y25671489D01*
X36572153Y25744648D01*
X36596565Y25808882D01*
X36629811Y25865471D01*
X36672134Y25915373D01*
X36722036Y25956950D01*
X36779788Y25989935D01*
X36846565Y26014402D01*
X36923900Y26029870D01*
X37013610Y26035333D01*
X37101920Y26029948D01*
G37*
G36*
X35510149Y25167000D02*
G01*
X35782107Y25167000D01*
X35782107Y25585920D01*
X35787413Y25687879D01*
X35795294Y25735036D01*
X35805414Y25762703D01*
X35823933Y25786747D01*
X35849408Y25803271D01*
X35881401Y25812457D01*
X35930143Y25816100D01*
X35966937Y25813150D01*
X36004966Y25804077D01*
X36043109Y25789128D01*
X36087246Y25765725D01*
X36087246Y25167000D01*
X36357726Y25167000D01*
X36357726Y26009541D01*
X36087246Y26009541D01*
X36087246Y25918731D01*
X36014464Y25969846D01*
X35948613Y26005242D01*
X35879419Y26027613D01*
X35800981Y26035333D01*
X35733195Y26029821D01*
X35676192Y26014271D01*
X35628010Y25989526D01*
X35587189Y25955539D01*
X35555268Y25913756D01*
X35531283Y25861672D01*
X35515770Y25797042D01*
X35510149Y25717029D01*
X35510149Y25167000D01*
G37*
G36*
X34733298Y25558180D02*
G01*
X35306633Y25558180D01*
X35306633Y25773114D01*
X34733298Y25773114D01*
X34733298Y25558180D01*
G37*
G36*
X34185558Y26301698D02*
G01*
X34255652Y26289140D01*
X34315856Y26269409D01*
X34371775Y26240580D01*
X34419572Y26204038D01*
X34460130Y26159390D01*
X34493045Y26107832D01*
X34520218Y26047827D01*
X34541335Y25978174D01*
X34560001Y25866170D01*
X34566858Y25725828D01*
X34560280Y25589224D01*
X34542074Y25476102D01*
X34521324Y25405217D01*
X34494395Y25344895D01*
X34461675Y25293744D01*
X34421585Y25249062D01*
X34374043Y25212242D01*
X34318140Y25182919D01*
X34257888Y25162874D01*
X34187089Y25150065D01*
X34103945Y25145507D01*
X34019286Y25150077D01*
X33948359Y25162819D01*
X33889078Y25182583D01*
X33834047Y25211515D01*
X33786716Y25247947D01*
X33746282Y25292267D01*
X33714593Y25341902D01*
X33687894Y25402083D01*
X33666689Y25474557D01*
X33647851Y25589730D01*
X33641099Y25726567D01*
X33931931Y25726567D01*
X33937683Y25592090D01*
X33952306Y25499870D01*
X33972500Y25439362D01*
X33996835Y25399963D01*
X34026200Y25373356D01*
X34061294Y25357414D01*
X34103945Y25351843D01*
X34146631Y25357415D01*
X34181747Y25373360D01*
X34211121Y25399968D01*
X34235457Y25439362D01*
X34255675Y25499844D01*
X34270287Y25591644D01*
X34276026Y25725089D01*
X34270313Y25862292D01*
X34255898Y25954810D01*
X34236196Y26014175D01*
X34212303Y26052473D01*
X34183016Y26078534D01*
X34147541Y26094277D01*
X34103945Y26099813D01*
X34060385Y26094279D01*
X34024931Y26078539D01*
X33995654Y26052478D01*
X33971761Y26014175D01*
X33952037Y25954838D01*
X33937632Y25862737D01*
X33931931Y25726567D01*
X33641099Y25726567D01*
X33647699Y25862998D01*
X33665883Y25974815D01*
X33686512Y26044760D01*
X33713185Y26104598D01*
X33745543Y26155628D01*
X33786101Y26201412D01*
X33833444Y26238820D01*
X33888340Y26268334D01*
X33947624Y26288482D01*
X34018771Y26301482D01*
X34103945Y26306149D01*
X34185558Y26301698D01*
G37*
G36*
X33138490Y25167000D02*
G01*
X33419515Y25167000D01*
X33419515Y25463609D01*
X33138490Y25463609D01*
X33138490Y25167000D01*
G37*
G36*
X32008005Y25546896D02*
G01*
X32011729Y25489565D01*
X32022676Y25435847D01*
X32040716Y25385158D01*
X32065802Y25337754D01*
X32097359Y25295275D01*
X32135757Y25257273D01*
X32183819Y25222742D01*
X32236609Y25194627D01*
X32294673Y25172844D01*
X32388116Y25152701D01*
X32499465Y25145507D01*
X32628705Y25151716D01*
X32726757Y25166866D01*
X32814878Y25189857D01*
X32878151Y25212943D01*
X32878151Y25459310D01*
X32846583Y25459310D01*
X32776013Y25422362D01*
X32699353Y25391741D01*
X32620000Y25371384D01*
X32542250Y25364740D01*
X32494079Y25367307D01*
X32439686Y25375486D01*
X32388698Y25391364D01*
X32352168Y25414644D01*
X32329158Y25438586D01*
X32313480Y25461527D01*
X32304160Y25488950D01*
X32300315Y25535276D01*
X32304910Y25571925D01*
X32317980Y25601838D01*
X32338214Y25627110D01*
X32363452Y25646907D01*
X32406966Y25666891D01*
X32461180Y25679282D01*
X32564818Y25687140D01*
X32631599Y25684185D01*
X32694450Y25675520D01*
X32803059Y25652751D01*
X32836105Y25652751D01*
X32836105Y26284656D01*
X32040313Y26284656D01*
X32040313Y26069722D01*
X32564818Y26069722D01*
X32564818Y25889715D01*
X32505846Y25892335D01*
X32443112Y25893476D01*
X32353373Y25888811D01*
X32278150Y25875812D01*
X32209029Y25854119D01*
X32153019Y25826713D01*
X32110532Y25796045D01*
X32075175Y25759813D01*
X32046358Y25717567D01*
X32025819Y25670778D01*
X32012701Y25614544D01*
X32008005Y25546896D01*
G37*
D11*
X3483333Y69725181D02*
X3483333Y69010896D01*
X3483333Y69010896D02*
X3530952Y68868039D01*
X3530952Y68868039D02*
X3626190Y68772800D01*
X3626190Y68772800D02*
X3769047Y68725181D01*
X3769047Y68725181D02*
X3864285Y68725181D01*
X2483333Y68725181D02*
X3054761Y68725181D01*
X2769047Y68725181D02*
X2769047Y69725181D01*
X2769047Y69725181D02*
X2864285Y69582324D01*
X2864285Y69582324D02*
X2959523Y69487086D01*
X2959523Y69487086D02*
X3054761Y69439467D01*
X51783333Y69725181D02*
X51783333Y69010896D01*
X51783333Y69010896D02*
X51830952Y68868039D01*
X51830952Y68868039D02*
X51926190Y68772800D01*
X51926190Y68772800D02*
X52069047Y68725181D01*
X52069047Y68725181D02*
X52164285Y68725181D01*
X51354761Y69629943D02*
X51307142Y69677562D01*
X51307142Y69677562D02*
X51211904Y69725181D01*
X51211904Y69725181D02*
X50973809Y69725181D01*
X50973809Y69725181D02*
X50878571Y69677562D01*
X50878571Y69677562D02*
X50830952Y69629943D01*
X50830952Y69629943D02*
X50783333Y69534705D01*
X50783333Y69534705D02*
X50783333Y69439467D01*
X50783333Y69439467D02*
X50830952Y69296610D01*
X50830952Y69296610D02*
X51402380Y68725181D01*
X51402380Y68725181D02*
X50783333Y68725181D01*
%TO.C,J1*%
D12*
X500000Y68180000D02*
X500000Y9540000D01*
X3150000Y68180000D02*
X500000Y68180000D01*
X3150000Y65530000D02*
X3150000Y68180000D01*
X5800000Y68180000D02*
X4420000Y68180000D01*
X5800000Y66800000D02*
X5800000Y68180000D01*
X5800000Y65530000D02*
X3150000Y65530000D01*
X5800000Y65530000D02*
X5800000Y9540000D01*
X5800000Y9540000D02*
X500000Y9540000D01*
%TO.C,J2*%
X48800000Y68180000D02*
X48800000Y9540000D01*
X51450000Y68180000D02*
X48800000Y68180000D01*
X51450000Y65530000D02*
X51450000Y68180000D01*
X54100000Y68180000D02*
X52720000Y68180000D01*
X54100000Y66800000D02*
X54100000Y68180000D01*
X54100000Y65530000D02*
X51450000Y65530000D01*
X54100000Y65530000D02*
X54100000Y9540000D01*
X54100000Y9540000D02*
X48800000Y9540000D01*
%TO.C,G\u002A\u002A\u002A*%
D13*
X41332953Y44440000D02*
G75*
G02*
X13267047Y44440000I-14032953J0D01*
G01*
X13267047Y44440000D02*
G75*
G02*
X41332953Y44440000I14032953J0D01*
G01*
D14*
G36*
X17419399Y44226190D02*
G01*
X17445648Y44186631D01*
X17424871Y44136310D01*
X17404117Y44124171D01*
X17360685Y44136045D01*
X17332896Y44185791D01*
X17337149Y44218384D01*
X17384224Y44234689D01*
X17419399Y44226190D01*
G37*
G36*
X17687231Y47399544D02*
G01*
X17722017Y47372131D01*
X17705430Y47324719D01*
X17684969Y47306904D01*
X17647024Y47301754D01*
X17623329Y47336217D01*
X17627743Y47380704D01*
X17660124Y47402356D01*
X17687231Y47399544D01*
G37*
G36*
X18510271Y41883663D02*
G01*
X18548786Y41849080D01*
X18543963Y41798729D01*
X18516237Y41777909D01*
X18474581Y41790482D01*
X18447446Y41839371D01*
X18448781Y41865883D01*
X18482377Y41888268D01*
X18510271Y41883663D01*
G37*
G36*
X20182755Y49415477D02*
G01*
X20202079Y49365332D01*
X20194423Y49333974D01*
X20159817Y49313291D01*
X20117542Y49327681D01*
X20090277Y49375152D01*
X20094523Y49410340D01*
X20141268Y49426144D01*
X20182755Y49415477D01*
G37*
G36*
X22763158Y50594749D02*
G01*
X22801673Y50560166D01*
X22796850Y50509815D01*
X22769124Y50488994D01*
X22727468Y50501568D01*
X22700332Y50550456D01*
X22701668Y50576969D01*
X22735264Y50599354D01*
X22763158Y50594749D01*
G37*
G36*
X23506274Y51498114D02*
G01*
X23535947Y51459228D01*
X23514521Y51403674D01*
X23474020Y51372864D01*
X23429996Y51383475D01*
X23404369Y51444896D01*
X23409392Y51493537D01*
X23453966Y51508592D01*
X23506274Y51498114D01*
G37*
G36*
X24935689Y50278748D02*
G01*
X24953580Y50216329D01*
X24944673Y50181199D01*
X24896651Y50159400D01*
X24840389Y50172888D01*
X24816714Y50213983D01*
X24844639Y50268341D01*
X24891849Y50295624D01*
X24935689Y50278748D01*
G37*
G36*
X27719215Y52026896D02*
G01*
X27739954Y51977876D01*
X27730314Y51939955D01*
X27681294Y51919215D01*
X27643373Y51928856D01*
X27622633Y51977876D01*
X27632274Y52015797D01*
X27681294Y52036536D01*
X27719215Y52026896D01*
G37*
G36*
X28199114Y54695112D02*
G01*
X28228788Y54656225D01*
X28207361Y54600672D01*
X28166860Y54569862D01*
X28122837Y54580472D01*
X28097210Y54641894D01*
X28102232Y54690535D01*
X28146807Y54705589D01*
X28199114Y54695112D01*
G37*
G36*
X28253054Y53697839D02*
G01*
X28267899Y53649700D01*
X28258145Y53606826D01*
X28216571Y53596623D01*
X28189626Y53608286D01*
X28165243Y53649700D01*
X28172936Y53673856D01*
X28216571Y53702777D01*
X28253054Y53697839D01*
G37*
G36*
X28682217Y51148130D02*
G01*
X28708466Y51108571D01*
X28687688Y51058250D01*
X28666934Y51046111D01*
X28623503Y51057985D01*
X28595714Y51107731D01*
X28599967Y51140324D01*
X28647042Y51156629D01*
X28682217Y51148130D01*
G37*
G36*
X29918031Y53315770D02*
G01*
X29942135Y53278700D01*
X29919156Y53228286D01*
X29880265Y53213167D01*
X29831065Y53228486D01*
X29807737Y53268809D01*
X29822134Y53297954D01*
X29873730Y53321775D01*
X29918031Y53315770D01*
G37*
G36*
X32297134Y52729575D02*
G01*
X32315474Y52681802D01*
X32307308Y52647594D01*
X32271478Y52623141D01*
X32245822Y52634029D01*
X32227483Y52681802D01*
X32235649Y52716010D01*
X32271478Y52740462D01*
X32297134Y52729575D01*
G37*
G36*
X33294268Y52375447D02*
G01*
X33312703Y52331989D01*
X33302036Y52290502D01*
X33251891Y52271178D01*
X33211708Y52280421D01*
X33200900Y52322169D01*
X33214831Y52355424D01*
X33254084Y52382594D01*
X33294268Y52375447D01*
G37*
G36*
X33294363Y49532577D02*
G01*
X33312703Y49484804D01*
X33304537Y49450596D01*
X33268707Y49426144D01*
X33243051Y49437031D01*
X33224712Y49484804D01*
X33232878Y49519012D01*
X33268707Y49543465D01*
X33294363Y49532577D01*
G37*
G36*
X35052534Y50506758D02*
G01*
X35091050Y50472175D01*
X35086226Y50421824D01*
X35058500Y50401003D01*
X35016844Y50413577D01*
X34989709Y50462466D01*
X34991044Y50488978D01*
X35024641Y50511363D01*
X35052534Y50506758D01*
G37*
G36*
X35157532Y38925061D02*
G01*
X35188925Y38900849D01*
X35171083Y38858273D01*
X35158872Y38850841D01*
X35121255Y38860013D01*
X35101848Y38898313D01*
X35106798Y38910994D01*
X35145843Y38925913D01*
X35157532Y38925061D01*
G37*
G36*
X36440916Y47861163D02*
G01*
X36470589Y47822276D01*
X36449163Y47766723D01*
X36408662Y47735913D01*
X36364639Y47746523D01*
X36339011Y47807944D01*
X36344034Y47856586D01*
X36388608Y47871640D01*
X36440916Y47861163D01*
G37*
G36*
X36932432Y42494619D02*
G01*
X36949962Y42453863D01*
X36930898Y42407234D01*
X36912552Y42397613D01*
X36877900Y42413931D01*
X36861663Y42461939D01*
X36866753Y42481613D01*
X36905659Y42504204D01*
X36932432Y42494619D01*
G37*
G36*
X17950363Y48122041D02*
G01*
X17984967Y48086533D01*
X17983978Y48041690D01*
X17966790Y48028916D01*
X17912588Y48018291D01*
X17898422Y48019577D01*
X17861340Y48046657D01*
X17861979Y48090387D01*
X17902614Y48126142D01*
X17950363Y48122041D01*
G37*
G36*
X18637916Y42346178D02*
G01*
X18634490Y42301447D01*
X18626532Y42290927D01*
X18588915Y42269562D01*
X18561245Y42278840D01*
X18539853Y42319723D01*
X18556274Y42365974D01*
X18564320Y42372565D01*
X18606884Y42376189D01*
X18637916Y42346178D01*
G37*
G36*
X18808010Y46757822D02*
G01*
X18836087Y46722448D01*
X18820327Y46679873D01*
X18798236Y46657485D01*
X18750940Y46643456D01*
X18716086Y46685736D01*
X18713210Y46694311D01*
X18717574Y46749529D01*
X18755417Y46775595D01*
X18808010Y46757822D01*
G37*
G36*
X22043124Y51508269D02*
G01*
X22051931Y51458895D01*
X22029720Y51410213D01*
X22002745Y51396260D01*
X21964388Y51413769D01*
X21947229Y51466639D01*
X21955825Y51499119D01*
X21998557Y51532338D01*
X22009775Y51532958D01*
X22043124Y51508269D01*
G37*
G36*
X23741380Y49356109D02*
G01*
X23737954Y49311378D01*
X23729996Y49300858D01*
X23692379Y49279492D01*
X23664710Y49288771D01*
X23643317Y49329654D01*
X23659738Y49375905D01*
X23667784Y49382496D01*
X23710348Y49386119D01*
X23741380Y49356109D01*
G37*
G36*
X23969841Y52144064D02*
G01*
X23985682Y52102125D01*
X23982587Y52069677D01*
X23965114Y52025746D01*
X23922477Y52009564D01*
X23875258Y52030799D01*
X23853696Y52080933D01*
X23864498Y52119424D01*
X23919689Y52148565D01*
X23969841Y52144064D01*
G37*
G36*
X24284122Y51485856D02*
G01*
X24297220Y51465014D01*
X24298464Y51407907D01*
X24268249Y51371557D01*
X24218904Y51366290D01*
X24181210Y51403791D01*
X24177494Y51426381D01*
X24197813Y51472619D01*
X24240511Y51498149D01*
X24284122Y51485856D01*
G37*
G36*
X27102321Y54963470D02*
G01*
X27143148Y54930195D01*
X27138684Y54881571D01*
X27128162Y54868684D01*
X27078853Y54850342D01*
X27029279Y54866434D01*
X27006698Y54910901D01*
X27015841Y54947984D01*
X27063627Y54969562D01*
X27102321Y54963470D01*
G37*
G36*
X28576776Y53776803D02*
G01*
X28580229Y53723818D01*
X28562458Y53699319D01*
X28510299Y53684532D01*
X28498843Y53687691D01*
X28458817Y53722335D01*
X28451099Y53769829D01*
X28481763Y53804612D01*
X28534661Y53807944D01*
X28576776Y53776803D01*
G37*
G36*
X28683804Y51925665D02*
G01*
X28695063Y51908985D01*
X28693763Y51861486D01*
X28658322Y51838265D01*
X28604840Y51844849D01*
X28568525Y51882537D01*
X28566801Y51896613D01*
X28590891Y51929918D01*
X28638533Y51942835D01*
X28683804Y51925665D01*
G37*
G36*
X29001978Y53590006D02*
G01*
X29025535Y53537102D01*
X29026607Y53528776D01*
X29020828Y53483628D01*
X28981539Y53478844D01*
X28950406Y53495995D01*
X28929406Y53540147D01*
X28935902Y53585116D01*
X28971825Y53605705D01*
X29001978Y53590006D01*
G37*
G36*
X29389916Y50331555D02*
G01*
X29431220Y50293456D01*
X29429027Y50228882D01*
X29424638Y50219247D01*
X29390435Y50194689D01*
X29352721Y50214679D01*
X29329081Y50271686D01*
X29330622Y50312506D01*
X29364012Y50335381D01*
X29389916Y50331555D01*
G37*
G36*
X29475262Y51896029D02*
G01*
X29508163Y51863398D01*
X29512381Y51827901D01*
X29477917Y51804207D01*
X29433431Y51808621D01*
X29411779Y51841001D01*
X29412896Y51855200D01*
X29431078Y51899407D01*
X29438357Y51904089D01*
X29475262Y51896029D01*
G37*
G36*
X29666092Y52993061D02*
G01*
X29662665Y52948330D01*
X29654708Y52937809D01*
X29617090Y52916444D01*
X29589421Y52925722D01*
X29568028Y52966606D01*
X29584450Y53012856D01*
X29592495Y53019447D01*
X29635060Y53023071D01*
X29666092Y52993061D01*
G37*
G36*
X29886345Y53656150D02*
G01*
X29897603Y53639470D01*
X29896304Y53591971D01*
X29860863Y53568750D01*
X29807381Y53575334D01*
X29771066Y53613022D01*
X29769341Y53627098D01*
X29793431Y53660403D01*
X29841073Y53673320D01*
X29886345Y53656150D01*
G37*
G36*
X30513956Y53286199D02*
G01*
X30549870Y53236646D01*
X30545052Y53165751D01*
X30520846Y53133981D01*
X30467515Y53125455D01*
X30412093Y53162033D01*
X30391971Y53221375D01*
X30415309Y53274654D01*
X30471726Y53297737D01*
X30513956Y53286199D01*
G37*
G36*
X30497062Y51666499D02*
G01*
X30532519Y51629708D01*
X30536112Y51579773D01*
X30524883Y51561502D01*
X30478274Y51537922D01*
X30433404Y51560601D01*
X30414621Y51611414D01*
X30433200Y51661837D01*
X30451208Y51673030D01*
X30497062Y51666499D01*
G37*
G36*
X31214414Y54226512D02*
G01*
X31230254Y54184573D01*
X31227159Y54152125D01*
X31209687Y54108194D01*
X31167050Y54092012D01*
X31119830Y54113247D01*
X31098268Y54163381D01*
X31109070Y54201872D01*
X31164261Y54231013D01*
X31214414Y54226512D01*
G37*
G36*
X31321930Y52279225D02*
G01*
X31335698Y52257749D01*
X31337725Y52199824D01*
X31312567Y52167725D01*
X31259754Y52155734D01*
X31213850Y52186002D01*
X31209256Y52219055D01*
X31235845Y52262390D01*
X31280410Y52288490D01*
X31321930Y52279225D01*
G37*
G36*
X31397856Y50678964D02*
G01*
X31420591Y50645831D01*
X31422641Y50602168D01*
X31410594Y50587681D01*
X31360727Y50568806D01*
X31311301Y50583540D01*
X31288915Y50626953D01*
X31302403Y50683215D01*
X31343498Y50706889D01*
X31397856Y50678964D01*
G37*
G36*
X33018374Y51273942D02*
G01*
X33064740Y51250403D01*
X33080684Y51199108D01*
X33057896Y51146241D01*
X33030525Y51132215D01*
X32990303Y51151527D01*
X32966032Y51210254D01*
X32971499Y51259486D01*
X33017360Y51273950D01*
X33018374Y51273942D01*
G37*
G36*
X33455838Y51345052D02*
G01*
X33483801Y51295975D01*
X33477246Y51227787D01*
X33458854Y51200303D01*
X33415666Y51189470D01*
X33374831Y51216616D01*
X33356698Y51273950D01*
X33365678Y51321464D01*
X33408115Y51356374D01*
X33455838Y51345052D01*
G37*
G36*
X34329602Y41730243D02*
G01*
X34326176Y41685512D01*
X34318218Y41674991D01*
X34280601Y41653626D01*
X34252931Y41662905D01*
X34231539Y41703788D01*
X34247960Y41750039D01*
X34256006Y41756630D01*
X34298570Y41760253D01*
X34329602Y41730243D01*
G37*
G36*
X34738449Y50433631D02*
G01*
X34749441Y50376042D01*
X34729318Y50324591D01*
X34690589Y50309017D01*
X34638958Y50327413D01*
X34608017Y50376199D01*
X34610583Y50418535D01*
X34648842Y50460757D01*
X34710562Y50461516D01*
X34738449Y50433631D01*
G37*
G36*
X35648448Y49940016D02*
G01*
X35683585Y49892658D01*
X35677057Y49820045D01*
X35655130Y49794036D01*
X35593261Y49783382D01*
X35543257Y49805677D01*
X35527137Y49866097D01*
X35540838Y49923493D01*
X35593261Y49948813D01*
X35648448Y49940016D01*
G37*
G36*
X36091497Y49363247D02*
G01*
X36124593Y49327379D01*
X36126300Y49277650D01*
X36091744Y49241899D01*
X36074508Y49236995D01*
X36027027Y49249116D01*
X36011086Y49310554D01*
X36020507Y49346542D01*
X36069746Y49367483D01*
X36091497Y49363247D01*
G37*
G36*
X37021937Y45495828D02*
G01*
X37054904Y45455055D01*
X37054049Y45410713D01*
X37023699Y45384808D01*
X36969805Y45384723D01*
X36930174Y45424535D01*
X36925835Y45450455D01*
X36945969Y45503937D01*
X36976171Y45514901D01*
X37021937Y45495828D01*
G37*
G36*
X37679332Y43647483D02*
G01*
X37721622Y43619799D01*
X37734562Y43570946D01*
X37709182Y43528863D01*
X37682511Y43520051D01*
X37628112Y43543674D01*
X37606137Y43580563D01*
X37617429Y43627553D01*
X37670897Y43648084D01*
X37679332Y43647483D01*
G37*
G36*
X19004979Y50340308D02*
G01*
X19022052Y50290724D01*
X19000675Y50234096D01*
X18975563Y50214424D01*
X18922518Y50208872D01*
X18901376Y50224578D01*
X18887829Y50274538D01*
X18905004Y50328373D01*
X18948299Y50359247D01*
X18958831Y50360450D01*
X19004979Y50340308D01*
G37*
G36*
X19225569Y49584988D02*
G01*
X19224331Y49530771D01*
X19211737Y49508344D01*
X19175520Y49484804D01*
X19173233Y49484872D01*
X19136577Y49510319D01*
X19123687Y49561728D01*
X19142295Y49609963D01*
X19154373Y49619341D01*
X19196400Y49620159D01*
X19225569Y49584988D01*
G37*
G36*
X19341920Y39525891D02*
G01*
X19366815Y39482657D01*
X19359257Y39442060D01*
X19353777Y39437671D01*
X19307506Y39424527D01*
X19298382Y39425087D01*
X19255755Y39442060D01*
X19246818Y39475229D01*
X19267611Y39520091D01*
X19307506Y39541848D01*
X19341920Y39525891D01*
G37*
G36*
X19361334Y51039768D02*
G01*
X19395722Y50997094D01*
X19397236Y50954131D01*
X19377521Y50936823D01*
X19320440Y50921987D01*
X19303206Y50924762D01*
X19268736Y50959037D01*
X19264576Y51011554D01*
X19295656Y51055712D01*
X19315800Y51060423D01*
X19361334Y51039768D01*
G37*
G36*
X19445358Y49842633D02*
G01*
X19458479Y49820558D01*
X19458141Y49763245D01*
X19450870Y49749519D01*
X19407647Y49725466D01*
X19357944Y49739078D01*
X19327673Y49785865D01*
X19326603Y49795525D01*
X19347308Y49841631D01*
X19395439Y49861456D01*
X19445358Y49842633D01*
G37*
G36*
X21319866Y50452682D02*
G01*
X21362872Y50428531D01*
X21377484Y50377142D01*
X21355736Y50325605D01*
X21353143Y50323098D01*
X21309252Y50308722D01*
X21259034Y50348762D01*
X21238588Y50390367D01*
X21256062Y50434800D01*
X21318360Y50452703D01*
X21319866Y50452682D01*
G37*
G36*
X21791779Y53215612D02*
G01*
X21804899Y53193537D01*
X21804561Y53136225D01*
X21797290Y53122499D01*
X21754067Y53098445D01*
X21704364Y53112058D01*
X21674093Y53158844D01*
X21673023Y53168504D01*
X21693729Y53214610D01*
X21741859Y53234435D01*
X21791779Y53215612D01*
G37*
G36*
X22548565Y52388768D02*
G01*
X22572537Y52337171D01*
X22572915Y52334408D01*
X22566206Y52284575D01*
X22519169Y52271178D01*
X22516544Y52271194D01*
X22471227Y52285694D01*
X22465801Y52337171D01*
X22481226Y52378198D01*
X22519169Y52403164D01*
X22548565Y52388768D01*
G37*
G36*
X22642356Y50429238D02*
G01*
X22655476Y50407163D01*
X22655138Y50349850D01*
X22647868Y50336124D01*
X22604645Y50312071D01*
X22554941Y50325683D01*
X22524671Y50372470D01*
X22523600Y50382130D01*
X22544306Y50428236D01*
X22592437Y50448061D01*
X22642356Y50429238D01*
G37*
G36*
X23713098Y54043187D02*
G01*
X23711859Y53988970D01*
X23699266Y53966543D01*
X23663049Y53943003D01*
X23660762Y53943071D01*
X23624106Y53968518D01*
X23611216Y54019927D01*
X23629824Y54068161D01*
X23641902Y54077540D01*
X23683928Y54078357D01*
X23713098Y54043187D01*
G37*
G36*
X24548118Y53893739D02*
G01*
X24587255Y53840808D01*
X24591154Y53782060D01*
X24572463Y53758111D01*
X24516083Y53739314D01*
X24453639Y53748591D01*
X24413602Y53785404D01*
X24411390Y53832898D01*
X24443648Y53888965D01*
X24498961Y53913672D01*
X24548118Y53893739D01*
G37*
G36*
X25074139Y54324275D02*
G01*
X25117144Y54300124D01*
X25131756Y54248736D01*
X25110008Y54197198D01*
X25107416Y54194692D01*
X25063524Y54180315D01*
X25013307Y54220355D01*
X24992860Y54261961D01*
X25010335Y54306394D01*
X25072632Y54324296D01*
X25074139Y54324275D01*
G37*
G36*
X26481991Y52095176D02*
G01*
X26524997Y52071025D01*
X26539608Y52019637D01*
X26517860Y51968099D01*
X26515268Y51965592D01*
X26471377Y51951216D01*
X26421159Y51991256D01*
X26400712Y52032861D01*
X26418187Y52077295D01*
X26480484Y52095197D01*
X26481991Y52095176D01*
G37*
G36*
X26811835Y54195108D02*
G01*
X26830716Y54155354D01*
X26828013Y54122906D01*
X26813184Y54081898D01*
X26813181Y54081895D01*
X26772495Y54073077D01*
X26732596Y54099706D01*
X26719625Y54144336D01*
X26732039Y54173630D01*
X26771026Y54200415D01*
X26811835Y54195108D01*
G37*
G36*
X26980605Y51743213D02*
G01*
X27023611Y51719062D01*
X27038223Y51667674D01*
X27016475Y51616136D01*
X27013882Y51613629D01*
X26969991Y51599253D01*
X26919773Y51639293D01*
X26899327Y51680898D01*
X26916801Y51725332D01*
X26979099Y51743234D01*
X26980605Y51743213D01*
G37*
G36*
X29318688Y54474798D02*
G01*
X29347826Y54419619D01*
X29349788Y54399550D01*
X29335833Y54362672D01*
X29279793Y54353626D01*
X29256360Y54354383D01*
X29215428Y54370746D01*
X29211760Y54419619D01*
X29227341Y54461649D01*
X29279793Y54485612D01*
X29318688Y54474798D01*
G37*
G36*
X31676074Y52042402D02*
G01*
X31689195Y52020327D01*
X31688857Y51963014D01*
X31681586Y51949288D01*
X31638363Y51925235D01*
X31588659Y51938847D01*
X31558389Y51985634D01*
X31557319Y51995294D01*
X31578024Y52041400D01*
X31626155Y52061225D01*
X31676074Y52042402D01*
G37*
G36*
X31802660Y52809304D02*
G01*
X31821453Y52756626D01*
X31797306Y52701355D01*
X31779750Y52691377D01*
X31723980Y52681802D01*
X31690875Y52697511D01*
X31670128Y52745804D01*
X31674474Y52800993D01*
X31706871Y52836353D01*
X31754106Y52839715D01*
X31802660Y52809304D01*
G37*
G36*
X33909140Y52447620D02*
G01*
X33943528Y52404947D01*
X33945042Y52361984D01*
X33925327Y52344675D01*
X33868246Y52329839D01*
X33851012Y52332614D01*
X33816542Y52366890D01*
X33812382Y52419406D01*
X33843462Y52463564D01*
X33863606Y52468276D01*
X33909140Y52447620D01*
G37*
G36*
X34612033Y49634388D02*
G01*
X34623724Y49613663D01*
X34621882Y49557934D01*
X34615785Y49546053D01*
X34572912Y49520596D01*
X34522630Y49532153D01*
X34492142Y49576774D01*
X34491294Y49587743D01*
X34514929Y49630585D01*
X34564130Y49650436D01*
X34612033Y49634388D01*
G37*
G36*
X34972511Y46449512D02*
G01*
X34984618Y46389156D01*
X34964973Y46336690D01*
X34943411Y46322070D01*
X34887411Y46324742D01*
X34839524Y46372717D01*
X34833896Y46385560D01*
X34837164Y46444006D01*
X34878307Y46482623D01*
X34940158Y46482655D01*
X34972511Y46449512D01*
G37*
G36*
X35034576Y47766512D02*
G01*
X35033337Y47712295D01*
X35020744Y47689869D01*
X34984527Y47666328D01*
X34982240Y47666397D01*
X34945584Y47691844D01*
X34932694Y47743252D01*
X34951302Y47791487D01*
X34963380Y47800866D01*
X35005407Y47801683D01*
X35034576Y47766512D01*
G37*
G36*
X35372830Y48873591D02*
G01*
X35385379Y48852119D01*
X35384511Y48795458D01*
X35359901Y48765430D01*
X35307144Y48754731D01*
X35256482Y48776076D01*
X35233834Y48824472D01*
X35234414Y48833297D01*
X35263646Y48879967D01*
X35318423Y48896451D01*
X35372830Y48873591D01*
G37*
G36*
X35901656Y41025647D02*
G01*
X35923095Y40983919D01*
X35920339Y40953724D01*
X35903542Y40910593D01*
X35880056Y40896679D01*
X35829341Y40902980D01*
X35790343Y40939523D01*
X35785915Y40990735D01*
X35805469Y41018483D01*
X35854078Y41037585D01*
X35901656Y41025647D01*
G37*
G36*
X21286191Y50931469D02*
G01*
X21310076Y50880448D01*
X21286988Y50818957D01*
X21263720Y50795239D01*
X21228638Y50775335D01*
X21228525Y50775336D01*
X21185733Y50799774D01*
X21154207Y50853357D01*
X21151110Y50906948D01*
X21171778Y50932312D01*
X21228638Y50951317D01*
X21286191Y50931469D01*
G37*
G36*
X21628780Y51293510D02*
G01*
X21658756Y51254556D01*
X21638195Y51199339D01*
X21615797Y51176511D01*
X21580601Y51156629D01*
X21578840Y51156683D01*
X21538326Y51180944D01*
X21507977Y51229357D01*
X21506481Y51272665D01*
X21524739Y51288766D01*
X21580601Y51303280D01*
X21628780Y51293510D01*
G37*
G36*
X22785664Y53000933D02*
G01*
X22809370Y52947114D01*
X22806786Y52886685D01*
X22775809Y52848007D01*
X22769572Y52845640D01*
X22705724Y52843957D01*
X22653748Y52895642D01*
X22643541Y52923463D01*
X22657439Y52978468D01*
X22703103Y53016038D01*
X22763269Y53017039D01*
X22785664Y53000933D01*
G37*
G36*
X23232277Y53140279D02*
G01*
X23252425Y53097314D01*
X23249670Y53067119D01*
X23232872Y53023988D01*
X23215316Y53014010D01*
X23159546Y53004435D01*
X23120550Y53019172D01*
X23105774Y53077760D01*
X23106084Y53091273D01*
X23123284Y53138972D01*
X23179100Y53151086D01*
X23232277Y53140279D01*
G37*
G36*
X23266767Y52211847D02*
G01*
X23301682Y52150437D01*
X23302009Y52084518D01*
X23277102Y52052633D01*
X23219163Y52035912D01*
X23158032Y52052521D01*
X23118821Y52100294D01*
X23115390Y52120603D01*
X23133311Y52181171D01*
X23179095Y52225685D01*
X23234479Y52233165D01*
X23266767Y52211847D01*
G37*
G36*
X23853696Y52780399D02*
G01*
X23862100Y52775853D01*
X23890782Y52729107D01*
X23897155Y52664095D01*
X23876900Y52612127D01*
X23864849Y52602551D01*
X23808871Y52594840D01*
X23755587Y52626122D01*
X23727455Y52685388D01*
X23734835Y52745807D01*
X23780097Y52786247D01*
X23853696Y52780399D01*
G37*
G36*
X33432670Y49087210D02*
G01*
X33452887Y49055253D01*
X33457959Y48995426D01*
X33439800Y48947083D01*
X33427466Y48935385D01*
X33405244Y48929607D01*
X33359097Y48945332D01*
X33335465Y48961755D01*
X33312703Y49015520D01*
X33329325Y49059738D01*
X33378203Y49092466D01*
X33432670Y49087210D01*
G37*
G36*
X33780879Y49054333D02*
G01*
X33804764Y49003311D01*
X33781677Y48941821D01*
X33758408Y48918103D01*
X33723326Y48898199D01*
X33723213Y48898199D01*
X33680421Y48922638D01*
X33648895Y48976221D01*
X33645799Y49029812D01*
X33666466Y49055176D01*
X33723326Y49074181D01*
X33780879Y49054333D01*
G37*
G36*
X33742002Y50505257D02*
G01*
X33767646Y50466131D01*
X33772253Y50410981D01*
X33751203Y50384558D01*
X33693996Y50364712D01*
X33683542Y50365184D01*
X33628952Y50391738D01*
X33614203Y50444965D01*
X33645990Y50505257D01*
X33666732Y50524883D01*
X33700983Y50537526D01*
X33742002Y50505257D01*
G37*
G36*
X35503109Y44301317D02*
G01*
X35536509Y44242021D01*
X35538357Y44224256D01*
X35525450Y44185603D01*
X35470516Y44176028D01*
X35451875Y44176584D01*
X35406392Y44194679D01*
X35395151Y44251394D01*
X35395742Y44271598D01*
X35411850Y44313453D01*
X35461144Y44317387D01*
X35503109Y44301317D01*
G37*
G36*
X27385153Y42160825D02*
G01*
X27449424Y42100601D01*
X27472146Y42014354D01*
X27445620Y41915670D01*
X27439401Y41905420D01*
X27389741Y41869563D01*
X27300000Y41858938D01*
X27207447Y41874259D01*
X27144665Y41928593D01*
X27124019Y42023349D01*
X27149841Y42098509D01*
X27213669Y42157627D01*
X27294904Y42181571D01*
X27385153Y42160825D01*
G37*
G36*
X34109840Y49787397D02*
G01*
X34167911Y49736216D01*
X34192610Y49675451D01*
X34183917Y49643562D01*
X34146520Y49589555D01*
X34110500Y49563301D01*
X34045959Y49543465D01*
X33982077Y49563505D01*
X33924006Y49614686D01*
X33899308Y49675451D01*
X33921575Y49732944D01*
X33978442Y49785208D01*
X34045959Y49807437D01*
X34109840Y49787397D01*
G37*
G36*
X27326581Y50363635D02*
G01*
X27429860Y50330687D01*
X27494615Y50254660D01*
X27517044Y50139497D01*
X27503453Y50052019D01*
X27449268Y49979640D01*
X27384221Y49943450D01*
X27300000Y49924758D01*
X27281401Y49925433D01*
X27178473Y49958497D01*
X27108666Y50033473D01*
X27082957Y50139497D01*
X27083994Y50167078D01*
X27115747Y50274246D01*
X27189015Y50341438D01*
X27300000Y50364712D01*
X27326581Y50363635D01*
G37*
G36*
X27467646Y45377760D02*
G01*
X27548262Y45303195D01*
X27601130Y45206770D01*
X27621807Y45099002D01*
X27605848Y44990408D01*
X27548809Y44891505D01*
X27446244Y44812810D01*
X27366685Y44783298D01*
X27233980Y44781683D01*
X27102245Y44837919D01*
X27025414Y44915922D01*
X26984607Y45022570D01*
X26983534Y45139511D01*
X27019830Y45252250D01*
X27091131Y45346294D01*
X27195075Y45407150D01*
X27240953Y45419238D01*
X27363729Y45419946D01*
X27467646Y45377760D01*
G37*
G36*
X31733859Y32978613D02*
G01*
X31754795Y32938085D01*
X31774334Y32868299D01*
X31775895Y32860266D01*
X31780060Y32814195D01*
X31763265Y32782580D01*
X31714036Y32754156D01*
X31620900Y32717658D01*
X31540118Y32688674D01*
X31460317Y32662634D01*
X31416438Y32651665D01*
X31406370Y32654049D01*
X31374489Y32690993D01*
X31346999Y32753726D01*
X31332766Y32817950D01*
X31340656Y32859363D01*
X31372373Y32879627D01*
X31444334Y32910220D01*
X31534653Y32940932D01*
X31625139Y32966246D01*
X31697604Y32980645D01*
X31733859Y32978613D01*
G37*
G36*
X34948347Y35521285D02*
G01*
X34987898Y35486555D01*
X35056720Y35415294D01*
X35148751Y35314118D01*
X35257927Y35189646D01*
X35378184Y35048493D01*
X35777459Y34573383D01*
X35696293Y34507008D01*
X35686085Y34498863D01*
X35627634Y34459784D01*
X35591095Y34447519D01*
X35587503Y34449895D01*
X35552681Y34484943D01*
X35487924Y34556387D01*
X35399183Y34657472D01*
X35292406Y34781445D01*
X35173543Y34921551D01*
X34780023Y35388696D01*
X34843392Y35456150D01*
X34843604Y35456375D01*
X34898853Y35503863D01*
X34942835Y35523603D01*
X34948347Y35521285D01*
G37*
G36*
X25693062Y51700708D02*
G01*
X25698694Y51676211D01*
X25743163Y51565800D01*
X25816831Y51498171D01*
X25931423Y51461565D01*
X26053465Y51439594D01*
X25923076Y51415983D01*
X25854957Y51400788D01*
X25768821Y51360726D01*
X25719626Y51292693D01*
X25693573Y51182662D01*
X25675479Y51053973D01*
X25652378Y51184361D01*
X25637100Y51254279D01*
X25598522Y51337680D01*
X25531602Y51386417D01*
X25421266Y51415568D01*
X25290878Y51438765D01*
X25408199Y51461495D01*
X25432302Y51466587D01*
X25544496Y51509851D01*
X25613150Y51583186D01*
X25648751Y51696854D01*
X25668438Y51816559D01*
X25693062Y51700708D01*
G37*
G36*
X27434658Y49644965D02*
G01*
X27447585Y49580127D01*
X27458022Y49515925D01*
X27491580Y49442535D01*
X27517059Y49396406D01*
X27534642Y49321837D01*
X27532362Y49298168D01*
X27495146Y49212196D01*
X27426603Y49135882D01*
X27345306Y49091795D01*
X27293034Y49067615D01*
X27241155Y49015174D01*
X27229646Y48995557D01*
X27191263Y48959761D01*
X27163580Y48979445D01*
X27152416Y49052183D01*
X27139642Y49134362D01*
X27108421Y49204440D01*
X27083161Y49251054D01*
X27065358Y49330427D01*
X27079249Y49385373D01*
X27128496Y49459716D01*
X27195739Y49519156D01*
X27262282Y49543465D01*
X27302177Y49555694D01*
X27351854Y49602125D01*
X27357418Y49610729D01*
X27402398Y49655672D01*
X27434658Y49644965D01*
G37*
G36*
X39626404Y48610723D02*
G01*
X39645785Y48540916D01*
X39653425Y48476216D01*
X39644450Y48441363D01*
X39642797Y48440468D01*
X39600585Y48423683D01*
X39512895Y48391837D01*
X39388724Y48348105D01*
X39237069Y48295658D01*
X39066929Y48237672D01*
X39042619Y48229449D01*
X38875267Y48173141D01*
X38728104Y48124124D01*
X38609966Y48085306D01*
X38529686Y48059593D01*
X38496099Y48049891D01*
X38479041Y48061353D01*
X38450720Y48110430D01*
X38426457Y48176991D01*
X38416167Y48237739D01*
X38430921Y48253593D01*
X38498290Y48288365D01*
X38617974Y48337257D01*
X38787554Y48399299D01*
X39004609Y48473523D01*
X39065481Y48493741D01*
X39234393Y48549064D01*
X39380692Y48595843D01*
X39496139Y48631513D01*
X39572496Y48653512D01*
X39601525Y48659275D01*
X39626404Y48610723D01*
G37*
G36*
X26340339Y57605018D02*
G01*
X26359292Y57581863D01*
X26363094Y57532358D01*
X26365638Y57485521D01*
X26372526Y57387167D01*
X26383072Y57247228D01*
X26396606Y57074387D01*
X26412460Y56877326D01*
X26429963Y56664727D01*
X26495169Y55881486D01*
X26362308Y55870764D01*
X26324108Y55867540D01*
X26247856Y55860137D01*
X26207448Y55854756D01*
X26193323Y55866177D01*
X26184077Y55915462D01*
X26181290Y55960926D01*
X26174056Y56056648D01*
X26163060Y56194125D01*
X26148981Y56364986D01*
X26132500Y56560859D01*
X26114300Y56773372D01*
X26113561Y56781937D01*
X26096002Y56990284D01*
X26080918Y57178499D01*
X26068860Y57338924D01*
X26060381Y57463899D01*
X26056033Y57545766D01*
X26056368Y57576865D01*
X26069727Y57581901D01*
X26127877Y57592388D01*
X26214136Y57602595D01*
X26291070Y57608975D01*
X26340339Y57605018D01*
G37*
G36*
X25339877Y32865206D02*
G01*
X25405004Y32854966D01*
X25443854Y32841891D01*
X25444016Y32839091D01*
X25438653Y32795042D01*
X25425113Y32704238D01*
X25404742Y32575267D01*
X25378892Y32416717D01*
X25348908Y32237179D01*
X25340456Y32187043D01*
X25310892Y32010452D01*
X25285331Y31855909D01*
X25265232Y31732358D01*
X25252056Y31648746D01*
X25247261Y31614018D01*
X25239069Y31608944D01*
X25192318Y31606842D01*
X25124558Y31612023D01*
X25059431Y31622264D01*
X25020581Y31635339D01*
X25020419Y31638138D01*
X25025782Y31682187D01*
X25039322Y31772992D01*
X25059693Y31901963D01*
X25085544Y32060512D01*
X25115527Y32240051D01*
X25123979Y32290186D01*
X25153543Y32466777D01*
X25179104Y32621321D01*
X25199203Y32744871D01*
X25212379Y32828483D01*
X25217174Y32863212D01*
X25225366Y32868285D01*
X25272117Y32870387D01*
X25339877Y32865206D01*
G37*
G36*
X27446397Y32216617D02*
G01*
X27445948Y32112632D01*
X27443521Y31938266D01*
X27439358Y31780286D01*
X27433869Y31652784D01*
X27427468Y31569849D01*
X27413002Y31480314D01*
X27393872Y31435174D01*
X27366664Y31430531D01*
X27363886Y31431391D01*
X27312925Y31437367D01*
X27217557Y31442230D01*
X27090350Y31445501D01*
X26943868Y31446698D01*
X26563203Y31446698D01*
X26572306Y31556686D01*
X26581409Y31666675D01*
X26896719Y31666675D01*
X27212029Y31666675D01*
X27212019Y31805994D01*
X27212010Y31945312D01*
X27050693Y31945312D01*
X26889377Y31945312D01*
X26889377Y32062633D01*
X26889377Y32179954D01*
X27050693Y32179954D01*
X27212010Y32179954D01*
X27212010Y32326606D01*
X27212010Y32473257D01*
X26904042Y32473257D01*
X26596074Y32473257D01*
X26596074Y32590578D01*
X26596074Y32707899D01*
X27021363Y32707899D01*
X27446652Y32707899D01*
X27446397Y32216617D01*
G37*
G36*
X35801737Y36123520D02*
G01*
X35828688Y36095497D01*
X35905452Y36015765D01*
X36007539Y35909801D01*
X36124878Y35788059D01*
X36247397Y35660990D01*
X36581618Y35314428D01*
X36274354Y35024463D01*
X36229186Y34981954D01*
X36124377Y34884263D01*
X36038361Y34805427D01*
X35979041Y34752639D01*
X35954316Y34733092D01*
X35952011Y34733212D01*
X35917435Y34755364D01*
X35868469Y34801148D01*
X35824715Y34850653D01*
X35805774Y34883969D01*
X35812751Y34896934D01*
X35853596Y34944907D01*
X35922839Y35016722D01*
X36011086Y35102386D01*
X36063968Y35153160D01*
X36142381Y35232346D01*
X36196326Y35292081D01*
X36216398Y35322291D01*
X36206678Y35338543D01*
X36162397Y35392090D01*
X36088492Y35474529D01*
X35991787Y35578305D01*
X35879100Y35695864D01*
X35798967Y35779199D01*
X35696699Y35888238D01*
X35615197Y35978388D01*
X35561289Y36042043D01*
X35541802Y36071597D01*
X35542119Y36074521D01*
X35565949Y36115186D01*
X35616050Y36169735D01*
X35690297Y36239487D01*
X35801737Y36123520D01*
G37*
G36*
X38569648Y40984004D02*
G01*
X38624929Y40967550D01*
X38721178Y40936167D01*
X38847668Y40893599D01*
X38993669Y40843587D01*
X39148455Y40789874D01*
X39301298Y40736204D01*
X39441470Y40686318D01*
X39558244Y40643959D01*
X39640892Y40612870D01*
X39678685Y40596793D01*
X39690915Y40578448D01*
X39692119Y40539751D01*
X39680162Y40475244D01*
X39653432Y40379152D01*
X39610317Y40245699D01*
X39549205Y40069109D01*
X39468484Y39843607D01*
X39448676Y39803771D01*
X39415124Y39793273D01*
X39348555Y39811298D01*
X39338550Y39814701D01*
X39273769Y39838170D01*
X39241711Y39852317D01*
X39242986Y39868045D01*
X39258661Y39929384D01*
X39287465Y40025617D01*
X39325922Y40144671D01*
X39336742Y40177373D01*
X39375416Y40301643D01*
X39394720Y40382651D01*
X39396363Y40429759D01*
X39382052Y40452330D01*
X39363678Y40460831D01*
X39294957Y40487441D01*
X39187320Y40526541D01*
X39051165Y40574385D01*
X38896888Y40627225D01*
X38450173Y40778357D01*
X38488629Y40886026D01*
X38494673Y40901858D01*
X38531052Y40965366D01*
X38566949Y40984648D01*
X38569648Y40984004D01*
G37*
G36*
X27367129Y46439115D02*
G01*
X27441270Y46413378D01*
X27510696Y46350004D01*
X27568838Y46263968D01*
X27593303Y46171432D01*
X27593303Y46171190D01*
X27604056Y46110924D01*
X27644098Y46057327D01*
X27725289Y45994504D01*
X27777570Y45956237D01*
X27834966Y45906609D01*
X27857275Y45875774D01*
X27857095Y45872199D01*
X27833291Y45850543D01*
X27766588Y45856883D01*
X27652837Y45891540D01*
X27638519Y45896542D01*
X27562416Y45918396D01*
X27513016Y45916729D01*
X27466641Y45891540D01*
X27459259Y45886829D01*
X27383023Y45859153D01*
X27291218Y45847853D01*
X27200380Y45864662D01*
X27103186Y45921283D01*
X27033422Y46004569D01*
X27006698Y46100649D01*
X26997222Y46151169D01*
X26953692Y46220470D01*
X26867379Y46306903D01*
X26800714Y46368310D01*
X26764145Y46409202D01*
X26763806Y46428079D01*
X26794996Y46433143D01*
X26804054Y46432967D01*
X26880674Y46419197D01*
X26968212Y46390050D01*
X26973330Y46387919D01*
X27043665Y46362970D01*
X27087118Y46364811D01*
X27127983Y46394050D01*
X27129925Y46395754D01*
X27202641Y46429566D01*
X27304781Y46442457D01*
X27367129Y46439115D01*
G37*
G36*
X33008476Y34152852D02*
G01*
X33039729Y34103595D01*
X33072874Y34040083D01*
X33097030Y33983344D01*
X33101315Y33954409D01*
X33091953Y33948694D01*
X33042972Y33922484D01*
X32968172Y33884169D01*
X32843619Y33821358D01*
X33076146Y33356987D01*
X33308674Y32892615D01*
X33215365Y32846128D01*
X33204273Y32840642D01*
X33140734Y32810891D01*
X33106610Y32797765D01*
X33095410Y32811947D01*
X33061462Y32870668D01*
X33009863Y32967026D01*
X32945177Y33092453D01*
X32871968Y33238381D01*
X32816446Y33349532D01*
X32748213Y33483392D01*
X32691543Y33591415D01*
X32651158Y33664641D01*
X32631780Y33694109D01*
X32621029Y33695402D01*
X32568528Y33680914D01*
X32493630Y33647576D01*
X32459991Y33630728D01*
X32394372Y33599990D01*
X32361391Y33587806D01*
X32357923Y33589438D01*
X32332799Y33622074D01*
X32299079Y33679298D01*
X32269503Y33738199D01*
X32256813Y33775865D01*
X32257471Y33776850D01*
X32289013Y33797074D01*
X32359878Y33837288D01*
X32458996Y33891587D01*
X32575300Y33954064D01*
X32697719Y34018813D01*
X32815187Y34079927D01*
X32916632Y34131500D01*
X32990988Y34167625D01*
X33008476Y34152852D01*
G37*
G36*
X36394646Y36945631D02*
G01*
X36454463Y36897508D01*
X36542371Y36823313D01*
X36650354Y36730145D01*
X36770396Y36625101D01*
X36894484Y36515278D01*
X37014602Y36407774D01*
X37122735Y36309686D01*
X37210868Y36228112D01*
X37270987Y36170149D01*
X37295075Y36142895D01*
X37295545Y36140667D01*
X37281184Y36100942D01*
X37241678Y36041919D01*
X37231952Y36030143D01*
X37172101Y35987103D01*
X37109823Y35998687D01*
X37038054Y36065720D01*
X37019719Y36085312D01*
X36958661Y36141515D01*
X36882239Y36205133D01*
X36765185Y36297841D01*
X36668285Y36182423D01*
X36571386Y36067005D01*
X36481576Y36153049D01*
X36391765Y36239092D01*
X36494900Y36344712D01*
X36598034Y36450331D01*
X36495158Y36550043D01*
X36392282Y36649754D01*
X36238347Y36477747D01*
X36225869Y36463768D01*
X36147923Y36374915D01*
X36083710Y36299283D01*
X36046086Y36251969D01*
X36031670Y36232993D01*
X35992206Y36203134D01*
X35945403Y36214095D01*
X35875353Y36267308D01*
X35795010Y36336416D01*
X36071542Y36648601D01*
X36109112Y36690773D01*
X36205883Y36797065D01*
X36286917Y36882760D01*
X36344634Y36939964D01*
X36371452Y36960786D01*
X36394646Y36945631D01*
G37*
G36*
X20056140Y35210777D02*
G01*
X20110624Y35169270D01*
X20154560Y35121665D01*
X20168031Y35086035D01*
X20166125Y35082473D01*
X20137021Y35042040D01*
X20077853Y34965235D01*
X19994302Y34859279D01*
X19892053Y34731397D01*
X19776790Y34588812D01*
X19744932Y34549631D01*
X19633181Y34412632D01*
X19536007Y34294171D01*
X19458993Y34201013D01*
X19407724Y34139920D01*
X19387782Y34117655D01*
X19386225Y34117969D01*
X19353756Y34140261D01*
X19288575Y34191551D01*
X19200446Y34263578D01*
X19099133Y34348081D01*
X18994399Y34436800D01*
X18896010Y34521475D01*
X18813728Y34593845D01*
X18757317Y34645648D01*
X18736542Y34668625D01*
X18749990Y34699155D01*
X18791098Y34751510D01*
X18840196Y34798985D01*
X18876927Y34819677D01*
X18889874Y34814658D01*
X18942505Y34780281D01*
X19022011Y34720473D01*
X19116860Y34643696D01*
X19168107Y34601381D01*
X19254297Y34532714D01*
X19317907Y34485362D01*
X19347921Y34467714D01*
X19362371Y34479394D01*
X19409171Y34529762D01*
X19481248Y34612988D01*
X19572102Y34721519D01*
X19675228Y34847805D01*
X19750988Y34940546D01*
X19847186Y35054922D01*
X19927130Y35146034D01*
X19984114Y35206296D01*
X20011432Y35228123D01*
X20056140Y35210777D01*
G37*
G36*
X38234170Y40034213D02*
G01*
X38301212Y40007705D01*
X38404346Y39964462D01*
X38533604Y39908895D01*
X38679022Y39845413D01*
X38830634Y39778425D01*
X38978474Y39712343D01*
X39112576Y39651576D01*
X39222974Y39600533D01*
X39299703Y39563626D01*
X39332796Y39545263D01*
X39334245Y39539992D01*
X39323766Y39492144D01*
X39293488Y39404649D01*
X39247167Y39287751D01*
X39188558Y39151696D01*
X39168194Y39106422D01*
X39108582Y38977808D01*
X39057823Y38873957D01*
X39020757Y38804548D01*
X39002229Y38779261D01*
X38992941Y38780384D01*
X38943172Y38793828D01*
X38878111Y38815830D01*
X38821595Y38837951D01*
X38797460Y38851753D01*
X38802757Y38866058D01*
X38827301Y38924303D01*
X38867273Y39016377D01*
X38917618Y39130549D01*
X38951492Y39210367D01*
X38990376Y39314424D01*
X39012203Y39390466D01*
X39012942Y39425995D01*
X39001597Y39433503D01*
X38943740Y39463481D01*
X38847115Y39509673D01*
X38721702Y39567361D01*
X38577483Y39631826D01*
X38502617Y39665051D01*
X38366482Y39726614D01*
X38254091Y39778943D01*
X38175466Y39817330D01*
X38140628Y39837066D01*
X38136169Y39843741D01*
X38135680Y39892070D01*
X38154470Y39957738D01*
X38183498Y40015588D01*
X38213723Y40040462D01*
X38234170Y40034213D01*
G37*
G36*
X39072516Y42932099D02*
G01*
X39174326Y42913000D01*
X39158373Y42758426D01*
X39142419Y42603852D01*
X39578543Y42536985D01*
X39632823Y42528681D01*
X39816132Y42500633D01*
X39950602Y42478916D01*
X40043458Y42460918D01*
X40101927Y42444026D01*
X40133233Y42425628D01*
X40144602Y42403112D01*
X40143260Y42373864D01*
X40136433Y42335272D01*
X40134397Y42323097D01*
X40120673Y42255687D01*
X40109674Y42222807D01*
X40080646Y42224279D01*
X40005202Y42233785D01*
X39895054Y42249547D01*
X39761865Y42269726D01*
X39617301Y42292487D01*
X39473024Y42315991D01*
X39340700Y42338403D01*
X39231994Y42357884D01*
X39158568Y42372598D01*
X39141536Y42375759D01*
X39108866Y42369559D01*
X39089382Y42331258D01*
X39074173Y42247668D01*
X39067209Y42202117D01*
X39054064Y42128279D01*
X39044811Y42091929D01*
X39032021Y42082923D01*
X38979346Y42080040D01*
X38911087Y42092536D01*
X38851988Y42114813D01*
X38826790Y42141270D01*
X38828106Y42161028D01*
X38836918Y42232421D01*
X38852185Y42337359D01*
X38871747Y42462762D01*
X38893446Y42595549D01*
X38915124Y42722639D01*
X38934620Y42830953D01*
X38949777Y42907409D01*
X38958436Y42938928D01*
X38960670Y42940274D01*
X39001730Y42941672D01*
X39072516Y42932099D01*
G37*
G36*
X20530906Y34094122D02*
G01*
X20503582Y34022879D01*
X20438066Y33855939D01*
X20379593Y33712272D01*
X20331513Y33599806D01*
X20297176Y33526467D01*
X20279932Y33500184D01*
X20277201Y33500417D01*
X20234455Y33519276D01*
X20171740Y33559194D01*
X20158547Y33568654D01*
X20112719Y33608918D01*
X20105415Y33649638D01*
X20129583Y33717253D01*
X20147657Y33762790D01*
X20153336Y33807042D01*
X20126669Y33842526D01*
X20059310Y33889724D01*
X19947806Y33963514D01*
X19862256Y33896561D01*
X19776707Y33829609D01*
X19679163Y33896447D01*
X19581619Y33963285D01*
X19749205Y34113860D01*
X20149000Y34113860D01*
X20177185Y34090457D01*
X20211145Y34070699D01*
X20242492Y34057090D01*
X20243301Y34057271D01*
X20261544Y34085099D01*
X20289126Y34145448D01*
X20317509Y34216927D01*
X20338155Y34278146D01*
X20342526Y34307714D01*
X20333151Y34304815D01*
X20291121Y34274129D01*
X20228812Y34220098D01*
X20191087Y34184876D01*
X20151830Y34140805D01*
X20149000Y34113860D01*
X19749205Y34113860D01*
X20058190Y34391481D01*
X20116910Y34444026D01*
X20253014Y34564091D01*
X20372760Y34667356D01*
X20469405Y34748139D01*
X20536199Y34800759D01*
X20566399Y34819531D01*
X20569740Y34819224D01*
X20615633Y34797964D01*
X20677557Y34753538D01*
X20757077Y34687691D01*
X20612292Y34307714D01*
X20530906Y34094122D01*
G37*
G36*
X28479226Y32342818D02*
G01*
X28487070Y32194619D01*
X28493430Y32069565D01*
X28502844Y31908724D01*
X28512520Y31765080D01*
X28521141Y31659342D01*
X28538705Y31476028D01*
X28421081Y31476028D01*
X28303457Y31476028D01*
X28283215Y31732668D01*
X28262973Y31989308D01*
X28060978Y31979602D01*
X28027973Y31978090D01*
X27929874Y31976889D01*
X27863560Y31987509D01*
X27807793Y32015795D01*
X27741337Y32067592D01*
X27736165Y32071893D01*
X27672853Y32128596D01*
X27639207Y32178003D01*
X27625789Y32242094D01*
X27623944Y32312845D01*
X27861174Y32312845D01*
X27892472Y32244481D01*
X27916019Y32231664D01*
X27988420Y32215573D01*
X28083118Y32209284D01*
X28238569Y32209284D01*
X28238569Y32355936D01*
X28238569Y32502587D01*
X28087818Y32502587D01*
X28033389Y32501110D01*
X27946983Y32485895D01*
X27898104Y32451259D01*
X27869921Y32397673D01*
X27861174Y32312845D01*
X27623944Y32312845D01*
X27623162Y32342850D01*
X27624737Y32430754D01*
X27636292Y32502692D01*
X27666136Y32557285D01*
X27722464Y32617170D01*
X27744735Y32638463D01*
X27788600Y32674804D01*
X27835186Y32698249D01*
X27898466Y32712646D01*
X27992409Y32721841D01*
X28130988Y32729684D01*
X28439682Y32745439D01*
X28455123Y32646011D01*
X28461792Y32586509D01*
X28470422Y32478783D01*
X28478377Y32355936D01*
X28479226Y32342818D01*
G37*
G36*
X15490535Y47781322D02*
G01*
X15998887Y47655578D01*
X15970472Y47543632D01*
X15964156Y47520359D01*
X15941728Y47457340D01*
X15923627Y47432394D01*
X15910911Y47434821D01*
X15849681Y47449078D01*
X15747580Y47473940D01*
X15614776Y47506917D01*
X15461438Y47545522D01*
X15291203Y47586920D01*
X15129925Y47620900D01*
X15023022Y47635903D01*
X14971025Y47631835D01*
X14959924Y47623090D01*
X14922673Y47566626D01*
X14891899Y47485131D01*
X14880082Y47431380D01*
X14880322Y47374122D01*
X14904658Y47328053D01*
X14959805Y47288786D01*
X15052477Y47251932D01*
X15189388Y47213103D01*
X15377252Y47167910D01*
X15433016Y47154916D01*
X15576393Y47120510D01*
X15696100Y47090367D01*
X15780950Y47067359D01*
X15819757Y47054355D01*
X15836760Y47022040D01*
X15826251Y46940405D01*
X15823941Y46932277D01*
X15794704Y46870431D01*
X15760852Y46845081D01*
X15728006Y46850238D01*
X15649064Y46866795D01*
X15536606Y46892110D01*
X15401970Y46923454D01*
X15256493Y46958098D01*
X15111514Y46993312D01*
X14978368Y47026365D01*
X14868394Y47054529D01*
X14792930Y47075072D01*
X14763311Y47085266D01*
X14682952Y47214423D01*
X14642088Y47325875D01*
X14640269Y47426097D01*
X14655887Y47513915D01*
X14685376Y47634132D01*
X14722853Y47717576D01*
X14775622Y47778256D01*
X14850990Y47830181D01*
X14982184Y47907066D01*
X15490535Y47781322D01*
G37*
G36*
X21133491Y34434252D02*
G01*
X21174890Y34416038D01*
X21251773Y34376786D01*
X21352789Y34322775D01*
X21466586Y34260284D01*
X21581814Y34195594D01*
X21687122Y34134983D01*
X21771159Y34084731D01*
X21822573Y34051117D01*
X21831499Y34044376D01*
X21856312Y34016646D01*
X21851198Y33980914D01*
X21815004Y33916674D01*
X21756109Y33820253D01*
X21623035Y33898240D01*
X21570989Y33927522D01*
X21509294Y33958010D01*
X21481913Y33965331D01*
X21471763Y33948135D01*
X21436804Y33886903D01*
X21381759Y33789698D01*
X21311502Y33665131D01*
X21230907Y33521813D01*
X21167875Y33410365D01*
X21094245Y33282392D01*
X21034233Y33180632D01*
X20992785Y33113445D01*
X20974850Y33089192D01*
X20973283Y33089384D01*
X20936328Y33104127D01*
X20872841Y33135170D01*
X20843627Y33150225D01*
X20816921Y33168464D01*
X20804475Y33192535D01*
X20808667Y33230010D01*
X20831875Y33288459D01*
X20876477Y33375451D01*
X20944851Y33498559D01*
X21039374Y33665353D01*
X21077517Y33733110D01*
X21148832Y33862702D01*
X21206071Y33970644D01*
X21244146Y34047219D01*
X21257968Y34082713D01*
X21253177Y34094149D01*
X21211406Y34131826D01*
X21140647Y34174412D01*
X21107018Y34192503D01*
X21047070Y34231004D01*
X21023326Y34256472D01*
X21024068Y34260969D01*
X21044740Y34304855D01*
X21084201Y34369942D01*
X21129508Y34434526D01*
X21133491Y34434252D01*
G37*
G36*
X24158510Y57189430D02*
G01*
X24182988Y57110841D01*
X24231226Y56951760D01*
X24284236Y56772708D01*
X24339639Y56582156D01*
X24395054Y56388570D01*
X24448103Y56200422D01*
X24496405Y56026178D01*
X24537581Y55874308D01*
X24569251Y55753282D01*
X24589035Y55671567D01*
X24594554Y55637632D01*
X24567582Y55620830D01*
X24492680Y55590216D01*
X24379065Y55549654D01*
X24235842Y55502384D01*
X24072115Y55451648D01*
X23918557Y55405811D01*
X23770043Y55362169D01*
X23648931Y55327318D01*
X23564795Y55304013D01*
X23527212Y55295005D01*
X23521204Y55296313D01*
X23494953Y55331452D01*
X23469002Y55398819D01*
X23448946Y55477612D01*
X23440376Y55547031D01*
X23448887Y55586275D01*
X23450687Y55587586D01*
X23493209Y55605294D01*
X23579173Y55634581D01*
X23697106Y55671689D01*
X23835536Y55712862D01*
X23856845Y55719053D01*
X23991814Y55759163D01*
X24103727Y55793924D01*
X24181455Y55819795D01*
X24213866Y55833235D01*
X24213353Y55847107D01*
X24199987Y55909910D01*
X24173138Y56015830D01*
X24134927Y56156901D01*
X24087476Y56325157D01*
X24032908Y56512631D01*
X23997349Y56633988D01*
X23946886Y56809880D01*
X23904740Y56961336D01*
X23873057Y57080422D01*
X23853985Y57159203D01*
X23849670Y57189747D01*
X23860507Y57195846D01*
X23914704Y57216598D01*
X23995812Y57242759D01*
X24129037Y57282854D01*
X24158510Y57189430D01*
G37*
G36*
X38980967Y46957311D02*
G01*
X39004824Y46926976D01*
X39019603Y46852812D01*
X39023361Y46830901D01*
X39041223Y46751492D01*
X39058727Y46702807D01*
X39074046Y46694881D01*
X39129206Y46692907D01*
X39227612Y46702511D01*
X39373912Y46724197D01*
X39572748Y46758468D01*
X39703670Y46781651D01*
X39849320Y46806521D01*
X39965812Y46825353D01*
X40043635Y46836619D01*
X40073279Y46838793D01*
X40081592Y46820807D01*
X40094096Y46763925D01*
X40102374Y46694270D01*
X40104025Y46635277D01*
X40096653Y46610384D01*
X40069811Y46607469D01*
X39994278Y46595824D01*
X39883804Y46577245D01*
X39749983Y46553842D01*
X39604411Y46527723D01*
X39458681Y46500998D01*
X39324387Y46475775D01*
X39213124Y46454162D01*
X39136485Y46438270D01*
X39106064Y46430206D01*
X39103836Y46421300D01*
X39108009Y46369340D01*
X39122939Y46289675D01*
X39134234Y46232274D01*
X39134664Y46162167D01*
X39103001Y46124165D01*
X39032102Y46103638D01*
X38980822Y46094215D01*
X38941757Y46086489D01*
X38939689Y46088570D01*
X38927177Y46128857D01*
X38907951Y46211060D01*
X38884350Y46322879D01*
X38858713Y46452015D01*
X38833381Y46586169D01*
X38810692Y46713043D01*
X38792986Y46820338D01*
X38782603Y46895754D01*
X38781881Y46926994D01*
X38784164Y46928403D01*
X38824326Y46939330D01*
X38895546Y46952677D01*
X38930386Y46958021D01*
X38980967Y46957311D01*
G37*
G36*
X39826344Y44550532D02*
G01*
X39901799Y44514619D01*
X40021998Y44465850D01*
X40278638Y44364491D01*
X40287657Y44240929D01*
X40289187Y44208673D01*
X40285583Y44143292D01*
X40272992Y44117210D01*
X40265873Y44118466D01*
X40214094Y44135172D01*
X40127212Y44167251D01*
X40019470Y44209516D01*
X39789633Y44301981D01*
X39682661Y44195009D01*
X39643746Y44157446D01*
X39581786Y44111815D01*
X39514420Y44092214D01*
X39415121Y44088037D01*
X39358363Y44088931D01*
X39278253Y44099928D01*
X39215602Y44132225D01*
X39143327Y44196646D01*
X39032102Y44305254D01*
X39032102Y44621934D01*
X39032102Y44703973D01*
X39266744Y44703973D01*
X39266744Y44548522D01*
X39269174Y44489484D01*
X39281923Y44405669D01*
X39301940Y44357876D01*
X39332381Y44338226D01*
X39400050Y44322679D01*
X39417903Y44323684D01*
X39494544Y44359362D01*
X39543089Y44442233D01*
X39560047Y44566963D01*
X39560047Y44703973D01*
X39413395Y44703973D01*
X39266744Y44703973D01*
X39032102Y44703973D01*
X39032102Y44938615D01*
X39508719Y44938870D01*
X39598559Y44939229D01*
X39771297Y44941560D01*
X39928611Y44945688D01*
X40056088Y44951184D01*
X40139319Y44957620D01*
X40293303Y44976116D01*
X40293303Y44854709D01*
X40293303Y44733303D01*
X40029331Y44733303D01*
X39765358Y44733303D01*
X39765358Y44650256D01*
X39768442Y44613417D01*
X39785327Y44580996D01*
X39804221Y44566963D01*
X39826344Y44550532D01*
G37*
G36*
X16432716Y39580759D02*
G01*
X16322571Y39494643D01*
X16188890Y39392142D01*
X16038606Y39278704D01*
X15526749Y38895189D01*
X15484835Y39000274D01*
X15476601Y39021205D01*
X15458804Y39084278D01*
X15471901Y39130033D01*
X15521582Y39187462D01*
X15600243Y39269566D01*
X15548139Y39378828D01*
X15539356Y39396982D01*
X15502494Y39457142D01*
X15459336Y39479390D01*
X15387122Y39477703D01*
X15366103Y39475850D01*
X15303686Y39478073D01*
X15267222Y39507282D01*
X15266506Y39508841D01*
X15750070Y39508841D01*
X15760993Y39472720D01*
X15771570Y39451102D01*
X15806900Y39428556D01*
X15863210Y39447900D01*
X15948694Y39510797D01*
X16050853Y39595489D01*
X15907110Y39568635D01*
X15889518Y39565341D01*
X15802645Y39547479D01*
X15760058Y39531203D01*
X15750070Y39508841D01*
X15266506Y39508841D01*
X15234766Y39577908D01*
X15224826Y39604199D01*
X15205883Y39664440D01*
X15204798Y39688499D01*
X15207608Y39688805D01*
X15252253Y39695855D01*
X15343701Y39711106D01*
X15473146Y39733068D01*
X15631786Y39760248D01*
X15810817Y39791155D01*
X15852915Y39798433D01*
X16030298Y39828742D01*
X16186895Y39854945D01*
X16313459Y39875530D01*
X16400742Y39888989D01*
X16439496Y39893811D01*
X16445757Y39892630D01*
X16483351Y39860017D01*
X16523793Y39799725D01*
X16553672Y39734737D01*
X16559576Y39688036D01*
X16554676Y39682055D01*
X16512395Y39645045D01*
X16450973Y39595489D01*
X16432716Y39580759D01*
G37*
G36*
X15584479Y42049774D02*
G01*
X15643392Y42022650D01*
X15735965Y41966591D01*
X15746380Y41959956D01*
X15803901Y41917401D01*
X15841122Y41869446D01*
X15867965Y41798595D01*
X15894357Y41687350D01*
X15938878Y41479992D01*
X15860597Y41354165D01*
X15782316Y41228338D01*
X15403803Y41135546D01*
X15376599Y41128901D01*
X15234852Y41095052D01*
X15113638Y41067347D01*
X15025077Y41048493D01*
X14981294Y41041197D01*
X14962641Y41044457D01*
X14899264Y41072266D01*
X14821801Y41119501D01*
X14766231Y41161872D01*
X14720531Y41214916D01*
X14687396Y41288030D01*
X14655645Y41400096D01*
X14604986Y41600829D01*
X14683149Y41730234D01*
X14711293Y41773048D01*
X14778708Y41849105D01*
X14840359Y41885410D01*
X14886788Y41875229D01*
X14890997Y41867314D01*
X14899053Y41813992D01*
X14899569Y41733233D01*
X14893767Y41587286D01*
X14892393Y41482943D01*
X14896409Y41415187D01*
X14906499Y41372859D01*
X14923347Y41344799D01*
X14929078Y41338282D01*
X14962638Y41314335D01*
X15012176Y41304654D01*
X15087787Y41309739D01*
X15199569Y41330087D01*
X15357617Y41366194D01*
X15363963Y41367718D01*
X15517290Y41409594D01*
X15614907Y41448137D01*
X15659504Y41484398D01*
X15676418Y41547575D01*
X15668494Y41639997D01*
X15634643Y41724649D01*
X15581469Y41776783D01*
X15563875Y41787438D01*
X15518569Y41844085D01*
X15491487Y41919500D01*
X15488241Y41991748D01*
X15514438Y42038895D01*
X15544827Y42052664D01*
X15584479Y42049774D01*
G37*
G36*
X25672959Y57544948D02*
G01*
X25682178Y57512528D01*
X25698586Y57431386D01*
X25720747Y57310405D01*
X25747230Y57158461D01*
X25776606Y56984431D01*
X25807444Y56797191D01*
X25838313Y56605619D01*
X25867784Y56418591D01*
X25894425Y56244985D01*
X25916807Y56093676D01*
X25933499Y55973542D01*
X25943071Y55893460D01*
X25944092Y55862306D01*
X25925885Y55855897D01*
X25857697Y55840019D01*
X25748695Y55817891D01*
X25608825Y55791507D01*
X25448032Y55762862D01*
X25336062Y55743406D01*
X25155571Y55712435D01*
X25021886Y55691593D01*
X24927646Y55681373D01*
X24865492Y55682267D01*
X24828063Y55694768D01*
X24807999Y55719367D01*
X24797941Y55756556D01*
X24790527Y55806829D01*
X24785245Y55847325D01*
X24780564Y55919732D01*
X24785547Y55955185D01*
X24787427Y55956343D01*
X24829320Y55967736D01*
X24915888Y55985531D01*
X25035795Y56007522D01*
X25177707Y56031504D01*
X25201760Y56035447D01*
X25341993Y56059822D01*
X25459227Y56082478D01*
X25541799Y56101036D01*
X25578045Y56113120D01*
X25579395Y56119237D01*
X25576673Y56171086D01*
X25566214Y56267163D01*
X25549475Y56397674D01*
X25527911Y56552823D01*
X25502981Y56722814D01*
X25476140Y56897852D01*
X25448847Y57068142D01*
X25422558Y57223887D01*
X25398729Y57355294D01*
X25378819Y57452566D01*
X25375283Y57473540D01*
X25384229Y57503287D01*
X25425775Y57521493D01*
X25512860Y57536235D01*
X25567577Y57542846D01*
X25639747Y57547953D01*
X25672959Y57544948D01*
G37*
G36*
X40195374Y46043549D02*
G01*
X40199259Y46034934D01*
X40210801Y45979358D01*
X40224010Y45885788D01*
X40236727Y45768578D01*
X40239499Y45739383D01*
X40253292Y45596706D01*
X40266807Y45460434D01*
X40277473Y45356571D01*
X40293815Y45202587D01*
X40178990Y45202587D01*
X40064166Y45202587D01*
X40048029Y45341906D01*
X40041440Y45399538D01*
X40027130Y45527606D01*
X40013440Y45653039D01*
X39994989Y45824853D01*
X39905837Y45807022D01*
X39831361Y45794844D01*
X39766612Y45789192D01*
X39752090Y45787868D01*
X39731087Y45770229D01*
X39724712Y45721367D01*
X39729914Y45627876D01*
X39743292Y45466559D01*
X39622339Y45466559D01*
X39501386Y45466559D01*
X39501386Y45614818D01*
X39501386Y45763076D01*
X39362067Y45754136D01*
X39222749Y45745197D01*
X39230507Y45495890D01*
X39231752Y45459979D01*
X39237750Y45339283D01*
X39245298Y45239937D01*
X39253063Y45180589D01*
X39254539Y45173761D01*
X39255278Y45134677D01*
X39225947Y45118063D01*
X39152312Y45114596D01*
X39132436Y45114673D01*
X39084291Y45118543D01*
X39050889Y45135015D01*
X39028438Y45173271D01*
X39013151Y45242491D01*
X39001239Y45351859D01*
X38988913Y45510555D01*
X38987758Y45525946D01*
X38977138Y45653376D01*
X38965877Y45768981D01*
X38956227Y45849408D01*
X38940907Y45953619D01*
X39559667Y46007058D01*
X39622529Y46012393D01*
X39801072Y46026457D01*
X39956434Y46037110D01*
X40079811Y46043847D01*
X40162393Y46046161D01*
X40195374Y46043549D01*
G37*
G36*
X16170562Y48160486D02*
G01*
X16156042Y48118255D01*
X16116145Y48002702D01*
X16083276Y47908178D01*
X16063420Y47851919D01*
X16056141Y47834590D01*
X16042657Y47820316D01*
X16017372Y47815393D01*
X15973017Y47821469D01*
X15902323Y47840189D01*
X15798019Y47873200D01*
X15652835Y47922149D01*
X15459502Y47988680D01*
X14927193Y48172400D01*
X15632661Y48172400D01*
X15743001Y48139341D01*
X15761373Y48133854D01*
X15844520Y48113064D01*
X15893151Y48120052D01*
X15924603Y48164222D01*
X15956216Y48254977D01*
X15978679Y48328438D01*
X15989112Y48386206D01*
X15978890Y48423634D01*
X15947149Y48460288D01*
X15942188Y48465144D01*
X15865702Y48511770D01*
X15795233Y48500659D01*
X15732003Y48432502D01*
X15677239Y48307990D01*
X15632661Y48172400D01*
X14927193Y48172400D01*
X14878638Y48189158D01*
X14883192Y48281816D01*
X14883265Y48283251D01*
X14891946Y48353242D01*
X14906196Y48392924D01*
X14913689Y48394979D01*
X14965720Y48388143D01*
X15053780Y48366377D01*
X15163941Y48332925D01*
X15209405Y48318169D01*
X15309550Y48286866D01*
X15380173Y48266543D01*
X15408227Y48261037D01*
X15417501Y48285347D01*
X15440119Y48351440D01*
X15470557Y48443580D01*
X15498817Y48524087D01*
X15536182Y48596457D01*
X15587752Y48647319D01*
X15669474Y48696987D01*
X15811050Y48774413D01*
X15960779Y48724286D01*
X15976683Y48718867D01*
X16067914Y48679103D01*
X16128530Y48626066D01*
X16182579Y48539748D01*
X16254650Y48405336D01*
X16248080Y48386206D01*
X16170562Y48160486D01*
G37*
G36*
X14951963Y44513326D02*
G01*
X14951963Y44352010D01*
X14834642Y44352010D01*
X14800914Y44352808D01*
X14736694Y44365414D01*
X14717321Y44396005D01*
X14715877Y44406911D01*
X14684688Y44435343D01*
X14630420Y44435129D01*
X14576536Y44404804D01*
X14569637Y44395569D01*
X14549457Y44334071D01*
X14541340Y44249354D01*
X14542024Y44225098D01*
X14554117Y44144056D01*
X14576536Y44093903D01*
X14582480Y44089435D01*
X14645175Y44072478D01*
X14764035Y44062179D01*
X14937298Y44058707D01*
X14978795Y44058867D01*
X15140584Y44063811D01*
X15247593Y44075548D01*
X15298060Y44093903D01*
X15305055Y44102080D01*
X15330485Y44173087D01*
X15332697Y44267415D01*
X15313474Y44359890D01*
X15274596Y44425335D01*
X15237397Y44476994D01*
X15215936Y44576532D01*
X15219330Y44633969D01*
X15240919Y44667440D01*
X15295198Y44674642D01*
X15379097Y44649695D01*
X15471179Y44580898D01*
X15498400Y44553924D01*
X15537167Y44506774D01*
X15557956Y44455275D01*
X15566342Y44381329D01*
X15567899Y44266834D01*
X15567547Y44193851D01*
X15562723Y44105385D01*
X15547215Y44045449D01*
X15514809Y43995074D01*
X15459290Y43935290D01*
X15350682Y43824065D01*
X14944291Y43824065D01*
X14537900Y43824065D01*
X14422299Y43916965D01*
X14306698Y44009864D01*
X14306698Y44232915D01*
X14306816Y44272434D01*
X14310484Y44376723D01*
X14323209Y44447394D01*
X14350239Y44503803D01*
X14396824Y44565304D01*
X14486950Y44674642D01*
X14719457Y44674642D01*
X14951963Y44674642D01*
X14951963Y44513326D01*
G37*
G36*
X27746279Y57500399D02*
G01*
X27886606Y57362182D01*
X27886606Y56790062D01*
X27886606Y56217942D01*
X27733624Y56063036D01*
X27580642Y55908130D01*
X27301925Y55908130D01*
X27023208Y55908130D01*
X26868301Y56061112D01*
X26713395Y56214094D01*
X26713395Y56501065D01*
X26713395Y56788037D01*
X26933372Y56788037D01*
X27153349Y56788037D01*
X27153349Y56641386D01*
X27153098Y56607466D01*
X27147421Y56535228D01*
X27129873Y56502456D01*
X27094689Y56494735D01*
X27090336Y56494667D01*
X27047943Y56476346D01*
X27036028Y56416386D01*
X27040928Y56363873D01*
X27080592Y56287804D01*
X27163773Y56244493D01*
X27294904Y56230763D01*
X27327945Y56230887D01*
X27413359Y56235136D01*
X27475209Y56251263D01*
X27517294Y56287065D01*
X27543415Y56350338D01*
X27557368Y56448877D01*
X27562955Y56590479D01*
X27563973Y56782941D01*
X27563882Y56864063D01*
X27561624Y57038090D01*
X27553536Y57164150D01*
X27535959Y57249968D01*
X27505235Y57303268D01*
X27457704Y57331776D01*
X27389706Y57343216D01*
X27297583Y57345312D01*
X27248744Y57344768D01*
X27165609Y57336958D01*
X27112815Y57314826D01*
X27070599Y57271987D01*
X27068146Y57268897D01*
X27021453Y57224717D01*
X26960422Y57203885D01*
X26863158Y57198661D01*
X26792922Y57199608D01*
X26738785Y57207891D01*
X26717254Y57231478D01*
X26713395Y57278312D01*
X26719096Y57315102D01*
X26762229Y57395827D01*
X26851611Y57498289D01*
X26989828Y57638615D01*
X27297890Y57638615D01*
X27605953Y57638615D01*
X27746279Y57500399D01*
G37*
G36*
X38833447Y38415408D02*
G01*
X38794120Y38363095D01*
X38760044Y38342231D01*
X38720506Y38348945D01*
X38650809Y38366418D01*
X38638499Y38369737D01*
X38593551Y38371119D01*
X38557263Y38341026D01*
X38513908Y38268171D01*
X38450332Y38148661D01*
X38523653Y38071212D01*
X38534249Y38059960D01*
X38574584Y38009088D01*
X38578298Y37966127D01*
X38549812Y37902563D01*
X38544271Y37892121D01*
X38507558Y37834758D01*
X38481058Y37811363D01*
X38480433Y37811480D01*
X38450801Y37833095D01*
X38386677Y37887129D01*
X38295845Y37966509D01*
X38186090Y38064159D01*
X38065195Y38173004D01*
X37940946Y38285969D01*
X37821126Y38395980D01*
X37713521Y38495961D01*
X37708293Y38500907D01*
X38074223Y38500907D01*
X38099226Y38466888D01*
X38153206Y38416283D01*
X38173230Y38399897D01*
X38232919Y38356652D01*
X38268628Y38339308D01*
X38287117Y38351199D01*
X38314942Y38395271D01*
X38328176Y38443232D01*
X38303789Y38457762D01*
X38243749Y38477018D01*
X38170548Y38495236D01*
X38106687Y38506827D01*
X38074669Y38506201D01*
X38074223Y38500907D01*
X37708293Y38500907D01*
X37625914Y38578838D01*
X37566090Y38637536D01*
X37541834Y38664980D01*
X37541071Y38670879D01*
X37553941Y38718396D01*
X37585830Y38788544D01*
X37638915Y38889937D01*
X38247212Y38722472D01*
X38315349Y38703636D01*
X38489131Y38654854D01*
X38640238Y38611382D01*
X38760183Y38575724D01*
X38840481Y38550387D01*
X38872643Y38537874D01*
X38877053Y38526103D01*
X38865325Y38477100D01*
X38847824Y38443232D01*
X38833447Y38415408D01*
G37*
G36*
X29403347Y32872759D02*
G01*
X29405066Y32855878D01*
X29394889Y32792047D01*
X29371749Y32693557D01*
X29338431Y32573263D01*
X29315620Y32494665D01*
X29284574Y32382444D01*
X29263266Y32298498D01*
X29255351Y32256753D01*
X29266053Y32228942D01*
X29304033Y32160404D01*
X29363019Y32064476D01*
X29436221Y31952582D01*
X29497838Y31859298D01*
X29559591Y31761702D01*
X29601591Y31690323D01*
X29617090Y31656215D01*
X29614022Y31649722D01*
X29572947Y31630682D01*
X29499284Y31617606D01*
X29464142Y31614653D01*
X29412444Y31617137D01*
X29371839Y31638976D01*
X29328071Y31690175D01*
X29266886Y31780743D01*
X29152295Y31955114D01*
X29102514Y31781564D01*
X29077556Y31701322D01*
X29046800Y31617960D01*
X29023353Y31571351D01*
X29020609Y31568353D01*
X28968873Y31544480D01*
X28891487Y31534689D01*
X28842726Y31536632D01*
X28804240Y31551081D01*
X28802850Y31586017D01*
X28809649Y31610411D01*
X28831400Y31686687D01*
X28862641Y31795221D01*
X28899088Y31921095D01*
X28981478Y32204845D01*
X28803167Y32483523D01*
X28731219Y32597873D01*
X28679543Y32689914D01*
X28660472Y32747953D01*
X28673863Y32779773D01*
X28719574Y32793158D01*
X28797463Y32795890D01*
X28812560Y32795394D01*
X28866101Y32780194D01*
X28917481Y32735313D01*
X28980941Y32649380D01*
X29079607Y32502869D01*
X29128112Y32677332D01*
X29128223Y32677730D01*
X29157500Y32774432D01*
X29184892Y32829014D01*
X29222118Y32856362D01*
X29280900Y32871358D01*
X29294838Y32873784D01*
X29365185Y32879850D01*
X29403347Y32872759D01*
G37*
G36*
X22114484Y33907381D02*
G01*
X22171905Y33874406D01*
X22196536Y33839336D01*
X22194305Y33827891D01*
X22172962Y33769513D01*
X22133855Y33678763D01*
X22082951Y33569801D01*
X22027260Y33453992D01*
X21975248Y33339065D01*
X21954147Y33272552D01*
X21966995Y33251945D01*
X22016833Y33274733D01*
X22106699Y33338408D01*
X22239635Y33440461D01*
X22553565Y33683565D01*
X22670218Y33648614D01*
X22699151Y33639089D01*
X22758426Y33611889D01*
X22777674Y33589613D01*
X22775706Y33584983D01*
X22754382Y33537868D01*
X22713232Y33448265D01*
X22656049Y33324390D01*
X22586622Y33174461D01*
X22508743Y33006694D01*
X22249010Y32447826D01*
X22149447Y32495304D01*
X22132634Y32503621D01*
X22073699Y32538783D01*
X22049885Y32563635D01*
X22061082Y32595572D01*
X22092598Y32669763D01*
X22139526Y32774792D01*
X22196953Y32899437D01*
X22200088Y32906164D01*
X22252953Y33023699D01*
X22290697Y33115548D01*
X22309850Y33172667D01*
X22306941Y33186015D01*
X22305333Y33184785D01*
X22264919Y33153931D01*
X22189068Y33096061D01*
X22088031Y33018996D01*
X21972058Y32930554D01*
X21674253Y32703465D01*
X21583432Y32750430D01*
X21573712Y32755616D01*
X21516126Y32794428D01*
X21492610Y32825221D01*
X21496821Y32839956D01*
X21521251Y32901300D01*
X21563485Y32999755D01*
X21618951Y33125309D01*
X21683075Y33267951D01*
X21751284Y33417669D01*
X21819007Y33564452D01*
X21881669Y33698289D01*
X21934700Y33809167D01*
X21973525Y33887077D01*
X21993572Y33922006D01*
X22000104Y33926791D01*
X22048981Y33928197D01*
X22114484Y33907381D01*
G37*
G36*
X34187621Y34170761D02*
G01*
X34221199Y34116745D01*
X34314226Y33963772D01*
X34392895Y33829487D01*
X34452892Y33721571D01*
X34489901Y33647703D01*
X34499606Y33615564D01*
X34464749Y33584189D01*
X34402170Y33546008D01*
X34322146Y33504626D01*
X34189241Y33721431D01*
X34056337Y33938236D01*
X33891003Y33834819D01*
X33725669Y33731402D01*
X33856484Y33527318D01*
X33876450Y33495914D01*
X33932983Y33403830D01*
X33972434Y33334688D01*
X33987246Y33301536D01*
X33987167Y33300539D01*
X33962348Y33270897D01*
X33906588Y33231192D01*
X33903569Y33229375D01*
X33844075Y33195419D01*
X33810965Y33179864D01*
X33810360Y33179989D01*
X33788422Y33206855D01*
X33742254Y33274251D01*
X33677399Y33373285D01*
X33599405Y33495065D01*
X33513818Y33630699D01*
X33426182Y33771293D01*
X33342044Y33907957D01*
X33266950Y34031798D01*
X33206445Y34133923D01*
X33166075Y34205440D01*
X33151386Y34237456D01*
X33151975Y34240856D01*
X33180364Y34275727D01*
X33238226Y34320308D01*
X33325065Y34377274D01*
X33450060Y34180519D01*
X33464826Y34157200D01*
X33522511Y34064552D01*
X33565139Y33993634D01*
X33584370Y33958248D01*
X33609475Y33960509D01*
X33670446Y33986264D01*
X33752692Y34028475D01*
X33841735Y34079695D01*
X33923098Y34132477D01*
X33922475Y34137252D01*
X33901351Y34178822D01*
X33857485Y34253243D01*
X33797657Y34348825D01*
X33774273Y34386163D01*
X33720768Y34479732D01*
X33687328Y34550966D01*
X33680404Y34586771D01*
X33715349Y34618134D01*
X33777969Y34656283D01*
X33858223Y34697784D01*
X34187621Y34170761D01*
G37*
G36*
X15707167Y46262266D02*
G01*
X15701026Y46223395D01*
X15681748Y46124837D01*
X15657391Y46060859D01*
X15618767Y46013228D01*
X15556685Y45963714D01*
X15514979Y45933764D01*
X15453831Y45892998D01*
X15422802Y45876886D01*
X15417984Y45877299D01*
X15368556Y45884015D01*
X15275611Y45897690D01*
X15150105Y45916695D01*
X15002998Y45939396D01*
X14599414Y46002202D01*
X14511510Y46121733D01*
X14487801Y46154742D01*
X14447396Y46225536D01*
X14435050Y46293704D01*
X14437493Y46322661D01*
X14676448Y46322661D01*
X14700265Y46267291D01*
X14758519Y46227444D01*
X14859282Y46197563D01*
X15010624Y46172091D01*
X15048719Y46166685D01*
X15167942Y46148874D01*
X15265284Y46133061D01*
X15322616Y46122148D01*
X15374299Y46123957D01*
X15432604Y46174662D01*
X15440963Y46188078D01*
X15468619Y46266388D01*
X15478733Y46356541D01*
X15470532Y46436190D01*
X15443245Y46482988D01*
X15416582Y46492480D01*
X15339890Y46510779D01*
X15229272Y46532639D01*
X15098615Y46555149D01*
X14973385Y46573868D01*
X14853834Y46584346D01*
X14774362Y46575818D01*
X14725245Y46544696D01*
X14696758Y46487387D01*
X14679176Y46400303D01*
X14679000Y46399111D01*
X14676448Y46322661D01*
X14437493Y46322661D01*
X14443105Y46389189D01*
X14454209Y46467888D01*
X14475767Y46576257D01*
X14505043Y46650654D01*
X14549454Y46707001D01*
X14616419Y46761225D01*
X14733178Y46845804D01*
X15149370Y46781486D01*
X15565562Y46717167D01*
X15652774Y46595727D01*
X15684635Y46550572D01*
X15715049Y46497096D01*
X15726819Y46444234D01*
X15723130Y46372465D01*
X15720823Y46356541D01*
X15707167Y46262266D01*
G37*
G36*
X28766513Y57565973D02*
G01*
X28896638Y57553859D01*
X29019452Y57537243D01*
X29107290Y57514303D01*
X29173350Y57479740D01*
X29230828Y57428251D01*
X29292919Y57354537D01*
X29413755Y57202446D01*
X29347288Y56627757D01*
X29280822Y56053068D01*
X29118991Y55923535D01*
X29115087Y55920424D01*
X29029015Y55858242D01*
X28956602Y55816912D01*
X28913164Y55805239D01*
X28907291Y55806526D01*
X28848499Y55815045D01*
X28752473Y55825838D01*
X28636829Y55836889D01*
X28516637Y55849863D01*
X28434408Y55867098D01*
X28378555Y55893413D01*
X28332679Y55934045D01*
X28302155Y55967191D01*
X28197418Y56094174D01*
X28139436Y56192708D01*
X28126329Y56265813D01*
X28129656Y56284510D01*
X28147134Y56315929D01*
X28190303Y56327649D01*
X28275469Y56326283D01*
X28344615Y56319497D01*
X28425875Y56291988D01*
X28495446Y56233597D01*
X28508385Y56220711D01*
X28608247Y56157412D01*
X28724149Y56128478D01*
X28836817Y56136178D01*
X28926976Y56182783D01*
X28945602Y56202106D01*
X28969238Y56239446D01*
X28988338Y56294460D01*
X29005336Y56377336D01*
X29022666Y56498263D01*
X29042762Y56667431D01*
X29055883Y56785900D01*
X29069170Y56921575D01*
X29074905Y57016095D01*
X29073194Y57079653D01*
X29064143Y57122440D01*
X29047859Y57154649D01*
X29000271Y57200707D01*
X28903958Y57241779D01*
X28790415Y57256298D01*
X28680778Y57242254D01*
X28596187Y57197634D01*
X28591498Y57193332D01*
X28541926Y57159879D01*
X28480758Y57149348D01*
X28385344Y57157417D01*
X28295810Y57176832D01*
X28245032Y57211704D01*
X28244160Y57264702D01*
X28293300Y57339889D01*
X28392552Y57441331D01*
X28546536Y57584889D01*
X28766513Y57565973D01*
G37*
G36*
X15627207Y43075743D02*
G01*
X15628648Y43074732D01*
X15647936Y43033052D01*
X15655890Y42961814D01*
X15655890Y42865612D01*
X15403961Y42828131D01*
X15152033Y42790650D01*
X15170322Y42684090D01*
X15170690Y42681953D01*
X15188397Y42582839D01*
X15205386Y42493311D01*
X15205707Y42491680D01*
X15211333Y42458199D01*
X15219235Y42435673D01*
X15238736Y42423469D01*
X15279161Y42420953D01*
X15349835Y42427492D01*
X15460082Y42442452D01*
X15619227Y42465200D01*
X15743880Y42482847D01*
X15743880Y42366308D01*
X15743880Y42249770D01*
X15164608Y42160270D01*
X15134940Y42155688D01*
X14958553Y42128557D01*
X14802685Y42104756D01*
X14676697Y42085703D01*
X14589952Y42072815D01*
X14551810Y42067510D01*
X14523219Y42078112D01*
X14493781Y42133614D01*
X14482679Y42224701D01*
X14483745Y42245666D01*
X14494474Y42273121D01*
X14524786Y42293501D01*
X14584360Y42310188D01*
X14682878Y42326561D01*
X14830020Y42346002D01*
X14986713Y42365829D01*
X14967668Y42501009D01*
X14963877Y42528011D01*
X14946785Y42637283D01*
X14926301Y42701113D01*
X14891612Y42729947D01*
X14831902Y42734227D01*
X14736359Y42724398D01*
X14729172Y42723574D01*
X14589817Y42707849D01*
X14498056Y42700534D01*
X14443553Y42704102D01*
X14415974Y42721027D01*
X14404985Y42753781D01*
X14400251Y42804839D01*
X14398912Y42825115D01*
X14400374Y42889057D01*
X14410930Y42914827D01*
X14413247Y42914996D01*
X14457265Y42920827D01*
X14548453Y42933997D01*
X14677769Y42953165D01*
X14836172Y42976995D01*
X15014619Y43004149D01*
X15049537Y43009451D01*
X15225650Y43034956D01*
X15380681Y43055414D01*
X15505422Y43069748D01*
X15590666Y43076883D01*
X15627207Y43075743D01*
G37*
G36*
X27306253Y54174988D02*
G01*
X27322725Y54134996D01*
X27329331Y54062241D01*
X27332724Y53997202D01*
X27351221Y53859194D01*
X27381424Y53704860D01*
X27418317Y53558494D01*
X27456885Y53444388D01*
X27480723Y53392818D01*
X27563639Y53267585D01*
X27675789Y53166287D01*
X27822860Y53086297D01*
X28010535Y53024983D01*
X28244500Y52979717D01*
X28530440Y52947869D01*
X28810509Y52924652D01*
X28605197Y52920163D01*
X28545489Y52917605D01*
X28375241Y52900476D01*
X28192656Y52870989D01*
X28015474Y52832777D01*
X27861433Y52789472D01*
X27748272Y52744706D01*
X27681991Y52705649D01*
X27552425Y52584385D01*
X27456885Y52417830D01*
X27433750Y52354371D01*
X27395589Y52217937D01*
X27362122Y52063865D01*
X27338364Y51916448D01*
X27329331Y51799977D01*
X27328740Y51764754D01*
X27321248Y51699333D01*
X27307590Y51685303D01*
X27290874Y51717938D01*
X27274209Y51792514D01*
X27260704Y51904303D01*
X27232385Y52100854D01*
X27183547Y52292204D01*
X27119752Y52459997D01*
X27046489Y52586749D01*
X27029973Y52606629D01*
X26946746Y52682708D01*
X26852802Y52744158D01*
X26815576Y52761202D01*
X26684094Y52806155D01*
X26518500Y52848173D01*
X26336569Y52883612D01*
X26156079Y52908824D01*
X25994804Y52920163D01*
X25789492Y52924652D01*
X26069560Y52947869D01*
X26179085Y52957978D01*
X26445616Y52994365D01*
X26662223Y53045118D01*
X26834592Y53112867D01*
X26968407Y53200243D01*
X27069353Y53309874D01*
X27143116Y53444388D01*
X27166251Y53507847D01*
X27204412Y53644281D01*
X27237878Y53798353D01*
X27261636Y53945770D01*
X27270670Y54062241D01*
X27271346Y54086842D01*
X27281509Y54151653D01*
X27300000Y54177645D01*
X27306253Y54174988D01*
G37*
G36*
X39752682Y48215607D02*
G01*
X39764707Y48174833D01*
X39779837Y48103401D01*
X39799547Y47997865D01*
X39481817Y47915382D01*
X39370243Y47885624D01*
X39258197Y47853857D01*
X39178152Y47828952D01*
X39142556Y47814606D01*
X39142974Y47811646D01*
X39179021Y47796073D01*
X39259712Y47772484D01*
X39375407Y47743528D01*
X39516465Y47711853D01*
X39911904Y47627393D01*
X39940492Y47523856D01*
X39944598Y47508293D01*
X39957414Y47441096D01*
X39955630Y47406869D01*
X39954009Y47405883D01*
X39913807Y47391985D01*
X39827258Y47365836D01*
X39703125Y47329975D01*
X39550169Y47286941D01*
X39377152Y47239271D01*
X39348469Y47231454D01*
X39176302Y47184889D01*
X39024084Y47144305D01*
X38900967Y47112100D01*
X38816102Y47090674D01*
X38778642Y47082423D01*
X38752578Y47097748D01*
X38727439Y47150324D01*
X38713484Y47201508D01*
X38694196Y47261378D01*
X38693139Y47266303D01*
X38709509Y47288935D01*
X38764718Y47315145D01*
X38865029Y47347392D01*
X39016704Y47388139D01*
X39016987Y47388211D01*
X39148140Y47423026D01*
X39255532Y47454054D01*
X39328088Y47477917D01*
X39354735Y47491237D01*
X39352714Y47493405D01*
X39312196Y47508376D01*
X39227567Y47532077D01*
X39109282Y47561719D01*
X38967795Y47594511D01*
X38580856Y47680994D01*
X38555500Y47779533D01*
X38552868Y47790158D01*
X38541399Y47857248D01*
X38544342Y47892271D01*
X38545463Y47893059D01*
X38583490Y47906752D01*
X38666163Y47931805D01*
X38783374Y47965487D01*
X38925010Y48005069D01*
X39080963Y48047823D01*
X39241123Y48091017D01*
X39395378Y48131923D01*
X39533619Y48167812D01*
X39645737Y48195954D01*
X39721620Y48213619D01*
X39751158Y48218078D01*
X39752682Y48215607D01*
G37*
G36*
X17783395Y37544594D02*
G01*
X17816441Y37508483D01*
X17876165Y37437206D01*
X17955713Y37339051D01*
X18048230Y37222304D01*
X18093015Y37164972D01*
X18181079Y37049297D01*
X18237691Y36968209D01*
X18267249Y36914241D01*
X18274147Y36879924D01*
X18262781Y36857791D01*
X18261355Y36856442D01*
X18222439Y36823706D01*
X18145762Y36761868D01*
X18039191Y36677183D01*
X17910590Y36575904D01*
X17767827Y36464286D01*
X17746787Y36447898D01*
X17609093Y36340888D01*
X17489253Y36248154D01*
X17394359Y36175157D01*
X17331504Y36127355D01*
X17307782Y36110208D01*
X17307428Y36110235D01*
X17281192Y36134062D01*
X17229793Y36195336D01*
X17160884Y36283592D01*
X17082114Y36388365D01*
X17001136Y36499188D01*
X16925599Y36605596D01*
X16863155Y36697122D01*
X16821455Y36763301D01*
X16808149Y36793666D01*
X16810240Y36798017D01*
X16845174Y36833824D01*
X16900675Y36871432D01*
X16954835Y36897760D01*
X16985749Y36899725D01*
X16994876Y36888209D01*
X17033969Y36838380D01*
X17095756Y36759402D01*
X17171905Y36661921D01*
X17347974Y36436381D01*
X17455633Y36525123D01*
X17563292Y36613865D01*
X17469135Y36732748D01*
X17374977Y36851631D01*
X17461334Y36920728D01*
X17475644Y36931987D01*
X17533186Y36973218D01*
X17565700Y36989970D01*
X17576549Y36983116D01*
X17614530Y36940753D01*
X17665211Y36872508D01*
X17746713Y36754900D01*
X17852514Y36833548D01*
X17883036Y36856235D01*
X17940746Y36899110D01*
X17968142Y36919432D01*
X17963729Y36930545D01*
X17931259Y36979034D01*
X17874072Y37056574D01*
X17799493Y37153020D01*
X17752055Y37214506D01*
X17684602Y37307387D01*
X17638249Y37378495D01*
X17621017Y37416013D01*
X17633891Y37442026D01*
X17679020Y37487916D01*
X17735143Y37529360D01*
X17779394Y37547391D01*
X17783395Y37544594D01*
G37*
G36*
X30435064Y33074372D02*
G01*
X30456318Y32991612D01*
X30484382Y32873545D01*
X30517032Y32730443D01*
X30552044Y32572582D01*
X30587194Y32410233D01*
X30620259Y32253672D01*
X30649013Y32113171D01*
X30671234Y31999004D01*
X30684698Y31921444D01*
X30687180Y31890766D01*
X30683660Y31888560D01*
X30637243Y31872503D01*
X30547470Y31847200D01*
X30425432Y31815660D01*
X30282219Y31780893D01*
X30187942Y31758756D01*
X30055813Y31729532D01*
X29966079Y31715419D01*
X29909249Y31717517D01*
X29875831Y31736929D01*
X29856337Y31774757D01*
X29841275Y31832103D01*
X29838780Y31842886D01*
X29835335Y31876022D01*
X29849166Y31900101D01*
X29890238Y31920715D01*
X29968514Y31943455D01*
X30093957Y31973912D01*
X30160055Y31989669D01*
X30272332Y32016731D01*
X30356525Y32037414D01*
X30398128Y32048177D01*
X30410728Y32057934D01*
X30416142Y32103397D01*
X30400248Y32193523D01*
X30394738Y32217992D01*
X30379431Y32276494D01*
X30357814Y32307775D01*
X30317079Y32315788D01*
X30244419Y32304483D01*
X30127028Y32277811D01*
X30075162Y32281304D01*
X30046770Y32331760D01*
X30031453Y32406364D01*
X30033957Y32477575D01*
X30064377Y32502751D01*
X30069804Y32503002D01*
X30127426Y32512780D01*
X30206904Y32532321D01*
X30312769Y32561727D01*
X30282621Y32693474D01*
X30272011Y32733895D01*
X30246957Y32799375D01*
X30224382Y32825220D01*
X30211436Y32823654D01*
X30149491Y32811738D01*
X30051954Y32790655D01*
X29933250Y32763465D01*
X29873242Y32750166D01*
X29763856Y32730431D01*
X29683345Y32722051D01*
X29645640Y32726802D01*
X29626278Y32767422D01*
X29611749Y32837844D01*
X29602425Y32923793D01*
X30010409Y33021353D01*
X30069327Y33035352D01*
X30207403Y33067388D01*
X30319187Y33092228D01*
X30394446Y33107638D01*
X30422947Y33111385D01*
X30435064Y33074372D01*
G37*
G36*
X16956982Y38904912D02*
G01*
X16984082Y38854401D01*
X17049413Y38727852D01*
X17099673Y38623408D01*
X17130336Y38550765D01*
X17136875Y38519616D01*
X17134818Y38517961D01*
X17095554Y38493859D01*
X17014346Y38447170D01*
X16899260Y38382437D01*
X16758361Y38304204D01*
X16599715Y38217015D01*
X16567563Y38199468D01*
X16411447Y38115420D01*
X16274009Y38043266D01*
X16163399Y37987159D01*
X16087764Y37951249D01*
X16055254Y37939686D01*
X16043338Y37951279D01*
X16006558Y38004966D01*
X15953498Y38091738D01*
X15890658Y38199929D01*
X15824539Y38317873D01*
X15761641Y38433903D01*
X15708466Y38536354D01*
X15671515Y38613560D01*
X15657287Y38653855D01*
X15657713Y38658203D01*
X15686788Y38696324D01*
X15747772Y38737279D01*
X15766749Y38747325D01*
X15803145Y38765024D01*
X15831438Y38767331D01*
X15858906Y38747046D01*
X15892824Y38696967D01*
X15940466Y38609894D01*
X16009110Y38478626D01*
X16033227Y38433126D01*
X16084683Y38340029D01*
X16123425Y38275472D01*
X16142492Y38251317D01*
X16151607Y38253864D01*
X16201019Y38275335D01*
X16274870Y38311531D01*
X16392899Y38371745D01*
X16315111Y38504480D01*
X16285888Y38556172D01*
X16255089Y38617256D01*
X16247241Y38643790D01*
X16261786Y38653340D01*
X16336248Y38699849D01*
X16398798Y38735622D01*
X16430873Y38749931D01*
X16441924Y38740316D01*
X16476344Y38692685D01*
X16522310Y38618581D01*
X16599287Y38487230D01*
X16714193Y38545851D01*
X16745791Y38562706D01*
X16805431Y38599878D01*
X16829100Y38623463D01*
X16824995Y38635748D01*
X16798977Y38691216D01*
X16754285Y38778936D01*
X16697114Y38886560D01*
X16664813Y38947037D01*
X16613585Y39046538D01*
X16578280Y39120028D01*
X16565127Y39154844D01*
X16566155Y39158851D01*
X16598402Y39188925D01*
X16661796Y39225118D01*
X16758465Y39271217D01*
X16956982Y38904912D01*
G37*
G36*
X22954470Y33524231D02*
G01*
X23028683Y33501916D01*
X23132226Y33465888D01*
X23253009Y33420900D01*
X23378943Y33371707D01*
X23497936Y33323066D01*
X23597900Y33279730D01*
X23666744Y33246455D01*
X23692379Y33227996D01*
X23684769Y33198972D01*
X23659772Y33121609D01*
X23620198Y33004965D01*
X23568979Y32857415D01*
X23509048Y32687333D01*
X23443338Y32503094D01*
X23374783Y32313073D01*
X23306315Y32125645D01*
X23280514Y32083572D01*
X23244685Y32070371D01*
X23242936Y32071027D01*
X23197801Y32087491D01*
X23110463Y32119064D01*
X22992744Y32161480D01*
X22856467Y32210471D01*
X22837900Y32217145D01*
X22706731Y32264648D01*
X22598437Y32304466D01*
X22523812Y32332597D01*
X22493649Y32345037D01*
X22490861Y32365644D01*
X22500722Y32420563D01*
X22513621Y32465762D01*
X22535822Y32513697D01*
X22570187Y32536029D01*
X22627408Y32534016D01*
X22718176Y32508913D01*
X22853185Y32461977D01*
X23138149Y32360126D01*
X23167238Y32436636D01*
X23196564Y32526312D01*
X23199244Y32595520D01*
X23163330Y32640882D01*
X23083776Y32676929D01*
X23048076Y32691141D01*
X22984360Y32727622D01*
X22959123Y32760251D01*
X22959131Y32761009D01*
X22972228Y32813268D01*
X23001021Y32882417D01*
X23031846Y32935521D01*
X23039353Y32935790D01*
X23087141Y32923865D01*
X23162982Y32899058D01*
X23199314Y32887196D01*
X23272105Y32869834D01*
X23312069Y32869823D01*
X23316283Y32873472D01*
X23342449Y32917927D01*
X23371031Y32990430D01*
X23386781Y33041521D01*
X23389781Y33081559D01*
X23370328Y33113052D01*
X23320210Y33143025D01*
X23231215Y33178508D01*
X23095131Y33226527D01*
X23059142Y33239423D01*
X22957514Y33279941D01*
X22883796Y33315524D01*
X22851959Y33339670D01*
X22850690Y33382361D01*
X22868457Y33447019D01*
X22897120Y33504392D01*
X22926688Y33529146D01*
X22954470Y33524231D01*
G37*
G36*
X26423172Y32440627D02*
G01*
X26407254Y32278073D01*
X26388286Y32094649D01*
X26322745Y31476028D01*
X26210102Y31476028D01*
X26158001Y31476813D01*
X26122867Y31485739D01*
X26104417Y31512849D01*
X26099960Y31568188D01*
X26106803Y31661800D01*
X26122252Y31803730D01*
X26127906Y31855388D01*
X26134471Y31938422D01*
X26129250Y31983223D01*
X26108735Y32003749D01*
X26069418Y32013959D01*
X26017869Y32018622D01*
X25987162Y32008890D01*
X25983688Y32001663D01*
X25957387Y31952825D01*
X25911915Y31871044D01*
X25854478Y31769331D01*
X25836291Y31737562D01*
X25776603Y31639730D01*
X25730831Y31581426D01*
X25689252Y31552229D01*
X25642143Y31541713D01*
X25626493Y31540464D01*
X25551734Y31541601D01*
X25513321Y31563020D01*
X25510364Y31611810D01*
X25541974Y31695062D01*
X25607263Y31819864D01*
X25737289Y32054933D01*
X25643539Y32166601D01*
X25618726Y32196868D01*
X25574721Y32264281D01*
X25559211Y32331348D01*
X25563251Y32427090D01*
X25564415Y32437980D01*
X25808616Y32437980D01*
X25809530Y32361453D01*
X25841553Y32302752D01*
X25863565Y32290881D01*
X25935452Y32269045D01*
X26029142Y32251793D01*
X26179334Y32231869D01*
X26189725Y32379586D01*
X26200116Y32527303D01*
X26053465Y32538331D01*
X26004167Y32540250D01*
X25913960Y32534705D01*
X25855485Y32518917D01*
X25836919Y32503002D01*
X25808616Y32437980D01*
X25564415Y32437980D01*
X25566621Y32458616D01*
X25593687Y32570111D01*
X25650601Y32656885D01*
X25750266Y32740567D01*
X25755457Y32744232D01*
X25794612Y32767542D01*
X25838417Y32780260D01*
X25900255Y32783162D01*
X25993509Y32777019D01*
X26131559Y32762607D01*
X26225955Y32751802D01*
X26336028Y32738191D01*
X26413015Y32727407D01*
X26444293Y32721126D01*
X26444933Y32716889D01*
X26442782Y32668653D01*
X26435272Y32573693D01*
X26431054Y32527303D01*
X26423172Y32440627D01*
G37*
G36*
X38824552Y41960888D02*
G01*
X38867459Y41948400D01*
X38957339Y41924522D01*
X39084505Y41891751D01*
X39239267Y41852584D01*
X39411938Y41809520D01*
X39420440Y41807412D01*
X39590997Y41764235D01*
X39741762Y41724440D01*
X39863426Y41690612D01*
X39946678Y41665337D01*
X39982207Y41651199D01*
X39984436Y41642190D01*
X39979536Y41586818D01*
X39963353Y41492618D01*
X39938609Y41371851D01*
X39908024Y41236777D01*
X39874320Y41099658D01*
X39840218Y40972752D01*
X39808441Y40868322D01*
X39788418Y40851872D01*
X39731704Y40847619D01*
X39663406Y40862117D01*
X39607901Y40892434D01*
X39603720Y40909383D01*
X39609119Y40974516D01*
X39627675Y41075097D01*
X39657313Y41198271D01*
X39681739Y41294243D01*
X39704802Y41403793D01*
X39709766Y41467829D01*
X39697450Y41492366D01*
X39663427Y41503261D01*
X39543476Y41535341D01*
X39468525Y41543303D01*
X39442562Y41526608D01*
X39442033Y41518710D01*
X39431277Y41460226D01*
X39411064Y41379464D01*
X39401476Y41345831D01*
X39378415Y41292404D01*
X39341949Y41277192D01*
X39271909Y41286756D01*
X39253833Y41290201D01*
X39187746Y41304206D01*
X39157836Y41312976D01*
X39158381Y41326313D01*
X39169709Y41382574D01*
X39190520Y41466657D01*
X39229456Y41614258D01*
X39097503Y41649550D01*
X39055789Y41660152D01*
X38987637Y41674427D01*
X38956864Y41676156D01*
X38951834Y41663269D01*
X38934395Y41604049D01*
X38908504Y41508473D01*
X38877667Y41389243D01*
X38807157Y41111017D01*
X38712208Y41115571D01*
X38708728Y41115749D01*
X38638435Y41124418D01*
X38599030Y41138353D01*
X38597438Y41145377D01*
X38602685Y41198393D01*
X38619626Y41293447D01*
X38646245Y41419931D01*
X38680527Y41567232D01*
X38685084Y41585955D01*
X38725520Y41746206D01*
X38757054Y41856761D01*
X38782269Y41924703D01*
X38803744Y41957112D01*
X38824061Y41961072D01*
X38824552Y41960888D01*
G37*
G36*
X18955543Y36154812D02*
G01*
X18954236Y36150855D01*
X18924039Y36112104D01*
X18858682Y36041736D01*
X18764559Y35946269D01*
X18648064Y35832224D01*
X18515589Y35706122D01*
X18480409Y35673177D01*
X18349716Y35552690D01*
X18234379Y35449264D01*
X18141155Y35368771D01*
X18076806Y35317081D01*
X18048090Y35300065D01*
X18045597Y35300947D01*
X18008433Y35331563D01*
X17960099Y35388637D01*
X17899654Y35469950D01*
X18090126Y35640541D01*
X18179856Y35721962D01*
X18233341Y35776189D01*
X18255087Y35811966D01*
X18251278Y35839538D01*
X18228096Y35869147D01*
X18218377Y35879739D01*
X18193102Y35901054D01*
X18161738Y35908114D01*
X18112073Y35899348D01*
X18031891Y35873180D01*
X17908979Y35828038D01*
X17837227Y35801460D01*
X17735323Y35764110D01*
X17663893Y35738452D01*
X17635172Y35728915D01*
X17630766Y35732264D01*
X17600263Y35767246D01*
X17552405Y35827998D01*
X17476830Y35927081D01*
X17739570Y36021066D01*
X18002310Y36115050D01*
X18003231Y36260194D01*
X18240481Y36260194D01*
X18260434Y36187827D01*
X18327981Y36096564D01*
X18357318Y36064591D01*
X18411724Y36013176D01*
X18444839Y35992887D01*
X18454965Y35995903D01*
X18502476Y36026334D01*
X18566455Y36078936D01*
X18662241Y36164985D01*
X18546300Y36284248D01*
X18479874Y36347019D01*
X18404978Y36393771D01*
X18343353Y36393925D01*
X18285493Y36349873D01*
X18266054Y36325990D01*
X18240481Y36260194D01*
X18003231Y36260194D01*
X18003272Y36266613D01*
X18006256Y36347144D01*
X18021927Y36409455D01*
X18061427Y36463243D01*
X18135959Y36530820D01*
X18212502Y36593195D01*
X18269851Y36624707D01*
X18330285Y36632054D01*
X18417214Y36622899D01*
X18478881Y36612480D01*
X18539900Y36592458D01*
X18598028Y36555846D01*
X18667149Y36493496D01*
X18761143Y36396259D01*
X18810924Y36342306D01*
X18885310Y36256428D01*
X18936495Y36190229D01*
X18950072Y36164985D01*
X18955543Y36154812D01*
G37*
G36*
X34630575Y35145237D02*
G01*
X34687776Y35134636D01*
X34765630Y35114203D01*
X34805957Y35095083D01*
X34807138Y35093713D01*
X34836040Y35056979D01*
X34891741Y34984162D01*
X34966731Y34885134D01*
X35053499Y34769764D01*
X35118388Y34682030D01*
X35196013Y34570499D01*
X35244414Y34488319D01*
X35268932Y34425938D01*
X35274906Y34373806D01*
X35269904Y34299716D01*
X35243949Y34196510D01*
X35186552Y34111775D01*
X35086484Y34024704D01*
X35029233Y33983610D01*
X34925057Y33929698D01*
X34820953Y33913515D01*
X34692749Y33929199D01*
X34645930Y33944886D01*
X34569992Y34000140D01*
X34483771Y34100513D01*
X34428404Y34177566D01*
X34385156Y34245681D01*
X34368592Y34283076D01*
X34376089Y34298657D01*
X34419709Y34342983D01*
X34489306Y34396740D01*
X34610020Y34480395D01*
X34681089Y34397771D01*
X34697782Y34377526D01*
X34731038Y34318805D01*
X34721186Y34277828D01*
X34702800Y34219990D01*
X34728493Y34167741D01*
X34786917Y34145081D01*
X34813530Y34149071D01*
X34885656Y34181183D01*
X34960574Y34233547D01*
X35019384Y34291700D01*
X35043187Y34341181D01*
X35031954Y34371831D01*
X34991372Y34442329D01*
X34928141Y34538139D01*
X34849592Y34647656D01*
X34757048Y34767653D01*
X34684795Y34849678D01*
X34630813Y34894230D01*
X34588721Y34907668D01*
X34540885Y34895958D01*
X34470457Y34854330D01*
X34404510Y34796242D01*
X34358897Y34736202D01*
X34349473Y34688720D01*
X34350077Y34686987D01*
X34336639Y34639058D01*
X34276772Y34582308D01*
X34219248Y34545327D01*
X34179325Y34537629D01*
X34144482Y34561932D01*
X34124153Y34591783D01*
X34113427Y34654868D01*
X34121611Y34757689D01*
X34125034Y34782443D01*
X34140596Y34857516D01*
X34168800Y34913712D01*
X34221396Y34968615D01*
X34310132Y35039809D01*
X34364283Y35081121D01*
X34435843Y35130337D01*
X34491248Y35153207D01*
X34549744Y35156063D01*
X34630575Y35145237D01*
G37*
G36*
X15592930Y45223229D02*
G01*
X15578114Y45048603D01*
X15573335Y44981356D01*
X15568595Y44929385D01*
X15556696Y44892451D01*
X15530286Y44868678D01*
X15482011Y44856190D01*
X15404519Y44853114D01*
X15290456Y44857574D01*
X15132470Y44867694D01*
X14923208Y44881601D01*
X14868036Y44885119D01*
X14676484Y44897531D01*
X14534305Y44908218D01*
X14434152Y44919131D01*
X14368681Y44932224D01*
X14330545Y44949447D01*
X14312400Y44972752D01*
X14306899Y45004092D01*
X14306698Y45045417D01*
X14306698Y45151102D01*
X14570670Y45138481D01*
X14834642Y45125860D01*
X14834279Y45200887D01*
X14832728Y45220730D01*
X14818096Y45255026D01*
X15069284Y45255026D01*
X15069298Y45248001D01*
X15074364Y45166033D01*
X15093814Y45123779D01*
X15135278Y45103752D01*
X15193963Y45092662D01*
X15281929Y45085667D01*
X15319716Y45087189D01*
X15348961Y45102358D01*
X15360537Y45146258D01*
X15362587Y45233846D01*
X15361353Y45286288D01*
X15342925Y45405053D01*
X15301081Y45473761D01*
X15234115Y45495890D01*
X15216961Y45495050D01*
X15137101Y45460546D01*
X15086784Y45378944D01*
X15069284Y45255026D01*
X14818096Y45255026D01*
X14816965Y45257677D01*
X14776435Y45295983D01*
X14701671Y45343455D01*
X14583204Y45407899D01*
X14332493Y45539885D01*
X14351542Y45642541D01*
X14353877Y45654728D01*
X14370096Y45723402D01*
X14383672Y45758450D01*
X14388986Y45759134D01*
X14434443Y45745024D01*
X14514512Y45711244D01*
X14616183Y45663127D01*
X14649377Y45646913D01*
X14751323Y45599812D01*
X14831069Y45566918D01*
X14873636Y45554550D01*
X14884880Y45557044D01*
X14935834Y45588611D01*
X14997804Y45644828D01*
X15042925Y45689236D01*
X15090183Y45717921D01*
X15150076Y45724580D01*
X15245266Y45715703D01*
X15325668Y45702488D01*
X15420413Y45667621D01*
X15501906Y45605005D01*
X15541985Y45562154D01*
X15574288Y45509202D01*
X15592534Y45442450D01*
X15598243Y45350818D01*
X15593372Y45233846D01*
X15592930Y45223229D01*
G37*
G36*
X28230321Y48118417D02*
G01*
X29052438Y48035054D01*
X29866398Y47899236D01*
X30100381Y47849883D01*
X30769242Y47682677D01*
X31425787Y47480506D01*
X32061321Y47246746D01*
X32667144Y46984774D01*
X33234559Y46697967D01*
X33754868Y46389700D01*
X33827872Y46342092D01*
X33913207Y46284405D01*
X33967797Y46244800D01*
X33982218Y46229902D01*
X33976370Y46231247D01*
X33929260Y46251744D01*
X33848532Y46291843D01*
X33747576Y46344975D01*
X33706783Y46366725D01*
X33333005Y46547811D01*
X32910743Y46723694D01*
X32449058Y46891640D01*
X31957010Y47048912D01*
X31443660Y47192777D01*
X30918067Y47320499D01*
X30389293Y47429343D01*
X29866398Y47516574D01*
X29626414Y47550932D01*
X29375912Y47584475D01*
X29146740Y47611708D01*
X28928900Y47633261D01*
X28712395Y47649766D01*
X28487228Y47661854D01*
X28243402Y47670157D01*
X27970920Y47675305D01*
X27659785Y47677932D01*
X27300000Y47678667D01*
X27098012Y47678452D01*
X26763370Y47676688D01*
X26472344Y47672659D01*
X26215169Y47665784D01*
X25982084Y47655484D01*
X25763323Y47641178D01*
X25549124Y47622286D01*
X25329723Y47598229D01*
X25095356Y47568426D01*
X24836259Y47532297D01*
X24775763Y47523464D01*
X24229413Y47431637D01*
X23682006Y47318879D01*
X23142061Y47187730D01*
X22618097Y47040729D01*
X22118632Y46880413D01*
X21652186Y46709323D01*
X21227277Y46529998D01*
X20852425Y46344975D01*
X20818104Y46326620D01*
X20722272Y46277016D01*
X20651035Y46242588D01*
X20617783Y46229902D01*
X20616000Y46230405D01*
X20633070Y46248995D01*
X20691474Y46290613D01*
X20782936Y46350173D01*
X20899177Y46422588D01*
X21031922Y46502773D01*
X21172892Y46585642D01*
X21313812Y46666107D01*
X21446403Y46739084D01*
X21907103Y46972383D01*
X22630267Y47286030D01*
X23381764Y47552250D01*
X24157034Y47770415D01*
X24951514Y47939897D01*
X25760644Y48060066D01*
X26579863Y48130295D01*
X27404609Y48149955D01*
X28230321Y48118417D01*
G37*
G36*
X38061089Y37775141D02*
G01*
X38176990Y37696404D01*
X38268108Y37631921D01*
X38325776Y37587244D01*
X38327320Y37585262D01*
X38321266Y37549673D01*
X38292822Y37493757D01*
X38255060Y37439687D01*
X38221053Y37409632D01*
X38214237Y37409074D01*
X38164185Y37426592D01*
X38084134Y37469064D01*
X37987914Y37529387D01*
X37903009Y37585757D01*
X37836232Y37625873D01*
X37796076Y37639705D01*
X37770632Y37630918D01*
X37747987Y37603174D01*
X37733149Y37576846D01*
X37729730Y37542113D01*
X37746321Y37493447D01*
X37787179Y37419277D01*
X37856561Y37308032D01*
X38006672Y37072193D01*
X37944942Y36972311D01*
X37930499Y36950244D01*
X37888385Y36899830D01*
X37860454Y36886495D01*
X37852630Y36894194D01*
X37816162Y36941786D01*
X37760542Y37021455D01*
X37694310Y37121140D01*
X37682022Y37139866D01*
X37605890Y37246457D01*
X37547672Y37310520D01*
X37511697Y37327171D01*
X37506443Y37325240D01*
X37363779Y37291056D01*
X37239643Y37304569D01*
X37116556Y37367567D01*
X37072297Y37399063D01*
X37012709Y37453624D01*
X36981732Y37514917D01*
X36964229Y37606707D01*
X36962052Y37622792D01*
X36958108Y37665341D01*
X37184296Y37665341D01*
X37199875Y37629482D01*
X37242957Y37576721D01*
X37299661Y37532273D01*
X37355548Y37525792D01*
X37415404Y37566069D01*
X37489433Y37656403D01*
X37589828Y37794745D01*
X37491274Y37861715D01*
X37470468Y37875462D01*
X37405269Y37913435D01*
X37365731Y37928684D01*
X37364870Y37928632D01*
X37333483Y37904057D01*
X37287125Y37847141D01*
X37238403Y37776183D01*
X37199924Y37709484D01*
X37184296Y37665341D01*
X36958108Y37665341D01*
X36955864Y37689552D01*
X36961337Y37744937D01*
X36983771Y37803940D01*
X37028466Y37881551D01*
X37100722Y37992763D01*
X37141319Y38054279D01*
X37205212Y38151171D01*
X37252993Y38223730D01*
X37276554Y38259647D01*
X37283691Y38258928D01*
X37330459Y38235905D01*
X37413099Y38188264D01*
X37522945Y38121557D01*
X37651332Y38041339D01*
X37789595Y37953161D01*
X37929069Y37862577D01*
X38031489Y37794745D01*
X38061089Y37775141D01*
G37*
G36*
X17205347Y38242058D02*
G01*
X17208383Y38241365D01*
X17292745Y38218008D01*
X17352388Y38185695D01*
X17405390Y38130513D01*
X17469831Y38038551D01*
X17496872Y37997477D01*
X17543840Y37919399D01*
X17565284Y37860151D01*
X17566636Y37798579D01*
X17553332Y37713532D01*
X17543492Y37663571D01*
X17518129Y37585643D01*
X17474556Y37531209D01*
X17396955Y37476270D01*
X17371748Y37460603D01*
X17291828Y37419981D01*
X17218397Y37407309D01*
X17120077Y37415724D01*
X17055930Y37426299D01*
X16988103Y37449854D01*
X16933458Y37495363D01*
X16870161Y37576908D01*
X16823410Y37637784D01*
X16765078Y37702695D01*
X16724598Y37734687D01*
X16720945Y37735950D01*
X16656360Y37730622D01*
X16590448Y37690668D01*
X16549195Y37631390D01*
X16546361Y37616896D01*
X16560903Y37544122D01*
X16606723Y37463291D01*
X16670066Y37394441D01*
X16737173Y37357609D01*
X16751677Y37353570D01*
X16818247Y37313943D01*
X16869590Y37253891D01*
X16894247Y37190660D01*
X16880758Y37141497D01*
X16857659Y37122764D01*
X16814142Y37109806D01*
X16746516Y37115488D01*
X16638986Y37139693D01*
X16601320Y37150306D01*
X16532145Y37182478D01*
X16473112Y37237386D01*
X16406021Y37329888D01*
X16344885Y37430507D01*
X16310017Y37522679D01*
X16306925Y37614426D01*
X16331376Y37728344D01*
X16349631Y37778505D01*
X16401661Y37848519D01*
X16493953Y37913729D01*
X16535216Y37937259D01*
X16609034Y37970018D01*
X16675887Y37976668D01*
X16764532Y37962377D01*
X16882280Y37921650D01*
X16961086Y37852926D01*
X16965226Y37847259D01*
X17043932Y37742092D01*
X17099397Y37677761D01*
X17141229Y37647106D01*
X17179039Y37642965D01*
X17222435Y37658180D01*
X17279608Y37694914D01*
X17319010Y37742996D01*
X17323032Y37760159D01*
X17310077Y37833168D01*
X17266218Y37913689D01*
X17204717Y37981573D01*
X17138837Y38016675D01*
X17067508Y38052469D01*
X17002056Y38124741D01*
X16989268Y38145122D01*
X16961024Y38197418D01*
X16964116Y38225092D01*
X16997890Y38247468D01*
X17004156Y38250499D01*
X17082213Y38260931D01*
X17205347Y38242058D01*
G37*
G36*
X39412466Y43925007D02*
G01*
X39434919Y43922230D01*
X39532252Y43902344D01*
X39602113Y43865573D01*
X39670916Y43799043D01*
X39708560Y43755592D01*
X39745948Y43696686D01*
X39757471Y43633050D01*
X39751319Y43538105D01*
X39750167Y43526116D01*
X39749644Y43404554D01*
X39772159Y43325461D01*
X39780483Y43314151D01*
X39845458Y43274804D01*
X39926230Y43269739D01*
X39994134Y43301987D01*
X39999288Y43307938D01*
X40023052Y43373653D01*
X40027758Y43464904D01*
X40014271Y43555897D01*
X39983454Y43620832D01*
X39982831Y43621525D01*
X39952517Y43684549D01*
X39957388Y43777126D01*
X39986042Y43856048D01*
X40033097Y43880859D01*
X40098209Y43849881D01*
X40181346Y43763118D01*
X40201439Y43737823D01*
X40243369Y43677268D01*
X40264789Y43620167D01*
X40271117Y43545867D01*
X40267774Y43433715D01*
X40265592Y43389497D01*
X40257262Y43293772D01*
X40240246Y43231148D01*
X40207266Y43182638D01*
X40151039Y43129255D01*
X40128267Y43109597D01*
X40058643Y43061424D01*
X39985359Y43039249D01*
X39881100Y43033369D01*
X39816063Y43034001D01*
X39740067Y43044540D01*
X39682160Y43075484D01*
X39617128Y43136703D01*
X39611423Y43142621D01*
X39558921Y43202498D01*
X39530315Y43257169D01*
X39518420Y43327907D01*
X39516051Y43435986D01*
X39516043Y43447521D01*
X39513678Y43549079D01*
X39503386Y43609905D01*
X39479761Y43646430D01*
X39437397Y43675089D01*
X39390381Y43698690D01*
X39346529Y43700273D01*
X39298079Y43664563D01*
X39257798Y43601858D01*
X39237513Y43503384D01*
X39245951Y43401533D01*
X39284172Y43322398D01*
X39313118Y43270739D01*
X39311172Y43180769D01*
X39288632Y43122478D01*
X39240007Y43092779D01*
X39171269Y43117060D01*
X39083825Y43195232D01*
X39048683Y43234486D01*
X39014856Y43282340D01*
X38998976Y43333941D01*
X38996521Y43407540D01*
X39002964Y43521386D01*
X39008145Y43593290D01*
X39019032Y43682342D01*
X39038689Y43741569D01*
X39074544Y43789224D01*
X39134021Y43843561D01*
X39194580Y43893478D01*
X39251896Y43925447D01*
X39315993Y43933461D01*
X39412466Y43925007D01*
G37*
G36*
X16262853Y40412354D02*
G01*
X16273117Y40344231D01*
X16262881Y40317500D01*
X16260292Y40316557D01*
X16214499Y40300764D01*
X16123599Y40269893D01*
X15996622Y40226996D01*
X15842597Y40175125D01*
X15670555Y40117331D01*
X15637489Y40106283D01*
X15469724Y40051710D01*
X15322571Y40006239D01*
X15204734Y39972392D01*
X15124919Y39952692D01*
X15091832Y39949659D01*
X15091661Y39949815D01*
X15071234Y39990319D01*
X15052184Y40059974D01*
X15033983Y40150977D01*
X15272707Y40230480D01*
X15345976Y40255293D01*
X15433379Y40288356D01*
X15480253Y40314732D01*
X15496501Y40340866D01*
X15492026Y40373201D01*
X15481406Y40407397D01*
X15465459Y40436922D01*
X15434479Y40452977D01*
X15374007Y40461840D01*
X15269581Y40469791D01*
X15134078Y40480328D01*
X15023581Y40492473D01*
X14951832Y40508248D01*
X14908224Y40531452D01*
X14882151Y40565880D01*
X14863007Y40615329D01*
X14857487Y40632615D01*
X14844177Y40683807D01*
X15649168Y40683807D01*
X15653711Y40627410D01*
X15679437Y40537239D01*
X15701562Y40473314D01*
X15733374Y40415347D01*
X15772799Y40398701D01*
X15831871Y40413617D01*
X15869233Y40427597D01*
X15940502Y40454055D01*
X15973306Y40468072D01*
X15990178Y40490579D01*
X15984431Y40535153D01*
X15957823Y40618493D01*
X15939836Y40667536D01*
X15905855Y40741962D01*
X15878522Y40780602D01*
X15824845Y40800766D01*
X15741179Y40791476D01*
X15675502Y40742551D01*
X15665409Y40727201D01*
X15649168Y40683807D01*
X14844177Y40683807D01*
X14840621Y40697483D01*
X14839052Y40728663D01*
X14848913Y40730385D01*
X14905445Y40730424D01*
X14999943Y40726467D01*
X15118855Y40718984D01*
X15388402Y40699631D01*
X15451759Y40834901D01*
X15473982Y40880058D01*
X15517626Y40944100D01*
X15576283Y40984593D01*
X15671147Y41019355D01*
X15759913Y41045478D01*
X15822949Y41053303D01*
X15881224Y41039830D01*
X15960745Y41003647D01*
X16000521Y40983843D01*
X16048353Y40954247D01*
X16084259Y40916404D01*
X16115808Y40858447D01*
X16150572Y40768508D01*
X16196122Y40634721D01*
X16231110Y40526519D01*
X16241103Y40490579D01*
X16262853Y40412354D01*
G37*
G36*
X23890426Y33191678D02*
G01*
X23961821Y33175979D01*
X24066647Y33147035D01*
X24133427Y32714823D01*
X24143561Y32649787D01*
X24168093Y32496765D01*
X24190189Y32364754D01*
X24207752Y32266087D01*
X24218689Y32213096D01*
X24221432Y32204362D01*
X24233668Y32189628D01*
X24255598Y32196706D01*
X24292169Y32230732D01*
X24348329Y32296842D01*
X24429025Y32400172D01*
X24539204Y32545859D01*
X24841237Y32948135D01*
X24948737Y32928057D01*
X24966156Y32924717D01*
X25033198Y32909949D01*
X25064646Y32899741D01*
X25064648Y32895135D01*
X25055577Y32846990D01*
X25034729Y32753418D01*
X25004057Y32622801D01*
X24965516Y32463520D01*
X24921061Y32283957D01*
X24769066Y31676412D01*
X24663344Y31696157D01*
X24647576Y31699179D01*
X24580577Y31714016D01*
X24548858Y31724494D01*
X24549570Y31740085D01*
X24561389Y31802275D01*
X24583546Y31900233D01*
X24613349Y32021571D01*
X24634788Y32107614D01*
X24659881Y32213730D01*
X24675665Y32287721D01*
X24679390Y32317270D01*
X24663269Y32301841D01*
X24618729Y32247953D01*
X24553154Y32164188D01*
X24473796Y32059633D01*
X24416715Y31983769D01*
X24347036Y31894678D01*
X24297646Y31840728D01*
X24259613Y31814423D01*
X24224001Y31808270D01*
X24181877Y31814774D01*
X24181375Y31814882D01*
X24106040Y31836639D01*
X24055819Y31860860D01*
X24047349Y31874131D01*
X24027311Y31937018D01*
X24005827Y32036398D01*
X23986292Y32157775D01*
X23976144Y32230863D01*
X23954796Y32368866D01*
X23936317Y32450723D01*
X23918222Y32477971D01*
X23898027Y32452148D01*
X23873246Y32374792D01*
X23841396Y32247440D01*
X23821391Y32164706D01*
X23793823Y32054705D01*
X23772731Y31975454D01*
X23761542Y31940140D01*
X23759879Y31938426D01*
X23722929Y31936153D01*
X23659644Y31946604D01*
X23595499Y31964347D01*
X23555970Y31983954D01*
X23555758Y31984361D01*
X23560098Y32018296D01*
X23576135Y32098117D01*
X23601428Y32213585D01*
X23633537Y32354462D01*
X23670018Y32510507D01*
X23708432Y32671482D01*
X23746335Y32827149D01*
X23781288Y32967269D01*
X23810848Y33081602D01*
X23832573Y33159909D01*
X23844023Y33191952D01*
X23847400Y33193641D01*
X23890426Y33191678D01*
G37*
G36*
X30021859Y57391308D02*
G01*
X30061459Y57379622D01*
X30137495Y57347118D01*
X30178300Y57314670D01*
X30182555Y57301802D01*
X30196233Y57236394D01*
X30215317Y57126042D01*
X30238375Y56979660D01*
X30263976Y56806164D01*
X30290689Y56614467D01*
X30304311Y56514504D01*
X30329221Y56334980D01*
X30351264Y56180311D01*
X30369222Y56058821D01*
X30381880Y55978834D01*
X30388019Y55948671D01*
X30398475Y55958294D01*
X30440460Y56007221D01*
X30509804Y56091915D01*
X30601501Y56206176D01*
X30710543Y56343799D01*
X30831922Y56498582D01*
X30852869Y56525405D01*
X30987962Y56697222D01*
X31093027Y56827867D01*
X31172682Y56922353D01*
X31231545Y56985696D01*
X31274234Y57022911D01*
X31305366Y57039014D01*
X31329560Y57039018D01*
X31387171Y57023769D01*
X31472229Y57003642D01*
X31527713Y56983111D01*
X31552887Y56955539D01*
X31546601Y56924767D01*
X31527261Y56845338D01*
X31497215Y56726734D01*
X31458855Y56578005D01*
X31414569Y56408197D01*
X31366747Y56226360D01*
X31317777Y56041542D01*
X31270049Y55862790D01*
X31225952Y55699154D01*
X31187876Y55559680D01*
X31158209Y55453419D01*
X31139341Y55389417D01*
X31109638Y55295992D01*
X30976413Y55336087D01*
X30933724Y55349346D01*
X30864250Y55373127D01*
X30831751Y55387619D01*
X30831503Y55396044D01*
X30841464Y55450481D01*
X30863570Y55546414D01*
X30895422Y55673712D01*
X30934622Y55822242D01*
X30954615Y55896598D01*
X30991304Y56035020D01*
X31020173Y56146642D01*
X31038677Y56221535D01*
X31044268Y56249770D01*
X31034880Y56240085D01*
X30995124Y56191866D01*
X30929833Y56110015D01*
X30845050Y56002130D01*
X30746819Y55875809D01*
X30678870Y55789346D01*
X30584087Y55673392D01*
X30503975Y55580889D01*
X30445387Y55519655D01*
X30415177Y55497506D01*
X30400988Y55498578D01*
X30335255Y55509921D01*
X30248643Y55529656D01*
X30120963Y55561807D01*
X30086146Y55815626D01*
X30085459Y55820633D01*
X30063267Y55981869D01*
X30038577Y56160494D01*
X30016606Y56318753D01*
X29981884Y56568060D01*
X29869014Y56142772D01*
X29849596Y56070405D01*
X29810087Y55928114D01*
X29775775Y55810970D01*
X29749808Y55729527D01*
X29735329Y55694336D01*
X29720369Y55688738D01*
X29660506Y55691026D01*
X29576102Y55708210D01*
X29518490Y55725719D01*
X29460698Y55755917D01*
X29449905Y55790017D01*
X29450396Y55791822D01*
X29462591Y55837089D01*
X29487670Y55930405D01*
X29523563Y56064063D01*
X29568201Y56230358D01*
X29619516Y56421583D01*
X29675439Y56630033D01*
X29888756Y57425263D01*
X30021859Y57391308D01*
G37*
G36*
X31156752Y39657839D02*
G01*
X32037206Y39390513D01*
X32897947Y39068370D01*
X33737749Y38691802D01*
X34555388Y38261202D01*
X35349638Y37776963D01*
X35626727Y37595957D01*
X35534424Y37476351D01*
X35508827Y37444886D01*
X35425073Y37350983D01*
X35309119Y37228347D01*
X35168562Y37084414D01*
X35010999Y36926623D01*
X34844028Y36762410D01*
X34675246Y36599212D01*
X34512250Y36444468D01*
X34362637Y36305614D01*
X34234005Y36190089D01*
X34133950Y36105329D01*
X34081820Y36063673D01*
X33433115Y35583990D01*
X32760257Y35155906D01*
X32065484Y34780343D01*
X31351034Y34458219D01*
X30619146Y34190457D01*
X29872056Y33977977D01*
X29112003Y33821699D01*
X28341224Y33722543D01*
X28299877Y33718869D01*
X28119484Y33704321D01*
X27941818Y33692069D01*
X27785424Y33683307D01*
X27668848Y33679230D01*
X27436426Y33675797D01*
X27507532Y33751510D01*
X27578638Y33827223D01*
X27490647Y33807721D01*
X27419843Y33791138D01*
X27365673Y33776801D01*
X27360941Y33775498D01*
X27300933Y33773104D01*
X27232856Y33785687D01*
X27178929Y33807262D01*
X27161369Y33831843D01*
X27185343Y33852431D01*
X27251731Y33885323D01*
X27343820Y33920157D01*
X27364419Y33927041D01*
X27448168Y33956846D01*
X27485902Y33977990D01*
X27485982Y33998266D01*
X27456764Y34025469D01*
X27446912Y34034798D01*
X27405079Y34103747D01*
X27378324Y34193760D01*
X27374290Y34220031D01*
X27370500Y34286003D01*
X27390556Y34321888D01*
X27443415Y34349052D01*
X27457127Y34355375D01*
X27536227Y34406896D01*
X27611855Y34474846D01*
X27695959Y34565706D01*
X27603440Y34502045D01*
X27512034Y34450346D01*
X27448682Y34438344D01*
X27420135Y34463942D01*
X27427724Y34521286D01*
X27472782Y34604520D01*
X27556640Y34707787D01*
X27586898Y34740361D01*
X27643151Y34802893D01*
X27662633Y34831188D01*
X27648045Y34831276D01*
X27602092Y34809187D01*
X27589580Y34802823D01*
X27527435Y34773102D01*
X27495436Y34761017D01*
X27491155Y34773650D01*
X27488940Y34830138D01*
X27491924Y34916596D01*
X27493294Y34975636D01*
X27486983Y35062456D01*
X27472005Y35114575D01*
X27467012Y35121613D01*
X27453126Y35131637D01*
X27461639Y35090142D01*
X27463995Y35047879D01*
X27446576Y34954947D01*
X27410298Y34841552D01*
X27361985Y34725457D01*
X27308459Y34624422D01*
X27256543Y34556210D01*
X27185661Y34489620D01*
X27171352Y34559325D01*
X27169484Y34568474D01*
X27143742Y34716717D01*
X27137022Y34826387D01*
X27149730Y34913698D01*
X27182273Y34994863D01*
X27190887Y35011818D01*
X27228510Y35091197D01*
X27234950Y35124339D01*
X27208141Y35115453D01*
X27146017Y35068750D01*
X27124244Y35051689D01*
X27063362Y35007419D01*
X27027844Y34986842D01*
X27027411Y34986764D01*
X27001933Y35008853D01*
X26958322Y35069532D01*
X26905762Y35156073D01*
X26895189Y35174787D01*
X26848032Y35263090D01*
X26826953Y35320761D01*
X26828156Y35364510D01*
X26847846Y35411049D01*
X26851296Y35417824D01*
X26870454Y35469229D01*
X26860950Y35501378D01*
X26815426Y35517069D01*
X26726520Y35519101D01*
X26586871Y35510272D01*
X26110126Y35461776D01*
X25364445Y35342805D01*
X24637180Y35173588D01*
X23934442Y34955633D01*
X23262339Y34690446D01*
X23214126Y34669522D01*
X23109328Y34626266D01*
X23029194Y34596263D01*
X22988087Y34585035D01*
X22974858Y34587463D01*
X22910937Y34610991D01*
X22808747Y34655782D01*
X22677679Y34717211D01*
X22527125Y34790654D01*
X22366478Y34871485D01*
X22205130Y34955079D01*
X22052473Y35036810D01*
X21917899Y35112053D01*
X21781790Y35192020D01*
X21357119Y35460314D01*
X20930408Y35756326D01*
X20524712Y36064298D01*
X20406181Y36162975D01*
X20258247Y36293243D01*
X20091867Y36445040D01*
X19914840Y36610816D01*
X19734964Y36783025D01*
X19560040Y36954116D01*
X19397865Y37116543D01*
X19256237Y37262757D01*
X19142957Y37385209D01*
X19065822Y37476351D01*
X18973274Y37595957D01*
X19250363Y37776963D01*
X19435678Y37895984D01*
X20221395Y38358146D01*
X21037137Y38772111D01*
X21877834Y39135823D01*
X22738416Y39447227D01*
X23613815Y39704267D01*
X24227439Y39843348D01*
X25272476Y39843348D01*
X25286513Y39812369D01*
X25319034Y39760602D01*
X25373290Y39682752D01*
X25452531Y39573522D01*
X25560007Y39427614D01*
X25698969Y39239734D01*
X25762575Y39154820D01*
X25849319Y39045186D01*
X25913699Y38974707D01*
X25961774Y38937057D01*
X25999604Y38925913D01*
X26043132Y38930616D01*
X26068130Y38946438D01*
X28531871Y38946438D01*
X28546320Y38933754D01*
X28597864Y38926351D01*
X28612533Y38928669D01*
X28640360Y38943197D01*
X28677266Y38974864D01*
X28726835Y39028035D01*
X28792650Y39107072D01*
X28878295Y39216339D01*
X28987354Y39360200D01*
X29123410Y39543018D01*
X29290048Y39769157D01*
X29360081Y39864481D01*
X29286311Y39864481D01*
X29285046Y39864469D01*
X29252784Y39856338D01*
X29212980Y39829210D01*
X29160326Y39777335D01*
X29089517Y39694962D01*
X28995246Y39576341D01*
X28872206Y39415722D01*
X28863921Y39404790D01*
X28758963Y39265226D01*
X28667812Y39142070D01*
X28595934Y39042860D01*
X28548798Y38975136D01*
X28531871Y38946438D01*
X26068130Y38946438D01*
X26068030Y38947069D01*
X26048644Y38978960D01*
X25999461Y39049310D01*
X25925946Y39150580D01*
X25833568Y39275230D01*
X25727794Y39415722D01*
X25612481Y39566315D01*
X25515433Y39688679D01*
X25442392Y39774043D01*
X25388183Y39828042D01*
X25347630Y39856310D01*
X25315557Y39864481D01*
X25308764Y39864526D01*
X25286852Y39864130D01*
X25273672Y39858836D01*
X25272476Y39843348D01*
X24227439Y39843348D01*
X24498961Y39904890D01*
X24690528Y39940481D01*
X25492488Y40060089D01*
X26310265Y40136838D01*
X27126726Y40169467D01*
X27924739Y40156718D01*
X28409355Y40126986D01*
X29341602Y40026468D01*
X30257809Y39869954D01*
X30281004Y39864481D01*
X31156752Y39657839D01*
G37*
%TO.C,C29*%
D12*
X29149420Y16040000D02*
X29430580Y16040000D01*
X29149420Y15020000D02*
X29430580Y15020000D01*
%TD*%
M02*
