M48
; DRILL file KiCad 10.0.0 date 2026-06-17T15:35:24
; FORMAT={-:-/ absolute / inch / decimal}
; #@! TF.CreationDate,2026-06-17T15:35:24-04:00
; #@! TF.GenerationSoftware,Kicad,Pcbnew,10.0.0
; #@! TF.FileFunction,Plated,1,4,PTH
FMAT,2
INCH
; #@! TA.AperFunction,Plated,PTH,ViaDrill
T1C0.0079
; #@! TA.AperFunction,Plated,PTH,ViaDrill
T2C0.0118
; #@! TA.AperFunction,Plated,PTH,ComponentDrill
T3C0.0394
%
G90
G05
T1
X2.0315Y0.2402
X2.0315Y0.2165
X2.0315Y0.1929
X2.0472Y0.4646
X2.0472Y0.4331
X2.0472Y0.4016
X2.0472Y0.3622
X2.0472Y0.315
X2.0551Y0.2874
X2.0551Y0.2638
X2.1024Y0.2874
X2.1024Y0.2638
X2.1063Y0.3141
X2.1102Y0.4646
X2.1102Y0.4331
X2.1102Y0.4016
X2.1102Y0.3622
X2.126Y0.2402
X2.126Y0.2165
X2.126Y0.1929
T2
X0.1024Y1.0394
X0.1024Y0.9213
X0.1024Y0.7933
X0.1102Y1.5354
X0.1102Y1.4173
X0.1102Y1.2894
X0.2461Y1.939
X0.2854Y0.2264
X0.2854Y0.1378
X0.3346Y0.6102
X0.3642Y1.939
X0.3937Y0.7087
X0.4134Y0.1378
X0.4626Y0.6102
X0.5118Y0.7087
X0.5118Y0.1378
X0.5315Y0.2953
X0.5512Y1.939
X0.5748Y1.5197
X0.5807Y0.6102
X0.6142Y0.8425
X0.6398Y0.7087
X0.6398Y0.1378
X0.7165Y1.3386
X0.748Y0.4331
X0.7677Y1.8701
X0.8465Y1.9291
X0.8465Y0.0591
X0.935Y0.4823
X0.9449Y1.2835
X0.9449Y0.1476
X0.9744Y0.0591
X0.9764Y1.1969
X1.0Y1.6063
X1.0039Y1.5551
X1.0728Y0.1476
X1.0787Y1.5197
X1.0787Y1.4016
X1.0787Y1.2736
X1.0866Y0.9291
X1.0925Y0.4823
X1.0925Y0.0591
X1.1319Y0.6594
X1.1368Y1.0866
X1.1693Y0.4803
X1.1909Y0.1476
X1.2106Y1.6142
X1.2106Y0.0591
X1.2205Y1.7165
X1.25Y1.2992
X1.25Y0.4823
X1.2894Y1.4567
X1.2894Y0.6496
X1.3091Y0.1476
X1.3287Y0.7579
X1.3287Y0.0591
X1.3484Y1.8996
X1.3661Y0.6496
X1.3756Y0.7602
X1.3878Y0.7185
X1.3976Y1.9193
X1.4075Y0.6398
X1.4272Y0.1476
X1.4469Y0.0591
X1.4862Y1.939
X1.5059Y0.6988
X1.5157Y1.1516
X1.5157Y1.0335
X1.5157Y0.9055
X1.5256Y0.6496
X1.5453Y0.1476
X1.5551Y0.0591
X1.6535Y0.1476
X1.6634Y1.6535
X1.6634Y1.4173
X1.7913Y0.3445
X1.7972Y1.4073
X1.8012Y1.6535
X1.8209Y1.4364
X1.8346Y1.8898
X1.8503Y1.0437
X1.8602Y1.0138
X1.8643Y0.9605
X1.8835Y0.9315
X1.9488Y1.1811
X2.0787Y0.7776
X2.1063Y1.565
X2.2441Y0.6398
X2.252Y0.9921
X2.2657Y0.8071
X2.2933Y0.6004
X2.313Y1.3091
X2.4114Y1.2697
X2.5Y0.935
X2.5Y0.8169
X2.5Y0.689
X2.5Y0.5709
X2.5Y0.4528
X2.5Y0.3248
T3
X0.0953Y1.8323
X0.0953Y1.7323
X0.0969Y0.5134
X0.0969Y0.4134
X0.1953Y1.8323
X0.1953Y1.7323
X0.1969Y0.5134
X0.1969Y0.4134
X0.2953Y1.8323
X0.2953Y1.7323
X0.2969Y0.5134
X0.2969Y0.4134
X0.3295Y2.1169
X0.3295Y2.0169
X0.3953Y1.8323
X0.3953Y1.7323
X0.3969Y0.5134
X0.3969Y0.4134
X0.4295Y2.1169
X0.4295Y2.0169
X0.4953Y1.8323
X0.4953Y1.7323
X0.4969Y0.5134
X0.4969Y0.4134
X0.5295Y2.1169
X0.5295Y2.0169
X0.5953Y1.8323
X0.5953Y1.7323
X0.5969Y0.5134
X0.5969Y0.4134
X0.6295Y2.1169
X0.6295Y2.0169
X0.7295Y2.1169
X0.7295Y2.0169
X0.8295Y2.1169
X0.8295Y2.0169
X0.9295Y2.1169
X0.9295Y2.0169
X1.0295Y2.1169
X1.0295Y2.0169
X1.1295Y2.1169
X1.1295Y2.0169
X1.2295Y2.1169
X1.2295Y2.0169
X1.3295Y2.1169
X1.3295Y2.0169
X1.4295Y2.1169
X1.4295Y2.0169
X1.5295Y2.1169
X1.5295Y2.0169
X1.6295Y2.1169
X1.6295Y2.0169
X1.7295Y2.1169
X1.7295Y2.0169
X1.8295Y2.1169
X1.8295Y2.0169
X1.9295Y2.1169
X1.9295Y2.0169
X1.9622Y1.8323
X1.9622Y1.7323
X2.0295Y2.1169
X2.0295Y2.0169
X2.0622Y1.8323
X2.0622Y1.7323
X2.1295Y2.1169
X2.1295Y2.0169
X2.1622Y1.8323
X2.1622Y1.7323
X2.2295Y2.1169
X2.2295Y2.0169
X2.2622Y1.8323
X2.2622Y1.7323
X2.3622Y1.8323
X2.3622Y1.7323
X2.4356Y1.5764
X2.4356Y1.4764
X2.4356Y1.3764
X2.4622Y1.8323
X2.4622Y1.7323
M30
