%TF.GenerationSoftware,KiCad,Pcbnew,10.0.0*%
%TF.CreationDate,2026-06-17T15:35:24-04:00*%
%TF.ProjectId,interface_db_hat,696e7465-7266-4616-9365-5f64625f6861,rev?*%
%TF.SameCoordinates,Original*%
%TF.FileFunction,Legend,Bot*%
%TF.FilePolarity,Positive*%
%FSLAX46Y46*%
G04 Gerber Fmt 4.6, Leading zero omitted, Abs format (unit mm)*
G04 Created by KiCad (PCBNEW 10.0.0) date 2026-06-17 15:35:24*
%MOMM*%
%LPD*%
G01*
G04 APERTURE LIST*
G04 Aperture macros list*
%AMFreePoly0*
4,1,6,1.000000,0.000000,0.500000,-0.750000,-0.500000,-0.750000,-0.500000,0.750000,0.500000,0.750000,1.000000,0.000000,1.000000,0.000000,$1*%
%AMFreePoly1*
4,1,6,0.500000,-0.750000,-0.650000,-0.750000,-0.150000,0.000000,-0.650000,0.750000,0.500000,0.750000,0.500000,-0.750000,0.500000,-0.750000,$1*%
G04 Aperture macros list end*
%ADD10C,0.150000*%
%ADD11C,0.508000*%
%ADD12C,0.120000*%
%ADD13R,1.700000X1.700000*%
%ADD14C,1.700000*%
%ADD15C,2.700000*%
%ADD16R,1.500000X5.080000*%
%ADD17FreePoly0,180.000000*%
%ADD18FreePoly1,180.000000*%
G04 APERTURE END LIST*
D10*
X5054819Y52833334D02*
X5769104Y52833334D01*
X5769104Y52833334D02*
X5911961Y52880953D01*
X5911961Y52880953D02*
X6007200Y52976191D01*
X6007200Y52976191D02*
X6054819Y53119048D01*
X6054819Y53119048D02*
X6054819Y53214286D01*
X6054819Y51833334D02*
X6054819Y52404762D01*
X6054819Y52119048D02*
X5054819Y52119048D01*
X5054819Y52119048D02*
X5197676Y52214286D01*
X5197676Y52214286D02*
X5292914Y52309524D01*
X5292914Y52309524D02*
X5340533Y52404762D01*
%TO.C,J2*%
D11*
X20944500Y6484398D02*
G75*
G02*
X20182500Y6484398I-381000J0D01*
G01*
X20182500Y6484398D02*
G75*
G02*
X20944500Y6484398I381000J0D01*
G01*
%TO.C,J1*%
D12*
X7040000Y55100000D02*
X7040000Y52500000D01*
X7040000Y55100000D02*
X57960000Y55100000D01*
X7040000Y52500000D02*
X9640000Y52500000D01*
X7040000Y51230000D02*
X7040000Y49900000D01*
X7040000Y49900000D02*
X8370000Y49900000D01*
X9640000Y52500000D02*
X9640000Y49900000D01*
X9640000Y49900000D02*
X57960000Y49900000D01*
X57960000Y55100000D02*
X57960000Y49900000D01*
%TO.C,JP7*%
X30600000Y39750000D02*
X30600000Y37750000D01*
X30600000Y37750000D02*
X33400000Y37750000D01*
X33400000Y39750000D02*
X30600000Y39750000D01*
X33400000Y37750000D02*
X33400000Y39750000D01*
%TD*%
%LPC*%
%TO.C,JP7*%
G36*
X30775000Y39500000D02*
G01*
X33225000Y39500000D01*
X33225000Y38000000D01*
X30775000Y38000000D01*
X30775000Y39500000D01*
G37*
%TD*%
D13*
%TO.C,J8*%
X61865000Y40040000D03*
D14*
X61865000Y37500000D03*
X61865000Y34960000D03*
%TD*%
D15*
%TO.C,MH2*%
X61500000Y52500000D03*
%TD*%
D13*
%TO.C,J10*%
X2460000Y13040000D03*
D14*
X2460000Y10500000D03*
X5000000Y13040000D03*
X5000000Y10500000D03*
X7540000Y13040000D03*
X7540000Y10500000D03*
X10080000Y13040000D03*
X10080000Y10500000D03*
X12620000Y13040000D03*
X12620000Y10500000D03*
X15160000Y13040000D03*
X15160000Y10500000D03*
%TD*%
D16*
%TO.C,J4*%
X57050000Y3750000D03*
X48550000Y3750000D03*
%TD*%
D13*
%TO.C,J3*%
X2420000Y46540000D03*
D14*
X2420000Y44000000D03*
X4960000Y46540000D03*
X4960000Y44000000D03*
X7500000Y46540000D03*
X7500000Y44000000D03*
X10040000Y46540000D03*
X10040000Y44000000D03*
X12580000Y46540000D03*
X12580000Y44000000D03*
X15120000Y46540000D03*
X15120000Y44000000D03*
%TD*%
D15*
%TO.C,MH3*%
X3500000Y3500000D03*
%TD*%
%TO.C,MH1*%
X3500000Y52500000D03*
%TD*%
D13*
%TO.C,J9*%
X49840000Y46540000D03*
D14*
X49840000Y44000000D03*
X52380000Y46540000D03*
X52380000Y44000000D03*
X54920000Y46540000D03*
X54920000Y44000000D03*
X57460000Y46540000D03*
X57460000Y44000000D03*
X60000000Y46540000D03*
X60000000Y44000000D03*
X62540000Y46540000D03*
X62540000Y44000000D03*
%TD*%
D15*
%TO.C,MH4*%
X61500000Y3500000D03*
%TD*%
D13*
%TO.C,J1*%
X8370000Y51230000D03*
D14*
X8370000Y53770000D03*
X10910000Y51230000D03*
X10910000Y53770000D03*
X13450000Y51230000D03*
X13450000Y53770000D03*
X15990000Y51230000D03*
X15990000Y53770000D03*
X18530000Y51230000D03*
X18530000Y53770000D03*
X21070000Y51230000D03*
X21070000Y53770000D03*
X23610000Y51230000D03*
X23610000Y53770000D03*
X26150000Y51230000D03*
X26150000Y53770000D03*
X28690000Y51230000D03*
X28690000Y53770000D03*
X31230000Y51230000D03*
X31230000Y53770000D03*
X33770000Y51230000D03*
X33770000Y53770000D03*
X36310000Y51230000D03*
X36310000Y53770000D03*
X38850000Y51230000D03*
X38850000Y53770000D03*
X41390000Y51230000D03*
X41390000Y53770000D03*
X43930000Y51230000D03*
X43930000Y53770000D03*
X46470000Y51230000D03*
X46470000Y53770000D03*
X49010000Y51230000D03*
X49010000Y53770000D03*
X51550000Y51230000D03*
X51550000Y53770000D03*
X54090000Y51230000D03*
X54090000Y53770000D03*
X56630000Y51230000D03*
X56630000Y53770000D03*
%TD*%
D17*
%TO.C,JP7*%
X32725000Y38750000D03*
D18*
X31275000Y38750000D03*
%TD*%
%LPD*%
M02*
