%TF.GenerationSoftware,KiCad,Pcbnew,10.0.3*%
%TF.CreationDate,2026-06-17T16:58:49-04:00*%
%TF.ProjectId,interface_db_hat,696e7465-7266-4616-9365-5f64625f6861,rev?*%
%TF.SameCoordinates,Original*%
%TF.FileFunction,Soldermask,Bot*%
%TF.FilePolarity,Negative*%
%FSLAX46Y46*%
G04 Gerber Fmt 4.6, Leading zero omitted, Abs format (unit mm)*
G04 Created by KiCad (PCBNEW 10.0.3) date 2026-06-17 16:58:49*
%MOMM*%
%LPD*%
G01*
G04 APERTURE LIST*
G04 Aperture macros list*
%AMFreePoly0*
4,1,6,1.000000,0.000000,0.500000,-0.750000,-0.500000,-0.750000,-0.500000,0.750000,0.500000,0.750000,1.000000,0.000000,1.000000,0.000000,$1*%
%AMFreePoly1*
4,1,6,0.500000,-0.750000,-0.650000,-0.750000,-0.150000,0.000000,-0.650000,0.750000,0.500000,0.750000,0.500000,-0.750000,0.500000,-0.750000,$1*%
G04 Aperture macros list end*
%ADD10R,1.700000X1.700000*%
%ADD11C,1.700000*%
%ADD12C,2.700000*%
%ADD13R,1.500000X5.080000*%
%ADD14FreePoly0,180.000000*%
%ADD15FreePoly1,180.000000*%
G04 APERTURE END LIST*
%TO.C,JP7*%
G36*
X30775000Y39500000D02*
G01*
X33225000Y39500000D01*
X33225000Y38000000D01*
X30775000Y38000000D01*
X30775000Y39500000D01*
G37*
%TD*%
D10*
%TO.C,J8*%
X61865000Y40040000D03*
D11*
X61865000Y37500000D03*
X61865000Y34960000D03*
%TD*%
D12*
%TO.C,MH2*%
X61500000Y52500000D03*
%TD*%
D10*
%TO.C,J10*%
X2460000Y13040000D03*
D11*
X2460000Y10500000D03*
X5000000Y13040000D03*
X5000000Y10500000D03*
X7540000Y13040000D03*
X7540000Y10500000D03*
X10080000Y13040000D03*
X10080000Y10500000D03*
X12620000Y13040000D03*
X12620000Y10500000D03*
X15160000Y13040000D03*
X15160000Y10500000D03*
%TD*%
D13*
%TO.C,J4*%
X57050000Y3750000D03*
X48550000Y3750000D03*
%TD*%
D10*
%TO.C,J3*%
X2420000Y46540000D03*
D11*
X2420000Y44000000D03*
X4960000Y46540000D03*
X4960000Y44000000D03*
X7500000Y46540000D03*
X7500000Y44000000D03*
X10040000Y46540000D03*
X10040000Y44000000D03*
X12580000Y46540000D03*
X12580000Y44000000D03*
X15120000Y46540000D03*
X15120000Y44000000D03*
%TD*%
D12*
%TO.C,MH3*%
X3500000Y3500000D03*
%TD*%
%TO.C,MH1*%
X3500000Y52500000D03*
%TD*%
D10*
%TO.C,J9*%
X49840000Y46540000D03*
D11*
X49840000Y44000000D03*
X52380000Y46540000D03*
X52380000Y44000000D03*
X54920000Y46540000D03*
X54920000Y44000000D03*
X57460000Y46540000D03*
X57460000Y44000000D03*
X60000000Y46540000D03*
X60000000Y44000000D03*
X62540000Y46540000D03*
X62540000Y44000000D03*
%TD*%
D12*
%TO.C,MH4*%
X61500000Y3500000D03*
%TD*%
D10*
%TO.C,J1*%
X8370000Y51230000D03*
D11*
X8370000Y53770000D03*
X10910000Y51230000D03*
X10910000Y53770000D03*
X13450000Y51230000D03*
X13450000Y53770000D03*
X15990000Y51230000D03*
X15990000Y53770000D03*
X18530000Y51230000D03*
X18530000Y53770000D03*
X21070000Y51230000D03*
X21070000Y53770000D03*
X23610000Y51230000D03*
X23610000Y53770000D03*
X26150000Y51230000D03*
X26150000Y53770000D03*
X28690000Y51230000D03*
X28690000Y53770000D03*
X31230000Y51230000D03*
X31230000Y53770000D03*
X33770000Y51230000D03*
X33770000Y53770000D03*
X36310000Y51230000D03*
X36310000Y53770000D03*
X38850000Y51230000D03*
X38850000Y53770000D03*
X41390000Y51230000D03*
X41390000Y53770000D03*
X43930000Y51230000D03*
X43930000Y53770000D03*
X46470000Y51230000D03*
X46470000Y53770000D03*
X49010000Y51230000D03*
X49010000Y53770000D03*
X51550000Y51230000D03*
X51550000Y53770000D03*
X54090000Y51230000D03*
X54090000Y53770000D03*
X56630000Y51230000D03*
X56630000Y53770000D03*
%TD*%
D14*
%TO.C,JP7*%
X32725000Y38750000D03*
D15*
X31275000Y38750000D03*
%TD*%
M02*
