%TF.GenerationSoftware,KiCad,Pcbnew,10.0.3*%
%TF.CreationDate,2026-06-17T16:58:48-04:00*%
%TF.ProjectId,interface_db_hat,696e7465-7266-4616-9365-5f64625f6861,rev?*%
%TF.SameCoordinates,Original*%
%TF.FileFunction,Legend,Top*%
%TF.FilePolarity,Positive*%
%FSLAX46Y46*%
G04 Gerber Fmt 4.6, Leading zero omitted, Abs format (unit mm)*
G04 Created by KiCad (PCBNEW 10.0.3) date 2026-06-17 16:58:48*
%MOMM*%
%LPD*%
G01*
G04 APERTURE LIST*
%ADD10C,0.150000*%
%ADD11C,0.200000*%
%ADD12C,0.152400*%
%ADD13C,0.508000*%
%ADD14C,0.120000*%
%ADD15C,0.127000*%
G04 APERTURE END LIST*
D10*
X7555826Y16611229D02*
X7212969Y16611229D01*
X7384398Y16611229D02*
X7384398Y17211229D01*
X7384398Y17211229D02*
X7327255Y17125515D01*
X7327255Y17125515D02*
X7270112Y17068372D01*
X7270112Y17068372D02*
X7212969Y17039800D01*
X7784398Y17154086D02*
X7812970Y17182658D01*
X7812970Y17182658D02*
X7870113Y17211229D01*
X7870113Y17211229D02*
X8012970Y17211229D01*
X8012970Y17211229D02*
X8070113Y17182658D01*
X8070113Y17182658D02*
X8098684Y17154086D01*
X8098684Y17154086D02*
X8127255Y17096943D01*
X8127255Y17096943D02*
X8127255Y17039800D01*
X8127255Y17039800D02*
X8098684Y16954086D01*
X8098684Y16954086D02*
X7755827Y16611229D01*
X7755827Y16611229D02*
X8127255Y16611229D01*
X8298684Y17211229D02*
X8498684Y16611229D01*
X8498684Y16611229D02*
X8698684Y17211229D01*
X18527255Y39881229D02*
X18241541Y39881229D01*
X18241541Y39881229D02*
X18212969Y39595515D01*
X18212969Y39595515D02*
X18241541Y39624086D01*
X18241541Y39624086D02*
X18298684Y39652658D01*
X18298684Y39652658D02*
X18441541Y39652658D01*
X18441541Y39652658D02*
X18498684Y39624086D01*
X18498684Y39624086D02*
X18527255Y39595515D01*
X18527255Y39595515D02*
X18555826Y39538372D01*
X18555826Y39538372D02*
X18555826Y39395515D01*
X18555826Y39395515D02*
X18527255Y39338372D01*
X18527255Y39338372D02*
X18498684Y39309800D01*
X18498684Y39309800D02*
X18441541Y39281229D01*
X18441541Y39281229D02*
X18298684Y39281229D01*
X18298684Y39281229D02*
X18241541Y39309800D01*
X18241541Y39309800D02*
X18212969Y39338372D01*
X18727255Y39881229D02*
X18927255Y39281229D01*
X18927255Y39281229D02*
X19127255Y39881229D01*
X28891541Y25081229D02*
X28891541Y25681229D01*
X29177255Y25081229D02*
X29177255Y25681229D01*
X29177255Y25681229D02*
X29520112Y25081229D01*
X29520112Y25081229D02*
X29520112Y25681229D01*
X29805826Y25081229D02*
X29805826Y25681229D01*
X29805826Y25681229D02*
X29948683Y25681229D01*
X29948683Y25681229D02*
X30034397Y25652658D01*
X30034397Y25652658D02*
X30091540Y25595515D01*
X30091540Y25595515D02*
X30120111Y25538372D01*
X30120111Y25538372D02*
X30148683Y25424086D01*
X30148683Y25424086D02*
X30148683Y25338372D01*
X30148683Y25338372D02*
X30120111Y25224086D01*
X30120111Y25224086D02*
X30091540Y25166943D01*
X30091540Y25166943D02*
X30034397Y25109800D01*
X30034397Y25109800D02*
X29948683Y25081229D01*
X29948683Y25081229D02*
X29805826Y25081229D01*
X30377254Y25624086D02*
X30405826Y25652658D01*
X30405826Y25652658D02*
X30462969Y25681229D01*
X30462969Y25681229D02*
X30605826Y25681229D01*
X30605826Y25681229D02*
X30662969Y25652658D01*
X30662969Y25652658D02*
X30691540Y25624086D01*
X30691540Y25624086D02*
X30720111Y25566943D01*
X30720111Y25566943D02*
X30720111Y25509800D01*
X30720111Y25509800D02*
X30691540Y25424086D01*
X30691540Y25424086D02*
X30348683Y25081229D01*
X30348683Y25081229D02*
X30720111Y25081229D01*
X29041541Y29481229D02*
X29041541Y30081229D01*
X29327255Y29481229D02*
X29327255Y30081229D01*
X29327255Y30081229D02*
X29670112Y29481229D01*
X29670112Y29481229D02*
X29670112Y30081229D01*
X29955826Y29481229D02*
X29955826Y30081229D01*
X29955826Y30081229D02*
X30098683Y30081229D01*
X30098683Y30081229D02*
X30184397Y30052658D01*
X30184397Y30052658D02*
X30241540Y29995515D01*
X30241540Y29995515D02*
X30270111Y29938372D01*
X30270111Y29938372D02*
X30298683Y29824086D01*
X30298683Y29824086D02*
X30298683Y29738372D01*
X30298683Y29738372D02*
X30270111Y29624086D01*
X30270111Y29624086D02*
X30241540Y29566943D01*
X30241540Y29566943D02*
X30184397Y29509800D01*
X30184397Y29509800D02*
X30098683Y29481229D01*
X30098683Y29481229D02*
X29955826Y29481229D01*
X30870111Y29481229D02*
X30527254Y29481229D01*
X30698683Y29481229D02*
X30698683Y30081229D01*
X30698683Y30081229D02*
X30641540Y29995515D01*
X30641540Y29995515D02*
X30584397Y29938372D01*
X30584397Y29938372D02*
X30527254Y29909800D01*
X41584398Y39681229D02*
X41955826Y39681229D01*
X41955826Y39681229D02*
X41755826Y39452658D01*
X41755826Y39452658D02*
X41841541Y39452658D01*
X41841541Y39452658D02*
X41898684Y39424086D01*
X41898684Y39424086D02*
X41927255Y39395515D01*
X41927255Y39395515D02*
X41955826Y39338372D01*
X41955826Y39338372D02*
X41955826Y39195515D01*
X41955826Y39195515D02*
X41927255Y39138372D01*
X41927255Y39138372D02*
X41898684Y39109800D01*
X41898684Y39109800D02*
X41841541Y39081229D01*
X41841541Y39081229D02*
X41670112Y39081229D01*
X41670112Y39081229D02*
X41612969Y39109800D01*
X41612969Y39109800D02*
X41584398Y39138372D01*
X42127255Y39681229D02*
X42327255Y39081229D01*
X42327255Y39081229D02*
X42527255Y39681229D01*
X42670113Y39681229D02*
X43041541Y39681229D01*
X43041541Y39681229D02*
X42841541Y39452658D01*
X42841541Y39452658D02*
X42927256Y39452658D01*
X42927256Y39452658D02*
X42984399Y39424086D01*
X42984399Y39424086D02*
X43012970Y39395515D01*
X43012970Y39395515D02*
X43041541Y39338372D01*
X43041541Y39338372D02*
X43041541Y39195515D01*
X43041541Y39195515D02*
X43012970Y39138372D01*
X43012970Y39138372D02*
X42984399Y39109800D01*
X42984399Y39109800D02*
X42927256Y39081229D01*
X42927256Y39081229D02*
X42755827Y39081229D01*
X42755827Y39081229D02*
X42698684Y39109800D01*
X42698684Y39109800D02*
X42670113Y39138372D01*
X936779Y7130181D02*
X936779Y8130181D01*
X936779Y8130181D02*
X1317731Y8130181D01*
X1317731Y8130181D02*
X1412969Y8082562D01*
X1412969Y8082562D02*
X1460588Y8034943D01*
X1460588Y8034943D02*
X1508207Y7939705D01*
X1508207Y7939705D02*
X1508207Y7796848D01*
X1508207Y7796848D02*
X1460588Y7701610D01*
X1460588Y7701610D02*
X1412969Y7653991D01*
X1412969Y7653991D02*
X1317731Y7606372D01*
X1317731Y7606372D02*
X936779Y7606372D01*
X1936779Y7130181D02*
X1936779Y8130181D01*
X1936779Y8130181D02*
X2174874Y8130181D01*
X2174874Y8130181D02*
X2317731Y8082562D01*
X2317731Y8082562D02*
X2412969Y7987324D01*
X2412969Y7987324D02*
X2460588Y7892086D01*
X2460588Y7892086D02*
X2508207Y7701610D01*
X2508207Y7701610D02*
X2508207Y7558753D01*
X2508207Y7558753D02*
X2460588Y7368277D01*
X2460588Y7368277D02*
X2412969Y7273039D01*
X2412969Y7273039D02*
X2317731Y7177800D01*
X2317731Y7177800D02*
X2174874Y7130181D01*
X2174874Y7130181D02*
X1936779Y7130181D01*
X3698684Y7130181D02*
X3698684Y8130181D01*
X3698684Y8130181D02*
X4079636Y8130181D01*
X4079636Y8130181D02*
X4174874Y8082562D01*
X4174874Y8082562D02*
X4222493Y8034943D01*
X4222493Y8034943D02*
X4270112Y7939705D01*
X4270112Y7939705D02*
X4270112Y7796848D01*
X4270112Y7796848D02*
X4222493Y7701610D01*
X4222493Y7701610D02*
X4174874Y7653991D01*
X4174874Y7653991D02*
X4079636Y7606372D01*
X4079636Y7606372D02*
X3698684Y7606372D01*
X4889160Y8130181D02*
X5079636Y8130181D01*
X5079636Y8130181D02*
X5174874Y8082562D01*
X5174874Y8082562D02*
X5270112Y7987324D01*
X5270112Y7987324D02*
X5317731Y7796848D01*
X5317731Y7796848D02*
X5317731Y7463515D01*
X5317731Y7463515D02*
X5270112Y7273039D01*
X5270112Y7273039D02*
X5174874Y7177800D01*
X5174874Y7177800D02*
X5079636Y7130181D01*
X5079636Y7130181D02*
X4889160Y7130181D01*
X4889160Y7130181D02*
X4793922Y7177800D01*
X4793922Y7177800D02*
X4698684Y7273039D01*
X4698684Y7273039D02*
X4651065Y7463515D01*
X4651065Y7463515D02*
X4651065Y7796848D01*
X4651065Y7796848D02*
X4698684Y7987324D01*
X4698684Y7987324D02*
X4793922Y8082562D01*
X4793922Y8082562D02*
X4889160Y8130181D01*
X5651065Y8130181D02*
X5889160Y7130181D01*
X5889160Y7130181D02*
X6079636Y7844467D01*
X6079636Y7844467D02*
X6270112Y7130181D01*
X6270112Y7130181D02*
X6508208Y8130181D01*
X6889160Y7653991D02*
X7222493Y7653991D01*
X7365350Y7130181D02*
X6889160Y7130181D01*
X6889160Y7130181D02*
X6889160Y8130181D01*
X6889160Y8130181D02*
X7365350Y8130181D01*
X8365350Y7130181D02*
X8032017Y7606372D01*
X7793922Y7130181D02*
X7793922Y8130181D01*
X7793922Y8130181D02*
X8174874Y8130181D01*
X8174874Y8130181D02*
X8270112Y8082562D01*
X8270112Y8082562D02*
X8317731Y8034943D01*
X8317731Y8034943D02*
X8365350Y7939705D01*
X8365350Y7939705D02*
X8365350Y7796848D01*
X8365350Y7796848D02*
X8317731Y7701610D01*
X8317731Y7701610D02*
X8270112Y7653991D01*
X8270112Y7653991D02*
X8174874Y7606372D01*
X8174874Y7606372D02*
X7793922Y7606372D01*
X7339160Y30815784D02*
X7815350Y30815784D01*
X7243922Y30530069D02*
X7577255Y31530069D01*
X7577255Y31530069D02*
X7910588Y30530069D01*
X8720112Y30530069D02*
X8243922Y30530069D01*
X8243922Y30530069D02*
X8243922Y31530069D01*
X8910589Y31530069D02*
X9482017Y31530069D01*
X9196303Y30530069D02*
X9196303Y31530069D01*
X9767732Y30815784D02*
X10243922Y30815784D01*
X9672494Y30530069D02*
X10005827Y31530069D01*
X10005827Y31530069D02*
X10339160Y30530069D01*
X10672494Y30530069D02*
X10672494Y31530069D01*
X11720112Y30530069D02*
X11386779Y31006260D01*
X11148684Y30530069D02*
X11148684Y31530069D01*
X11148684Y31530069D02*
X11529636Y31530069D01*
X11529636Y31530069D02*
X11624874Y31482450D01*
X11624874Y31482450D02*
X11672493Y31434831D01*
X11672493Y31434831D02*
X11720112Y31339593D01*
X11720112Y31339593D02*
X11720112Y31196736D01*
X11720112Y31196736D02*
X11672493Y31101498D01*
X11672493Y31101498D02*
X11624874Y31053879D01*
X11624874Y31053879D02*
X11529636Y31006260D01*
X11529636Y31006260D02*
X11148684Y31006260D01*
X12910589Y30530069D02*
X12910589Y31530069D01*
X13386779Y31196736D02*
X13386779Y30530069D01*
X13386779Y31101498D02*
X13434398Y31149117D01*
X13434398Y31149117D02*
X13529636Y31196736D01*
X13529636Y31196736D02*
X13672493Y31196736D01*
X13672493Y31196736D02*
X13767731Y31149117D01*
X13767731Y31149117D02*
X13815350Y31053879D01*
X13815350Y31053879D02*
X13815350Y30530069D01*
X14148684Y31196736D02*
X14529636Y31196736D01*
X14291541Y31530069D02*
X14291541Y30672927D01*
X14291541Y30672927D02*
X14339160Y30577688D01*
X14339160Y30577688D02*
X14434398Y30530069D01*
X14434398Y30530069D02*
X14529636Y30530069D01*
X15243922Y30577688D02*
X15148684Y30530069D01*
X15148684Y30530069D02*
X14958208Y30530069D01*
X14958208Y30530069D02*
X14862970Y30577688D01*
X14862970Y30577688D02*
X14815351Y30672927D01*
X14815351Y30672927D02*
X14815351Y31053879D01*
X14815351Y31053879D02*
X14862970Y31149117D01*
X14862970Y31149117D02*
X14958208Y31196736D01*
X14958208Y31196736D02*
X15148684Y31196736D01*
X15148684Y31196736D02*
X15243922Y31149117D01*
X15243922Y31149117D02*
X15291541Y31053879D01*
X15291541Y31053879D02*
X15291541Y30958641D01*
X15291541Y30958641D02*
X14815351Y30863403D01*
X15720113Y30530069D02*
X15720113Y31196736D01*
X15720113Y31006260D02*
X15767732Y31101498D01*
X15767732Y31101498D02*
X15815351Y31149117D01*
X15815351Y31149117D02*
X15910589Y31196736D01*
X15910589Y31196736D02*
X16005827Y31196736D01*
X16196304Y31196736D02*
X16577256Y31196736D01*
X16339161Y30530069D02*
X16339161Y31387212D01*
X16339161Y31387212D02*
X16386780Y31482450D01*
X16386780Y31482450D02*
X16482018Y31530069D01*
X16482018Y31530069D02*
X16577256Y31530069D01*
X17339161Y30530069D02*
X17339161Y31053879D01*
X17339161Y31053879D02*
X17291542Y31149117D01*
X17291542Y31149117D02*
X17196304Y31196736D01*
X17196304Y31196736D02*
X17005828Y31196736D01*
X17005828Y31196736D02*
X16910590Y31149117D01*
X17339161Y30577688D02*
X17243923Y30530069D01*
X17243923Y30530069D02*
X17005828Y30530069D01*
X17005828Y30530069D02*
X16910590Y30577688D01*
X16910590Y30577688D02*
X16862971Y30672927D01*
X16862971Y30672927D02*
X16862971Y30768165D01*
X16862971Y30768165D02*
X16910590Y30863403D01*
X16910590Y30863403D02*
X17005828Y30911022D01*
X17005828Y30911022D02*
X17243923Y30911022D01*
X17243923Y30911022D02*
X17339161Y30958641D01*
X18243923Y30577688D02*
X18148685Y30530069D01*
X18148685Y30530069D02*
X17958209Y30530069D01*
X17958209Y30530069D02*
X17862971Y30577688D01*
X17862971Y30577688D02*
X17815352Y30625308D01*
X17815352Y30625308D02*
X17767733Y30720546D01*
X17767733Y30720546D02*
X17767733Y31006260D01*
X17767733Y31006260D02*
X17815352Y31101498D01*
X17815352Y31101498D02*
X17862971Y31149117D01*
X17862971Y31149117D02*
X17958209Y31196736D01*
X17958209Y31196736D02*
X18148685Y31196736D01*
X18148685Y31196736D02*
X18243923Y31149117D01*
X19053447Y30577688D02*
X18958209Y30530069D01*
X18958209Y30530069D02*
X18767733Y30530069D01*
X18767733Y30530069D02*
X18672495Y30577688D01*
X18672495Y30577688D02*
X18624876Y30672927D01*
X18624876Y30672927D02*
X18624876Y31053879D01*
X18624876Y31053879D02*
X18672495Y31149117D01*
X18672495Y31149117D02*
X18767733Y31196736D01*
X18767733Y31196736D02*
X18958209Y31196736D01*
X18958209Y31196736D02*
X19053447Y31149117D01*
X19053447Y31149117D02*
X19101066Y31053879D01*
X19101066Y31053879D02*
X19101066Y30958641D01*
X19101066Y30958641D02*
X18624876Y30863403D01*
X20291543Y30530069D02*
X20291543Y31530069D01*
X20291543Y31053879D02*
X20862971Y31053879D01*
X20862971Y30530069D02*
X20862971Y31530069D01*
X21291543Y30815784D02*
X21767733Y30815784D01*
X21196305Y30530069D02*
X21529638Y31530069D01*
X21529638Y31530069D02*
X21862971Y30530069D01*
X22053448Y31530069D02*
X22624876Y31530069D01*
X22339162Y30530069D02*
X22339162Y31530069D01*
X7720112Y29443935D02*
X7862969Y29396316D01*
X7862969Y29396316D02*
X7910588Y29348697D01*
X7910588Y29348697D02*
X7958207Y29253459D01*
X7958207Y29253459D02*
X7958207Y29110602D01*
X7958207Y29110602D02*
X7910588Y29015364D01*
X7910588Y29015364D02*
X7862969Y28967744D01*
X7862969Y28967744D02*
X7767731Y28920125D01*
X7767731Y28920125D02*
X7386779Y28920125D01*
X7386779Y28920125D02*
X7386779Y29920125D01*
X7386779Y29920125D02*
X7720112Y29920125D01*
X7720112Y29920125D02*
X7815350Y29872506D01*
X7815350Y29872506D02*
X7862969Y29824887D01*
X7862969Y29824887D02*
X7910588Y29729649D01*
X7910588Y29729649D02*
X7910588Y29634411D01*
X7910588Y29634411D02*
X7862969Y29539173D01*
X7862969Y29539173D02*
X7815350Y29491554D01*
X7815350Y29491554D02*
X7720112Y29443935D01*
X7720112Y29443935D02*
X7386779Y29443935D01*
X8767731Y28967744D02*
X8672493Y28920125D01*
X8672493Y28920125D02*
X8482017Y28920125D01*
X8482017Y28920125D02*
X8386779Y28967744D01*
X8386779Y28967744D02*
X8339160Y29062983D01*
X8339160Y29062983D02*
X8339160Y29443935D01*
X8339160Y29443935D02*
X8386779Y29539173D01*
X8386779Y29539173D02*
X8482017Y29586792D01*
X8482017Y29586792D02*
X8672493Y29586792D01*
X8672493Y29586792D02*
X8767731Y29539173D01*
X8767731Y29539173D02*
X8815350Y29443935D01*
X8815350Y29443935D02*
X8815350Y29348697D01*
X8815350Y29348697D02*
X8339160Y29253459D01*
X9243922Y29586792D02*
X9243922Y28920125D01*
X9243922Y29491554D02*
X9291541Y29539173D01*
X9291541Y29539173D02*
X9386779Y29586792D01*
X9386779Y29586792D02*
X9529636Y29586792D01*
X9529636Y29586792D02*
X9624874Y29539173D01*
X9624874Y29539173D02*
X9672493Y29443935D01*
X9672493Y29443935D02*
X9672493Y28920125D01*
X10910589Y28920125D02*
X10910589Y29920125D01*
X10910589Y29920125D02*
X11148684Y29920125D01*
X11148684Y29920125D02*
X11291541Y29872506D01*
X11291541Y29872506D02*
X11386779Y29777268D01*
X11386779Y29777268D02*
X11434398Y29682030D01*
X11434398Y29682030D02*
X11482017Y29491554D01*
X11482017Y29491554D02*
X11482017Y29348697D01*
X11482017Y29348697D02*
X11434398Y29158221D01*
X11434398Y29158221D02*
X11386779Y29062983D01*
X11386779Y29062983D02*
X11291541Y28967744D01*
X11291541Y28967744D02*
X11148684Y28920125D01*
X11148684Y28920125D02*
X10910589Y28920125D01*
X11958208Y29920125D02*
X11862970Y29729649D01*
X12339160Y29205840D02*
X12815350Y29205840D01*
X12243922Y28920125D02*
X12577255Y29920125D01*
X12577255Y29920125D02*
X12910588Y28920125D01*
X13672493Y29586792D02*
X13672493Y28777268D01*
X13672493Y28777268D02*
X13624874Y28682030D01*
X13624874Y28682030D02*
X13577255Y28634411D01*
X13577255Y28634411D02*
X13482017Y28586792D01*
X13482017Y28586792D02*
X13339160Y28586792D01*
X13339160Y28586792D02*
X13243922Y28634411D01*
X13672493Y28967744D02*
X13577255Y28920125D01*
X13577255Y28920125D02*
X13386779Y28920125D01*
X13386779Y28920125D02*
X13291541Y28967744D01*
X13291541Y28967744D02*
X13243922Y29015364D01*
X13243922Y29015364D02*
X13196303Y29110602D01*
X13196303Y29110602D02*
X13196303Y29396316D01*
X13196303Y29396316D02*
X13243922Y29491554D01*
X13243922Y29491554D02*
X13291541Y29539173D01*
X13291541Y29539173D02*
X13386779Y29586792D01*
X13386779Y29586792D02*
X13577255Y29586792D01*
X13577255Y29586792D02*
X13672493Y29539173D01*
X14148684Y29586792D02*
X14148684Y28920125D01*
X14148684Y29491554D02*
X14196303Y29539173D01*
X14196303Y29539173D02*
X14291541Y29586792D01*
X14291541Y29586792D02*
X14434398Y29586792D01*
X14434398Y29586792D02*
X14529636Y29539173D01*
X14529636Y29539173D02*
X14577255Y29443935D01*
X14577255Y29443935D02*
X14577255Y28920125D01*
X15053446Y28920125D02*
X15053446Y29586792D01*
X15053446Y29920125D02*
X15005827Y29872506D01*
X15005827Y29872506D02*
X15053446Y29824887D01*
X15053446Y29824887D02*
X15101065Y29872506D01*
X15101065Y29872506D02*
X15053446Y29920125D01*
X15053446Y29920125D02*
X15053446Y29824887D01*
X15672493Y28920125D02*
X15577255Y28967744D01*
X15577255Y28967744D02*
X15529636Y29062983D01*
X15529636Y29062983D02*
X15529636Y29920125D01*
X16196303Y28920125D02*
X16101065Y28967744D01*
X16101065Y28967744D02*
X16053446Y29062983D01*
X16053446Y29062983D02*
X16053446Y29920125D01*
X16720113Y28920125D02*
X16624875Y28967744D01*
X16624875Y28967744D02*
X16577256Y29015364D01*
X16577256Y29015364D02*
X16529637Y29110602D01*
X16529637Y29110602D02*
X16529637Y29396316D01*
X16529637Y29396316D02*
X16577256Y29491554D01*
X16577256Y29491554D02*
X16624875Y29539173D01*
X16624875Y29539173D02*
X16720113Y29586792D01*
X16720113Y29586792D02*
X16862970Y29586792D01*
X16862970Y29586792D02*
X16958208Y29539173D01*
X16958208Y29539173D02*
X17005827Y29491554D01*
X17005827Y29491554D02*
X17053446Y29396316D01*
X17053446Y29396316D02*
X17053446Y29110602D01*
X17053446Y29110602D02*
X17005827Y29015364D01*
X17005827Y29015364D02*
X16958208Y28967744D01*
X16958208Y28967744D02*
X16862970Y28920125D01*
X16862970Y28920125D02*
X16720113Y28920125D01*
X7672493Y28310181D02*
X7672493Y27595896D01*
X7672493Y27595896D02*
X7624874Y27453039D01*
X7624874Y27453039D02*
X7529636Y27357800D01*
X7529636Y27357800D02*
X7386779Y27310181D01*
X7386779Y27310181D02*
X7291541Y27310181D01*
X8577255Y27976848D02*
X8577255Y27310181D01*
X8148684Y27976848D02*
X8148684Y27453039D01*
X8148684Y27453039D02*
X8196303Y27357800D01*
X8196303Y27357800D02*
X8291541Y27310181D01*
X8291541Y27310181D02*
X8434398Y27310181D01*
X8434398Y27310181D02*
X8529636Y27357800D01*
X8529636Y27357800D02*
X8577255Y27405420D01*
X9053446Y27976848D02*
X9053446Y27310181D01*
X9053446Y27881610D02*
X9101065Y27929229D01*
X9101065Y27929229D02*
X9196303Y27976848D01*
X9196303Y27976848D02*
X9339160Y27976848D01*
X9339160Y27976848D02*
X9434398Y27929229D01*
X9434398Y27929229D02*
X9482017Y27833991D01*
X9482017Y27833991D02*
X9482017Y27310181D01*
X10339160Y27357800D02*
X10243922Y27310181D01*
X10243922Y27310181D02*
X10053446Y27310181D01*
X10053446Y27310181D02*
X9958208Y27357800D01*
X9958208Y27357800D02*
X9910589Y27453039D01*
X9910589Y27453039D02*
X9910589Y27833991D01*
X9910589Y27833991D02*
X9958208Y27929229D01*
X9958208Y27929229D02*
X10053446Y27976848D01*
X10053446Y27976848D02*
X10243922Y27976848D01*
X10243922Y27976848D02*
X10339160Y27929229D01*
X10339160Y27929229D02*
X10386779Y27833991D01*
X10386779Y27833991D02*
X10386779Y27738753D01*
X10386779Y27738753D02*
X9910589Y27643515D01*
X11529637Y28214943D02*
X11577256Y28262562D01*
X11577256Y28262562D02*
X11672494Y28310181D01*
X11672494Y28310181D02*
X11910589Y28310181D01*
X11910589Y28310181D02*
X12005827Y28262562D01*
X12005827Y28262562D02*
X12053446Y28214943D01*
X12053446Y28214943D02*
X12101065Y28119705D01*
X12101065Y28119705D02*
X12101065Y28024467D01*
X12101065Y28024467D02*
X12053446Y27881610D01*
X12053446Y27881610D02*
X11482018Y27310181D01*
X11482018Y27310181D02*
X12101065Y27310181D01*
X12720113Y28310181D02*
X12815351Y28310181D01*
X12815351Y28310181D02*
X12910589Y28262562D01*
X12910589Y28262562D02*
X12958208Y28214943D01*
X12958208Y28214943D02*
X13005827Y28119705D01*
X13005827Y28119705D02*
X13053446Y27929229D01*
X13053446Y27929229D02*
X13053446Y27691134D01*
X13053446Y27691134D02*
X13005827Y27500658D01*
X13005827Y27500658D02*
X12958208Y27405420D01*
X12958208Y27405420D02*
X12910589Y27357800D01*
X12910589Y27357800D02*
X12815351Y27310181D01*
X12815351Y27310181D02*
X12720113Y27310181D01*
X12720113Y27310181D02*
X12624875Y27357800D01*
X12624875Y27357800D02*
X12577256Y27405420D01*
X12577256Y27405420D02*
X12529637Y27500658D01*
X12529637Y27500658D02*
X12482018Y27691134D01*
X12482018Y27691134D02*
X12482018Y27929229D01*
X12482018Y27929229D02*
X12529637Y28119705D01*
X12529637Y28119705D02*
X12577256Y28214943D01*
X12577256Y28214943D02*
X12624875Y28262562D01*
X12624875Y28262562D02*
X12720113Y28310181D01*
X13434399Y28214943D02*
X13482018Y28262562D01*
X13482018Y28262562D02*
X13577256Y28310181D01*
X13577256Y28310181D02*
X13815351Y28310181D01*
X13815351Y28310181D02*
X13910589Y28262562D01*
X13910589Y28262562D02*
X13958208Y28214943D01*
X13958208Y28214943D02*
X14005827Y28119705D01*
X14005827Y28119705D02*
X14005827Y28024467D01*
X14005827Y28024467D02*
X13958208Y27881610D01*
X13958208Y27881610D02*
X13386780Y27310181D01*
X13386780Y27310181D02*
X14005827Y27310181D01*
X14862970Y28310181D02*
X14672494Y28310181D01*
X14672494Y28310181D02*
X14577256Y28262562D01*
X14577256Y28262562D02*
X14529637Y28214943D01*
X14529637Y28214943D02*
X14434399Y28072086D01*
X14434399Y28072086D02*
X14386780Y27881610D01*
X14386780Y27881610D02*
X14386780Y27500658D01*
X14386780Y27500658D02*
X14434399Y27405420D01*
X14434399Y27405420D02*
X14482018Y27357800D01*
X14482018Y27357800D02*
X14577256Y27310181D01*
X14577256Y27310181D02*
X14767732Y27310181D01*
X14767732Y27310181D02*
X14862970Y27357800D01*
X14862970Y27357800D02*
X14910589Y27405420D01*
X14910589Y27405420D02*
X14958208Y27500658D01*
X14958208Y27500658D02*
X14958208Y27738753D01*
X14958208Y27738753D02*
X14910589Y27833991D01*
X14910589Y27833991D02*
X14862970Y27881610D01*
X14862970Y27881610D02*
X14767732Y27929229D01*
X14767732Y27929229D02*
X14577256Y27929229D01*
X14577256Y27929229D02*
X14482018Y27881610D01*
X14482018Y27881610D02*
X14434399Y27833991D01*
X14434399Y27833991D02*
X14386780Y27738753D01*
X16148685Y27691134D02*
X16910590Y27691134D01*
X18053447Y27976848D02*
X18291542Y27310181D01*
X18291542Y27310181D02*
X18529637Y27976848D01*
X19434399Y27310181D02*
X18862971Y27310181D01*
X19148685Y27310181D02*
X19148685Y28310181D01*
X19148685Y28310181D02*
X19053447Y28167324D01*
X19053447Y28167324D02*
X18958209Y28072086D01*
X18958209Y28072086D02*
X18862971Y28024467D01*
X19862971Y27405420D02*
X19910590Y27357800D01*
X19910590Y27357800D02*
X19862971Y27310181D01*
X19862971Y27310181D02*
X19815352Y27357800D01*
X19815352Y27357800D02*
X19862971Y27405420D01*
X19862971Y27405420D02*
X19862971Y27310181D01*
X20291542Y28214943D02*
X20339161Y28262562D01*
X20339161Y28262562D02*
X20434399Y28310181D01*
X20434399Y28310181D02*
X20672494Y28310181D01*
X20672494Y28310181D02*
X20767732Y28262562D01*
X20767732Y28262562D02*
X20815351Y28214943D01*
X20815351Y28214943D02*
X20862970Y28119705D01*
X20862970Y28119705D02*
X20862970Y28024467D01*
X20862970Y28024467D02*
X20815351Y27881610D01*
X20815351Y27881610D02*
X20243923Y27310181D01*
X20243923Y27310181D02*
X20862970Y27310181D01*
X44869819Y8086780D02*
X43869819Y8086780D01*
X43869819Y8086780D02*
X43869819Y8467732D01*
X43869819Y8467732D02*
X43917438Y8562970D01*
X43917438Y8562970D02*
X43965057Y8610589D01*
X43965057Y8610589D02*
X44060295Y8658208D01*
X44060295Y8658208D02*
X44203152Y8658208D01*
X44203152Y8658208D02*
X44298390Y8610589D01*
X44298390Y8610589D02*
X44346009Y8562970D01*
X44346009Y8562970D02*
X44393628Y8467732D01*
X44393628Y8467732D02*
X44393628Y8086780D01*
X44869819Y9086780D02*
X43869819Y9086780D01*
X43869819Y9086780D02*
X43869819Y9324875D01*
X43869819Y9324875D02*
X43917438Y9467732D01*
X43917438Y9467732D02*
X44012676Y9562970D01*
X44012676Y9562970D02*
X44107914Y9610589D01*
X44107914Y9610589D02*
X44298390Y9658208D01*
X44298390Y9658208D02*
X44441247Y9658208D01*
X44441247Y9658208D02*
X44631723Y9610589D01*
X44631723Y9610589D02*
X44726961Y9562970D01*
X44726961Y9562970D02*
X44822200Y9467732D01*
X44822200Y9467732D02*
X44869819Y9324875D01*
X44869819Y9324875D02*
X44869819Y9086780D01*
X44869819Y10848685D02*
X43869819Y10848685D01*
X43822200Y12039160D02*
X45107914Y11182018D01*
X43869819Y12562970D02*
X43869819Y12753446D01*
X43869819Y12753446D02*
X43917438Y12848684D01*
X43917438Y12848684D02*
X44012676Y12943922D01*
X44012676Y12943922D02*
X44203152Y12991541D01*
X44203152Y12991541D02*
X44536485Y12991541D01*
X44536485Y12991541D02*
X44726961Y12943922D01*
X44726961Y12943922D02*
X44822200Y12848684D01*
X44822200Y12848684D02*
X44869819Y12753446D01*
X44869819Y12753446D02*
X44869819Y12562970D01*
X44869819Y12562970D02*
X44822200Y12467732D01*
X44822200Y12467732D02*
X44726961Y12372494D01*
X44726961Y12372494D02*
X44536485Y12324875D01*
X44536485Y12324875D02*
X44203152Y12324875D01*
X44203152Y12324875D02*
X44012676Y12372494D01*
X44012676Y12372494D02*
X43917438Y12467732D01*
X43917438Y12467732D02*
X43869819Y12562970D01*
%TO.C,U2*%
D11*
X49200003Y38449998D02*
X49200003Y36549999D01*
X49200003Y38449998D02*
X51600001Y38449998D01*
X49200003Y36549999D02*
X52300002Y36549999D01*
X51600001Y38449998D02*
X52300002Y37749997D01*
X52300002Y37749997D02*
X52300002Y36549999D01*
%TO.C,J2*%
D12*
X21198500Y5878100D02*
X21198500Y3772539D01*
X22204410Y721900D02*
X44195590Y721900D01*
X23067970Y5878100D02*
X21198500Y5878100D01*
X45201500Y5878100D02*
X43332030Y5878100D01*
X45201500Y3772539D02*
X45201500Y5878100D01*
D13*
X20944500Y6484398D02*
G75*
G02*
X20182500Y6484398I-381000J0D01*
G01*
X20182500Y6484398D02*
G75*
G02*
X20944500Y6484398I381000J0D01*
G01*
%TO.C,J8*%
D14*
X60595000Y41310000D02*
X61865000Y41310000D01*
X60595000Y40040000D02*
X60595000Y41310000D01*
X62942358Y37930000D02*
X63255000Y37930000D01*
X62942358Y37070000D02*
X63255000Y37070000D01*
X62942358Y35390000D02*
X63255000Y35390000D01*
X62942358Y34530000D02*
X63255000Y34530000D01*
X63025000Y40470000D02*
X63255000Y40470000D01*
X63025000Y39610000D02*
X63255000Y39610000D01*
X63255000Y38770000D02*
X66015000Y38770000D01*
X63255000Y36230000D02*
X66015000Y36230000D01*
X66015000Y37930000D02*
X72015000Y37930000D01*
X66015000Y35390000D02*
X72015000Y35390000D01*
X72015000Y37930000D02*
X72015000Y37070000D01*
X72015000Y37070000D02*
X66015000Y37070000D01*
X72015000Y35390000D02*
X72015000Y34530000D01*
X72015000Y34530000D02*
X66015000Y34530000D01*
X63255000Y41420000D02*
X66015000Y41420000D01*
X66015000Y33580000D01*
X63255000Y33580000D01*
X63255000Y41420000D01*
X66015000Y40470000D02*
X72015000Y40470000D01*
X72015000Y39610000D01*
X66015000Y39610000D01*
X66015000Y40470000D01*
G36*
X66015000Y40470000D02*
G01*
X72015000Y40470000D01*
X72015000Y39610000D01*
X66015000Y39610000D01*
X66015000Y40470000D01*
G37*
%TO.C,R64*%
X53995276Y34272500D02*
X54504724Y34272500D01*
X53995276Y33227500D02*
X54504724Y33227500D01*
%TO.C,R11*%
X14740276Y41722500D02*
X15249724Y41722500D01*
X14740276Y40677500D02*
X15249724Y40677500D01*
%TO.C,R19*%
X9487258Y35647500D02*
X9012742Y35647500D01*
X9487258Y34602500D02*
X9012742Y34602500D01*
%TO.C,R54*%
X30177500Y14304724D02*
X30177500Y13795276D01*
X31222500Y14304724D02*
X31222500Y13795276D01*
%TO.C,JP1*%
X56700000Y10600000D02*
X58700000Y10600000D01*
X56700000Y7800000D02*
X56700000Y10600000D01*
X58700000Y10600000D02*
X58700000Y7800000D01*
X58700000Y7800000D02*
X56700000Y7800000D01*
%TO.C,R4*%
X48877500Y20954724D02*
X48877500Y20445276D01*
X49922500Y20954724D02*
X49922500Y20445276D01*
%TO.C,R36*%
X17227500Y46754724D02*
X17227500Y46245276D01*
X18272500Y46754724D02*
X18272500Y46245276D01*
%TO.C,R20*%
X12487258Y36897500D02*
X12012742Y36897500D01*
X12487258Y35852500D02*
X12012742Y35852500D01*
%TO.C,U7*%
X35890000Y38560000D02*
X43610000Y38560000D01*
X35890000Y38315000D02*
X35890000Y38560000D01*
X35890000Y20440000D02*
X35890000Y20685000D01*
X43610000Y38560000D02*
X43610000Y38315000D01*
X43610000Y20685000D02*
X43610000Y20440000D01*
X43610000Y20440000D02*
X35890000Y20440000D01*
X44400000Y20680000D02*
X44740000Y20210000D01*
X44060000Y20210000D01*
X44400000Y20680000D01*
G36*
X44740000Y20210000D02*
G01*
X44060000Y20210000D01*
X44400000Y20680000D01*
X44740000Y20210000D01*
G37*
%TO.C,R35*%
X19227500Y45754724D02*
X19227500Y45245276D01*
X20272500Y45754724D02*
X20272500Y45245276D01*
%TO.C,J10*%
X1130000Y14370000D02*
X2460000Y14370000D01*
X1130000Y13040000D02*
X1130000Y14370000D01*
X1130000Y11770000D02*
X3730000Y11770000D01*
X1130000Y9170000D02*
X1130000Y11770000D01*
X1130000Y9170000D02*
X16490000Y9170000D01*
X3730000Y14370000D02*
X16490000Y14370000D01*
X3730000Y11770000D02*
X3730000Y14370000D01*
X16490000Y9170000D02*
X16490000Y14370000D01*
%TO.C,U1*%
D15*
X50750000Y21877500D02*
X50750000Y14897500D01*
X61150000Y21877500D02*
X61150000Y14897500D01*
D11*
X60600000Y25137500D02*
G75*
G02*
X60400000Y25137500I-100000J0D01*
G01*
X60400000Y25137500D02*
G75*
G02*
X60600000Y25137500I100000J0D01*
G01*
%TO.C,D3*%
D14*
X18000000Y40465000D02*
X20460000Y40465000D01*
X20460000Y41935000D02*
X18000000Y41935000D01*
X20460000Y40465000D02*
X20460000Y41935000D01*
%TO.C,D37*%
X56265000Y30772500D02*
X56265000Y28487500D01*
X57735000Y30772500D02*
X56265000Y30772500D01*
X57735000Y28487500D02*
X57735000Y30772500D01*
%TO.C,D10*%
X10015000Y7050000D02*
X10015000Y4765000D01*
X10015000Y4765000D02*
X11485000Y4765000D01*
X11485000Y4765000D02*
X11485000Y7050000D01*
%TO.C,D36*%
X54265000Y30772500D02*
X54265000Y28487500D01*
X55735000Y30772500D02*
X54265000Y30772500D01*
X55735000Y28487500D02*
X55735000Y30772500D01*
%TO.C,J11*%
X1440000Y27465000D02*
X1440000Y19035000D01*
X4260000Y28735000D02*
X5710000Y28735000D01*
X4260000Y17765000D02*
X5710000Y17765000D01*
X5710000Y28735000D02*
X5710000Y26935000D01*
X5710000Y26935000D02*
X6700000Y26935000D01*
X5710000Y17765000D02*
X5710000Y19565000D01*
%TO.C,R59*%
X25177500Y10304724D02*
X25177500Y9795276D01*
X26222500Y10304724D02*
X26222500Y9795276D01*
%TO.C,C45*%
X45591233Y46710000D02*
X45883767Y46710000D01*
X45591233Y45690000D02*
X45883767Y45690000D01*
%TO.C,R42*%
X42177500Y14217224D02*
X42177500Y13707776D01*
X43222500Y14217224D02*
X43222500Y13707776D01*
%TO.C,C5*%
X53240000Y36353733D02*
X53240000Y36646267D01*
X54260000Y36353733D02*
X54260000Y36646267D01*
%TO.C,R47*%
X37177500Y10304724D02*
X37177500Y9795276D01*
X38222500Y10304724D02*
X38222500Y9795276D01*
%TO.C,R46*%
X38177500Y14304724D02*
X38177500Y13795276D01*
X39222500Y14304724D02*
X39222500Y13795276D01*
%TO.C,J7*%
X1440000Y39965000D02*
X1440000Y31535000D01*
X4260000Y41235000D02*
X5710000Y41235000D01*
X4260000Y30265000D02*
X5710000Y30265000D01*
X5710000Y41235000D02*
X5710000Y39435000D01*
X5710000Y39435000D02*
X6700000Y39435000D01*
X5710000Y30265000D02*
X5710000Y32065000D01*
%TO.C,R5*%
X12437258Y21897500D02*
X11962742Y21897500D01*
X12437258Y20852500D02*
X11962742Y20852500D01*
%TO.C,C33*%
X8540000Y39703733D02*
X8540000Y39996267D01*
X9560000Y39703733D02*
X9560000Y39996267D01*
%TO.C,R63*%
X53995276Y32522500D02*
X54504724Y32522500D01*
X53995276Y31477500D02*
X54504724Y31477500D01*
%TO.C,J4*%
X52550000Y7460000D02*
X52800000Y6960000D01*
X52800000Y6960000D02*
X53050000Y7460000D01*
X53050000Y7460000D02*
X52550000Y7460000D01*
%TO.C,R66*%
X55227500Y37254724D02*
X55227500Y36745276D01*
X56272500Y37254724D02*
X56272500Y36745276D01*
%TO.C,R7*%
X52727500Y29082776D02*
X52727500Y29592224D01*
X53772500Y29082776D02*
X53772500Y29592224D01*
%TO.C,R45*%
X39177500Y10304724D02*
X39177500Y9795276D01*
X40222500Y10304724D02*
X40222500Y9795276D01*
%TO.C,C6*%
X46990000Y32646267D02*
X46990000Y32353733D01*
X48010000Y32646267D02*
X48010000Y32353733D01*
%TO.C,R56*%
X28177500Y14304724D02*
X28177500Y13795276D01*
X29222500Y14304724D02*
X29222500Y13795276D01*
%TO.C,C30*%
X8240000Y6253733D02*
X8240000Y6546267D01*
X9260000Y6253733D02*
X9260000Y6546267D01*
%TO.C,R14*%
X31054724Y28922500D02*
X30545276Y28922500D01*
X31054724Y27877500D02*
X30545276Y27877500D01*
%TO.C,J3*%
X1090000Y47870000D02*
X2420000Y47870000D01*
X1090000Y46540000D02*
X1090000Y47870000D01*
X1090000Y45270000D02*
X3690000Y45270000D01*
X1090000Y42670000D02*
X1090000Y45270000D01*
X1090000Y42670000D02*
X16450000Y42670000D01*
X3690000Y47870000D02*
X16450000Y47870000D01*
X3690000Y45270000D02*
X3690000Y47870000D01*
X16450000Y42670000D02*
X16450000Y47870000D01*
%TO.C,R51*%
X33177500Y10304724D02*
X33177500Y9795276D01*
X34222500Y10304724D02*
X34222500Y9795276D01*
%TO.C,R60*%
X24177500Y14304724D02*
X24177500Y13795276D01*
X25222500Y14304724D02*
X25222500Y13795276D01*
%TO.C,R13*%
X31495276Y36272500D02*
X32004724Y36272500D01*
X31495276Y35227500D02*
X32004724Y35227500D01*
%TO.C,R3*%
X54832776Y26722500D02*
X55342224Y26722500D01*
X54832776Y25677500D02*
X55342224Y25677500D01*
%TO.C,J5*%
X59715000Y32110000D02*
X59715000Y31060000D01*
X59715000Y26940000D02*
X58725000Y26940000D01*
X59715000Y25890000D02*
X59715000Y26940000D01*
X62215000Y32110000D02*
X59715000Y32110000D01*
X62215000Y25890000D02*
X59715000Y25890000D01*
X64185000Y27060000D02*
X64185000Y30940000D01*
%TO.C,R8*%
X50977500Y31582776D02*
X50977500Y32092224D01*
X52022500Y31582776D02*
X52022500Y32092224D01*
%TO.C,D47*%
X56802500Y36985000D02*
X56802500Y35515000D01*
X56802500Y35515000D02*
X59087500Y35515000D01*
X59087500Y36985000D02*
X56802500Y36985000D01*
%TO.C,C2*%
X51396267Y26610000D02*
X51103733Y26610000D01*
X51396267Y25590000D02*
X51103733Y25590000D01*
%TO.C,J9*%
X48510000Y47870000D02*
X49840000Y47870000D01*
X48510000Y46540000D02*
X48510000Y47870000D01*
X48510000Y45270000D02*
X51110000Y45270000D01*
X48510000Y42670000D02*
X48510000Y45270000D01*
X48510000Y42670000D02*
X63870000Y42670000D01*
X51110000Y47870000D02*
X63870000Y47870000D01*
X51110000Y45270000D02*
X51110000Y47870000D01*
X63870000Y42670000D02*
X63870000Y47870000D01*
%TO.C,D38*%
X56265000Y33800000D02*
X56265000Y31515000D01*
X56265000Y31515000D02*
X57735000Y31515000D01*
X57735000Y31515000D02*
X57735000Y33800000D01*
%TO.C,R49*%
X35177500Y10217224D02*
X35177500Y9707776D01*
X36222500Y10217224D02*
X36222500Y9707776D01*
%TO.C,D4*%
X740000Y16535000D02*
X740000Y15065000D01*
X740000Y15065000D02*
X3200000Y15065000D01*
X3200000Y16535000D02*
X740000Y16535000D01*
%TO.C,D2*%
X40340000Y41335000D02*
X40340000Y39865000D01*
X40340000Y39865000D02*
X42800000Y39865000D01*
X42800000Y41335000D02*
X40340000Y41335000D01*
%TO.C,J6*%
X12140000Y5185000D02*
X13190000Y5185000D01*
X12140000Y2685000D02*
X12140000Y5185000D01*
X13190000Y5185000D02*
X13190000Y6175000D01*
X13310000Y715000D02*
X17190000Y715000D01*
X18360000Y5185000D02*
X17310000Y5185000D01*
X18360000Y2685000D02*
X18360000Y5185000D01*
%TO.C,R44*%
X40177500Y14304724D02*
X40177500Y13795276D01*
X41222500Y14304724D02*
X41222500Y13795276D01*
%TO.C,R48*%
X36177500Y14304724D02*
X36177500Y13795276D01*
X37222500Y14304724D02*
X37222500Y13795276D01*
%TO.C,R12*%
X6454724Y16322500D02*
X5945276Y16322500D01*
X6454724Y15277500D02*
X5945276Y15277500D01*
%TO.C,D7*%
X25340000Y27335000D02*
X25340000Y25865000D01*
X25340000Y25865000D02*
X27800000Y25865000D01*
X27800000Y27335000D02*
X25340000Y27335000D01*
%TO.C,R2*%
X48677500Y14232776D02*
X48677500Y14742224D01*
X49722500Y14232776D02*
X49722500Y14742224D01*
%TO.C,R15*%
X12437258Y24397500D02*
X11962742Y24397500D01*
X12437258Y23352500D02*
X11962742Y23352500D01*
%TO.C,R1*%
X9487258Y20647500D02*
X9012742Y20647500D01*
X9487258Y19602500D02*
X9012742Y19602500D01*
%TO.C,C32*%
X17896267Y8260000D02*
X17603733Y8260000D01*
X17896267Y7240000D02*
X17603733Y7240000D01*
%TO.C,R52*%
X32177500Y14304724D02*
X32177500Y13795276D01*
X33222500Y14304724D02*
X33222500Y13795276D01*
%TO.C,R50*%
X34177500Y14304724D02*
X34177500Y13795276D01*
X35222500Y14304724D02*
X35222500Y13795276D01*
%TO.C,D48*%
X57450000Y37515000D02*
X59735000Y37515000D01*
X59735000Y38985000D02*
X57450000Y38985000D01*
X59735000Y37515000D02*
X59735000Y38985000D01*
%TO.C,R58*%
X26177500Y14304724D02*
X26177500Y13795276D01*
X27222500Y14304724D02*
X27222500Y13795276D01*
%TO.C,C31*%
X17265000Y13638748D02*
X17265000Y14161252D01*
X18735000Y13638748D02*
X18735000Y14161252D01*
%TO.C,R43*%
X41177500Y10217224D02*
X41177500Y9707776D01*
X42222500Y10217224D02*
X42222500Y9707776D01*
%TO.C,R16*%
X31054724Y27122500D02*
X30545276Y27122500D01*
X31054724Y26077500D02*
X30545276Y26077500D01*
%TO.C,R61*%
X23177500Y10392224D02*
X23177500Y9882776D01*
X24222500Y10392224D02*
X24222500Y9882776D01*
%TO.C,C34*%
X10665000Y40111252D02*
X10665000Y39588748D01*
X12135000Y40111252D02*
X12135000Y39588748D01*
%TO.C,R6*%
X9437258Y23122500D02*
X8962742Y23122500D01*
X9437258Y22077500D02*
X8962742Y22077500D01*
%TO.C,R17*%
X9487258Y33147500D02*
X9012742Y33147500D01*
X9487258Y32102500D02*
X9012742Y32102500D01*
%TO.C,R65*%
X57995276Y40772500D02*
X58504724Y40772500D01*
X57995276Y39727500D02*
X58504724Y39727500D01*
%TO.C,C46*%
X45998752Y45135000D02*
X45476248Y45135000D01*
X45998752Y43665000D02*
X45476248Y43665000D01*
%TO.C,R55*%
X29177500Y10304724D02*
X29177500Y9795276D01*
X30222500Y10304724D02*
X30222500Y9795276D01*
%TO.C,C3*%
X52440000Y9107836D02*
X52440000Y8892164D01*
X53160000Y9107836D02*
X53160000Y8892164D01*
%TO.C,D6*%
X25340000Y29135000D02*
X25340000Y27665000D01*
X25340000Y27665000D02*
X27800000Y27665000D01*
X27800000Y29135000D02*
X25340000Y29135000D01*
%TO.C,R9*%
X32004724Y34522500D02*
X31495276Y34522500D01*
X32004724Y33477500D02*
X31495276Y33477500D01*
%TO.C,R57*%
X27177500Y10304724D02*
X27177500Y9795276D01*
X28222500Y10304724D02*
X28222500Y9795276D01*
%TO.C,R18*%
X12487258Y34397500D02*
X12012742Y34397500D01*
X12487258Y33352500D02*
X12012742Y33352500D01*
%TO.C,R53*%
X31177500Y10304724D02*
X31177500Y9795276D01*
X32222500Y10304724D02*
X32222500Y9795276D01*
%TO.C,R10*%
X46059724Y41122500D02*
X45550276Y41122500D01*
X46059724Y40077500D02*
X45550276Y40077500D01*
%TD*%
M02*
