%TF.GenerationSoftware,KiCad,Pcbnew,10.0.3*%
%TF.CreationDate,2026-06-17T16:58:49-04:00*%
%TF.ProjectId,interface_db_hat,696e7465-7266-4616-9365-5f64625f6861,rev?*%
%TF.SameCoordinates,Original*%
%TF.FileFunction,Legend,Bot*%
%TF.FilePolarity,Positive*%
%FSLAX46Y46*%
G04 Gerber Fmt 4.6, Leading zero omitted, Abs format (unit mm)*
G04 Created by KiCad (PCBNEW 10.0.3) date 2026-06-17 16:58:49*
%MOMM*%
%LPD*%
G01*
G04 APERTURE LIST*
%ADD10C,0.150000*%
%ADD11C,0.508000*%
%ADD12C,0.120000*%
G04 APERTURE END LIST*
D10*
X5054819Y52833334D02*
X5769104Y52833334D01*
X5769104Y52833334D02*
X5911961Y52880953D01*
X5911961Y52880953D02*
X6007200Y52976191D01*
X6007200Y52976191D02*
X6054819Y53119048D01*
X6054819Y53119048D02*
X6054819Y53214286D01*
X6054819Y51833334D02*
X6054819Y52404762D01*
X6054819Y52119048D02*
X5054819Y52119048D01*
X5054819Y52119048D02*
X5197676Y52214286D01*
X5197676Y52214286D02*
X5292914Y52309524D01*
X5292914Y52309524D02*
X5340533Y52404762D01*
%TO.C,J2*%
D11*
X20944500Y6484398D02*
G75*
G02*
X20182500Y6484398I-381000J0D01*
G01*
X20182500Y6484398D02*
G75*
G02*
X20944500Y6484398I381000J0D01*
G01*
%TO.C,J1*%
D12*
X7040000Y55100000D02*
X7040000Y52500000D01*
X7040000Y55100000D02*
X57960000Y55100000D01*
X7040000Y52500000D02*
X9640000Y52500000D01*
X7040000Y51230000D02*
X7040000Y49900000D01*
X7040000Y49900000D02*
X8370000Y49900000D01*
X9640000Y52500000D02*
X9640000Y49900000D01*
X9640000Y49900000D02*
X57960000Y49900000D01*
X57960000Y55100000D02*
X57960000Y49900000D01*
%TO.C,JP7*%
X30600000Y39750000D02*
X30600000Y37750000D01*
X30600000Y37750000D02*
X33400000Y37750000D01*
X33400000Y39750000D02*
X30600000Y39750000D01*
X33400000Y37750000D02*
X33400000Y39750000D01*
%TD*%
M02*
