%TF.GenerationSoftware,KiCad,Pcbnew,10.0.3*%
%TF.CreationDate,2026-06-17T18:34:48-04:00*%
%TF.ProjectId,Ion-0,496f6e2d-302e-46b6-9963-61645f706362,V0.5*%
%TF.SameCoordinates,Original*%
%TF.FileFunction,Profile,NP*%
%FSLAX46Y46*%
G04 Gerber Fmt 4.6, Leading zero omitted, Abs format (unit mm)*
G04 Created by KiCad (PCBNEW 10.0.3) date 2026-06-17 18:34:48*
%MOMM*%
%LPD*%
G01*
G04 APERTURE LIST*
%TA.AperFunction,Profile*%
%ADD10C,0.050000*%
%TD*%
G04 APERTURE END LIST*
D10*
X121200000Y-63398932D02*
G75*
G02*
X127200000Y-57398930I6000000J2D01*
G01*
X121200000Y-133798932D02*
X121200000Y-63398932D01*
X125950000Y-72000000D02*
G75*
G02*
X122750000Y-72000000I-1600000J0D01*
G01*
X122750000Y-72000000D02*
G75*
G02*
X125950000Y-72000000I1600000J0D01*
G01*
X127200000Y-57398934D02*
X139900000Y-57398932D01*
X129150000Y-138000000D02*
G75*
G02*
X125950000Y-138000000I-1600000J0D01*
G01*
X125950000Y-138000000D02*
G75*
G02*
X129150000Y-138000000I1600000J0D01*
G01*
X131200000Y-143798932D02*
G75*
G02*
X121199968Y-133798932I0J10000032D01*
G01*
X139900000Y-57398932D02*
G75*
G02*
X141899968Y-59398932I0J-1999968D01*
G01*
X141900000Y-59398932D02*
X141900000Y-75800000D01*
X143900000Y-77800000D02*
G75*
G02*
X141900000Y-75800000I0J2000000D01*
G01*
X143900000Y-77800000D02*
X157900000Y-77800000D01*
X159900000Y-59398932D02*
X159900000Y-75800000D01*
X159900000Y-59398932D02*
G75*
G02*
X161900000Y-57399000I1999900J32D01*
G01*
X159900000Y-75800000D02*
G75*
G02*
X157900000Y-77800000I-2000000J0D01*
G01*
X165800000Y-143798932D02*
X131200000Y-143798932D01*
X171050000Y-138000000D02*
G75*
G02*
X167850000Y-138000000I-1600000J0D01*
G01*
X167850000Y-138000000D02*
G75*
G02*
X171050000Y-138000000I1600000J0D01*
G01*
X169800000Y-57398932D02*
X161900000Y-57398932D01*
X169800000Y-57398932D02*
G75*
G02*
X175800068Y-63398932I0J-6000068D01*
G01*
X174250000Y-72000000D02*
G75*
G02*
X171050000Y-72000000I-1600000J0D01*
G01*
X171050000Y-72000000D02*
G75*
G02*
X174250000Y-72000000I1600000J0D01*
G01*
X175800000Y-63398932D02*
X175800000Y-133798932D01*
X175800000Y-133798932D02*
G75*
G02*
X165800000Y-143798930I-10000000J2D01*
G01*
M02*
