%TF.GenerationSoftware,KiCad,Pcbnew,10.0.3*%
%TF.CreationDate,2026-06-17T18:34:47-04:00*%
%TF.ProjectId,Ion-0,496f6e2d-302e-46b6-9963-61645f706362,V0.5*%
%TF.SameCoordinates,Original*%
%TF.FileFunction,Copper,L4,Bot*%
%TF.FilePolarity,Positive*%
%FSLAX46Y46*%
G04 Gerber Fmt 4.6, Leading zero omitted, Abs format (unit mm)*
G04 Created by KiCad (PCBNEW 10.0.3) date 2026-06-17 18:34:47*
%MOMM*%
%LPD*%
G01*
G04 APERTURE LIST*
G04 Aperture macros list*
%AMRoundRect*
0 Rectangle with rounded corners*
0 $1 Rounding radius*
0 $2 $3 $4 $5 $6 $7 $8 $9 X,Y pos of 4 corners*
0 Add a 4 corners polygon primitive as box body*
4,1,4,$2,$3,$4,$5,$6,$7,$8,$9,$2,$3,0*
0 Add four circle primitives for the rounded corners*
1,1,$1+$1,$2,$3*
1,1,$1+$1,$4,$5*
1,1,$1+$1,$6,$7*
1,1,$1+$1,$8,$9*
0 Add four rect primitives between the rounded corners*
20,1,$1+$1,$2,$3,$4,$5,0*
20,1,$1+$1,$4,$5,$6,$7,0*
20,1,$1+$1,$6,$7,$8,$9,0*
20,1,$1+$1,$8,$9,$2,$3,0*%
G04 Aperture macros list end*
%TA.AperFunction,ComponentPad*%
%ADD10RoundRect,0.250000X-0.750000X-0.750000X0.750000X-0.750000X0.750000X0.750000X-0.750000X0.750000X0*%
%TD*%
%TA.AperFunction,ComponentPad*%
%ADD11C,2.000000*%
%TD*%
%TA.AperFunction,ComponentPad*%
%ADD12C,0.499999*%
%TD*%
%TA.AperFunction,ComponentPad*%
%ADD13R,1.700000X1.700000*%
%TD*%
%TA.AperFunction,ComponentPad*%
%ADD14C,1.700000*%
%TD*%
%TA.AperFunction,SMDPad,CuDef*%
%ADD15RoundRect,0.225000X-0.225000X-0.250000X0.225000X-0.250000X0.225000X0.250000X-0.225000X0.250000X0*%
%TD*%
%TA.AperFunction,ViaPad*%
%ADD16C,0.450000*%
%TD*%
%TA.AperFunction,ViaPad*%
%ADD17C,0.400000*%
%TD*%
%TA.AperFunction,ViaPad*%
%ADD18C,0.600000*%
%TD*%
%TA.AperFunction,ViaPad*%
%ADD19C,0.500000*%
%TD*%
%TA.AperFunction,ViaPad*%
%ADD20C,1.500000*%
%TD*%
%TA.AperFunction,ViaPad*%
%ADD21C,1.000000*%
%TD*%
%TA.AperFunction,Conductor*%
%ADD22C,0.200000*%
%TD*%
%TA.AperFunction,Conductor*%
%ADD23C,1.000000*%
%TD*%
G04 APERTURE END LIST*
D10*
%TO.P,J15,1,Pin_1_1*%
%TO.N,/Sensor-bus-hat/OUT1B*%
X156170000Y-139870000D03*
D11*
%TO.P,J15,2,Pin_2_2*%
%TO.N,/Sensor-bus-hat/OUT1A*%
X158710000Y-139870000D03*
%TO.P,J15,3,Pin_3_3*%
%TO.N,/Sensor-bus-hat/OUT2A*%
X161250000Y-139870000D03*
%TO.P,J15,4,Pin_4_4*%
%TO.N,/Sensor-bus-hat/OUT2B*%
X163790000Y-139870000D03*
%TD*%
D10*
%TO.P,J7,1,Pin_1_1*%
%TO.N,GND*%
X142510000Y-139870000D03*
D11*
%TO.P,J7,2,Pin_2_2*%
%TO.N,/AIN0*%
X145050000Y-139870000D03*
%TO.P,J7,3,Pin_3_3*%
%TO.N,/AIN1*%
X147590000Y-139870000D03*
%TO.P,J7,4,Pin_4_4*%
%TO.N,/AIN2*%
X150130000Y-139870000D03*
%TD*%
D10*
%TO.P,J8,1,Pin_1_1*%
%TO.N,Net-(J8-Pin_1)*%
X134250000Y-139870000D03*
D11*
%TO.P,J8,2,Pin_2_2*%
%TO.N,Net-(J8-Pin_2)*%
X136790000Y-139870000D03*
%TD*%
D12*
%TO.P,U7,V*%
%TO.N,N/C*%
X136932500Y-91354999D03*
X136357500Y-92305000D03*
X136357500Y-90404998D03*
X135782500Y-91354999D03*
%TD*%
D13*
%TO.P,J1,1,Pin_1_1*%
%TO.N,GND*%
X125620000Y-77000000D03*
D14*
%TO.P,J1,2,Pin_2_2*%
X123080000Y-77000000D03*
%TO.P,J1,3,Pin_3_3*%
%TO.N,+3V3*%
X125620000Y-79540000D03*
%TO.P,J1,4,Pin_4_4*%
X123080000Y-79540000D03*
%TO.P,J1,5,Pin_5_5*%
%TO.N,+5V*%
X125620000Y-82080000D03*
%TO.P,J1,6,Pin_6_6*%
X123080000Y-82080000D03*
%TO.P,J1,7,Pin_7_7*%
%TO.N,unconnected-(J1-Pin_7-Pad7)*%
X125620000Y-84620000D03*
%TO.P,J1,8,Pin_8_8*%
%TO.N,unconnected-(J1-Pin_8-Pad8)*%
X123080000Y-84620000D03*
%TO.P,J1,9,Pin_9_9*%
%TO.N,/~{SYS_RST}*%
X125620000Y-87160000D03*
%TO.P,J1,10,Pin_10_10*%
%TO.N,unconnected-(J1-Pin_10-Pad10)*%
X123080000Y-87160000D03*
%TO.P,J1,11,Pin_11_11*%
%TO.N,/~{WD-RST}*%
X125620000Y-89700000D03*
%TO.P,J1,12,Pin_12_12*%
%TO.N,unconnected-(J1-Pin_12-Pad12)*%
X123080000Y-89700000D03*
%TO.P,J1,13,Pin_13_13*%
%TO.N,/WD-INT*%
X125620000Y-92240000D03*
%TO.P,J1,14,Pin_14_14*%
%TO.N,unconnected-(J1-Pin_14-Pad14)*%
X123080000Y-92240000D03*
%TO.P,J1,15,Pin_15_15*%
%TO.N,/LED_PWM_2*%
X125620000Y-94780000D03*
%TO.P,J1,16,Pin_16_16*%
%TO.N,/I2C1B-EN*%
X123080000Y-94780000D03*
%TO.P,J1,17,Pin_17_17*%
%TO.N,/I2C1_SDA*%
X125620000Y-97320000D03*
%TO.P,J1,18,Pin_18_18*%
%TO.N,/I2C1_SCL*%
X123080000Y-97320000D03*
%TO.P,J1,19,Pin_19_19*%
%TO.N,unconnected-(J1-Pin_19-Pad19)*%
X125620000Y-99860000D03*
%TO.P,J1,20,Pin_20_20*%
%TO.N,unconnected-(J1-Pin_20-Pad20)*%
X123080000Y-99860000D03*
%TO.P,J1,21,Pin_21_21*%
%TO.N,/LED_PWM_1*%
X125620000Y-102400000D03*
%TO.P,J1,22,Pin_22_22*%
%TO.N,unconnected-(J1-Pin_22-Pad22)*%
X123080000Y-102400000D03*
%TO.P,J1,23,Pin_23_23*%
%TO.N,/CAN_TXD*%
X125620000Y-104940000D03*
%TO.P,J1,24,Pin_24_24*%
%TO.N,unconnected-(J1-Pin_24-Pad24)*%
X123080000Y-104940000D03*
%TO.P,J1,25,Pin_25_25*%
%TO.N,/CAN_RXD*%
X125620000Y-107480000D03*
%TO.P,J1,26,Pin_26_26*%
%TO.N,unconnected-(J1-Pin_26-Pad26)*%
X123080000Y-107480000D03*
%TO.P,J1,27,Pin_27_27*%
%TO.N,/GPS-PPS*%
X125620000Y-110020000D03*
%TO.P,J1,28,Pin_28_28*%
%TO.N,unconnected-(J1-Pin_28-Pad28)*%
X123080000Y-110020000D03*
%TO.P,J1,29,Pin_29_29*%
%TO.N,unconnected-(J1-Pin_29-Pad29)*%
X125620000Y-112560000D03*
%TO.P,J1,30,Pin_30_30*%
%TO.N,unconnected-(J1-Pin_30-Pad30)*%
X123080000Y-112560000D03*
%TO.P,J1,31,Pin_31_31*%
%TO.N,+1V8*%
X125620000Y-115100000D03*
%TO.P,J1,32,Pin_32_32*%
%TO.N,unconnected-(J1-Pin_32-Pad32)*%
X123080000Y-115100000D03*
%TO.P,J1,33,Pin_33_33*%
%TO.N,GND*%
X125620000Y-117640000D03*
%TO.P,J1,34,Pin_34_34*%
%TO.N,unconnected-(J1-Pin_34-Pad34)*%
X123080000Y-117640000D03*
%TO.P,J1,35,Pin_35_35*%
%TO.N,unconnected-(J1-Pin_35-Pad35)*%
X125620000Y-120180000D03*
%TO.P,J1,36,Pin_36_36*%
%TO.N,unconnected-(J1-Pin_36-Pad36)*%
X123080000Y-120180000D03*
%TO.P,J1,37,Pin_37_37*%
%TO.N,unconnected-(J1-Pin_37-Pad37)*%
X125620000Y-122720000D03*
%TO.P,J1,38,Pin_38_38*%
%TO.N,/AIN2*%
X123080000Y-122720000D03*
%TO.P,J1,39,Pin_39_39*%
%TO.N,/AIN1*%
X125620000Y-125260000D03*
%TO.P,J1,40,Pin_40_40*%
%TO.N,/AIN0*%
X123080000Y-125260000D03*
%TO.P,J1,41,Pin_41_41*%
%TO.N,unconnected-(J1-Pin_41-Pad41)*%
X125620000Y-127800000D03*
%TO.P,J1,42,Pin_42_42*%
%TO.N,unconnected-(J1-Pin_42-Pad42)*%
X123080000Y-127800000D03*
%TO.P,J1,43,Pin_43_43*%
%TO.N,GND*%
X125620000Y-130340000D03*
%TO.P,J1,44,Pin_44_44*%
X123080000Y-130340000D03*
%TO.P,J1,45,Pin_45_45*%
X125620000Y-132880000D03*
%TO.P,J1,46,Pin_46_46*%
X123080000Y-132880000D03*
%TD*%
D13*
%TO.P,J2,1,Pin_1_1*%
%TO.N,GND*%
X173920000Y-77000000D03*
D14*
%TO.P,J2,2,Pin_2_2*%
X171380000Y-77000000D03*
%TO.P,J2,3,Pin_3_3*%
%TO.N,unconnected-(J2-Pin_3-Pad3)*%
X173920000Y-79540000D03*
%TO.P,J2,4,Pin_4_4*%
%TO.N,unconnected-(J2-Pin_4-Pad4)*%
X171380000Y-79540000D03*
%TO.P,J2,5,Pin_5_5*%
%TO.N,unconnected-(J2-Pin_5-Pad5)*%
X173920000Y-82080000D03*
%TO.P,J2,6,Pin_6_6*%
%TO.N,unconnected-(J2-Pin_6-Pad6)*%
X171380000Y-82080000D03*
%TO.P,J2,7,Pin_7_7*%
%TO.N,unconnected-(J2-Pin_7-Pad7)*%
X173920000Y-84620000D03*
%TO.P,J2,8,Pin_8_8*%
%TO.N,unconnected-(J2-Pin_8-Pad8)*%
X171380000Y-84620000D03*
%TO.P,J2,9,Pin_9_9*%
%TO.N,unconnected-(J2-Pin_9-Pad9)*%
X173920000Y-87160000D03*
%TO.P,J2,10,Pin_10_10*%
%TO.N,/~{BNO-INT}*%
X171380000Y-87160000D03*
%TO.P,J2,11,Pin_11_11*%
%TO.N,/IND-2*%
X173920000Y-89700000D03*
%TO.P,J2,12,Pin_12_12*%
%TO.N,/~{BNO-RST}*%
X171380000Y-89700000D03*
%TO.P,J2,13,Pin_13_13*%
%TO.N,/IND-1*%
X173920000Y-92240000D03*
%TO.P,J2,14,Pin_14_14*%
%TO.N,/~{GPS-RST}*%
X171380000Y-92240000D03*
%TO.P,J2,15,Pin_15_15*%
%TO.N,/STATE-LED*%
X173920000Y-94780000D03*
%TO.P,J2,16,Pin_16_16*%
%TO.N,/~{BNO-BOOT}*%
X171380000Y-94780000D03*
%TO.P,J2,17,Pin_17_17*%
%TO.N,unconnected-(J2-Pin_17-Pad17)*%
X173920000Y-97320000D03*
%TO.P,J2,18,Pin_18_18*%
%TO.N,/Buzzer*%
X171380000Y-97320000D03*
%TO.P,J2,19,Pin_19_19*%
%TO.N,unconnected-(J2-Pin_19-Pad19)*%
X173920000Y-99860000D03*
%TO.P,J2,20,Pin_20_20*%
%TO.N,unconnected-(J2-Pin_20-Pad20)*%
X171380000Y-99860000D03*
%TO.P,J2,21,Pin_21_21*%
%TO.N,unconnected-(J2-Pin_21-Pad21)*%
X173920000Y-102400000D03*
%TO.P,J2,22,Pin_22_22*%
%TO.N,/IND_3*%
X171380000Y-102400000D03*
%TO.P,J2,23,Pin_23_23*%
%TO.N,unconnected-(J2-Pin_23-Pad23)*%
X173920000Y-104940000D03*
%TO.P,J2,24,Pin_24_24*%
%TO.N,/MOTOR_2_A*%
X171380000Y-104940000D03*
%TO.P,J2,25,Pin_25_25*%
%TO.N,unconnected-(J2-Pin_25-Pad25)*%
X173920000Y-107480000D03*
%TO.P,J2,26,Pin_26_26*%
%TO.N,/MOTOR_2_B*%
X171380000Y-107480000D03*
%TO.P,J2,27,Pin_27_27*%
%TO.N,unconnected-(J2-Pin_27-Pad27)*%
X173920000Y-110020000D03*
%TO.P,J2,28,Pin_28_28*%
%TO.N,/MOTOR_1_A*%
X171380000Y-110020000D03*
%TO.P,J2,29,Pin_29_29*%
%TO.N,unconnected-(J2-Pin_29-Pad29)*%
X173920000Y-112560000D03*
%TO.P,J2,30,Pin_30_30*%
%TO.N,/SERVO_1*%
X171380000Y-112560000D03*
%TO.P,J2,31,Pin_31_31*%
%TO.N,unconnected-(J2-Pin_31-Pad31)*%
X173920000Y-115100000D03*
%TO.P,J2,32,Pin_32_32*%
%TO.N,/MOTOR_1_B*%
X171380000Y-115100000D03*
%TO.P,J2,33,Pin_33_33*%
%TO.N,unconnected-(J2-Pin_33-Pad33)*%
X173920000Y-117640000D03*
%TO.P,J2,34,Pin_34_34*%
%TO.N,/SERVO_2*%
X171380000Y-117640000D03*
%TO.P,J2,35,Pin_35_35*%
%TO.N,unconnected-(J2-Pin_35-Pad35)*%
X173920000Y-120180000D03*
%TO.P,J2,36,Pin_36_36*%
%TO.N,/Humidity-INT*%
X171380000Y-120180000D03*
%TO.P,J2,37,Pin_37_37*%
%TO.N,/STP-MS2*%
X173920000Y-122720000D03*
%TO.P,J2,38,Pin_38_38*%
%TO.N,/STP-MS1*%
X171380000Y-122720000D03*
%TO.P,J2,39,Pin_39_39*%
%TO.N,/STP-MS3*%
X173920000Y-125260000D03*
%TO.P,J2,40,Pin_40_40*%
%TO.N,/~{STP-RST}*%
X171380000Y-125260000D03*
%TO.P,J2,41,Pin_41_41*%
%TO.N,/~{STP-EN}*%
X173920000Y-127800000D03*
%TO.P,J2,42,Pin_42_42*%
%TO.N,/STP-STEP*%
X171380000Y-127800000D03*
%TO.P,J2,43,Pin_43_43*%
%TO.N,/~{STP-SLP}*%
X173920000Y-130340000D03*
%TO.P,J2,44,Pin_44_44*%
%TO.N,/STP-DIR*%
X171380000Y-130340000D03*
%TO.P,J2,45,Pin_45_45*%
%TO.N,/PWM-Heaters*%
X173920000Y-132880000D03*
%TO.P,J2,46,Pin_46_46*%
%TO.N,unconnected-(J2-Pin_46-Pad46)*%
X171380000Y-132880000D03*
%TD*%
D15*
%TO.P,C29,1*%
%TO.N,+12V*%
X149715000Y-128270000D03*
%TO.P,C29,2*%
%TO.N,GND*%
X151265000Y-128270000D03*
%TD*%
D16*
%TO.N,GND*%
X132000000Y-141000000D03*
X156000000Y-84000000D03*
D17*
X161320000Y-87700000D03*
D16*
X129060000Y-84630000D03*
X165000000Y-111000000D03*
X162000000Y-69000000D03*
D17*
X162600000Y-87000000D03*
D16*
X142360000Y-97350000D03*
X129260000Y-89200000D03*
D17*
X161100000Y-85400000D03*
D16*
X129000000Y-99000000D03*
D18*
X136890000Y-88590000D03*
D16*
X165000000Y-75000000D03*
X147000000Y-84000000D03*
D18*
X148200000Y-124500000D03*
D16*
X156890000Y-142340000D03*
D18*
X156680000Y-116670000D03*
D16*
X132000000Y-123000000D03*
X129000000Y-72000000D03*
X141000000Y-120000000D03*
X171000000Y-135000000D03*
X132000000Y-69000000D03*
X155705259Y-131585000D03*
X135000000Y-72000000D03*
X174000000Y-66000000D03*
X142360000Y-94350000D03*
X162890000Y-142340000D03*
X132000000Y-78000000D03*
X141000000Y-81000000D03*
X168000000Y-111000000D03*
D18*
X147280000Y-107060000D03*
D16*
X126000000Y-63000000D03*
X162000000Y-63000000D03*
X159000000Y-111000000D03*
X141000000Y-60000000D03*
X141000000Y-72000000D03*
X140330000Y-108450000D03*
X144000000Y-81000000D03*
X134210000Y-92870000D03*
X166560000Y-87070000D03*
X129000000Y-141000000D03*
X162000000Y-78000000D03*
X174000000Y-135000000D03*
D18*
X128330000Y-94970000D03*
D16*
X162000000Y-60000000D03*
X165515000Y-127460000D03*
X135000000Y-135000000D03*
X165000000Y-132000000D03*
X129000000Y-87000000D03*
X150000000Y-81000000D03*
X126000000Y-75000000D03*
X153000000Y-126000000D03*
X159000000Y-126000000D03*
X144000000Y-84000000D03*
X162000000Y-132000000D03*
X162000000Y-107310000D03*
X132000000Y-102000000D03*
D18*
X146340000Y-127300000D03*
D16*
X168000000Y-132000000D03*
X123000000Y-135000000D03*
X140050000Y-132000000D03*
X141000000Y-69000000D03*
X144000000Y-102000000D03*
X165000000Y-84000000D03*
D19*
X147340000Y-131810000D03*
D17*
X162520000Y-88380000D03*
D16*
X159000000Y-81000000D03*
D17*
X160980000Y-83221200D03*
D18*
X147340000Y-128300000D03*
D16*
X141000000Y-78000000D03*
X138000000Y-132000000D03*
X150000000Y-102000000D03*
X144000000Y-99000000D03*
D18*
X147340000Y-129300000D03*
D17*
X161100000Y-86200000D03*
D16*
X171000000Y-75000000D03*
D17*
X161200000Y-87000000D03*
D18*
X148960000Y-113190000D03*
D16*
X174000000Y-138000000D03*
X143330000Y-112660000D03*
X165000000Y-135000000D03*
D17*
X162520000Y-84021200D03*
D18*
X138720000Y-126797500D03*
D16*
X126000000Y-135000000D03*
D17*
X161320000Y-88380000D03*
D16*
X153000000Y-96000000D03*
X171000000Y-63000000D03*
X141000000Y-75000000D03*
D18*
X151800000Y-115440000D03*
D16*
X162000000Y-93000000D03*
X165515000Y-124460000D03*
X168000000Y-66000000D03*
X147000000Y-102000000D03*
X166560000Y-93100000D03*
X123000000Y-69000000D03*
D18*
X145790000Y-118660000D03*
D16*
X165000000Y-81000000D03*
X165000000Y-78000000D03*
X140330000Y-112660000D03*
D18*
X157790000Y-115040000D03*
D17*
X162520000Y-87700000D03*
D16*
X132000000Y-72000000D03*
D18*
X146340000Y-129300000D03*
D16*
X156000000Y-87000000D03*
X165515000Y-118460000D03*
X138000000Y-69000000D03*
X129000000Y-60000000D03*
X129000000Y-66000000D03*
D18*
X166200000Y-67850000D03*
D16*
X171000000Y-69000000D03*
X149250000Y-142340000D03*
D17*
X162520000Y-89180000D03*
D16*
X132000000Y-99000000D03*
X156000000Y-105000000D03*
X123000000Y-63000000D03*
X174000000Y-63000000D03*
X168000000Y-72000000D03*
X129000000Y-63000000D03*
D18*
X127620000Y-106190000D03*
D17*
X162526852Y-89981652D03*
D16*
X150000000Y-87000000D03*
X159000000Y-87000000D03*
X151690000Y-136590000D03*
X147000000Y-99000000D03*
D18*
X146340000Y-128300000D03*
D16*
X156000000Y-111000000D03*
D17*
X161320000Y-89180000D03*
D16*
X146250000Y-142340000D03*
X138000000Y-96000000D03*
D17*
X162700000Y-86200000D03*
X161259799Y-90015180D03*
D16*
X159000000Y-107310000D03*
X159000000Y-84000000D03*
X144000000Y-120000000D03*
X147000000Y-105000000D03*
X162000000Y-75000000D03*
X159000000Y-105000000D03*
X165000000Y-108000000D03*
X143330000Y-108450000D03*
D18*
X146370000Y-106190000D03*
D16*
X150000000Y-84000000D03*
X174000000Y-69000000D03*
D18*
X144600000Y-115875000D03*
D16*
X162000000Y-72000000D03*
X156000000Y-107310000D03*
X166560000Y-84070000D03*
X153000000Y-81000000D03*
X168000000Y-135000000D03*
X138000000Y-120000000D03*
X132080000Y-88040000D03*
X166560000Y-90070000D03*
X143250000Y-142340000D03*
X165530000Y-130010000D03*
X171000000Y-60000000D03*
X159000000Y-120000000D03*
D18*
X140137157Y-91022843D03*
D16*
X150000000Y-105000000D03*
D18*
X148340000Y-128300000D03*
D16*
X165000000Y-60000000D03*
X129000000Y-102000000D03*
D18*
X147340000Y-127300000D03*
D16*
X153330000Y-129305000D03*
D17*
X162860000Y-83221000D03*
D16*
X156000000Y-81000000D03*
D17*
X161200000Y-84700000D03*
D16*
X166560000Y-96100000D03*
X152090000Y-109470000D03*
X126000000Y-60000000D03*
X126000000Y-66000000D03*
D17*
X162500000Y-84600000D03*
D16*
X132000000Y-135000000D03*
X168000000Y-69000000D03*
X162000000Y-96000000D03*
X129000000Y-93000000D03*
X123000000Y-66000000D03*
X132000000Y-120000000D03*
D17*
X161320000Y-84021200D03*
D16*
X126000000Y-141000000D03*
X153000000Y-84000000D03*
X132000000Y-60000000D03*
X123000000Y-75000000D03*
X126000000Y-69000000D03*
X123000000Y-138000000D03*
X162000000Y-111000000D03*
D19*
X142410000Y-128530000D03*
D16*
X159000000Y-96000000D03*
X132000000Y-81000000D03*
X147000000Y-81000000D03*
D18*
X148340000Y-127300000D03*
D16*
X159000000Y-130330000D03*
X132000000Y-96000000D03*
X165000000Y-66000000D03*
X154690000Y-136590000D03*
X135000000Y-60000000D03*
D18*
X148340000Y-129300000D03*
D16*
X138000000Y-117000000D03*
X171000000Y-66000000D03*
X174000000Y-75000000D03*
X159890000Y-142340000D03*
X137470000Y-93015000D03*
X132000000Y-111000000D03*
X147000000Y-87000000D03*
X162000000Y-66000000D03*
X138000000Y-123000000D03*
X141000000Y-66000000D03*
X162000000Y-135000000D03*
D18*
%TO.N,/SERVO_2*%
X136850000Y-87170000D03*
%TO.N,/MOTOR_1_B*%
X136850000Y-85900000D03*
%TO.N,/SERVO_1*%
X136850000Y-84630000D03*
%TO.N,/MOTOR_1_A*%
X136850000Y-83360000D03*
%TO.N,+3V3*%
X131030000Y-65700000D03*
X135085000Y-115510000D03*
X154890000Y-137980000D03*
X144200000Y-132280000D03*
X163990000Y-97817215D03*
X157290000Y-86980000D03*
X146370000Y-90110000D03*
X129157293Y-88003009D03*
X138685000Y-65650000D03*
X142860000Y-102520000D03*
X132900000Y-102100000D03*
X151980000Y-107950000D03*
X133077500Y-95860000D03*
X131660000Y-106830000D03*
X150730000Y-136100000D03*
X168920000Y-116220000D03*
X128600000Y-68390000D03*
X160735000Y-115245000D03*
X151810000Y-118770000D03*
X141090000Y-94650000D03*
X133778750Y-97701250D03*
X145640000Y-117080000D03*
X140800000Y-126100000D03*
%TO.N,/MOTOR_2_B*%
X136850000Y-80820000D03*
%TO.N,/MOTOR_2_A*%
X136850000Y-78280000D03*
%TO.N,/LED_PWM_1*%
X136850000Y-75740000D03*
%TO.N,/IND_3*%
X136850000Y-74470000D03*
%TO.N,/LED_PWM_2*%
X136850000Y-73200000D03*
%TO.N,/I2C1_SCL*%
X147410000Y-109660000D03*
X132141250Y-97888750D03*
X133330000Y-118870000D03*
X167390000Y-113380000D03*
X152429997Y-102640000D03*
%TO.N,/I2C1_SDA*%
X153230000Y-102640000D03*
X136360000Y-110940000D03*
X132140000Y-118930000D03*
X152908021Y-107202625D03*
X146210000Y-109600000D03*
X164570000Y-113390000D03*
X133750000Y-99684998D03*
%TO.N,/IND-2*%
X145130000Y-86980000D03*
D20*
%TO.N,+12V*%
X160520000Y-128240000D03*
D18*
X149740000Y-130260000D03*
X152370000Y-123520000D03*
X149740000Y-126320000D03*
D20*
X140878066Y-127880164D03*
D16*
%TO.N,+5V*%
X132000000Y-132000000D03*
D21*
X132000000Y-130740000D03*
X132000000Y-128200000D03*
X132000000Y-133280000D03*
X132000000Y-125660000D03*
D18*
X154250000Y-86980000D03*
%TO.N,/STATE-LED*%
X151210000Y-86980000D03*
%TO.N,/WD-INT*%
X134127500Y-88595000D03*
%TO.N,/PWM-Heaters*%
X150830000Y-137370000D03*
%TO.N,Net-(U6-LNA_EN)*%
X159810000Y-93210000D03*
X152050000Y-93110000D03*
%TO.N,/~{GPS-RST}*%
X150050000Y-93110000D03*
X163030000Y-98570000D03*
%TO.N,/~{STP-SLP}*%
X152530000Y-132890000D03*
D19*
X143630000Y-130100000D03*
D18*
%TO.N,/GPS-PPS*%
X144230000Y-101000000D03*
%TO.N,Net-(U6-EXTINT)*%
X148050000Y-93080000D03*
X158620000Y-98630000D03*
%TO.N,/IND-1*%
X148170000Y-86980000D03*
%TO.N,/~{STP-EN}*%
X149090000Y-124480000D03*
D19*
%TO.N,/STP-MS1*%
X143849043Y-127035155D03*
%TO.N,/STP-MS2*%
X143630000Y-127700000D03*
%TO.N,/STP-MS3*%
X143386434Y-128356258D03*
%TO.N,/~{STP-RST}*%
X143699841Y-128982341D03*
%TO.N,/STP-STEP*%
X146043909Y-131736091D03*
%TO.N,/STP-DIR*%
X148260000Y-131721802D03*
%TD*%
%TO.N,/SERVO_2*%
D22*
X136850000Y-87170000D02*
X136997157Y-87317157D01*
X137280000Y-87317157D02*
X152002843Y-102040000D01*
X136997157Y-87317157D02*
X137280000Y-87317157D01*
X167710000Y-103334632D02*
X167710000Y-107834631D01*
X166415368Y-102040000D02*
X167710000Y-103334632D01*
X169020000Y-115180000D02*
X171370000Y-117530000D01*
X152002843Y-102040000D02*
X166415368Y-102040000D01*
X169020000Y-109144632D02*
X169020000Y-115180000D01*
X171370000Y-117530000D02*
X171370000Y-117640000D01*
X167710000Y-107834631D02*
X169020000Y-109144632D01*
%TO.N,/MOTOR_1_B*%
X169470000Y-109043088D02*
X168100000Y-107673087D01*
X152168530Y-101640000D02*
X137680000Y-87151470D01*
X136860000Y-85890000D02*
X136850000Y-85900000D01*
X137680000Y-87151470D02*
X137680000Y-86370000D01*
X171370000Y-115100000D02*
X169470000Y-113200000D01*
X169470000Y-113200000D02*
X169470000Y-109043088D01*
X168100000Y-103173088D02*
X166566912Y-101640000D01*
X168100000Y-107673087D02*
X168100000Y-103173088D01*
X137200000Y-85890000D02*
X136860000Y-85890000D01*
X137680000Y-86370000D02*
X137200000Y-85890000D01*
X166566912Y-101640000D02*
X152168530Y-101640000D01*
%TO.N,/SERVO_1*%
X138080000Y-85630000D02*
X138080000Y-86985784D01*
X136850000Y-84630000D02*
X137080000Y-84630000D01*
X138080000Y-86985784D02*
X152334216Y-101240000D01*
X166718456Y-101240000D02*
X168490000Y-103011544D01*
X169900000Y-108921544D02*
X169900000Y-111130000D01*
X168490000Y-103011544D02*
X168490000Y-107511544D01*
X171330000Y-112560000D02*
X171370000Y-112560000D01*
X152334216Y-101240000D02*
X166718456Y-101240000D01*
X137080000Y-84630000D02*
X138080000Y-85630000D01*
X169900000Y-111130000D02*
X171330000Y-112560000D01*
X168490000Y-107511544D02*
X169900000Y-108921544D01*
%TO.N,/MOTOR_1_A*%
X168880000Y-102850000D02*
X168880000Y-107350000D01*
X136850000Y-83360000D02*
X136850000Y-83781471D01*
X138480000Y-85411471D02*
X138480000Y-86820098D01*
X166870000Y-100840000D02*
X168880000Y-102850000D01*
X136850000Y-83781471D02*
X138480000Y-85411471D01*
X138480000Y-86820098D02*
X152499902Y-100840000D01*
X152499902Y-100840000D02*
X166870000Y-100840000D01*
X168880000Y-107350000D02*
X171370000Y-109840000D01*
X171370000Y-109840000D02*
X171370000Y-110020000D01*
%TO.N,/MOTOR_2_B*%
X138880000Y-85245786D02*
X138880000Y-86654412D01*
X169280000Y-102693088D02*
X169280000Y-105390000D01*
X167026912Y-100440000D02*
X169280000Y-102693088D01*
X152665588Y-100440000D02*
X167026912Y-100440000D01*
X137480000Y-83845785D02*
X138880000Y-85245786D01*
X136850000Y-80820000D02*
X137480000Y-81450000D01*
X138880000Y-86654412D02*
X152665588Y-100440000D01*
X137480000Y-81450000D02*
X137480000Y-83845785D01*
X169280000Y-105390000D02*
X171370000Y-107480000D01*
%TO.N,/MOTOR_2_A*%
X137880000Y-81001471D02*
X136850000Y-79971469D01*
X171370000Y-104940000D02*
X170520000Y-104940000D01*
X152831275Y-100040000D02*
X139280000Y-86488725D01*
X137880000Y-83680097D02*
X137880000Y-81001471D01*
X167178456Y-100040000D02*
X152831275Y-100040000D01*
X169680000Y-102541544D02*
X167178456Y-100040000D01*
X169680000Y-104100000D02*
X169680000Y-102541544D01*
X139280000Y-86488725D02*
X139280000Y-85080100D01*
X136850000Y-79971469D02*
X136850000Y-78280000D01*
X170520000Y-104940000D02*
X169680000Y-104100000D01*
X139280000Y-85080100D02*
X137880000Y-83680097D01*
%TO.N,/LED_PWM_1*%
X126096346Y-101923654D02*
X126086346Y-101923654D01*
X127740000Y-92880000D02*
X127740000Y-95110000D01*
X127740000Y-100280000D02*
X126096346Y-101923654D01*
X136130000Y-76460000D02*
X136130000Y-88006715D01*
X126086346Y-101923654D02*
X125610000Y-102400000D01*
X129470001Y-91150000D02*
X127740000Y-92880000D01*
X136850000Y-75740000D02*
X136130000Y-76460000D01*
X127740000Y-95110000D02*
X127740000Y-100280000D01*
X132986714Y-91150000D02*
X129470001Y-91150000D01*
X136130000Y-88006715D02*
X132986714Y-91150000D01*
%TO.N,/IND_3*%
X139680000Y-84914414D02*
X138280000Y-83514412D01*
X136850000Y-74891471D02*
X136850000Y-74470000D01*
X139680000Y-86323040D02*
X139680000Y-84914414D01*
X138280000Y-80835785D02*
X137450000Y-80005784D01*
X138280000Y-83514412D02*
X138280000Y-80835785D01*
X171370000Y-102400000D02*
X170090000Y-102400000D01*
X137450000Y-75491471D02*
X136850000Y-74891471D01*
X170090000Y-102400000D02*
X167320000Y-99630000D01*
X167320000Y-99630000D02*
X152986960Y-99630000D01*
X137450000Y-80005784D02*
X137450000Y-75491471D01*
X152986960Y-99630000D02*
X139680000Y-86323040D01*
%TO.N,/LED_PWM_2*%
X132821029Y-90750000D02*
X135730000Y-87841029D01*
X135730000Y-87841029D02*
X135730000Y-74320000D01*
X135730000Y-74320000D02*
X136850000Y-73200000D01*
X129304315Y-90750000D02*
X132821029Y-90750000D01*
X125620000Y-94434315D02*
X129304315Y-90750000D01*
X125620000Y-94780000D02*
X125620000Y-94434315D01*
%TO.N,/I2C1_SCL*%
X134350000Y-107820000D02*
X135520000Y-108990000D01*
X165790000Y-111780000D02*
X149530000Y-111780000D01*
X146740000Y-108990000D02*
X147410000Y-109660000D01*
X134350000Y-110120000D02*
X134350000Y-99436469D01*
X152429997Y-102640000D02*
X152429997Y-104670003D01*
X132802281Y-97888750D02*
X132141250Y-97888750D01*
X134350000Y-117850000D02*
X134350000Y-110120000D01*
X134350000Y-107330000D02*
X134350000Y-107820000D01*
X134350000Y-99436469D02*
X132802281Y-97888750D01*
X135520000Y-108990000D02*
X146740000Y-108990000D01*
X167390000Y-113380000D02*
X165790000Y-111780000D01*
X147425000Y-109675000D02*
X152429997Y-104670003D01*
X133330000Y-118870000D02*
X134350000Y-117850000D01*
X149530000Y-111780000D02*
X147425000Y-109675000D01*
%TO.N,/I2C1_SDA*%
X137700000Y-109600000D02*
X136360000Y-110940000D01*
X152908021Y-107202625D02*
X153230000Y-106880646D01*
X133750000Y-117320000D02*
X133750000Y-99684998D01*
X163710000Y-112530000D02*
X149140000Y-112530000D01*
X164570000Y-113390000D02*
X163710000Y-112530000D01*
X149140000Y-112530000D02*
X146210000Y-109600000D01*
X132140000Y-118930000D02*
X133750000Y-117320000D01*
X146210000Y-109600000D02*
X137700000Y-109600000D01*
X153230000Y-106880646D02*
X153230000Y-102640000D01*
%TO.N,/IND-2*%
X169870000Y-86700000D02*
X170690000Y-85880000D01*
X145130000Y-86980000D02*
X145130000Y-86600000D01*
X151670000Y-85790000D02*
X156960000Y-91080000D01*
X172060000Y-85880000D02*
X172670000Y-86490000D01*
X170690000Y-85880000D02*
X172060000Y-85880000D01*
X169870000Y-88644314D02*
X169870000Y-86700000D01*
X145940000Y-85790000D02*
X151670000Y-85790000D01*
X172670000Y-88460000D02*
X173910000Y-89700000D01*
X145130000Y-86600000D02*
X145940000Y-85790000D01*
X156960000Y-91080000D02*
X167434314Y-91080000D01*
X172670000Y-86490000D02*
X172670000Y-88460000D01*
X167434314Y-91080000D02*
X169870000Y-88644314D01*
%TO.N,+12V*%
X149740000Y-126320000D02*
X149505000Y-126555000D01*
X149505000Y-126555000D02*
X149505000Y-128270000D01*
X149740000Y-130260000D02*
X149505000Y-130025000D01*
X149505000Y-130025000D02*
X149505000Y-128270000D01*
%TO.N,+5V*%
D23*
X123080000Y-82080000D02*
X125620000Y-82080000D01*
%TO.N,/STATE-LED*%
D22*
X151728628Y-86980000D02*
X156628628Y-91880000D01*
X172630000Y-91710000D02*
X172630000Y-93500000D01*
X167765686Y-91880000D02*
X168625686Y-91020000D01*
X171940000Y-91020000D02*
X172630000Y-91710000D01*
X172630000Y-93500000D02*
X173910000Y-94780000D01*
X151210000Y-86980000D02*
X151728628Y-86980000D01*
X156628628Y-91880000D02*
X167765686Y-91880000D01*
X168625686Y-91020000D02*
X171940000Y-91020000D01*
%TO.N,/AIN1*%
X132355686Y-137390000D02*
X127750000Y-132784314D01*
X145030000Y-137390000D02*
X132355686Y-137390000D01*
X127750000Y-127364314D02*
X125645686Y-125260000D01*
X147510000Y-139870000D02*
X145030000Y-137390000D01*
X127750000Y-132784314D02*
X127750000Y-127364314D01*
X125645686Y-125260000D02*
X125620000Y-125260000D01*
%TO.N,/WD-INT*%
X129138629Y-90350000D02*
X127238629Y-92250000D01*
X125620000Y-92250000D02*
X125610000Y-92240000D01*
X134127500Y-88595000D02*
X132372500Y-90350000D01*
X127238629Y-92250000D02*
X125620000Y-92250000D01*
X132372500Y-90350000D02*
X129138629Y-90350000D01*
%TO.N,/AIN0*%
X123910000Y-126550000D02*
X126370000Y-126550000D01*
X123080000Y-125260000D02*
X123080000Y-125720000D01*
X127350000Y-132950000D02*
X132190000Y-137790000D01*
X123080000Y-125720000D02*
X123910000Y-126550000D01*
X142930000Y-137790000D02*
X145010000Y-139870000D01*
X126370000Y-126550000D02*
X127350000Y-127530000D01*
X132190000Y-137790000D02*
X142930000Y-137790000D01*
X127350000Y-127530000D02*
X127350000Y-132950000D01*
%TO.N,/PWM-Heaters*%
X168648730Y-135690000D02*
X171110000Y-135690000D01*
X150830000Y-137370000D02*
X150850000Y-137390000D01*
X171110000Y-135690000D02*
X173920000Y-132880000D01*
X166948730Y-137390000D02*
X168648730Y-135690000D01*
X150850000Y-137390000D02*
X166948730Y-137390000D01*
%TO.N,Net-(U6-LNA_EN)*%
X159810000Y-93210000D02*
X152150000Y-93210000D01*
X152150000Y-93210000D02*
X152050000Y-93110000D01*
%TO.N,/~{GPS-RST}*%
X150100000Y-95045982D02*
X150100000Y-92990000D01*
X163030000Y-98570000D02*
X162490000Y-98030000D01*
X153084018Y-98030000D02*
X150100000Y-95045982D01*
X169800000Y-93810000D02*
X171370000Y-92240000D01*
X162490000Y-98030000D02*
X153084018Y-98030000D01*
X168990000Y-98830000D02*
X169800000Y-98020000D01*
X169800000Y-98020000D02*
X169800000Y-93810000D01*
X163030000Y-98570000D02*
X163290000Y-98830000D01*
X163290000Y-98830000D02*
X168990000Y-98830000D01*
%TO.N,/~{STP-SLP}*%
X152530000Y-132890000D02*
X152974314Y-132890000D01*
X146420000Y-132890000D02*
X143630000Y-130100000D01*
X172710000Y-131550000D02*
X173920000Y-130340000D01*
X170950000Y-131550000D02*
X172710000Y-131550000D01*
X152974314Y-132890000D02*
X154374315Y-134290000D01*
X154374315Y-134290000D02*
X168210000Y-134290000D01*
X152530000Y-132890000D02*
X146420000Y-132890000D01*
X168210000Y-134290000D02*
X170950000Y-131550000D01*
%TO.N,/GPS-PPS*%
X138321250Y-97101250D02*
X132080221Y-97101250D01*
X143570000Y-100340000D02*
X141560000Y-100340000D01*
X141560000Y-100340000D02*
X138321250Y-97101250D01*
X127020000Y-108610000D02*
X125610000Y-110020000D01*
X127020000Y-106230000D02*
X127020000Y-108610000D01*
X144230000Y-101000000D02*
X143570000Y-100340000D01*
X127020000Y-102161471D02*
X127020000Y-106230000D01*
X132080221Y-97101250D02*
X127020000Y-102161471D01*
%TO.N,Net-(U6-EXTINT)*%
X153118332Y-98630000D02*
X158620000Y-98630000D01*
X148050000Y-93080000D02*
X148760000Y-93790000D01*
X148760000Y-94271668D02*
X153118332Y-98630000D01*
X148760000Y-93790000D02*
X148760000Y-94271668D01*
%TO.N,/AIN2*%
X124360000Y-124000000D02*
X123080000Y-122720000D01*
X128150000Y-127198628D02*
X127060000Y-126108628D01*
X128150000Y-132618628D02*
X128150000Y-127198628D01*
X127060000Y-124660000D02*
X126400000Y-124000000D01*
X127060000Y-126108628D02*
X127060000Y-124660000D01*
X126400000Y-124000000D02*
X124360000Y-124000000D01*
X147110000Y-136990000D02*
X132521372Y-136990000D01*
X149990000Y-139870000D02*
X147110000Y-136990000D01*
X132521372Y-136990000D02*
X128150000Y-132618628D01*
X150010000Y-139870000D02*
X149990000Y-139870000D01*
%TO.N,/IND-1*%
X151534314Y-86220000D02*
X148930000Y-86220000D01*
X171840000Y-88490000D02*
X170590000Y-88490000D01*
X167599999Y-91480000D02*
X156794314Y-91480000D01*
X156794314Y-91480000D02*
X151534314Y-86220000D01*
X172600000Y-89250000D02*
X171840000Y-88490000D01*
X173910000Y-92240000D02*
X172600000Y-90930000D01*
X148930000Y-86220000D02*
X148170000Y-86980000D01*
X170590000Y-88490000D02*
X167599999Y-91480000D01*
X172600000Y-90930000D02*
X172600000Y-89250000D01*
%TO.N,/~{STP-EN}*%
X172530000Y-126410000D02*
X173920000Y-127800000D01*
X166198628Y-122550000D02*
X170058628Y-126410000D01*
X170058628Y-126410000D02*
X172530000Y-126410000D01*
X151020000Y-122550000D02*
X166198628Y-122550000D01*
X149090000Y-124480000D02*
X151020000Y-122550000D01*
%TO.N,/STP-MS1*%
X149307924Y-121350000D02*
X166695686Y-121350000D01*
X168065686Y-122720000D02*
X171380000Y-122720000D01*
X166695686Y-121350000D02*
X168065686Y-122720000D01*
X143849043Y-127035155D02*
X143849043Y-126808881D01*
X143849043Y-126808881D02*
X149307924Y-121350000D01*
%TO.N,/STP-MS2*%
X143299043Y-127369043D02*
X143299043Y-126807337D01*
X143299043Y-126807337D02*
X149156380Y-120950000D01*
X172610000Y-121410000D02*
X173920000Y-122720000D01*
X149156380Y-120950000D02*
X167100000Y-120950000D01*
X167100000Y-120950000D02*
X167560000Y-121410000D01*
X167560000Y-121410000D02*
X172610000Y-121410000D01*
X143630000Y-127700000D02*
X143299043Y-127369043D01*
%TO.N,/STP-MS3*%
X143386434Y-128356258D02*
X143386434Y-128220110D01*
X143853676Y-128240000D02*
X144389043Y-127704633D01*
X144389043Y-126820425D02*
X149459468Y-121750000D01*
X166530000Y-121750000D02*
X168890000Y-124110000D01*
X172770000Y-124110000D02*
X173920000Y-125260000D01*
X143406324Y-128240000D02*
X143853676Y-128240000D01*
X149459468Y-121750000D02*
X166530000Y-121750000D01*
X168890000Y-124110000D02*
X172770000Y-124110000D01*
X143386434Y-128220110D02*
X143406324Y-128240000D01*
X144389043Y-127704633D02*
X144389043Y-126820425D01*
%TO.N,/~{STP-RST}*%
X144779043Y-128120957D02*
X144779043Y-126981969D01*
X166364314Y-122150000D02*
X169474314Y-125260000D01*
X143699841Y-128982341D02*
X143917659Y-128982341D01*
X149611012Y-122150000D02*
X166364314Y-122150000D01*
X169474314Y-125260000D02*
X171380000Y-125260000D01*
X143917659Y-128982341D02*
X144779043Y-128120957D01*
X144779043Y-126981969D02*
X149611012Y-122150000D01*
%TO.N,/STP-STEP*%
X146263909Y-131736091D02*
X146870000Y-131130000D01*
X154705686Y-133490000D02*
X167664314Y-133490000D01*
X146043909Y-131736091D02*
X146263909Y-131736091D01*
X169950000Y-129230000D02*
X171380000Y-127800000D01*
X152345686Y-131130000D02*
X154705686Y-133490000D01*
X167664314Y-133490000D02*
X169950000Y-131204314D01*
X169950000Y-131204314D02*
X169950000Y-129230000D01*
X146870000Y-131130000D02*
X152345686Y-131130000D01*
%TO.N,/STP-DIR*%
X148451802Y-131530000D02*
X152180000Y-131530000D01*
X154540000Y-133890000D02*
X167830000Y-133890000D01*
X167830000Y-133890000D02*
X171380000Y-130340000D01*
X148260000Y-131721802D02*
X148451802Y-131530000D01*
X152180000Y-131530000D02*
X154540000Y-133890000D01*
%TD*%
%TA.AperFunction,Conductor*%
%TO.N,GND*%
G36*
X131623601Y-98509618D02*
G01*
X131649158Y-98522698D01*
X131762064Y-98598140D01*
X131762077Y-98598147D01*
X131887710Y-98650185D01*
X131907753Y-98658487D01*
X132053821Y-98687542D01*
X132062403Y-98689249D01*
X132062406Y-98689250D01*
X132062408Y-98689250D01*
X132220094Y-98689250D01*
X132220095Y-98689249D01*
X132374747Y-98658487D01*
X132520429Y-98598144D01*
X132520938Y-98597803D01*
X132521246Y-98597707D01*
X132525796Y-98595275D01*
X132526257Y-98596137D01*
X132587613Y-98576921D01*
X132654994Y-98595401D01*
X132677516Y-98613220D01*
X133100630Y-99036334D01*
X133134115Y-99097657D01*
X133129131Y-99167349D01*
X133116051Y-99192905D01*
X133040612Y-99305807D01*
X133040602Y-99305825D01*
X132980264Y-99451496D01*
X132980261Y-99451508D01*
X132949500Y-99606151D01*
X132949500Y-99763844D01*
X132980261Y-99918487D01*
X132980264Y-99918499D01*
X133040602Y-100064170D01*
X133040609Y-100064183D01*
X133128602Y-100195872D01*
X133149480Y-100262549D01*
X133149500Y-100264763D01*
X133149500Y-101182351D01*
X133129815Y-101249390D01*
X133077011Y-101295145D01*
X133007853Y-101305089D01*
X133001310Y-101303969D01*
X132978842Y-101299500D01*
X132821158Y-101299500D01*
X132821155Y-101299500D01*
X132666510Y-101330261D01*
X132666498Y-101330264D01*
X132520827Y-101390602D01*
X132520814Y-101390609D01*
X132389711Y-101478210D01*
X132389707Y-101478213D01*
X132278213Y-101589707D01*
X132278210Y-101589711D01*
X132190609Y-101720814D01*
X132190602Y-101720827D01*
X132130264Y-101866498D01*
X132130261Y-101866510D01*
X132099500Y-102021153D01*
X132099500Y-102178846D01*
X132130261Y-102333489D01*
X132130264Y-102333501D01*
X132190602Y-102479172D01*
X132190609Y-102479185D01*
X132278210Y-102610288D01*
X132278213Y-102610292D01*
X132389707Y-102721786D01*
X132389711Y-102721789D01*
X132520814Y-102809390D01*
X132520827Y-102809397D01*
X132646979Y-102861650D01*
X132666503Y-102869737D01*
X132798691Y-102896031D01*
X132821153Y-102900499D01*
X132821156Y-102900500D01*
X132821158Y-102900500D01*
X132978842Y-102900500D01*
X133001308Y-102896031D01*
X133070898Y-102902257D01*
X133126076Y-102945119D01*
X133149322Y-103011008D01*
X133149500Y-103017648D01*
X133149500Y-117019903D01*
X133129815Y-117086942D01*
X133113181Y-117107584D01*
X132125339Y-118095425D01*
X132064016Y-118128910D01*
X132061850Y-118129361D01*
X131906508Y-118160261D01*
X131906498Y-118160264D01*
X131760827Y-118220602D01*
X131760814Y-118220609D01*
X131629711Y-118308210D01*
X131629707Y-118308213D01*
X131518213Y-118419707D01*
X131518210Y-118419711D01*
X131430609Y-118550814D01*
X131430602Y-118550827D01*
X131370264Y-118696498D01*
X131370261Y-118696510D01*
X131339500Y-118851153D01*
X131339500Y-119008846D01*
X131370261Y-119163489D01*
X131370264Y-119163501D01*
X131430602Y-119309172D01*
X131430609Y-119309185D01*
X131518210Y-119440288D01*
X131518213Y-119440292D01*
X131629707Y-119551786D01*
X131629711Y-119551789D01*
X131760814Y-119639390D01*
X131760827Y-119639397D01*
X131906498Y-119699735D01*
X131906503Y-119699737D01*
X132061153Y-119730499D01*
X132061156Y-119730500D01*
X132061158Y-119730500D01*
X132218844Y-119730500D01*
X132218845Y-119730499D01*
X132373497Y-119699737D01*
X132519179Y-119639394D01*
X132650289Y-119551789D01*
X132682158Y-119519920D01*
X132743480Y-119486434D01*
X132813172Y-119491418D01*
X132838731Y-119504498D01*
X132950814Y-119579390D01*
X132950827Y-119579397D01*
X133095665Y-119639390D01*
X133096503Y-119639737D01*
X133206340Y-119661585D01*
X133251153Y-119670499D01*
X133251156Y-119670500D01*
X133251158Y-119670500D01*
X133408844Y-119670500D01*
X133408845Y-119670499D01*
X133563497Y-119639737D01*
X133709179Y-119579394D01*
X133840289Y-119491789D01*
X133951789Y-119380289D01*
X134039394Y-119249179D01*
X134099737Y-119103497D01*
X134119630Y-119003489D01*
X134130638Y-118948150D01*
X134163023Y-118886239D01*
X134164521Y-118884713D01*
X134358081Y-118691153D01*
X151009500Y-118691153D01*
X151009500Y-118848846D01*
X151040261Y-119003489D01*
X151040264Y-119003501D01*
X151100602Y-119149172D01*
X151100609Y-119149185D01*
X151188210Y-119280288D01*
X151188213Y-119280292D01*
X151299707Y-119391786D01*
X151299711Y-119391789D01*
X151430814Y-119479390D01*
X151430827Y-119479397D01*
X151557201Y-119531742D01*
X151576503Y-119539737D01*
X151731153Y-119570499D01*
X151731156Y-119570500D01*
X151731158Y-119570500D01*
X151888844Y-119570500D01*
X151888845Y-119570499D01*
X152043497Y-119539737D01*
X152189179Y-119479394D01*
X152320289Y-119391789D01*
X152431789Y-119280289D01*
X152519394Y-119149179D01*
X152579737Y-119003497D01*
X152610500Y-118848842D01*
X152610500Y-118691158D01*
X152610500Y-118691155D01*
X152610499Y-118691153D01*
X152582585Y-118550821D01*
X152579737Y-118536503D01*
X152531359Y-118419707D01*
X152519397Y-118390827D01*
X152519390Y-118390814D01*
X152431789Y-118259711D01*
X152431786Y-118259707D01*
X152320292Y-118148213D01*
X152320288Y-118148210D01*
X152189185Y-118060609D01*
X152189172Y-118060602D01*
X152043501Y-118000264D01*
X152043489Y-118000261D01*
X151888845Y-117969500D01*
X151888842Y-117969500D01*
X151731158Y-117969500D01*
X151731155Y-117969500D01*
X151576510Y-118000261D01*
X151576498Y-118000264D01*
X151430827Y-118060602D01*
X151430814Y-118060609D01*
X151299711Y-118148210D01*
X151299707Y-118148213D01*
X151188213Y-118259707D01*
X151188210Y-118259711D01*
X151100609Y-118390814D01*
X151100602Y-118390827D01*
X151040264Y-118536498D01*
X151040261Y-118536510D01*
X151009500Y-118691153D01*
X134358081Y-118691153D01*
X134718713Y-118330521D01*
X134718716Y-118330520D01*
X134830520Y-118218716D01*
X134880639Y-118131904D01*
X134909577Y-118081785D01*
X134950501Y-117929057D01*
X134950501Y-117770943D01*
X134950501Y-117763348D01*
X134950500Y-117763330D01*
X134950500Y-117001153D01*
X144839500Y-117001153D01*
X144839500Y-117158846D01*
X144870261Y-117313489D01*
X144870264Y-117313501D01*
X144930602Y-117459172D01*
X144930609Y-117459185D01*
X145018210Y-117590288D01*
X145018213Y-117590292D01*
X145129707Y-117701786D01*
X145129711Y-117701789D01*
X145260814Y-117789390D01*
X145260827Y-117789397D01*
X145366079Y-117832993D01*
X145406503Y-117849737D01*
X145561153Y-117880499D01*
X145561156Y-117880500D01*
X145561158Y-117880500D01*
X145718844Y-117880500D01*
X145718845Y-117880499D01*
X145873497Y-117849737D01*
X146019179Y-117789394D01*
X146150289Y-117701789D01*
X146261789Y-117590289D01*
X146349394Y-117459179D01*
X146409737Y-117313497D01*
X146440500Y-117158842D01*
X146440500Y-117001158D01*
X146440500Y-117001155D01*
X146440499Y-117001153D01*
X146428634Y-116941505D01*
X146409737Y-116846503D01*
X146407783Y-116841786D01*
X146349397Y-116700827D01*
X146349390Y-116700814D01*
X146261789Y-116569711D01*
X146261786Y-116569707D01*
X146150292Y-116458213D01*
X146150288Y-116458210D01*
X146019185Y-116370609D01*
X146019172Y-116370602D01*
X145873501Y-116310264D01*
X145873489Y-116310261D01*
X145718845Y-116279500D01*
X145718842Y-116279500D01*
X145561158Y-116279500D01*
X145561155Y-116279500D01*
X145406510Y-116310261D01*
X145406498Y-116310264D01*
X145260827Y-116370602D01*
X145260814Y-116370609D01*
X145129711Y-116458210D01*
X145129707Y-116458213D01*
X145018213Y-116569707D01*
X145018210Y-116569711D01*
X144930609Y-116700814D01*
X144930602Y-116700827D01*
X144870264Y-116846498D01*
X144870261Y-116846510D01*
X144839500Y-117001153D01*
X134950500Y-117001153D01*
X134950500Y-116434500D01*
X134970185Y-116367461D01*
X135022989Y-116321706D01*
X135074500Y-116310500D01*
X135163844Y-116310500D01*
X135163845Y-116310499D01*
X135318497Y-116279737D01*
X135464179Y-116219394D01*
X135595289Y-116131789D01*
X135706789Y-116020289D01*
X135794394Y-115889179D01*
X135854737Y-115743497D01*
X135885500Y-115588842D01*
X135885500Y-115431158D01*
X135885500Y-115431155D01*
X135885499Y-115431153D01*
X135854737Y-115276503D01*
X135847511Y-115259057D01*
X135826163Y-115207518D01*
X135809029Y-115166153D01*
X159934500Y-115166153D01*
X159934500Y-115323846D01*
X159965261Y-115478489D01*
X159965264Y-115478501D01*
X160025602Y-115624172D01*
X160025609Y-115624185D01*
X160113210Y-115755288D01*
X160113213Y-115755292D01*
X160224707Y-115866786D01*
X160224711Y-115866789D01*
X160355814Y-115954390D01*
X160355827Y-115954397D01*
X160433356Y-115986510D01*
X160501503Y-116014737D01*
X160656153Y-116045499D01*
X160656156Y-116045500D01*
X160656158Y-116045500D01*
X160813844Y-116045500D01*
X160813845Y-116045499D01*
X160968497Y-116014737D01*
X161114179Y-115954394D01*
X161245289Y-115866789D01*
X161356789Y-115755289D01*
X161444394Y-115624179D01*
X161504737Y-115478497D01*
X161535500Y-115323842D01*
X161535500Y-115166158D01*
X161535500Y-115166155D01*
X161535499Y-115166153D01*
X161504737Y-115011503D01*
X161453669Y-114888213D01*
X161444397Y-114865827D01*
X161444390Y-114865814D01*
X161356789Y-114734711D01*
X161356786Y-114734707D01*
X161245292Y-114623213D01*
X161245288Y-114623210D01*
X161114185Y-114535609D01*
X161114172Y-114535602D01*
X160968501Y-114475264D01*
X160968489Y-114475261D01*
X160813845Y-114444500D01*
X160813842Y-114444500D01*
X160656158Y-114444500D01*
X160656155Y-114444500D01*
X160501510Y-114475261D01*
X160501498Y-114475264D01*
X160355827Y-114535602D01*
X160355814Y-114535609D01*
X160224711Y-114623210D01*
X160224707Y-114623213D01*
X160113213Y-114734707D01*
X160113210Y-114734711D01*
X160025609Y-114865814D01*
X160025602Y-114865827D01*
X159965264Y-115011498D01*
X159965261Y-115011510D01*
X159934500Y-115166153D01*
X135809029Y-115166153D01*
X135794397Y-115130827D01*
X135794390Y-115130814D01*
X135706789Y-114999711D01*
X135706786Y-114999707D01*
X135595292Y-114888213D01*
X135595288Y-114888210D01*
X135464185Y-114800609D01*
X135464172Y-114800602D01*
X135318501Y-114740264D01*
X135318489Y-114740261D01*
X135163845Y-114709500D01*
X135163842Y-114709500D01*
X135074500Y-114709500D01*
X135007461Y-114689815D01*
X134961706Y-114637011D01*
X134950500Y-114585500D01*
X134950500Y-109567899D01*
X134952428Y-109561330D01*
X134951216Y-109554592D01*
X134962147Y-109528231D01*
X134970185Y-109500860D01*
X134975357Y-109496377D01*
X134977981Y-109490052D01*
X135001431Y-109473784D01*
X135022989Y-109455105D01*
X135029763Y-109454130D01*
X135035390Y-109450228D01*
X135063905Y-109449221D01*
X135092147Y-109445161D01*
X135100038Y-109447946D01*
X135105217Y-109447764D01*
X135120330Y-109455110D01*
X135137818Y-109461284D01*
X135148233Y-109467469D01*
X135151284Y-109470520D01*
X135225465Y-109513348D01*
X135288215Y-109549577D01*
X135440943Y-109590501D01*
X135440946Y-109590501D01*
X135606653Y-109590501D01*
X135606669Y-109590500D01*
X136560903Y-109590500D01*
X136627942Y-109610185D01*
X136673697Y-109662989D01*
X136683641Y-109732147D01*
X136654616Y-109795703D01*
X136648584Y-109802181D01*
X136345339Y-110105425D01*
X136284016Y-110138910D01*
X136281850Y-110139361D01*
X136126508Y-110170261D01*
X136126498Y-110170264D01*
X135980827Y-110230602D01*
X135980814Y-110230609D01*
X135849711Y-110318210D01*
X135849707Y-110318213D01*
X135738213Y-110429707D01*
X135738210Y-110429711D01*
X135650609Y-110560814D01*
X135650602Y-110560827D01*
X135590264Y-110706498D01*
X135590261Y-110706510D01*
X135559500Y-110861153D01*
X135559500Y-111018846D01*
X135590261Y-111173489D01*
X135590264Y-111173501D01*
X135650602Y-111319172D01*
X135650609Y-111319185D01*
X135738210Y-111450288D01*
X135738213Y-111450292D01*
X135849707Y-111561786D01*
X135849711Y-111561789D01*
X135980814Y-111649390D01*
X135980827Y-111649397D01*
X136126498Y-111709735D01*
X136126503Y-111709737D01*
X136281153Y-111740499D01*
X136281156Y-111740500D01*
X136281158Y-111740500D01*
X136438844Y-111740500D01*
X136438845Y-111740499D01*
X136593497Y-111709737D01*
X136739179Y-111649394D01*
X136870289Y-111561789D01*
X136981789Y-111450289D01*
X137069394Y-111319179D01*
X137080555Y-111292235D01*
X137083679Y-111284692D01*
X137129737Y-111173497D01*
X137154282Y-111050104D01*
X137160638Y-111018150D01*
X137193023Y-110956239D01*
X137194518Y-110954716D01*
X137912416Y-110236819D01*
X137973739Y-110203334D01*
X138000097Y-110200500D01*
X145630234Y-110200500D01*
X145697273Y-110220185D01*
X145699125Y-110221398D01*
X145830814Y-110309390D01*
X145830827Y-110309397D01*
X145976498Y-110369735D01*
X145976503Y-110369737D01*
X146041147Y-110382595D01*
X146131849Y-110400638D01*
X146193760Y-110433023D01*
X146195338Y-110434573D01*
X148771284Y-113010520D01*
X148771286Y-113010521D01*
X148771290Y-113010524D01*
X148888877Y-113078412D01*
X148908216Y-113089577D01*
X149060943Y-113130501D01*
X149060945Y-113130501D01*
X149226654Y-113130501D01*
X149226670Y-113130500D01*
X163409903Y-113130500D01*
X163476942Y-113150185D01*
X163497584Y-113166819D01*
X163735425Y-113404660D01*
X163768910Y-113465983D01*
X163769361Y-113468149D01*
X163800261Y-113623491D01*
X163800264Y-113623501D01*
X163860602Y-113769172D01*
X163860609Y-113769185D01*
X163948210Y-113900288D01*
X163948213Y-113900292D01*
X164059707Y-114011786D01*
X164059711Y-114011789D01*
X164190814Y-114099390D01*
X164190827Y-114099397D01*
X164312363Y-114149738D01*
X164336503Y-114159737D01*
X164491153Y-114190499D01*
X164491156Y-114190500D01*
X164491158Y-114190500D01*
X164648844Y-114190500D01*
X164648845Y-114190499D01*
X164803497Y-114159737D01*
X164949179Y-114099394D01*
X165080289Y-114011789D01*
X165191789Y-113900289D01*
X165279394Y-113769179D01*
X165339737Y-113623497D01*
X165370500Y-113468842D01*
X165370500Y-113311158D01*
X165370500Y-113311155D01*
X165370499Y-113311153D01*
X165353356Y-113224970D01*
X165339737Y-113156503D01*
X165307391Y-113078412D01*
X165279397Y-113010827D01*
X165279390Y-113010814D01*
X165191789Y-112879711D01*
X165191786Y-112879707D01*
X165080292Y-112768213D01*
X165080288Y-112768210D01*
X164949185Y-112680609D01*
X164949172Y-112680602D01*
X164800596Y-112619061D01*
X164746192Y-112575220D01*
X164724127Y-112508926D01*
X164741406Y-112441227D01*
X164792543Y-112393616D01*
X164848048Y-112380500D01*
X165489903Y-112380500D01*
X165556942Y-112400185D01*
X165577584Y-112416819D01*
X166555425Y-113394660D01*
X166588910Y-113455983D01*
X166589361Y-113458149D01*
X166620261Y-113613491D01*
X166620264Y-113613501D01*
X166680602Y-113759172D01*
X166680609Y-113759185D01*
X166768210Y-113890288D01*
X166768213Y-113890292D01*
X166879707Y-114001786D01*
X166879711Y-114001789D01*
X167010814Y-114089390D01*
X167010827Y-114089397D01*
X167156498Y-114149735D01*
X167156503Y-114149737D01*
X167311153Y-114180499D01*
X167311156Y-114180500D01*
X167311158Y-114180500D01*
X167468844Y-114180500D01*
X167468845Y-114180499D01*
X167623497Y-114149737D01*
X167736166Y-114103067D01*
X167769172Y-114089397D01*
X167769172Y-114089396D01*
X167769179Y-114089394D01*
X167900289Y-114001789D01*
X168011789Y-113890289D01*
X168099394Y-113759179D01*
X168159737Y-113613497D01*
X168173883Y-113542383D01*
X168206268Y-113480472D01*
X168266983Y-113445898D01*
X168336753Y-113449637D01*
X168393425Y-113490504D01*
X168419006Y-113555522D01*
X168419500Y-113566574D01*
X168419500Y-115093330D01*
X168419499Y-115093348D01*
X168419499Y-115259054D01*
X168419498Y-115259054D01*
X168460423Y-115411786D01*
X168465906Y-115421282D01*
X168482379Y-115489182D01*
X168459527Y-115555209D01*
X168427415Y-115586381D01*
X168409708Y-115598213D01*
X168409704Y-115598217D01*
X168298213Y-115709707D01*
X168298210Y-115709711D01*
X168210609Y-115840814D01*
X168210602Y-115840827D01*
X168150264Y-115986498D01*
X168150261Y-115986510D01*
X168119500Y-116141153D01*
X168119500Y-116298846D01*
X168150261Y-116453489D01*
X168150264Y-116453501D01*
X168210602Y-116599172D01*
X168210609Y-116599185D01*
X168298210Y-116730288D01*
X168298213Y-116730292D01*
X168409707Y-116841786D01*
X168409711Y-116841789D01*
X168540814Y-116929390D01*
X168540827Y-116929397D01*
X168677476Y-116985998D01*
X168686503Y-116989737D01*
X168838157Y-117019903D01*
X168841153Y-117020499D01*
X168841156Y-117020500D01*
X168841158Y-117020500D01*
X168998844Y-117020500D01*
X168998845Y-117020499D01*
X169153497Y-116989737D01*
X169292448Y-116932182D01*
X169299172Y-116929397D01*
X169299172Y-116929396D01*
X169299179Y-116929394D01*
X169430289Y-116841789D01*
X169430292Y-116841786D01*
X169543741Y-116728338D01*
X169605064Y-116694853D01*
X169674756Y-116699837D01*
X169719103Y-116728338D01*
X170070765Y-117080000D01*
X170104250Y-117141323D01*
X170101015Y-117205999D01*
X170062754Y-117323752D01*
X170062754Y-117323755D01*
X170029500Y-117533713D01*
X170029500Y-117746286D01*
X170062735Y-117956127D01*
X170062754Y-117956243D01*
X170125128Y-118148211D01*
X170128444Y-118158414D01*
X170224951Y-118347820D01*
X170349890Y-118519786D01*
X170500213Y-118670109D01*
X170672182Y-118795050D01*
X170680946Y-118799516D01*
X170731742Y-118847491D01*
X170748536Y-118915312D01*
X170725998Y-118981447D01*
X170680946Y-119020484D01*
X170672182Y-119024949D01*
X170500213Y-119149890D01*
X170349890Y-119300213D01*
X170224951Y-119472179D01*
X170128444Y-119661585D01*
X170062753Y-119863760D01*
X170029500Y-120073713D01*
X170029500Y-120286287D01*
X170062754Y-120496243D01*
X170111798Y-120647184D01*
X170113793Y-120717023D01*
X170077713Y-120776856D01*
X170015012Y-120807684D01*
X169993867Y-120809500D01*
X167860097Y-120809500D01*
X167793058Y-120789815D01*
X167772416Y-120773181D01*
X167587590Y-120588355D01*
X167587588Y-120588352D01*
X167468717Y-120469481D01*
X167468716Y-120469480D01*
X167381904Y-120419360D01*
X167381904Y-120419359D01*
X167381900Y-120419358D01*
X167331785Y-120390423D01*
X167179057Y-120349499D01*
X167020943Y-120349499D01*
X167013347Y-120349499D01*
X167013331Y-120349500D01*
X149077320Y-120349500D01*
X149036399Y-120360464D01*
X149036399Y-120360465D01*
X148999131Y-120370451D01*
X148924594Y-120390423D01*
X148924589Y-120390426D01*
X148787670Y-120469475D01*
X148787662Y-120469481D01*
X142818524Y-126438619D01*
X142818520Y-126438624D01*
X142776414Y-126511556D01*
X142776414Y-126511557D01*
X142739466Y-126575551D01*
X142732573Y-126601277D01*
X142698542Y-126728280D01*
X142698542Y-126728282D01*
X142698542Y-126896383D01*
X142698543Y-126896396D01*
X142698543Y-127282373D01*
X142698542Y-127282391D01*
X142698542Y-127448097D01*
X142698541Y-127448097D01*
X142700836Y-127456663D01*
X142739466Y-127600828D01*
X142759574Y-127635655D01*
X142793093Y-127693713D01*
X142795901Y-127698576D01*
X142816878Y-127734910D01*
X142833350Y-127802810D01*
X142810497Y-127868837D01*
X142805349Y-127875567D01*
X142803484Y-127877839D01*
X142721353Y-128000756D01*
X142721346Y-128000769D01*
X142664777Y-128137340D01*
X142664774Y-128137350D01*
X142635934Y-128282337D01*
X142635934Y-128282340D01*
X142635934Y-128430176D01*
X142635934Y-128430178D01*
X142635933Y-128430178D01*
X142664774Y-128575165D01*
X142664777Y-128575175D01*
X142721346Y-128711746D01*
X142721353Y-128711759D01*
X142803482Y-128834673D01*
X142803485Y-128834677D01*
X142912325Y-128943517D01*
X142910455Y-128945386D01*
X142943340Y-128993661D01*
X142949341Y-129031770D01*
X142949341Y-129056259D01*
X142949341Y-129056261D01*
X142949340Y-129056261D01*
X142978181Y-129201248D01*
X142978184Y-129201258D01*
X143034753Y-129337829D01*
X143034760Y-129337842D01*
X143096796Y-129430684D01*
X143117674Y-129497361D01*
X143099190Y-129564741D01*
X143081376Y-129587255D01*
X143047052Y-129621579D01*
X143047048Y-129621584D01*
X142964919Y-129744498D01*
X142964912Y-129744511D01*
X142908343Y-129881082D01*
X142908340Y-129881092D01*
X142879500Y-130026079D01*
X142879500Y-130026082D01*
X142879500Y-130173918D01*
X142879500Y-130173920D01*
X142879499Y-130173920D01*
X142908340Y-130318907D01*
X142908343Y-130318917D01*
X142964912Y-130455488D01*
X142964919Y-130455501D01*
X143047048Y-130578415D01*
X143047051Y-130578419D01*
X143151580Y-130682948D01*
X143151584Y-130682951D01*
X143274498Y-130765080D01*
X143274511Y-130765087D01*
X143373104Y-130805925D01*
X143411087Y-130821658D01*
X143488212Y-130836999D01*
X143550119Y-130869382D01*
X143551699Y-130870934D01*
X143994042Y-131313277D01*
X144027527Y-131374600D01*
X144022543Y-131444292D01*
X143980671Y-131500225D01*
X143953813Y-131515519D01*
X143820827Y-131570602D01*
X143820814Y-131570609D01*
X143689711Y-131658210D01*
X143689707Y-131658213D01*
X143578213Y-131769707D01*
X143578210Y-131769711D01*
X143490609Y-131900814D01*
X143490602Y-131900827D01*
X143430264Y-132046498D01*
X143430261Y-132046510D01*
X143399500Y-132201153D01*
X143399500Y-132358846D01*
X143430261Y-132513489D01*
X143430264Y-132513501D01*
X143490602Y-132659172D01*
X143490609Y-132659185D01*
X143578210Y-132790288D01*
X143578213Y-132790292D01*
X143689707Y-132901786D01*
X143689711Y-132901789D01*
X143820814Y-132989390D01*
X143820827Y-132989397D01*
X143966498Y-133049735D01*
X143966503Y-133049737D01*
X144121153Y-133080499D01*
X144121156Y-133080500D01*
X144121158Y-133080500D01*
X144278844Y-133080500D01*
X144278845Y-133080499D01*
X144433497Y-133049737D01*
X144579179Y-132989394D01*
X144710289Y-132901789D01*
X144821789Y-132790289D01*
X144909394Y-132659179D01*
X144964482Y-132526182D01*
X145008320Y-132471783D01*
X145074614Y-132449717D01*
X145142313Y-132466995D01*
X145166722Y-132485957D01*
X145935139Y-133254374D01*
X145935149Y-133254385D01*
X145939479Y-133258715D01*
X145939480Y-133258716D01*
X146051284Y-133370520D01*
X146099596Y-133398412D01*
X146138095Y-133420639D01*
X146138097Y-133420641D01*
X146176151Y-133442611D01*
X146188215Y-133449577D01*
X146340943Y-133490501D01*
X146340946Y-133490501D01*
X146506653Y-133490501D01*
X146506669Y-133490500D01*
X151950234Y-133490500D01*
X152017273Y-133510185D01*
X152019125Y-133511398D01*
X152150814Y-133599390D01*
X152150827Y-133599397D01*
X152280195Y-133652982D01*
X152296503Y-133659737D01*
X152451153Y-133690499D01*
X152451156Y-133690500D01*
X152451158Y-133690500D01*
X152608844Y-133690500D01*
X152608845Y-133690499D01*
X152763497Y-133659737D01*
X152779804Y-133652981D01*
X152849274Y-133645512D01*
X152911753Y-133676786D01*
X152914940Y-133679861D01*
X153889454Y-134654374D01*
X153889464Y-134654385D01*
X153893794Y-134658715D01*
X153893795Y-134658716D01*
X154005599Y-134770520D01*
X154005601Y-134770521D01*
X154005605Y-134770524D01*
X154142524Y-134849573D01*
X154142531Y-134849577D01*
X154295258Y-134890501D01*
X154295260Y-134890501D01*
X154460969Y-134890501D01*
X154460985Y-134890500D01*
X168123331Y-134890500D01*
X168123341Y-134890501D01*
X168130943Y-134890501D01*
X168289054Y-134890501D01*
X168289057Y-134890501D01*
X168441785Y-134849577D01*
X168491904Y-134820639D01*
X168578716Y-134770520D01*
X168690520Y-134658716D01*
X168690520Y-134658714D01*
X168700728Y-134648507D01*
X168700730Y-134648504D01*
X169947807Y-133401426D01*
X170009128Y-133367943D01*
X170078820Y-133372927D01*
X170134753Y-133414799D01*
X170145971Y-133432814D01*
X170185394Y-133510185D01*
X170224857Y-133587636D01*
X170224951Y-133587819D01*
X170349890Y-133759786D01*
X170500213Y-133910109D01*
X170672179Y-134035048D01*
X170672181Y-134035049D01*
X170672184Y-134035051D01*
X170861588Y-134131557D01*
X171063757Y-134197246D01*
X171273713Y-134230500D01*
X171273714Y-134230500D01*
X171420902Y-134230500D01*
X171487941Y-134250185D01*
X171533696Y-134302989D01*
X171543640Y-134372147D01*
X171514615Y-134435703D01*
X171508583Y-134442181D01*
X170897584Y-135053181D01*
X170836261Y-135086666D01*
X170809903Y-135089500D01*
X168727787Y-135089500D01*
X168569673Y-135089500D01*
X168416945Y-135130423D01*
X168416944Y-135130423D01*
X168416942Y-135130424D01*
X168416939Y-135130425D01*
X168366826Y-135159359D01*
X168366825Y-135159360D01*
X168323419Y-135184420D01*
X168280015Y-135209479D01*
X168280012Y-135209481D01*
X168189994Y-135299500D01*
X168168210Y-135321284D01*
X168168208Y-135321286D01*
X167440988Y-136048507D01*
X166736314Y-136753181D01*
X166674991Y-136786666D01*
X166648633Y-136789500D01*
X151464032Y-136789500D01*
X151396993Y-136769815D01*
X151351238Y-136717011D01*
X151341294Y-136647853D01*
X151360930Y-136596609D01*
X151439390Y-136479185D01*
X151439390Y-136479184D01*
X151439394Y-136479179D01*
X151499737Y-136333497D01*
X151530500Y-136178842D01*
X151530500Y-136021158D01*
X151530500Y-136021155D01*
X151530499Y-136021153D01*
X151527046Y-136003794D01*
X151499737Y-135866503D01*
X151499735Y-135866498D01*
X151439397Y-135720827D01*
X151439390Y-135720814D01*
X151351789Y-135589711D01*
X151351786Y-135589707D01*
X151240292Y-135478213D01*
X151240288Y-135478210D01*
X151109185Y-135390609D01*
X151109172Y-135390602D01*
X150963501Y-135330264D01*
X150963489Y-135330261D01*
X150808845Y-135299500D01*
X150808842Y-135299500D01*
X150651158Y-135299500D01*
X150651155Y-135299500D01*
X150496510Y-135330261D01*
X150496498Y-135330264D01*
X150350827Y-135390602D01*
X150350814Y-135390609D01*
X150219711Y-135478210D01*
X150219707Y-135478213D01*
X150108213Y-135589707D01*
X150108210Y-135589711D01*
X150020609Y-135720814D01*
X150020602Y-135720827D01*
X149960264Y-135866498D01*
X149960261Y-135866510D01*
X149929500Y-136021153D01*
X149929500Y-136178846D01*
X149960261Y-136333489D01*
X149960264Y-136333501D01*
X150020602Y-136479172D01*
X150020609Y-136479185D01*
X150108210Y-136610288D01*
X150108213Y-136610292D01*
X150196102Y-136698181D01*
X150229587Y-136759504D01*
X150224603Y-136829196D01*
X150211523Y-136854753D01*
X150120609Y-136990814D01*
X150120602Y-136990827D01*
X150060264Y-137136498D01*
X150060261Y-137136510D01*
X150029500Y-137291153D01*
X150029500Y-137448846D01*
X150060261Y-137603489D01*
X150060264Y-137603501D01*
X150120602Y-137749172D01*
X150120609Y-137749185D01*
X150208210Y-137880288D01*
X150208213Y-137880292D01*
X150319707Y-137991786D01*
X150319711Y-137991789D01*
X150450814Y-138079390D01*
X150450827Y-138079397D01*
X150596498Y-138139735D01*
X150596503Y-138139737D01*
X150751153Y-138170499D01*
X150751156Y-138170500D01*
X150751158Y-138170500D01*
X150908844Y-138170500D01*
X150908845Y-138170499D01*
X151063497Y-138139737D01*
X151182828Y-138090309D01*
X151209172Y-138079397D01*
X151209172Y-138079396D01*
X151209179Y-138079394D01*
X151239937Y-138058842D01*
X151310943Y-138011398D01*
X151377621Y-137990520D01*
X151379834Y-137990500D01*
X153974142Y-137990500D01*
X154041181Y-138010185D01*
X154086936Y-138062989D01*
X154095759Y-138090309D01*
X154120261Y-138213489D01*
X154120264Y-138213501D01*
X154180602Y-138359172D01*
X154180609Y-138359185D01*
X154268210Y-138490288D01*
X154268213Y-138490292D01*
X154379707Y-138601786D01*
X154379711Y-138601789D01*
X154510814Y-138689390D01*
X154510821Y-138689394D01*
X154634011Y-138740420D01*
X154688412Y-138784259D01*
X154710478Y-138850553D01*
X154704263Y-138893983D01*
X154680001Y-138967200D01*
X154680000Y-138967204D01*
X154669500Y-139069983D01*
X154669500Y-140670001D01*
X154669501Y-140670018D01*
X154680000Y-140772796D01*
X154680001Y-140772799D01*
X154704759Y-140847512D01*
X154735186Y-140939334D01*
X154827288Y-141088656D01*
X154951344Y-141212712D01*
X155100666Y-141304814D01*
X155267203Y-141359999D01*
X155369991Y-141370500D01*
X156970008Y-141370499D01*
X157072797Y-141359999D01*
X157239334Y-141304814D01*
X157388656Y-141212712D01*
X157512712Y-141088656D01*
X157542512Y-141040341D01*
X157594458Y-140993618D01*
X157663420Y-140982395D01*
X157727503Y-141010238D01*
X157728758Y-141011385D01*
X157728786Y-141011353D01*
X157732481Y-141014508D01*
X157732490Y-141014517D01*
X157923567Y-141153343D01*
X158022991Y-141204002D01*
X158134003Y-141260566D01*
X158134005Y-141260566D01*
X158134008Y-141260568D01*
X158254412Y-141299689D01*
X158358631Y-141333553D01*
X158591903Y-141370500D01*
X158591908Y-141370500D01*
X158828097Y-141370500D01*
X159061368Y-141333553D01*
X159285992Y-141260568D01*
X159496433Y-141153343D01*
X159687510Y-141014517D01*
X159854517Y-140847510D01*
X159879682Y-140812872D01*
X159935011Y-140770207D01*
X160004625Y-140764228D01*
X160066420Y-140796833D01*
X160080315Y-140812870D01*
X160105483Y-140847510D01*
X160272490Y-141014517D01*
X160463567Y-141153343D01*
X160562991Y-141204002D01*
X160674003Y-141260566D01*
X160674005Y-141260566D01*
X160674008Y-141260568D01*
X160794412Y-141299689D01*
X160898631Y-141333553D01*
X161131903Y-141370500D01*
X161131908Y-141370500D01*
X161368097Y-141370500D01*
X161601368Y-141333553D01*
X161825992Y-141260568D01*
X162036433Y-141153343D01*
X162227510Y-141014517D01*
X162394517Y-140847510D01*
X162419682Y-140812872D01*
X162475011Y-140770207D01*
X162544625Y-140764228D01*
X162606420Y-140796833D01*
X162620315Y-140812870D01*
X162645483Y-140847510D01*
X162812490Y-141014517D01*
X163003567Y-141153343D01*
X163102991Y-141204002D01*
X163214003Y-141260566D01*
X163214005Y-141260566D01*
X163214008Y-141260568D01*
X163334412Y-141299689D01*
X163438631Y-141333553D01*
X163671903Y-141370500D01*
X163671908Y-141370500D01*
X163908097Y-141370500D01*
X164141368Y-141333553D01*
X164365992Y-141260568D01*
X164576433Y-141153343D01*
X164767510Y-141014517D01*
X164934517Y-140847510D01*
X165073343Y-140656433D01*
X165180568Y-140445992D01*
X165253553Y-140221368D01*
X165272524Y-140101591D01*
X165290500Y-139988097D01*
X165290500Y-139751902D01*
X165253553Y-139518631D01*
X165211086Y-139387933D01*
X165180568Y-139294008D01*
X165180566Y-139294005D01*
X165180566Y-139294003D01*
X165073342Y-139083566D01*
X165063479Y-139069991D01*
X164934517Y-138892490D01*
X164767510Y-138725483D01*
X164576433Y-138586657D01*
X164523111Y-138559488D01*
X164365996Y-138479433D01*
X164141368Y-138406446D01*
X163908097Y-138369500D01*
X163908092Y-138369500D01*
X163671908Y-138369500D01*
X163671903Y-138369500D01*
X163438631Y-138406446D01*
X163214003Y-138479433D01*
X163003566Y-138586657D01*
X162894550Y-138665862D01*
X162812490Y-138725483D01*
X162812488Y-138725485D01*
X162812487Y-138725485D01*
X162645484Y-138892488D01*
X162620318Y-138927127D01*
X162564987Y-138969792D01*
X162495374Y-138975771D01*
X162433579Y-138943165D01*
X162419682Y-138927127D01*
X162394517Y-138892490D01*
X162227510Y-138725483D01*
X162036433Y-138586657D01*
X161983111Y-138559488D01*
X161825996Y-138479433D01*
X161601368Y-138406446D01*
X161368097Y-138369500D01*
X161368092Y-138369500D01*
X161131908Y-138369500D01*
X161131903Y-138369500D01*
X160898631Y-138406446D01*
X160674003Y-138479433D01*
X160463566Y-138586657D01*
X160354550Y-138665862D01*
X160272490Y-138725483D01*
X160272488Y-138725485D01*
X160272487Y-138725485D01*
X160105484Y-138892488D01*
X160080318Y-138927127D01*
X160024987Y-138969792D01*
X159955374Y-138975771D01*
X159893579Y-138943165D01*
X159879682Y-138927127D01*
X159854517Y-138892490D01*
X159687510Y-138725483D01*
X159496433Y-138586657D01*
X159443111Y-138559488D01*
X159285996Y-138479433D01*
X159061368Y-138406446D01*
X158828097Y-138369500D01*
X158828092Y-138369500D01*
X158591908Y-138369500D01*
X158591903Y-138369500D01*
X158358631Y-138406446D01*
X158134003Y-138479433D01*
X157923566Y-138586657D01*
X157814550Y-138665862D01*
X157732490Y-138725483D01*
X157732488Y-138725485D01*
X157728786Y-138728647D01*
X157727305Y-138726913D01*
X157674110Y-138755791D01*
X157604431Y-138750635D01*
X157548601Y-138708626D01*
X157542511Y-138699656D01*
X157536179Y-138689390D01*
X157512712Y-138651344D01*
X157388656Y-138527288D01*
X157275122Y-138457260D01*
X157239336Y-138435187D01*
X157239331Y-138435185D01*
X157237862Y-138434698D01*
X157072797Y-138380001D01*
X157072795Y-138380000D01*
X156970016Y-138369500D01*
X156970009Y-138369500D01*
X155779609Y-138369500D01*
X155759314Y-138363540D01*
X155738192Y-138362379D01*
X155726459Y-138353893D01*
X155712570Y-138349815D01*
X155698720Y-138333831D01*
X155681577Y-138321433D01*
X155676294Y-138307950D01*
X155666815Y-138297011D01*
X155663804Y-138276075D01*
X155656087Y-138256379D01*
X155658133Y-138236633D01*
X155656871Y-138227853D01*
X155658026Y-138221138D01*
X155659388Y-138214338D01*
X155659737Y-138213497D01*
X155684275Y-138090138D01*
X155700563Y-138059104D01*
X155716626Y-138028398D01*
X155716704Y-138028353D01*
X155716747Y-138028272D01*
X155747206Y-138010983D01*
X155777341Y-137993824D01*
X155777466Y-137993809D01*
X155777511Y-137993784D01*
X155777628Y-137993790D01*
X155805858Y-137990500D01*
X166862061Y-137990500D01*
X166862077Y-137990501D01*
X166869673Y-137990501D01*
X167027784Y-137990501D01*
X167027787Y-137990501D01*
X167180515Y-137949577D01*
X167180516Y-137949576D01*
X167188366Y-137947473D01*
X167188891Y-137949434D01*
X167247509Y-137943129D01*
X167309990Y-137974400D01*
X167345646Y-138034487D01*
X167349500Y-138065160D01*
X167349500Y-138137667D01*
X167349501Y-138137684D01*
X167385438Y-138410655D01*
X167385439Y-138410660D01*
X167385440Y-138410666D01*
X167413393Y-138514988D01*
X167456704Y-138676630D01*
X167562075Y-138931017D01*
X167562080Y-138931028D01*
X167639546Y-139065201D01*
X167699751Y-139169479D01*
X167699753Y-139169482D01*
X167699754Y-139169483D01*
X167867370Y-139387926D01*
X167867376Y-139387933D01*
X168062066Y-139582623D01*
X168062073Y-139582629D01*
X168136430Y-139639685D01*
X168280521Y-139750249D01*
X168433778Y-139838732D01*
X168518971Y-139887919D01*
X168518976Y-139887921D01*
X168518979Y-139887923D01*
X168773368Y-139993295D01*
X169039334Y-140064560D01*
X169312326Y-140100500D01*
X169312333Y-140100500D01*
X169587667Y-140100500D01*
X169587674Y-140100500D01*
X169860666Y-140064560D01*
X170126632Y-139993295D01*
X170381021Y-139887923D01*
X170619479Y-139750249D01*
X170837928Y-139582628D01*
X171032628Y-139387928D01*
X171200249Y-139169479D01*
X171337923Y-138931021D01*
X171443295Y-138676632D01*
X171514560Y-138410666D01*
X171550500Y-138137674D01*
X171550500Y-137862326D01*
X171514560Y-137589334D01*
X171443295Y-137323368D01*
X171337923Y-137068979D01*
X171337921Y-137068976D01*
X171337919Y-137068971D01*
X171288732Y-136983778D01*
X171200249Y-136830521D01*
X171113150Y-136717011D01*
X171032629Y-136612073D01*
X171032623Y-136612066D01*
X170922738Y-136502181D01*
X170912125Y-136482744D01*
X170897625Y-136466011D01*
X170895708Y-136452679D01*
X170889253Y-136440858D01*
X170890832Y-136418771D01*
X170887681Y-136396853D01*
X170893276Y-136384601D01*
X170894237Y-136371166D01*
X170907507Y-136353439D01*
X170916706Y-136333297D01*
X170928037Y-136326014D01*
X170936109Y-136315233D01*
X170956854Y-136307495D01*
X170975484Y-136295523D01*
X170997402Y-136292371D01*
X171001573Y-136290816D01*
X171010419Y-136290500D01*
X171023331Y-136290500D01*
X171023347Y-136290501D01*
X171030943Y-136290501D01*
X171189054Y-136290501D01*
X171189057Y-136290501D01*
X171341785Y-136249577D01*
X171391904Y-136220639D01*
X171478716Y-136170520D01*
X171590520Y-136058716D01*
X171590520Y-136058714D01*
X171600728Y-136048507D01*
X171600730Y-136048504D01*
X173435478Y-134213755D01*
X173496799Y-134180272D01*
X173561473Y-134183506D01*
X173603757Y-134197246D01*
X173813713Y-134230500D01*
X173813714Y-134230500D01*
X174026286Y-134230500D01*
X174026287Y-134230500D01*
X174236243Y-134197246D01*
X174438412Y-134131557D01*
X174627816Y-134035051D01*
X174682572Y-133995269D01*
X174799786Y-133910109D01*
X174799788Y-133910106D01*
X174799792Y-133910104D01*
X174950104Y-133759792D01*
X175075051Y-133587816D01*
X175075052Y-133587812D01*
X175075181Y-133587636D01*
X175100167Y-133568368D01*
X175123989Y-133547727D01*
X175127611Y-133547206D01*
X175130511Y-133544970D01*
X175161932Y-133542271D01*
X175193147Y-133537783D01*
X175196477Y-133539304D01*
X175200124Y-133538991D01*
X175228010Y-133553704D01*
X175256703Y-133566808D01*
X175258682Y-133569887D01*
X175261920Y-133571596D01*
X175277426Y-133599054D01*
X175294477Y-133625586D01*
X175295183Y-133630498D01*
X175296277Y-133632435D01*
X175299500Y-133660521D01*
X175299500Y-133796978D01*
X175299439Y-133800873D01*
X175280877Y-134391514D01*
X175280388Y-134399288D01*
X175224959Y-134985664D01*
X175223982Y-134993393D01*
X175131849Y-135575101D01*
X175130390Y-135582753D01*
X175001903Y-136157570D01*
X174999965Y-136165115D01*
X174835650Y-136730691D01*
X174833243Y-136738100D01*
X174633733Y-137292260D01*
X174630866Y-137299502D01*
X174396952Y-137840046D01*
X174393635Y-137847095D01*
X174126241Y-138371883D01*
X174122488Y-138378709D01*
X173822675Y-138885666D01*
X173818501Y-138892243D01*
X173487444Y-139379378D01*
X173482865Y-139385680D01*
X173121887Y-139851050D01*
X173116922Y-139857053D01*
X172727407Y-140298872D01*
X172722074Y-140304550D01*
X172305618Y-140721006D01*
X172299940Y-140726339D01*
X171858121Y-141115854D01*
X171852118Y-141120819D01*
X171386748Y-141481797D01*
X171380446Y-141486376D01*
X170893311Y-141817433D01*
X170886734Y-141821607D01*
X170379777Y-142121420D01*
X170372951Y-142125173D01*
X169848163Y-142392567D01*
X169841114Y-142395884D01*
X169300570Y-142629798D01*
X169293328Y-142632665D01*
X168739168Y-142832175D01*
X168731759Y-142834582D01*
X168166183Y-142998897D01*
X168158638Y-143000835D01*
X167583821Y-143129322D01*
X167576169Y-143130781D01*
X166994461Y-143222914D01*
X166986732Y-143223891D01*
X166400356Y-143279320D01*
X166392582Y-143279809D01*
X165801941Y-143298371D01*
X165798046Y-143298432D01*
X131201954Y-143298432D01*
X131198059Y-143298371D01*
X130607417Y-143279809D01*
X130599643Y-143279320D01*
X130013267Y-143223891D01*
X130005538Y-143222914D01*
X129423830Y-143130781D01*
X129416178Y-143129322D01*
X128841361Y-143000835D01*
X128833816Y-142998897D01*
X128268240Y-142834582D01*
X128260832Y-142832175D01*
X127706671Y-142632665D01*
X127699428Y-142629798D01*
X127158885Y-142395884D01*
X127151836Y-142392567D01*
X126627047Y-142125174D01*
X126620221Y-142121421D01*
X126113265Y-141821608D01*
X126106688Y-141817434D01*
X125619560Y-141486383D01*
X125613257Y-141481804D01*
X125266344Y-141212710D01*
X125147868Y-141120810D01*
X125141869Y-141115848D01*
X125056225Y-141040343D01*
X124700058Y-140726339D01*
X124694380Y-140721006D01*
X124277925Y-140304551D01*
X124272592Y-140298873D01*
X124114894Y-140120000D01*
X123883078Y-139857056D01*
X123878118Y-139851060D01*
X123878110Y-139851050D01*
X123517123Y-139385669D01*
X123512548Y-139379371D01*
X123216103Y-138943165D01*
X123181496Y-138892242D01*
X123177323Y-138885666D01*
X122877510Y-138378710D01*
X122873757Y-138371884D01*
X122768952Y-138166192D01*
X122614128Y-137862332D01*
X125449500Y-137862332D01*
X125449500Y-138137667D01*
X125449501Y-138137684D01*
X125485438Y-138410655D01*
X125485439Y-138410660D01*
X125485440Y-138410666D01*
X125513393Y-138514988D01*
X125556704Y-138676630D01*
X125662075Y-138931017D01*
X125662080Y-138931028D01*
X125739546Y-139065201D01*
X125799751Y-139169479D01*
X125799753Y-139169482D01*
X125799754Y-139169483D01*
X125967370Y-139387926D01*
X125967376Y-139387933D01*
X126162066Y-139582623D01*
X126162073Y-139582629D01*
X126236430Y-139639685D01*
X126380521Y-139750249D01*
X126533778Y-139838732D01*
X126618971Y-139887919D01*
X126618976Y-139887921D01*
X126618979Y-139887923D01*
X126873368Y-139993295D01*
X127139334Y-140064560D01*
X127412326Y-140100500D01*
X127412333Y-140100500D01*
X127687667Y-140100500D01*
X127687674Y-140100500D01*
X127960666Y-140064560D01*
X128226632Y-139993295D01*
X128481021Y-139887923D01*
X128719479Y-139750249D01*
X128937928Y-139582628D01*
X129132628Y-139387928D01*
X129300249Y-139169479D01*
X129437923Y-138931021D01*
X129543295Y-138676632D01*
X129614560Y-138410666D01*
X129650500Y-138137674D01*
X129650500Y-137862326D01*
X129614560Y-137589334D01*
X129543295Y-137323368D01*
X129437923Y-137068979D01*
X129437921Y-137068976D01*
X129437919Y-137068971D01*
X129388732Y-136983778D01*
X129300249Y-136830521D01*
X129213150Y-136717011D01*
X129132629Y-136612073D01*
X129132623Y-136612066D01*
X128937933Y-136417376D01*
X128937926Y-136417370D01*
X128719483Y-136249754D01*
X128719482Y-136249753D01*
X128719479Y-136249751D01*
X128596665Y-136178844D01*
X128481028Y-136112080D01*
X128481017Y-136112075D01*
X128226630Y-136006704D01*
X128093649Y-135971072D01*
X127960666Y-135935440D01*
X127960660Y-135935439D01*
X127960655Y-135935438D01*
X127687684Y-135899501D01*
X127687679Y-135899500D01*
X127687674Y-135899500D01*
X127412326Y-135899500D01*
X127412320Y-135899500D01*
X127412315Y-135899501D01*
X127139344Y-135935438D01*
X127139337Y-135935439D01*
X127139334Y-135935440D01*
X127083125Y-135950500D01*
X126873369Y-136006704D01*
X126618982Y-136112075D01*
X126618971Y-136112080D01*
X126430944Y-136220639D01*
X126380823Y-136249577D01*
X126380516Y-136249754D01*
X126162073Y-136417370D01*
X126162066Y-136417376D01*
X125967376Y-136612066D01*
X125967370Y-136612073D01*
X125799754Y-136830516D01*
X125662080Y-137068971D01*
X125662075Y-137068982D01*
X125556704Y-137323369D01*
X125485441Y-137589331D01*
X125485438Y-137589344D01*
X125449501Y-137862315D01*
X125449500Y-137862332D01*
X122614128Y-137862332D01*
X122606363Y-137847093D01*
X122603047Y-137840046D01*
X122561193Y-137743327D01*
X122369129Y-137299494D01*
X122366266Y-137292260D01*
X122166756Y-136738099D01*
X122164349Y-136730691D01*
X122091276Y-136479172D01*
X122000031Y-136165104D01*
X121998096Y-136157570D01*
X121987928Y-136112080D01*
X121869605Y-135582734D01*
X121868153Y-135575120D01*
X121776016Y-134993391D01*
X121775040Y-134985664D01*
X121719610Y-134399272D01*
X121719123Y-134391530D01*
X121700561Y-133800873D01*
X121700500Y-133796978D01*
X121700500Y-133659669D01*
X121720185Y-133592630D01*
X121772989Y-133546875D01*
X121842147Y-133536931D01*
X121905703Y-133565956D01*
X121924819Y-133586785D01*
X121964728Y-133641716D01*
X122597037Y-133009408D01*
X122614075Y-133072993D01*
X122679901Y-133187007D01*
X122772993Y-133280099D01*
X122887007Y-133345925D01*
X122950590Y-133362962D01*
X122318282Y-133995269D01*
X122318282Y-133995270D01*
X122372449Y-134034624D01*
X122561782Y-134131095D01*
X122763870Y-134196757D01*
X122973754Y-134230000D01*
X123186246Y-134230000D01*
X123396127Y-134196757D01*
X123396130Y-134196757D01*
X123598217Y-134131095D01*
X123787554Y-134034622D01*
X123841716Y-133995270D01*
X123841717Y-133995270D01*
X123209408Y-133362962D01*
X123272993Y-133345925D01*
X123387007Y-133280099D01*
X123480099Y-133187007D01*
X123545925Y-133072993D01*
X123562962Y-133009408D01*
X124195270Y-133641717D01*
X124195270Y-133641716D01*
X124234622Y-133587554D01*
X124239514Y-133577954D01*
X124287488Y-133527157D01*
X124355308Y-133510361D01*
X124421444Y-133532897D01*
X124460486Y-133577954D01*
X124465375Y-133587550D01*
X124504728Y-133641716D01*
X125137037Y-133009408D01*
X125154075Y-133072993D01*
X125219901Y-133187007D01*
X125312993Y-133280099D01*
X125427007Y-133345925D01*
X125490590Y-133362962D01*
X124858282Y-133995269D01*
X124858282Y-133995270D01*
X124912449Y-134034624D01*
X125101782Y-134131095D01*
X125303870Y-134196757D01*
X125513754Y-134230000D01*
X125726246Y-134230000D01*
X125936127Y-134196757D01*
X125936130Y-134196757D01*
X126138217Y-134131095D01*
X126327554Y-134034622D01*
X126381716Y-133995270D01*
X126381717Y-133995270D01*
X125749408Y-133362962D01*
X125812993Y-133345925D01*
X125927007Y-133280099D01*
X126020099Y-133187007D01*
X126085925Y-133072993D01*
X126102962Y-133009408D01*
X126735270Y-133641717D01*
X126735270Y-133641716D01*
X126774622Y-133587554D01*
X126819902Y-133498689D01*
X126867877Y-133447893D01*
X126935698Y-133431098D01*
X127001833Y-133453635D01*
X127018067Y-133467302D01*
X131821284Y-138270520D01*
X131821286Y-138270521D01*
X131821290Y-138270524D01*
X131930943Y-138333831D01*
X131958216Y-138349577D01*
X132110943Y-138390501D01*
X132110945Y-138390501D01*
X132276654Y-138390501D01*
X132276670Y-138390500D01*
X132868770Y-138390500D01*
X132935809Y-138410185D01*
X132981564Y-138462989D01*
X132991508Y-138532147D01*
X132962483Y-138595703D01*
X132956451Y-138602181D01*
X132907289Y-138651342D01*
X132815187Y-138800663D01*
X132815185Y-138800668D01*
X132802121Y-138840093D01*
X132760001Y-138967203D01*
X132760001Y-138967204D01*
X132760000Y-138967204D01*
X132749500Y-139069983D01*
X132749500Y-140670001D01*
X132749501Y-140670018D01*
X132760000Y-140772796D01*
X132760001Y-140772799D01*
X132784759Y-140847512D01*
X132815186Y-140939334D01*
X132907288Y-141088656D01*
X133031344Y-141212712D01*
X133180666Y-141304814D01*
X133347203Y-141359999D01*
X133449991Y-141370500D01*
X135050008Y-141370499D01*
X135152797Y-141359999D01*
X135319334Y-141304814D01*
X135468656Y-141212712D01*
X135592712Y-141088656D01*
X135622512Y-141040341D01*
X135674458Y-140993618D01*
X135743420Y-140982395D01*
X135807503Y-141010238D01*
X135808758Y-141011385D01*
X135808786Y-141011353D01*
X135812481Y-141014508D01*
X135812490Y-141014517D01*
X136003567Y-141153343D01*
X136102991Y-141204002D01*
X136214003Y-141260566D01*
X136214005Y-141260566D01*
X136214008Y-141260568D01*
X136334412Y-141299689D01*
X136438631Y-141333553D01*
X136671903Y-141370500D01*
X136671908Y-141370500D01*
X136908097Y-141370500D01*
X137141368Y-141333553D01*
X137365992Y-141260568D01*
X137576433Y-141153343D01*
X137767510Y-141014517D01*
X137934517Y-140847510D01*
X138073343Y-140656433D01*
X138180568Y-140445992D01*
X138253553Y-140221368D01*
X138272524Y-140101591D01*
X138280816Y-140049240D01*
X138290500Y-139988097D01*
X138290500Y-139751902D01*
X138253553Y-139518631D01*
X138211086Y-139387933D01*
X138180568Y-139294008D01*
X138180566Y-139294005D01*
X138180566Y-139294003D01*
X138073342Y-139083566D01*
X138063479Y-139069991D01*
X137934517Y-138892490D01*
X137767510Y-138725483D01*
X137615192Y-138614817D01*
X137572528Y-138559488D01*
X137566549Y-138489874D01*
X137599155Y-138428079D01*
X137659994Y-138393722D01*
X137688079Y-138390500D01*
X141129477Y-138390500D01*
X141196516Y-138410185D01*
X141242271Y-138462989D01*
X141252215Y-138532147D01*
X141223190Y-138595703D01*
X141217158Y-138602181D01*
X141167684Y-138651654D01*
X141075643Y-138800875D01*
X141075641Y-138800880D01*
X141020494Y-138967302D01*
X141020493Y-138967309D01*
X141010000Y-139070013D01*
X141010000Y-139620000D01*
X141961518Y-139620000D01*
X141950889Y-139638409D01*
X141910000Y-139791009D01*
X141910000Y-139948991D01*
X141950889Y-140101591D01*
X141961518Y-140120000D01*
X141010001Y-140120000D01*
X141010001Y-140669986D01*
X141020494Y-140772697D01*
X141075641Y-140939119D01*
X141075643Y-140939124D01*
X141167684Y-141088345D01*
X141291654Y-141212315D01*
X141440875Y-141304356D01*
X141440880Y-141304358D01*
X141607302Y-141359505D01*
X141607309Y-141359506D01*
X141710019Y-141369999D01*
X142259999Y-141369999D01*
X142260000Y-141369998D01*
X142260000Y-140418482D01*
X142278409Y-140429111D01*
X142431009Y-140470000D01*
X142588991Y-140470000D01*
X142741591Y-140429111D01*
X142760000Y-140418482D01*
X142760000Y-141369999D01*
X143309972Y-141369999D01*
X143309986Y-141369998D01*
X143412697Y-141359505D01*
X143579119Y-141304358D01*
X143579124Y-141304356D01*
X143728345Y-141212315D01*
X143852317Y-141088343D01*
X143882148Y-141039980D01*
X143934096Y-140993255D01*
X144003058Y-140982032D01*
X144067141Y-141009876D01*
X144068773Y-141011367D01*
X144068786Y-141011353D01*
X144072481Y-141014508D01*
X144072490Y-141014517D01*
X144263567Y-141153343D01*
X144362991Y-141204002D01*
X144474003Y-141260566D01*
X144474005Y-141260566D01*
X144474008Y-141260568D01*
X144594412Y-141299689D01*
X144698631Y-141333553D01*
X144931903Y-141370500D01*
X144931908Y-141370500D01*
X145168097Y-141370500D01*
X145401368Y-141333553D01*
X145625992Y-141260568D01*
X145836433Y-141153343D01*
X146027510Y-141014517D01*
X146194517Y-140847510D01*
X146219682Y-140812872D01*
X146275011Y-140770207D01*
X146344625Y-140764228D01*
X146406420Y-140796833D01*
X146420315Y-140812870D01*
X146445483Y-140847510D01*
X146612490Y-141014517D01*
X146803567Y-141153343D01*
X146902991Y-141204002D01*
X147014003Y-141260566D01*
X147014005Y-141260566D01*
X147014008Y-141260568D01*
X147134412Y-141299689D01*
X147238631Y-141333553D01*
X147471903Y-141370500D01*
X147471908Y-141370500D01*
X147708097Y-141370500D01*
X147941368Y-141333553D01*
X148165992Y-141260568D01*
X148376433Y-141153343D01*
X148567510Y-141014517D01*
X148734517Y-140847510D01*
X148759682Y-140812872D01*
X148815011Y-140770207D01*
X148884625Y-140764228D01*
X148946420Y-140796833D01*
X148960315Y-140812870D01*
X148985483Y-140847510D01*
X149152490Y-141014517D01*
X149343567Y-141153343D01*
X149442991Y-141204002D01*
X149554003Y-141260566D01*
X149554005Y-141260566D01*
X149554008Y-141260568D01*
X149674412Y-141299689D01*
X149778631Y-141333553D01*
X150011903Y-141370500D01*
X150011908Y-141370500D01*
X150248097Y-141370500D01*
X150481368Y-141333553D01*
X150705992Y-141260568D01*
X150916433Y-141153343D01*
X151107510Y-141014517D01*
X151274517Y-140847510D01*
X151413343Y-140656433D01*
X151520568Y-140445992D01*
X151593553Y-140221368D01*
X151612524Y-140101591D01*
X151630500Y-139988097D01*
X151630500Y-139751902D01*
X151593553Y-139518631D01*
X151551086Y-139387933D01*
X151520568Y-139294008D01*
X151520566Y-139294005D01*
X151520566Y-139294003D01*
X151413342Y-139083566D01*
X151403479Y-139069991D01*
X151274517Y-138892490D01*
X151107510Y-138725483D01*
X150916433Y-138586657D01*
X150863111Y-138559488D01*
X150705996Y-138479433D01*
X150481368Y-138406446D01*
X150248097Y-138369500D01*
X150248092Y-138369500D01*
X150011908Y-138369500D01*
X150011903Y-138369500D01*
X149778630Y-138406447D01*
X149778627Y-138406447D01*
X149549375Y-138480937D01*
X149548863Y-138479361D01*
X149486558Y-138486040D01*
X149424089Y-138454745D01*
X149420933Y-138451698D01*
X147597590Y-136628355D01*
X147597588Y-136628352D01*
X147478717Y-136509481D01*
X147478716Y-136509480D01*
X147391904Y-136459360D01*
X147391904Y-136459359D01*
X147391900Y-136459358D01*
X147341785Y-136430423D01*
X147189057Y-136389499D01*
X147030943Y-136389499D01*
X147023347Y-136389499D01*
X147023331Y-136389500D01*
X132821470Y-136389500D01*
X132754431Y-136369815D01*
X132733789Y-136353181D01*
X128786819Y-132406211D01*
X128753334Y-132344888D01*
X128750500Y-132318530D01*
X128750500Y-130838543D01*
X130999499Y-130838543D01*
X131037947Y-131031829D01*
X131037950Y-131031839D01*
X131113364Y-131213907D01*
X131113371Y-131213920D01*
X131222860Y-131377781D01*
X131222863Y-131377785D01*
X131342932Y-131497854D01*
X131376417Y-131559177D01*
X131371433Y-131628869D01*
X131358364Y-131654410D01*
X131357072Y-131656344D01*
X131357071Y-131656344D01*
X131302381Y-131788379D01*
X131302379Y-131788385D01*
X131274500Y-131928542D01*
X131274500Y-131928545D01*
X131274500Y-132071455D01*
X131274500Y-132071457D01*
X131274499Y-132071457D01*
X131302379Y-132211614D01*
X131302381Y-132211620D01*
X131357069Y-132343650D01*
X131357074Y-132343659D01*
X131366364Y-132357562D01*
X131387242Y-132424240D01*
X131368757Y-132491620D01*
X131350944Y-132514134D01*
X131222860Y-132642218D01*
X131113371Y-132806079D01*
X131113364Y-132806092D01*
X131037950Y-132988160D01*
X131037947Y-132988170D01*
X130999500Y-133181456D01*
X130999500Y-133181459D01*
X130999500Y-133378541D01*
X130999500Y-133378543D01*
X130999499Y-133378543D01*
X131037947Y-133571829D01*
X131037950Y-133571839D01*
X131113364Y-133753907D01*
X131113371Y-133753920D01*
X131222860Y-133917781D01*
X131222863Y-133917785D01*
X131362214Y-134057136D01*
X131362218Y-134057139D01*
X131526079Y-134166628D01*
X131526092Y-134166635D01*
X131679071Y-134230000D01*
X131708165Y-134242051D01*
X131708169Y-134242051D01*
X131708170Y-134242052D01*
X131901456Y-134280500D01*
X131901459Y-134280500D01*
X132098543Y-134280500D01*
X132250943Y-134250185D01*
X132291835Y-134242051D01*
X132473914Y-134166632D01*
X132637782Y-134057139D01*
X132777139Y-133917782D01*
X132886632Y-133753914D01*
X132962051Y-133571835D01*
X132986705Y-133447893D01*
X133000500Y-133378543D01*
X133000500Y-133181456D01*
X132962052Y-132988170D01*
X132962051Y-132988169D01*
X132962051Y-132988165D01*
X132917248Y-132879999D01*
X132886635Y-132806092D01*
X132886628Y-132806079D01*
X132777139Y-132642218D01*
X132777136Y-132642214D01*
X132649055Y-132514133D01*
X132615570Y-132452810D01*
X132620554Y-132383118D01*
X132633632Y-132357566D01*
X132642929Y-132343653D01*
X132697619Y-132211620D01*
X132714170Y-132128414D01*
X132725500Y-132071457D01*
X132725500Y-131928542D01*
X132697620Y-131788385D01*
X132697619Y-131788384D01*
X132697619Y-131788380D01*
X132642929Y-131656347D01*
X132641648Y-131654430D01*
X132641286Y-131653274D01*
X132640060Y-131650980D01*
X132640495Y-131650747D01*
X132620767Y-131587759D01*
X132639247Y-131520377D01*
X132657062Y-131497858D01*
X132777139Y-131377782D01*
X132886632Y-131213914D01*
X132962051Y-131031835D01*
X132994057Y-130870934D01*
X133000500Y-130838543D01*
X133000500Y-130641456D01*
X132962052Y-130448170D01*
X132962051Y-130448169D01*
X132962051Y-130448165D01*
X132916769Y-130338844D01*
X132886635Y-130266092D01*
X132886628Y-130266079D01*
X132777139Y-130102218D01*
X132777136Y-130102214D01*
X132637785Y-129962863D01*
X132637781Y-129962860D01*
X132473920Y-129853371D01*
X132473907Y-129853364D01*
X132291839Y-129777950D01*
X132291829Y-129777947D01*
X132098543Y-129739500D01*
X132098541Y-129739500D01*
X131901459Y-129739500D01*
X131901457Y-129739500D01*
X131708170Y-129777947D01*
X131708160Y-129777950D01*
X131526092Y-129853364D01*
X131526079Y-129853371D01*
X131362218Y-129962860D01*
X131362214Y-129962863D01*
X131222863Y-130102214D01*
X131222860Y-130102218D01*
X131113371Y-130266079D01*
X131113364Y-130266092D01*
X131037950Y-130448160D01*
X131037947Y-130448170D01*
X130999500Y-130641456D01*
X130999500Y-130641459D01*
X130999500Y-130838541D01*
X130999500Y-130838543D01*
X130999499Y-130838543D01*
X128750500Y-130838543D01*
X128750500Y-128298543D01*
X130999499Y-128298543D01*
X131037947Y-128491829D01*
X131037950Y-128491839D01*
X131113364Y-128673907D01*
X131113371Y-128673920D01*
X131222860Y-128837781D01*
X131222863Y-128837785D01*
X131362214Y-128977136D01*
X131362218Y-128977139D01*
X131526079Y-129086628D01*
X131526092Y-129086635D01*
X131708160Y-129162049D01*
X131708165Y-129162051D01*
X131708169Y-129162051D01*
X131708170Y-129162052D01*
X131901456Y-129200500D01*
X131901459Y-129200500D01*
X132098543Y-129200500D01*
X132228582Y-129174632D01*
X132291835Y-129162051D01*
X132441947Y-129099873D01*
X132473907Y-129086635D01*
X132473907Y-129086634D01*
X132473914Y-129086632D01*
X132637782Y-128977139D01*
X132777139Y-128837782D01*
X132886632Y-128673914D01*
X132962051Y-128491835D01*
X132988237Y-128360193D01*
X133000500Y-128298543D01*
X133000500Y-128101456D01*
X132962052Y-127908170D01*
X132962051Y-127908169D01*
X132962051Y-127908165D01*
X132948549Y-127875567D01*
X132927325Y-127824327D01*
X132909685Y-127781741D01*
X139627566Y-127781741D01*
X139627566Y-127978586D01*
X139658356Y-128172990D01*
X139719183Y-128360193D01*
X139794401Y-128507816D01*
X139808542Y-128535569D01*
X139924238Y-128694810D01*
X140063420Y-128833992D01*
X140222661Y-128949688D01*
X140256285Y-128966820D01*
X140398036Y-129039046D01*
X140398038Y-129039046D01*
X140398041Y-129039048D01*
X140451011Y-129056259D01*
X140585239Y-129099873D01*
X140779644Y-129130664D01*
X140779649Y-129130664D01*
X140976488Y-129130664D01*
X141170892Y-129099873D01*
X141193362Y-129092572D01*
X141358091Y-129039048D01*
X141533471Y-128949688D01*
X141692712Y-128833992D01*
X141831894Y-128694810D01*
X141947590Y-128535569D01*
X142036950Y-128360189D01*
X142097775Y-128172990D01*
X142106763Y-128116243D01*
X142128566Y-127978586D01*
X142128566Y-127781741D01*
X142097775Y-127587337D01*
X142055315Y-127456660D01*
X142036950Y-127400139D01*
X142036948Y-127400136D01*
X142036948Y-127400134D01*
X141983379Y-127294999D01*
X141947590Y-127224759D01*
X141831894Y-127065518D01*
X141692712Y-126926336D01*
X141560520Y-126830292D01*
X141533469Y-126810638D01*
X141474618Y-126780653D01*
X141423822Y-126732679D01*
X141407026Y-126664858D01*
X141427809Y-126601278D01*
X141509394Y-126479179D01*
X141569737Y-126333497D01*
X141600500Y-126178842D01*
X141600500Y-126021158D01*
X141600500Y-126021155D01*
X141600499Y-126021153D01*
X141598765Y-126012435D01*
X141569737Y-125866503D01*
X141525018Y-125758541D01*
X141509397Y-125720827D01*
X141509390Y-125720814D01*
X141421789Y-125589711D01*
X141421786Y-125589707D01*
X141310292Y-125478213D01*
X141310288Y-125478210D01*
X141179185Y-125390609D01*
X141179172Y-125390602D01*
X141033501Y-125330264D01*
X141033489Y-125330261D01*
X140878845Y-125299500D01*
X140878842Y-125299500D01*
X140721158Y-125299500D01*
X140721155Y-125299500D01*
X140566510Y-125330261D01*
X140566498Y-125330264D01*
X140420827Y-125390602D01*
X140420814Y-125390609D01*
X140289711Y-125478210D01*
X140289707Y-125478213D01*
X140178213Y-125589707D01*
X140178210Y-125589711D01*
X140090609Y-125720814D01*
X140090602Y-125720827D01*
X140030264Y-125866498D01*
X140030261Y-125866510D01*
X139999500Y-126021153D01*
X139999500Y-126178846D01*
X140030261Y-126333489D01*
X140030264Y-126333501D01*
X140090602Y-126479172D01*
X140090609Y-126479185D01*
X140178210Y-126610288D01*
X140178213Y-126610292D01*
X140210295Y-126642374D01*
X140243780Y-126703697D01*
X140238796Y-126773389D01*
X140196924Y-126829322D01*
X140195500Y-126830372D01*
X140063426Y-126926331D01*
X140063417Y-126926338D01*
X139924240Y-127065515D01*
X139924240Y-127065516D01*
X139924238Y-127065518D01*
X139884966Y-127119571D01*
X139808542Y-127224758D01*
X139719183Y-127400134D01*
X139658356Y-127587337D01*
X139627566Y-127781741D01*
X132909685Y-127781741D01*
X132886635Y-127726092D01*
X132886628Y-127726079D01*
X132777139Y-127562218D01*
X132777136Y-127562214D01*
X132637785Y-127422863D01*
X132637781Y-127422860D01*
X132473920Y-127313371D01*
X132473907Y-127313364D01*
X132291839Y-127237950D01*
X132291829Y-127237947D01*
X132098543Y-127199500D01*
X132098541Y-127199500D01*
X131901459Y-127199500D01*
X131901457Y-127199500D01*
X131708170Y-127237947D01*
X131708160Y-127237950D01*
X131526092Y-127313364D01*
X131526079Y-127313371D01*
X131362218Y-127422860D01*
X131362214Y-127422863D01*
X131222863Y-127562214D01*
X131222860Y-127562218D01*
X131113371Y-127726079D01*
X131113364Y-127726092D01*
X131037950Y-127908160D01*
X131037947Y-127908170D01*
X130999500Y-128101456D01*
X130999500Y-128101459D01*
X130999500Y-128298541D01*
X130999500Y-128298543D01*
X130999499Y-128298543D01*
X128750500Y-128298543D01*
X128750500Y-127287688D01*
X128750501Y-127287675D01*
X128750501Y-127119572D01*
X128747508Y-127108403D01*
X128709577Y-126966844D01*
X128695112Y-126941789D01*
X128630524Y-126829918D01*
X128630518Y-126829910D01*
X127696819Y-125896211D01*
X127663334Y-125834888D01*
X127660500Y-125808530D01*
X127660500Y-125758543D01*
X130999499Y-125758543D01*
X131037947Y-125951829D01*
X131037950Y-125951839D01*
X131113364Y-126133907D01*
X131113371Y-126133920D01*
X131222860Y-126297781D01*
X131222863Y-126297785D01*
X131362214Y-126437136D01*
X131362218Y-126437139D01*
X131526079Y-126546628D01*
X131526092Y-126546635D01*
X131679776Y-126610292D01*
X131708165Y-126622051D01*
X131708169Y-126622051D01*
X131708170Y-126622052D01*
X131901456Y-126660500D01*
X131901459Y-126660500D01*
X132098543Y-126660500D01*
X132231477Y-126634057D01*
X132291835Y-126622051D01*
X132473914Y-126546632D01*
X132637782Y-126437139D01*
X132777139Y-126297782D01*
X132886632Y-126133914D01*
X132962051Y-125951835D01*
X132980340Y-125859892D01*
X133000500Y-125758543D01*
X133000500Y-125561456D01*
X132962052Y-125368170D01*
X132962051Y-125368169D01*
X132962051Y-125368165D01*
X132933609Y-125299500D01*
X132886635Y-125186092D01*
X132886628Y-125186079D01*
X132777139Y-125022218D01*
X132777136Y-125022214D01*
X132637785Y-124882863D01*
X132637781Y-124882860D01*
X132473920Y-124773371D01*
X132473907Y-124773364D01*
X132291839Y-124697950D01*
X132291829Y-124697947D01*
X132098543Y-124659500D01*
X132098541Y-124659500D01*
X131901459Y-124659500D01*
X131901457Y-124659500D01*
X131708170Y-124697947D01*
X131708160Y-124697950D01*
X131526092Y-124773364D01*
X131526079Y-124773371D01*
X131362218Y-124882860D01*
X131362214Y-124882863D01*
X131222863Y-125022214D01*
X131222860Y-125022218D01*
X131113371Y-125186079D01*
X131113364Y-125186092D01*
X131037950Y-125368160D01*
X131037947Y-125368170D01*
X130999500Y-125561456D01*
X130999500Y-125561459D01*
X130999500Y-125758541D01*
X130999500Y-125758543D01*
X130999499Y-125758543D01*
X127660500Y-125758543D01*
X127660500Y-124749059D01*
X127660501Y-124749046D01*
X127660501Y-124580945D01*
X127660501Y-124580943D01*
X127619577Y-124428215D01*
X127569676Y-124341784D01*
X127540520Y-124291284D01*
X127428716Y-124179480D01*
X127428715Y-124179479D01*
X127424385Y-124175149D01*
X127424374Y-124175139D01*
X126887590Y-123638355D01*
X126880521Y-123631286D01*
X126880520Y-123631284D01*
X126805673Y-123556437D01*
X126775142Y-123500521D01*
X126772191Y-123495117D01*
X126777175Y-123425425D01*
X126782864Y-123412481D01*
X126871557Y-123238412D01*
X126937246Y-123036243D01*
X126970500Y-122826287D01*
X126970500Y-122613713D01*
X126937246Y-122403757D01*
X126871557Y-122201588D01*
X126775051Y-122012184D01*
X126775049Y-122012181D01*
X126775048Y-122012179D01*
X126650109Y-121840213D01*
X126499786Y-121689890D01*
X126327820Y-121564951D01*
X126327115Y-121564591D01*
X126319054Y-121560485D01*
X126268259Y-121512512D01*
X126251463Y-121444692D01*
X126273999Y-121378556D01*
X126319054Y-121339515D01*
X126327816Y-121335051D01*
X126349789Y-121319086D01*
X126499786Y-121210109D01*
X126499788Y-121210106D01*
X126499792Y-121210104D01*
X126650104Y-121059792D01*
X126650106Y-121059788D01*
X126650109Y-121059786D01*
X126775048Y-120887820D01*
X126775047Y-120887820D01*
X126775051Y-120887816D01*
X126871557Y-120698412D01*
X126937246Y-120496243D01*
X126970500Y-120286287D01*
X126970500Y-120073713D01*
X126937246Y-119863757D01*
X126871557Y-119661588D01*
X126775051Y-119472184D01*
X126775049Y-119472181D01*
X126775048Y-119472179D01*
X126650109Y-119300213D01*
X126499786Y-119149890D01*
X126327817Y-119024949D01*
X126318504Y-119020204D01*
X126267707Y-118972230D01*
X126250912Y-118904409D01*
X126273449Y-118838274D01*
X126318507Y-118799232D01*
X126327555Y-118794622D01*
X126381716Y-118755270D01*
X126381717Y-118755270D01*
X125749408Y-118122962D01*
X125812993Y-118105925D01*
X125927007Y-118040099D01*
X126020099Y-117947007D01*
X126085925Y-117832993D01*
X126102962Y-117769408D01*
X126735270Y-118401717D01*
X126735270Y-118401716D01*
X126774622Y-118347554D01*
X126871095Y-118158217D01*
X126936757Y-117956130D01*
X126936757Y-117956127D01*
X126970000Y-117746246D01*
X126970000Y-117533753D01*
X126936757Y-117323872D01*
X126936757Y-117323869D01*
X126871095Y-117121782D01*
X126774624Y-116932449D01*
X126735270Y-116878282D01*
X126735269Y-116878282D01*
X126102962Y-117510590D01*
X126085925Y-117447007D01*
X126020099Y-117332993D01*
X125927007Y-117239901D01*
X125812993Y-117174075D01*
X125749409Y-117157037D01*
X126381716Y-116524728D01*
X126327547Y-116485373D01*
X126327547Y-116485372D01*
X126318500Y-116480763D01*
X126267706Y-116432788D01*
X126250912Y-116364966D01*
X126273451Y-116298832D01*
X126318508Y-116259793D01*
X126327816Y-116255051D01*
X126407007Y-116197515D01*
X126499786Y-116130109D01*
X126499788Y-116130106D01*
X126499792Y-116130104D01*
X126650104Y-115979792D01*
X126650106Y-115979788D01*
X126650109Y-115979786D01*
X126775048Y-115807820D01*
X126775047Y-115807820D01*
X126775051Y-115807816D01*
X126871557Y-115618412D01*
X126937246Y-115416243D01*
X126970500Y-115206287D01*
X126970500Y-114993713D01*
X126937246Y-114783757D01*
X126871557Y-114581588D01*
X126775051Y-114392184D01*
X126775049Y-114392181D01*
X126775048Y-114392179D01*
X126650109Y-114220213D01*
X126499786Y-114069890D01*
X126327820Y-113944951D01*
X126327115Y-113944591D01*
X126319054Y-113940485D01*
X126268259Y-113892512D01*
X126251463Y-113824692D01*
X126273999Y-113758556D01*
X126319054Y-113719515D01*
X126327816Y-113715051D01*
X126453825Y-113623501D01*
X126499786Y-113590109D01*
X126499788Y-113590106D01*
X126499792Y-113590104D01*
X126650104Y-113439792D01*
X126650106Y-113439788D01*
X126650109Y-113439786D01*
X126775048Y-113267820D01*
X126775047Y-113267820D01*
X126775051Y-113267816D01*
X126871557Y-113078412D01*
X126937246Y-112876243D01*
X126970500Y-112666287D01*
X126970500Y-112453713D01*
X126937246Y-112243757D01*
X126871557Y-112041588D01*
X126775051Y-111852184D01*
X126775049Y-111852181D01*
X126775048Y-111852179D01*
X126650109Y-111680213D01*
X126499786Y-111529890D01*
X126327820Y-111404951D01*
X126327115Y-111404591D01*
X126319054Y-111400485D01*
X126268259Y-111352512D01*
X126251463Y-111284692D01*
X126273999Y-111218556D01*
X126319054Y-111179515D01*
X126327816Y-111175051D01*
X126371682Y-111143181D01*
X126499786Y-111050109D01*
X126499788Y-111050106D01*
X126499792Y-111050104D01*
X126650104Y-110899792D01*
X126650106Y-110899788D01*
X126650109Y-110899786D01*
X126775048Y-110727820D01*
X126775047Y-110727820D01*
X126775051Y-110727816D01*
X126871557Y-110538412D01*
X126937246Y-110336243D01*
X126970500Y-110126287D01*
X126970500Y-109913713D01*
X126937246Y-109703757D01*
X126921054Y-109653926D01*
X126919060Y-109584086D01*
X126951303Y-109527930D01*
X127378506Y-109100728D01*
X127378511Y-109100724D01*
X127388714Y-109090520D01*
X127388716Y-109090520D01*
X127500520Y-108978716D01*
X127569349Y-108859500D01*
X127579577Y-108841785D01*
X127620500Y-108689057D01*
X127620500Y-108530943D01*
X127620500Y-106751153D01*
X130859500Y-106751153D01*
X130859500Y-106908846D01*
X130890261Y-107063489D01*
X130890264Y-107063501D01*
X130950602Y-107209172D01*
X130950609Y-107209185D01*
X131038210Y-107340288D01*
X131038213Y-107340292D01*
X131149707Y-107451786D01*
X131149711Y-107451789D01*
X131280814Y-107539390D01*
X131280827Y-107539397D01*
X131426498Y-107599735D01*
X131426503Y-107599737D01*
X131581153Y-107630499D01*
X131581156Y-107630500D01*
X131581158Y-107630500D01*
X131738844Y-107630500D01*
X131738845Y-107630499D01*
X131893497Y-107599737D01*
X132006166Y-107553067D01*
X132039172Y-107539397D01*
X132039172Y-107539396D01*
X132039179Y-107539394D01*
X132170289Y-107451789D01*
X132281789Y-107340289D01*
X132369394Y-107209179D01*
X132429737Y-107063497D01*
X132460500Y-106908842D01*
X132460500Y-106751158D01*
X132460500Y-106751155D01*
X132460499Y-106751153D01*
X132439460Y-106645384D01*
X132429737Y-106596503D01*
X132429735Y-106596498D01*
X132369397Y-106450827D01*
X132369390Y-106450814D01*
X132281789Y-106319711D01*
X132281786Y-106319707D01*
X132170292Y-106208213D01*
X132170288Y-106208210D01*
X132039185Y-106120609D01*
X132039172Y-106120602D01*
X131893501Y-106060264D01*
X131893489Y-106060261D01*
X131738845Y-106029500D01*
X131738842Y-106029500D01*
X131581158Y-106029500D01*
X131581155Y-106029500D01*
X131426510Y-106060261D01*
X131426498Y-106060264D01*
X131280827Y-106120602D01*
X131280814Y-106120609D01*
X131149711Y-106208210D01*
X131149707Y-106208213D01*
X131038213Y-106319707D01*
X131038210Y-106319711D01*
X130950609Y-106450814D01*
X130950602Y-106450827D01*
X130890264Y-106596498D01*
X130890261Y-106596510D01*
X130859500Y-106751153D01*
X127620500Y-106751153D01*
X127620500Y-106150943D01*
X127620500Y-102461568D01*
X127640185Y-102394529D01*
X127656819Y-102373887D01*
X129540999Y-100489707D01*
X131492588Y-98538117D01*
X131553909Y-98504634D01*
X131623601Y-98509618D01*
G37*
%TD.AperFunction*%
%TA.AperFunction,Conductor*%
G36*
X151543260Y-123170185D02*
G01*
X151589015Y-123222989D01*
X151598959Y-123292147D01*
X151597838Y-123298691D01*
X151569500Y-123441153D01*
X151569500Y-123598846D01*
X151600261Y-123753489D01*
X151600264Y-123753501D01*
X151660602Y-123899172D01*
X151660609Y-123899185D01*
X151748210Y-124030288D01*
X151748213Y-124030292D01*
X151859707Y-124141786D01*
X151859711Y-124141789D01*
X151990814Y-124229390D01*
X151990827Y-124229397D01*
X152136498Y-124289735D01*
X152136503Y-124289737D01*
X152291153Y-124320499D01*
X152291156Y-124320500D01*
X152291158Y-124320500D01*
X152448844Y-124320500D01*
X152448845Y-124320499D01*
X152603497Y-124289737D01*
X152749179Y-124229394D01*
X152880289Y-124141789D01*
X152991789Y-124030289D01*
X153079394Y-123899179D01*
X153089389Y-123875050D01*
X153139735Y-123753501D01*
X153139737Y-123753497D01*
X153170500Y-123598842D01*
X153170500Y-123441158D01*
X153170500Y-123441155D01*
X153170499Y-123441153D01*
X153142162Y-123298691D01*
X153148389Y-123229100D01*
X153191252Y-123173922D01*
X153257142Y-123150678D01*
X153263779Y-123150500D01*
X165898531Y-123150500D01*
X165965570Y-123170185D01*
X165986212Y-123186819D01*
X169573767Y-126774374D01*
X169573777Y-126774385D01*
X169578107Y-126778715D01*
X169578108Y-126778716D01*
X169689912Y-126890520D01*
X169689914Y-126890521D01*
X169689918Y-126890524D01*
X169778713Y-126941789D01*
X169826844Y-126969577D01*
X169923956Y-126995598D01*
X169979570Y-127010500D01*
X169979571Y-127010500D01*
X170071075Y-127010500D01*
X170077896Y-127011257D01*
X170104053Y-127022196D01*
X170131258Y-127030185D01*
X170135864Y-127035501D01*
X170142356Y-127038216D01*
X170158450Y-127061566D01*
X170177013Y-127082989D01*
X170178014Y-127089950D01*
X170182007Y-127095744D01*
X170182921Y-127124082D01*
X170186957Y-127152147D01*
X170184116Y-127161105D01*
X170184261Y-127165578D01*
X170180935Y-127171138D01*
X170174704Y-127190795D01*
X170128444Y-127281585D01*
X170128443Y-127281587D01*
X170128443Y-127281588D01*
X170124085Y-127295000D01*
X170062753Y-127483760D01*
X170029500Y-127693713D01*
X170029500Y-127906287D01*
X170029798Y-127908170D01*
X170062754Y-128116244D01*
X170062754Y-128116247D01*
X170076491Y-128158523D01*
X170078486Y-128228364D01*
X170046241Y-128284522D01*
X169581286Y-128749478D01*
X169469481Y-128861282D01*
X169469480Y-128861284D01*
X169428235Y-128932723D01*
X169390423Y-128998215D01*
X169349499Y-129150943D01*
X169349499Y-129150945D01*
X169349499Y-129319046D01*
X169349500Y-129319059D01*
X169349500Y-130904217D01*
X169329815Y-130971256D01*
X169313181Y-130991898D01*
X167451898Y-132853181D01*
X167390575Y-132886666D01*
X167364217Y-132889500D01*
X155005783Y-132889500D01*
X154938744Y-132869815D01*
X154918102Y-132853181D01*
X152833276Y-130768355D01*
X152833274Y-130768352D01*
X152714403Y-130649481D01*
X152714395Y-130649475D01*
X152601987Y-130584577D01*
X152601986Y-130584576D01*
X152584754Y-130574628D01*
X152577471Y-130570423D01*
X152424743Y-130529499D01*
X152266629Y-130529499D01*
X152259033Y-130529499D01*
X152259017Y-130529500D01*
X150653670Y-130529500D01*
X150586631Y-130509815D01*
X150540876Y-130457011D01*
X150530932Y-130387853D01*
X150532053Y-130381308D01*
X150540500Y-130338844D01*
X150540500Y-130181155D01*
X150540499Y-130181153D01*
X150533707Y-130147007D01*
X150509737Y-130026503D01*
X150507747Y-130021699D01*
X150449397Y-129880827D01*
X150449390Y-129880814D01*
X150361789Y-129749711D01*
X150361786Y-129749707D01*
X150250292Y-129638213D01*
X150250288Y-129638210D01*
X150160609Y-129578288D01*
X150155518Y-129572196D01*
X150148297Y-129568899D01*
X150133433Y-129545771D01*
X150115804Y-129524676D01*
X150113852Y-129515301D01*
X150110523Y-129510121D01*
X150105500Y-129475186D01*
X150105500Y-129318994D01*
X150125185Y-129251955D01*
X150177989Y-129206200D01*
X150190492Y-129201289D01*
X150248697Y-129182003D01*
X150393044Y-129092968D01*
X150402668Y-129083343D01*
X150463987Y-129049856D01*
X150533679Y-129054835D01*
X150578034Y-129083339D01*
X150587267Y-129092572D01*
X150587271Y-129092575D01*
X150731507Y-129181542D01*
X150731518Y-129181547D01*
X150892393Y-129234855D01*
X150991683Y-129244999D01*
X151515000Y-129244999D01*
X151538308Y-129244999D01*
X151538322Y-129244998D01*
X151637607Y-129234855D01*
X151798481Y-129181547D01*
X151798492Y-129181542D01*
X151942728Y-129092575D01*
X151942732Y-129092572D01*
X152062572Y-128972732D01*
X152062575Y-128972728D01*
X152151542Y-128828492D01*
X152151547Y-128828481D01*
X152204855Y-128667606D01*
X152214999Y-128568322D01*
X152215000Y-128568309D01*
X152215000Y-128520000D01*
X151515000Y-128520000D01*
X151515000Y-129244999D01*
X150991683Y-129244999D01*
X151015000Y-129244998D01*
X151015000Y-128141577D01*
X159269500Y-128141577D01*
X159269500Y-128338422D01*
X159300290Y-128532826D01*
X159361117Y-128720029D01*
X159450476Y-128895405D01*
X159566172Y-129054646D01*
X159705354Y-129193828D01*
X159864595Y-129309524D01*
X159926080Y-129340852D01*
X160039970Y-129398882D01*
X160039972Y-129398882D01*
X160039975Y-129398884D01*
X160137845Y-129430684D01*
X160227173Y-129459709D01*
X160421578Y-129490500D01*
X160421583Y-129490500D01*
X160618422Y-129490500D01*
X160812826Y-129459709D01*
X161000025Y-129398884D01*
X161175405Y-129309524D01*
X161334646Y-129193828D01*
X161473828Y-129054646D01*
X161589524Y-128895405D01*
X161678884Y-128720025D01*
X161739709Y-128532826D01*
X161746544Y-128489671D01*
X161770500Y-128338422D01*
X161770500Y-128141577D01*
X161739709Y-127947173D01*
X161678882Y-127759970D01*
X161597795Y-127600828D01*
X161589524Y-127584595D01*
X161473828Y-127425354D01*
X161334646Y-127286172D01*
X161175405Y-127170476D01*
X161136200Y-127150500D01*
X161000029Y-127081117D01*
X160812826Y-127020290D01*
X160618422Y-126989500D01*
X160618417Y-126989500D01*
X160421583Y-126989500D01*
X160421578Y-126989500D01*
X160227173Y-127020290D01*
X160039970Y-127081117D01*
X159864594Y-127170476D01*
X159789881Y-127224759D01*
X159705354Y-127286172D01*
X159705352Y-127286174D01*
X159705351Y-127286174D01*
X159566174Y-127425351D01*
X159566174Y-127425352D01*
X159566172Y-127425354D01*
X159549646Y-127448100D01*
X159450476Y-127584594D01*
X159361117Y-127759970D01*
X159300290Y-127947173D01*
X159269500Y-128141577D01*
X151015000Y-128141577D01*
X151015000Y-128020000D01*
X151515000Y-128020000D01*
X152214999Y-128020000D01*
X152214999Y-127971692D01*
X152214998Y-127971677D01*
X152204855Y-127872392D01*
X152151547Y-127711518D01*
X152151542Y-127711507D01*
X152062575Y-127567271D01*
X152062572Y-127567267D01*
X151942732Y-127447427D01*
X151942728Y-127447424D01*
X151798492Y-127358457D01*
X151798481Y-127358452D01*
X151637606Y-127305144D01*
X151538322Y-127295000D01*
X151515000Y-127295000D01*
X151515000Y-128020000D01*
X151015000Y-128020000D01*
X151015000Y-127294999D01*
X150991693Y-127295000D01*
X150991674Y-127295001D01*
X150892392Y-127305144D01*
X150731518Y-127358452D01*
X150731507Y-127358457D01*
X150587271Y-127447424D01*
X150587265Y-127447428D01*
X150578031Y-127456663D01*
X150516707Y-127490146D01*
X150447015Y-127485159D01*
X150402672Y-127456660D01*
X150393044Y-127447032D01*
X150393040Y-127447029D01*
X150248700Y-127357998D01*
X150248697Y-127357997D01*
X150190496Y-127338711D01*
X150170463Y-127324840D01*
X150148297Y-127314718D01*
X150142248Y-127305305D01*
X150133051Y-127298938D01*
X150123697Y-127276439D01*
X150110523Y-127255940D01*
X150108064Y-127238838D01*
X150106228Y-127234422D01*
X150105500Y-127221005D01*
X150105500Y-127104813D01*
X150125185Y-127037774D01*
X150160608Y-127001711D01*
X150250289Y-126941789D01*
X150361789Y-126830289D01*
X150449394Y-126699179D01*
X150509737Y-126553497D01*
X150540500Y-126398842D01*
X150540500Y-126241158D01*
X150540500Y-126241155D01*
X150540499Y-126241153D01*
X150519169Y-126133920D01*
X150509737Y-126086503D01*
X150490691Y-126040521D01*
X150449397Y-125940827D01*
X150449390Y-125940814D01*
X150361789Y-125809711D01*
X150361786Y-125809707D01*
X150250292Y-125698213D01*
X150250288Y-125698210D01*
X150119185Y-125610609D01*
X150119172Y-125610602D01*
X149973501Y-125550264D01*
X149973489Y-125550261D01*
X149818845Y-125519500D01*
X149818842Y-125519500D01*
X149661158Y-125519500D01*
X149661155Y-125519500D01*
X149506510Y-125550261D01*
X149506498Y-125550264D01*
X149360827Y-125610602D01*
X149360814Y-125610609D01*
X149229711Y-125698210D01*
X149229707Y-125698213D01*
X149118213Y-125809707D01*
X149118210Y-125809711D01*
X149030609Y-125940814D01*
X149030602Y-125940827D01*
X148970264Y-126086498D01*
X148970261Y-126086510D01*
X148939500Y-126241153D01*
X148939500Y-126328993D01*
X148935275Y-126361086D01*
X148904499Y-126475943D01*
X148904499Y-126644046D01*
X148904500Y-126644059D01*
X148904500Y-127552107D01*
X148886038Y-127617204D01*
X148828001Y-127711294D01*
X148827996Y-127711305D01*
X148774651Y-127872290D01*
X148764500Y-127971647D01*
X148764500Y-128568337D01*
X148764501Y-128568355D01*
X148774650Y-128667707D01*
X148774651Y-128667710D01*
X148827998Y-128828700D01*
X148886038Y-128922795D01*
X148904500Y-128987893D01*
X148904500Y-129938330D01*
X148904499Y-129938348D01*
X148904499Y-129945943D01*
X148904499Y-130104057D01*
X148916008Y-130147007D01*
X148935275Y-130218912D01*
X148939196Y-130242335D01*
X148939500Y-130246671D01*
X148939500Y-130338842D01*
X148949477Y-130389000D01*
X148950026Y-130396829D01*
X148944162Y-130423600D01*
X148941720Y-130450899D01*
X148936795Y-130457238D01*
X148935078Y-130465081D01*
X148915670Y-130484433D01*
X148898858Y-130506077D01*
X148891287Y-130508747D01*
X148885603Y-130514416D01*
X148858814Y-130520203D01*
X148832968Y-130529322D01*
X148826330Y-130529500D01*
X146790943Y-130529500D01*
X146638213Y-130570423D01*
X146613700Y-130584577D01*
X146613699Y-130584577D01*
X146501287Y-130649477D01*
X146501282Y-130649481D01*
X146201492Y-130949272D01*
X146140169Y-130982757D01*
X146113811Y-130985591D01*
X145969989Y-130985591D01*
X145825001Y-131014431D01*
X145824991Y-131014434D01*
X145688420Y-131071003D01*
X145688404Y-131071012D01*
X145630251Y-131109868D01*
X145563574Y-131130745D01*
X145496194Y-131112260D01*
X145473681Y-131094446D01*
X144400934Y-130021699D01*
X144367449Y-129960376D01*
X144367025Y-129958346D01*
X144351658Y-129881087D01*
X144340178Y-129853371D01*
X144295087Y-129744511D01*
X144295080Y-129744498D01*
X144233044Y-129651655D01*
X144223556Y-129621355D01*
X144212462Y-129591610D01*
X144213191Y-129588254D01*
X144212166Y-129584978D01*
X144220565Y-129554357D01*
X144227314Y-129523337D01*
X144230094Y-129519623D01*
X144230650Y-129517597D01*
X144248465Y-129495083D01*
X144261374Y-129482174D01*
X144279986Y-129467893D01*
X144279924Y-129467811D01*
X144286369Y-129462864D01*
X144286375Y-129462861D01*
X144398179Y-129351057D01*
X144398179Y-129351055D01*
X144408383Y-129340852D01*
X144408387Y-129340847D01*
X145137549Y-128611685D01*
X145137554Y-128611681D01*
X145147757Y-128601477D01*
X145147759Y-128601477D01*
X145259563Y-128489673D01*
X145311687Y-128399390D01*
X145338620Y-128352742D01*
X145379544Y-128200014D01*
X145379544Y-128041900D01*
X145379544Y-128034305D01*
X145379543Y-128034287D01*
X145379543Y-127282065D01*
X145399228Y-127215026D01*
X145415857Y-127194389D01*
X148085959Y-124524286D01*
X148147280Y-124490803D01*
X148216972Y-124495787D01*
X148272905Y-124537659D01*
X148295255Y-124587777D01*
X148320261Y-124713491D01*
X148320264Y-124713501D01*
X148380602Y-124859172D01*
X148380609Y-124859185D01*
X148468210Y-124990288D01*
X148468213Y-124990292D01*
X148579707Y-125101786D01*
X148579711Y-125101789D01*
X148710814Y-125189390D01*
X148710827Y-125189397D01*
X148856498Y-125249735D01*
X148856503Y-125249737D01*
X149011153Y-125280499D01*
X149011156Y-125280500D01*
X149011158Y-125280500D01*
X149168844Y-125280500D01*
X149168845Y-125280499D01*
X149323497Y-125249737D01*
X149469179Y-125189394D01*
X149600289Y-125101789D01*
X149711789Y-124990289D01*
X149799394Y-124859179D01*
X149859737Y-124713497D01*
X149883850Y-124592272D01*
X149890638Y-124558150D01*
X149923023Y-124496239D01*
X149924518Y-124494716D01*
X151232416Y-123186819D01*
X151259343Y-123172115D01*
X151285162Y-123155523D01*
X151291362Y-123154631D01*
X151293739Y-123153334D01*
X151320097Y-123150500D01*
X151476221Y-123150500D01*
X151543260Y-123170185D01*
G37*
%TD.AperFunction*%
%TA.AperFunction,Conductor*%
G36*
X122614075Y-130532993D02*
G01*
X122679901Y-130647007D01*
X122772993Y-130740099D01*
X122887007Y-130805925D01*
X122950591Y-130822962D01*
X122349971Y-131423581D01*
X122428711Y-131540895D01*
X122429920Y-131544729D01*
X122432844Y-131547491D01*
X122440343Y-131577778D01*
X122449727Y-131607529D01*
X122448671Y-131611408D01*
X122449638Y-131615312D01*
X122439573Y-131644844D01*
X122431383Y-131674947D01*
X122428397Y-131677640D01*
X122427100Y-131681447D01*
X122382051Y-131720483D01*
X122372440Y-131725380D01*
X122318282Y-131764727D01*
X122318282Y-131764728D01*
X122950591Y-132397037D01*
X122887007Y-132414075D01*
X122772993Y-132479901D01*
X122679901Y-132572993D01*
X122614075Y-132687007D01*
X122597037Y-132750591D01*
X121964728Y-132118282D01*
X121964727Y-132118282D01*
X121924819Y-132173213D01*
X121869489Y-132215879D01*
X121799876Y-132221858D01*
X121738080Y-132189253D01*
X121703723Y-132128414D01*
X121700500Y-132100328D01*
X121700500Y-131119669D01*
X121720185Y-131052630D01*
X121772989Y-131006875D01*
X121842147Y-130996931D01*
X121905703Y-131025956D01*
X121924819Y-131046785D01*
X121964728Y-131101716D01*
X122597037Y-130469408D01*
X122614075Y-130532993D01*
G37*
%TD.AperFunction*%
%TA.AperFunction,Conductor*%
G36*
X125154075Y-130532993D02*
G01*
X125219901Y-130647007D01*
X125312993Y-130740099D01*
X125427007Y-130805925D01*
X125490590Y-130822962D01*
X124858282Y-131455269D01*
X124858282Y-131455270D01*
X124912452Y-131494626D01*
X124922048Y-131499516D01*
X124972844Y-131547491D01*
X124989638Y-131615312D01*
X124967100Y-131681447D01*
X124922051Y-131720483D01*
X124912440Y-131725380D01*
X124858282Y-131764727D01*
X124858282Y-131764728D01*
X125490591Y-132397037D01*
X125427007Y-132414075D01*
X125312993Y-132479901D01*
X125219901Y-132572993D01*
X125154075Y-132687007D01*
X125137037Y-132750591D01*
X124504728Y-132118282D01*
X124504727Y-132118282D01*
X124465380Y-132172440D01*
X124460483Y-132182051D01*
X124412506Y-132232845D01*
X124344684Y-132249638D01*
X124278550Y-132227098D01*
X124239516Y-132182048D01*
X124234626Y-132172452D01*
X124195270Y-132118282D01*
X124195269Y-132118282D01*
X123562962Y-132750590D01*
X123545925Y-132687007D01*
X123480099Y-132572993D01*
X123387007Y-132479901D01*
X123272993Y-132414075D01*
X123209409Y-132397037D01*
X123841716Y-131764728D01*
X123787550Y-131725375D01*
X123777954Y-131720486D01*
X123727157Y-131672512D01*
X123710361Y-131604692D01*
X123731288Y-131540895D01*
X123810027Y-131423581D01*
X123209408Y-130822962D01*
X123272993Y-130805925D01*
X123387007Y-130740099D01*
X123480099Y-130647007D01*
X123545925Y-130532993D01*
X123562962Y-130469408D01*
X124195270Y-131101717D01*
X124195270Y-131101716D01*
X124234622Y-131047554D01*
X124239514Y-131037954D01*
X124287488Y-130987157D01*
X124355308Y-130970361D01*
X124421444Y-130992897D01*
X124460486Y-131037954D01*
X124465375Y-131047550D01*
X124504728Y-131101716D01*
X125137037Y-130469408D01*
X125154075Y-130532993D01*
G37*
%TD.AperFunction*%
%TA.AperFunction,Conductor*%
G36*
X126713181Y-131079627D02*
G01*
X126746666Y-131140950D01*
X126749500Y-131167308D01*
X126749500Y-132052691D01*
X126729815Y-132119730D01*
X126713181Y-132140372D01*
X126102962Y-132750590D01*
X126085925Y-132687007D01*
X126020099Y-132572993D01*
X125927007Y-132479901D01*
X125812993Y-132414075D01*
X125749409Y-132397037D01*
X126381716Y-131764728D01*
X126327550Y-131725375D01*
X126317954Y-131720486D01*
X126267157Y-131672512D01*
X126250361Y-131604692D01*
X126272897Y-131538556D01*
X126317954Y-131499514D01*
X126327554Y-131494622D01*
X126381716Y-131455270D01*
X126381717Y-131455270D01*
X125749408Y-130822962D01*
X125812993Y-130805925D01*
X125927007Y-130740099D01*
X126020099Y-130647007D01*
X126085925Y-130532993D01*
X126102962Y-130469408D01*
X126713181Y-131079627D01*
G37*
%TD.AperFunction*%
%TA.AperFunction,Conductor*%
G36*
X147461802Y-131750185D02*
G01*
X147507557Y-131802989D01*
X147516380Y-131830308D01*
X147538340Y-131940709D01*
X147538343Y-131940719D01*
X147594912Y-132077290D01*
X147594918Y-132077301D01*
X147607820Y-132096610D01*
X147628697Y-132163287D01*
X147610212Y-132230667D01*
X147558233Y-132277357D01*
X147504717Y-132289500D01*
X146859096Y-132289500D01*
X146792057Y-132269815D01*
X146746302Y-132217011D01*
X146736358Y-132147853D01*
X146765383Y-132084297D01*
X146771415Y-132077819D01*
X147082416Y-131766819D01*
X147109343Y-131752115D01*
X147135162Y-131735523D01*
X147141362Y-131734631D01*
X147143739Y-131733334D01*
X147170097Y-131730500D01*
X147394763Y-131730500D01*
X147461802Y-131750185D01*
G37*
%TD.AperFunction*%
%TA.AperFunction,Conductor*%
G36*
X121905703Y-128486808D02*
G01*
X121924819Y-128507636D01*
X121924947Y-128507812D01*
X121924949Y-128507816D01*
X121992998Y-128601478D01*
X122049896Y-128679792D01*
X122200213Y-128830109D01*
X122372179Y-128955048D01*
X122372181Y-128955049D01*
X122372184Y-128955051D01*
X122381493Y-128959794D01*
X122432290Y-129007766D01*
X122449087Y-129075587D01*
X122426552Y-129141722D01*
X122381505Y-129180760D01*
X122372446Y-129185376D01*
X122372440Y-129185380D01*
X122318282Y-129224727D01*
X122318282Y-129224728D01*
X122950591Y-129857037D01*
X122887007Y-129874075D01*
X122772993Y-129939901D01*
X122679901Y-130032993D01*
X122614075Y-130147007D01*
X122597037Y-130210591D01*
X121964728Y-129578282D01*
X121964727Y-129578282D01*
X121924819Y-129633213D01*
X121869489Y-129675879D01*
X121799876Y-129681858D01*
X121738080Y-129649253D01*
X121703723Y-129588414D01*
X121700500Y-129560328D01*
X121700500Y-128580521D01*
X121720185Y-128513482D01*
X121772989Y-128467727D01*
X121842147Y-128457783D01*
X121905703Y-128486808D01*
G37*
%TD.AperFunction*%
%TA.AperFunction,Conductor*%
G36*
X124421444Y-128453999D02*
G01*
X124460486Y-128499056D01*
X124464951Y-128507820D01*
X124589890Y-128679786D01*
X124740213Y-128830109D01*
X124912179Y-128955048D01*
X124912181Y-128955049D01*
X124912184Y-128955051D01*
X124921493Y-128959794D01*
X124972290Y-129007766D01*
X124989087Y-129075587D01*
X124966552Y-129141722D01*
X124921505Y-129180760D01*
X124912446Y-129185376D01*
X124912440Y-129185380D01*
X124858282Y-129224727D01*
X124858282Y-129224728D01*
X125490591Y-129857037D01*
X125427007Y-129874075D01*
X125312993Y-129939901D01*
X125219901Y-130032993D01*
X125154075Y-130147007D01*
X125137037Y-130210591D01*
X124504728Y-129578282D01*
X124504727Y-129578282D01*
X124465380Y-129632440D01*
X124460483Y-129642051D01*
X124412506Y-129692845D01*
X124344684Y-129709638D01*
X124278550Y-129687098D01*
X124239516Y-129642048D01*
X124234626Y-129632452D01*
X124195270Y-129578282D01*
X124195269Y-129578282D01*
X123562962Y-130210590D01*
X123545925Y-130147007D01*
X123480099Y-130032993D01*
X123387007Y-129939901D01*
X123272993Y-129874075D01*
X123209409Y-129857037D01*
X123841716Y-129224728D01*
X123787547Y-129185373D01*
X123787547Y-129185372D01*
X123778500Y-129180763D01*
X123727706Y-129132788D01*
X123710912Y-129064966D01*
X123733451Y-128998832D01*
X123778508Y-128959793D01*
X123787816Y-128955051D01*
X123891449Y-128879758D01*
X123959786Y-128830109D01*
X123959788Y-128830106D01*
X123959792Y-128830104D01*
X124110104Y-128679792D01*
X124110106Y-128679788D01*
X124110109Y-128679786D01*
X124235048Y-128507820D01*
X124235047Y-128507820D01*
X124235051Y-128507816D01*
X124239514Y-128499054D01*
X124287488Y-128448259D01*
X124355308Y-128431463D01*
X124421444Y-128453999D01*
G37*
%TD.AperFunction*%
%TA.AperFunction,Conductor*%
G36*
X126668834Y-128763576D02*
G01*
X126724767Y-128805448D01*
X126749184Y-128870912D01*
X126749500Y-128879758D01*
X126749500Y-129512691D01*
X126729815Y-129579730D01*
X126713181Y-129600372D01*
X126102962Y-130210590D01*
X126085925Y-130147007D01*
X126020099Y-130032993D01*
X125927007Y-129939901D01*
X125812993Y-129874075D01*
X125749409Y-129857037D01*
X126381716Y-129224728D01*
X126327547Y-129185373D01*
X126327547Y-129185372D01*
X126318500Y-129180763D01*
X126267706Y-129132788D01*
X126250912Y-129064966D01*
X126273451Y-128998832D01*
X126318508Y-128959793D01*
X126327816Y-128955051D01*
X126431449Y-128879758D01*
X126499786Y-128830109D01*
X126499788Y-128830106D01*
X126499792Y-128830104D01*
X126537819Y-128792077D01*
X126599142Y-128758592D01*
X126668834Y-128763576D01*
G37*
%TD.AperFunction*%
%TA.AperFunction,Conductor*%
G36*
X125154075Y-117832993D02*
G01*
X125219901Y-117947007D01*
X125312993Y-118040099D01*
X125427007Y-118105925D01*
X125490590Y-118122962D01*
X124858282Y-118755269D01*
X124858282Y-118755270D01*
X124912452Y-118794626D01*
X124912451Y-118794626D01*
X124921495Y-118799234D01*
X124972292Y-118847208D01*
X124989087Y-118915029D01*
X124966550Y-118981164D01*
X124921499Y-119020202D01*
X124912182Y-119024949D01*
X124740213Y-119149890D01*
X124589890Y-119300213D01*
X124464949Y-119472182D01*
X124460484Y-119480946D01*
X124412509Y-119531742D01*
X124344688Y-119548536D01*
X124278553Y-119525998D01*
X124239516Y-119480946D01*
X124235050Y-119472182D01*
X124110109Y-119300213D01*
X123959786Y-119149890D01*
X123787820Y-119024951D01*
X123787115Y-119024591D01*
X123779054Y-119020485D01*
X123728259Y-118972512D01*
X123711463Y-118904692D01*
X123733999Y-118838556D01*
X123779054Y-118799515D01*
X123787816Y-118795051D01*
X123842572Y-118755269D01*
X123959786Y-118670109D01*
X123959788Y-118670106D01*
X123959792Y-118670104D01*
X124110104Y-118519792D01*
X124110106Y-118519788D01*
X124110109Y-118519786D01*
X124195890Y-118401717D01*
X124235051Y-118347816D01*
X124239793Y-118338508D01*
X124287763Y-118287711D01*
X124355583Y-118270911D01*
X124421719Y-118293445D01*
X124460763Y-118338500D01*
X124465373Y-118347547D01*
X124504728Y-118401716D01*
X125137037Y-117769408D01*
X125154075Y-117832993D01*
G37*
%TD.AperFunction*%
%TA.AperFunction,Conductor*%
G36*
X124421444Y-115753999D02*
G01*
X124460486Y-115799056D01*
X124464951Y-115807820D01*
X124589890Y-115979786D01*
X124740213Y-116130109D01*
X124912179Y-116255048D01*
X124912181Y-116255049D01*
X124912184Y-116255051D01*
X124921493Y-116259794D01*
X124972290Y-116307766D01*
X124989087Y-116375587D01*
X124966552Y-116441722D01*
X124921505Y-116480760D01*
X124912446Y-116485376D01*
X124912440Y-116485380D01*
X124858282Y-116524727D01*
X124858282Y-116524728D01*
X125490591Y-117157037D01*
X125427007Y-117174075D01*
X125312993Y-117239901D01*
X125219901Y-117332993D01*
X125154075Y-117447007D01*
X125137037Y-117510591D01*
X124504728Y-116878282D01*
X124504727Y-116878282D01*
X124465380Y-116932440D01*
X124465376Y-116932446D01*
X124460760Y-116941505D01*
X124412781Y-116992297D01*
X124344959Y-117009087D01*
X124278826Y-116986543D01*
X124239794Y-116941493D01*
X124235051Y-116932184D01*
X124235049Y-116932181D01*
X124235048Y-116932179D01*
X124110109Y-116760213D01*
X123959786Y-116609890D01*
X123787820Y-116484951D01*
X123779600Y-116480763D01*
X123779054Y-116480485D01*
X123728259Y-116432512D01*
X123711463Y-116364692D01*
X123733999Y-116298556D01*
X123779054Y-116259515D01*
X123787816Y-116255051D01*
X123836900Y-116219390D01*
X123959786Y-116130109D01*
X123959788Y-116130106D01*
X123959792Y-116130104D01*
X124110104Y-115979792D01*
X124110106Y-115979788D01*
X124110109Y-115979786D01*
X124235048Y-115807820D01*
X124235047Y-115807820D01*
X124235051Y-115807816D01*
X124239514Y-115799054D01*
X124287488Y-115748259D01*
X124355308Y-115731463D01*
X124421444Y-115753999D01*
G37*
%TD.AperFunction*%
%TA.AperFunction,Conductor*%
G36*
X166182310Y-102660185D02*
G01*
X166202952Y-102676819D01*
X167073181Y-103547048D01*
X167106666Y-103608371D01*
X167109500Y-103634729D01*
X167109500Y-107747960D01*
X167109499Y-107747978D01*
X167109499Y-107755573D01*
X167109499Y-107913688D01*
X167130870Y-107993442D01*
X167150423Y-108066416D01*
X167150426Y-108066421D01*
X167229475Y-108203340D01*
X167229481Y-108203348D01*
X168383181Y-109357048D01*
X168416666Y-109418371D01*
X168419500Y-109444729D01*
X168419500Y-113193425D01*
X168399815Y-113260464D01*
X168347011Y-113306219D01*
X168277853Y-113316163D01*
X168214297Y-113287138D01*
X168176523Y-113228360D01*
X168173883Y-113217617D01*
X168159738Y-113146508D01*
X168159737Y-113146507D01*
X168159737Y-113146503D01*
X168153109Y-113130501D01*
X168099397Y-113000827D01*
X168099390Y-113000814D01*
X168011789Y-112869711D01*
X168011786Y-112869707D01*
X167900292Y-112758213D01*
X167900288Y-112758210D01*
X167769185Y-112670609D01*
X167769172Y-112670602D01*
X167623501Y-112610264D01*
X167623491Y-112610261D01*
X167468151Y-112579362D01*
X167406241Y-112546977D01*
X167404662Y-112545426D01*
X166277590Y-111418355D01*
X166277588Y-111418352D01*
X166158717Y-111299481D01*
X166158709Y-111299475D01*
X166060464Y-111242754D01*
X166021788Y-111220424D01*
X166021787Y-111220423D01*
X165960693Y-111204053D01*
X165869057Y-111179499D01*
X165710943Y-111179499D01*
X165703347Y-111179499D01*
X165703331Y-111179500D01*
X149830098Y-111179500D01*
X149763059Y-111159815D01*
X149742417Y-111143181D01*
X148361916Y-109762680D01*
X148328431Y-109701357D01*
X148333415Y-109631665D01*
X148361916Y-109587318D01*
X150429331Y-107519903D01*
X152417821Y-105531413D01*
X152479142Y-105497930D01*
X152548834Y-105502914D01*
X152604767Y-105544786D01*
X152629184Y-105610250D01*
X152629500Y-105619096D01*
X152629500Y-106368682D01*
X152609815Y-106435721D01*
X152557011Y-106481476D01*
X152552955Y-106483242D01*
X152528847Y-106493228D01*
X152528835Y-106493234D01*
X152397732Y-106580835D01*
X152397728Y-106580838D01*
X152286234Y-106692332D01*
X152286231Y-106692336D01*
X152198630Y-106823439D01*
X152198623Y-106823452D01*
X152138285Y-106969123D01*
X152138282Y-106969133D01*
X152122258Y-107049692D01*
X152089873Y-107111603D01*
X152029157Y-107146177D01*
X152000641Y-107149500D01*
X151901155Y-107149500D01*
X151746510Y-107180261D01*
X151746498Y-107180264D01*
X151600827Y-107240602D01*
X151600814Y-107240609D01*
X151469711Y-107328210D01*
X151469707Y-107328213D01*
X151358213Y-107439707D01*
X151358210Y-107439711D01*
X151270609Y-107570814D01*
X151270602Y-107570827D01*
X151210264Y-107716498D01*
X151210261Y-107716510D01*
X151179500Y-107871153D01*
X151179500Y-108028846D01*
X151210261Y-108183489D01*
X151210264Y-108183501D01*
X151270602Y-108329172D01*
X151270609Y-108329185D01*
X151358210Y-108460288D01*
X151358213Y-108460292D01*
X151469707Y-108571786D01*
X151469711Y-108571789D01*
X151600814Y-108659390D01*
X151600827Y-108659397D01*
X151672434Y-108689057D01*
X151746503Y-108719737D01*
X151896980Y-108749669D01*
X151901153Y-108750499D01*
X151901156Y-108750500D01*
X151901158Y-108750500D01*
X152058844Y-108750500D01*
X152058845Y-108750499D01*
X152213497Y-108719737D01*
X152359179Y-108659394D01*
X152490289Y-108571789D01*
X152601789Y-108460289D01*
X152689394Y-108329179D01*
X152749737Y-108183497D01*
X152764066Y-108111463D01*
X152765763Y-108102933D01*
X152798148Y-108041022D01*
X152858864Y-108006448D01*
X152887380Y-108003125D01*
X152986865Y-108003125D01*
X152986866Y-108003124D01*
X153141518Y-107972362D01*
X153283171Y-107913688D01*
X153287193Y-107912022D01*
X153287193Y-107912021D01*
X153287200Y-107912019D01*
X153418310Y-107824414D01*
X153529810Y-107712914D01*
X153617415Y-107581804D01*
X153677758Y-107436122D01*
X153708521Y-107281467D01*
X153708521Y-107281460D01*
X153709118Y-107275407D01*
X153711314Y-107275623D01*
X153712670Y-107270562D01*
X153712016Y-107256818D01*
X153725133Y-107224052D01*
X153750415Y-107180261D01*
X153772027Y-107142828D01*
X153789577Y-107112431D01*
X153830500Y-106959703D01*
X153830500Y-106801589D01*
X153830500Y-103219765D01*
X153850185Y-103152726D01*
X153851398Y-103150874D01*
X153857469Y-103141789D01*
X153939394Y-103019179D01*
X153999737Y-102873497D01*
X154004505Y-102849524D01*
X154026231Y-102740308D01*
X154058616Y-102678397D01*
X154119332Y-102643823D01*
X154147848Y-102640500D01*
X166115271Y-102640500D01*
X166182310Y-102660185D01*
G37*
%TD.AperFunction*%
%TA.AperFunction,Conductor*%
G36*
X137034267Y-87961332D02*
G01*
X137062932Y-87963897D01*
X137069504Y-87968203D01*
X137074596Y-87969197D01*
X137082347Y-87976620D01*
X137105214Y-87991606D01*
X151522321Y-102408713D01*
X151522323Y-102408716D01*
X151593180Y-102479573D01*
X151596038Y-102484808D01*
X151626663Y-102540893D01*
X151626662Y-102540894D01*
X151626663Y-102540895D01*
X151629497Y-102567252D01*
X151629497Y-102718846D01*
X151660258Y-102873489D01*
X151660261Y-102873501D01*
X151720599Y-103019172D01*
X151720606Y-103019185D01*
X151773975Y-103099056D01*
X151802528Y-103141789D01*
X151808599Y-103150874D01*
X151829477Y-103217551D01*
X151829497Y-103219765D01*
X151829497Y-104369904D01*
X151809812Y-104436943D01*
X151793178Y-104457585D01*
X147512680Y-108738083D01*
X147504734Y-108742421D01*
X147499309Y-108749669D01*
X147474549Y-108758903D01*
X147451357Y-108771568D01*
X147442327Y-108770922D01*
X147433845Y-108774086D01*
X147408024Y-108768469D01*
X147381665Y-108766584D01*
X147372611Y-108760765D01*
X147365572Y-108759234D01*
X147337318Y-108738083D01*
X147227590Y-108628355D01*
X147227588Y-108628352D01*
X147108717Y-108509481D01*
X147108709Y-108509475D01*
X146992856Y-108442588D01*
X146992855Y-108442587D01*
X146978045Y-108434037D01*
X146971785Y-108430423D01*
X146819057Y-108389499D01*
X146660943Y-108389499D01*
X146653347Y-108389499D01*
X146653331Y-108389500D01*
X135820097Y-108389500D01*
X135753058Y-108369815D01*
X135732416Y-108353181D01*
X134986819Y-107607584D01*
X134953334Y-107546261D01*
X134950500Y-107519903D01*
X134950500Y-102441153D01*
X142059500Y-102441153D01*
X142059500Y-102598846D01*
X142090261Y-102753489D01*
X142090264Y-102753501D01*
X142150602Y-102899172D01*
X142150609Y-102899185D01*
X142238210Y-103030288D01*
X142238213Y-103030292D01*
X142349707Y-103141786D01*
X142349711Y-103141789D01*
X142480814Y-103229390D01*
X142480827Y-103229397D01*
X142602479Y-103279786D01*
X142626503Y-103289737D01*
X142781153Y-103320499D01*
X142781156Y-103320500D01*
X142781158Y-103320500D01*
X142938844Y-103320500D01*
X142938845Y-103320499D01*
X143093497Y-103289737D01*
X143239179Y-103229394D01*
X143370289Y-103141789D01*
X143481789Y-103030289D01*
X143569394Y-102899179D01*
X143629737Y-102753497D01*
X143660500Y-102598842D01*
X143660500Y-102441158D01*
X143660500Y-102441155D01*
X143660499Y-102441153D01*
X143653183Y-102404374D01*
X143629737Y-102286503D01*
X143629735Y-102286498D01*
X143569397Y-102140827D01*
X143569390Y-102140814D01*
X143481789Y-102009711D01*
X143481786Y-102009707D01*
X143370292Y-101898213D01*
X143370288Y-101898210D01*
X143239185Y-101810609D01*
X143239172Y-101810602D01*
X143093501Y-101750264D01*
X143093489Y-101750261D01*
X142938845Y-101719500D01*
X142938842Y-101719500D01*
X142781158Y-101719500D01*
X142781155Y-101719500D01*
X142626510Y-101750261D01*
X142626498Y-101750264D01*
X142480827Y-101810602D01*
X142480814Y-101810609D01*
X142349711Y-101898210D01*
X142349707Y-101898213D01*
X142238213Y-102009707D01*
X142238210Y-102009711D01*
X142150609Y-102140814D01*
X142150602Y-102140827D01*
X142090264Y-102286498D01*
X142090261Y-102286510D01*
X142059500Y-102441153D01*
X134950500Y-102441153D01*
X134950500Y-99357411D01*
X134950499Y-99357408D01*
X134939480Y-99316283D01*
X134937936Y-99310520D01*
X134909577Y-99204684D01*
X134869504Y-99135276D01*
X134830520Y-99067753D01*
X134718716Y-98955949D01*
X134718715Y-98955948D01*
X134714385Y-98951618D01*
X134714374Y-98951608D01*
X134274049Y-98511283D01*
X134240564Y-98449960D01*
X134245548Y-98380268D01*
X134284941Y-98327646D01*
X134284331Y-98326903D01*
X134287355Y-98324420D01*
X134287420Y-98324335D01*
X134287711Y-98324128D01*
X134289035Y-98323041D01*
X134289039Y-98323039D01*
X134400539Y-98211539D01*
X134488144Y-98080429D01*
X134548487Y-97934747D01*
X134556183Y-97896057D01*
X134574981Y-97801558D01*
X134607366Y-97739647D01*
X134668082Y-97705073D01*
X134696598Y-97701750D01*
X138021153Y-97701750D01*
X138088192Y-97721435D01*
X138108834Y-97738069D01*
X141075139Y-100704374D01*
X141075149Y-100704385D01*
X141079479Y-100708715D01*
X141079480Y-100708716D01*
X141191284Y-100820520D01*
X141260532Y-100860500D01*
X141328215Y-100899577D01*
X141480943Y-100940500D01*
X141639057Y-100940500D01*
X143269903Y-100940500D01*
X143299343Y-100949144D01*
X143329330Y-100955668D01*
X143334345Y-100959422D01*
X143336942Y-100960185D01*
X143357584Y-100976819D01*
X143395425Y-101014660D01*
X143428910Y-101075983D01*
X143429361Y-101078149D01*
X143460261Y-101233491D01*
X143460264Y-101233501D01*
X143520602Y-101379172D01*
X143520609Y-101379185D01*
X143608210Y-101510288D01*
X143608213Y-101510292D01*
X143719707Y-101621786D01*
X143719711Y-101621789D01*
X143850814Y-101709390D01*
X143850827Y-101709397D01*
X143996498Y-101769735D01*
X143996503Y-101769737D01*
X144151153Y-101800499D01*
X144151156Y-101800500D01*
X144151158Y-101800500D01*
X144308844Y-101800500D01*
X144308845Y-101800499D01*
X144463497Y-101769737D01*
X144581592Y-101720821D01*
X144609172Y-101709397D01*
X144609172Y-101709396D01*
X144609179Y-101709394D01*
X144740289Y-101621789D01*
X144851789Y-101510289D01*
X144939394Y-101379179D01*
X144999737Y-101233497D01*
X145030500Y-101078842D01*
X145030500Y-100921158D01*
X145030500Y-100921155D01*
X145030499Y-100921153D01*
X145010482Y-100820521D01*
X144999737Y-100766503D01*
X144947554Y-100640521D01*
X144939397Y-100620827D01*
X144939390Y-100620814D01*
X144851789Y-100489711D01*
X144851786Y-100489707D01*
X144740292Y-100378213D01*
X144740288Y-100378210D01*
X144609185Y-100290609D01*
X144609172Y-100290602D01*
X144463501Y-100230264D01*
X144463491Y-100230261D01*
X144308149Y-100199361D01*
X144246238Y-100166976D01*
X144244660Y-100165425D01*
X144057590Y-99978355D01*
X144057588Y-99978352D01*
X143938717Y-99859481D01*
X143938709Y-99859475D01*
X143849923Y-99808215D01*
X143849922Y-99808215D01*
X143801785Y-99780423D01*
X143649057Y-99739499D01*
X143490943Y-99739499D01*
X143483347Y-99739499D01*
X143483331Y-99739500D01*
X141860097Y-99739500D01*
X141793058Y-99719815D01*
X141772416Y-99703181D01*
X138808840Y-96739605D01*
X138808838Y-96739602D01*
X138689967Y-96620731D01*
X138689959Y-96620725D01*
X138601050Y-96569394D01*
X138601049Y-96569394D01*
X138553035Y-96541673D01*
X138400307Y-96500749D01*
X138242193Y-96500749D01*
X138234597Y-96500749D01*
X138234581Y-96500750D01*
X133844106Y-96500750D01*
X133777067Y-96481065D01*
X133731312Y-96428261D01*
X133721368Y-96359103D01*
X133741004Y-96307859D01*
X133786890Y-96239185D01*
X133786890Y-96239184D01*
X133786894Y-96239179D01*
X133847237Y-96093497D01*
X133878000Y-95938842D01*
X133878000Y-95781158D01*
X133878000Y-95781155D01*
X133877999Y-95781153D01*
X133863924Y-95710396D01*
X133847237Y-95626503D01*
X133808273Y-95532435D01*
X133786897Y-95480827D01*
X133786890Y-95480814D01*
X133699289Y-95349711D01*
X133699286Y-95349707D01*
X133587792Y-95238213D01*
X133587788Y-95238210D01*
X133456685Y-95150609D01*
X133456672Y-95150602D01*
X133311001Y-95090264D01*
X133310989Y-95090261D01*
X133156345Y-95059500D01*
X133156342Y-95059500D01*
X132998658Y-95059500D01*
X132998655Y-95059500D01*
X132844010Y-95090261D01*
X132843998Y-95090264D01*
X132698327Y-95150602D01*
X132698314Y-95150609D01*
X132567211Y-95238210D01*
X132567207Y-95238213D01*
X132455713Y-95349707D01*
X132455710Y-95349711D01*
X132368109Y-95480814D01*
X132368102Y-95480827D01*
X132307764Y-95626498D01*
X132307761Y-95626510D01*
X132277000Y-95781153D01*
X132277000Y-95938846D01*
X132307761Y-96093489D01*
X132307764Y-96093501D01*
X132368102Y-96239172D01*
X132368109Y-96239185D01*
X132413996Y-96307859D01*
X132434874Y-96374537D01*
X132416390Y-96441917D01*
X132364411Y-96488607D01*
X132310894Y-96500750D01*
X132001164Y-96500750D01*
X131848435Y-96541673D01*
X131824429Y-96555533D01*
X131800422Y-96569394D01*
X131800421Y-96569394D01*
X131711511Y-96620725D01*
X131711503Y-96620731D01*
X128552181Y-99780054D01*
X128490858Y-99813539D01*
X128421166Y-99808555D01*
X128365233Y-99766683D01*
X128340816Y-99701219D01*
X128340500Y-99692373D01*
X128340500Y-94571153D01*
X140289500Y-94571153D01*
X140289500Y-94728846D01*
X140320261Y-94883489D01*
X140320264Y-94883501D01*
X140380602Y-95029172D01*
X140380609Y-95029185D01*
X140468210Y-95160288D01*
X140468213Y-95160292D01*
X140579707Y-95271786D01*
X140579711Y-95271789D01*
X140710814Y-95359390D01*
X140710827Y-95359397D01*
X140856498Y-95419735D01*
X140856503Y-95419737D01*
X140953299Y-95438991D01*
X141011153Y-95450499D01*
X141011156Y-95450500D01*
X141011158Y-95450500D01*
X141168844Y-95450500D01*
X141168845Y-95450499D01*
X141323497Y-95419737D01*
X141469179Y-95359394D01*
X141600289Y-95271789D01*
X141711789Y-95160289D01*
X141799394Y-95029179D01*
X141859737Y-94883497D01*
X141890500Y-94728842D01*
X141890500Y-94571158D01*
X141890500Y-94571155D01*
X141890499Y-94571153D01*
X141859738Y-94416510D01*
X141859737Y-94416503D01*
X141819081Y-94318349D01*
X141799397Y-94270827D01*
X141799390Y-94270814D01*
X141711789Y-94139711D01*
X141711786Y-94139707D01*
X141600292Y-94028213D01*
X141600288Y-94028210D01*
X141469185Y-93940609D01*
X141469172Y-93940602D01*
X141323501Y-93880264D01*
X141323489Y-93880261D01*
X141168845Y-93849500D01*
X141168842Y-93849500D01*
X141011158Y-93849500D01*
X141011155Y-93849500D01*
X140856510Y-93880261D01*
X140856498Y-93880264D01*
X140710827Y-93940602D01*
X140710814Y-93940609D01*
X140579711Y-94028210D01*
X140579707Y-94028213D01*
X140468213Y-94139707D01*
X140468210Y-94139711D01*
X140380609Y-94270814D01*
X140380602Y-94270827D01*
X140320264Y-94416498D01*
X140320261Y-94416510D01*
X140289500Y-94571153D01*
X128340500Y-94571153D01*
X128340500Y-93180097D01*
X128360185Y-93113058D01*
X128376819Y-93092416D01*
X129682417Y-91786819D01*
X129743740Y-91753334D01*
X129770098Y-91750500D01*
X132900045Y-91750500D01*
X132900061Y-91750501D01*
X132907657Y-91750501D01*
X133065768Y-91750501D01*
X133065771Y-91750501D01*
X133218499Y-91709577D01*
X133268995Y-91680423D01*
X133268996Y-91680423D01*
X133355423Y-91630524D01*
X133355422Y-91630524D01*
X133355430Y-91630520D01*
X133467234Y-91518716D01*
X133467234Y-91518714D01*
X133477438Y-91508511D01*
X133477441Y-91508506D01*
X133557028Y-91428919D01*
X135032000Y-91428919D01*
X135060841Y-91573905D01*
X135060844Y-91573915D01*
X135117413Y-91710486D01*
X135117420Y-91710499D01*
X135199549Y-91833413D01*
X135199552Y-91833417D01*
X135304081Y-91937946D01*
X135304085Y-91937949D01*
X135426999Y-92020078D01*
X135427012Y-92020085D01*
X135495391Y-92048408D01*
X135538056Y-92066080D01*
X135592460Y-92109920D01*
X135614525Y-92176214D01*
X135612222Y-92204829D01*
X135607001Y-92231079D01*
X135607001Y-92231082D01*
X135607001Y-92378918D01*
X135607001Y-92378920D01*
X135607000Y-92378920D01*
X135635841Y-92523906D01*
X135635844Y-92523916D01*
X135692413Y-92660487D01*
X135692420Y-92660500D01*
X135774549Y-92783414D01*
X135774552Y-92783418D01*
X135879081Y-92887947D01*
X135879085Y-92887950D01*
X136001999Y-92970079D01*
X136002012Y-92970086D01*
X136123774Y-93020521D01*
X136138588Y-93026657D01*
X136138592Y-93026657D01*
X136138593Y-93026658D01*
X136283579Y-93055499D01*
X136283582Y-93055499D01*
X136431420Y-93055499D01*
X136528961Y-93036095D01*
X136576412Y-93026657D01*
X136712994Y-92970083D01*
X136835915Y-92887950D01*
X136940450Y-92783415D01*
X137022583Y-92660494D01*
X137079157Y-92523912D01*
X137103684Y-92400610D01*
X137107999Y-92378920D01*
X137107999Y-92231079D01*
X137102778Y-92204833D01*
X137109005Y-92135241D01*
X137151867Y-92080064D01*
X137176930Y-92066085D01*
X137287994Y-92020082D01*
X137410915Y-91937949D01*
X137515450Y-91833414D01*
X137597583Y-91710493D01*
X137597963Y-91709577D01*
X137624021Y-91646666D01*
X137654157Y-91573911D01*
X137682999Y-91428917D01*
X137682999Y-91281081D01*
X137682999Y-91281078D01*
X137654158Y-91136092D01*
X137654157Y-91136091D01*
X137654157Y-91136087D01*
X137632975Y-91084949D01*
X137597586Y-90999511D01*
X137597579Y-90999498D01*
X137515450Y-90876584D01*
X137515447Y-90876580D01*
X137410918Y-90772051D01*
X137410914Y-90772048D01*
X137288000Y-90689919D01*
X137287990Y-90689914D01*
X137176942Y-90643916D01*
X137122539Y-90600075D01*
X137100474Y-90533780D01*
X137102778Y-90505161D01*
X137107999Y-90478915D01*
X137107999Y-90331077D01*
X137079158Y-90186091D01*
X137079157Y-90186090D01*
X137079157Y-90186086D01*
X137069035Y-90161650D01*
X137022586Y-90049510D01*
X137022579Y-90049497D01*
X136940450Y-89926583D01*
X136940447Y-89926579D01*
X136835918Y-89822050D01*
X136835914Y-89822047D01*
X136713000Y-89739918D01*
X136712987Y-89739911D01*
X136576416Y-89683342D01*
X136576406Y-89683339D01*
X136431420Y-89654499D01*
X136431418Y-89654499D01*
X136283582Y-89654499D01*
X136283580Y-89654499D01*
X136138593Y-89683339D01*
X136138583Y-89683342D01*
X136002012Y-89739911D01*
X136001999Y-89739918D01*
X135879085Y-89822047D01*
X135879081Y-89822050D01*
X135774552Y-89926579D01*
X135774549Y-89926583D01*
X135692420Y-90049497D01*
X135692413Y-90049510D01*
X135635844Y-90186081D01*
X135635841Y-90186091D01*
X135607001Y-90331077D01*
X135607001Y-90478916D01*
X135612222Y-90505167D01*
X135605993Y-90574758D01*
X135563129Y-90629935D01*
X135538057Y-90643917D01*
X135427008Y-90689914D01*
X135426999Y-90689919D01*
X135304085Y-90772048D01*
X135304081Y-90772051D01*
X135199552Y-90876580D01*
X135199549Y-90876584D01*
X135117420Y-90999498D01*
X135117413Y-90999511D01*
X135060844Y-91136082D01*
X135060841Y-91136092D01*
X135032001Y-91281078D01*
X135032001Y-91281081D01*
X135032001Y-91428917D01*
X135032001Y-91428919D01*
X135032000Y-91428919D01*
X133557028Y-91428919D01*
X136488505Y-88497443D01*
X136488511Y-88497439D01*
X136498714Y-88487235D01*
X136498716Y-88487235D01*
X136610520Y-88375431D01*
X136668158Y-88275598D01*
X136689577Y-88238500D01*
X136730501Y-88085772D01*
X136730501Y-88085769D01*
X136731483Y-88078312D01*
X136743664Y-88050777D01*
X136753573Y-88022351D01*
X136757653Y-88019156D01*
X136759751Y-88014416D01*
X136784881Y-87997840D01*
X136808589Y-87979281D01*
X136814834Y-87978084D01*
X136818077Y-87975946D01*
X136842907Y-87971036D01*
X136848654Y-87970500D01*
X136928842Y-87970500D01*
X136999631Y-87956418D01*
X137006018Y-87955823D01*
X137034267Y-87961332D01*
G37*
%TD.AperFunction*%
%TA.AperFunction,Conductor*%
G36*
X169802560Y-57899538D02*
G01*
X169816285Y-57900105D01*
X170249034Y-57918005D01*
X170259207Y-57918848D01*
X170700111Y-57973808D01*
X170710191Y-57975490D01*
X171145039Y-58066669D01*
X171154947Y-58069178D01*
X171580782Y-58195956D01*
X171590449Y-58199275D01*
X171907127Y-58322844D01*
X172004339Y-58360777D01*
X172013725Y-58364894D01*
X172107414Y-58410696D01*
X172412860Y-58560020D01*
X172421862Y-58564891D01*
X172803539Y-58792322D01*
X172812107Y-58797920D01*
X173173693Y-59056088D01*
X173181769Y-59062374D01*
X173337621Y-59194374D01*
X173520789Y-59349510D01*
X173528329Y-59356451D01*
X173842480Y-59670602D01*
X173849421Y-59678142D01*
X174136552Y-60017156D01*
X174142847Y-60025243D01*
X174401007Y-60386818D01*
X174406613Y-60395398D01*
X174634037Y-60777064D01*
X174638914Y-60786077D01*
X174834037Y-61185206D01*
X174838154Y-61194592D01*
X174999651Y-61608469D01*
X175002979Y-61618162D01*
X175129749Y-62043971D01*
X175132265Y-62053906D01*
X175223438Y-62488726D01*
X175225125Y-62498835D01*
X175280081Y-62939703D01*
X175280927Y-62949916D01*
X175299394Y-63396367D01*
X175299500Y-63401492D01*
X175299500Y-78759478D01*
X175279815Y-78826517D01*
X175227011Y-78872272D01*
X175157853Y-78882216D01*
X175094297Y-78853191D01*
X175075182Y-78832363D01*
X174950109Y-78660214D01*
X174950105Y-78660209D01*
X174799786Y-78509890D01*
X174627820Y-78384951D01*
X174438414Y-78288444D01*
X174438413Y-78288443D01*
X174438412Y-78288443D01*
X174236243Y-78222754D01*
X174236241Y-78222753D01*
X174236240Y-78222753D01*
X174039817Y-78191643D01*
X174026287Y-78189500D01*
X173813713Y-78189500D01*
X173800183Y-78191643D01*
X173603760Y-78222753D01*
X173401585Y-78288444D01*
X173212179Y-78384951D01*
X173040213Y-78509890D01*
X172889890Y-78660213D01*
X172764949Y-78832182D01*
X172760484Y-78840946D01*
X172712509Y-78891742D01*
X172644688Y-78908536D01*
X172578553Y-78885998D01*
X172539516Y-78840946D01*
X172535050Y-78832182D01*
X172410109Y-78660213D01*
X172259786Y-78509890D01*
X172087817Y-78384949D01*
X172078504Y-78380204D01*
X172027707Y-78332230D01*
X172010912Y-78264409D01*
X172033449Y-78198274D01*
X172078507Y-78159232D01*
X172087555Y-78154622D01*
X172141716Y-78115270D01*
X172141717Y-78115270D01*
X171509408Y-77482962D01*
X171572993Y-77465925D01*
X171687007Y-77400099D01*
X171780099Y-77307007D01*
X171845925Y-77192993D01*
X171862962Y-77129408D01*
X172495270Y-77761717D01*
X172495270Y-77761716D01*
X172534622Y-77707554D01*
X172631095Y-77518217D01*
X172696757Y-77316130D01*
X172696757Y-77316127D01*
X172730000Y-77106246D01*
X172730000Y-76893753D01*
X172696757Y-76683872D01*
X172696757Y-76683869D01*
X172631095Y-76481782D01*
X172534624Y-76292449D01*
X172495270Y-76238282D01*
X172495269Y-76238282D01*
X171862962Y-76870590D01*
X171845925Y-76807007D01*
X171780099Y-76692993D01*
X171687007Y-76599901D01*
X171572993Y-76534075D01*
X171509409Y-76517037D01*
X172141716Y-75884728D01*
X172087550Y-75845375D01*
X171898217Y-75748904D01*
X171696129Y-75683242D01*
X171486246Y-75650000D01*
X171273754Y-75650000D01*
X171063872Y-75683242D01*
X171063869Y-75683242D01*
X170861782Y-75748904D01*
X170672439Y-75845380D01*
X170618282Y-75884727D01*
X170618282Y-75884728D01*
X171250591Y-76517037D01*
X171187007Y-76534075D01*
X171072993Y-76599901D01*
X170979901Y-76692993D01*
X170914075Y-76807007D01*
X170897037Y-76870591D01*
X170264728Y-76238282D01*
X170264727Y-76238282D01*
X170225380Y-76292439D01*
X170128904Y-76481782D01*
X170063242Y-76683869D01*
X170063242Y-76683872D01*
X170030000Y-76893753D01*
X170030000Y-77106246D01*
X170063242Y-77316127D01*
X170063242Y-77316130D01*
X170128904Y-77518217D01*
X170225375Y-77707550D01*
X170264728Y-77761716D01*
X170897037Y-77129408D01*
X170914075Y-77192993D01*
X170979901Y-77307007D01*
X171072993Y-77400099D01*
X171187007Y-77465925D01*
X171250590Y-77482962D01*
X170618282Y-78115269D01*
X170618282Y-78115270D01*
X170672452Y-78154626D01*
X170672451Y-78154626D01*
X170681495Y-78159234D01*
X170732292Y-78207208D01*
X170749087Y-78275029D01*
X170726550Y-78341164D01*
X170681499Y-78380202D01*
X170672182Y-78384949D01*
X170500213Y-78509890D01*
X170349890Y-78660213D01*
X170224951Y-78832179D01*
X170128444Y-79021585D01*
X170062753Y-79223760D01*
X170029500Y-79433713D01*
X170029500Y-79646286D01*
X170062753Y-79856239D01*
X170128444Y-80058414D01*
X170224951Y-80247820D01*
X170349890Y-80419786D01*
X170500213Y-80570109D01*
X170672182Y-80695050D01*
X170680946Y-80699516D01*
X170731742Y-80747491D01*
X170748536Y-80815312D01*
X170725998Y-80881447D01*
X170680946Y-80920484D01*
X170672182Y-80924949D01*
X170500213Y-81049890D01*
X170349890Y-81200213D01*
X170224951Y-81372179D01*
X170128444Y-81561585D01*
X170062753Y-81763760D01*
X170029500Y-81973713D01*
X170029500Y-82186287D01*
X170062754Y-82396243D01*
X170118427Y-82567587D01*
X170128444Y-82598414D01*
X170224951Y-82787820D01*
X170349890Y-82959786D01*
X170500213Y-83110109D01*
X170672182Y-83235050D01*
X170680946Y-83239516D01*
X170731742Y-83287491D01*
X170748536Y-83355312D01*
X170725998Y-83421447D01*
X170680946Y-83460484D01*
X170672182Y-83464949D01*
X170500213Y-83589890D01*
X170349890Y-83740213D01*
X170224951Y-83912179D01*
X170128444Y-84101585D01*
X170062753Y-84303760D01*
X170042830Y-84429553D01*
X170029500Y-84513713D01*
X170029500Y-84726287D01*
X170062754Y-84936243D01*
X170128443Y-85138412D01*
X170224945Y-85327809D01*
X170224950Y-85327817D01*
X170233395Y-85339441D01*
X170244845Y-85371535D01*
X170256758Y-85403461D01*
X170256560Y-85404371D01*
X170256873Y-85405248D01*
X170249151Y-85438448D01*
X170241915Y-85471736D01*
X170241182Y-85472714D01*
X170241046Y-85473302D01*
X170220768Y-85499994D01*
X170214969Y-85505795D01*
X170209488Y-85511275D01*
X170209483Y-85511278D01*
X170209478Y-85511286D01*
X169389481Y-86331282D01*
X169389475Y-86331290D01*
X169347766Y-86403534D01*
X169347766Y-86403535D01*
X169310423Y-86468215D01*
X169269499Y-86620943D01*
X169269499Y-86620945D01*
X169269499Y-86789046D01*
X169269500Y-86789059D01*
X169269500Y-88344217D01*
X169249815Y-88411256D01*
X169233181Y-88431898D01*
X167221898Y-90443181D01*
X167160575Y-90476666D01*
X167134217Y-90479500D01*
X157260098Y-90479500D01*
X157193059Y-90459815D01*
X157172417Y-90443181D01*
X154609804Y-87880568D01*
X154576319Y-87819245D01*
X154581303Y-87749553D01*
X154623175Y-87693620D01*
X154628594Y-87689785D01*
X154647939Y-87676858D01*
X154760289Y-87601789D01*
X154871789Y-87490289D01*
X154959394Y-87359179D01*
X155019737Y-87213497D01*
X155050500Y-87058842D01*
X155050500Y-86901158D01*
X155050500Y-86901155D01*
X155050499Y-86901153D01*
X156489500Y-86901153D01*
X156489500Y-87058846D01*
X156520261Y-87213489D01*
X156520264Y-87213501D01*
X156580602Y-87359172D01*
X156580609Y-87359185D01*
X156668210Y-87490288D01*
X156668213Y-87490292D01*
X156779707Y-87601786D01*
X156779711Y-87601789D01*
X156910814Y-87689390D01*
X156910827Y-87689397D01*
X156969612Y-87713746D01*
X157056503Y-87749737D01*
X157211153Y-87780499D01*
X157211156Y-87780500D01*
X157211158Y-87780500D01*
X157368844Y-87780500D01*
X157368845Y-87780499D01*
X157523497Y-87749737D01*
X157636166Y-87703067D01*
X157669172Y-87689397D01*
X157669172Y-87689396D01*
X157669179Y-87689394D01*
X157800289Y-87601789D01*
X157911789Y-87490289D01*
X157999394Y-87359179D01*
X158059737Y-87213497D01*
X158090500Y-87058842D01*
X158090500Y-86901158D01*
X158090500Y-86901155D01*
X158090499Y-86901153D01*
X158079082Y-86843757D01*
X158059737Y-86746503D01*
X158017174Y-86643746D01*
X157999397Y-86600827D01*
X157999390Y-86600814D01*
X157911789Y-86469711D01*
X157911786Y-86469707D01*
X157800292Y-86358213D01*
X157800288Y-86358210D01*
X157669185Y-86270609D01*
X157669172Y-86270602D01*
X157523501Y-86210264D01*
X157523489Y-86210261D01*
X157368845Y-86179500D01*
X157368842Y-86179500D01*
X157211158Y-86179500D01*
X157211155Y-86179500D01*
X157056510Y-86210261D01*
X157056498Y-86210264D01*
X156910827Y-86270602D01*
X156910814Y-86270609D01*
X156779711Y-86358210D01*
X156779707Y-86358213D01*
X156668213Y-86469707D01*
X156668210Y-86469711D01*
X156580609Y-86600814D01*
X156580602Y-86600827D01*
X156520264Y-86746498D01*
X156520261Y-86746510D01*
X156489500Y-86901153D01*
X155050499Y-86901153D01*
X155039082Y-86843757D01*
X155019737Y-86746503D01*
X154977174Y-86643746D01*
X154959397Y-86600827D01*
X154959390Y-86600814D01*
X154871789Y-86469711D01*
X154871786Y-86469707D01*
X154760292Y-86358213D01*
X154760288Y-86358210D01*
X154629185Y-86270609D01*
X154629172Y-86270602D01*
X154483501Y-86210264D01*
X154483489Y-86210261D01*
X154328845Y-86179500D01*
X154328842Y-86179500D01*
X154171158Y-86179500D01*
X154171155Y-86179500D01*
X154016510Y-86210261D01*
X154016498Y-86210264D01*
X153870827Y-86270602D01*
X153870814Y-86270609D01*
X153739711Y-86358210D01*
X153739707Y-86358213D01*
X153628213Y-86469707D01*
X153628210Y-86469711D01*
X153540214Y-86601406D01*
X153486601Y-86646211D01*
X153417276Y-86654918D01*
X153354249Y-86624763D01*
X153349431Y-86620196D01*
X152157590Y-85428355D01*
X152157588Y-85428352D01*
X152038717Y-85309481D01*
X152038709Y-85309475D01*
X151945222Y-85255501D01*
X151945220Y-85255500D01*
X151901790Y-85230425D01*
X151901789Y-85230424D01*
X151889263Y-85227067D01*
X151749057Y-85189499D01*
X151590943Y-85189499D01*
X151583347Y-85189499D01*
X151583331Y-85189500D01*
X146026669Y-85189500D01*
X146026653Y-85189499D01*
X146019057Y-85189499D01*
X145860943Y-85189499D01*
X145753587Y-85218265D01*
X145708210Y-85230424D01*
X145708209Y-85230425D01*
X145664780Y-85255500D01*
X145664778Y-85255501D01*
X145571290Y-85309475D01*
X145571282Y-85309481D01*
X144649479Y-86231284D01*
X144626776Y-86270609D01*
X144621234Y-86280208D01*
X144570423Y-86368215D01*
X144561464Y-86401645D01*
X144556018Y-86412659D01*
X144543762Y-86425950D01*
X144532551Y-86445369D01*
X144508213Y-86469708D01*
X144508208Y-86469714D01*
X144420609Y-86600814D01*
X144420602Y-86600827D01*
X144360264Y-86746498D01*
X144360261Y-86746510D01*
X144329500Y-86901153D01*
X144329500Y-87058846D01*
X144360261Y-87213489D01*
X144360264Y-87213501D01*
X144420602Y-87359172D01*
X144420609Y-87359185D01*
X144508210Y-87490288D01*
X144508213Y-87490292D01*
X144619707Y-87601786D01*
X144619711Y-87601789D01*
X144750814Y-87689390D01*
X144750827Y-87689397D01*
X144809612Y-87713746D01*
X144896503Y-87749737D01*
X145051153Y-87780499D01*
X145051156Y-87780500D01*
X145051158Y-87780500D01*
X145208844Y-87780500D01*
X145208845Y-87780499D01*
X145363497Y-87749737D01*
X145476166Y-87703067D01*
X145509172Y-87689397D01*
X145509172Y-87689396D01*
X145509179Y-87689394D01*
X145640289Y-87601789D01*
X145751789Y-87490289D01*
X145839394Y-87359179D01*
X145899737Y-87213497D01*
X145930500Y-87058842D01*
X145930500Y-86901158D01*
X145930500Y-86901155D01*
X145901550Y-86755620D01*
X145907777Y-86686028D01*
X145935481Y-86643752D01*
X146152417Y-86426816D01*
X146213739Y-86393334D01*
X146240097Y-86390500D01*
X147369150Y-86390500D01*
X147436189Y-86410185D01*
X147481944Y-86462989D01*
X147491888Y-86532147D01*
X147472252Y-86583392D01*
X147460606Y-86600820D01*
X147460602Y-86600827D01*
X147400264Y-86746498D01*
X147400261Y-86746510D01*
X147369500Y-86901153D01*
X147369500Y-87058846D01*
X147400261Y-87213489D01*
X147400264Y-87213501D01*
X147460602Y-87359172D01*
X147460609Y-87359185D01*
X147548210Y-87490288D01*
X147548213Y-87490292D01*
X147659707Y-87601786D01*
X147659711Y-87601789D01*
X147790814Y-87689390D01*
X147790827Y-87689397D01*
X147849612Y-87713746D01*
X147936503Y-87749737D01*
X148091153Y-87780499D01*
X148091156Y-87780500D01*
X148091158Y-87780500D01*
X148248844Y-87780500D01*
X148248845Y-87780499D01*
X148403497Y-87749737D01*
X148516166Y-87703067D01*
X148549172Y-87689397D01*
X148549172Y-87689396D01*
X148549179Y-87689394D01*
X148680289Y-87601789D01*
X148791789Y-87490289D01*
X148879394Y-87359179D01*
X148939737Y-87213497D01*
X148959113Y-87116085D01*
X148970638Y-87058150D01*
X148979402Y-87041393D01*
X148983423Y-87022914D01*
X149002168Y-86997872D01*
X149003023Y-86996239D01*
X149004467Y-86994767D01*
X149142418Y-86856816D01*
X149203739Y-86823334D01*
X149230097Y-86820500D01*
X150285500Y-86820500D01*
X150352539Y-86840185D01*
X150398294Y-86892989D01*
X150409500Y-86944500D01*
X150409500Y-87058846D01*
X150440261Y-87213489D01*
X150440264Y-87213501D01*
X150500602Y-87359172D01*
X150500609Y-87359185D01*
X150588210Y-87490288D01*
X150588213Y-87490292D01*
X150699707Y-87601786D01*
X150699711Y-87601789D01*
X150830814Y-87689390D01*
X150830827Y-87689397D01*
X150889612Y-87713746D01*
X150976503Y-87749737D01*
X151131153Y-87780499D01*
X151131156Y-87780500D01*
X151131158Y-87780500D01*
X151288844Y-87780500D01*
X151288845Y-87780499D01*
X151443497Y-87749737D01*
X151512354Y-87721214D01*
X151581823Y-87713746D01*
X151644303Y-87745021D01*
X151647488Y-87748095D01*
X156148106Y-92248713D01*
X156148108Y-92248716D01*
X156259912Y-92360520D01*
X156301376Y-92384459D01*
X156310853Y-92392899D01*
X156322895Y-92412210D01*
X156338599Y-92428679D01*
X156341029Y-92441287D01*
X156347825Y-92452185D01*
X156347515Y-92474938D01*
X156351823Y-92497286D01*
X156347049Y-92509209D01*
X156346875Y-92522048D01*
X156334313Y-92541022D01*
X156325855Y-92562151D01*
X156315395Y-92569599D01*
X156308306Y-92580308D01*
X156287477Y-92589479D01*
X156268941Y-92602680D01*
X156250434Y-92605792D01*
X156244362Y-92608466D01*
X156239289Y-92607666D01*
X156228384Y-92609500D01*
X152732940Y-92609500D01*
X152665901Y-92589815D01*
X152645263Y-92573185D01*
X152560289Y-92488211D01*
X152560288Y-92488210D01*
X152560287Y-92488209D01*
X152429185Y-92400609D01*
X152429172Y-92400602D01*
X152283501Y-92340264D01*
X152283489Y-92340261D01*
X152128845Y-92309500D01*
X152128842Y-92309500D01*
X151971158Y-92309500D01*
X151971155Y-92309500D01*
X151816510Y-92340261D01*
X151816498Y-92340264D01*
X151670827Y-92400602D01*
X151670814Y-92400609D01*
X151539711Y-92488210D01*
X151539707Y-92488213D01*
X151428213Y-92599707D01*
X151428210Y-92599711D01*
X151340609Y-92730814D01*
X151340602Y-92730827D01*
X151280264Y-92876498D01*
X151280261Y-92876510D01*
X151249500Y-93031153D01*
X151249500Y-93188846D01*
X151280261Y-93343489D01*
X151280264Y-93343501D01*
X151340602Y-93489172D01*
X151340609Y-93489185D01*
X151428210Y-93620288D01*
X151428213Y-93620292D01*
X151539707Y-93731786D01*
X151539711Y-93731789D01*
X151670814Y-93819390D01*
X151670827Y-93819397D01*
X151816498Y-93879735D01*
X151816503Y-93879737D01*
X151971153Y-93910499D01*
X151971156Y-93910500D01*
X151971158Y-93910500D01*
X152128844Y-93910500D01*
X152128845Y-93910499D01*
X152283497Y-93879737D01*
X152400199Y-93831398D01*
X152427864Y-93819939D01*
X152475316Y-93810500D01*
X159230234Y-93810500D01*
X159297273Y-93830185D01*
X159299125Y-93831398D01*
X159430814Y-93919390D01*
X159430827Y-93919397D01*
X159576498Y-93979735D01*
X159576503Y-93979737D01*
X159731153Y-94010499D01*
X159731156Y-94010500D01*
X159731158Y-94010500D01*
X159888844Y-94010500D01*
X159888845Y-94010499D01*
X160043497Y-93979737D01*
X160189179Y-93919394D01*
X160320289Y-93831789D01*
X160431789Y-93720289D01*
X160519394Y-93589179D01*
X160579737Y-93443497D01*
X160610500Y-93288842D01*
X160610500Y-93131158D01*
X160610500Y-93131155D01*
X160610499Y-93131153D01*
X160593025Y-93043305D01*
X160579737Y-92976503D01*
X160577076Y-92970079D01*
X160519397Y-92830827D01*
X160519390Y-92830814D01*
X160431789Y-92699711D01*
X160431786Y-92699707D01*
X160424260Y-92692181D01*
X160390775Y-92630858D01*
X160395759Y-92561166D01*
X160437631Y-92505233D01*
X160503095Y-92480816D01*
X160511941Y-92480500D01*
X167679017Y-92480500D01*
X167679033Y-92480501D01*
X167686629Y-92480501D01*
X167844740Y-92480501D01*
X167844743Y-92480501D01*
X167997471Y-92439577D01*
X168064970Y-92400606D01*
X168134402Y-92360520D01*
X168246206Y-92248716D01*
X168246206Y-92248714D01*
X168256410Y-92238511D01*
X168256413Y-92238506D01*
X168838103Y-91656819D01*
X168899426Y-91623334D01*
X168925784Y-91620500D01*
X169990617Y-91620500D01*
X170057656Y-91640185D01*
X170103411Y-91692989D01*
X170113355Y-91762147D01*
X170108548Y-91782818D01*
X170062753Y-91923759D01*
X170029500Y-92133713D01*
X170029500Y-92346286D01*
X170062753Y-92556241D01*
X170074039Y-92590974D01*
X170076034Y-92660815D01*
X170043789Y-92716974D01*
X169431286Y-93329478D01*
X169319481Y-93441282D01*
X169319480Y-93441284D01*
X169275115Y-93518127D01*
X169240423Y-93578215D01*
X169199499Y-93730943D01*
X169199499Y-93730945D01*
X169199499Y-93899046D01*
X169199500Y-93899059D01*
X169199500Y-97719903D01*
X169179815Y-97786942D01*
X169163181Y-97807584D01*
X168777584Y-98193181D01*
X168716261Y-98226666D01*
X168689903Y-98229500D01*
X164871260Y-98229500D01*
X164804221Y-98209815D01*
X164758466Y-98157011D01*
X164748522Y-98087853D01*
X164756698Y-98058051D01*
X164759734Y-98050720D01*
X164759734Y-98050718D01*
X164759737Y-98050712D01*
X164790500Y-97896057D01*
X164790500Y-97738373D01*
X164790500Y-97738370D01*
X164790499Y-97738368D01*
X164759738Y-97583725D01*
X164759737Y-97583718D01*
X164724795Y-97499359D01*
X164699397Y-97438042D01*
X164699390Y-97438029D01*
X164611789Y-97306926D01*
X164611786Y-97306922D01*
X164500292Y-97195428D01*
X164500288Y-97195425D01*
X164369185Y-97107824D01*
X164369172Y-97107817D01*
X164223501Y-97047479D01*
X164223489Y-97047476D01*
X164068845Y-97016715D01*
X164068842Y-97016715D01*
X163911158Y-97016715D01*
X163911155Y-97016715D01*
X163756510Y-97047476D01*
X163756498Y-97047479D01*
X163610827Y-97107817D01*
X163610814Y-97107824D01*
X163479711Y-97195425D01*
X163479707Y-97195428D01*
X163368213Y-97306922D01*
X163368210Y-97306926D01*
X163280609Y-97438029D01*
X163280602Y-97438042D01*
X163220264Y-97583713D01*
X163220261Y-97583722D01*
X163211216Y-97629195D01*
X163206505Y-97638199D01*
X163205781Y-97648336D01*
X163190584Y-97668636D01*
X163178830Y-97691106D01*
X163169998Y-97696134D01*
X163163909Y-97704269D01*
X163140150Y-97713130D01*
X163118113Y-97725679D01*
X163107965Y-97725134D01*
X163098445Y-97728686D01*
X163073666Y-97723295D01*
X163048344Y-97721938D01*
X163038283Y-97715598D01*
X163030172Y-97713834D01*
X163001918Y-97692683D01*
X162977590Y-97668355D01*
X162977588Y-97668352D01*
X162858717Y-97549481D01*
X162858716Y-97549480D01*
X162771904Y-97499360D01*
X162771904Y-97499359D01*
X162771900Y-97499358D01*
X162721785Y-97470423D01*
X162569057Y-97429499D01*
X162410943Y-97429499D01*
X162403347Y-97429499D01*
X162403331Y-97429500D01*
X153384116Y-97429500D01*
X153317077Y-97409815D01*
X153296435Y-97393181D01*
X150736819Y-94833565D01*
X150703334Y-94772242D01*
X150700500Y-94745884D01*
X150700500Y-93614935D01*
X150720185Y-93547896D01*
X150721366Y-93546090D01*
X150759394Y-93489179D01*
X150819737Y-93343497D01*
X150850500Y-93188842D01*
X150850500Y-93031158D01*
X150850500Y-93031155D01*
X150850499Y-93031153D01*
X150838351Y-92970083D01*
X150819737Y-92876503D01*
X150800812Y-92830814D01*
X150759397Y-92730827D01*
X150759390Y-92730814D01*
X150671789Y-92599711D01*
X150671786Y-92599707D01*
X150560292Y-92488213D01*
X150560288Y-92488210D01*
X150429185Y-92400609D01*
X150429172Y-92400602D01*
X150283501Y-92340264D01*
X150283489Y-92340261D01*
X150128845Y-92309500D01*
X150128842Y-92309500D01*
X149971158Y-92309500D01*
X149971155Y-92309500D01*
X149816510Y-92340261D01*
X149816498Y-92340264D01*
X149670827Y-92400602D01*
X149670814Y-92400609D01*
X149539711Y-92488210D01*
X149539707Y-92488213D01*
X149428213Y-92599707D01*
X149428210Y-92599711D01*
X149340609Y-92730814D01*
X149340602Y-92730827D01*
X149280264Y-92876498D01*
X149280261Y-92876510D01*
X149249500Y-93031153D01*
X149249500Y-93130902D01*
X149243261Y-93152147D01*
X149241682Y-93174236D01*
X149233609Y-93185019D01*
X149229815Y-93197941D01*
X149213081Y-93212440D01*
X149199810Y-93230169D01*
X149187189Y-93234876D01*
X149177011Y-93243696D01*
X149155093Y-93246847D01*
X149134346Y-93254586D01*
X149121185Y-93251723D01*
X149107853Y-93253640D01*
X149087709Y-93244440D01*
X149066073Y-93239734D01*
X149048347Y-93226465D01*
X149044297Y-93224615D01*
X149037819Y-93218583D01*
X148884573Y-93065337D01*
X148851088Y-93004014D01*
X148850637Y-93001847D01*
X148844318Y-92970079D01*
X148819737Y-92846503D01*
X148813241Y-92830821D01*
X148759397Y-92700827D01*
X148759390Y-92700814D01*
X148671789Y-92569711D01*
X148671786Y-92569707D01*
X148560292Y-92458213D01*
X148560288Y-92458210D01*
X148429185Y-92370609D01*
X148429172Y-92370602D01*
X148283501Y-92310264D01*
X148283489Y-92310261D01*
X148128845Y-92279500D01*
X148128842Y-92279500D01*
X147971158Y-92279500D01*
X147971155Y-92279500D01*
X147816510Y-92310261D01*
X147816498Y-92310264D01*
X147670827Y-92370602D01*
X147670814Y-92370609D01*
X147539711Y-92458210D01*
X147539707Y-92458213D01*
X147428213Y-92569707D01*
X147428210Y-92569711D01*
X147340609Y-92700814D01*
X147340604Y-92700824D01*
X147284628Y-92835963D01*
X147240787Y-92890366D01*
X147174493Y-92912431D01*
X147106793Y-92895152D01*
X147082386Y-92876191D01*
X144237348Y-90031153D01*
X145569500Y-90031153D01*
X145569500Y-90188846D01*
X145600261Y-90343489D01*
X145600264Y-90343501D01*
X145660602Y-90489172D01*
X145660609Y-90489185D01*
X145748210Y-90620288D01*
X145748213Y-90620292D01*
X145859707Y-90731786D01*
X145859711Y-90731789D01*
X145990814Y-90819390D01*
X145990827Y-90819397D01*
X146128881Y-90876580D01*
X146136503Y-90879737D01*
X146276031Y-90907491D01*
X146291153Y-90910499D01*
X146291156Y-90910500D01*
X146291158Y-90910500D01*
X146448844Y-90910500D01*
X146448845Y-90910499D01*
X146603497Y-90879737D01*
X146749179Y-90819394D01*
X146880289Y-90731789D01*
X146991789Y-90620289D01*
X147079394Y-90489179D01*
X147083646Y-90478915D01*
X147121797Y-90386808D01*
X147139737Y-90343497D01*
X147170500Y-90188842D01*
X147170500Y-90031158D01*
X147170500Y-90031155D01*
X147170499Y-90031153D01*
X147167532Y-90016239D01*
X147139737Y-89876503D01*
X147139735Y-89876498D01*
X147079397Y-89730827D01*
X147079390Y-89730814D01*
X146991789Y-89599711D01*
X146991786Y-89599707D01*
X146880292Y-89488213D01*
X146880288Y-89488210D01*
X146749185Y-89400609D01*
X146749172Y-89400602D01*
X146603501Y-89340264D01*
X146603489Y-89340261D01*
X146448845Y-89309500D01*
X146448842Y-89309500D01*
X146291158Y-89309500D01*
X146291155Y-89309500D01*
X146136510Y-89340261D01*
X146136498Y-89340264D01*
X145990827Y-89400602D01*
X145990814Y-89400609D01*
X145859711Y-89488210D01*
X145859707Y-89488213D01*
X145748213Y-89599707D01*
X145748210Y-89599711D01*
X145660609Y-89730814D01*
X145660602Y-89730827D01*
X145600264Y-89876498D01*
X145600261Y-89876510D01*
X145569500Y-90031153D01*
X144237348Y-90031153D01*
X140316819Y-86110624D01*
X140283334Y-86049301D01*
X140280500Y-86022943D01*
X140280500Y-84835359D01*
X140280500Y-84835357D01*
X140251275Y-84726287D01*
X140239577Y-84682629D01*
X140210639Y-84632509D01*
X140160520Y-84545698D01*
X140048716Y-84433894D01*
X140048715Y-84433893D01*
X140044385Y-84429563D01*
X140044374Y-84429553D01*
X138916819Y-83301996D01*
X138883334Y-83240673D01*
X138880500Y-83214315D01*
X138880500Y-80924845D01*
X138880501Y-80924832D01*
X138880501Y-80756729D01*
X138878026Y-80747491D01*
X138839577Y-80604001D01*
X138820007Y-80570104D01*
X138760524Y-80467075D01*
X138760518Y-80467067D01*
X138086819Y-79793368D01*
X138053334Y-79732045D01*
X138050500Y-79705687D01*
X138050500Y-75412416D01*
X138050500Y-75412414D01*
X138020245Y-75299500D01*
X138009577Y-75259686D01*
X137954064Y-75163535D01*
X137930520Y-75122755D01*
X137818716Y-75010951D01*
X137818713Y-75010949D01*
X137646551Y-74838787D01*
X137613066Y-74777464D01*
X137618050Y-74707772D01*
X137619647Y-74703713D01*
X137619737Y-74703497D01*
X137650500Y-74548842D01*
X137650500Y-74391158D01*
X137650500Y-74391155D01*
X137650499Y-74391153D01*
X137619737Y-74236503D01*
X137619735Y-74236498D01*
X137559397Y-74090827D01*
X137559390Y-74090814D01*
X137471789Y-73959711D01*
X137471786Y-73959707D01*
X137434760Y-73922681D01*
X137401275Y-73861358D01*
X137406259Y-73791666D01*
X137434760Y-73747319D01*
X137471786Y-73710292D01*
X137471789Y-73710289D01*
X137559394Y-73579179D01*
X137619737Y-73433497D01*
X137650500Y-73278842D01*
X137650500Y-73121158D01*
X137650500Y-73121155D01*
X137650499Y-73121153D01*
X137619738Y-72966510D01*
X137619738Y-72966508D01*
X137619737Y-72966503D01*
X137605040Y-72931021D01*
X137559397Y-72820827D01*
X137559390Y-72820814D01*
X137471789Y-72689711D01*
X137471786Y-72689707D01*
X137360292Y-72578213D01*
X137360288Y-72578210D01*
X137229185Y-72490609D01*
X137229172Y-72490602D01*
X137083501Y-72430264D01*
X137083489Y-72430261D01*
X136928845Y-72399500D01*
X136928842Y-72399500D01*
X136771158Y-72399500D01*
X136771155Y-72399500D01*
X136616510Y-72430261D01*
X136616498Y-72430264D01*
X136470827Y-72490602D01*
X136470814Y-72490609D01*
X136339711Y-72578210D01*
X136339707Y-72578213D01*
X136228213Y-72689707D01*
X136228210Y-72689711D01*
X136140609Y-72820814D01*
X136140602Y-72820827D01*
X136080264Y-72966498D01*
X136080261Y-72966508D01*
X136049361Y-73121850D01*
X136016976Y-73183761D01*
X136015425Y-73185339D01*
X135249481Y-73951282D01*
X135249479Y-73951285D01*
X135199361Y-74038094D01*
X135199359Y-74038096D01*
X135170425Y-74088209D01*
X135170424Y-74088210D01*
X135167131Y-74100500D01*
X135129499Y-74240943D01*
X135129499Y-74240945D01*
X135129499Y-74409046D01*
X135129500Y-74409059D01*
X135129500Y-87540932D01*
X135109815Y-87607971D01*
X135093181Y-87628613D01*
X134776163Y-87945630D01*
X134714840Y-87979115D01*
X134645148Y-87974131D01*
X134619591Y-87961051D01*
X134506685Y-87885609D01*
X134506672Y-87885602D01*
X134361001Y-87825264D01*
X134360989Y-87825261D01*
X134206345Y-87794500D01*
X134206342Y-87794500D01*
X134048658Y-87794500D01*
X134048655Y-87794500D01*
X133894010Y-87825261D01*
X133893998Y-87825264D01*
X133748327Y-87885602D01*
X133748314Y-87885609D01*
X133617211Y-87973210D01*
X133617207Y-87973213D01*
X133505713Y-88084707D01*
X133505710Y-88084711D01*
X133418109Y-88215814D01*
X133418102Y-88215827D01*
X133357764Y-88361498D01*
X133357761Y-88361508D01*
X133326862Y-88516848D01*
X133294477Y-88578759D01*
X133292926Y-88580337D01*
X132160084Y-89713181D01*
X132098761Y-89746666D01*
X132072403Y-89749500D01*
X129225299Y-89749500D01*
X129225283Y-89749499D01*
X129217687Y-89749499D01*
X129059572Y-89749499D01*
X128983208Y-89769961D01*
X128906843Y-89790423D01*
X128906838Y-89790426D01*
X128769919Y-89869475D01*
X128769911Y-89869481D01*
X127026213Y-91613181D01*
X126999285Y-91627884D01*
X126973467Y-91644477D01*
X126967266Y-91645368D01*
X126964890Y-91646666D01*
X126938532Y-91649500D01*
X126910813Y-91649500D01*
X126843774Y-91629815D01*
X126800328Y-91581794D01*
X126796881Y-91575029D01*
X126775051Y-91532184D01*
X126757852Y-91508511D01*
X126650109Y-91360213D01*
X126499786Y-91209890D01*
X126327820Y-91084951D01*
X126327115Y-91084591D01*
X126319054Y-91080485D01*
X126268259Y-91032512D01*
X126251463Y-90964692D01*
X126273999Y-90898556D01*
X126319054Y-90859515D01*
X126327816Y-90855051D01*
X126442057Y-90772051D01*
X126499786Y-90730109D01*
X126499788Y-90730106D01*
X126499792Y-90730104D01*
X126650104Y-90579792D01*
X126650106Y-90579788D01*
X126650109Y-90579786D01*
X126775048Y-90407820D01*
X126775047Y-90407820D01*
X126775051Y-90407816D01*
X126871557Y-90218412D01*
X126937246Y-90016243D01*
X126970500Y-89806287D01*
X126970500Y-89593713D01*
X126937246Y-89383757D01*
X126871557Y-89181588D01*
X126775051Y-88992184D01*
X126775049Y-88992181D01*
X126775048Y-88992179D01*
X126650109Y-88820213D01*
X126499786Y-88669890D01*
X126327820Y-88544951D01*
X126327115Y-88544591D01*
X126319054Y-88540485D01*
X126268259Y-88492512D01*
X126251463Y-88424692D01*
X126273999Y-88358556D01*
X126319054Y-88319515D01*
X126327816Y-88315051D01*
X126382120Y-88275597D01*
X126499786Y-88190109D01*
X126499788Y-88190106D01*
X126499792Y-88190104D01*
X126650104Y-88039792D01*
X126650106Y-88039788D01*
X126650109Y-88039786D01*
X126734114Y-87924162D01*
X128356793Y-87924162D01*
X128356793Y-88081855D01*
X128387554Y-88236498D01*
X128387557Y-88236510D01*
X128447895Y-88382181D01*
X128447902Y-88382194D01*
X128535503Y-88513297D01*
X128535506Y-88513301D01*
X128647000Y-88624795D01*
X128647004Y-88624798D01*
X128778107Y-88712399D01*
X128778120Y-88712406D01*
X128923791Y-88772744D01*
X128923796Y-88772746D01*
X129078446Y-88803508D01*
X129078449Y-88803509D01*
X129078451Y-88803509D01*
X129236137Y-88803509D01*
X129236138Y-88803508D01*
X129390790Y-88772746D01*
X129536472Y-88712403D01*
X129667582Y-88624798D01*
X129779082Y-88513298D01*
X129866687Y-88382188D01*
X129869488Y-88375427D01*
X129910837Y-88275600D01*
X129927030Y-88236506D01*
X129957793Y-88081851D01*
X129957793Y-87924167D01*
X129957793Y-87924164D01*
X129957792Y-87924162D01*
X129950122Y-87885602D01*
X129927030Y-87769512D01*
X129919150Y-87750487D01*
X129866690Y-87623836D01*
X129866683Y-87623823D01*
X129779082Y-87492720D01*
X129779079Y-87492716D01*
X129667585Y-87381222D01*
X129667581Y-87381219D01*
X129536478Y-87293618D01*
X129536465Y-87293611D01*
X129390794Y-87233273D01*
X129390782Y-87233270D01*
X129236138Y-87202509D01*
X129236135Y-87202509D01*
X129078451Y-87202509D01*
X129078448Y-87202509D01*
X128923803Y-87233270D01*
X128923791Y-87233273D01*
X128778120Y-87293611D01*
X128778107Y-87293618D01*
X128647004Y-87381219D01*
X128647000Y-87381222D01*
X128535506Y-87492716D01*
X128535503Y-87492720D01*
X128447902Y-87623823D01*
X128447895Y-87623836D01*
X128387557Y-87769507D01*
X128387554Y-87769519D01*
X128356793Y-87924162D01*
X126734114Y-87924162D01*
X126775050Y-87867818D01*
X126778125Y-87861783D01*
X126778125Y-87861782D01*
X126778126Y-87861780D01*
X126796732Y-87825264D01*
X126871557Y-87678412D01*
X126937246Y-87476243D01*
X126970500Y-87266287D01*
X126970500Y-87053713D01*
X126937246Y-86843757D01*
X126871557Y-86641588D01*
X126775051Y-86452184D01*
X126775049Y-86452181D01*
X126775048Y-86452179D01*
X126650109Y-86280213D01*
X126499786Y-86129890D01*
X126327820Y-86004951D01*
X126327115Y-86004591D01*
X126319054Y-86000485D01*
X126268259Y-85952512D01*
X126251463Y-85884692D01*
X126273999Y-85818556D01*
X126319054Y-85779515D01*
X126327816Y-85775051D01*
X126349789Y-85759086D01*
X126499786Y-85650109D01*
X126499788Y-85650106D01*
X126499792Y-85650104D01*
X126650104Y-85499792D01*
X126650106Y-85499788D01*
X126650109Y-85499786D01*
X126775048Y-85327820D01*
X126775050Y-85327817D01*
X126775051Y-85327816D01*
X126871557Y-85138412D01*
X126937246Y-84936243D01*
X126970500Y-84726287D01*
X126970500Y-84513713D01*
X126937246Y-84303757D01*
X126871557Y-84101588D01*
X126775051Y-83912184D01*
X126775049Y-83912181D01*
X126775048Y-83912179D01*
X126650109Y-83740213D01*
X126499786Y-83589890D01*
X126327820Y-83464951D01*
X126327115Y-83464591D01*
X126319054Y-83460485D01*
X126268259Y-83412512D01*
X126251463Y-83344692D01*
X126273999Y-83278556D01*
X126319054Y-83239515D01*
X126327816Y-83235051D01*
X126356357Y-83214315D01*
X126499786Y-83110109D01*
X126499788Y-83110106D01*
X126499792Y-83110104D01*
X126650104Y-82959792D01*
X126650106Y-82959788D01*
X126650109Y-82959786D01*
X126775048Y-82787820D01*
X126775047Y-82787820D01*
X126775051Y-82787816D01*
X126871557Y-82598412D01*
X126937246Y-82396243D01*
X126970500Y-82186287D01*
X126970500Y-81973713D01*
X126937246Y-81763757D01*
X126871557Y-81561588D01*
X126775051Y-81372184D01*
X126775049Y-81372181D01*
X126775048Y-81372179D01*
X126650109Y-81200213D01*
X126499786Y-81049890D01*
X126327820Y-80924951D01*
X126327115Y-80924591D01*
X126319054Y-80920485D01*
X126268259Y-80872512D01*
X126251463Y-80804692D01*
X126273999Y-80738556D01*
X126319054Y-80699515D01*
X126327816Y-80695051D01*
X126349789Y-80679086D01*
X126499786Y-80570109D01*
X126499788Y-80570106D01*
X126499792Y-80570104D01*
X126650104Y-80419792D01*
X126650106Y-80419788D01*
X126650109Y-80419786D01*
X126775048Y-80247820D01*
X126775047Y-80247820D01*
X126775051Y-80247816D01*
X126871557Y-80058412D01*
X126937246Y-79856243D01*
X126970500Y-79646287D01*
X126970500Y-79433713D01*
X126937246Y-79223757D01*
X126871557Y-79021588D01*
X126775051Y-78832184D01*
X126775049Y-78832181D01*
X126775048Y-78832179D01*
X126650109Y-78660213D01*
X126536181Y-78546285D01*
X126502696Y-78484962D01*
X126507680Y-78415270D01*
X126549552Y-78359337D01*
X126580529Y-78342422D01*
X126712086Y-78293354D01*
X126712093Y-78293350D01*
X126827187Y-78207190D01*
X126827190Y-78207187D01*
X126913350Y-78092093D01*
X126913354Y-78092086D01*
X126963596Y-77957379D01*
X126963598Y-77957372D01*
X126969999Y-77897844D01*
X126970000Y-77897827D01*
X126970000Y-77250000D01*
X126053012Y-77250000D01*
X126085925Y-77192993D01*
X126120000Y-77065826D01*
X126120000Y-76934174D01*
X126085925Y-76807007D01*
X126053012Y-76750000D01*
X126970000Y-76750000D01*
X126970000Y-76102172D01*
X126969999Y-76102155D01*
X126963598Y-76042627D01*
X126963596Y-76042620D01*
X126913354Y-75907913D01*
X126913350Y-75907906D01*
X126827190Y-75792812D01*
X126827187Y-75792809D01*
X126712093Y-75706649D01*
X126712086Y-75706645D01*
X126577379Y-75656403D01*
X126577372Y-75656401D01*
X126517844Y-75650000D01*
X125870000Y-75650000D01*
X125870000Y-76566988D01*
X125812993Y-76534075D01*
X125685826Y-76500000D01*
X125554174Y-76500000D01*
X125427007Y-76534075D01*
X125370000Y-76566988D01*
X125370000Y-75650000D01*
X124722155Y-75650000D01*
X124662627Y-75656401D01*
X124662620Y-75656403D01*
X124527913Y-75706645D01*
X124527906Y-75706649D01*
X124412812Y-75792809D01*
X124412809Y-75792812D01*
X124326649Y-75907906D01*
X124326645Y-75907913D01*
X124276403Y-76042619D01*
X124276401Y-76042626D01*
X124267497Y-76125444D01*
X124264434Y-76125114D01*
X124265336Y-76142094D01*
X124232356Y-76201195D01*
X123562962Y-76870590D01*
X123545925Y-76807007D01*
X123480099Y-76692993D01*
X123387007Y-76599901D01*
X123272993Y-76534075D01*
X123209409Y-76517037D01*
X123841716Y-75884728D01*
X123787550Y-75845375D01*
X123598217Y-75748904D01*
X123396129Y-75683242D01*
X123186246Y-75650000D01*
X122973754Y-75650000D01*
X122763872Y-75683242D01*
X122763869Y-75683242D01*
X122561782Y-75748904D01*
X122372439Y-75845380D01*
X122318282Y-75884727D01*
X122318282Y-75884728D01*
X122950591Y-76517037D01*
X122887007Y-76534075D01*
X122772993Y-76599901D01*
X122679901Y-76692993D01*
X122614075Y-76807007D01*
X122597037Y-76870591D01*
X121964728Y-76238282D01*
X121964727Y-76238282D01*
X121924819Y-76293213D01*
X121869489Y-76335879D01*
X121799876Y-76341858D01*
X121738080Y-76309253D01*
X121703723Y-76248414D01*
X121700500Y-76220328D01*
X121700500Y-71862332D01*
X122249500Y-71862332D01*
X122249500Y-72137667D01*
X122249501Y-72137684D01*
X122285438Y-72410655D01*
X122285439Y-72410660D01*
X122285440Y-72410666D01*
X122306859Y-72490602D01*
X122356704Y-72676630D01*
X122462075Y-72931017D01*
X122462080Y-72931028D01*
X122541809Y-73069121D01*
X122599751Y-73169479D01*
X122599753Y-73169482D01*
X122599754Y-73169483D01*
X122767370Y-73387926D01*
X122767376Y-73387933D01*
X122962066Y-73582623D01*
X122962072Y-73582628D01*
X123180521Y-73750249D01*
X123304432Y-73821789D01*
X123418971Y-73887919D01*
X123418976Y-73887921D01*
X123418979Y-73887923D01*
X123673368Y-73993295D01*
X123939334Y-74064560D01*
X124212326Y-74100500D01*
X124212333Y-74100500D01*
X124487667Y-74100500D01*
X124487674Y-74100500D01*
X124760666Y-74064560D01*
X125026632Y-73993295D01*
X125281021Y-73887923D01*
X125519479Y-73750249D01*
X125737928Y-73582628D01*
X125932628Y-73387928D01*
X126100249Y-73169479D01*
X126237923Y-72931021D01*
X126343295Y-72676632D01*
X126414560Y-72410666D01*
X126450500Y-72137674D01*
X126450500Y-71862326D01*
X126414560Y-71589334D01*
X126343295Y-71323368D01*
X126237923Y-71068979D01*
X126237921Y-71068976D01*
X126237919Y-71068971D01*
X126188732Y-70983778D01*
X126100249Y-70830521D01*
X125932628Y-70612072D01*
X125932623Y-70612066D01*
X125737933Y-70417376D01*
X125737926Y-70417370D01*
X125519483Y-70249754D01*
X125519482Y-70249753D01*
X125519479Y-70249751D01*
X125424407Y-70194861D01*
X125281028Y-70112080D01*
X125281017Y-70112075D01*
X125026630Y-70006704D01*
X124893649Y-69971072D01*
X124760666Y-69935440D01*
X124760660Y-69935439D01*
X124760655Y-69935438D01*
X124487684Y-69899501D01*
X124487679Y-69899500D01*
X124487674Y-69899500D01*
X124212326Y-69899500D01*
X124212320Y-69899500D01*
X124212315Y-69899501D01*
X123939344Y-69935438D01*
X123939337Y-69935439D01*
X123939334Y-69935440D01*
X123883125Y-69950500D01*
X123673369Y-70006704D01*
X123418982Y-70112075D01*
X123418971Y-70112080D01*
X123180516Y-70249754D01*
X122962073Y-70417370D01*
X122962066Y-70417376D01*
X122767376Y-70612066D01*
X122767370Y-70612073D01*
X122599754Y-70830516D01*
X122462080Y-71068971D01*
X122462075Y-71068982D01*
X122356704Y-71323369D01*
X122285441Y-71589331D01*
X122285438Y-71589344D01*
X122249501Y-71862315D01*
X122249500Y-71862332D01*
X121700500Y-71862332D01*
X121700500Y-68311153D01*
X127799500Y-68311153D01*
X127799500Y-68468846D01*
X127830261Y-68623489D01*
X127830264Y-68623501D01*
X127890602Y-68769172D01*
X127890609Y-68769185D01*
X127978210Y-68900288D01*
X127978213Y-68900292D01*
X128089707Y-69011786D01*
X128089711Y-69011789D01*
X128220814Y-69099390D01*
X128220827Y-69099397D01*
X128366498Y-69159735D01*
X128366503Y-69159737D01*
X128521153Y-69190499D01*
X128521156Y-69190500D01*
X128521158Y-69190500D01*
X128678844Y-69190500D01*
X128678845Y-69190499D01*
X128833497Y-69159737D01*
X128979179Y-69099394D01*
X129110289Y-69011789D01*
X129221789Y-68900289D01*
X129309394Y-68769179D01*
X129369737Y-68623497D01*
X129400500Y-68468842D01*
X129400500Y-68311158D01*
X129400500Y-68311155D01*
X129400499Y-68311153D01*
X129369738Y-68156510D01*
X129369737Y-68156503D01*
X129369735Y-68156498D01*
X129309397Y-68010827D01*
X129309390Y-68010814D01*
X129221789Y-67879711D01*
X129221786Y-67879707D01*
X129110292Y-67768213D01*
X129110288Y-67768210D01*
X128979185Y-67680609D01*
X128979172Y-67680602D01*
X128833501Y-67620264D01*
X128833489Y-67620261D01*
X128678845Y-67589500D01*
X128678842Y-67589500D01*
X128521158Y-67589500D01*
X128521155Y-67589500D01*
X128366510Y-67620261D01*
X128366498Y-67620264D01*
X128220827Y-67680602D01*
X128220814Y-67680609D01*
X128089711Y-67768210D01*
X128089707Y-67768213D01*
X127978213Y-67879707D01*
X127978210Y-67879711D01*
X127890609Y-68010814D01*
X127890602Y-68010827D01*
X127830264Y-68156498D01*
X127830261Y-68156510D01*
X127799500Y-68311153D01*
X121700500Y-68311153D01*
X121700500Y-65621153D01*
X130229500Y-65621153D01*
X130229500Y-65778846D01*
X130260261Y-65933489D01*
X130260264Y-65933501D01*
X130320602Y-66079172D01*
X130320609Y-66079185D01*
X130408210Y-66210288D01*
X130408213Y-66210292D01*
X130519707Y-66321786D01*
X130519711Y-66321789D01*
X130650814Y-66409390D01*
X130650827Y-66409397D01*
X130750060Y-66450500D01*
X130796503Y-66469737D01*
X130951153Y-66500499D01*
X130951156Y-66500500D01*
X130951158Y-66500500D01*
X131108844Y-66500500D01*
X131108845Y-66500499D01*
X131263497Y-66469737D01*
X131409179Y-66409394D01*
X131540289Y-66321789D01*
X131651789Y-66210289D01*
X131739394Y-66079179D01*
X131799737Y-65933497D01*
X131830500Y-65778842D01*
X131830500Y-65621158D01*
X131830500Y-65621155D01*
X131824155Y-65589258D01*
X131824155Y-65589257D01*
X131820554Y-65571153D01*
X137884500Y-65571153D01*
X137884500Y-65728846D01*
X137915261Y-65883489D01*
X137915264Y-65883501D01*
X137975602Y-66029172D01*
X137975609Y-66029185D01*
X138063210Y-66160288D01*
X138063213Y-66160292D01*
X138174707Y-66271786D01*
X138174711Y-66271789D01*
X138305814Y-66359390D01*
X138305827Y-66359397D01*
X138451498Y-66419735D01*
X138451503Y-66419737D01*
X138606153Y-66450499D01*
X138606156Y-66450500D01*
X138606158Y-66450500D01*
X138763844Y-66450500D01*
X138763845Y-66450499D01*
X138918497Y-66419737D01*
X139064179Y-66359394D01*
X139195289Y-66271789D01*
X139306789Y-66160289D01*
X139394394Y-66029179D01*
X139454737Y-65883497D01*
X139485500Y-65728842D01*
X139485500Y-65571158D01*
X139485500Y-65571155D01*
X139485499Y-65571153D01*
X139464684Y-65466510D01*
X139454737Y-65416503D01*
X139415102Y-65320814D01*
X139394397Y-65270827D01*
X139394390Y-65270814D01*
X139306789Y-65139711D01*
X139306786Y-65139707D01*
X139195292Y-65028213D01*
X139195288Y-65028210D01*
X139064185Y-64940609D01*
X139064172Y-64940602D01*
X138918501Y-64880264D01*
X138918489Y-64880261D01*
X138763845Y-64849500D01*
X138763842Y-64849500D01*
X138606158Y-64849500D01*
X138606155Y-64849500D01*
X138451510Y-64880261D01*
X138451498Y-64880264D01*
X138305827Y-64940602D01*
X138305814Y-64940609D01*
X138174711Y-65028210D01*
X138174707Y-65028213D01*
X138063213Y-65139707D01*
X138063210Y-65139711D01*
X137975609Y-65270814D01*
X137975602Y-65270827D01*
X137915264Y-65416498D01*
X137915261Y-65416510D01*
X137884500Y-65571153D01*
X131820554Y-65571153D01*
X131799738Y-65466510D01*
X131799737Y-65466503D01*
X131799735Y-65466498D01*
X131739397Y-65320827D01*
X131739390Y-65320814D01*
X131651789Y-65189711D01*
X131651786Y-65189707D01*
X131540292Y-65078213D01*
X131540288Y-65078210D01*
X131409185Y-64990609D01*
X131409172Y-64990602D01*
X131263501Y-64930264D01*
X131263489Y-64930261D01*
X131108845Y-64899500D01*
X131108842Y-64899500D01*
X130951158Y-64899500D01*
X130951155Y-64899500D01*
X130796510Y-64930261D01*
X130796498Y-64930264D01*
X130650827Y-64990602D01*
X130650814Y-64990609D01*
X130519711Y-65078210D01*
X130519707Y-65078213D01*
X130408213Y-65189707D01*
X130408210Y-65189711D01*
X130320609Y-65320814D01*
X130320602Y-65320827D01*
X130260264Y-65466498D01*
X130260261Y-65466510D01*
X130229500Y-65621153D01*
X121700500Y-65621153D01*
X121700500Y-63401491D01*
X121700606Y-63396367D01*
X121703225Y-63333038D01*
X121719071Y-62949893D01*
X121719914Y-62939724D01*
X121774874Y-62498813D01*
X121776554Y-62488741D01*
X121867734Y-62053882D01*
X121870241Y-62043986D01*
X121997021Y-61618137D01*
X122000342Y-61608469D01*
X122161839Y-61194586D01*
X122165953Y-61185207D01*
X122361087Y-60786052D01*
X122365952Y-60777064D01*
X122593388Y-60395377D01*
X122598981Y-60386817D01*
X122857152Y-60025226D01*
X122863420Y-60017172D01*
X123150581Y-59678123D01*
X123157506Y-59670602D01*
X123471668Y-59356438D01*
X123479183Y-59349519D01*
X123818232Y-59062361D01*
X123826306Y-59056076D01*
X124187897Y-58797905D01*
X124196454Y-58792315D01*
X124550886Y-58581121D01*
X124578132Y-58564886D01*
X124587137Y-58560013D01*
X124986268Y-58364889D01*
X124995650Y-58360774D01*
X125409553Y-58199269D01*
X125419205Y-58195954D01*
X125845054Y-58069174D01*
X125854950Y-58066667D01*
X126289809Y-57975487D01*
X126299881Y-57973807D01*
X126740792Y-57918848D01*
X126750961Y-57918005D01*
X127197437Y-57899539D01*
X127202559Y-57899434D01*
X127265892Y-57899434D01*
X127265892Y-57899433D01*
X139895572Y-57899432D01*
X139904418Y-57899748D01*
X140104561Y-57914062D01*
X140122063Y-57916579D01*
X140313795Y-57958287D01*
X140330760Y-57963268D01*
X140514611Y-58031841D01*
X140530694Y-58039185D01*
X140585628Y-58069182D01*
X140702908Y-58133222D01*
X140717791Y-58142787D01*
X140874864Y-58260370D01*
X140888235Y-58271956D01*
X141026975Y-58410696D01*
X141038561Y-58424067D01*
X141156144Y-58581140D01*
X141165709Y-58596023D01*
X141259743Y-58768232D01*
X141267093Y-58784326D01*
X141335661Y-58968166D01*
X141340645Y-58985141D01*
X141382351Y-59176863D01*
X141384869Y-59194374D01*
X141399184Y-59394512D01*
X141399500Y-59403359D01*
X141399500Y-75734108D01*
X141399500Y-75800000D01*
X141399500Y-75951252D01*
X141435963Y-76251551D01*
X141456748Y-76335879D01*
X141508358Y-76545271D01*
X141615627Y-76828113D01*
X141756207Y-77095968D01*
X141928050Y-77344924D01*
X141928052Y-77344926D01*
X141928054Y-77344929D01*
X142128646Y-77571351D01*
X142128648Y-77571353D01*
X142343524Y-77761716D01*
X142355076Y-77771950D01*
X142604032Y-77943793D01*
X142871887Y-78084373D01*
X143067783Y-78158666D01*
X143154728Y-78191641D01*
X143154730Y-78191641D01*
X143154734Y-78191643D01*
X143448449Y-78264037D01*
X143689863Y-78293350D01*
X143748746Y-78300500D01*
X143748748Y-78300500D01*
X158051254Y-78300500D01*
X158110137Y-78293350D01*
X158351551Y-78264037D01*
X158645266Y-78191643D01*
X158928113Y-78084373D01*
X159195968Y-77943793D01*
X159444924Y-77771950D01*
X159671352Y-77571352D01*
X159871950Y-77344924D01*
X160043793Y-77095968D01*
X160184373Y-76828113D01*
X160291643Y-76545266D01*
X160364037Y-76251551D01*
X160400500Y-75951252D01*
X160400500Y-75800000D01*
X160400500Y-75734108D01*
X160400500Y-71862332D01*
X170549500Y-71862332D01*
X170549500Y-72137667D01*
X170549501Y-72137684D01*
X170585438Y-72410655D01*
X170585439Y-72410660D01*
X170585440Y-72410666D01*
X170606859Y-72490602D01*
X170656704Y-72676630D01*
X170762075Y-72931017D01*
X170762080Y-72931028D01*
X170841809Y-73069121D01*
X170899751Y-73169479D01*
X170899753Y-73169482D01*
X170899754Y-73169483D01*
X171067370Y-73387926D01*
X171067376Y-73387933D01*
X171262066Y-73582623D01*
X171262072Y-73582628D01*
X171480521Y-73750249D01*
X171604432Y-73821789D01*
X171718971Y-73887919D01*
X171718976Y-73887921D01*
X171718979Y-73887923D01*
X171973368Y-73993295D01*
X172239334Y-74064560D01*
X172512326Y-74100500D01*
X172512333Y-74100500D01*
X172787667Y-74100500D01*
X172787674Y-74100500D01*
X173060666Y-74064560D01*
X173326632Y-73993295D01*
X173581021Y-73887923D01*
X173819479Y-73750249D01*
X174037928Y-73582628D01*
X174232628Y-73387928D01*
X174400249Y-73169479D01*
X174537923Y-72931021D01*
X174643295Y-72676632D01*
X174714560Y-72410666D01*
X174750500Y-72137674D01*
X174750500Y-71862326D01*
X174714560Y-71589334D01*
X174643295Y-71323368D01*
X174537923Y-71068979D01*
X174537921Y-71068976D01*
X174537919Y-71068971D01*
X174488732Y-70983778D01*
X174400249Y-70830521D01*
X174232628Y-70612072D01*
X174232623Y-70612066D01*
X174037933Y-70417376D01*
X174037926Y-70417370D01*
X173819483Y-70249754D01*
X173819482Y-70249753D01*
X173819479Y-70249751D01*
X173724407Y-70194861D01*
X173581028Y-70112080D01*
X173581017Y-70112075D01*
X173326630Y-70006704D01*
X173193649Y-69971072D01*
X173060666Y-69935440D01*
X173060660Y-69935439D01*
X173060655Y-69935438D01*
X172787684Y-69899501D01*
X172787679Y-69899500D01*
X172787674Y-69899500D01*
X172512326Y-69899500D01*
X172512320Y-69899500D01*
X172512315Y-69899501D01*
X172239344Y-69935438D01*
X172239337Y-69935439D01*
X172239334Y-69935440D01*
X172183125Y-69950500D01*
X171973369Y-70006704D01*
X171718982Y-70112075D01*
X171718971Y-70112080D01*
X171480516Y-70249754D01*
X171262073Y-70417370D01*
X171262066Y-70417376D01*
X171067376Y-70612066D01*
X171067370Y-70612073D01*
X170899754Y-70830516D01*
X170762080Y-71068971D01*
X170762075Y-71068982D01*
X170656704Y-71323369D01*
X170585441Y-71589331D01*
X170585438Y-71589344D01*
X170549501Y-71862315D01*
X170549500Y-71862332D01*
X160400500Y-71862332D01*
X160400500Y-59464817D01*
X160400502Y-59464810D01*
X160400500Y-59403334D01*
X160400816Y-59394496D01*
X160404032Y-59349510D01*
X160415124Y-59194363D01*
X160417641Y-59176854D01*
X160422226Y-59155777D01*
X160459347Y-58985120D01*
X160464329Y-58968153D01*
X160472076Y-58947381D01*
X160532897Y-58784304D01*
X160540240Y-58768225D01*
X160634282Y-58595995D01*
X160643837Y-58581129D01*
X160761428Y-58424044D01*
X160773002Y-58410687D01*
X160911755Y-58271934D01*
X160925112Y-58260360D01*
X161082197Y-58142769D01*
X161097063Y-58133214D01*
X161269293Y-58039172D01*
X161285372Y-58031829D01*
X161469223Y-57963260D01*
X161486188Y-57958279D01*
X161677927Y-57916572D01*
X161695431Y-57914056D01*
X161895568Y-57899747D01*
X161904407Y-57899432D01*
X161965878Y-57899434D01*
X161965881Y-57899432D01*
X161974501Y-57899433D01*
X161974530Y-57899432D01*
X169734106Y-57899432D01*
X169797436Y-57899432D01*
X169802560Y-57899538D01*
G37*
%TD.AperFunction*%
%TA.AperFunction,Conductor*%
G36*
X124232356Y-77798803D02*
G01*
X124265841Y-77860126D01*
X124264926Y-77874831D01*
X124267497Y-77874555D01*
X124276401Y-77957373D01*
X124276403Y-77957380D01*
X124326645Y-78092086D01*
X124326649Y-78092093D01*
X124412809Y-78207187D01*
X124412812Y-78207190D01*
X124527906Y-78293350D01*
X124527913Y-78293354D01*
X124659470Y-78342422D01*
X124715404Y-78384293D01*
X124739821Y-78449758D01*
X124724969Y-78518031D01*
X124703819Y-78546285D01*
X124589889Y-78660215D01*
X124464949Y-78832182D01*
X124460484Y-78840946D01*
X124412509Y-78891742D01*
X124344688Y-78908536D01*
X124278553Y-78885998D01*
X124239516Y-78840946D01*
X124235050Y-78832182D01*
X124110109Y-78660213D01*
X123959786Y-78509890D01*
X123787817Y-78384949D01*
X123778504Y-78380204D01*
X123727707Y-78332230D01*
X123710912Y-78264409D01*
X123733449Y-78198274D01*
X123778507Y-78159232D01*
X123787555Y-78154622D01*
X123841716Y-78115270D01*
X123841717Y-78115270D01*
X123209408Y-77482962D01*
X123272993Y-77465925D01*
X123387007Y-77400099D01*
X123480099Y-77307007D01*
X123545925Y-77192993D01*
X123562962Y-77129408D01*
X124232356Y-77798803D01*
G37*
%TD.AperFunction*%
%TA.AperFunction,Conductor*%
G36*
X122614075Y-77192993D02*
G01*
X122679901Y-77307007D01*
X122772993Y-77400099D01*
X122887007Y-77465925D01*
X122950590Y-77482962D01*
X122318282Y-78115269D01*
X122318282Y-78115270D01*
X122372452Y-78154626D01*
X122372451Y-78154626D01*
X122381495Y-78159234D01*
X122432292Y-78207208D01*
X122449087Y-78275029D01*
X122426550Y-78341164D01*
X122381499Y-78380202D01*
X122372182Y-78384949D01*
X122200213Y-78509890D01*
X122049894Y-78660209D01*
X122049890Y-78660214D01*
X121924818Y-78832363D01*
X121869489Y-78875029D01*
X121799875Y-78881008D01*
X121738080Y-78848403D01*
X121703723Y-78787564D01*
X121700500Y-78759478D01*
X121700500Y-77779669D01*
X121720185Y-77712630D01*
X121772989Y-77666875D01*
X121842147Y-77656931D01*
X121905703Y-77685956D01*
X121924819Y-77706785D01*
X121964728Y-77761716D01*
X122597037Y-77129408D01*
X122614075Y-77192993D01*
G37*
%TD.AperFunction*%
%TD*%
M02*
