%TF.GenerationSoftware,KiCad,Pcbnew,10.0.3*%
%TF.CreationDate,2026-06-17T18:34:48-04:00*%
%TF.ProjectId,Ion-0,496f6e2d-302e-46b6-9963-61645f706362,V0.5*%
%TF.SameCoordinates,Original*%
%TF.FileFunction,Soldermask,Bot*%
%TF.FilePolarity,Negative*%
%FSLAX46Y46*%
G04 Gerber Fmt 4.6, Leading zero omitted, Abs format (unit mm)*
G04 Created by KiCad (PCBNEW 10.0.3) date 2026-06-17 18:34:48*
%MOMM*%
%LPD*%
G01*
G04 APERTURE LIST*
G04 Aperture macros list*
%AMRoundRect*
0 Rectangle with rounded corners*
0 $1 Rounding radius*
0 $2 $3 $4 $5 $6 $7 $8 $9 X,Y pos of 4 corners*
0 Add a 4 corners polygon primitive as box body*
4,1,4,$2,$3,$4,$5,$6,$7,$8,$9,$2,$3,0*
0 Add four circle primitives for the rounded corners*
1,1,$1+$1,$2,$3*
1,1,$1+$1,$4,$5*
1,1,$1+$1,$6,$7*
1,1,$1+$1,$8,$9*
0 Add four rect primitives between the rounded corners*
20,1,$1+$1,$2,$3,$4,$5,0*
20,1,$1+$1,$4,$5,$6,$7,0*
20,1,$1+$1,$6,$7,$8,$9,0*
20,1,$1+$1,$8,$9,$2,$3,0*%
G04 Aperture macros list end*
%ADD10RoundRect,0.250000X-0.750000X-0.750000X0.750000X-0.750000X0.750000X0.750000X-0.750000X0.750000X0*%
%ADD11C,2.000000*%
%ADD12C,0.499999*%
%ADD13R,1.700000X1.700000*%
%ADD14C,1.700000*%
%ADD15RoundRect,0.225000X-0.225000X-0.250000X0.225000X-0.250000X0.225000X0.250000X-0.225000X0.250000X0*%
G04 APERTURE END LIST*
D10*
%TO.C,J15*%
X156170000Y-139870000D03*
D11*
X158710000Y-139870000D03*
X161250000Y-139870000D03*
X163790000Y-139870000D03*
%TD*%
D10*
%TO.C,J7*%
X142510000Y-139870000D03*
D11*
X145050000Y-139870000D03*
X147590000Y-139870000D03*
X150130000Y-139870000D03*
%TD*%
D10*
%TO.C,J8*%
X134250000Y-139870000D03*
D11*
X136790000Y-139870000D03*
%TD*%
D12*
%TO.C,U7*%
X136932500Y-91354999D03*
X136357500Y-92305000D03*
X136357500Y-90404998D03*
X135782500Y-91354999D03*
%TD*%
D13*
%TO.C,J1*%
X125620000Y-77000000D03*
D14*
X123080000Y-77000000D03*
X125620000Y-79540000D03*
X123080000Y-79540000D03*
X125620000Y-82080000D03*
X123080000Y-82080000D03*
X125620000Y-84620000D03*
X123080000Y-84620000D03*
X125620000Y-87160000D03*
X123080000Y-87160000D03*
X125620000Y-89700000D03*
X123080000Y-89700000D03*
X125620000Y-92240000D03*
X123080000Y-92240000D03*
X125620000Y-94780000D03*
X123080000Y-94780000D03*
X125620000Y-97320000D03*
X123080000Y-97320000D03*
X125620000Y-99860000D03*
X123080000Y-99860000D03*
X125620000Y-102400000D03*
X123080000Y-102400000D03*
X125620000Y-104940000D03*
X123080000Y-104940000D03*
X125620000Y-107480000D03*
X123080000Y-107480000D03*
X125620000Y-110020000D03*
X123080000Y-110020000D03*
X125620000Y-112560000D03*
X123080000Y-112560000D03*
X125620000Y-115100000D03*
X123080000Y-115100000D03*
X125620000Y-117640000D03*
X123080000Y-117640000D03*
X125620000Y-120180000D03*
X123080000Y-120180000D03*
X125620000Y-122720000D03*
X123080000Y-122720000D03*
X125620000Y-125260000D03*
X123080000Y-125260000D03*
X125620000Y-127800000D03*
X123080000Y-127800000D03*
X125620000Y-130340000D03*
X123080000Y-130340000D03*
X125620000Y-132880000D03*
X123080000Y-132880000D03*
%TD*%
D13*
%TO.C,J2*%
X173920000Y-77000000D03*
D14*
X171380000Y-77000000D03*
X173920000Y-79540000D03*
X171380000Y-79540000D03*
X173920000Y-82080000D03*
X171380000Y-82080000D03*
X173920000Y-84620000D03*
X171380000Y-84620000D03*
X173920000Y-87160000D03*
X171380000Y-87160000D03*
X173920000Y-89700000D03*
X171380000Y-89700000D03*
X173920000Y-92240000D03*
X171380000Y-92240000D03*
X173920000Y-94780000D03*
X171380000Y-94780000D03*
X173920000Y-97320000D03*
X171380000Y-97320000D03*
X173920000Y-99860000D03*
X171380000Y-99860000D03*
X173920000Y-102400000D03*
X171380000Y-102400000D03*
X173920000Y-104940000D03*
X171380000Y-104940000D03*
X173920000Y-107480000D03*
X171380000Y-107480000D03*
X173920000Y-110020000D03*
X171380000Y-110020000D03*
X173920000Y-112560000D03*
X171380000Y-112560000D03*
X173920000Y-115100000D03*
X171380000Y-115100000D03*
X173920000Y-117640000D03*
X171380000Y-117640000D03*
X173920000Y-120180000D03*
X171380000Y-120180000D03*
X173920000Y-122720000D03*
X171380000Y-122720000D03*
X173920000Y-125260000D03*
X171380000Y-125260000D03*
X173920000Y-127800000D03*
X171380000Y-127800000D03*
X173920000Y-130340000D03*
X171380000Y-130340000D03*
X173920000Y-132880000D03*
X171380000Y-132880000D03*
%TD*%
D15*
%TO.C,C29*%
X149715000Y-128270000D03*
X151265000Y-128270000D03*
%TD*%
M02*
