%TF.GenerationSoftware,KiCad,Pcbnew,10.0.3*%
%TF.CreationDate,2026-06-17T18:34:47-04:00*%
%TF.ProjectId,Ion-0,496f6e2d-302e-46b6-9963-61645f706362,V0.5*%
%TF.SameCoordinates,Original*%
%TF.FileFunction,Paste,Top*%
%TF.FilePolarity,Positive*%
%FSLAX46Y46*%
G04 Gerber Fmt 4.6, Leading zero omitted, Abs format (unit mm)*
G04 Created by KiCad (PCBNEW 10.0.3) date 2026-06-17 18:34:47*
%MOMM*%
%LPD*%
G01*
G04 APERTURE LIST*
G04 Aperture macros list*
%AMRoundRect*
0 Rectangle with rounded corners*
0 $1 Rounding radius*
0 $2 $3 $4 $5 $6 $7 $8 $9 X,Y pos of 4 corners*
0 Add a 4 corners polygon primitive as box body*
4,1,4,$2,$3,$4,$5,$6,$7,$8,$9,$2,$3,0*
0 Add four circle primitives for the rounded corners*
1,1,$1+$1,$2,$3*
1,1,$1+$1,$4,$5*
1,1,$1+$1,$6,$7*
1,1,$1+$1,$8,$9*
0 Add four rect primitives between the rounded corners*
20,1,$1+$1,$2,$3,$4,$5,0*
20,1,$1+$1,$4,$5,$6,$7,0*
20,1,$1+$1,$6,$7,$8,$9,0*
20,1,$1+$1,$8,$9,$2,$3,0*%
G04 Aperture macros list end*
%ADD10C,0.000000*%
%ADD11C,0.010000*%
%ADD12RoundRect,0.140000X-0.170000X0.140000X-0.170000X-0.140000X0.170000X-0.140000X0.170000X0.140000X0*%
%ADD13RoundRect,0.225000X0.250000X-0.225000X0.250000X0.225000X-0.250000X0.225000X-0.250000X-0.225000X0*%
%ADD14RoundRect,0.237500X-0.250000X-0.237500X0.250000X-0.237500X0.250000X0.237500X-0.250000X0.237500X0*%
%ADD15RoundRect,0.250000X0.700000X-0.275000X0.700000X0.275000X-0.700000X0.275000X-0.700000X-0.275000X0*%
%ADD16RoundRect,0.150000X-0.150000X0.587500X-0.150000X-0.587500X0.150000X-0.587500X0.150000X0.587500X0*%
%ADD17R,3.000000X1.000000*%
%ADD18RoundRect,0.237500X0.250000X0.237500X-0.250000X0.237500X-0.250000X-0.237500X0.250000X-0.237500X0*%
%ADD19RoundRect,0.225000X0.225000X0.250000X-0.225000X0.250000X-0.225000X-0.250000X0.225000X-0.250000X0*%
%ADD20RoundRect,0.237500X0.237500X-0.250000X0.237500X0.250000X-0.237500X0.250000X-0.237500X-0.250000X0*%
%ADD21RoundRect,0.225000X-0.225000X-0.250000X0.225000X-0.250000X0.225000X0.250000X-0.225000X0.250000X0*%
%ADD22R,0.675000X0.250000*%
%ADD23R,0.250000X0.575000*%
%ADD24RoundRect,0.150000X0.150000X0.625000X-0.150000X0.625000X-0.150000X-0.625000X0.150000X-0.625000X0*%
%ADD25RoundRect,0.250000X0.350000X0.650000X-0.350000X0.650000X-0.350000X-0.650000X0.350000X-0.650000X0*%
%ADD26RoundRect,0.147500X0.147500X0.172500X-0.147500X0.172500X-0.147500X-0.172500X0.147500X-0.172500X0*%
%ADD27RoundRect,0.218750X-0.218750X-0.256250X0.218750X-0.256250X0.218750X0.256250X-0.218750X0.256250X0*%
%ADD28RoundRect,0.225000X-0.250000X0.225000X-0.250000X-0.225000X0.250000X-0.225000X0.250000X0.225000X0*%
%ADD29RoundRect,0.237500X-0.237500X0.287500X-0.237500X-0.287500X0.237500X-0.287500X0.237500X0.287500X0*%
%ADD30O,1.699999X0.449999*%
%ADD31RoundRect,0.150000X-0.825000X-0.150000X0.825000X-0.150000X0.825000X0.150000X-0.825000X0.150000X0*%
%ADD32R,0.550000X0.950000*%
%ADD33R,0.599999X0.240000*%
%ADD34RoundRect,0.250000X-0.625000X0.312500X-0.625000X-0.312500X0.625000X-0.312500X0.625000X0.312500X0*%
%ADD35RoundRect,0.237500X-0.237500X0.250000X-0.237500X-0.250000X0.237500X-0.250000X0.237500X0.250000X0*%
%ADD36R,4.200000X2.000000*%
%ADD37RoundRect,0.218750X0.218750X0.256250X-0.218750X0.256250X-0.218750X-0.256250X0.218750X-0.256250X0*%
%ADD38RoundRect,0.150000X0.587500X0.150000X-0.587500X0.150000X-0.587500X-0.150000X0.587500X-0.150000X0*%
%ADD39RoundRect,0.150000X-0.150000X-0.350000X0.150000X-0.350000X0.150000X0.350000X-0.150000X0.350000X0*%
%ADD40RoundRect,0.100000X-0.200000X-0.100000X0.200000X-0.100000X0.200000X0.100000X-0.200000X0.100000X0*%
%ADD41RoundRect,0.100000X0.400000X0.400000X-0.400000X0.400000X-0.400000X-0.400000X0.400000X-0.400000X0*%
%ADD42RoundRect,0.105000X0.420000X0.995000X-0.420000X0.995000X-0.420000X-0.995000X0.420000X-0.995000X0*%
%ADD43R,0.304800X1.143000*%
%ADD44R,1.143000X0.304800*%
%ADD45RoundRect,0.218750X0.256250X-0.218750X0.256250X0.218750X-0.256250X0.218750X-0.256250X-0.218750X0*%
G04 APERTURE END LIST*
D10*
%TO.C,U7*%
G36*
X137107501Y-91255002D02*
G01*
X135607502Y-91255002D01*
X135607502Y-90195001D01*
X137107501Y-90195001D01*
X137107501Y-91255002D01*
G37*
G36*
X137107501Y-92514999D02*
G01*
X135607502Y-92514999D01*
X135607502Y-91454999D01*
X137107501Y-91454999D01*
X137107501Y-92514999D01*
G37*
D11*
%TO.C,U6*%
X153870000Y-89770000D02*
X154570000Y-89770000D01*
X154570000Y-91170000D01*
X154470000Y-91170000D01*
X154470000Y-92070000D01*
X153970000Y-92070000D01*
X153970000Y-91170000D01*
X153870000Y-91170000D01*
X153870000Y-89770000D01*
G36*
X154570000Y-91170000D02*
G01*
X154470000Y-91170000D01*
X154470000Y-92070000D01*
X153970000Y-92070000D01*
X153970000Y-91170000D01*
X153870000Y-91170000D01*
X153870000Y-89770000D01*
X154570000Y-89770000D01*
X154570000Y-91170000D01*
G37*
X153870000Y-102270000D02*
X154570000Y-102270000D01*
X154570000Y-100870000D01*
X154470000Y-100870000D01*
X154470000Y-99970000D01*
X153970000Y-99970000D01*
X153970000Y-100870000D01*
X153870000Y-100870000D01*
X153870000Y-102270000D01*
G36*
X154470000Y-100870000D02*
G01*
X154570000Y-100870000D01*
X154570000Y-102270000D01*
X153870000Y-102270000D01*
X153870000Y-100870000D01*
X153970000Y-100870000D01*
X153970000Y-99970000D01*
X154470000Y-99970000D01*
X154470000Y-100870000D01*
G37*
X154920000Y-89770000D02*
X155720000Y-89770000D01*
X155720000Y-91170000D01*
X155620000Y-91170000D01*
X155620000Y-92070000D01*
X155020000Y-92070000D01*
X155020000Y-91170000D01*
X154920000Y-91170000D01*
X154920000Y-89770000D01*
G36*
X155720000Y-91170000D02*
G01*
X155620000Y-91170000D01*
X155620000Y-92070000D01*
X155020000Y-92070000D01*
X155020000Y-91170000D01*
X154920000Y-91170000D01*
X154920000Y-89770000D01*
X155720000Y-89770000D01*
X155720000Y-91170000D01*
G37*
X154920000Y-102270000D02*
X155720000Y-102270000D01*
X155720000Y-100870000D01*
X155620000Y-100870000D01*
X155620000Y-99970000D01*
X155020000Y-99970000D01*
X155020000Y-100870000D01*
X154920000Y-100870000D01*
X154920000Y-102270000D01*
G36*
X155620000Y-100870000D02*
G01*
X155720000Y-100870000D01*
X155720000Y-102270000D01*
X154920000Y-102270000D01*
X154920000Y-100870000D01*
X155020000Y-100870000D01*
X155020000Y-99970000D01*
X155620000Y-99970000D01*
X155620000Y-100870000D01*
G37*
X156020000Y-89770000D02*
X156820000Y-89770000D01*
X156820000Y-91170000D01*
X156720000Y-91170000D01*
X156720000Y-92070000D01*
X156120000Y-92070000D01*
X156120000Y-91170000D01*
X156020000Y-91170000D01*
X156020000Y-89770000D01*
G36*
X156820000Y-91170000D02*
G01*
X156720000Y-91170000D01*
X156720000Y-92070000D01*
X156120000Y-92070000D01*
X156120000Y-91170000D01*
X156020000Y-91170000D01*
X156020000Y-89770000D01*
X156820000Y-89770000D01*
X156820000Y-91170000D01*
G37*
X156020000Y-102270000D02*
X156820000Y-102270000D01*
X156820000Y-100870000D01*
X156720000Y-100870000D01*
X156720000Y-99970000D01*
X156120000Y-99970000D01*
X156120000Y-100870000D01*
X156020000Y-100870000D01*
X156020000Y-102270000D01*
G36*
X156720000Y-100870000D02*
G01*
X156820000Y-100870000D01*
X156820000Y-102270000D01*
X156020000Y-102270000D01*
X156020000Y-100870000D01*
X156120000Y-100870000D01*
X156120000Y-99970000D01*
X156720000Y-99970000D01*
X156720000Y-100870000D01*
G37*
X157120000Y-89770000D02*
X157920000Y-89770000D01*
X157920000Y-91170000D01*
X157820000Y-91170000D01*
X157820000Y-92070000D01*
X157220000Y-92070000D01*
X157220000Y-91170000D01*
X157120000Y-91170000D01*
X157120000Y-89770000D01*
G36*
X157920000Y-91170000D02*
G01*
X157820000Y-91170000D01*
X157820000Y-92070000D01*
X157220000Y-92070000D01*
X157220000Y-91170000D01*
X157120000Y-91170000D01*
X157120000Y-89770000D01*
X157920000Y-89770000D01*
X157920000Y-91170000D01*
G37*
X157120000Y-102270000D02*
X157920000Y-102270000D01*
X157920000Y-100870000D01*
X157820000Y-100870000D01*
X157820000Y-99970000D01*
X157220000Y-99970000D01*
X157220000Y-100870000D01*
X157120000Y-100870000D01*
X157120000Y-102270000D01*
G36*
X157820000Y-100870000D02*
G01*
X157920000Y-100870000D01*
X157920000Y-102270000D01*
X157120000Y-102270000D01*
X157120000Y-100870000D01*
X157220000Y-100870000D01*
X157220000Y-99970000D01*
X157820000Y-99970000D01*
X157820000Y-100870000D01*
G37*
X158220000Y-89770000D02*
X159020000Y-89770000D01*
X159020000Y-91170000D01*
X158920000Y-91170000D01*
X158920000Y-92070000D01*
X158320000Y-92070000D01*
X158320000Y-91170000D01*
X158220000Y-91170000D01*
X158220000Y-89770000D01*
G36*
X159020000Y-91170000D02*
G01*
X158920000Y-91170000D01*
X158920000Y-92070000D01*
X158320000Y-92070000D01*
X158320000Y-91170000D01*
X158220000Y-91170000D01*
X158220000Y-89770000D01*
X159020000Y-89770000D01*
X159020000Y-91170000D01*
G37*
X158220000Y-102270000D02*
X159020000Y-102270000D01*
X159020000Y-100870000D01*
X158920000Y-100870000D01*
X158920000Y-99970000D01*
X158320000Y-99970000D01*
X158320000Y-100870000D01*
X158220000Y-100870000D01*
X158220000Y-102270000D01*
G36*
X158920000Y-100870000D02*
G01*
X159020000Y-100870000D01*
X159020000Y-102270000D01*
X158220000Y-102270000D01*
X158220000Y-100870000D01*
X158320000Y-100870000D01*
X158320000Y-99970000D01*
X158920000Y-99970000D01*
X158920000Y-100870000D01*
G37*
X159320000Y-89770000D02*
X160120000Y-89770000D01*
X160120000Y-91170000D01*
X160020000Y-91170000D01*
X160020000Y-92070000D01*
X159420000Y-92070000D01*
X159420000Y-91170000D01*
X159320000Y-91170000D01*
X159320000Y-89770000D01*
G36*
X160120000Y-91170000D02*
G01*
X160020000Y-91170000D01*
X160020000Y-92070000D01*
X159420000Y-92070000D01*
X159420000Y-91170000D01*
X159320000Y-91170000D01*
X159320000Y-89770000D01*
X160120000Y-89770000D01*
X160120000Y-91170000D01*
G37*
X159320000Y-102270000D02*
X160120000Y-102270000D01*
X160120000Y-100870000D01*
X160020000Y-100870000D01*
X160020000Y-99970000D01*
X159420000Y-99970000D01*
X159420000Y-100870000D01*
X159320000Y-100870000D01*
X159320000Y-102270000D01*
G36*
X160020000Y-100870000D02*
G01*
X160120000Y-100870000D01*
X160120000Y-102270000D01*
X159320000Y-102270000D01*
X159320000Y-100870000D01*
X159420000Y-100870000D01*
X159420000Y-99970000D01*
X160020000Y-99970000D01*
X160020000Y-100870000D01*
G37*
X160420000Y-89770000D02*
X161220000Y-89770000D01*
X161220000Y-91170000D01*
X161120000Y-91170000D01*
X161120000Y-92070000D01*
X160520000Y-92070000D01*
X160520000Y-91170000D01*
X160420000Y-91170000D01*
X160420000Y-89770000D01*
G36*
X161220000Y-91170000D02*
G01*
X161120000Y-91170000D01*
X161120000Y-92070000D01*
X160520000Y-92070000D01*
X160520000Y-91170000D01*
X160420000Y-91170000D01*
X160420000Y-89770000D01*
X161220000Y-89770000D01*
X161220000Y-91170000D01*
G37*
X160420000Y-102270000D02*
X161220000Y-102270000D01*
X161220000Y-100870000D01*
X161120000Y-100870000D01*
X161120000Y-99970000D01*
X160520000Y-99970000D01*
X160520000Y-100870000D01*
X160420000Y-100870000D01*
X160420000Y-102270000D01*
G36*
X161120000Y-100870000D02*
G01*
X161220000Y-100870000D01*
X161220000Y-102270000D01*
X160420000Y-102270000D01*
X160420000Y-100870000D01*
X160520000Y-100870000D01*
X160520000Y-99970000D01*
X161120000Y-99970000D01*
X161120000Y-100870000D01*
G37*
X161520000Y-89770000D02*
X162320000Y-89770000D01*
X162320000Y-91170000D01*
X162220000Y-91170000D01*
X162220000Y-92070000D01*
X161620000Y-92070000D01*
X161620000Y-91170000D01*
X161520000Y-91170000D01*
X161520000Y-89770000D01*
G36*
X162320000Y-91170000D02*
G01*
X162220000Y-91170000D01*
X162220000Y-92070000D01*
X161620000Y-92070000D01*
X161620000Y-91170000D01*
X161520000Y-91170000D01*
X161520000Y-89770000D01*
X162320000Y-89770000D01*
X162320000Y-91170000D01*
G37*
X161520000Y-102270000D02*
X162320000Y-102270000D01*
X162320000Y-100870000D01*
X162220000Y-100870000D01*
X162220000Y-99970000D01*
X161620000Y-99970000D01*
X161620000Y-100870000D01*
X161520000Y-100870000D01*
X161520000Y-102270000D01*
G36*
X162220000Y-100870000D02*
G01*
X162320000Y-100870000D01*
X162320000Y-102270000D01*
X161520000Y-102270000D01*
X161520000Y-100870000D01*
X161620000Y-100870000D01*
X161620000Y-99970000D01*
X162220000Y-99970000D01*
X162220000Y-100870000D01*
G37*
X162670000Y-89770000D02*
X163370000Y-89770000D01*
X163370000Y-91170000D01*
X163270000Y-91170000D01*
X163270000Y-92070000D01*
X162770000Y-92070000D01*
X162770000Y-91170000D01*
X162670000Y-91170000D01*
X162670000Y-89770000D01*
G36*
X163370000Y-91170000D02*
G01*
X163270000Y-91170000D01*
X163270000Y-92070000D01*
X162770000Y-92070000D01*
X162770000Y-91170000D01*
X162670000Y-91170000D01*
X162670000Y-89770000D01*
X163370000Y-89770000D01*
X163370000Y-91170000D01*
G37*
X162670000Y-102270000D02*
X163370000Y-102270000D01*
X163370000Y-100870000D01*
X163270000Y-100870000D01*
X163270000Y-99970000D01*
X162770000Y-99970000D01*
X162770000Y-100870000D01*
X162670000Y-100870000D01*
X162670000Y-102270000D01*
G36*
X163270000Y-100870000D02*
G01*
X163370000Y-100870000D01*
X163370000Y-102270000D01*
X162670000Y-102270000D01*
X162670000Y-100870000D01*
X162770000Y-100870000D01*
X162770000Y-99970000D01*
X163270000Y-99970000D01*
X163270000Y-100870000D01*
G37*
D10*
%TO.C,U5*%
G36*
X147240000Y-128200000D02*
G01*
X145865200Y-128200000D01*
X145865200Y-126825200D01*
X147240000Y-126825200D01*
X147240000Y-128200000D01*
G37*
G36*
X147240000Y-129774800D02*
G01*
X145865200Y-129774800D01*
X145865200Y-128400000D01*
X147240000Y-128400000D01*
X147240000Y-129774800D01*
G37*
G36*
X148814800Y-128200000D02*
G01*
X147440000Y-128200000D01*
X147440000Y-126825200D01*
X148814800Y-126825200D01*
X148814800Y-128200000D01*
G37*
G36*
X148814800Y-129774800D02*
G01*
X147440000Y-129774800D01*
X147440000Y-128400000D01*
X148814800Y-128400000D01*
X148814800Y-129774800D01*
G37*
%TD*%
D12*
%TO.C,C11*%
X161920000Y-85360000D03*
X161920000Y-86320000D03*
%TD*%
D13*
%TO.C,C9*%
X142167500Y-89970000D03*
X142167500Y-88420000D03*
%TD*%
D14*
%TO.C,R28*%
X140497500Y-105410000D03*
X142322500Y-105410000D03*
%TD*%
D15*
%TO.C,Y2*%
X145340000Y-114440000D03*
X145340000Y-111290000D03*
%TD*%
D16*
%TO.C,D1*%
X167150000Y-67440000D03*
X165250000Y-67440000D03*
X166200000Y-69315000D03*
%TD*%
D17*
%TO.C,J5*%
X129495000Y-85900000D03*
X134535000Y-85900000D03*
X129495000Y-83360000D03*
X134535000Y-83360000D03*
X129495000Y-80820000D03*
X134535000Y-80820000D03*
X129495000Y-78280000D03*
X134535000Y-78280000D03*
X129495000Y-75740000D03*
X134535000Y-75740000D03*
X129495000Y-73200000D03*
X134535000Y-73200000D03*
%TD*%
D18*
%TO.C,R25*%
X141702500Y-102520000D03*
X139877500Y-102520000D03*
%TD*%
D19*
%TO.C,C2*%
X143155000Y-114125000D03*
X141605000Y-114125000D03*
%TD*%
D20*
%TO.C,R13*%
X131077500Y-94835000D03*
X131077500Y-93010000D03*
%TD*%
D19*
%TO.C,C27*%
X143655000Y-131260000D03*
X142105000Y-131260000D03*
%TD*%
%TO.C,C25*%
X150610000Y-122940000D03*
X149060000Y-122940000D03*
%TD*%
D21*
%TO.C,C16*%
X128600000Y-67540000D03*
X130150000Y-67540000D03*
%TD*%
%TO.C,C19*%
X128970000Y-106195000D03*
X130520000Y-106195000D03*
%TD*%
D22*
%TO.C,U3*%
X147397500Y-115440000D03*
D23*
X148210000Y-115502500D03*
X148710000Y-115502500D03*
X149210000Y-115502500D03*
X149710000Y-115502500D03*
D22*
X150522500Y-115440000D03*
X150522500Y-114940000D03*
X150522500Y-114440000D03*
X150522500Y-113940000D03*
X150522500Y-113440000D03*
X150522500Y-112940000D03*
X150522500Y-112440000D03*
X150522500Y-111940000D03*
X150522500Y-111440000D03*
X150522500Y-110940000D03*
D23*
X149710000Y-110877500D03*
X149210000Y-110877500D03*
X148710000Y-110877500D03*
X148210000Y-110877500D03*
D22*
X147397500Y-110940000D03*
X147397500Y-111440000D03*
X147397500Y-111940000D03*
X147397500Y-112440000D03*
X147397500Y-112940000D03*
X147397500Y-113440000D03*
X147397500Y-113940000D03*
X147397500Y-114440000D03*
X147397500Y-114940000D03*
%TD*%
D14*
%TO.C,R42*%
X138970000Y-109750000D03*
X140795000Y-109750000D03*
%TD*%
D24*
%TO.C,J13*%
X137590000Y-62730000D03*
X136590000Y-62730000D03*
X135590000Y-62730000D03*
X134590000Y-62730000D03*
D25*
X138890000Y-58855000D03*
X133290000Y-58855000D03*
%TD*%
D20*
%TO.C,R34*%
X145130000Y-85255000D03*
X145130000Y-83430000D03*
%TD*%
D21*
%TO.C,C14*%
X160885000Y-117930000D03*
X162435000Y-117930000D03*
%TD*%
D14*
%TO.C,R27*%
X128832500Y-108195000D03*
X130657500Y-108195000D03*
%TD*%
D26*
%TO.C,L1*%
X164455000Y-85365000D03*
X163485000Y-85365000D03*
%TD*%
D27*
%TO.C,D8*%
X139092500Y-64000000D03*
X140667500Y-64000000D03*
%TD*%
D20*
%TO.C,R38*%
X135860000Y-67560000D03*
X135860000Y-65735000D03*
%TD*%
D18*
%TO.C,R23*%
X142322500Y-106990000D03*
X140497500Y-106990000D03*
%TD*%
D20*
%TO.C,R45*%
X147175000Y-122022500D03*
X147175000Y-120197500D03*
%TD*%
%TO.C,R32*%
X151210000Y-85280000D03*
X151210000Y-83455000D03*
%TD*%
D28*
%TO.C,C4*%
X147175000Y-117082500D03*
X147175000Y-118632500D03*
%TD*%
D29*
%TO.C,D2*%
X157290000Y-79680000D03*
X157290000Y-81430000D03*
%TD*%
D30*
%TO.C,U4*%
X136950000Y-98384998D03*
X136950000Y-99034999D03*
X136950000Y-99684998D03*
X136950000Y-100334999D03*
X141149999Y-100334999D03*
X141149999Y-99684998D03*
X141149999Y-99034999D03*
X141149999Y-98384998D03*
%TD*%
D20*
%TO.C,R12*%
X133077500Y-94835000D03*
X133077500Y-93010000D03*
%TD*%
D14*
%TO.C,R4*%
X128832500Y-112195000D03*
X130657500Y-112195000D03*
%TD*%
D19*
%TO.C,C20*%
X141149999Y-96584998D03*
X139599999Y-96584998D03*
%TD*%
D31*
%TO.C,U8*%
X133270000Y-104290000D03*
X133270000Y-105560000D03*
X133270000Y-106830000D03*
X133270000Y-108100000D03*
X138220000Y-108100000D03*
X138220000Y-106830000D03*
X138220000Y-105560000D03*
X138220000Y-104290000D03*
%TD*%
D29*
%TO.C,D3*%
X154250000Y-79680000D03*
X154250000Y-81430000D03*
%TD*%
D14*
%TO.C,R47*%
X160735000Y-116340000D03*
X162560000Y-116340000D03*
%TD*%
D32*
%TO.C,U2*%
X135085000Y-114000000D03*
X136335000Y-114000000D03*
X137585000Y-114000000D03*
X138835000Y-114000000D03*
X138835000Y-111850000D03*
X137585000Y-111850000D03*
X136335000Y-111850000D03*
X135085000Y-111850000D03*
%TD*%
D29*
%TO.C,D5*%
X148170000Y-79680000D03*
X148170000Y-81430000D03*
%TD*%
D33*
%TO.C,U7*%
X137757500Y-92355000D03*
X137757500Y-91855001D03*
X137757500Y-91354999D03*
X137757500Y-90855000D03*
X137757500Y-90355001D03*
X134957500Y-90355001D03*
X134957500Y-90855000D03*
X134957500Y-91354999D03*
X134957500Y-91855001D03*
X134957500Y-92355000D03*
%TD*%
D14*
%TO.C,R5*%
X128832500Y-114195000D03*
X130657500Y-114195000D03*
%TD*%
D18*
%TO.C,R11*%
X148700000Y-135240000D03*
X146875000Y-135240000D03*
%TD*%
D14*
%TO.C,R10*%
X148960000Y-109457500D03*
X150785000Y-109457500D03*
%TD*%
D34*
%TO.C,R39*%
X137700000Y-130347500D03*
X137700000Y-133272500D03*
%TD*%
D20*
%TO.C,R43*%
X151330000Y-126932500D03*
X151330000Y-125107500D03*
%TD*%
D35*
%TO.C,R46*%
X168540000Y-104860000D03*
X168540000Y-106685000D03*
%TD*%
D28*
%TO.C,C1*%
X135050000Y-116450000D03*
X135050000Y-118000000D03*
%TD*%
D13*
%TO.C,C7*%
X168920000Y-115390000D03*
X168920000Y-113840000D03*
%TD*%
D20*
%TO.C,R8*%
X150710000Y-118770000D03*
X150710000Y-116945000D03*
%TD*%
D16*
%TO.C,Q2*%
X145150000Y-133242500D03*
X143250000Y-133242500D03*
X144200000Y-135117500D03*
%TD*%
D17*
%TO.C,J3*%
X162995000Y-133320000D03*
X168035000Y-133320000D03*
X162995000Y-130780000D03*
X168035000Y-130780000D03*
X162995000Y-128240000D03*
X168035000Y-128240000D03*
X162995000Y-125700000D03*
X168035000Y-125700000D03*
X162995000Y-123160000D03*
X168035000Y-123160000D03*
X162995000Y-120620000D03*
X168035000Y-120620000D03*
%TD*%
D20*
%TO.C,R16*%
X152050000Y-91950000D03*
X152050000Y-90125000D03*
%TD*%
D19*
%TO.C,C17*%
X131135000Y-135930000D03*
X129585000Y-135930000D03*
%TD*%
D35*
%TO.C,R14*%
X131070000Y-89190000D03*
X131070000Y-91015000D03*
%TD*%
D19*
%TO.C,C3*%
X143145000Y-111290000D03*
X141595000Y-111290000D03*
%TD*%
D28*
%TO.C,C8*%
X140117500Y-88420000D03*
X140117500Y-89970000D03*
%TD*%
D18*
%TO.C,R9*%
X150792500Y-107950000D03*
X148967500Y-107950000D03*
%TD*%
D28*
%TO.C,C5*%
X148710000Y-117082500D03*
X148710000Y-118632500D03*
%TD*%
D36*
%TO.C,BZ1*%
X141600000Y-124250000D03*
X141600000Y-116250000D03*
%TD*%
D37*
%TO.C,D9*%
X132475000Y-64000000D03*
X130900000Y-64000000D03*
%TD*%
D38*
%TO.C,Q1*%
X155587500Y-119640000D03*
X155587500Y-117740000D03*
X153712500Y-118690000D03*
%TD*%
D13*
%TO.C,C18*%
X137700000Y-128347500D03*
X137700000Y-126797500D03*
%TD*%
D18*
%TO.C,R7*%
X132912500Y-96835000D03*
X131087500Y-96835000D03*
%TD*%
D21*
%TO.C,C28*%
X141660000Y-126250000D03*
X143210000Y-126250000D03*
%TD*%
D20*
%TO.C,R30*%
X157290000Y-85255000D03*
X157290000Y-83430000D03*
%TD*%
D35*
%TO.C,R17*%
X150050000Y-90125000D03*
X150050000Y-91950000D03*
%TD*%
%TO.C,R19*%
X156120000Y-133768900D03*
X156120000Y-135593900D03*
%TD*%
D18*
%TO.C,R29*%
X148700000Y-133240000D03*
X146875000Y-133240000D03*
%TD*%
D35*
%TO.C,R15*%
X133070000Y-89190000D03*
X133070000Y-91015000D03*
%TD*%
D29*
%TO.C,D6*%
X145130000Y-79680000D03*
X145130000Y-81430000D03*
%TD*%
D35*
%TO.C,R44*%
X151290000Y-129657500D03*
X151290000Y-131482500D03*
%TD*%
D39*
%TO.C,U1*%
X165560000Y-114740000D03*
X165560000Y-116040000D03*
X166360000Y-114740000D03*
X166360000Y-116040000D03*
D40*
X164560000Y-114440000D03*
X164560000Y-115390000D03*
X164560000Y-116340000D03*
X167360000Y-116340000D03*
X167360000Y-115390000D03*
X167360000Y-114440000D03*
%TD*%
D18*
%TO.C,R24*%
X138220000Y-102520000D03*
X136395000Y-102520000D03*
%TD*%
D14*
%TO.C,R6*%
X131087500Y-100835000D03*
X132912500Y-100835000D03*
%TD*%
D20*
%TO.C,R18*%
X148050000Y-91950000D03*
X148050000Y-90125000D03*
%TD*%
D19*
%TO.C,C23*%
X130520000Y-110195000D03*
X128970000Y-110195000D03*
%TD*%
%TO.C,C22*%
X141915000Y-92870000D03*
X140365000Y-92870000D03*
%TD*%
%TO.C,C26*%
X150615000Y-121460000D03*
X149065000Y-121460000D03*
%TD*%
D21*
%TO.C,C6*%
X152522500Y-113940000D03*
X154072500Y-113940000D03*
%TD*%
D28*
%TO.C,C12*%
X135060000Y-96645000D03*
X135060000Y-98195000D03*
%TD*%
D14*
%TO.C,R41*%
X128832500Y-116195000D03*
X130657500Y-116195000D03*
%TD*%
D20*
%TO.C,R31*%
X154250000Y-85280000D03*
X154250000Y-83455000D03*
%TD*%
D35*
%TO.C,R20*%
X142410000Y-127717500D03*
X142410000Y-129542500D03*
%TD*%
%TO.C,R35*%
X137660000Y-65735000D03*
X137660000Y-67560000D03*
%TD*%
D14*
%TO.C,R26*%
X128832500Y-104195000D03*
X130657500Y-104195000D03*
%TD*%
D34*
%TO.C,R40*%
X140050000Y-130337500D03*
X140050000Y-133262500D03*
%TD*%
D13*
%TO.C,C13*%
X139700000Y-128347500D03*
X139700000Y-126797500D03*
%TD*%
D14*
%TO.C,R22*%
X152287500Y-135300000D03*
X154112500Y-135300000D03*
%TD*%
D28*
%TO.C,C10*%
X165090000Y-96225000D03*
X165090000Y-97775000D03*
%TD*%
D20*
%TO.C,R37*%
X134060000Y-67560000D03*
X134060000Y-65735000D03*
%TD*%
D17*
%TO.C,J4*%
X129495000Y-133320000D03*
X134535000Y-133320000D03*
X129495000Y-130780000D03*
X134535000Y-130780000D03*
X129495000Y-128240000D03*
X134535000Y-128240000D03*
X129495000Y-125700000D03*
X134535000Y-125700000D03*
X129495000Y-123160000D03*
X134535000Y-123160000D03*
X129495000Y-120620000D03*
X134535000Y-120620000D03*
%TD*%
D20*
%TO.C,R33*%
X148170000Y-85280000D03*
X148170000Y-83455000D03*
%TD*%
D21*
%TO.C,C21*%
X143865000Y-106190000D03*
X145415000Y-106190000D03*
%TD*%
D29*
%TO.C,D4*%
X151210000Y-79680000D03*
X151210000Y-81430000D03*
%TD*%
D41*
%TO.C,J6*%
X161920000Y-83100000D03*
D42*
X160445000Y-81600000D03*
D41*
X161920000Y-80100000D03*
D42*
X163395000Y-81600000D03*
%TD*%
D20*
%TO.C,R21*%
X150730000Y-135240000D03*
X150730000Y-133415000D03*
%TD*%
D35*
%TO.C,R36*%
X132260000Y-65735000D03*
X132260000Y-67560000D03*
%TD*%
D24*
%TO.C,J10*%
X167700000Y-62730000D03*
X166700000Y-62730000D03*
X165700000Y-62730000D03*
X164700000Y-62730000D03*
D25*
X169000000Y-58855000D03*
X163400000Y-58855000D03*
%TD*%
D43*
%TO.C,U5*%
X148840000Y-125899700D03*
X148340001Y-125899700D03*
X147839999Y-125899700D03*
X147340000Y-125899700D03*
X146840001Y-125899700D03*
X146339999Y-125899700D03*
X145840000Y-125899700D03*
D44*
X144939700Y-126800000D03*
X144939700Y-127299999D03*
X144939700Y-127800001D03*
X144939700Y-128300000D03*
X144939700Y-128799999D03*
X144939700Y-129300001D03*
X144939700Y-129800000D03*
D43*
X145840000Y-130700300D03*
X146339999Y-130700300D03*
X146840001Y-130700300D03*
X147340000Y-130700300D03*
X147839999Y-130700300D03*
X148340001Y-130700300D03*
X148840000Y-130700300D03*
D44*
X149740300Y-129800000D03*
X149740300Y-129300001D03*
X149740300Y-128799999D03*
X149740300Y-128300000D03*
X149740300Y-127800001D03*
X149740300Y-127299999D03*
X149740300Y-126800000D03*
%TD*%
D21*
%TO.C,C15*%
X128600000Y-69540000D03*
X130150000Y-69540000D03*
%TD*%
D45*
%TO.C,D7*%
X139660000Y-67435000D03*
X139660000Y-65860000D03*
%TD*%
M02*
