%TF.GenerationSoftware,KiCad,Pcbnew,10.0.3*%
%TF.CreationDate,2026-06-17T18:34:48-04:00*%
%TF.ProjectId,Ion-0,496f6e2d-302e-46b6-9963-61645f706362,V0.5*%
%TF.SameCoordinates,Original*%
%TF.FileFunction,Legend,Top*%
%TF.FilePolarity,Positive*%
%FSLAX46Y46*%
G04 Gerber Fmt 4.6, Leading zero omitted, Abs format (unit mm)*
G04 Created by KiCad (PCBNEW 10.0.3) date 2026-06-17 18:34:48*
%MOMM*%
%LPD*%
G01*
G04 APERTURE LIST*
%ADD10C,0.200000*%
%ADD11C,0.150000*%
%ADD12C,0.120000*%
%ADD13C,0.127000*%
%ADD14C,0.100000*%
%ADD15C,0.152400*%
G04 APERTURE END LIST*
D10*
X130989300Y-143026028D02*
X130989300Y-141526028D01*
X130989300Y-142240314D02*
X131846443Y-142240314D01*
X131846443Y-143026028D02*
X131846443Y-141526028D01*
X132560729Y-142240314D02*
X133060729Y-142240314D01*
X133275015Y-143026028D02*
X132560729Y-143026028D01*
X132560729Y-143026028D02*
X132560729Y-141526028D01*
X132560729Y-141526028D02*
X133275015Y-141526028D01*
X133846444Y-142597457D02*
X134560730Y-142597457D01*
X133703587Y-143026028D02*
X134203587Y-141526028D01*
X134203587Y-141526028D02*
X134703587Y-143026028D01*
X134989301Y-141526028D02*
X135846444Y-141526028D01*
X135417872Y-143026028D02*
X135417872Y-141526028D01*
X136346443Y-142240314D02*
X136846443Y-142240314D01*
X137060729Y-143026028D02*
X136346443Y-143026028D01*
X136346443Y-143026028D02*
X136346443Y-141526028D01*
X136346443Y-141526028D02*
X137060729Y-141526028D01*
X138560729Y-143026028D02*
X138060729Y-142311742D01*
X137703586Y-143026028D02*
X137703586Y-141526028D01*
X137703586Y-141526028D02*
X138275015Y-141526028D01*
X138275015Y-141526028D02*
X138417872Y-141597457D01*
X138417872Y-141597457D02*
X138489301Y-141668885D01*
X138489301Y-141668885D02*
X138560729Y-141811742D01*
X138560729Y-141811742D02*
X138560729Y-142026028D01*
X138560729Y-142026028D02*
X138489301Y-142168885D01*
X138489301Y-142168885D02*
X138417872Y-142240314D01*
X138417872Y-142240314D02*
X138275015Y-142311742D01*
X138275015Y-142311742D02*
X137703586Y-142311742D01*
X142368720Y-143126028D02*
X142368720Y-141626028D01*
X142368720Y-141626028D02*
X142940149Y-141626028D01*
X142940149Y-141626028D02*
X143083006Y-141697457D01*
X143083006Y-141697457D02*
X143154435Y-141768885D01*
X143154435Y-141768885D02*
X143225863Y-141911742D01*
X143225863Y-141911742D02*
X143225863Y-142126028D01*
X143225863Y-142126028D02*
X143154435Y-142268885D01*
X143154435Y-142268885D02*
X143083006Y-142340314D01*
X143083006Y-142340314D02*
X142940149Y-142411742D01*
X142940149Y-142411742D02*
X142368720Y-142411742D01*
X144725863Y-143126028D02*
X144225863Y-142411742D01*
X143868720Y-143126028D02*
X143868720Y-141626028D01*
X143868720Y-141626028D02*
X144440149Y-141626028D01*
X144440149Y-141626028D02*
X144583006Y-141697457D01*
X144583006Y-141697457D02*
X144654435Y-141768885D01*
X144654435Y-141768885D02*
X144725863Y-141911742D01*
X144725863Y-141911742D02*
X144725863Y-142126028D01*
X144725863Y-142126028D02*
X144654435Y-142268885D01*
X144654435Y-142268885D02*
X144583006Y-142340314D01*
X144583006Y-142340314D02*
X144440149Y-142411742D01*
X144440149Y-142411742D02*
X143868720Y-142411742D01*
X145654435Y-141626028D02*
X145940149Y-141626028D01*
X145940149Y-141626028D02*
X146083006Y-141697457D01*
X146083006Y-141697457D02*
X146225863Y-141840314D01*
X146225863Y-141840314D02*
X146297292Y-142126028D01*
X146297292Y-142126028D02*
X146297292Y-142626028D01*
X146297292Y-142626028D02*
X146225863Y-142911742D01*
X146225863Y-142911742D02*
X146083006Y-143054600D01*
X146083006Y-143054600D02*
X145940149Y-143126028D01*
X145940149Y-143126028D02*
X145654435Y-143126028D01*
X145654435Y-143126028D02*
X145511578Y-143054600D01*
X145511578Y-143054600D02*
X145368720Y-142911742D01*
X145368720Y-142911742D02*
X145297292Y-142626028D01*
X145297292Y-142626028D02*
X145297292Y-142126028D01*
X145297292Y-142126028D02*
X145368720Y-141840314D01*
X145368720Y-141840314D02*
X145511578Y-141697457D01*
X145511578Y-141697457D02*
X145654435Y-141626028D01*
X147440149Y-142340314D02*
X147654435Y-142411742D01*
X147654435Y-142411742D02*
X147725864Y-142483171D01*
X147725864Y-142483171D02*
X147797292Y-142626028D01*
X147797292Y-142626028D02*
X147797292Y-142840314D01*
X147797292Y-142840314D02*
X147725864Y-142983171D01*
X147725864Y-142983171D02*
X147654435Y-143054600D01*
X147654435Y-143054600D02*
X147511578Y-143126028D01*
X147511578Y-143126028D02*
X146940149Y-143126028D01*
X146940149Y-143126028D02*
X146940149Y-141626028D01*
X146940149Y-141626028D02*
X147440149Y-141626028D01*
X147440149Y-141626028D02*
X147583007Y-141697457D01*
X147583007Y-141697457D02*
X147654435Y-141768885D01*
X147654435Y-141768885D02*
X147725864Y-141911742D01*
X147725864Y-141911742D02*
X147725864Y-142054600D01*
X147725864Y-142054600D02*
X147654435Y-142197457D01*
X147654435Y-142197457D02*
X147583007Y-142268885D01*
X147583007Y-142268885D02*
X147440149Y-142340314D01*
X147440149Y-142340314D02*
X146940149Y-142340314D01*
X148440149Y-142340314D02*
X148940149Y-142340314D01*
X149154435Y-143126028D02*
X148440149Y-143126028D01*
X148440149Y-143126028D02*
X148440149Y-141626028D01*
X148440149Y-141626028D02*
X149154435Y-141626028D01*
X149725864Y-143054600D02*
X149940150Y-143126028D01*
X149940150Y-143126028D02*
X150297292Y-143126028D01*
X150297292Y-143126028D02*
X150440150Y-143054600D01*
X150440150Y-143054600D02*
X150511578Y-142983171D01*
X150511578Y-142983171D02*
X150583007Y-142840314D01*
X150583007Y-142840314D02*
X150583007Y-142697457D01*
X150583007Y-142697457D02*
X150511578Y-142554600D01*
X150511578Y-142554600D02*
X150440150Y-142483171D01*
X150440150Y-142483171D02*
X150297292Y-142411742D01*
X150297292Y-142411742D02*
X150011578Y-142340314D01*
X150011578Y-142340314D02*
X149868721Y-142268885D01*
X149868721Y-142268885D02*
X149797292Y-142197457D01*
X149797292Y-142197457D02*
X149725864Y-142054600D01*
X149725864Y-142054600D02*
X149725864Y-141911742D01*
X149725864Y-141911742D02*
X149797292Y-141768885D01*
X149797292Y-141768885D02*
X149868721Y-141697457D01*
X149868721Y-141697457D02*
X150011578Y-141626028D01*
X150011578Y-141626028D02*
X150368721Y-141626028D01*
X150368721Y-141626028D02*
X150583007Y-141697457D01*
X155847292Y-143174600D02*
X156061578Y-143246028D01*
X156061578Y-143246028D02*
X156418720Y-143246028D01*
X156418720Y-143246028D02*
X156561578Y-143174600D01*
X156561578Y-143174600D02*
X156633006Y-143103171D01*
X156633006Y-143103171D02*
X156704435Y-142960314D01*
X156704435Y-142960314D02*
X156704435Y-142817457D01*
X156704435Y-142817457D02*
X156633006Y-142674600D01*
X156633006Y-142674600D02*
X156561578Y-142603171D01*
X156561578Y-142603171D02*
X156418720Y-142531742D01*
X156418720Y-142531742D02*
X156133006Y-142460314D01*
X156133006Y-142460314D02*
X155990149Y-142388885D01*
X155990149Y-142388885D02*
X155918720Y-142317457D01*
X155918720Y-142317457D02*
X155847292Y-142174600D01*
X155847292Y-142174600D02*
X155847292Y-142031742D01*
X155847292Y-142031742D02*
X155918720Y-141888885D01*
X155918720Y-141888885D02*
X155990149Y-141817457D01*
X155990149Y-141817457D02*
X156133006Y-141746028D01*
X156133006Y-141746028D02*
X156490149Y-141746028D01*
X156490149Y-141746028D02*
X156704435Y-141817457D01*
X157133006Y-141746028D02*
X157990149Y-141746028D01*
X157561577Y-143246028D02*
X157561577Y-141746028D01*
X158490148Y-142460314D02*
X158990148Y-142460314D01*
X159204434Y-143246028D02*
X158490148Y-143246028D01*
X158490148Y-143246028D02*
X158490148Y-141746028D01*
X158490148Y-141746028D02*
X159204434Y-141746028D01*
X159847291Y-143246028D02*
X159847291Y-141746028D01*
X159847291Y-141746028D02*
X160418720Y-141746028D01*
X160418720Y-141746028D02*
X160561577Y-141817457D01*
X160561577Y-141817457D02*
X160633006Y-141888885D01*
X160633006Y-141888885D02*
X160704434Y-142031742D01*
X160704434Y-142031742D02*
X160704434Y-142246028D01*
X160704434Y-142246028D02*
X160633006Y-142388885D01*
X160633006Y-142388885D02*
X160561577Y-142460314D01*
X160561577Y-142460314D02*
X160418720Y-142531742D01*
X160418720Y-142531742D02*
X159847291Y-142531742D01*
X161347291Y-143246028D02*
X161347291Y-141746028D01*
X161347291Y-141746028D02*
X161918720Y-141746028D01*
X161918720Y-141746028D02*
X162061577Y-141817457D01*
X162061577Y-141817457D02*
X162133006Y-141888885D01*
X162133006Y-141888885D02*
X162204434Y-142031742D01*
X162204434Y-142031742D02*
X162204434Y-142246028D01*
X162204434Y-142246028D02*
X162133006Y-142388885D01*
X162133006Y-142388885D02*
X162061577Y-142460314D01*
X162061577Y-142460314D02*
X161918720Y-142531742D01*
X161918720Y-142531742D02*
X161347291Y-142531742D01*
X162847291Y-142460314D02*
X163347291Y-142460314D01*
X163561577Y-143246028D02*
X162847291Y-143246028D01*
X162847291Y-143246028D02*
X162847291Y-141746028D01*
X162847291Y-141746028D02*
X163561577Y-141746028D01*
X165061577Y-143246028D02*
X164561577Y-142531742D01*
X164204434Y-143246028D02*
X164204434Y-141746028D01*
X164204434Y-141746028D02*
X164775863Y-141746028D01*
X164775863Y-141746028D02*
X164918720Y-141817457D01*
X164918720Y-141817457D02*
X164990149Y-141888885D01*
X164990149Y-141888885D02*
X165061577Y-142031742D01*
X165061577Y-142031742D02*
X165061577Y-142246028D01*
X165061577Y-142246028D02*
X164990149Y-142388885D01*
X164990149Y-142388885D02*
X164918720Y-142460314D01*
X164918720Y-142460314D02*
X164775863Y-142531742D01*
X164775863Y-142531742D02*
X164204434Y-142531742D01*
D11*
X159170476Y-135104819D02*
X159170476Y-135819104D01*
X159170476Y-135819104D02*
X159122857Y-135961961D01*
X159122857Y-135961961D02*
X159027619Y-136057200D01*
X159027619Y-136057200D02*
X158884762Y-136104819D01*
X158884762Y-136104819D02*
X158789524Y-136104819D01*
X160170476Y-136104819D02*
X159599048Y-136104819D01*
X159884762Y-136104819D02*
X159884762Y-135104819D01*
X159884762Y-135104819D02*
X159789524Y-135247676D01*
X159789524Y-135247676D02*
X159694286Y-135342914D01*
X159694286Y-135342914D02*
X159599048Y-135390533D01*
X161075238Y-135104819D02*
X160599048Y-135104819D01*
X160599048Y-135104819D02*
X160551429Y-135581009D01*
X160551429Y-135581009D02*
X160599048Y-135533390D01*
X160599048Y-135533390D02*
X160694286Y-135485771D01*
X160694286Y-135485771D02*
X160932381Y-135485771D01*
X160932381Y-135485771D02*
X161027619Y-135533390D01*
X161027619Y-135533390D02*
X161075238Y-135581009D01*
X161075238Y-135581009D02*
X161122857Y-135676247D01*
X161122857Y-135676247D02*
X161122857Y-135914342D01*
X161122857Y-135914342D02*
X161075238Y-136009580D01*
X161075238Y-136009580D02*
X161027619Y-136057200D01*
X161027619Y-136057200D02*
X160932381Y-136104819D01*
X160932381Y-136104819D02*
X160694286Y-136104819D01*
X160694286Y-136104819D02*
X160599048Y-136057200D01*
X160599048Y-136057200D02*
X160551429Y-136009580D01*
X145986666Y-135104819D02*
X145986666Y-135819104D01*
X145986666Y-135819104D02*
X145939047Y-135961961D01*
X145939047Y-135961961D02*
X145843809Y-136057200D01*
X145843809Y-136057200D02*
X145700952Y-136104819D01*
X145700952Y-136104819D02*
X145605714Y-136104819D01*
X146367619Y-135104819D02*
X147034285Y-135104819D01*
X147034285Y-135104819D02*
X146605714Y-136104819D01*
X163439580Y-86482857D02*
X163487200Y-86530476D01*
X163487200Y-86530476D02*
X163534819Y-86673333D01*
X163534819Y-86673333D02*
X163534819Y-86768571D01*
X163534819Y-86768571D02*
X163487200Y-86911428D01*
X163487200Y-86911428D02*
X163391961Y-87006666D01*
X163391961Y-87006666D02*
X163296723Y-87054285D01*
X163296723Y-87054285D02*
X163106247Y-87101904D01*
X163106247Y-87101904D02*
X162963390Y-87101904D01*
X162963390Y-87101904D02*
X162772914Y-87054285D01*
X162772914Y-87054285D02*
X162677676Y-87006666D01*
X162677676Y-87006666D02*
X162582438Y-86911428D01*
X162582438Y-86911428D02*
X162534819Y-86768571D01*
X162534819Y-86768571D02*
X162534819Y-86673333D01*
X162534819Y-86673333D02*
X162582438Y-86530476D01*
X162582438Y-86530476D02*
X162630057Y-86482857D01*
X163534819Y-85530476D02*
X163534819Y-86101904D01*
X163534819Y-85816190D02*
X162534819Y-85816190D01*
X162534819Y-85816190D02*
X162677676Y-85911428D01*
X162677676Y-85911428D02*
X162772914Y-86006666D01*
X162772914Y-86006666D02*
X162820533Y-86101904D01*
X163534819Y-84578095D02*
X163534819Y-85149523D01*
X163534819Y-84863809D02*
X162534819Y-84863809D01*
X162534819Y-84863809D02*
X162677676Y-84959047D01*
X162677676Y-84959047D02*
X162772914Y-85054285D01*
X162772914Y-85054285D02*
X162820533Y-85149523D01*
X142963809Y-112843628D02*
X142963809Y-113319819D01*
X142630476Y-112319819D02*
X142963809Y-112843628D01*
X142963809Y-112843628D02*
X143297142Y-112319819D01*
X143582857Y-112415057D02*
X143630476Y-112367438D01*
X143630476Y-112367438D02*
X143725714Y-112319819D01*
X143725714Y-112319819D02*
X143963809Y-112319819D01*
X143963809Y-112319819D02*
X144059047Y-112367438D01*
X144059047Y-112367438D02*
X144106666Y-112415057D01*
X144106666Y-112415057D02*
X144154285Y-112510295D01*
X144154285Y-112510295D02*
X144154285Y-112605533D01*
X144154285Y-112605533D02*
X144106666Y-112748390D01*
X144106666Y-112748390D02*
X143535238Y-113319819D01*
X143535238Y-113319819D02*
X144154285Y-113319819D01*
X148512380Y-112506276D02*
X148512380Y-113024371D01*
X148512380Y-113024371D02*
X148542857Y-113085323D01*
X148542857Y-113085323D02*
X148573333Y-113115800D01*
X148573333Y-113115800D02*
X148634285Y-113146276D01*
X148634285Y-113146276D02*
X148756190Y-113146276D01*
X148756190Y-113146276D02*
X148817142Y-113115800D01*
X148817142Y-113115800D02*
X148847619Y-113085323D01*
X148847619Y-113085323D02*
X148878095Y-113024371D01*
X148878095Y-113024371D02*
X148878095Y-112506276D01*
X149121904Y-112506276D02*
X149518095Y-112506276D01*
X149518095Y-112506276D02*
X149304761Y-112750085D01*
X149304761Y-112750085D02*
X149396190Y-112750085D01*
X149396190Y-112750085D02*
X149457142Y-112780561D01*
X149457142Y-112780561D02*
X149487618Y-112811038D01*
X149487618Y-112811038D02*
X149518095Y-112871990D01*
X149518095Y-112871990D02*
X149518095Y-113024371D01*
X149518095Y-113024371D02*
X149487618Y-113085323D01*
X149487618Y-113085323D02*
X149457142Y-113115800D01*
X149457142Y-113115800D02*
X149396190Y-113146276D01*
X149396190Y-113146276D02*
X149213333Y-113146276D01*
X149213333Y-113146276D02*
X149152380Y-113115800D01*
X149152380Y-113115800D02*
X149121904Y-113085323D01*
X130077976Y-60824819D02*
X130077976Y-61539104D01*
X130077976Y-61539104D02*
X130030357Y-61681961D01*
X130030357Y-61681961D02*
X129935119Y-61777200D01*
X129935119Y-61777200D02*
X129792262Y-61824819D01*
X129792262Y-61824819D02*
X129697024Y-61824819D01*
X131077976Y-61824819D02*
X130506548Y-61824819D01*
X130792262Y-61824819D02*
X130792262Y-60824819D01*
X130792262Y-60824819D02*
X130697024Y-60967676D01*
X130697024Y-60967676D02*
X130601786Y-61062914D01*
X130601786Y-61062914D02*
X130506548Y-61110533D01*
X131411310Y-60824819D02*
X132030357Y-60824819D01*
X132030357Y-60824819D02*
X131697024Y-61205771D01*
X131697024Y-61205771D02*
X131839881Y-61205771D01*
X131839881Y-61205771D02*
X131935119Y-61253390D01*
X131935119Y-61253390D02*
X131982738Y-61301009D01*
X131982738Y-61301009D02*
X132030357Y-61396247D01*
X132030357Y-61396247D02*
X132030357Y-61634342D01*
X132030357Y-61634342D02*
X131982738Y-61729580D01*
X131982738Y-61729580D02*
X131935119Y-61777200D01*
X131935119Y-61777200D02*
X131839881Y-61824819D01*
X131839881Y-61824819D02*
X131554167Y-61824819D01*
X131554167Y-61824819D02*
X131458929Y-61777200D01*
X131458929Y-61777200D02*
X131411310Y-61729580D01*
X136988095Y-96354819D02*
X136988095Y-97164342D01*
X136988095Y-97164342D02*
X137035714Y-97259580D01*
X137035714Y-97259580D02*
X137083333Y-97307200D01*
X137083333Y-97307200D02*
X137178571Y-97354819D01*
X137178571Y-97354819D02*
X137369047Y-97354819D01*
X137369047Y-97354819D02*
X137464285Y-97307200D01*
X137464285Y-97307200D02*
X137511904Y-97259580D01*
X137511904Y-97259580D02*
X137559523Y-97164342D01*
X137559523Y-97164342D02*
X137559523Y-96354819D01*
X138464285Y-96688152D02*
X138464285Y-97354819D01*
X138226190Y-96307200D02*
X137988095Y-97021485D01*
X137988095Y-97021485D02*
X138607142Y-97021485D01*
X134983095Y-105774819D02*
X134983095Y-106584342D01*
X134983095Y-106584342D02*
X135030714Y-106679580D01*
X135030714Y-106679580D02*
X135078333Y-106727200D01*
X135078333Y-106727200D02*
X135173571Y-106774819D01*
X135173571Y-106774819D02*
X135364047Y-106774819D01*
X135364047Y-106774819D02*
X135459285Y-106727200D01*
X135459285Y-106727200D02*
X135506904Y-106679580D01*
X135506904Y-106679580D02*
X135554523Y-106584342D01*
X135554523Y-106584342D02*
X135554523Y-105774819D01*
X136173571Y-106203390D02*
X136078333Y-106155771D01*
X136078333Y-106155771D02*
X136030714Y-106108152D01*
X136030714Y-106108152D02*
X135983095Y-106012914D01*
X135983095Y-106012914D02*
X135983095Y-105965295D01*
X135983095Y-105965295D02*
X136030714Y-105870057D01*
X136030714Y-105870057D02*
X136078333Y-105822438D01*
X136078333Y-105822438D02*
X136173571Y-105774819D01*
X136173571Y-105774819D02*
X136364047Y-105774819D01*
X136364047Y-105774819D02*
X136459285Y-105822438D01*
X136459285Y-105822438D02*
X136506904Y-105870057D01*
X136506904Y-105870057D02*
X136554523Y-105965295D01*
X136554523Y-105965295D02*
X136554523Y-106012914D01*
X136554523Y-106012914D02*
X136506904Y-106108152D01*
X136506904Y-106108152D02*
X136459285Y-106155771D01*
X136459285Y-106155771D02*
X136364047Y-106203390D01*
X136364047Y-106203390D02*
X136173571Y-106203390D01*
X136173571Y-106203390D02*
X136078333Y-106251009D01*
X136078333Y-106251009D02*
X136030714Y-106298628D01*
X136030714Y-106298628D02*
X135983095Y-106393866D01*
X135983095Y-106393866D02*
X135983095Y-106584342D01*
X135983095Y-106584342D02*
X136030714Y-106679580D01*
X136030714Y-106679580D02*
X136078333Y-106727200D01*
X136078333Y-106727200D02*
X136173571Y-106774819D01*
X136173571Y-106774819D02*
X136364047Y-106774819D01*
X136364047Y-106774819D02*
X136459285Y-106727200D01*
X136459285Y-106727200D02*
X136506904Y-106679580D01*
X136506904Y-106679580D02*
X136554523Y-106584342D01*
X136554523Y-106584342D02*
X136554523Y-106393866D01*
X136554523Y-106393866D02*
X136506904Y-106298628D01*
X136506904Y-106298628D02*
X136459285Y-106251009D01*
X136459285Y-106251009D02*
X136364047Y-106203390D01*
X132764819Y-113686904D02*
X133574342Y-113686904D01*
X133574342Y-113686904D02*
X133669580Y-113639285D01*
X133669580Y-113639285D02*
X133717200Y-113591666D01*
X133717200Y-113591666D02*
X133764819Y-113496428D01*
X133764819Y-113496428D02*
X133764819Y-113305952D01*
X133764819Y-113305952D02*
X133717200Y-113210714D01*
X133717200Y-113210714D02*
X133669580Y-113163095D01*
X133669580Y-113163095D02*
X133574342Y-113115476D01*
X133574342Y-113115476D02*
X132764819Y-113115476D01*
X132860057Y-112686904D02*
X132812438Y-112639285D01*
X132812438Y-112639285D02*
X132764819Y-112544047D01*
X132764819Y-112544047D02*
X132764819Y-112305952D01*
X132764819Y-112305952D02*
X132812438Y-112210714D01*
X132812438Y-112210714D02*
X132860057Y-112163095D01*
X132860057Y-112163095D02*
X132955295Y-112115476D01*
X132955295Y-112115476D02*
X133050533Y-112115476D01*
X133050533Y-112115476D02*
X133193390Y-112163095D01*
X133193390Y-112163095D02*
X133764819Y-112734523D01*
X133764819Y-112734523D02*
X133764819Y-112115476D01*
X135595595Y-88084819D02*
X135595595Y-88894342D01*
X135595595Y-88894342D02*
X135643214Y-88989580D01*
X135643214Y-88989580D02*
X135690833Y-89037200D01*
X135690833Y-89037200D02*
X135786071Y-89084819D01*
X135786071Y-89084819D02*
X135976547Y-89084819D01*
X135976547Y-89084819D02*
X136071785Y-89037200D01*
X136071785Y-89037200D02*
X136119404Y-88989580D01*
X136119404Y-88989580D02*
X136167023Y-88894342D01*
X136167023Y-88894342D02*
X136167023Y-88084819D01*
X136547976Y-88084819D02*
X137214642Y-88084819D01*
X137214642Y-88084819D02*
X136786071Y-89084819D01*
X141361009Y-121130952D02*
X141408628Y-120988095D01*
X141408628Y-120988095D02*
X141456247Y-120940476D01*
X141456247Y-120940476D02*
X141551485Y-120892857D01*
X141551485Y-120892857D02*
X141694342Y-120892857D01*
X141694342Y-120892857D02*
X141789580Y-120940476D01*
X141789580Y-120940476D02*
X141837200Y-120988095D01*
X141837200Y-120988095D02*
X141884819Y-121083333D01*
X141884819Y-121083333D02*
X141884819Y-121464285D01*
X141884819Y-121464285D02*
X140884819Y-121464285D01*
X140884819Y-121464285D02*
X140884819Y-121130952D01*
X140884819Y-121130952D02*
X140932438Y-121035714D01*
X140932438Y-121035714D02*
X140980057Y-120988095D01*
X140980057Y-120988095D02*
X141075295Y-120940476D01*
X141075295Y-120940476D02*
X141170533Y-120940476D01*
X141170533Y-120940476D02*
X141265771Y-120988095D01*
X141265771Y-120988095D02*
X141313390Y-121035714D01*
X141313390Y-121035714D02*
X141361009Y-121130952D01*
X141361009Y-121130952D02*
X141361009Y-121464285D01*
X140884819Y-120559523D02*
X140884819Y-119892857D01*
X140884819Y-119892857D02*
X141884819Y-120559523D01*
X141884819Y-120559523D02*
X141884819Y-119892857D01*
X141884819Y-118988095D02*
X141884819Y-119559523D01*
X141884819Y-119273809D02*
X140884819Y-119273809D01*
X140884819Y-119273809D02*
X141027676Y-119369047D01*
X141027676Y-119369047D02*
X141122914Y-119464285D01*
X141122914Y-119464285D02*
X141170533Y-119559523D01*
X151939819Y-96709404D02*
X152749342Y-96709404D01*
X152749342Y-96709404D02*
X152844580Y-96661785D01*
X152844580Y-96661785D02*
X152892200Y-96614166D01*
X152892200Y-96614166D02*
X152939819Y-96518928D01*
X152939819Y-96518928D02*
X152939819Y-96328452D01*
X152939819Y-96328452D02*
X152892200Y-96233214D01*
X152892200Y-96233214D02*
X152844580Y-96185595D01*
X152844580Y-96185595D02*
X152749342Y-96137976D01*
X152749342Y-96137976D02*
X151939819Y-96137976D01*
X151939819Y-95233214D02*
X151939819Y-95423690D01*
X151939819Y-95423690D02*
X151987438Y-95518928D01*
X151987438Y-95518928D02*
X152035057Y-95566547D01*
X152035057Y-95566547D02*
X152177914Y-95661785D01*
X152177914Y-95661785D02*
X152368390Y-95709404D01*
X152368390Y-95709404D02*
X152749342Y-95709404D01*
X152749342Y-95709404D02*
X152844580Y-95661785D01*
X152844580Y-95661785D02*
X152892200Y-95614166D01*
X152892200Y-95614166D02*
X152939819Y-95518928D01*
X152939819Y-95518928D02*
X152939819Y-95328452D01*
X152939819Y-95328452D02*
X152892200Y-95233214D01*
X152892200Y-95233214D02*
X152844580Y-95185595D01*
X152844580Y-95185595D02*
X152749342Y-95137976D01*
X152749342Y-95137976D02*
X152511247Y-95137976D01*
X152511247Y-95137976D02*
X152416009Y-95185595D01*
X152416009Y-95185595D02*
X152368390Y-95233214D01*
X152368390Y-95233214D02*
X152320771Y-95328452D01*
X152320771Y-95328452D02*
X152320771Y-95518928D01*
X152320771Y-95518928D02*
X152368390Y-95614166D01*
X152368390Y-95614166D02*
X152416009Y-95661785D01*
X152416009Y-95661785D02*
X152511247Y-95709404D01*
X165298095Y-111704819D02*
X165298095Y-112514342D01*
X165298095Y-112514342D02*
X165345714Y-112609580D01*
X165345714Y-112609580D02*
X165393333Y-112657200D01*
X165393333Y-112657200D02*
X165488571Y-112704819D01*
X165488571Y-112704819D02*
X165679047Y-112704819D01*
X165679047Y-112704819D02*
X165774285Y-112657200D01*
X165774285Y-112657200D02*
X165821904Y-112609580D01*
X165821904Y-112609580D02*
X165869523Y-112514342D01*
X165869523Y-112514342D02*
X165869523Y-111704819D01*
X166869523Y-112704819D02*
X166298095Y-112704819D01*
X166583809Y-112704819D02*
X166583809Y-111704819D01*
X166583809Y-111704819D02*
X166488571Y-111847676D01*
X166488571Y-111847676D02*
X166393333Y-111942914D01*
X166393333Y-111942914D02*
X166298095Y-111990533D01*
X165390476Y-64164819D02*
X165390476Y-64879104D01*
X165390476Y-64879104D02*
X165342857Y-65021961D01*
X165342857Y-65021961D02*
X165247619Y-65117200D01*
X165247619Y-65117200D02*
X165104762Y-65164819D01*
X165104762Y-65164819D02*
X165009524Y-65164819D01*
X166390476Y-65164819D02*
X165819048Y-65164819D01*
X166104762Y-65164819D02*
X166104762Y-64164819D01*
X166104762Y-64164819D02*
X166009524Y-64307676D01*
X166009524Y-64307676D02*
X165914286Y-64402914D01*
X165914286Y-64402914D02*
X165819048Y-64450533D01*
X167009524Y-64164819D02*
X167104762Y-64164819D01*
X167104762Y-64164819D02*
X167200000Y-64212438D01*
X167200000Y-64212438D02*
X167247619Y-64260057D01*
X167247619Y-64260057D02*
X167295238Y-64355295D01*
X167295238Y-64355295D02*
X167342857Y-64545771D01*
X167342857Y-64545771D02*
X167342857Y-64783866D01*
X167342857Y-64783866D02*
X167295238Y-64974342D01*
X167295238Y-64974342D02*
X167247619Y-65069580D01*
X167247619Y-65069580D02*
X167200000Y-65117200D01*
X167200000Y-65117200D02*
X167104762Y-65164819D01*
X167104762Y-65164819D02*
X167009524Y-65164819D01*
X167009524Y-65164819D02*
X166914286Y-65117200D01*
X166914286Y-65117200D02*
X166866667Y-65069580D01*
X166866667Y-65069580D02*
X166819048Y-64974342D01*
X166819048Y-64974342D02*
X166771429Y-64783866D01*
X166771429Y-64783866D02*
X166771429Y-64545771D01*
X166771429Y-64545771D02*
X166819048Y-64355295D01*
X166819048Y-64355295D02*
X166866667Y-64260057D01*
X166866667Y-64260057D02*
X166914286Y-64212438D01*
X166914286Y-64212438D02*
X167009524Y-64164819D01*
X152035180Y-127538095D02*
X151225657Y-127538095D01*
X151225657Y-127538095D02*
X151130419Y-127585714D01*
X151130419Y-127585714D02*
X151082800Y-127633333D01*
X151082800Y-127633333D02*
X151035180Y-127728571D01*
X151035180Y-127728571D02*
X151035180Y-127919047D01*
X151035180Y-127919047D02*
X151082800Y-128014285D01*
X151082800Y-128014285D02*
X151130419Y-128061904D01*
X151130419Y-128061904D02*
X151225657Y-128109523D01*
X151225657Y-128109523D02*
X152035180Y-128109523D01*
X152035180Y-129061904D02*
X152035180Y-128585714D01*
X152035180Y-128585714D02*
X151558990Y-128538095D01*
X151558990Y-128538095D02*
X151606609Y-128585714D01*
X151606609Y-128585714D02*
X151654228Y-128680952D01*
X151654228Y-128680952D02*
X151654228Y-128919047D01*
X151654228Y-128919047D02*
X151606609Y-129014285D01*
X151606609Y-129014285D02*
X151558990Y-129061904D01*
X151558990Y-129061904D02*
X151463752Y-129109523D01*
X151463752Y-129109523D02*
X151225657Y-129109523D01*
X151225657Y-129109523D02*
X151130419Y-129061904D01*
X151130419Y-129061904D02*
X151082800Y-129014285D01*
X151082800Y-129014285D02*
X151035180Y-128919047D01*
X151035180Y-128919047D02*
X151035180Y-128680952D01*
X151035180Y-128680952D02*
X151082800Y-128585714D01*
X151082800Y-128585714D02*
X151130419Y-128538095D01*
%TO.C,J15*%
D12*
X154530000Y-136650000D02*
X165430000Y-136650000D01*
X154530000Y-138370000D02*
X165430000Y-138370000D01*
X154530000Y-141470000D02*
X165430000Y-141470000D01*
X154530000Y-142470000D02*
X165430000Y-142470000D01*
X154530000Y-143390000D02*
X154530000Y-136650000D01*
X155870000Y-143390000D02*
X154530000Y-143390000D01*
X165430000Y-136650000D02*
X165430000Y-143390000D01*
X165430000Y-143390000D02*
X156470000Y-143390000D01*
X156170000Y-143390000D02*
X156610000Y-144000000D01*
X155730000Y-144000000D01*
X156170000Y-143390000D01*
G36*
X156610000Y-144000000D02*
G01*
X155730000Y-144000000D01*
X156170000Y-143390000D01*
X156610000Y-144000000D01*
G37*
%TO.C,J7*%
X140870000Y-136650000D02*
X151770000Y-136650000D01*
X140870000Y-138370000D02*
X151770000Y-138370000D01*
X140870000Y-141470000D02*
X151770000Y-141470000D01*
X140870000Y-142470000D02*
X151770000Y-142470000D01*
X140870000Y-143390000D02*
X140870000Y-136650000D01*
X142210000Y-143390000D02*
X140870000Y-143390000D01*
X151770000Y-136650000D02*
X151770000Y-143390000D01*
X151770000Y-143390000D02*
X142810000Y-143390000D01*
X142510000Y-143390000D02*
X142950000Y-144000000D01*
X142070000Y-144000000D01*
X142510000Y-143390000D01*
G36*
X142950000Y-144000000D02*
G01*
X142070000Y-144000000D01*
X142510000Y-143390000D01*
X142950000Y-144000000D01*
G37*
%TO.C,C11*%
X161560000Y-85732164D02*
X161560000Y-85947836D01*
X162280000Y-85732164D02*
X162280000Y-85947836D01*
%TO.C,C9*%
X141657500Y-89335580D02*
X141657500Y-89054420D01*
X142677500Y-89335580D02*
X142677500Y-89054420D01*
%TO.C,R28*%
X141155276Y-104887500D02*
X141664724Y-104887500D01*
X141155276Y-105932500D02*
X141664724Y-105932500D01*
%TO.C,Y2*%
X144430000Y-113700242D02*
X144430000Y-112029758D01*
X146250000Y-113700242D02*
X146250000Y-112029758D01*
%TO.C,D1*%
X164640000Y-67617500D02*
X164690000Y-67617500D01*
X164640000Y-69137500D02*
X164640000Y-67617500D01*
X165640000Y-69137500D02*
X164640000Y-69137500D01*
X165810000Y-67617500D02*
X166590000Y-67617500D01*
X167710000Y-67617500D02*
X167760000Y-67617500D01*
X167760000Y-67617500D02*
X167760000Y-69137500D01*
X167760000Y-69137500D02*
X166760000Y-69137500D01*
X166580000Y-67077500D02*
X166250000Y-67317500D01*
X166250000Y-66837500D01*
X166580000Y-67077500D01*
G36*
X166580000Y-67077500D02*
G01*
X166250000Y-67317500D01*
X166250000Y-66837500D01*
X166580000Y-67077500D01*
G37*
%TO.C,J5*%
X129415000Y-72440000D02*
X129415000Y-71870000D01*
X129415000Y-74980000D02*
X129415000Y-73960000D01*
X129415000Y-77520000D02*
X129415000Y-76500000D01*
X129415000Y-80060000D02*
X129415000Y-79040000D01*
X129415000Y-82600000D02*
X129415000Y-81580000D01*
X129415000Y-85140000D02*
X129415000Y-84120000D01*
X129415000Y-86660000D02*
X128055000Y-86660000D01*
X129415000Y-87230000D02*
X129415000Y-86660000D01*
X134615000Y-71870000D02*
X129415000Y-71870000D01*
X134615000Y-72440000D02*
X134615000Y-71870000D01*
X134615000Y-74980000D02*
X134615000Y-73960000D01*
X134615000Y-77520000D02*
X134615000Y-76500000D01*
X134615000Y-80060000D02*
X134615000Y-79040000D01*
X134615000Y-82600000D02*
X134615000Y-81580000D01*
X134615000Y-85140000D02*
X134615000Y-84120000D01*
X134615000Y-87230000D02*
X129415000Y-87230000D01*
X134615000Y-87230000D02*
X134615000Y-86660000D01*
%TO.C,R25*%
X141044724Y-101997500D02*
X140535276Y-101997500D01*
X141044724Y-103042500D02*
X140535276Y-103042500D01*
%TO.C,C2*%
X142520580Y-113615000D02*
X142239420Y-113615000D01*
X142520580Y-114635000D02*
X142239420Y-114635000D01*
%TO.C,R13*%
X130555000Y-94177224D02*
X130555000Y-93667776D01*
X131600000Y-94177224D02*
X131600000Y-93667776D01*
%TO.C,C27*%
X143020580Y-130750000D02*
X142739420Y-130750000D01*
X143020580Y-131770000D02*
X142739420Y-131770000D01*
%TO.C,C25*%
X149975580Y-122430000D02*
X149694420Y-122430000D01*
X149975580Y-123450000D02*
X149694420Y-123450000D01*
%TO.C,C16*%
X129234420Y-67030000D02*
X129515580Y-67030000D01*
X129234420Y-68050000D02*
X129515580Y-68050000D01*
%TO.C,C19*%
X129604420Y-105685000D02*
X129885580Y-105685000D01*
X129604420Y-106705000D02*
X129885580Y-106705000D01*
%TO.C,U3*%
D13*
X147060000Y-110501500D02*
X147771500Y-110501500D01*
X147060000Y-115878500D02*
X147771500Y-115878500D01*
X150860000Y-110501500D02*
X150148500Y-110501500D01*
X150860000Y-115878500D02*
X150148500Y-115878500D01*
D14*
X146610000Y-115440000D02*
G75*
G02*
X146510000Y-115440000I-50000J0D01*
G01*
X146510000Y-115440000D02*
G75*
G02*
X146610000Y-115440000I50000J0D01*
G01*
%TO.C,R42*%
D12*
X139627776Y-109227500D02*
X140137224Y-109227500D01*
X139627776Y-110272500D02*
X140137224Y-110272500D01*
%TO.C,J13*%
X132980000Y-60015000D02*
X132980000Y-62515000D01*
X132980000Y-62515000D02*
X134030000Y-62515000D01*
X138030000Y-58045000D02*
X134150000Y-58045000D01*
X138150000Y-62515000D02*
X138150000Y-63505000D01*
X139200000Y-60015000D02*
X139200000Y-62515000D01*
X139200000Y-62515000D02*
X138150000Y-62515000D01*
%TO.C,R34*%
X144607500Y-84597224D02*
X144607500Y-84087776D01*
X145652500Y-84597224D02*
X145652500Y-84087776D01*
%TO.C,C14*%
X161519420Y-117420000D02*
X161800580Y-117420000D01*
X161519420Y-118440000D02*
X161800580Y-118440000D01*
%TO.C,R27*%
X129490276Y-107672500D02*
X129999724Y-107672500D01*
X129490276Y-108717500D02*
X129999724Y-108717500D01*
%TO.C,D8*%
X138395000Y-63265000D02*
X138395000Y-64735000D01*
X138395000Y-64735000D02*
X140680000Y-64735000D01*
X140680000Y-63265000D02*
X138395000Y-63265000D01*
%TO.C,R38*%
X135337500Y-66902224D02*
X135337500Y-66392776D01*
X136382500Y-66902224D02*
X136382500Y-66392776D01*
%TO.C,R23*%
X141664724Y-106467500D02*
X141155276Y-106467500D01*
X141664724Y-107512500D02*
X141155276Y-107512500D01*
%TO.C,R45*%
X146652500Y-121364724D02*
X146652500Y-120855276D01*
X147697500Y-121364724D02*
X147697500Y-120855276D01*
%TO.C,R32*%
X150687500Y-84622224D02*
X150687500Y-84112776D01*
X151732500Y-84622224D02*
X151732500Y-84112776D01*
%TO.C,C4*%
X146665000Y-117716920D02*
X146665000Y-117998080D01*
X147685000Y-117716920D02*
X147685000Y-117998080D01*
%TO.C,D2*%
X156555000Y-78895000D02*
X156555000Y-81355000D01*
X158025000Y-78895000D02*
X156555000Y-78895000D01*
X158025000Y-81355000D02*
X158025000Y-78895000D01*
%TO.C,U4*%
D10*
X138100000Y-98509999D02*
X138800001Y-97809998D01*
X138100000Y-100909997D02*
X138100000Y-98509999D01*
X138100000Y-100909997D02*
X139999999Y-100909997D01*
X138800001Y-97809998D02*
X139999999Y-97809998D01*
X139999999Y-100909997D02*
X139999999Y-97809998D01*
%TO.C,R12*%
D12*
X132555000Y-94177224D02*
X132555000Y-93667776D01*
X133600000Y-94177224D02*
X133600000Y-93667776D01*
%TO.C,R4*%
X129490276Y-111672500D02*
X129999724Y-111672500D01*
X129490276Y-112717500D02*
X129999724Y-112717500D01*
%TO.C,C20*%
X140515579Y-96074998D02*
X140234419Y-96074998D01*
X140515579Y-97094998D02*
X140234419Y-97094998D01*
%TO.C,U8*%
X133685000Y-103635000D02*
X137805000Y-103635000D01*
X133685000Y-103730000D02*
X133685000Y-103635000D01*
X133685000Y-108755000D02*
X133685000Y-108660000D01*
X137805000Y-103635000D02*
X137805000Y-103730000D01*
X137805000Y-108660000D02*
X137805000Y-108755000D01*
X137805000Y-108755000D02*
X133685000Y-108755000D01*
X133145000Y-103725000D02*
X132905000Y-103395000D01*
X133385000Y-103395000D01*
X133145000Y-103725000D01*
G36*
X133145000Y-103725000D02*
G01*
X132905000Y-103395000D01*
X133385000Y-103395000D01*
X133145000Y-103725000D01*
G37*
%TO.C,D3*%
X153515000Y-78895000D02*
X153515000Y-81355000D01*
X154985000Y-78895000D02*
X153515000Y-78895000D01*
X154985000Y-81355000D02*
X154985000Y-78895000D01*
%TO.C,R47*%
X161392776Y-115817500D02*
X161902224Y-115817500D01*
X161392776Y-116862500D02*
X161902224Y-116862500D01*
%TO.C,U2*%
X134360000Y-111275000D02*
X134860000Y-111275000D01*
X134360000Y-111775000D02*
X134360000Y-111275000D01*
X134360000Y-114275000D02*
X134360000Y-113525000D01*
X139060000Y-111275000D02*
X139560000Y-111275000D01*
X139560000Y-111275000D02*
X139560000Y-111775000D01*
X139560000Y-114075000D02*
X139560000Y-114575000D01*
X139560000Y-114575000D02*
X139060000Y-114575000D01*
X134360000Y-114475000D02*
X134360000Y-114835000D01*
X134000000Y-114475000D01*
X134360000Y-114475000D01*
G36*
X134360000Y-114835000D02*
G01*
X134000000Y-114475000D01*
X134360000Y-114475000D01*
X134360000Y-114835000D01*
G37*
%TO.C,D5*%
X147435000Y-78895000D02*
X147435000Y-81355000D01*
X148905000Y-78895000D02*
X147435000Y-78895000D01*
X148905000Y-81355000D02*
X148905000Y-78895000D01*
%TO.C,U7*%
D10*
X134657498Y-89654997D02*
X134657498Y-89814997D01*
X134657498Y-92895001D02*
X134657498Y-93055001D01*
X134817498Y-89654997D02*
X134657498Y-89654997D01*
X134817498Y-93055001D02*
X134657498Y-93055001D01*
X138057499Y-92895001D02*
X138057499Y-93055001D01*
X138057499Y-93055001D02*
X137507500Y-93055001D01*
X138057502Y-89654997D02*
X137897502Y-89654997D01*
X138057502Y-89654997D02*
X138057502Y-89814997D01*
%TO.C,R5*%
D12*
X129490276Y-113672500D02*
X129999724Y-113672500D01*
X129490276Y-114717500D02*
X129999724Y-114717500D01*
%TO.C,R11*%
X148042224Y-134717500D02*
X147532776Y-134717500D01*
X148042224Y-135762500D02*
X147532776Y-135762500D01*
%TO.C,R10*%
X149617776Y-108935000D02*
X150127224Y-108935000D01*
X149617776Y-109980000D02*
X150127224Y-109980000D01*
%TO.C,R39*%
X136790000Y-131082936D02*
X136790000Y-132537064D01*
X138610000Y-131082936D02*
X138610000Y-132537064D01*
%TO.C,R43*%
X150807500Y-126274724D02*
X150807500Y-125765276D01*
X151852500Y-126274724D02*
X151852500Y-125765276D01*
%TO.C,R46*%
X168017500Y-105517776D02*
X168017500Y-106027224D01*
X169062500Y-105517776D02*
X169062500Y-106027224D01*
%TO.C,C1*%
X134540000Y-117084420D02*
X134540000Y-117365580D01*
X135560000Y-117084420D02*
X135560000Y-117365580D01*
%TO.C,JP5*%
X163830000Y-86265000D02*
X165830000Y-86265000D01*
X163830000Y-89065000D02*
X163830000Y-86265000D01*
X165830000Y-86265000D02*
X165830000Y-89065000D01*
X165830000Y-89065000D02*
X163830000Y-89065000D01*
%TO.C,C7*%
X168410000Y-114755580D02*
X168410000Y-114474420D01*
X169430000Y-114755580D02*
X169430000Y-114474420D01*
%TO.C,R8*%
X150187500Y-118112224D02*
X150187500Y-117602776D01*
X151232500Y-118112224D02*
X151232500Y-117602776D01*
%TO.C,Q2*%
X142640000Y-133420000D02*
X142690000Y-133420000D01*
X142640000Y-134940000D02*
X142640000Y-133420000D01*
X143640000Y-134940000D02*
X142640000Y-134940000D01*
X143810000Y-133420000D02*
X144590000Y-133420000D01*
X145710000Y-133420000D02*
X145760000Y-133420000D01*
X145760000Y-133420000D02*
X145760000Y-134940000D01*
X145760000Y-134940000D02*
X144760000Y-134940000D01*
X144580000Y-132880000D02*
X144250000Y-133120000D01*
X144250000Y-132640000D01*
X144580000Y-132880000D01*
G36*
X144580000Y-132880000D02*
G01*
X144250000Y-133120000D01*
X144250000Y-132640000D01*
X144580000Y-132880000D01*
G37*
%TO.C,J3*%
X162915000Y-119860000D02*
X162915000Y-119290000D01*
X162915000Y-122400000D02*
X162915000Y-121380000D01*
X162915000Y-124940000D02*
X162915000Y-123920000D01*
X162915000Y-127480000D02*
X162915000Y-126460000D01*
X162915000Y-130020000D02*
X162915000Y-129000000D01*
X162915000Y-132560000D02*
X162915000Y-131540000D01*
X162915000Y-134080000D02*
X161555000Y-134080000D01*
X162915000Y-134650000D02*
X162915000Y-134080000D01*
X168115000Y-119290000D02*
X162915000Y-119290000D01*
X168115000Y-119860000D02*
X168115000Y-119290000D01*
X168115000Y-122400000D02*
X168115000Y-121380000D01*
X168115000Y-124940000D02*
X168115000Y-123920000D01*
X168115000Y-127480000D02*
X168115000Y-126460000D01*
X168115000Y-130020000D02*
X168115000Y-129000000D01*
X168115000Y-132560000D02*
X168115000Y-131540000D01*
X168115000Y-134650000D02*
X162915000Y-134650000D01*
X168115000Y-134650000D02*
X168115000Y-134080000D01*
%TO.C,R16*%
X151527500Y-91292224D02*
X151527500Y-90782776D01*
X152572500Y-91292224D02*
X152572500Y-90782776D01*
%TO.C,C17*%
X130500580Y-135420000D02*
X130219420Y-135420000D01*
X130500580Y-136440000D02*
X130219420Y-136440000D01*
%TO.C,R14*%
X130547500Y-89847776D02*
X130547500Y-90357224D01*
X131592500Y-89847776D02*
X131592500Y-90357224D01*
%TO.C,C3*%
X142510580Y-110780000D02*
X142229420Y-110780000D01*
X142510580Y-111800000D02*
X142229420Y-111800000D01*
%TO.C,C8*%
X139607500Y-89054420D02*
X139607500Y-89335580D01*
X140627500Y-89054420D02*
X140627500Y-89335580D01*
%TO.C,R9*%
X150134724Y-107427500D02*
X149625276Y-107427500D01*
X150134724Y-108472500D02*
X149625276Y-108472500D01*
%TO.C,C5*%
X148200000Y-117716920D02*
X148200000Y-117998080D01*
X149220000Y-117716920D02*
X149220000Y-117998080D01*
%TO.C,BZ1*%
X137000000Y-115650000D02*
X139200000Y-115650000D01*
X137000000Y-124850000D02*
X137000000Y-115650000D01*
X137000000Y-124850000D02*
X139200000Y-124850000D01*
X139200000Y-124850000D02*
X139200000Y-125250000D01*
X144000000Y-115650000D02*
X146200000Y-115650000D01*
X144000000Y-124850000D02*
X146200000Y-124850000D01*
X146200000Y-115650000D02*
X146200000Y-124850000D01*
%TO.C,D9*%
X130887500Y-64735000D02*
X133172500Y-64735000D01*
X133172500Y-63265000D02*
X130887500Y-63265000D01*
X133172500Y-64735000D02*
X133172500Y-63265000D01*
%TO.C,Q1*%
X153890000Y-117130000D02*
X155410000Y-117130000D01*
X153890000Y-118130000D02*
X153890000Y-117130000D01*
X153890000Y-120250000D02*
X153890000Y-119250000D01*
X155410000Y-117130000D02*
X155410000Y-117180000D01*
X155410000Y-118300000D02*
X155410000Y-119080000D01*
X155410000Y-120200000D02*
X155410000Y-120250000D01*
X155410000Y-120250000D02*
X153890000Y-120250000D01*
X155950000Y-119070000D02*
X155710000Y-118740000D01*
X156190000Y-118740000D01*
X155950000Y-119070000D01*
G36*
X155950000Y-119070000D02*
G01*
X155710000Y-118740000D01*
X156190000Y-118740000D01*
X155950000Y-119070000D01*
G37*
%TO.C,C18*%
X137190000Y-127713080D02*
X137190000Y-127431920D01*
X138210000Y-127713080D02*
X138210000Y-127431920D01*
%TO.C,R7*%
X132254724Y-96312500D02*
X131745276Y-96312500D01*
X132254724Y-97357500D02*
X131745276Y-97357500D01*
%TO.C,C28*%
X142294420Y-125740000D02*
X142575580Y-125740000D01*
X142294420Y-126760000D02*
X142575580Y-126760000D01*
%TO.C,R30*%
X156767500Y-84597224D02*
X156767500Y-84087776D01*
X157812500Y-84597224D02*
X157812500Y-84087776D01*
%TO.C,R17*%
X149527500Y-90782776D02*
X149527500Y-91292224D01*
X150572500Y-90782776D02*
X150572500Y-91292224D01*
%TO.C,R19*%
X155597500Y-134426676D02*
X155597500Y-134936124D01*
X156642500Y-134426676D02*
X156642500Y-134936124D01*
%TO.C,R29*%
X148042224Y-132717500D02*
X147532776Y-132717500D01*
X148042224Y-133762500D02*
X147532776Y-133762500D01*
%TO.C,R15*%
X132547500Y-89847776D02*
X132547500Y-90357224D01*
X133592500Y-89847776D02*
X133592500Y-90357224D01*
%TO.C,D6*%
X144395000Y-78895000D02*
X144395000Y-81355000D01*
X145865000Y-78895000D02*
X144395000Y-78895000D01*
X145865000Y-81355000D02*
X145865000Y-78895000D01*
%TO.C,R44*%
X150767500Y-130315276D02*
X150767500Y-130824724D01*
X151812500Y-130315276D02*
X151812500Y-130824724D01*
%TO.C,U6*%
D13*
X153570000Y-99510000D02*
X153570000Y-92530000D01*
X163970000Y-99510000D02*
X163970000Y-92530000D01*
D10*
X154320000Y-102770000D02*
G75*
G02*
X154120000Y-102770000I-100000J0D01*
G01*
X154120000Y-102770000D02*
G75*
G02*
X154320000Y-102770000I100000J0D01*
G01*
%TO.C,U1*%
D12*
X167460000Y-113690000D02*
X164660000Y-113690000D01*
X167460000Y-117090000D02*
X164460000Y-117090000D01*
X164360000Y-113990000D02*
X164080000Y-113990000D01*
X164360000Y-113710000D01*
X164360000Y-113990000D01*
G36*
X164360000Y-113990000D02*
G01*
X164080000Y-113990000D01*
X164360000Y-113710000D01*
X164360000Y-113990000D01*
G37*
%TO.C,R24*%
X137562224Y-101997500D02*
X137052776Y-101997500D01*
X137562224Y-103042500D02*
X137052776Y-103042500D01*
%TO.C,R6*%
X131745276Y-100312500D02*
X132254724Y-100312500D01*
X131745276Y-101357500D02*
X132254724Y-101357500D01*
%TO.C,R18*%
X147527500Y-91292224D02*
X147527500Y-90782776D01*
X148572500Y-91292224D02*
X148572500Y-90782776D01*
%TO.C,C23*%
X129885580Y-109685000D02*
X129604420Y-109685000D01*
X129885580Y-110705000D02*
X129604420Y-110705000D01*
%TO.C,C22*%
X141280580Y-92360000D02*
X140999420Y-92360000D01*
X141280580Y-93380000D02*
X140999420Y-93380000D01*
%TO.C,C26*%
X149980580Y-120950000D02*
X149699420Y-120950000D01*
X149980580Y-121970000D02*
X149699420Y-121970000D01*
%TO.C,C6*%
X153156920Y-113430000D02*
X153438080Y-113430000D01*
X153156920Y-114450000D02*
X153438080Y-114450000D01*
%TO.C,C12*%
X134550000Y-97279420D02*
X134550000Y-97560580D01*
X135570000Y-97279420D02*
X135570000Y-97560580D01*
%TO.C,R41*%
X129490276Y-115672500D02*
X129999724Y-115672500D01*
X129490276Y-116717500D02*
X129999724Y-116717500D01*
%TO.C,R31*%
X153727500Y-84622224D02*
X153727500Y-84112776D01*
X154772500Y-84622224D02*
X154772500Y-84112776D01*
%TO.C,R20*%
X141887500Y-128375276D02*
X141887500Y-128884724D01*
X142932500Y-128375276D02*
X142932500Y-128884724D01*
%TO.C,R35*%
X137137500Y-66392776D02*
X137137500Y-66902224D01*
X138182500Y-66392776D02*
X138182500Y-66902224D01*
%TO.C,R26*%
X129490276Y-103672500D02*
X129999724Y-103672500D01*
X129490276Y-104717500D02*
X129999724Y-104717500D01*
%TO.C,R40*%
X139140000Y-131072936D02*
X139140000Y-132527064D01*
X140960000Y-131072936D02*
X140960000Y-132527064D01*
%TO.C,C13*%
X139190000Y-127713080D02*
X139190000Y-127431920D01*
X140210000Y-127713080D02*
X140210000Y-127431920D01*
%TO.C,R22*%
X152945276Y-134777500D02*
X153454724Y-134777500D01*
X152945276Y-135822500D02*
X153454724Y-135822500D01*
%TO.C,C10*%
X164580000Y-96859420D02*
X164580000Y-97140580D01*
X165600000Y-96859420D02*
X165600000Y-97140580D01*
%TO.C,R37*%
X133537500Y-66902224D02*
X133537500Y-66392776D01*
X134582500Y-66902224D02*
X134582500Y-66392776D01*
%TO.C,J4*%
X129415000Y-119860000D02*
X129415000Y-119290000D01*
X129415000Y-122400000D02*
X129415000Y-121380000D01*
X129415000Y-124940000D02*
X129415000Y-123920000D01*
X129415000Y-127480000D02*
X129415000Y-126460000D01*
X129415000Y-130020000D02*
X129415000Y-129000000D01*
X129415000Y-132560000D02*
X129415000Y-131540000D01*
X129415000Y-134080000D02*
X128055000Y-134080000D01*
X129415000Y-134650000D02*
X129415000Y-134080000D01*
X134615000Y-119290000D02*
X129415000Y-119290000D01*
X134615000Y-119860000D02*
X134615000Y-119290000D01*
X134615000Y-122400000D02*
X134615000Y-121380000D01*
X134615000Y-124940000D02*
X134615000Y-123920000D01*
X134615000Y-127480000D02*
X134615000Y-126460000D01*
X134615000Y-130020000D02*
X134615000Y-129000000D01*
X134615000Y-132560000D02*
X134615000Y-131540000D01*
X134615000Y-134650000D02*
X129415000Y-134650000D01*
X134615000Y-134650000D02*
X134615000Y-134080000D01*
%TO.C,R33*%
X147647500Y-84622224D02*
X147647500Y-84112776D01*
X148692500Y-84622224D02*
X148692500Y-84112776D01*
%TO.C,C21*%
X144499420Y-105680000D02*
X144780580Y-105680000D01*
X144499420Y-106700000D02*
X144780580Y-106700000D01*
%TO.C,D4*%
X150475000Y-78895000D02*
X150475000Y-81355000D01*
X151945000Y-78895000D02*
X150475000Y-78895000D01*
X151945000Y-81355000D02*
X151945000Y-78895000D01*
%TO.C,J6*%
X160420000Y-80100000D02*
X161220000Y-80100000D01*
X160420000Y-80300000D02*
X160420000Y-80100000D01*
X160420000Y-83100000D02*
X160420000Y-82900000D01*
X161220000Y-80100000D02*
X161220000Y-79600000D01*
X161220000Y-83100000D02*
X160420000Y-83100000D01*
X162620000Y-80100000D02*
X162620000Y-79600000D01*
X162620000Y-80100000D02*
X163220000Y-80100000D01*
X163220000Y-80100000D02*
X163420000Y-80300000D01*
X163420000Y-82900000D02*
X163420000Y-83100000D01*
X163420000Y-83100000D02*
X162620000Y-83100000D01*
%TO.C,R21*%
X150207500Y-134582224D02*
X150207500Y-134072776D01*
X151252500Y-134582224D02*
X151252500Y-134072776D01*
%TO.C,R36*%
X131737500Y-66392776D02*
X131737500Y-66902224D01*
X132782500Y-66392776D02*
X132782500Y-66902224D01*
%TO.C,J10*%
X163090000Y-60015000D02*
X163090000Y-62515000D01*
X163090000Y-62515000D02*
X164140000Y-62515000D01*
X168140000Y-58045000D02*
X164260000Y-58045000D01*
X168260000Y-62515000D02*
X168260000Y-63505000D01*
X169310000Y-60015000D02*
X169310000Y-62515000D01*
X169310000Y-62515000D02*
X168260000Y-62515000D01*
%TO.C,U5*%
D15*
X144634900Y-125594900D02*
X144634900Y-126314860D01*
X144634900Y-130285140D02*
X144634900Y-131005100D01*
X144634900Y-131005100D02*
X145354860Y-131005100D01*
X145354860Y-125594900D02*
X144634900Y-125594900D01*
X149325140Y-131005100D02*
X150045100Y-131005100D01*
X150045100Y-125594900D02*
X149325140Y-125594900D01*
X150045100Y-126314860D02*
X150045100Y-125594900D01*
X150045100Y-131005100D02*
X150045100Y-130285140D01*
%TO.C,C15*%
D12*
X129234420Y-69030000D02*
X129515580Y-69030000D01*
X129234420Y-70050000D02*
X129515580Y-70050000D01*
%TO.C,D7*%
X138925000Y-65847500D02*
X138925000Y-68132500D01*
X138925000Y-68132500D02*
X140395000Y-68132500D01*
X140395000Y-68132500D02*
X140395000Y-65847500D01*
%TD*%
M02*
