M48
; DRILL file KiCad 10.0.3 date 2026-06-17T18:35:02
; FORMAT={-:-/ absolute / metric / decimal}
; #@! TF.CreationDate,2026-06-17T18:35:02-04:00
; #@! TF.GenerationSoftware,Kicad,Pcbnew,10.0.3
; #@! TF.FileFunction,Plated,1,4,PTH
FMAT,2
METRIC
; #@! TA.AperFunction,Plated,PTH,ViaDrill
T1C0.200
; #@! TA.AperFunction,Plated,PTH,ComponentDrill
T2C0.203
; #@! TA.AperFunction,Plated,PTH,ViaDrill
T3C0.250
; #@! TA.AperFunction,Plated,PTH,ViaDrill
T4C0.300
; #@! TA.AperFunction,Plated,PTH,ViaDrill
T5C0.500
; #@! TA.AperFunction,Plated,PTH,ViaDrill
T6C0.700
; #@! TA.AperFunction,Plated,PTH,ComponentDrill
T7C1.000
; #@! TA.AperFunction,Plated,PTH,ComponentDrill
T8C1.200
%
G90
G05
T1
X160.98Y-83.221
X161.1Y-85.4
X161.1Y-86.2
X161.2Y-84.7
X161.2Y-87.0
X161.26Y-90.015
X161.32Y-84.021
X161.32Y-87.7
X161.32Y-88.38
X161.32Y-89.18
X162.5Y-84.6
X162.52Y-84.021
X162.52Y-87.7
X162.52Y-88.38
X162.52Y-89.18
X162.527Y-89.982
X162.6Y-87.0
X162.7Y-86.2
X162.86Y-83.221
T2
X135.782Y-91.355
X136.357Y-90.405
X136.357Y-92.305
X136.933Y-91.355
T3
X132.0Y-132.0
X138.0Y-132.0
X140.05Y-132.0
X153.0Y-126.0
X153.33Y-129.305
X155.705Y-131.585
T4
X123.0Y-63.0
X123.0Y-66.0
X123.0Y-69.0
X123.0Y-75.0
X123.0Y-135.0
X123.0Y-138.0
X126.0Y-60.0
X126.0Y-63.0
X126.0Y-66.0
X126.0Y-69.0
X126.0Y-75.0
X126.0Y-135.0
X126.0Y-141.0
X127.62Y-106.19
X128.33Y-94.97
X128.6Y-68.39
X129.0Y-60.0
X129.0Y-63.0
X129.0Y-66.0
X129.0Y-72.0
X129.0Y-87.0
X129.0Y-93.0
X129.0Y-99.0
X129.0Y-102.0
X129.0Y-141.0
X129.06Y-84.63
X129.157Y-88.003
X129.26Y-89.2
X131.03Y-65.7
X131.66Y-106.83
X132.0Y-60.0
X132.0Y-69.0
X132.0Y-72.0
X132.0Y-78.0
X132.0Y-81.0
X132.0Y-96.0
X132.0Y-99.0
X132.0Y-102.0
X132.0Y-111.0
X132.0Y-120.0
X132.0Y-123.0
X132.0Y-135.0
X132.0Y-141.0
X132.08Y-88.04
X132.14Y-118.93
X132.141Y-97.889
X132.9Y-102.1
X133.077Y-95.86
X133.33Y-118.87
X133.75Y-99.685
X133.779Y-97.701
X134.127Y-88.595
X134.21Y-92.87
X135.0Y-60.0
X135.0Y-72.0
X135.0Y-135.0
X135.085Y-115.51
X136.36Y-110.94
X136.85Y-73.2
X136.85Y-74.47
X136.85Y-75.74
X136.85Y-78.28
X136.85Y-80.82
X136.85Y-83.36
X136.85Y-84.63
X136.85Y-85.9
X136.85Y-87.17
X136.89Y-88.59
X137.47Y-93.015
X138.0Y-69.0
X138.0Y-96.0
X138.0Y-117.0
X138.0Y-120.0
X138.0Y-123.0
X138.685Y-65.65
X138.72Y-126.797
X140.137Y-91.023
X140.33Y-108.45
X140.33Y-112.66
X140.8Y-126.1
X141.0Y-60.0
X141.0Y-66.0
X141.0Y-69.0
X141.0Y-72.0
X141.0Y-75.0
X141.0Y-78.0
X141.0Y-81.0
X141.0Y-120.0
X141.09Y-94.65
X142.36Y-94.35
X142.36Y-97.35
X142.41Y-128.53
X142.86Y-102.52
X143.25Y-142.34
X143.33Y-108.45
X143.33Y-112.66
X143.386Y-128.356
X143.63Y-127.7
X143.63Y-130.1
X143.7Y-128.982
X143.849Y-127.035
X144.0Y-81.0
X144.0Y-84.0
X144.0Y-99.0
X144.0Y-102.0
X144.0Y-120.0
X144.2Y-132.28
X144.23Y-101.0
X144.6Y-115.875
X145.13Y-86.98
X145.64Y-117.08
X145.79Y-118.66
X146.044Y-131.736
X146.21Y-109.6
X146.25Y-142.34
X146.34Y-127.3
X146.34Y-128.3
X146.34Y-129.3
X146.37Y-90.11
X146.37Y-106.19
X147.0Y-81.0
X147.0Y-84.0
X147.0Y-87.0
X147.0Y-99.0
X147.0Y-102.0
X147.0Y-105.0
X147.28Y-107.06
X147.34Y-127.3
X147.34Y-128.3
X147.34Y-129.3
X147.34Y-131.81
X147.41Y-109.66
X148.05Y-93.08
X148.17Y-86.98
X148.2Y-124.5
X148.26Y-131.722
X148.34Y-127.3
X148.34Y-128.3
X148.34Y-129.3
X148.96Y-113.19
X149.09Y-124.48
X149.25Y-142.34
X149.74Y-126.32
X149.74Y-130.26
X150.0Y-81.0
X150.0Y-84.0
X150.0Y-87.0
X150.0Y-102.0
X150.0Y-105.0
X150.05Y-93.11
X150.73Y-136.1
X150.83Y-137.37
X151.21Y-86.98
X151.69Y-136.59
X151.8Y-115.44
X151.81Y-118.77
X151.98Y-107.95
X152.05Y-93.11
X152.09Y-109.47
X152.37Y-123.52
X152.43Y-102.64
X152.53Y-132.89
X152.908Y-107.203
X153.0Y-81.0
X153.0Y-84.0
X153.0Y-96.0
X153.23Y-102.64
X154.25Y-86.98
X154.69Y-136.59
X154.89Y-137.98
X156.0Y-81.0
X156.0Y-84.0
X156.0Y-87.0
X156.0Y-105.0
X156.0Y-107.31
X156.0Y-111.0
X156.68Y-116.67
X156.89Y-142.34
X157.29Y-86.98
X157.79Y-115.04
X158.62Y-98.63
X159.0Y-81.0
X159.0Y-84.0
X159.0Y-87.0
X159.0Y-96.0
X159.0Y-105.0
X159.0Y-107.31
X159.0Y-111.0
X159.0Y-120.0
X159.0Y-126.0
X159.0Y-130.33
X159.81Y-93.21
X159.89Y-142.34
X160.735Y-115.245
X162.0Y-60.0
X162.0Y-63.0
X162.0Y-66.0
X162.0Y-69.0
X162.0Y-72.0
X162.0Y-75.0
X162.0Y-78.0
X162.0Y-93.0
X162.0Y-96.0
X162.0Y-107.31
X162.0Y-111.0
X162.0Y-132.0
X162.0Y-135.0
X162.89Y-142.34
X163.03Y-98.57
X163.99Y-97.817
X164.57Y-113.39
X165.0Y-60.0
X165.0Y-66.0
X165.0Y-75.0
X165.0Y-78.0
X165.0Y-81.0
X165.0Y-84.0
X165.0Y-108.0
X165.0Y-111.0
X165.0Y-132.0
X165.0Y-135.0
X165.515Y-118.46
X165.515Y-124.46
X165.515Y-127.46
X165.53Y-130.01
X166.2Y-67.85
X166.56Y-84.07
X166.56Y-87.07
X166.56Y-90.07
X166.56Y-93.1
X166.56Y-96.1
X167.39Y-113.38
X168.0Y-66.0
X168.0Y-69.0
X168.0Y-72.0
X168.0Y-111.0
X168.0Y-132.0
X168.0Y-135.0
X168.92Y-116.22
X171.0Y-60.0
X171.0Y-63.0
X171.0Y-66.0
X171.0Y-69.0
X171.0Y-75.0
X171.0Y-135.0
X174.0Y-63.0
X174.0Y-66.0
X174.0Y-69.0
X174.0Y-75.0
X174.0Y-135.0
X174.0Y-138.0
T5
X132.0Y-125.66
X132.0Y-128.2
X132.0Y-130.74
X132.0Y-133.28
T6
X140.878Y-127.88
X160.52Y-128.24
T7
X123.08Y-77.0
X123.08Y-79.54
X123.08Y-82.08
X123.08Y-84.62
X123.08Y-87.16
X123.08Y-89.7
X123.08Y-92.24
X123.08Y-94.78
X123.08Y-97.32
X123.08Y-99.86
X123.08Y-102.4
X123.08Y-104.94
X123.08Y-107.48
X123.08Y-110.02
X123.08Y-112.56
X123.08Y-115.1
X123.08Y-117.64
X123.08Y-120.18
X123.08Y-122.72
X123.08Y-125.26
X123.08Y-127.8
X123.08Y-130.34
X123.08Y-132.88
X125.62Y-77.0
X125.62Y-79.54
X125.62Y-82.08
X125.62Y-84.62
X125.62Y-87.16
X125.62Y-89.7
X125.62Y-92.24
X125.62Y-94.78
X125.62Y-97.32
X125.62Y-99.86
X125.62Y-102.4
X125.62Y-104.94
X125.62Y-107.48
X125.62Y-110.02
X125.62Y-112.56
X125.62Y-115.1
X125.62Y-117.64
X125.62Y-120.18
X125.62Y-122.72
X125.62Y-125.26
X125.62Y-127.8
X125.62Y-130.34
X125.62Y-132.88
X171.38Y-77.0
X171.38Y-79.54
X171.38Y-82.08
X171.38Y-84.62
X171.38Y-87.16
X171.38Y-89.7
X171.38Y-92.24
X171.38Y-94.78
X171.38Y-97.32
X171.38Y-99.86
X171.38Y-102.4
X171.38Y-104.94
X171.38Y-107.48
X171.38Y-110.02
X171.38Y-112.56
X171.38Y-115.1
X171.38Y-117.64
X171.38Y-120.18
X171.38Y-122.72
X171.38Y-125.26
X171.38Y-127.8
X171.38Y-130.34
X171.38Y-132.88
X173.92Y-77.0
X173.92Y-79.54
X173.92Y-82.08
X173.92Y-84.62
X173.92Y-87.16
X173.92Y-89.7
X173.92Y-92.24
X173.92Y-94.78
X173.92Y-97.32
X173.92Y-99.86
X173.92Y-102.4
X173.92Y-104.94
X173.92Y-107.48
X173.92Y-110.02
X173.92Y-112.56
X173.92Y-115.1
X173.92Y-117.64
X173.92Y-120.18
X173.92Y-122.72
X173.92Y-125.26
X173.92Y-127.8
X173.92Y-130.34
X173.92Y-132.88
T8
X134.25Y-139.87
X136.79Y-139.87
X142.51Y-139.87
X145.05Y-139.87
X147.59Y-139.87
X150.13Y-139.87
X156.17Y-139.87
X158.71Y-139.87
X161.25Y-139.87
X163.79Y-139.87
M30
