M48
; DRILL file KiCad 10.0.3 date 2026-06-17T17:13:50
; FORMAT={-:-/ absolute / inch / decimal}
; #@! TF.CreationDate,2026-06-17T17:13:50-04:00
; #@! TF.GenerationSoftware,Kicad,Pcbnew,10.0.3
; #@! TF.FileFunction,Plated,1,2,PTH
FMAT,2
INCH
; #@! TA.AperFunction,Plated,PTH,ViaDrill
T1C0.0079
; #@! TA.AperFunction,Plated,PTH,ViaDrill
T2C0.0118
; #@! TA.AperFunction,Plated,PTH,ComponentDrill
T3C0.0394
%
G90
G05
T1
X7.7953Y-3.6614
X7.7953Y-3.7795
X7.7953Y-4.0157
X7.7953Y-4.1339
X7.9134Y-3.6614
X7.9134Y-4.252
X8.1496Y-3.6614
X8.1496Y-4.1339
X8.1496Y-4.252
X8.2677Y-3.6614
X8.2677Y-4.252
X8.3858Y-3.6614
X8.3858Y-4.252
X8.5039Y-3.6614
X8.5039Y-3.7795
X8.5039Y-4.0157
X8.5039Y-4.1339
X8.5039Y-4.252
X8.622Y-3.6614
X8.622Y-3.7795
X8.622Y-3.8976
X8.622Y-4.252
X8.7402Y-3.6614
X8.7402Y-3.7795
X8.7402Y-4.0157
X8.7402Y-4.1339
T2
X8.002Y-4.0157
X8.0512Y-3.9764
X8.2185Y-3.9469
X8.3366Y-3.8386
X8.4302Y-3.9814
T3
X8.3661Y-4.1929
M30
