%TF.GenerationSoftware,KiCad,Pcbnew,10.0.3*%
%TF.CreationDate,2026-06-16T17:50:04-04:00*%
%TF.ProjectId,Photodiode-breakout,50686f74-6f64-4696-9f64-652d62726561,rev?*%
%TF.SameCoordinates,Original*%
%TF.FileFunction,Legend,Bot*%
%TF.FilePolarity,Positive*%
%FSLAX46Y46*%
G04 Gerber Fmt 4.6, Leading zero omitted, Abs format (unit mm)*
G04 Created by KiCad (PCBNEW 10.0.3) date 2026-06-16 17:50:04*
%MOMM*%
%LPD*%
G01*
G04 APERTURE LIST*
%ADD10C,0.100000*%
%ADD11C,0.120000*%
G04 APERTURE END LIST*
D10*
X219797619Y-92262475D02*
X219797619Y-91262475D01*
X219797619Y-91262475D02*
X219416667Y-91262475D01*
X219416667Y-91262475D02*
X219321429Y-91310094D01*
X219321429Y-91310094D02*
X219273810Y-91357713D01*
X219273810Y-91357713D02*
X219226191Y-91452951D01*
X219226191Y-91452951D02*
X219226191Y-91595808D01*
X219226191Y-91595808D02*
X219273810Y-91691046D01*
X219273810Y-91691046D02*
X219321429Y-91738665D01*
X219321429Y-91738665D02*
X219416667Y-91786284D01*
X219416667Y-91786284D02*
X219797619Y-91786284D01*
X218797619Y-92262475D02*
X218797619Y-91262475D01*
X218369048Y-92262475D02*
X218369048Y-91738665D01*
X218369048Y-91738665D02*
X218416667Y-91643427D01*
X218416667Y-91643427D02*
X218511905Y-91595808D01*
X218511905Y-91595808D02*
X218654762Y-91595808D01*
X218654762Y-91595808D02*
X218750000Y-91643427D01*
X218750000Y-91643427D02*
X218797619Y-91691046D01*
X217750000Y-92262475D02*
X217845238Y-92214856D01*
X217845238Y-92214856D02*
X217892857Y-92167236D01*
X217892857Y-92167236D02*
X217940476Y-92071998D01*
X217940476Y-92071998D02*
X217940476Y-91786284D01*
X217940476Y-91786284D02*
X217892857Y-91691046D01*
X217892857Y-91691046D02*
X217845238Y-91643427D01*
X217845238Y-91643427D02*
X217750000Y-91595808D01*
X217750000Y-91595808D02*
X217607143Y-91595808D01*
X217607143Y-91595808D02*
X217511905Y-91643427D01*
X217511905Y-91643427D02*
X217464286Y-91691046D01*
X217464286Y-91691046D02*
X217416667Y-91786284D01*
X217416667Y-91786284D02*
X217416667Y-92071998D01*
X217416667Y-92071998D02*
X217464286Y-92167236D01*
X217464286Y-92167236D02*
X217511905Y-92214856D01*
X217511905Y-92214856D02*
X217607143Y-92262475D01*
X217607143Y-92262475D02*
X217750000Y-92262475D01*
X217130952Y-91595808D02*
X216750000Y-91595808D01*
X216988095Y-91262475D02*
X216988095Y-92119617D01*
X216988095Y-92119617D02*
X216940476Y-92214856D01*
X216940476Y-92214856D02*
X216845238Y-92262475D01*
X216845238Y-92262475D02*
X216750000Y-92262475D01*
X216273809Y-92262475D02*
X216369047Y-92214856D01*
X216369047Y-92214856D02*
X216416666Y-92167236D01*
X216416666Y-92167236D02*
X216464285Y-92071998D01*
X216464285Y-92071998D02*
X216464285Y-91786284D01*
X216464285Y-91786284D02*
X216416666Y-91691046D01*
X216416666Y-91691046D02*
X216369047Y-91643427D01*
X216369047Y-91643427D02*
X216273809Y-91595808D01*
X216273809Y-91595808D02*
X216130952Y-91595808D01*
X216130952Y-91595808D02*
X216035714Y-91643427D01*
X216035714Y-91643427D02*
X215988095Y-91691046D01*
X215988095Y-91691046D02*
X215940476Y-91786284D01*
X215940476Y-91786284D02*
X215940476Y-92071998D01*
X215940476Y-92071998D02*
X215988095Y-92167236D01*
X215988095Y-92167236D02*
X216035714Y-92214856D01*
X216035714Y-92214856D02*
X216130952Y-92262475D01*
X216130952Y-92262475D02*
X216273809Y-92262475D01*
X215083333Y-92262475D02*
X215083333Y-91262475D01*
X215083333Y-92214856D02*
X215178571Y-92262475D01*
X215178571Y-92262475D02*
X215369047Y-92262475D01*
X215369047Y-92262475D02*
X215464285Y-92214856D01*
X215464285Y-92214856D02*
X215511904Y-92167236D01*
X215511904Y-92167236D02*
X215559523Y-92071998D01*
X215559523Y-92071998D02*
X215559523Y-91786284D01*
X215559523Y-91786284D02*
X215511904Y-91691046D01*
X215511904Y-91691046D02*
X215464285Y-91643427D01*
X215464285Y-91643427D02*
X215369047Y-91595808D01*
X215369047Y-91595808D02*
X215178571Y-91595808D01*
X215178571Y-91595808D02*
X215083333Y-91643427D01*
X214607142Y-92262475D02*
X214607142Y-91595808D01*
X214607142Y-91262475D02*
X214654761Y-91310094D01*
X214654761Y-91310094D02*
X214607142Y-91357713D01*
X214607142Y-91357713D02*
X214559523Y-91310094D01*
X214559523Y-91310094D02*
X214607142Y-91262475D01*
X214607142Y-91262475D02*
X214607142Y-91357713D01*
X213988095Y-92262475D02*
X214083333Y-92214856D01*
X214083333Y-92214856D02*
X214130952Y-92167236D01*
X214130952Y-92167236D02*
X214178571Y-92071998D01*
X214178571Y-92071998D02*
X214178571Y-91786284D01*
X214178571Y-91786284D02*
X214130952Y-91691046D01*
X214130952Y-91691046D02*
X214083333Y-91643427D01*
X214083333Y-91643427D02*
X213988095Y-91595808D01*
X213988095Y-91595808D02*
X213845238Y-91595808D01*
X213845238Y-91595808D02*
X213750000Y-91643427D01*
X213750000Y-91643427D02*
X213702381Y-91691046D01*
X213702381Y-91691046D02*
X213654762Y-91786284D01*
X213654762Y-91786284D02*
X213654762Y-92071998D01*
X213654762Y-92071998D02*
X213702381Y-92167236D01*
X213702381Y-92167236D02*
X213750000Y-92214856D01*
X213750000Y-92214856D02*
X213845238Y-92262475D01*
X213845238Y-92262475D02*
X213988095Y-92262475D01*
X212797619Y-92262475D02*
X212797619Y-91262475D01*
X212797619Y-92214856D02*
X212892857Y-92262475D01*
X212892857Y-92262475D02*
X213083333Y-92262475D01*
X213083333Y-92262475D02*
X213178571Y-92214856D01*
X213178571Y-92214856D02*
X213226190Y-92167236D01*
X213226190Y-92167236D02*
X213273809Y-92071998D01*
X213273809Y-92071998D02*
X213273809Y-91786284D01*
X213273809Y-91786284D02*
X213226190Y-91691046D01*
X213226190Y-91691046D02*
X213178571Y-91643427D01*
X213178571Y-91643427D02*
X213083333Y-91595808D01*
X213083333Y-91595808D02*
X212892857Y-91595808D01*
X212892857Y-91595808D02*
X212797619Y-91643427D01*
X211940476Y-92214856D02*
X212035714Y-92262475D01*
X212035714Y-92262475D02*
X212226190Y-92262475D01*
X212226190Y-92262475D02*
X212321428Y-92214856D01*
X212321428Y-92214856D02*
X212369047Y-92119617D01*
X212369047Y-92119617D02*
X212369047Y-91738665D01*
X212369047Y-91738665D02*
X212321428Y-91643427D01*
X212321428Y-91643427D02*
X212226190Y-91595808D01*
X212226190Y-91595808D02*
X212035714Y-91595808D01*
X212035714Y-91595808D02*
X211940476Y-91643427D01*
X211940476Y-91643427D02*
X211892857Y-91738665D01*
X211892857Y-91738665D02*
X211892857Y-91833903D01*
X211892857Y-91833903D02*
X212369047Y-91929141D01*
X210369047Y-91738665D02*
X210226190Y-91786284D01*
X210226190Y-91786284D02*
X210178571Y-91833903D01*
X210178571Y-91833903D02*
X210130952Y-91929141D01*
X210130952Y-91929141D02*
X210130952Y-92071998D01*
X210130952Y-92071998D02*
X210178571Y-92167236D01*
X210178571Y-92167236D02*
X210226190Y-92214856D01*
X210226190Y-92214856D02*
X210321428Y-92262475D01*
X210321428Y-92262475D02*
X210702380Y-92262475D01*
X210702380Y-92262475D02*
X210702380Y-91262475D01*
X210702380Y-91262475D02*
X210369047Y-91262475D01*
X210369047Y-91262475D02*
X210273809Y-91310094D01*
X210273809Y-91310094D02*
X210226190Y-91357713D01*
X210226190Y-91357713D02*
X210178571Y-91452951D01*
X210178571Y-91452951D02*
X210178571Y-91548189D01*
X210178571Y-91548189D02*
X210226190Y-91643427D01*
X210226190Y-91643427D02*
X210273809Y-91691046D01*
X210273809Y-91691046D02*
X210369047Y-91738665D01*
X210369047Y-91738665D02*
X210702380Y-91738665D01*
X209702380Y-92262475D02*
X209702380Y-91595808D01*
X209702380Y-91786284D02*
X209654761Y-91691046D01*
X209654761Y-91691046D02*
X209607142Y-91643427D01*
X209607142Y-91643427D02*
X209511904Y-91595808D01*
X209511904Y-91595808D02*
X209416666Y-91595808D01*
X208702380Y-92214856D02*
X208797618Y-92262475D01*
X208797618Y-92262475D02*
X208988094Y-92262475D01*
X208988094Y-92262475D02*
X209083332Y-92214856D01*
X209083332Y-92214856D02*
X209130951Y-92119617D01*
X209130951Y-92119617D02*
X209130951Y-91738665D01*
X209130951Y-91738665D02*
X209083332Y-91643427D01*
X209083332Y-91643427D02*
X208988094Y-91595808D01*
X208988094Y-91595808D02*
X208797618Y-91595808D01*
X208797618Y-91595808D02*
X208702380Y-91643427D01*
X208702380Y-91643427D02*
X208654761Y-91738665D01*
X208654761Y-91738665D02*
X208654761Y-91833903D01*
X208654761Y-91833903D02*
X209130951Y-91929141D01*
X207797618Y-92262475D02*
X207797618Y-91738665D01*
X207797618Y-91738665D02*
X207845237Y-91643427D01*
X207845237Y-91643427D02*
X207940475Y-91595808D01*
X207940475Y-91595808D02*
X208130951Y-91595808D01*
X208130951Y-91595808D02*
X208226189Y-91643427D01*
X207797618Y-92214856D02*
X207892856Y-92262475D01*
X207892856Y-92262475D02*
X208130951Y-92262475D01*
X208130951Y-92262475D02*
X208226189Y-92214856D01*
X208226189Y-92214856D02*
X208273808Y-92119617D01*
X208273808Y-92119617D02*
X208273808Y-92024379D01*
X208273808Y-92024379D02*
X208226189Y-91929141D01*
X208226189Y-91929141D02*
X208130951Y-91881522D01*
X208130951Y-91881522D02*
X207892856Y-91881522D01*
X207892856Y-91881522D02*
X207797618Y-91833903D01*
X207321427Y-92262475D02*
X207321427Y-91262475D01*
X207226189Y-91881522D02*
X206940475Y-92262475D01*
X206940475Y-91595808D02*
X207321427Y-91976760D01*
X206369046Y-92262475D02*
X206464284Y-92214856D01*
X206464284Y-92214856D02*
X206511903Y-92167236D01*
X206511903Y-92167236D02*
X206559522Y-92071998D01*
X206559522Y-92071998D02*
X206559522Y-91786284D01*
X206559522Y-91786284D02*
X206511903Y-91691046D01*
X206511903Y-91691046D02*
X206464284Y-91643427D01*
X206464284Y-91643427D02*
X206369046Y-91595808D01*
X206369046Y-91595808D02*
X206226189Y-91595808D01*
X206226189Y-91595808D02*
X206130951Y-91643427D01*
X206130951Y-91643427D02*
X206083332Y-91691046D01*
X206083332Y-91691046D02*
X206035713Y-91786284D01*
X206035713Y-91786284D02*
X206035713Y-92071998D01*
X206035713Y-92071998D02*
X206083332Y-92167236D01*
X206083332Y-92167236D02*
X206130951Y-92214856D01*
X206130951Y-92214856D02*
X206226189Y-92262475D01*
X206226189Y-92262475D02*
X206369046Y-92262475D01*
X205178570Y-91595808D02*
X205178570Y-92262475D01*
X205607141Y-91595808D02*
X205607141Y-92119617D01*
X205607141Y-92119617D02*
X205559522Y-92214856D01*
X205559522Y-92214856D02*
X205464284Y-92262475D01*
X205464284Y-92262475D02*
X205321427Y-92262475D01*
X205321427Y-92262475D02*
X205226189Y-92214856D01*
X205226189Y-92214856D02*
X205178570Y-92167236D01*
X204845236Y-91595808D02*
X204464284Y-91595808D01*
X204702379Y-91262475D02*
X204702379Y-92119617D01*
X204702379Y-92119617D02*
X204654760Y-92214856D01*
X204654760Y-92214856D02*
X204559522Y-92262475D01*
X204559522Y-92262475D02*
X204464284Y-92262475D01*
X203464283Y-91595808D02*
X203226188Y-92262475D01*
X203226188Y-92262475D02*
X202988093Y-91595808D01*
X202083331Y-92262475D02*
X202654759Y-92262475D01*
X202369045Y-92262475D02*
X202369045Y-91262475D01*
X202369045Y-91262475D02*
X202464283Y-91405332D01*
X202464283Y-91405332D02*
X202559521Y-91500570D01*
X202559521Y-91500570D02*
X202654759Y-91548189D01*
X201654759Y-92167236D02*
X201607140Y-92214856D01*
X201607140Y-92214856D02*
X201654759Y-92262475D01*
X201654759Y-92262475D02*
X201702378Y-92214856D01*
X201702378Y-92214856D02*
X201654759Y-92167236D01*
X201654759Y-92167236D02*
X201654759Y-92262475D01*
X200988093Y-91262475D02*
X200892855Y-91262475D01*
X200892855Y-91262475D02*
X200797617Y-91310094D01*
X200797617Y-91310094D02*
X200749998Y-91357713D01*
X200749998Y-91357713D02*
X200702379Y-91452951D01*
X200702379Y-91452951D02*
X200654760Y-91643427D01*
X200654760Y-91643427D02*
X200654760Y-91881522D01*
X200654760Y-91881522D02*
X200702379Y-92071998D01*
X200702379Y-92071998D02*
X200749998Y-92167236D01*
X200749998Y-92167236D02*
X200797617Y-92214856D01*
X200797617Y-92214856D02*
X200892855Y-92262475D01*
X200892855Y-92262475D02*
X200988093Y-92262475D01*
X200988093Y-92262475D02*
X201083331Y-92214856D01*
X201083331Y-92214856D02*
X201130950Y-92167236D01*
X201130950Y-92167236D02*
X201178569Y-92071998D01*
X201178569Y-92071998D02*
X201226188Y-91881522D01*
X201226188Y-91881522D02*
X201226188Y-91643427D01*
X201226188Y-91643427D02*
X201178569Y-91452951D01*
X201178569Y-91452951D02*
X201130950Y-91357713D01*
X201130950Y-91357713D02*
X201083331Y-91310094D01*
X201083331Y-91310094D02*
X200988093Y-91262475D01*
X220107143Y-93348609D02*
X219964286Y-93396228D01*
X219964286Y-93396228D02*
X219916667Y-93443847D01*
X219916667Y-93443847D02*
X219869048Y-93539085D01*
X219869048Y-93539085D02*
X219869048Y-93681942D01*
X219869048Y-93681942D02*
X219916667Y-93777180D01*
X219916667Y-93777180D02*
X219964286Y-93824800D01*
X219964286Y-93824800D02*
X220059524Y-93872419D01*
X220059524Y-93872419D02*
X220440476Y-93872419D01*
X220440476Y-93872419D02*
X220440476Y-92872419D01*
X220440476Y-92872419D02*
X220107143Y-92872419D01*
X220107143Y-92872419D02*
X220011905Y-92920038D01*
X220011905Y-92920038D02*
X219964286Y-92967657D01*
X219964286Y-92967657D02*
X219916667Y-93062895D01*
X219916667Y-93062895D02*
X219916667Y-93158133D01*
X219916667Y-93158133D02*
X219964286Y-93253371D01*
X219964286Y-93253371D02*
X220011905Y-93300990D01*
X220011905Y-93300990D02*
X220107143Y-93348609D01*
X220107143Y-93348609D02*
X220440476Y-93348609D01*
X219059524Y-93824800D02*
X219154762Y-93872419D01*
X219154762Y-93872419D02*
X219345238Y-93872419D01*
X219345238Y-93872419D02*
X219440476Y-93824800D01*
X219440476Y-93824800D02*
X219488095Y-93729561D01*
X219488095Y-93729561D02*
X219488095Y-93348609D01*
X219488095Y-93348609D02*
X219440476Y-93253371D01*
X219440476Y-93253371D02*
X219345238Y-93205752D01*
X219345238Y-93205752D02*
X219154762Y-93205752D01*
X219154762Y-93205752D02*
X219059524Y-93253371D01*
X219059524Y-93253371D02*
X219011905Y-93348609D01*
X219011905Y-93348609D02*
X219011905Y-93443847D01*
X219011905Y-93443847D02*
X219488095Y-93539085D01*
X218583333Y-93205752D02*
X218583333Y-93872419D01*
X218583333Y-93300990D02*
X218535714Y-93253371D01*
X218535714Y-93253371D02*
X218440476Y-93205752D01*
X218440476Y-93205752D02*
X218297619Y-93205752D01*
X218297619Y-93205752D02*
X218202381Y-93253371D01*
X218202381Y-93253371D02*
X218154762Y-93348609D01*
X218154762Y-93348609D02*
X218154762Y-93872419D01*
X216916666Y-93872419D02*
X216916666Y-92872419D01*
X216916666Y-92872419D02*
X216678571Y-92872419D01*
X216678571Y-92872419D02*
X216535714Y-92920038D01*
X216535714Y-92920038D02*
X216440476Y-93015276D01*
X216440476Y-93015276D02*
X216392857Y-93110514D01*
X216392857Y-93110514D02*
X216345238Y-93300990D01*
X216345238Y-93300990D02*
X216345238Y-93443847D01*
X216345238Y-93443847D02*
X216392857Y-93634323D01*
X216392857Y-93634323D02*
X216440476Y-93729561D01*
X216440476Y-93729561D02*
X216535714Y-93824800D01*
X216535714Y-93824800D02*
X216678571Y-93872419D01*
X216678571Y-93872419D02*
X216916666Y-93872419D01*
X215869047Y-92872419D02*
X215964285Y-93062895D01*
X215488095Y-93586704D02*
X215011905Y-93586704D01*
X215583333Y-93872419D02*
X215250000Y-92872419D01*
X215250000Y-92872419D02*
X214916667Y-93872419D01*
X214154762Y-93205752D02*
X214154762Y-94015276D01*
X214154762Y-94015276D02*
X214202381Y-94110514D01*
X214202381Y-94110514D02*
X214250000Y-94158133D01*
X214250000Y-94158133D02*
X214345238Y-94205752D01*
X214345238Y-94205752D02*
X214488095Y-94205752D01*
X214488095Y-94205752D02*
X214583333Y-94158133D01*
X214154762Y-93824800D02*
X214250000Y-93872419D01*
X214250000Y-93872419D02*
X214440476Y-93872419D01*
X214440476Y-93872419D02*
X214535714Y-93824800D01*
X214535714Y-93824800D02*
X214583333Y-93777180D01*
X214583333Y-93777180D02*
X214630952Y-93681942D01*
X214630952Y-93681942D02*
X214630952Y-93396228D01*
X214630952Y-93396228D02*
X214583333Y-93300990D01*
X214583333Y-93300990D02*
X214535714Y-93253371D01*
X214535714Y-93253371D02*
X214440476Y-93205752D01*
X214440476Y-93205752D02*
X214250000Y-93205752D01*
X214250000Y-93205752D02*
X214154762Y-93253371D01*
X213678571Y-93205752D02*
X213678571Y-93872419D01*
X213678571Y-93300990D02*
X213630952Y-93253371D01*
X213630952Y-93253371D02*
X213535714Y-93205752D01*
X213535714Y-93205752D02*
X213392857Y-93205752D01*
X213392857Y-93205752D02*
X213297619Y-93253371D01*
X213297619Y-93253371D02*
X213250000Y-93348609D01*
X213250000Y-93348609D02*
X213250000Y-93872419D01*
X212773809Y-93872419D02*
X212773809Y-93205752D01*
X212773809Y-92872419D02*
X212821428Y-92920038D01*
X212821428Y-92920038D02*
X212773809Y-92967657D01*
X212773809Y-92967657D02*
X212726190Y-92920038D01*
X212726190Y-92920038D02*
X212773809Y-92872419D01*
X212773809Y-92872419D02*
X212773809Y-92967657D01*
X212154762Y-93872419D02*
X212250000Y-93824800D01*
X212250000Y-93824800D02*
X212297619Y-93729561D01*
X212297619Y-93729561D02*
X212297619Y-92872419D01*
X211630952Y-93872419D02*
X211726190Y-93824800D01*
X211726190Y-93824800D02*
X211773809Y-93729561D01*
X211773809Y-93729561D02*
X211773809Y-92872419D01*
X211107142Y-93872419D02*
X211202380Y-93824800D01*
X211202380Y-93824800D02*
X211249999Y-93777180D01*
X211249999Y-93777180D02*
X211297618Y-93681942D01*
X211297618Y-93681942D02*
X211297618Y-93396228D01*
X211297618Y-93396228D02*
X211249999Y-93300990D01*
X211249999Y-93300990D02*
X211202380Y-93253371D01*
X211202380Y-93253371D02*
X211107142Y-93205752D01*
X211107142Y-93205752D02*
X210964285Y-93205752D01*
X210964285Y-93205752D02*
X210869047Y-93253371D01*
X210869047Y-93253371D02*
X210821428Y-93300990D01*
X210821428Y-93300990D02*
X210773809Y-93396228D01*
X210773809Y-93396228D02*
X210773809Y-93681942D01*
X210773809Y-93681942D02*
X210821428Y-93777180D01*
X210821428Y-93777180D02*
X210869047Y-93824800D01*
X210869047Y-93824800D02*
X210964285Y-93872419D01*
X210964285Y-93872419D02*
X211107142Y-93872419D01*
X209583332Y-93491466D02*
X208821428Y-93491466D01*
X207297618Y-92872419D02*
X207297618Y-93586704D01*
X207297618Y-93586704D02*
X207345237Y-93729561D01*
X207345237Y-93729561D02*
X207440475Y-93824800D01*
X207440475Y-93824800D02*
X207583332Y-93872419D01*
X207583332Y-93872419D02*
X207678570Y-93872419D01*
X206392856Y-93205752D02*
X206392856Y-93872419D01*
X206821427Y-93205752D02*
X206821427Y-93729561D01*
X206821427Y-93729561D02*
X206773808Y-93824800D01*
X206773808Y-93824800D02*
X206678570Y-93872419D01*
X206678570Y-93872419D02*
X206535713Y-93872419D01*
X206535713Y-93872419D02*
X206440475Y-93824800D01*
X206440475Y-93824800D02*
X206392856Y-93777180D01*
X205916665Y-93205752D02*
X205916665Y-93872419D01*
X205916665Y-93300990D02*
X205869046Y-93253371D01*
X205869046Y-93253371D02*
X205773808Y-93205752D01*
X205773808Y-93205752D02*
X205630951Y-93205752D01*
X205630951Y-93205752D02*
X205535713Y-93253371D01*
X205535713Y-93253371D02*
X205488094Y-93348609D01*
X205488094Y-93348609D02*
X205488094Y-93872419D01*
X204630951Y-93824800D02*
X204726189Y-93872419D01*
X204726189Y-93872419D02*
X204916665Y-93872419D01*
X204916665Y-93872419D02*
X205011903Y-93824800D01*
X205011903Y-93824800D02*
X205059522Y-93729561D01*
X205059522Y-93729561D02*
X205059522Y-93348609D01*
X205059522Y-93348609D02*
X205011903Y-93253371D01*
X205011903Y-93253371D02*
X204916665Y-93205752D01*
X204916665Y-93205752D02*
X204726189Y-93205752D01*
X204726189Y-93205752D02*
X204630951Y-93253371D01*
X204630951Y-93253371D02*
X204583332Y-93348609D01*
X204583332Y-93348609D02*
X204583332Y-93443847D01*
X204583332Y-93443847D02*
X205059522Y-93539085D01*
X203440474Y-92967657D02*
X203392855Y-92920038D01*
X203392855Y-92920038D02*
X203297617Y-92872419D01*
X203297617Y-92872419D02*
X203059522Y-92872419D01*
X203059522Y-92872419D02*
X202964284Y-92920038D01*
X202964284Y-92920038D02*
X202916665Y-92967657D01*
X202916665Y-92967657D02*
X202869046Y-93062895D01*
X202869046Y-93062895D02*
X202869046Y-93158133D01*
X202869046Y-93158133D02*
X202916665Y-93300990D01*
X202916665Y-93300990D02*
X203488093Y-93872419D01*
X203488093Y-93872419D02*
X202869046Y-93872419D01*
X202249998Y-92872419D02*
X202154760Y-92872419D01*
X202154760Y-92872419D02*
X202059522Y-92920038D01*
X202059522Y-92920038D02*
X202011903Y-92967657D01*
X202011903Y-92967657D02*
X201964284Y-93062895D01*
X201964284Y-93062895D02*
X201916665Y-93253371D01*
X201916665Y-93253371D02*
X201916665Y-93491466D01*
X201916665Y-93491466D02*
X201964284Y-93681942D01*
X201964284Y-93681942D02*
X202011903Y-93777180D01*
X202011903Y-93777180D02*
X202059522Y-93824800D01*
X202059522Y-93824800D02*
X202154760Y-93872419D01*
X202154760Y-93872419D02*
X202249998Y-93872419D01*
X202249998Y-93872419D02*
X202345236Y-93824800D01*
X202345236Y-93824800D02*
X202392855Y-93777180D01*
X202392855Y-93777180D02*
X202440474Y-93681942D01*
X202440474Y-93681942D02*
X202488093Y-93491466D01*
X202488093Y-93491466D02*
X202488093Y-93253371D01*
X202488093Y-93253371D02*
X202440474Y-93062895D01*
X202440474Y-93062895D02*
X202392855Y-92967657D01*
X202392855Y-92967657D02*
X202345236Y-92920038D01*
X202345236Y-92920038D02*
X202249998Y-92872419D01*
X201535712Y-92967657D02*
X201488093Y-92920038D01*
X201488093Y-92920038D02*
X201392855Y-92872419D01*
X201392855Y-92872419D02*
X201154760Y-92872419D01*
X201154760Y-92872419D02*
X201059522Y-92920038D01*
X201059522Y-92920038D02*
X201011903Y-92967657D01*
X201011903Y-92967657D02*
X200964284Y-93062895D01*
X200964284Y-93062895D02*
X200964284Y-93158133D01*
X200964284Y-93158133D02*
X201011903Y-93300990D01*
X201011903Y-93300990D02*
X201583331Y-93872419D01*
X201583331Y-93872419D02*
X200964284Y-93872419D01*
X200107141Y-92872419D02*
X200297617Y-92872419D01*
X200297617Y-92872419D02*
X200392855Y-92920038D01*
X200392855Y-92920038D02*
X200440474Y-92967657D01*
X200440474Y-92967657D02*
X200535712Y-93110514D01*
X200535712Y-93110514D02*
X200583331Y-93300990D01*
X200583331Y-93300990D02*
X200583331Y-93681942D01*
X200583331Y-93681942D02*
X200535712Y-93777180D01*
X200535712Y-93777180D02*
X200488093Y-93824800D01*
X200488093Y-93824800D02*
X200392855Y-93872419D01*
X200392855Y-93872419D02*
X200202379Y-93872419D01*
X200202379Y-93872419D02*
X200107141Y-93824800D01*
X200107141Y-93824800D02*
X200059522Y-93777180D01*
X200059522Y-93777180D02*
X200011903Y-93681942D01*
X200011903Y-93681942D02*
X200011903Y-93443847D01*
X200011903Y-93443847D02*
X200059522Y-93348609D01*
X200059522Y-93348609D02*
X200107141Y-93300990D01*
X200107141Y-93300990D02*
X200202379Y-93253371D01*
X200202379Y-93253371D02*
X200392855Y-93253371D01*
X200392855Y-93253371D02*
X200488093Y-93300990D01*
X200488093Y-93300990D02*
X200535712Y-93348609D01*
X200535712Y-93348609D02*
X200583331Y-93443847D01*
%TO.C,D1*%
D11*
X207600000Y-97800000D02*
X212400000Y-97800000D01*
X207600000Y-98600000D02*
X207600000Y-97800000D01*
X207600000Y-102200000D02*
X207600000Y-101310000D01*
X212400000Y-97800000D02*
X212400000Y-98600000D01*
X212400000Y-101310000D02*
X212400000Y-102200000D01*
X212400000Y-102200000D02*
X207600000Y-102200000D01*
X212410000Y-98600000D02*
X213590000Y-98600000D01*
X213590000Y-101310000D02*
X212400000Y-101310000D01*
%TD*%
M02*
