%TF.GenerationSoftware,KiCad,Pcbnew,10.0.3*%
%TF.CreationDate,2026-06-16T17:50:04-04:00*%
%TF.ProjectId,Photodiode-breakout,50686f74-6f64-4696-9f64-652d62726561,rev?*%
%TF.SameCoordinates,Original*%
%TF.FileFunction,Legend,Top*%
%TF.FilePolarity,Positive*%
%FSLAX46Y46*%
G04 Gerber Fmt 4.6, Leading zero omitted, Abs format (unit mm)*
G04 Created by KiCad (PCBNEW 10.0.3) date 2026-06-16 17:50:04*
%MOMM*%
%LPD*%
G01*
G04 APERTURE LIST*
%ADD10C,0.120000*%
%ADD11C,0.152400*%
G04 APERTURE END LIST*
%TO.C,R11*%
D10*
X200022500Y-96762742D02*
X200022500Y-97237258D01*
X198977500Y-96762742D02*
X198977500Y-97237258D01*
%TO.C,R10*%
X202022500Y-96762742D02*
X202022500Y-97237258D01*
X200977500Y-96762742D02*
X200977500Y-97237258D01*
%TO.C,R9*%
X208272500Y-98937742D02*
X208272500Y-99412258D01*
X207227500Y-98937742D02*
X207227500Y-99412258D01*
%TO.C,R8*%
X204237258Y-98022500D02*
X203762742Y-98022500D01*
X204237258Y-96977500D02*
X203762742Y-96977500D01*
%TO.C,C1*%
X217684420Y-103990000D02*
X217965580Y-103990000D01*
X217684420Y-105010000D02*
X217965580Y-105010000D01*
%TO.C,R4*%
X201477500Y-106737258D02*
X201477500Y-106262742D01*
X202522500Y-106737258D02*
X202522500Y-106262742D01*
%TO.C,R5*%
X210737258Y-97977500D02*
X210262742Y-97977500D01*
X210737258Y-99022500D02*
X210262742Y-99022500D01*
%TO.C,R1*%
X217587742Y-99977500D02*
X218062258Y-99977500D01*
X217587742Y-101022500D02*
X218062258Y-101022500D01*
%TO.C,R7*%
X209137258Y-104977500D02*
X208662742Y-104977500D01*
X209137258Y-106022500D02*
X208662742Y-106022500D01*
%TO.C,TH1*%
X210812258Y-99727500D02*
X210337742Y-99727500D01*
X210812258Y-100772500D02*
X210337742Y-100772500D01*
%TO.C,C5*%
X204990000Y-106334420D02*
X204990000Y-106615580D01*
X206010000Y-106334420D02*
X206010000Y-106615580D01*
%TO.C,R6*%
X210262742Y-103227500D02*
X210737258Y-103227500D01*
X210262742Y-104272500D02*
X210737258Y-104272500D01*
%TO.C,U1*%
D11*
X212476000Y-101197484D02*
X212476000Y-101802516D01*
X214337861Y-100623700D02*
X213662139Y-100623700D01*
X215524000Y-101802516D02*
X215524000Y-101197484D01*
X212754047Y-101375128D02*
G75*
G02*
X212754047Y-101624872I-278049J-124872D01*
G01*
%TO.C,U2*%
D10*
X200690000Y-98890000D02*
X205310000Y-98890000D01*
X205310000Y-104360000D02*
X200690000Y-104360000D01*
X199140000Y-99345000D02*
X198810000Y-99585000D01*
X198810000Y-99105000D01*
X199140000Y-99345000D01*
G36*
X199140000Y-99345000D02*
G01*
X198810000Y-99585000D01*
X198810000Y-99105000D01*
X199140000Y-99345000D01*
G37*
%TO.C,R2*%
X218062258Y-101977500D02*
X217587742Y-101977500D01*
X218062258Y-103022500D02*
X217587742Y-103022500D01*
%TO.C,R3*%
X203227500Y-106737258D02*
X203227500Y-106262742D01*
X204272500Y-106737258D02*
X204272500Y-106262742D01*
%TO.C,J1*%
X204390000Y-94260000D02*
X204390000Y-95860000D01*
X204390000Y-95860000D02*
X206190000Y-95860000D01*
X205660000Y-91390000D02*
X214090000Y-91390000D01*
X206190000Y-95860000D02*
X206190000Y-96800000D01*
X215360000Y-94260000D02*
X215360000Y-95860000D01*
X215360000Y-95860000D02*
X213560000Y-95860000D01*
%TO.C,TP1*%
X211120000Y-105120000D02*
X212500000Y-105120000D01*
X211120000Y-106500000D02*
X211120000Y-105120000D01*
X211120000Y-107770000D02*
X211120000Y-107880000D01*
X211120000Y-107770000D02*
X213880000Y-107770000D01*
X211120000Y-107880000D02*
X213880000Y-107880000D01*
X213880000Y-107770000D02*
X213880000Y-107880000D01*
%TO.C,C2*%
X214140580Y-97990000D02*
X213859420Y-97990000D01*
X214140580Y-99010000D02*
X213859420Y-99010000D01*
%TO.C,C3*%
X210640580Y-101490000D02*
X210359420Y-101490000D01*
X210640580Y-102510000D02*
X210359420Y-102510000D01*
%TD*%
M02*
