M48
; DRILL file KiCad 10.0.3 date 2026-06-16T17:50:13
; FORMAT={-:-/ absolute / metric / decimal}
; #@! TF.CreationDate,2026-06-16T17:50:13-04:00
; #@! TF.GenerationSoftware,Kicad,Pcbnew,10.0.3
; #@! TF.FileFunction,Plated,1,2,PTH
FMAT,2
METRIC
; #@! TA.AperFunction,Plated,PTH,ViaDrill
T1C0.200
; #@! TA.AperFunction,Plated,PTH,ViaDrill
T2C0.300
; #@! TA.AperFunction,Plated,PTH,ComponentDrill
T3C1.000
%
G90
G05
T1
X198.0Y-93.0
X198.0Y-96.0
X198.0Y-102.0
X198.0Y-105.0
X201.0Y-93.0
X201.0Y-108.0
X207.0Y-93.0
X207.0Y-105.0
X207.0Y-108.0
X210.0Y-93.0
X210.0Y-108.0
X213.0Y-93.0
X213.0Y-108.0
X216.0Y-93.0
X216.0Y-96.0
X216.0Y-102.0
X216.0Y-105.0
X216.0Y-108.0
X219.0Y-93.0
X219.0Y-96.0
X219.0Y-99.0
X219.0Y-108.0
X222.0Y-93.0
X222.0Y-96.0
X222.0Y-102.0
X222.0Y-105.0
T2
X203.25Y-102.0
X204.5Y-101.0
X208.75Y-100.25
X211.75Y-97.5
X214.128Y-101.128
T3
X212.5Y-106.5
M30
