M48
; DRILL file KiCad 10.0.0 date 2026-04-01T11:15:18
; FORMAT={-:-/ absolute / metric / decimal}
; #@! TF.CreationDate,2026-04-01T11:15:18-04:00
; #@! TF.GenerationSoftware,Kicad,Pcbnew,10.0.0
; #@! TF.FileFunction,Plated,1,4,PTH
FMAT,2
METRIC
; #@! TA.AperFunction,Plated,PTH,ViaDrill
T1C0.300
; #@! TA.AperFunction,Plated,PTH,ViaDrill
T2C0.600
; #@! TA.AperFunction,Plated,PTH,ComponentDrill
T3C0.600
; #@! TA.AperFunction,Plated,PTH,ComponentDrill
T4C1.020
; #@! TA.AperFunction,Plated,PTH,ComponentDrill
T5C1.200
; #@! TA.AperFunction,Plated,PTH,ComponentDrill
T6C2.700
%
G90
G05
T1
X101.3Y-77.1
X101.3Y-78.35
X101.3Y-79.6
X101.3Y-80.85
X102.55Y-99.0
X102.8Y-77.1
X102.8Y-78.35
X102.8Y-79.6
X102.8Y-80.85
X104.25Y-77.1
X104.25Y-78.35
X104.25Y-79.6
X104.95Y-75.0
X105.1Y-60.0
X105.5Y-99.0
X105.55Y-63.0
X105.55Y-93.0
X105.7Y-66.0
X107.35Y-96.0
X108.5Y-99.0
X108.55Y-93.0
X108.85Y-81.0
X109.012Y-59.75
X110.4Y-60.0
X110.8Y-54.3
X111.5Y-69.5
X111.5Y-71.0
X111.5Y-72.5
X111.5Y-99.0
X111.55Y-63.0
X111.55Y-93.0
X113.0Y-69.5
X113.0Y-71.0
X113.0Y-72.5
X113.2Y-60.0
X114.2Y-46.5
X114.55Y-63.0
X114.55Y-99.0
X115.8Y-74.8
X116.2Y-46.5
X116.4Y-44.5
X117.25Y-75.0
X117.55Y-99.0
X118.2Y-46.5
X118.4Y-44.5
X118.4Y-51.0
X119.0Y-56.6
X120.0Y-93.0
X120.2Y-46.5
X120.4Y-44.5
X120.55Y-99.0
X121.0Y-70.2
X121.0Y-71.0
X121.0Y-72.0
X122.0Y-70.2
X122.0Y-71.0
X122.0Y-72.0
X122.2Y-46.5
X122.4Y-44.5
X123.55Y-99.0
X124.2Y-46.5
X124.4Y-44.5
X125.0Y-63.5
X125.95Y-72.0
X126.2Y-46.5
X126.2Y-67.4
X126.4Y-44.5
X126.55Y-99.0
X127.0Y-65.5
X127.2Y-67.4
X128.2Y-67.4
X128.4Y-44.5
X128.4Y-56.6
X128.5Y-46.5
X128.95Y-78.0
X128.95Y-84.0
X129.2Y-67.4
X129.55Y-99.0
X129.7Y-87.0
X130.4Y-44.5
X131.0Y-76.0
X131.2Y-60.0
X131.25Y-83.75
X131.95Y-57.0
X132.0Y-46.5
X132.2Y-58.2
X132.4Y-44.5
X133.2Y-64.4
X133.25Y-50.5
X134.0Y-46.5
X134.0Y-73.65
X134.4Y-44.5
X135.0Y-73.65
X135.5Y-79.5
X135.55Y-99.0
X135.963Y-56.438
X136.0Y-73.65
X136.4Y-44.5
X137.6Y-46.5
X137.95Y-69.0
X138.25Y-50.5
X138.25Y-75.0
X138.3Y-62.4
X138.4Y-44.5
X138.5Y-64.5
X138.55Y-99.0
X138.85Y-81.0
X139.45Y-53.0
X139.75Y-84.0
X140.4Y-44.5
X140.5Y-46.5
X140.7Y-52.3
X141.25Y-64.5
X141.55Y-99.0
X142.0Y-57.0
X142.4Y-44.5
X142.5Y-46.5
X143.1Y-60.327
X144.15Y-60.25
X144.4Y-44.5
X144.4Y-63.0
X144.5Y-46.5
X144.85Y-81.0
X145.75Y-73.75
X145.75Y-74.85
X145.75Y-75.95
X145.75Y-77.05
X146.4Y-44.5
X146.4Y-46.5
X147.1Y-60.0
X147.4Y-63.0
X147.55Y-57.0
X147.55Y-99.0
X147.85Y-81.0
X148.0Y-51.0
X148.4Y-44.5
X148.4Y-46.5
X150.25Y-48.0
X150.55Y-93.0
X151.0Y-51.0
X152.2Y-74.0
X152.8Y-96.0
X152.95Y-72.0
X153.4Y-82.8
X153.55Y-57.0
X153.55Y-99.0
X153.85Y-81.0
X156.2Y-52.0
X156.25Y-57.0
X156.55Y-99.0
X158.0Y-69.127
X158.1Y-77.1
X158.35Y-45.0
X159.0Y-83.2
X159.55Y-93.0
X159.55Y-99.0
X160.15Y-75.0
X161.45Y-59.25
X162.55Y-99.0
X163.15Y-59.4
X164.1Y-54.5
T2
X127.8Y-74.6
X153.8Y-67.5
X156.5Y-67.3
T4
X127.22Y-47.9
X129.76Y-47.9
X132.3Y-47.9
X136.28Y-47.875
X138.82Y-47.875
X141.36Y-47.875
T5
X109.5Y-95.5
X112.04Y-95.5
X116.96Y-95.5
X119.5Y-95.5
X145.62Y-48.0
X148.16Y-48.0
X152.795Y-47.982
X155.335Y-47.982
X160.5Y-62.465
X160.5Y-65.005
X160.5Y-70.005
X160.5Y-72.545
X160.5Y-77.465
X160.5Y-80.005
X160.5Y-85.005
X160.5Y-87.545
T6
X108.4Y-63.95
X108.4Y-71.15
X127.15Y-90.0
X134.35Y-90.0
X144.65Y-90.0
X151.85Y-90.0
T3
X101.85Y-60.8G85X102.95Y-60.8
G05
X101.85Y-74.3G85X102.95Y-74.3
G05
X124.0Y-96.55G85X124.0Y-95.45
G05
X137.5Y-96.55G85X137.5Y-95.45
G05
X141.5Y-96.55G85X141.5Y-95.45
G05
X155.0Y-96.55G85X155.0Y-95.45
G05
M30
