M48
; DRILL file KiCad 10.0.3 date 2026-06-16T17:49:15
; FORMAT={-:-/ absolute / metric / decimal}
; #@! TF.CreationDate,2026-06-16T17:49:15-04:00
; #@! TF.GenerationSoftware,Kicad,Pcbnew,10.0.3
; #@! TF.FileFunction,Plated,1,2,PTH
FMAT,2
METRIC
; #@! TA.AperFunction,Plated,PTH,ViaDrill
T1C0.200
; #@! TA.AperFunction,Plated,PTH,ViaDrill
T2C0.300
%
G90
G05
T1
X108.0Y-114.0
X108.0Y-126.0
X111.0Y-111.0
X111.0Y-129.0
X114.0Y-111.0
X114.0Y-117.0
X114.0Y-123.0
X114.0Y-129.0
X117.0Y-117.0
X117.0Y-120.0
X117.0Y-123.0
X117.0Y-126.0
X117.0Y-129.0
X120.0Y-111.0
X120.0Y-123.0
X120.0Y-129.0
X123.0Y-117.0
X123.0Y-120.0
X123.0Y-123.0
X123.0Y-126.0
X123.0Y-129.0
X126.0Y-111.0
X126.0Y-117.0
X126.0Y-123.0
X126.0Y-129.0
X129.0Y-111.0
X129.0Y-129.0
X132.0Y-114.0
X132.0Y-126.0
T2
X111.5Y-112.5
X111.5Y-113.536
X111.5Y-114.571
X111.5Y-115.607
X111.5Y-116.643
X111.5Y-117.679
X111.5Y-118.714
X111.5Y-119.75
X111.5Y-120.786
X111.5Y-121.821
X111.5Y-122.857
X111.5Y-123.893
X111.5Y-124.929
X111.5Y-125.964
X111.5Y-127.0
X114.5Y-112.75
X114.5Y-113.75
X114.5Y-114.75
X114.5Y-118.75
X114.5Y-119.75
X114.5Y-120.75
X114.5Y-124.75
X114.5Y-125.75
X114.5Y-126.75
X120.0Y-112.75
X120.0Y-113.75
X120.0Y-114.75
X120.0Y-118.75
X120.0Y-119.75
X120.0Y-120.75
X120.0Y-124.75
X120.0Y-125.75
X120.0Y-126.75
X125.5Y-112.75
X125.5Y-113.75
X125.5Y-114.75
X125.5Y-118.75
X125.5Y-119.75
X125.5Y-120.75
X125.5Y-124.75
X125.5Y-125.75
X125.5Y-126.75
X128.5Y-112.607
X128.5Y-113.643
X128.5Y-114.679
X128.5Y-115.714
X128.5Y-116.75
X128.5Y-117.786
X128.5Y-118.821
X128.5Y-119.857
X128.5Y-120.893
X128.5Y-121.929
X128.5Y-122.964
X128.5Y-124.0
X128.5Y-125.036
X128.5Y-126.071
X128.5Y-127.107
M30
