%TF.GenerationSoftware,KiCad,Pcbnew,10.0.3*%
%TF.CreationDate,2026-06-17T11:06:04-04:00*%
%TF.ProjectId,interface_db_hat,696e7465-7266-4616-9365-5f64625f6861,rev?*%
%TF.SameCoordinates,Original*%
%TF.FileFunction,Legend,Bot*%
%TF.FilePolarity,Positive*%
%FSLAX46Y46*%
G04 Gerber Fmt 4.6, Leading zero omitted, Abs format (unit mm)*
G04 Created by KiCad (PCBNEW 10.0.3) date 2026-06-17 11:06:04*
%MOMM*%
%LPD*%
G01*
G04 APERTURE LIST*
%ADD10C,0.150000*%
%ADD11C,0.508000*%
%ADD12C,0.120000*%
G04 APERTURE END LIST*
D10*
X105054819Y-47166666D02*
X105769104Y-47166666D01*
X105769104Y-47166666D02*
X105911961Y-47119047D01*
X105911961Y-47119047D02*
X106007200Y-47023809D01*
X106007200Y-47023809D02*
X106054819Y-46880952D01*
X106054819Y-46880952D02*
X106054819Y-46785714D01*
X106054819Y-48166666D02*
X106054819Y-47595238D01*
X106054819Y-47880952D02*
X105054819Y-47880952D01*
X105054819Y-47880952D02*
X105197676Y-47785714D01*
X105197676Y-47785714D02*
X105292914Y-47690476D01*
X105292914Y-47690476D02*
X105340533Y-47595238D01*
%TO.C,J2*%
D11*
X120944500Y-93515602D02*
G75*
G02*
X120182500Y-93515602I-381000J0D01*
G01*
X120182500Y-93515602D02*
G75*
G02*
X120944500Y-93515602I381000J0D01*
G01*
%TO.C,J1*%
D12*
X107040000Y-44900000D02*
X107040000Y-47500000D01*
X107040000Y-44900000D02*
X157960000Y-44900000D01*
X107040000Y-47500000D02*
X109640000Y-47500000D01*
X107040000Y-48770000D02*
X107040000Y-50100000D01*
X107040000Y-50100000D02*
X108370000Y-50100000D01*
X109640000Y-47500000D02*
X109640000Y-50100000D01*
X109640000Y-50100000D02*
X157960000Y-50100000D01*
X157960000Y-44900000D02*
X157960000Y-50100000D01*
%TO.C,JP7*%
X130600000Y-60250000D02*
X130600000Y-62250000D01*
X130600000Y-62250000D02*
X133400000Y-62250000D01*
X133400000Y-60250000D02*
X130600000Y-60250000D01*
X133400000Y-62250000D02*
X133400000Y-60250000D01*
%TD*%
M02*
