%TF.GenerationSoftware,KiCad,Pcbnew,10.0.3*%
%TF.CreationDate,2026-06-16T17:41:54-04:00*%
%TF.ProjectId,interface_db_hat,696e7465-7266-4616-9365-5f64625f6861,rev?*%
%TF.SameCoordinates,Original*%
%TF.FileFunction,Soldermask,Top*%
%TF.FilePolarity,Negative*%
%FSLAX46Y46*%
G04 Gerber Fmt 4.6, Leading zero omitted, Abs format (unit mm)*
G04 Created by KiCad (PCBNEW 10.0.3) date 2026-06-16 17:41:54*
%MOMM*%
%LPD*%
G01*
G04 APERTURE LIST*
G04 Aperture macros list*
%AMRoundRect*
0 Rectangle with rounded corners*
0 $1 Rounding radius*
0 $2 $3 $4 $5 $6 $7 $8 $9 X,Y pos of 4 corners*
0 Add a 4 corners polygon primitive as box body*
4,1,4,$2,$3,$4,$5,$6,$7,$8,$9,$2,$3,0*
0 Add four circle primitives for the rounded corners*
1,1,$1+$1,$2,$3*
1,1,$1+$1,$4,$5*
1,1,$1+$1,$6,$7*
1,1,$1+$1,$8,$9*
0 Add four rect primitives between the rounded corners*
20,1,$1+$1,$2,$3,$4,$5,0*
20,1,$1+$1,$4,$5,$6,$7,0*
20,1,$1+$1,$6,$7,$8,$9,0*
20,1,$1+$1,$8,$9,$2,$3,0*%
%AMFreePoly0*
4,1,6,1.000000,0.000000,0.500000,-0.750000,-0.500000,-0.750000,-0.500000,0.750000,0.500000,0.750000,1.000000,0.000000,1.000000,0.000000,$1*%
%AMFreePoly1*
4,1,6,0.500000,-0.750000,-0.650000,-0.750000,-0.150000,0.000000,-0.650000,0.750000,0.500000,0.750000,0.500000,-0.750000,0.500000,-0.750000,$1*%
G04 Aperture macros list end*
%ADD10RoundRect,0.150000X-0.700000X0.150000X-0.700000X-0.150000X0.700000X-0.150000X0.700000X0.150000X0*%
%ADD11RoundRect,0.250000X-1.100000X0.250000X-1.100000X-0.250000X1.100000X-0.250000X1.100000X0.250000X0*%
%ADD12RoundRect,0.200000X0.200000X0.275000X-0.200000X0.275000X-0.200000X-0.275000X0.200000X-0.275000X0*%
%ADD13O,0.449999X1.699999*%
%ADD14R,0.609600X1.092200*%
%ADD15R,1.193800X2.590800*%
%ADD16R,1.700000X1.700000*%
%ADD17C,1.700000*%
%ADD18RoundRect,0.237500X-0.250000X-0.237500X0.250000X-0.237500X0.250000X0.237500X-0.250000X0.237500X0*%
%ADD19C,2.700000*%
%ADD20RoundRect,0.237500X-0.237500X0.250000X-0.237500X-0.250000X0.237500X-0.250000X0.237500X0.250000X0*%
%ADD21FreePoly0,270.000000*%
%ADD22FreePoly1,270.000000*%
%ADD23RoundRect,0.150000X0.875000X0.150000X-0.875000X0.150000X-0.875000X-0.150000X0.875000X-0.150000X0*%
%ADD24RoundRect,0.102000X-0.350000X0.900000X-0.350000X-0.900000X0.350000X-0.900000X0.350000X0.900000X0*%
%ADD25RoundRect,0.102000X-0.400000X0.900000X-0.400000X-0.900000X0.400000X-0.900000X0.400000X0.900000X0*%
%ADD26RoundRect,0.237500X0.287500X0.237500X-0.287500X0.237500X-0.287500X-0.237500X0.287500X-0.237500X0*%
%ADD27RoundRect,0.218750X-0.256250X0.218750X-0.256250X-0.218750X0.256250X-0.218750X0.256250X0.218750X0*%
%ADD28RoundRect,0.218750X0.256250X-0.218750X0.256250X0.218750X-0.256250X0.218750X-0.256250X-0.218750X0*%
%ADD29RoundRect,0.237500X-0.300000X-0.237500X0.300000X-0.237500X0.300000X0.237500X-0.300000X0.237500X0*%
%ADD30RoundRect,0.237500X0.237500X-0.300000X0.237500X0.300000X-0.237500X0.300000X-0.237500X-0.300000X0*%
%ADD31R,1.500000X5.080000*%
%ADD32RoundRect,0.237500X0.237500X-0.250000X0.237500X0.250000X-0.237500X0.250000X-0.237500X-0.250000X0*%
%ADD33RoundRect,0.237500X-0.237500X0.300000X-0.237500X-0.300000X0.237500X-0.300000X0.237500X0.300000X0*%
%ADD34RoundRect,0.237500X0.250000X0.237500X-0.250000X0.237500X-0.250000X-0.237500X0.250000X-0.237500X0*%
%ADD35RoundRect,0.150000X0.625000X-0.150000X0.625000X0.150000X-0.625000X0.150000X-0.625000X-0.150000X0*%
%ADD36RoundRect,0.250000X0.650000X-0.350000X0.650000X0.350000X-0.650000X0.350000X-0.650000X-0.350000X0*%
%ADD37RoundRect,0.218750X-0.218750X-0.256250X0.218750X-0.256250X0.218750X0.256250X-0.218750X0.256250X0*%
%ADD38RoundRect,0.237500X0.300000X0.237500X-0.300000X0.237500X-0.300000X-0.237500X0.300000X-0.237500X0*%
%ADD39RoundRect,0.237500X-0.287500X-0.237500X0.287500X-0.237500X0.287500X0.237500X-0.287500X0.237500X0*%
%ADD40RoundRect,0.150000X-0.150000X-0.625000X0.150000X-0.625000X0.150000X0.625000X-0.150000X0.625000X0*%
%ADD41RoundRect,0.250000X-0.350000X-0.650000X0.350000X-0.650000X0.350000X0.650000X-0.350000X0.650000X0*%
%ADD42RoundRect,0.147500X-0.147500X-0.172500X0.147500X-0.172500X0.147500X0.172500X-0.147500X0.172500X0*%
%ADD43RoundRect,0.218750X0.218750X0.256250X-0.218750X0.256250X-0.218750X-0.256250X0.218750X-0.256250X0*%
%ADD44RoundRect,0.250000X0.475000X-0.250000X0.475000X0.250000X-0.475000X0.250000X-0.475000X-0.250000X0*%
%ADD45RoundRect,0.250000X-0.475000X0.250000X-0.475000X-0.250000X0.475000X-0.250000X0.475000X0.250000X0*%
%ADD46RoundRect,0.250000X0.250000X0.475000X-0.250000X0.475000X-0.250000X-0.475000X0.250000X-0.475000X0*%
%ADD47RoundRect,0.140000X-0.170000X0.140000X-0.170000X-0.140000X0.170000X-0.140000X0.170000X0.140000X0*%
G04 APERTURE END LIST*
%TO.C,JP1*%
G36*
X156950000Y-89575000D02*
G01*
X158450000Y-89575000D01*
X158450000Y-92025000D01*
X156950000Y-92025000D01*
X156950000Y-89575000D01*
G37*
%TD*%
D10*
%TO.C,J11*%
X105850000Y-73625000D03*
X105850000Y-74875000D03*
X105850000Y-76125000D03*
X105850000Y-77375000D03*
X105850000Y-78625000D03*
X105850000Y-79875000D03*
D11*
X102650000Y-71775000D03*
X102650000Y-81725000D03*
%TD*%
D12*
%TO.C,R19*%
X108425000Y-64875000D03*
X110075000Y-64875000D03*
%TD*%
%TO.C,R17*%
X108425000Y-67375000D03*
X110075000Y-67375000D03*
%TD*%
%TO.C,R20*%
X113075000Y-63625000D03*
X111425000Y-63625000D03*
%TD*%
%TO.C,R18*%
X113075000Y-66125000D03*
X111425000Y-66125000D03*
%TD*%
%TO.C,R15*%
X113025000Y-76125000D03*
X111375000Y-76125000D03*
%TD*%
%TO.C,R6*%
X110025000Y-77400000D03*
X108375000Y-77400000D03*
%TD*%
%TO.C,R5*%
X113025000Y-78625000D03*
X111375000Y-78625000D03*
%TD*%
%TO.C,R1*%
X110075000Y-79875000D03*
X108425000Y-79875000D03*
%TD*%
D13*
%TO.C,U2*%
X151725002Y-60400002D03*
X151075001Y-60400002D03*
X150425002Y-60400002D03*
X149775001Y-60400002D03*
X149775001Y-64600001D03*
X150425002Y-64600001D03*
X151075001Y-64600001D03*
X151725002Y-64600001D03*
%TD*%
D14*
%TO.C,J2*%
X123700019Y-93515602D03*
X124700017Y-93515602D03*
X125700015Y-93515602D03*
X126700013Y-93515602D03*
X127700011Y-93515602D03*
X128700009Y-93515602D03*
X129700007Y-93515602D03*
X130700005Y-93515602D03*
X131700003Y-93515602D03*
X132700001Y-93515602D03*
X133699999Y-93515602D03*
X134699997Y-93515602D03*
X135699995Y-93515602D03*
X136699993Y-93515602D03*
X137699991Y-93515602D03*
X138699989Y-93515602D03*
X139699987Y-93515602D03*
X140699985Y-93515602D03*
X141699983Y-93515602D03*
X142699981Y-93515602D03*
D15*
X121300001Y-97855601D03*
X145099999Y-97855601D03*
%TD*%
D16*
%TO.C,J8*%
X161865000Y-59960000D03*
D17*
X161865000Y-62500000D03*
X161865000Y-65040000D03*
%TD*%
D18*
%TO.C,R64*%
X153337500Y-66250000D03*
X155162500Y-66250000D03*
%TD*%
%TO.C,R11*%
X114082500Y-58800000D03*
X115907500Y-58800000D03*
%TD*%
D19*
%TO.C,MH2*%
X161500000Y-47500000D03*
%TD*%
D20*
%TO.C,R54*%
X130700000Y-85037500D03*
X130700000Y-86862500D03*
%TD*%
D21*
%TO.C,JP1*%
X157700000Y-90075000D03*
D22*
X157700000Y-91525000D03*
%TD*%
D20*
%TO.C,R4*%
X149400000Y-78387500D03*
X149400000Y-80212500D03*
%TD*%
%TO.C,R36*%
X117750000Y-52587500D03*
X117750000Y-54412500D03*
%TD*%
D23*
%TO.C,U7*%
X144400000Y-78755000D03*
X144400000Y-77485000D03*
X144400000Y-76215000D03*
X144400000Y-74945000D03*
X144400000Y-73675000D03*
X144400000Y-72405000D03*
X144400000Y-71135000D03*
X144400000Y-69865000D03*
X144400000Y-68595000D03*
X144400000Y-67325000D03*
X144400000Y-66055000D03*
X144400000Y-64785000D03*
X144400000Y-63515000D03*
X144400000Y-62245000D03*
X135100000Y-62245000D03*
X135100000Y-63515000D03*
X135100000Y-64785000D03*
X135100000Y-66055000D03*
X135100000Y-67325000D03*
X135100000Y-68595000D03*
X135100000Y-69865000D03*
X135100000Y-71135000D03*
X135100000Y-72405000D03*
X135100000Y-73675000D03*
X135100000Y-74945000D03*
X135100000Y-76215000D03*
X135100000Y-77485000D03*
X135100000Y-78755000D03*
%TD*%
D20*
%TO.C,R35*%
X119750000Y-53587500D03*
X119750000Y-55412500D03*
%TD*%
D16*
%TO.C,J10*%
X102460000Y-86960000D03*
D17*
X102460000Y-89500000D03*
X105000000Y-86960000D03*
X105000000Y-89500000D03*
X107540000Y-86960000D03*
X107540000Y-89500000D03*
X110080000Y-86960000D03*
X110080000Y-89500000D03*
X112620000Y-86960000D03*
X112620000Y-89500000D03*
X115160000Y-86960000D03*
X115160000Y-89500000D03*
%TD*%
D24*
%TO.C,U1*%
X160500000Y-76862500D03*
D25*
X159400000Y-76862500D03*
X158300000Y-76862500D03*
X157200000Y-76862500D03*
X156100000Y-76862500D03*
X155000000Y-76862500D03*
X153900000Y-76862500D03*
X152800000Y-76862500D03*
D24*
X151700000Y-76862500D03*
X151700000Y-86362500D03*
D25*
X152800000Y-86362500D03*
X153900000Y-86362500D03*
X155000000Y-86362500D03*
X156100000Y-86362500D03*
X157200000Y-86362500D03*
X158300000Y-86362500D03*
X159400000Y-86362500D03*
D24*
X160500000Y-86362500D03*
%TD*%
D26*
%TO.C,D3*%
X119675000Y-58800000D03*
X117925000Y-58800000D03*
%TD*%
D27*
%TO.C,D37*%
X157000000Y-69925000D03*
X157000000Y-71500000D03*
%TD*%
D28*
%TO.C,D10*%
X110750000Y-94537500D03*
X110750000Y-92962500D03*
%TD*%
D27*
%TO.C,D36*%
X155000000Y-69925000D03*
X155000000Y-71500000D03*
%TD*%
D20*
%TO.C,R59*%
X125700000Y-89037500D03*
X125700000Y-90862500D03*
%TD*%
D29*
%TO.C,C45*%
X144875000Y-53800000D03*
X146600000Y-53800000D03*
%TD*%
D20*
%TO.C,R42*%
X142700000Y-85125000D03*
X142700000Y-86950000D03*
%TD*%
D30*
%TO.C,C5*%
X153750000Y-64362500D03*
X153750000Y-62637500D03*
%TD*%
D20*
%TO.C,R47*%
X137700000Y-89037500D03*
X137700000Y-90862500D03*
%TD*%
%TO.C,R46*%
X138700000Y-85037500D03*
X138700000Y-86862500D03*
%TD*%
D30*
%TO.C,C33*%
X109050000Y-61012500D03*
X109050000Y-59287500D03*
%TD*%
D18*
%TO.C,R63*%
X153337500Y-68000000D03*
X155162500Y-68000000D03*
%TD*%
D31*
%TO.C,J4*%
X152800000Y-96250000D03*
X157050000Y-96250000D03*
X148550000Y-96250000D03*
%TD*%
D20*
%TO.C,R66*%
X155750000Y-62087500D03*
X155750000Y-63912500D03*
%TD*%
D32*
%TO.C,R7*%
X153250000Y-71575000D03*
X153250000Y-69750000D03*
%TD*%
D20*
%TO.C,R45*%
X139700000Y-89037500D03*
X139700000Y-90862500D03*
%TD*%
D33*
%TO.C,C6*%
X147500000Y-66637500D03*
X147500000Y-68362500D03*
%TD*%
D20*
%TO.C,R56*%
X128700000Y-85037500D03*
X128700000Y-86862500D03*
%TD*%
D30*
%TO.C,C30*%
X108750000Y-94462500D03*
X108750000Y-92737500D03*
%TD*%
D34*
%TO.C,R14*%
X131712500Y-71600000D03*
X129887500Y-71600000D03*
%TD*%
D16*
%TO.C,J3*%
X102420000Y-53460000D03*
D17*
X102420000Y-56000000D03*
X104960000Y-53460000D03*
X104960000Y-56000000D03*
X107500000Y-53460000D03*
X107500000Y-56000000D03*
X110040000Y-53460000D03*
X110040000Y-56000000D03*
X112580000Y-53460000D03*
X112580000Y-56000000D03*
X115120000Y-53460000D03*
X115120000Y-56000000D03*
%TD*%
D19*
%TO.C,MH3*%
X103500000Y-96500000D03*
%TD*%
D20*
%TO.C,R51*%
X133700000Y-89037500D03*
X133700000Y-90862500D03*
%TD*%
%TO.C,R60*%
X124700000Y-85037500D03*
X124700000Y-86862500D03*
%TD*%
D18*
%TO.C,R13*%
X130837500Y-64250000D03*
X132662500Y-64250000D03*
%TD*%
%TO.C,R3*%
X154175000Y-73800000D03*
X156000000Y-73800000D03*
%TD*%
D35*
%TO.C,J5*%
X159500000Y-72500000D03*
X159500000Y-71500000D03*
X159500000Y-70500000D03*
X159500000Y-69500000D03*
D36*
X163375000Y-73800000D03*
X163375000Y-68200000D03*
%TD*%
D32*
%TO.C,R8*%
X151500000Y-69075000D03*
X151500000Y-67250000D03*
%TD*%
D19*
%TO.C,MH1*%
X103500000Y-47500000D03*
%TD*%
D37*
%TO.C,D47*%
X157500000Y-63750000D03*
X159075000Y-63750000D03*
%TD*%
D38*
%TO.C,C2*%
X152112500Y-73900000D03*
X150387500Y-73900000D03*
%TD*%
D16*
%TO.C,J9*%
X149840000Y-53460000D03*
D17*
X149840000Y-56000000D03*
X152380000Y-53460000D03*
X152380000Y-56000000D03*
X154920000Y-53460000D03*
X154920000Y-56000000D03*
X157460000Y-53460000D03*
X157460000Y-56000000D03*
X160000000Y-53460000D03*
X160000000Y-56000000D03*
X162540000Y-53460000D03*
X162540000Y-56000000D03*
%TD*%
D28*
%TO.C,D38*%
X157000000Y-67787500D03*
X157000000Y-66212500D03*
%TD*%
D20*
%TO.C,R49*%
X135700000Y-89125000D03*
X135700000Y-90950000D03*
%TD*%
D39*
%TO.C,D4*%
X101525000Y-84200000D03*
X103275000Y-84200000D03*
%TD*%
%TO.C,D2*%
X141125000Y-59400000D03*
X142875000Y-59400000D03*
%TD*%
D40*
%TO.C,J6*%
X113750000Y-94600000D03*
X114750000Y-94600000D03*
X115750000Y-94600000D03*
X116750000Y-94600000D03*
D41*
X112450000Y-98475000D03*
X118050000Y-98475000D03*
%TD*%
D20*
%TO.C,R44*%
X140700000Y-85037500D03*
X140700000Y-86862500D03*
%TD*%
%TO.C,R48*%
X136700000Y-85037500D03*
X136700000Y-86862500D03*
%TD*%
D34*
%TO.C,R12*%
X107112500Y-84200000D03*
X105287500Y-84200000D03*
%TD*%
D39*
%TO.C,D7*%
X126125000Y-73400000D03*
X127875000Y-73400000D03*
%TD*%
D32*
%TO.C,R2*%
X149200000Y-86425000D03*
X149200000Y-84600000D03*
%TD*%
D38*
%TO.C,C32*%
X118612500Y-92250000D03*
X116887500Y-92250000D03*
%TD*%
D20*
%TO.C,R52*%
X132700000Y-85037500D03*
X132700000Y-86862500D03*
%TD*%
D42*
%TO.C,L1*%
X154315000Y-91500000D03*
X155285000Y-91500000D03*
%TD*%
D20*
%TO.C,R50*%
X134700000Y-85037500D03*
X134700000Y-86862500D03*
%TD*%
D43*
%TO.C,D48*%
X159037500Y-61750000D03*
X157462500Y-61750000D03*
%TD*%
D19*
%TO.C,MH4*%
X161500000Y-96500000D03*
%TD*%
D20*
%TO.C,R58*%
X126700000Y-85037500D03*
X126700000Y-86862500D03*
%TD*%
D44*
%TO.C,C31*%
X118000000Y-87050000D03*
X118000000Y-85150000D03*
%TD*%
D20*
%TO.C,R43*%
X141700000Y-89125000D03*
X141700000Y-90950000D03*
%TD*%
D34*
%TO.C,R16*%
X131712500Y-73400000D03*
X129887500Y-73400000D03*
%TD*%
D20*
%TO.C,R61*%
X123700000Y-88950000D03*
X123700000Y-90775000D03*
%TD*%
D45*
%TO.C,C34*%
X111400000Y-59200000D03*
X111400000Y-61100000D03*
%TD*%
D18*
%TO.C,R65*%
X157337500Y-59750000D03*
X159162500Y-59750000D03*
%TD*%
D46*
%TO.C,C46*%
X146687500Y-55600000D03*
X144787500Y-55600000D03*
%TD*%
D20*
%TO.C,R55*%
X129700000Y-89037500D03*
X129700000Y-90862500D03*
%TD*%
D47*
%TO.C,C3*%
X152800000Y-90520000D03*
X152800000Y-91480000D03*
%TD*%
D39*
%TO.C,D6*%
X126125000Y-71600000D03*
X127875000Y-71600000D03*
%TD*%
D34*
%TO.C,R9*%
X132662500Y-66000000D03*
X130837500Y-66000000D03*
%TD*%
D20*
%TO.C,R57*%
X127700000Y-89037500D03*
X127700000Y-90862500D03*
%TD*%
%TO.C,R53*%
X131700000Y-89037500D03*
X131700000Y-90862500D03*
%TD*%
D34*
%TO.C,R10*%
X146717500Y-59400000D03*
X144892500Y-59400000D03*
%TD*%
D16*
%TO.C,J1*%
X108370000Y-48770000D03*
D17*
X108370000Y-46230000D03*
X110910000Y-48770000D03*
X110910000Y-46230000D03*
X113450000Y-48770000D03*
X113450000Y-46230000D03*
X115990000Y-48770000D03*
X115990000Y-46230000D03*
X118530000Y-48770000D03*
X118530000Y-46230000D03*
X121070000Y-48770000D03*
X121070000Y-46230000D03*
X123610000Y-48770000D03*
X123610000Y-46230000D03*
X126150000Y-48770000D03*
X126150000Y-46230000D03*
X128690000Y-48770000D03*
X128690000Y-46230000D03*
X131230000Y-48770000D03*
X131230000Y-46230000D03*
X133770000Y-48770000D03*
X133770000Y-46230000D03*
X136310000Y-48770000D03*
X136310000Y-46230000D03*
X138850000Y-48770000D03*
X138850000Y-46230000D03*
X141390000Y-48770000D03*
X141390000Y-46230000D03*
X143930000Y-48770000D03*
X143930000Y-46230000D03*
X146470000Y-48770000D03*
X146470000Y-46230000D03*
X149010000Y-48770000D03*
X149010000Y-46230000D03*
X151550000Y-48770000D03*
X151550000Y-46230000D03*
X154090000Y-48770000D03*
X154090000Y-46230000D03*
X156630000Y-48770000D03*
X156630000Y-46230000D03*
%TD*%
D10*
%TO.C,J7*%
X105850000Y-61125000D03*
X105850000Y-62375000D03*
X105850000Y-63625000D03*
X105850000Y-64875000D03*
X105850000Y-66125000D03*
X105850000Y-67375000D03*
D11*
X102650000Y-59275000D03*
X102650000Y-69225000D03*
%TD*%
M02*
