M48
; DRILL file KiCad 10.0.3 date 2026-06-17T11:06:13
; FORMAT={-:-/ absolute / metric / decimal}
; #@! TF.CreationDate,2026-06-17T11:06:13-04:00
; #@! TF.GenerationSoftware,Kicad,Pcbnew,10.0.3
; #@! TF.FileFunction,Plated,1,4,PTH
FMAT,2
METRIC
; #@! TA.AperFunction,Plated,PTH,ViaDrill
T1C0.200
; #@! TA.AperFunction,Plated,PTH,ViaDrill
T2C0.300
; #@! TA.AperFunction,Plated,PTH,ComponentDrill
T3C1.000
%
G90
G05
T1
X151.6Y-93.9
X151.6Y-94.5
X151.6Y-95.1
X152.0Y-88.2
X152.0Y-89.0
X152.0Y-89.8
X152.0Y-90.8
X152.0Y-92.0
X152.2Y-92.7
X152.2Y-93.3
X153.4Y-92.7
X153.4Y-93.3
X153.5Y-92.022
X153.6Y-88.2
X153.6Y-89.0
X153.6Y-89.8
X153.6Y-90.8
X154.0Y-93.9
X154.0Y-94.5
X154.0Y-95.1
T2
X102.6Y-73.6
X102.6Y-76.6
X102.6Y-79.85
X102.8Y-61.0
X102.8Y-64.0
X102.8Y-67.25
X106.25Y-50.75
X107.25Y-94.25
X107.25Y-96.5
X108.5Y-84.5
X109.25Y-50.75
X110.0Y-82.0
X110.5Y-96.5
X111.75Y-84.5
X113.0Y-82.0
X113.0Y-96.5
X113.5Y-92.5
X114.0Y-50.75
X114.6Y-61.4
X114.75Y-84.5
X115.6Y-78.6
X116.25Y-82.0
X116.25Y-96.5
X118.2Y-66.0
X119.0Y-89.0
X119.5Y-52.5
X121.5Y-51.0
X121.5Y-98.5
X123.75Y-87.75
X124.0Y-67.4
X124.0Y-96.25
X124.75Y-98.5
X124.8Y-69.6
X125.4Y-59.2
X125.5Y-60.5
X127.25Y-96.25
X127.4Y-61.4
X127.4Y-64.4
X127.4Y-67.65
X127.6Y-76.4
X127.75Y-87.75
X127.75Y-98.5
X128.75Y-83.25
X128.875Y-72.4
X129.7Y-87.8
X130.25Y-96.25
X130.75Y-59.0
X130.75Y-98.5
X131.0Y-56.4
X131.75Y-67.0
X131.75Y-87.75
X132.75Y-63.0
X132.75Y-83.5
X133.25Y-96.25
X133.75Y-80.75
X133.75Y-98.5
X134.25Y-51.75
X134.7Y-83.5
X134.941Y-80.691
X135.25Y-81.75
X135.5Y-51.25
X135.75Y-83.75
X136.25Y-96.25
X136.75Y-98.5
X137.75Y-50.75
X138.25Y-82.25
X138.5Y-70.75
X138.5Y-73.75
X138.5Y-77.0
X138.75Y-83.5
X139.25Y-96.25
X139.5Y-98.5
X142.0Y-96.25
X142.25Y-58.0
X142.25Y-64.0
X145.5Y-91.25
X145.65Y-64.253
X145.75Y-58.0
X146.25Y-63.515
X146.6Y-52.0
X146.997Y-73.491
X147.25Y-74.25
X147.352Y-75.602
X147.84Y-76.34
X149.5Y-70.0
X152.8Y-80.25
X153.5Y-60.25
X157.0Y-83.75
X157.2Y-74.8
X157.55Y-79.5
X158.25Y-84.75
X158.75Y-66.75
X161.25Y-67.75
X163.5Y-76.25
X163.5Y-79.25
X163.5Y-82.5
X163.5Y-85.5
X163.5Y-88.5
X163.5Y-91.75
T3
X102.42Y-53.46
X102.42Y-56.0
X102.46Y-86.96
X102.46Y-89.5
X104.96Y-53.46
X104.96Y-56.0
X105.0Y-86.96
X105.0Y-89.5
X107.5Y-53.46
X107.5Y-56.0
X107.54Y-86.96
X107.54Y-89.5
X108.37Y-46.23
X108.37Y-48.77
X110.04Y-53.46
X110.04Y-56.0
X110.08Y-86.96
X110.08Y-89.5
X110.91Y-46.23
X110.91Y-48.77
X112.58Y-53.46
X112.58Y-56.0
X112.62Y-86.96
X112.62Y-89.5
X113.45Y-46.23
X113.45Y-48.77
X115.12Y-53.46
X115.12Y-56.0
X115.16Y-86.96
X115.16Y-89.5
X115.99Y-46.23
X115.99Y-48.77
X118.53Y-46.23
X118.53Y-48.77
X121.07Y-46.23
X121.07Y-48.77
X123.61Y-46.23
X123.61Y-48.77
X126.15Y-46.23
X126.15Y-48.77
X128.69Y-46.23
X128.69Y-48.77
X131.23Y-46.23
X131.23Y-48.77
X133.77Y-46.23
X133.77Y-48.77
X136.31Y-46.23
X136.31Y-48.77
X138.85Y-46.23
X138.85Y-48.77
X141.39Y-46.23
X141.39Y-48.77
X143.93Y-46.23
X143.93Y-48.77
X146.47Y-46.23
X146.47Y-48.77
X149.01Y-46.23
X149.01Y-48.77
X149.84Y-53.46
X149.84Y-56.0
X151.55Y-46.23
X151.55Y-48.77
X152.38Y-53.46
X152.38Y-56.0
X154.09Y-46.23
X154.09Y-48.77
X154.92Y-53.46
X154.92Y-56.0
X156.63Y-46.23
X156.63Y-48.77
X157.46Y-53.46
X157.46Y-56.0
X160.0Y-53.46
X160.0Y-56.0
X161.865Y-59.96
X161.865Y-62.5
X161.865Y-65.04
X162.54Y-53.46
X162.54Y-56.0
M30
