%TF.GenerationSoftware,KiCad,Pcbnew,10.0.0*%
%TF.CreationDate,2026-04-01T17:05:18-04:00*%
%TF.ProjectId,interface_db_hat,696e7465-7266-4616-9365-5f64625f6861,rev?*%
%TF.SameCoordinates,Original*%
%TF.FileFunction,Soldermask,Bot*%
%TF.FilePolarity,Negative*%
%FSLAX46Y46*%
G04 Gerber Fmt 4.6, Leading zero omitted, Abs format (unit mm)*
G04 Created by KiCad (PCBNEW 10.0.0) date 2026-04-01 17:05:18*
%MOMM*%
%LPD*%
G01*
G04 APERTURE LIST*
G04 Aperture macros list*
%AMRoundRect*
0 Rectangle with rounded corners*
0 $1 Rounding radius*
0 $2 $3 $4 $5 $6 $7 $8 $9 X,Y pos of 4 corners*
0 Add a 4 corners polygon primitive as box body*
4,1,4,$2,$3,$4,$5,$6,$7,$8,$9,$2,$3,0*
0 Add four circle primitives for the rounded corners*
1,1,$1+$1,$2,$3*
1,1,$1+$1,$4,$5*
1,1,$1+$1,$6,$7*
1,1,$1+$1,$8,$9*
0 Add four rect primitives between the rounded corners*
20,1,$1+$1,$2,$3,$4,$5,0*
20,1,$1+$1,$4,$5,$6,$7,0*
20,1,$1+$1,$6,$7,$8,$9,0*
20,1,$1+$1,$8,$9,$2,$3,0*%
%AMFreePoly0*
4,1,6,1.000000,0.000000,0.500000,-0.750000,-0.500000,-0.750000,-0.500000,0.750000,0.500000,0.750000,1.000000,0.000000,1.000000,0.000000,$1*%
%AMFreePoly1*
4,1,6,0.500000,-0.750000,-0.650000,-0.750000,-0.150000,0.000000,-0.650000,0.750000,0.500000,0.750000,0.500000,-0.750000,0.500000,-0.750000,$1*%
G04 Aperture macros list end*
%ADD10RoundRect,0.250000X-0.475000X0.250000X-0.475000X-0.250000X0.475000X-0.250000X0.475000X0.250000X0*%
%ADD11R,1.700000X1.700000*%
%ADD12C,1.700000*%
%ADD13C,2.700000*%
%ADD14R,1.500000X5.080000*%
%ADD15FreePoly0,0.000000*%
%ADD16FreePoly1,0.000000*%
%ADD17RoundRect,0.237500X0.237500X-0.300000X0.237500X0.300000X-0.237500X0.300000X-0.237500X-0.300000X0*%
%ADD18FreePoly0,180.000000*%
%ADD19FreePoly1,180.000000*%
G04 APERTURE END LIST*
%TO.C,JP8*%
G36*
X128700000Y-70850000D02*
G01*
X131150000Y-70850000D01*
X131150000Y-72350000D01*
X128700000Y-72350000D01*
X128700000Y-70850000D01*
G37*
%TO.C,JP7*%
G36*
X124900000Y-70850000D02*
G01*
X127350000Y-70850000D01*
X127350000Y-72350000D01*
X124900000Y-72350000D01*
X124900000Y-70850000D01*
G37*
%TD*%
D10*
%TO.C,C34*%
X108400000Y-58550000D03*
X108400000Y-60450000D03*
%TD*%
D11*
%TO.C,J8*%
X104135000Y-65540000D03*
D12*
X104135000Y-63000000D03*
X104135000Y-60460000D03*
%TD*%
D13*
%TO.C,MH2*%
X161500000Y-47500000D03*
%TD*%
D11*
%TO.C,J10*%
X102460000Y-86960000D03*
D12*
X102460000Y-89500000D03*
X105000000Y-86960000D03*
X105000000Y-89500000D03*
X107540000Y-86960000D03*
X107540000Y-89500000D03*
X110080000Y-86960000D03*
X110080000Y-89500000D03*
X112620000Y-86960000D03*
X112620000Y-89500000D03*
X115160000Y-86960000D03*
X115160000Y-89500000D03*
%TD*%
D14*
%TO.C,J4*%
X155250000Y-96250000D03*
X146750000Y-96250000D03*
%TD*%
D11*
%TO.C,TP1*%
X111200000Y-81975000D03*
D12*
X111200000Y-79435000D03*
%TD*%
D11*
%TO.C,J3*%
X102420000Y-53460000D03*
D12*
X102420000Y-56000000D03*
X104960000Y-53460000D03*
X104960000Y-56000000D03*
X107500000Y-53460000D03*
X107500000Y-56000000D03*
X110040000Y-53460000D03*
X110040000Y-56000000D03*
X112580000Y-53460000D03*
X112580000Y-56000000D03*
X115120000Y-53460000D03*
X115120000Y-56000000D03*
%TD*%
D13*
%TO.C,MH3*%
X103500000Y-96500000D03*
%TD*%
%TO.C,MH1*%
X103500000Y-47500000D03*
%TD*%
D11*
%TO.C,J9*%
X149840000Y-53460000D03*
D12*
X149840000Y-56000000D03*
X152380000Y-53460000D03*
X152380000Y-56000000D03*
X154920000Y-53460000D03*
X154920000Y-56000000D03*
X157460000Y-53460000D03*
X157460000Y-56000000D03*
X160000000Y-53460000D03*
X160000000Y-56000000D03*
X162540000Y-53460000D03*
X162540000Y-56000000D03*
%TD*%
D13*
%TO.C,MH4*%
X161500000Y-96500000D03*
%TD*%
D11*
%TO.C,TP2*%
X114800000Y-81975000D03*
D12*
X114800000Y-79435000D03*
%TD*%
D15*
%TO.C,JP8*%
X129200000Y-71600000D03*
D16*
X130650000Y-71600000D03*
%TD*%
D11*
%TO.C,J1*%
X108370000Y-48770000D03*
D12*
X108370000Y-46230000D03*
X110910000Y-48770000D03*
X110910000Y-46230000D03*
X113450000Y-48770000D03*
X113450000Y-46230000D03*
X115990000Y-48770000D03*
X115990000Y-46230000D03*
X118530000Y-48770000D03*
X118530000Y-46230000D03*
X121070000Y-48770000D03*
X121070000Y-46230000D03*
X123610000Y-48770000D03*
X123610000Y-46230000D03*
X126150000Y-48770000D03*
X126150000Y-46230000D03*
X128690000Y-48770000D03*
X128690000Y-46230000D03*
X131230000Y-48770000D03*
X131230000Y-46230000D03*
X133770000Y-48770000D03*
X133770000Y-46230000D03*
X136310000Y-48770000D03*
X136310000Y-46230000D03*
X138850000Y-48770000D03*
X138850000Y-46230000D03*
X141390000Y-48770000D03*
X141390000Y-46230000D03*
X143930000Y-48770000D03*
X143930000Y-46230000D03*
X146470000Y-48770000D03*
X146470000Y-46230000D03*
X149010000Y-48770000D03*
X149010000Y-46230000D03*
X151550000Y-48770000D03*
X151550000Y-46230000D03*
X154090000Y-48770000D03*
X154090000Y-46230000D03*
X156630000Y-48770000D03*
X156630000Y-46230000D03*
%TD*%
D17*
%TO.C,C33*%
X110510000Y-60362500D03*
X110510000Y-58637500D03*
%TD*%
D18*
%TO.C,JP7*%
X126850000Y-71600000D03*
D19*
X125400000Y-71600000D03*
%TD*%
M02*
