%TF.GenerationSoftware,KiCad,Pcbnew,10.0.3*%
%TF.CreationDate,2026-06-16T17:41:54-04:00*%
%TF.ProjectId,interface_db_hat,696e7465-7266-4616-9365-5f64625f6861,rev?*%
%TF.SameCoordinates,Original*%
%TF.FileFunction,Legend,Top*%
%TF.FilePolarity,Positive*%
%FSLAX46Y46*%
G04 Gerber Fmt 4.6, Leading zero omitted, Abs format (unit mm)*
G04 Created by KiCad (PCBNEW 10.0.3) date 2026-06-16 17:41:54*
%MOMM*%
%LPD*%
G01*
G04 APERTURE LIST*
%ADD10C,0.150000*%
%ADD11C,0.120000*%
%ADD12C,0.200000*%
%ADD13C,0.152400*%
%ADD14C,0.508000*%
%ADD15C,0.127000*%
G04 APERTURE END LIST*
D10*
X141584398Y-60318771D02*
X141955826Y-60318771D01*
X141955826Y-60318771D02*
X141755826Y-60547342D01*
X141755826Y-60547342D02*
X141841541Y-60547342D01*
X141841541Y-60547342D02*
X141898684Y-60575914D01*
X141898684Y-60575914D02*
X141927255Y-60604485D01*
X141927255Y-60604485D02*
X141955826Y-60661628D01*
X141955826Y-60661628D02*
X141955826Y-60804485D01*
X141955826Y-60804485D02*
X141927255Y-60861628D01*
X141927255Y-60861628D02*
X141898684Y-60890200D01*
X141898684Y-60890200D02*
X141841541Y-60918771D01*
X141841541Y-60918771D02*
X141670112Y-60918771D01*
X141670112Y-60918771D02*
X141612969Y-60890200D01*
X141612969Y-60890200D02*
X141584398Y-60861628D01*
X142127255Y-60318771D02*
X142327255Y-60918771D01*
X142327255Y-60918771D02*
X142527255Y-60318771D01*
X142670113Y-60318771D02*
X143041541Y-60318771D01*
X143041541Y-60318771D02*
X142841541Y-60547342D01*
X142841541Y-60547342D02*
X142927256Y-60547342D01*
X142927256Y-60547342D02*
X142984399Y-60575914D01*
X142984399Y-60575914D02*
X143012970Y-60604485D01*
X143012970Y-60604485D02*
X143041541Y-60661628D01*
X143041541Y-60661628D02*
X143041541Y-60804485D01*
X143041541Y-60804485D02*
X143012970Y-60861628D01*
X143012970Y-60861628D02*
X142984399Y-60890200D01*
X142984399Y-60890200D02*
X142927256Y-60918771D01*
X142927256Y-60918771D02*
X142755827Y-60918771D01*
X142755827Y-60918771D02*
X142698684Y-60890200D01*
X142698684Y-60890200D02*
X142670113Y-60861628D01*
X107555826Y-83388771D02*
X107212969Y-83388771D01*
X107384398Y-83388771D02*
X107384398Y-82788771D01*
X107384398Y-82788771D02*
X107327255Y-82874485D01*
X107327255Y-82874485D02*
X107270112Y-82931628D01*
X107270112Y-82931628D02*
X107212969Y-82960200D01*
X107784398Y-82845914D02*
X107812970Y-82817342D01*
X107812970Y-82817342D02*
X107870113Y-82788771D01*
X107870113Y-82788771D02*
X108012970Y-82788771D01*
X108012970Y-82788771D02*
X108070113Y-82817342D01*
X108070113Y-82817342D02*
X108098684Y-82845914D01*
X108098684Y-82845914D02*
X108127255Y-82903057D01*
X108127255Y-82903057D02*
X108127255Y-82960200D01*
X108127255Y-82960200D02*
X108098684Y-83045914D01*
X108098684Y-83045914D02*
X107755827Y-83388771D01*
X107755827Y-83388771D02*
X108127255Y-83388771D01*
X108298684Y-82788771D02*
X108498684Y-83388771D01*
X108498684Y-83388771D02*
X108698684Y-82788771D01*
X129041541Y-70518771D02*
X129041541Y-69918771D01*
X129327255Y-70518771D02*
X129327255Y-69918771D01*
X129327255Y-69918771D02*
X129670112Y-70518771D01*
X129670112Y-70518771D02*
X129670112Y-69918771D01*
X129955826Y-70518771D02*
X129955826Y-69918771D01*
X129955826Y-69918771D02*
X130098683Y-69918771D01*
X130098683Y-69918771D02*
X130184397Y-69947342D01*
X130184397Y-69947342D02*
X130241540Y-70004485D01*
X130241540Y-70004485D02*
X130270111Y-70061628D01*
X130270111Y-70061628D02*
X130298683Y-70175914D01*
X130298683Y-70175914D02*
X130298683Y-70261628D01*
X130298683Y-70261628D02*
X130270111Y-70375914D01*
X130270111Y-70375914D02*
X130241540Y-70433057D01*
X130241540Y-70433057D02*
X130184397Y-70490200D01*
X130184397Y-70490200D02*
X130098683Y-70518771D01*
X130098683Y-70518771D02*
X129955826Y-70518771D01*
X130870111Y-70518771D02*
X130527254Y-70518771D01*
X130698683Y-70518771D02*
X130698683Y-69918771D01*
X130698683Y-69918771D02*
X130641540Y-70004485D01*
X130641540Y-70004485D02*
X130584397Y-70061628D01*
X130584397Y-70061628D02*
X130527254Y-70090200D01*
X128891541Y-74918771D02*
X128891541Y-74318771D01*
X129177255Y-74918771D02*
X129177255Y-74318771D01*
X129177255Y-74318771D02*
X129520112Y-74918771D01*
X129520112Y-74918771D02*
X129520112Y-74318771D01*
X129805826Y-74918771D02*
X129805826Y-74318771D01*
X129805826Y-74318771D02*
X129948683Y-74318771D01*
X129948683Y-74318771D02*
X130034397Y-74347342D01*
X130034397Y-74347342D02*
X130091540Y-74404485D01*
X130091540Y-74404485D02*
X130120111Y-74461628D01*
X130120111Y-74461628D02*
X130148683Y-74575914D01*
X130148683Y-74575914D02*
X130148683Y-74661628D01*
X130148683Y-74661628D02*
X130120111Y-74775914D01*
X130120111Y-74775914D02*
X130091540Y-74833057D01*
X130091540Y-74833057D02*
X130034397Y-74890200D01*
X130034397Y-74890200D02*
X129948683Y-74918771D01*
X129948683Y-74918771D02*
X129805826Y-74918771D01*
X130377254Y-74375914D02*
X130405826Y-74347342D01*
X130405826Y-74347342D02*
X130462969Y-74318771D01*
X130462969Y-74318771D02*
X130605826Y-74318771D01*
X130605826Y-74318771D02*
X130662969Y-74347342D01*
X130662969Y-74347342D02*
X130691540Y-74375914D01*
X130691540Y-74375914D02*
X130720111Y-74433057D01*
X130720111Y-74433057D02*
X130720111Y-74490200D01*
X130720111Y-74490200D02*
X130691540Y-74575914D01*
X130691540Y-74575914D02*
X130348683Y-74918771D01*
X130348683Y-74918771D02*
X130720111Y-74918771D01*
X118527255Y-60118771D02*
X118241541Y-60118771D01*
X118241541Y-60118771D02*
X118212969Y-60404485D01*
X118212969Y-60404485D02*
X118241541Y-60375914D01*
X118241541Y-60375914D02*
X118298684Y-60347342D01*
X118298684Y-60347342D02*
X118441541Y-60347342D01*
X118441541Y-60347342D02*
X118498684Y-60375914D01*
X118498684Y-60375914D02*
X118527255Y-60404485D01*
X118527255Y-60404485D02*
X118555826Y-60461628D01*
X118555826Y-60461628D02*
X118555826Y-60604485D01*
X118555826Y-60604485D02*
X118527255Y-60661628D01*
X118527255Y-60661628D02*
X118498684Y-60690200D01*
X118498684Y-60690200D02*
X118441541Y-60718771D01*
X118441541Y-60718771D02*
X118298684Y-60718771D01*
X118298684Y-60718771D02*
X118241541Y-60690200D01*
X118241541Y-60690200D02*
X118212969Y-60661628D01*
X118727255Y-60118771D02*
X118927255Y-60718771D01*
X118927255Y-60718771D02*
X119127255Y-60118771D01*
X100936779Y-92869819D02*
X100936779Y-91869819D01*
X100936779Y-91869819D02*
X101317731Y-91869819D01*
X101317731Y-91869819D02*
X101412969Y-91917438D01*
X101412969Y-91917438D02*
X101460588Y-91965057D01*
X101460588Y-91965057D02*
X101508207Y-92060295D01*
X101508207Y-92060295D02*
X101508207Y-92203152D01*
X101508207Y-92203152D02*
X101460588Y-92298390D01*
X101460588Y-92298390D02*
X101412969Y-92346009D01*
X101412969Y-92346009D02*
X101317731Y-92393628D01*
X101317731Y-92393628D02*
X100936779Y-92393628D01*
X101936779Y-92869819D02*
X101936779Y-91869819D01*
X101936779Y-91869819D02*
X102174874Y-91869819D01*
X102174874Y-91869819D02*
X102317731Y-91917438D01*
X102317731Y-91917438D02*
X102412969Y-92012676D01*
X102412969Y-92012676D02*
X102460588Y-92107914D01*
X102460588Y-92107914D02*
X102508207Y-92298390D01*
X102508207Y-92298390D02*
X102508207Y-92441247D01*
X102508207Y-92441247D02*
X102460588Y-92631723D01*
X102460588Y-92631723D02*
X102412969Y-92726961D01*
X102412969Y-92726961D02*
X102317731Y-92822200D01*
X102317731Y-92822200D02*
X102174874Y-92869819D01*
X102174874Y-92869819D02*
X101936779Y-92869819D01*
X103698684Y-92869819D02*
X103698684Y-91869819D01*
X103698684Y-91869819D02*
X104079636Y-91869819D01*
X104079636Y-91869819D02*
X104174874Y-91917438D01*
X104174874Y-91917438D02*
X104222493Y-91965057D01*
X104222493Y-91965057D02*
X104270112Y-92060295D01*
X104270112Y-92060295D02*
X104270112Y-92203152D01*
X104270112Y-92203152D02*
X104222493Y-92298390D01*
X104222493Y-92298390D02*
X104174874Y-92346009D01*
X104174874Y-92346009D02*
X104079636Y-92393628D01*
X104079636Y-92393628D02*
X103698684Y-92393628D01*
X104889160Y-91869819D02*
X105079636Y-91869819D01*
X105079636Y-91869819D02*
X105174874Y-91917438D01*
X105174874Y-91917438D02*
X105270112Y-92012676D01*
X105270112Y-92012676D02*
X105317731Y-92203152D01*
X105317731Y-92203152D02*
X105317731Y-92536485D01*
X105317731Y-92536485D02*
X105270112Y-92726961D01*
X105270112Y-92726961D02*
X105174874Y-92822200D01*
X105174874Y-92822200D02*
X105079636Y-92869819D01*
X105079636Y-92869819D02*
X104889160Y-92869819D01*
X104889160Y-92869819D02*
X104793922Y-92822200D01*
X104793922Y-92822200D02*
X104698684Y-92726961D01*
X104698684Y-92726961D02*
X104651065Y-92536485D01*
X104651065Y-92536485D02*
X104651065Y-92203152D01*
X104651065Y-92203152D02*
X104698684Y-92012676D01*
X104698684Y-92012676D02*
X104793922Y-91917438D01*
X104793922Y-91917438D02*
X104889160Y-91869819D01*
X105651065Y-91869819D02*
X105889160Y-92869819D01*
X105889160Y-92869819D02*
X106079636Y-92155533D01*
X106079636Y-92155533D02*
X106270112Y-92869819D01*
X106270112Y-92869819D02*
X106508208Y-91869819D01*
X106889160Y-92346009D02*
X107222493Y-92346009D01*
X107365350Y-92869819D02*
X106889160Y-92869819D01*
X106889160Y-92869819D02*
X106889160Y-91869819D01*
X106889160Y-91869819D02*
X107365350Y-91869819D01*
X108365350Y-92869819D02*
X108032017Y-92393628D01*
X107793922Y-92869819D02*
X107793922Y-91869819D01*
X107793922Y-91869819D02*
X108174874Y-91869819D01*
X108174874Y-91869819D02*
X108270112Y-91917438D01*
X108270112Y-91917438D02*
X108317731Y-91965057D01*
X108317731Y-91965057D02*
X108365350Y-92060295D01*
X108365350Y-92060295D02*
X108365350Y-92203152D01*
X108365350Y-92203152D02*
X108317731Y-92298390D01*
X108317731Y-92298390D02*
X108270112Y-92346009D01*
X108270112Y-92346009D02*
X108174874Y-92393628D01*
X108174874Y-92393628D02*
X107793922Y-92393628D01*
X107339160Y-69184216D02*
X107815350Y-69184216D01*
X107243922Y-69469931D02*
X107577255Y-68469931D01*
X107577255Y-68469931D02*
X107910588Y-69469931D01*
X108720112Y-69469931D02*
X108243922Y-69469931D01*
X108243922Y-69469931D02*
X108243922Y-68469931D01*
X108910589Y-68469931D02*
X109482017Y-68469931D01*
X109196303Y-69469931D02*
X109196303Y-68469931D01*
X109767732Y-69184216D02*
X110243922Y-69184216D01*
X109672494Y-69469931D02*
X110005827Y-68469931D01*
X110005827Y-68469931D02*
X110339160Y-69469931D01*
X110672494Y-69469931D02*
X110672494Y-68469931D01*
X111720112Y-69469931D02*
X111386779Y-68993740D01*
X111148684Y-69469931D02*
X111148684Y-68469931D01*
X111148684Y-68469931D02*
X111529636Y-68469931D01*
X111529636Y-68469931D02*
X111624874Y-68517550D01*
X111624874Y-68517550D02*
X111672493Y-68565169D01*
X111672493Y-68565169D02*
X111720112Y-68660407D01*
X111720112Y-68660407D02*
X111720112Y-68803264D01*
X111720112Y-68803264D02*
X111672493Y-68898502D01*
X111672493Y-68898502D02*
X111624874Y-68946121D01*
X111624874Y-68946121D02*
X111529636Y-68993740D01*
X111529636Y-68993740D02*
X111148684Y-68993740D01*
X112910589Y-69469931D02*
X112910589Y-68469931D01*
X113386779Y-68803264D02*
X113386779Y-69469931D01*
X113386779Y-68898502D02*
X113434398Y-68850883D01*
X113434398Y-68850883D02*
X113529636Y-68803264D01*
X113529636Y-68803264D02*
X113672493Y-68803264D01*
X113672493Y-68803264D02*
X113767731Y-68850883D01*
X113767731Y-68850883D02*
X113815350Y-68946121D01*
X113815350Y-68946121D02*
X113815350Y-69469931D01*
X114148684Y-68803264D02*
X114529636Y-68803264D01*
X114291541Y-68469931D02*
X114291541Y-69327073D01*
X114291541Y-69327073D02*
X114339160Y-69422312D01*
X114339160Y-69422312D02*
X114434398Y-69469931D01*
X114434398Y-69469931D02*
X114529636Y-69469931D01*
X115243922Y-69422312D02*
X115148684Y-69469931D01*
X115148684Y-69469931D02*
X114958208Y-69469931D01*
X114958208Y-69469931D02*
X114862970Y-69422312D01*
X114862970Y-69422312D02*
X114815351Y-69327073D01*
X114815351Y-69327073D02*
X114815351Y-68946121D01*
X114815351Y-68946121D02*
X114862970Y-68850883D01*
X114862970Y-68850883D02*
X114958208Y-68803264D01*
X114958208Y-68803264D02*
X115148684Y-68803264D01*
X115148684Y-68803264D02*
X115243922Y-68850883D01*
X115243922Y-68850883D02*
X115291541Y-68946121D01*
X115291541Y-68946121D02*
X115291541Y-69041359D01*
X115291541Y-69041359D02*
X114815351Y-69136597D01*
X115720113Y-69469931D02*
X115720113Y-68803264D01*
X115720113Y-68993740D02*
X115767732Y-68898502D01*
X115767732Y-68898502D02*
X115815351Y-68850883D01*
X115815351Y-68850883D02*
X115910589Y-68803264D01*
X115910589Y-68803264D02*
X116005827Y-68803264D01*
X116196304Y-68803264D02*
X116577256Y-68803264D01*
X116339161Y-69469931D02*
X116339161Y-68612788D01*
X116339161Y-68612788D02*
X116386780Y-68517550D01*
X116386780Y-68517550D02*
X116482018Y-68469931D01*
X116482018Y-68469931D02*
X116577256Y-68469931D01*
X117339161Y-69469931D02*
X117339161Y-68946121D01*
X117339161Y-68946121D02*
X117291542Y-68850883D01*
X117291542Y-68850883D02*
X117196304Y-68803264D01*
X117196304Y-68803264D02*
X117005828Y-68803264D01*
X117005828Y-68803264D02*
X116910590Y-68850883D01*
X117339161Y-69422312D02*
X117243923Y-69469931D01*
X117243923Y-69469931D02*
X117005828Y-69469931D01*
X117005828Y-69469931D02*
X116910590Y-69422312D01*
X116910590Y-69422312D02*
X116862971Y-69327073D01*
X116862971Y-69327073D02*
X116862971Y-69231835D01*
X116862971Y-69231835D02*
X116910590Y-69136597D01*
X116910590Y-69136597D02*
X117005828Y-69088978D01*
X117005828Y-69088978D02*
X117243923Y-69088978D01*
X117243923Y-69088978D02*
X117339161Y-69041359D01*
X118243923Y-69422312D02*
X118148685Y-69469931D01*
X118148685Y-69469931D02*
X117958209Y-69469931D01*
X117958209Y-69469931D02*
X117862971Y-69422312D01*
X117862971Y-69422312D02*
X117815352Y-69374692D01*
X117815352Y-69374692D02*
X117767733Y-69279454D01*
X117767733Y-69279454D02*
X117767733Y-68993740D01*
X117767733Y-68993740D02*
X117815352Y-68898502D01*
X117815352Y-68898502D02*
X117862971Y-68850883D01*
X117862971Y-68850883D02*
X117958209Y-68803264D01*
X117958209Y-68803264D02*
X118148685Y-68803264D01*
X118148685Y-68803264D02*
X118243923Y-68850883D01*
X119053447Y-69422312D02*
X118958209Y-69469931D01*
X118958209Y-69469931D02*
X118767733Y-69469931D01*
X118767733Y-69469931D02*
X118672495Y-69422312D01*
X118672495Y-69422312D02*
X118624876Y-69327073D01*
X118624876Y-69327073D02*
X118624876Y-68946121D01*
X118624876Y-68946121D02*
X118672495Y-68850883D01*
X118672495Y-68850883D02*
X118767733Y-68803264D01*
X118767733Y-68803264D02*
X118958209Y-68803264D01*
X118958209Y-68803264D02*
X119053447Y-68850883D01*
X119053447Y-68850883D02*
X119101066Y-68946121D01*
X119101066Y-68946121D02*
X119101066Y-69041359D01*
X119101066Y-69041359D02*
X118624876Y-69136597D01*
X120291543Y-69469931D02*
X120291543Y-68469931D01*
X120291543Y-68946121D02*
X120862971Y-68946121D01*
X120862971Y-69469931D02*
X120862971Y-68469931D01*
X121291543Y-69184216D02*
X121767733Y-69184216D01*
X121196305Y-69469931D02*
X121529638Y-68469931D01*
X121529638Y-68469931D02*
X121862971Y-69469931D01*
X122053448Y-68469931D02*
X122624876Y-68469931D01*
X122339162Y-69469931D02*
X122339162Y-68469931D01*
X107720112Y-70556065D02*
X107862969Y-70603684D01*
X107862969Y-70603684D02*
X107910588Y-70651303D01*
X107910588Y-70651303D02*
X107958207Y-70746541D01*
X107958207Y-70746541D02*
X107958207Y-70889398D01*
X107958207Y-70889398D02*
X107910588Y-70984636D01*
X107910588Y-70984636D02*
X107862969Y-71032256D01*
X107862969Y-71032256D02*
X107767731Y-71079875D01*
X107767731Y-71079875D02*
X107386779Y-71079875D01*
X107386779Y-71079875D02*
X107386779Y-70079875D01*
X107386779Y-70079875D02*
X107720112Y-70079875D01*
X107720112Y-70079875D02*
X107815350Y-70127494D01*
X107815350Y-70127494D02*
X107862969Y-70175113D01*
X107862969Y-70175113D02*
X107910588Y-70270351D01*
X107910588Y-70270351D02*
X107910588Y-70365589D01*
X107910588Y-70365589D02*
X107862969Y-70460827D01*
X107862969Y-70460827D02*
X107815350Y-70508446D01*
X107815350Y-70508446D02*
X107720112Y-70556065D01*
X107720112Y-70556065D02*
X107386779Y-70556065D01*
X108767731Y-71032256D02*
X108672493Y-71079875D01*
X108672493Y-71079875D02*
X108482017Y-71079875D01*
X108482017Y-71079875D02*
X108386779Y-71032256D01*
X108386779Y-71032256D02*
X108339160Y-70937017D01*
X108339160Y-70937017D02*
X108339160Y-70556065D01*
X108339160Y-70556065D02*
X108386779Y-70460827D01*
X108386779Y-70460827D02*
X108482017Y-70413208D01*
X108482017Y-70413208D02*
X108672493Y-70413208D01*
X108672493Y-70413208D02*
X108767731Y-70460827D01*
X108767731Y-70460827D02*
X108815350Y-70556065D01*
X108815350Y-70556065D02*
X108815350Y-70651303D01*
X108815350Y-70651303D02*
X108339160Y-70746541D01*
X109243922Y-70413208D02*
X109243922Y-71079875D01*
X109243922Y-70508446D02*
X109291541Y-70460827D01*
X109291541Y-70460827D02*
X109386779Y-70413208D01*
X109386779Y-70413208D02*
X109529636Y-70413208D01*
X109529636Y-70413208D02*
X109624874Y-70460827D01*
X109624874Y-70460827D02*
X109672493Y-70556065D01*
X109672493Y-70556065D02*
X109672493Y-71079875D01*
X110910589Y-71079875D02*
X110910589Y-70079875D01*
X110910589Y-70079875D02*
X111148684Y-70079875D01*
X111148684Y-70079875D02*
X111291541Y-70127494D01*
X111291541Y-70127494D02*
X111386779Y-70222732D01*
X111386779Y-70222732D02*
X111434398Y-70317970D01*
X111434398Y-70317970D02*
X111482017Y-70508446D01*
X111482017Y-70508446D02*
X111482017Y-70651303D01*
X111482017Y-70651303D02*
X111434398Y-70841779D01*
X111434398Y-70841779D02*
X111386779Y-70937017D01*
X111386779Y-70937017D02*
X111291541Y-71032256D01*
X111291541Y-71032256D02*
X111148684Y-71079875D01*
X111148684Y-71079875D02*
X110910589Y-71079875D01*
X111958208Y-70079875D02*
X111862970Y-70270351D01*
X112339160Y-70794160D02*
X112815350Y-70794160D01*
X112243922Y-71079875D02*
X112577255Y-70079875D01*
X112577255Y-70079875D02*
X112910588Y-71079875D01*
X113672493Y-70413208D02*
X113672493Y-71222732D01*
X113672493Y-71222732D02*
X113624874Y-71317970D01*
X113624874Y-71317970D02*
X113577255Y-71365589D01*
X113577255Y-71365589D02*
X113482017Y-71413208D01*
X113482017Y-71413208D02*
X113339160Y-71413208D01*
X113339160Y-71413208D02*
X113243922Y-71365589D01*
X113672493Y-71032256D02*
X113577255Y-71079875D01*
X113577255Y-71079875D02*
X113386779Y-71079875D01*
X113386779Y-71079875D02*
X113291541Y-71032256D01*
X113291541Y-71032256D02*
X113243922Y-70984636D01*
X113243922Y-70984636D02*
X113196303Y-70889398D01*
X113196303Y-70889398D02*
X113196303Y-70603684D01*
X113196303Y-70603684D02*
X113243922Y-70508446D01*
X113243922Y-70508446D02*
X113291541Y-70460827D01*
X113291541Y-70460827D02*
X113386779Y-70413208D01*
X113386779Y-70413208D02*
X113577255Y-70413208D01*
X113577255Y-70413208D02*
X113672493Y-70460827D01*
X114148684Y-70413208D02*
X114148684Y-71079875D01*
X114148684Y-70508446D02*
X114196303Y-70460827D01*
X114196303Y-70460827D02*
X114291541Y-70413208D01*
X114291541Y-70413208D02*
X114434398Y-70413208D01*
X114434398Y-70413208D02*
X114529636Y-70460827D01*
X114529636Y-70460827D02*
X114577255Y-70556065D01*
X114577255Y-70556065D02*
X114577255Y-71079875D01*
X115053446Y-71079875D02*
X115053446Y-70413208D01*
X115053446Y-70079875D02*
X115005827Y-70127494D01*
X115005827Y-70127494D02*
X115053446Y-70175113D01*
X115053446Y-70175113D02*
X115101065Y-70127494D01*
X115101065Y-70127494D02*
X115053446Y-70079875D01*
X115053446Y-70079875D02*
X115053446Y-70175113D01*
X115672493Y-71079875D02*
X115577255Y-71032256D01*
X115577255Y-71032256D02*
X115529636Y-70937017D01*
X115529636Y-70937017D02*
X115529636Y-70079875D01*
X116196303Y-71079875D02*
X116101065Y-71032256D01*
X116101065Y-71032256D02*
X116053446Y-70937017D01*
X116053446Y-70937017D02*
X116053446Y-70079875D01*
X116720113Y-71079875D02*
X116624875Y-71032256D01*
X116624875Y-71032256D02*
X116577256Y-70984636D01*
X116577256Y-70984636D02*
X116529637Y-70889398D01*
X116529637Y-70889398D02*
X116529637Y-70603684D01*
X116529637Y-70603684D02*
X116577256Y-70508446D01*
X116577256Y-70508446D02*
X116624875Y-70460827D01*
X116624875Y-70460827D02*
X116720113Y-70413208D01*
X116720113Y-70413208D02*
X116862970Y-70413208D01*
X116862970Y-70413208D02*
X116958208Y-70460827D01*
X116958208Y-70460827D02*
X117005827Y-70508446D01*
X117005827Y-70508446D02*
X117053446Y-70603684D01*
X117053446Y-70603684D02*
X117053446Y-70889398D01*
X117053446Y-70889398D02*
X117005827Y-70984636D01*
X117005827Y-70984636D02*
X116958208Y-71032256D01*
X116958208Y-71032256D02*
X116862970Y-71079875D01*
X116862970Y-71079875D02*
X116720113Y-71079875D01*
X107672493Y-71689819D02*
X107672493Y-72404104D01*
X107672493Y-72404104D02*
X107624874Y-72546961D01*
X107624874Y-72546961D02*
X107529636Y-72642200D01*
X107529636Y-72642200D02*
X107386779Y-72689819D01*
X107386779Y-72689819D02*
X107291541Y-72689819D01*
X108577255Y-72023152D02*
X108577255Y-72689819D01*
X108148684Y-72023152D02*
X108148684Y-72546961D01*
X108148684Y-72546961D02*
X108196303Y-72642200D01*
X108196303Y-72642200D02*
X108291541Y-72689819D01*
X108291541Y-72689819D02*
X108434398Y-72689819D01*
X108434398Y-72689819D02*
X108529636Y-72642200D01*
X108529636Y-72642200D02*
X108577255Y-72594580D01*
X109053446Y-72023152D02*
X109053446Y-72689819D01*
X109053446Y-72118390D02*
X109101065Y-72070771D01*
X109101065Y-72070771D02*
X109196303Y-72023152D01*
X109196303Y-72023152D02*
X109339160Y-72023152D01*
X109339160Y-72023152D02*
X109434398Y-72070771D01*
X109434398Y-72070771D02*
X109482017Y-72166009D01*
X109482017Y-72166009D02*
X109482017Y-72689819D01*
X110339160Y-72642200D02*
X110243922Y-72689819D01*
X110243922Y-72689819D02*
X110053446Y-72689819D01*
X110053446Y-72689819D02*
X109958208Y-72642200D01*
X109958208Y-72642200D02*
X109910589Y-72546961D01*
X109910589Y-72546961D02*
X109910589Y-72166009D01*
X109910589Y-72166009D02*
X109958208Y-72070771D01*
X109958208Y-72070771D02*
X110053446Y-72023152D01*
X110053446Y-72023152D02*
X110243922Y-72023152D01*
X110243922Y-72023152D02*
X110339160Y-72070771D01*
X110339160Y-72070771D02*
X110386779Y-72166009D01*
X110386779Y-72166009D02*
X110386779Y-72261247D01*
X110386779Y-72261247D02*
X109910589Y-72356485D01*
X111529637Y-71785057D02*
X111577256Y-71737438D01*
X111577256Y-71737438D02*
X111672494Y-71689819D01*
X111672494Y-71689819D02*
X111910589Y-71689819D01*
X111910589Y-71689819D02*
X112005827Y-71737438D01*
X112005827Y-71737438D02*
X112053446Y-71785057D01*
X112053446Y-71785057D02*
X112101065Y-71880295D01*
X112101065Y-71880295D02*
X112101065Y-71975533D01*
X112101065Y-71975533D02*
X112053446Y-72118390D01*
X112053446Y-72118390D02*
X111482018Y-72689819D01*
X111482018Y-72689819D02*
X112101065Y-72689819D01*
X112720113Y-71689819D02*
X112815351Y-71689819D01*
X112815351Y-71689819D02*
X112910589Y-71737438D01*
X112910589Y-71737438D02*
X112958208Y-71785057D01*
X112958208Y-71785057D02*
X113005827Y-71880295D01*
X113005827Y-71880295D02*
X113053446Y-72070771D01*
X113053446Y-72070771D02*
X113053446Y-72308866D01*
X113053446Y-72308866D02*
X113005827Y-72499342D01*
X113005827Y-72499342D02*
X112958208Y-72594580D01*
X112958208Y-72594580D02*
X112910589Y-72642200D01*
X112910589Y-72642200D02*
X112815351Y-72689819D01*
X112815351Y-72689819D02*
X112720113Y-72689819D01*
X112720113Y-72689819D02*
X112624875Y-72642200D01*
X112624875Y-72642200D02*
X112577256Y-72594580D01*
X112577256Y-72594580D02*
X112529637Y-72499342D01*
X112529637Y-72499342D02*
X112482018Y-72308866D01*
X112482018Y-72308866D02*
X112482018Y-72070771D01*
X112482018Y-72070771D02*
X112529637Y-71880295D01*
X112529637Y-71880295D02*
X112577256Y-71785057D01*
X112577256Y-71785057D02*
X112624875Y-71737438D01*
X112624875Y-71737438D02*
X112720113Y-71689819D01*
X113434399Y-71785057D02*
X113482018Y-71737438D01*
X113482018Y-71737438D02*
X113577256Y-71689819D01*
X113577256Y-71689819D02*
X113815351Y-71689819D01*
X113815351Y-71689819D02*
X113910589Y-71737438D01*
X113910589Y-71737438D02*
X113958208Y-71785057D01*
X113958208Y-71785057D02*
X114005827Y-71880295D01*
X114005827Y-71880295D02*
X114005827Y-71975533D01*
X114005827Y-71975533D02*
X113958208Y-72118390D01*
X113958208Y-72118390D02*
X113386780Y-72689819D01*
X113386780Y-72689819D02*
X114005827Y-72689819D01*
X114862970Y-71689819D02*
X114672494Y-71689819D01*
X114672494Y-71689819D02*
X114577256Y-71737438D01*
X114577256Y-71737438D02*
X114529637Y-71785057D01*
X114529637Y-71785057D02*
X114434399Y-71927914D01*
X114434399Y-71927914D02*
X114386780Y-72118390D01*
X114386780Y-72118390D02*
X114386780Y-72499342D01*
X114386780Y-72499342D02*
X114434399Y-72594580D01*
X114434399Y-72594580D02*
X114482018Y-72642200D01*
X114482018Y-72642200D02*
X114577256Y-72689819D01*
X114577256Y-72689819D02*
X114767732Y-72689819D01*
X114767732Y-72689819D02*
X114862970Y-72642200D01*
X114862970Y-72642200D02*
X114910589Y-72594580D01*
X114910589Y-72594580D02*
X114958208Y-72499342D01*
X114958208Y-72499342D02*
X114958208Y-72261247D01*
X114958208Y-72261247D02*
X114910589Y-72166009D01*
X114910589Y-72166009D02*
X114862970Y-72118390D01*
X114862970Y-72118390D02*
X114767732Y-72070771D01*
X114767732Y-72070771D02*
X114577256Y-72070771D01*
X114577256Y-72070771D02*
X114482018Y-72118390D01*
X114482018Y-72118390D02*
X114434399Y-72166009D01*
X114434399Y-72166009D02*
X114386780Y-72261247D01*
X116148685Y-72308866D02*
X116910590Y-72308866D01*
X118053447Y-72023152D02*
X118291542Y-72689819D01*
X118291542Y-72689819D02*
X118529637Y-72023152D01*
X119434399Y-72689819D02*
X118862971Y-72689819D01*
X119148685Y-72689819D02*
X119148685Y-71689819D01*
X119148685Y-71689819D02*
X119053447Y-71832676D01*
X119053447Y-71832676D02*
X118958209Y-71927914D01*
X118958209Y-71927914D02*
X118862971Y-71975533D01*
X119862971Y-72594580D02*
X119910590Y-72642200D01*
X119910590Y-72642200D02*
X119862971Y-72689819D01*
X119862971Y-72689819D02*
X119815352Y-72642200D01*
X119815352Y-72642200D02*
X119862971Y-72594580D01*
X119862971Y-72594580D02*
X119862971Y-72689819D01*
X120291542Y-71785057D02*
X120339161Y-71737438D01*
X120339161Y-71737438D02*
X120434399Y-71689819D01*
X120434399Y-71689819D02*
X120672494Y-71689819D01*
X120672494Y-71689819D02*
X120767732Y-71737438D01*
X120767732Y-71737438D02*
X120815351Y-71785057D01*
X120815351Y-71785057D02*
X120862970Y-71880295D01*
X120862970Y-71880295D02*
X120862970Y-71975533D01*
X120862970Y-71975533D02*
X120815351Y-72118390D01*
X120815351Y-72118390D02*
X120243923Y-72689819D01*
X120243923Y-72689819D02*
X120862970Y-72689819D01*
X144869819Y-91913220D02*
X143869819Y-91913220D01*
X143869819Y-91913220D02*
X143869819Y-91532268D01*
X143869819Y-91532268D02*
X143917438Y-91437030D01*
X143917438Y-91437030D02*
X143965057Y-91389411D01*
X143965057Y-91389411D02*
X144060295Y-91341792D01*
X144060295Y-91341792D02*
X144203152Y-91341792D01*
X144203152Y-91341792D02*
X144298390Y-91389411D01*
X144298390Y-91389411D02*
X144346009Y-91437030D01*
X144346009Y-91437030D02*
X144393628Y-91532268D01*
X144393628Y-91532268D02*
X144393628Y-91913220D01*
X144869819Y-90913220D02*
X143869819Y-90913220D01*
X143869819Y-90913220D02*
X143869819Y-90675125D01*
X143869819Y-90675125D02*
X143917438Y-90532268D01*
X143917438Y-90532268D02*
X144012676Y-90437030D01*
X144012676Y-90437030D02*
X144107914Y-90389411D01*
X144107914Y-90389411D02*
X144298390Y-90341792D01*
X144298390Y-90341792D02*
X144441247Y-90341792D01*
X144441247Y-90341792D02*
X144631723Y-90389411D01*
X144631723Y-90389411D02*
X144726961Y-90437030D01*
X144726961Y-90437030D02*
X144822200Y-90532268D01*
X144822200Y-90532268D02*
X144869819Y-90675125D01*
X144869819Y-90675125D02*
X144869819Y-90913220D01*
X144869819Y-89151315D02*
X143869819Y-89151315D01*
X143822200Y-87960840D02*
X145107914Y-88817982D01*
X143869819Y-87437030D02*
X143869819Y-87246554D01*
X143869819Y-87246554D02*
X143917438Y-87151316D01*
X143917438Y-87151316D02*
X144012676Y-87056078D01*
X144012676Y-87056078D02*
X144203152Y-87008459D01*
X144203152Y-87008459D02*
X144536485Y-87008459D01*
X144536485Y-87008459D02*
X144726961Y-87056078D01*
X144726961Y-87056078D02*
X144822200Y-87151316D01*
X144822200Y-87151316D02*
X144869819Y-87246554D01*
X144869819Y-87246554D02*
X144869819Y-87437030D01*
X144869819Y-87437030D02*
X144822200Y-87532268D01*
X144822200Y-87532268D02*
X144726961Y-87627506D01*
X144726961Y-87627506D02*
X144536485Y-87675125D01*
X144536485Y-87675125D02*
X144203152Y-87675125D01*
X144203152Y-87675125D02*
X144012676Y-87627506D01*
X144012676Y-87627506D02*
X143917438Y-87532268D01*
X143917438Y-87532268D02*
X143869819Y-87437030D01*
%TO.C,J11*%
D11*
X105710000Y-71265000D02*
X105710000Y-73065000D01*
X104260000Y-71265000D02*
X105710000Y-71265000D01*
X101440000Y-72535000D02*
X101440000Y-80965000D01*
X105710000Y-73065000D02*
X106700000Y-73065000D01*
X105710000Y-82235000D02*
X105710000Y-80435000D01*
X104260000Y-82235000D02*
X105710000Y-82235000D01*
%TO.C,R19*%
X109487258Y-64352500D02*
X109012742Y-64352500D01*
X109487258Y-65397500D02*
X109012742Y-65397500D01*
%TO.C,R17*%
X109487258Y-66852500D02*
X109012742Y-66852500D01*
X109487258Y-67897500D02*
X109012742Y-67897500D01*
%TO.C,R20*%
X112487258Y-64147500D02*
X112012742Y-64147500D01*
X112487258Y-63102500D02*
X112012742Y-63102500D01*
%TO.C,R18*%
X112487258Y-66647500D02*
X112012742Y-66647500D01*
X112487258Y-65602500D02*
X112012742Y-65602500D01*
%TO.C,R15*%
X112437258Y-76647500D02*
X111962742Y-76647500D01*
X112437258Y-75602500D02*
X111962742Y-75602500D01*
%TO.C,R6*%
X109437258Y-77922500D02*
X108962742Y-77922500D01*
X109437258Y-76877500D02*
X108962742Y-76877500D01*
%TO.C,R5*%
X112437258Y-79147500D02*
X111962742Y-79147500D01*
X112437258Y-78102500D02*
X111962742Y-78102500D01*
%TO.C,R1*%
X109487258Y-80397500D02*
X109012742Y-80397500D01*
X109487258Y-79352500D02*
X109012742Y-79352500D01*
%TO.C,U2*%
D12*
X149200003Y-61550002D02*
X149200003Y-63450001D01*
X149200003Y-61550002D02*
X151600001Y-61550002D01*
X149200003Y-63450001D02*
X152300002Y-63450001D01*
X151600001Y-61550002D02*
X152300002Y-62250003D01*
X152300002Y-62250003D02*
X152300002Y-63450001D01*
%TO.C,J2*%
D13*
X121198500Y-94121900D02*
X121198500Y-96227461D01*
X122204410Y-99278100D02*
X144195590Y-99278100D01*
X123067970Y-94121900D02*
X121198500Y-94121900D01*
X145201500Y-94121900D02*
X143332030Y-94121900D01*
X145201500Y-96227461D02*
X145201500Y-94121900D01*
D14*
X120944500Y-93515602D02*
G75*
G02*
X120182500Y-93515602I-381000J0D01*
G01*
X120182500Y-93515602D02*
G75*
G02*
X120944500Y-93515602I381000J0D01*
G01*
%TO.C,J8*%
D11*
X160595000Y-58690000D02*
X161865000Y-58690000D01*
X160595000Y-59960000D02*
X160595000Y-58690000D01*
X162942358Y-62070000D02*
X163255000Y-62070000D01*
X162942358Y-62930000D02*
X163255000Y-62930000D01*
X162942358Y-64610000D02*
X163255000Y-64610000D01*
X162942358Y-65470000D02*
X163255000Y-65470000D01*
X163025000Y-59530000D02*
X163255000Y-59530000D01*
X163025000Y-60390000D02*
X163255000Y-60390000D01*
X163255000Y-61230000D02*
X166015000Y-61230000D01*
X163255000Y-63770000D02*
X166015000Y-63770000D01*
X166015000Y-62070000D02*
X172015000Y-62070000D01*
X166015000Y-64610000D02*
X172015000Y-64610000D01*
X172015000Y-62070000D02*
X172015000Y-62930000D01*
X172015000Y-62930000D02*
X166015000Y-62930000D01*
X172015000Y-64610000D02*
X172015000Y-65470000D01*
X172015000Y-65470000D02*
X166015000Y-65470000D01*
X163255000Y-58580000D02*
X166015000Y-58580000D01*
X166015000Y-66420000D01*
X163255000Y-66420000D01*
X163255000Y-58580000D01*
X166015000Y-59530000D02*
X172015000Y-59530000D01*
X172015000Y-60390000D01*
X166015000Y-60390000D01*
X166015000Y-59530000D01*
G36*
X166015000Y-59530000D02*
G01*
X172015000Y-59530000D01*
X172015000Y-60390000D01*
X166015000Y-60390000D01*
X166015000Y-59530000D01*
G37*
%TO.C,R64*%
X153995276Y-65727500D02*
X154504724Y-65727500D01*
X153995276Y-66772500D02*
X154504724Y-66772500D01*
%TO.C,R11*%
X114740276Y-59322500D02*
X115249724Y-59322500D01*
X114740276Y-58277500D02*
X115249724Y-58277500D01*
%TO.C,R54*%
X130177500Y-85695276D02*
X130177500Y-86204724D01*
X131222500Y-85695276D02*
X131222500Y-86204724D01*
%TO.C,JP1*%
X156700000Y-89400000D02*
X158700000Y-89400000D01*
X156700000Y-92200000D02*
X156700000Y-89400000D01*
X158700000Y-89400000D02*
X158700000Y-92200000D01*
X158700000Y-92200000D02*
X156700000Y-92200000D01*
%TO.C,R4*%
X148877500Y-79045276D02*
X148877500Y-79554724D01*
X149922500Y-79045276D02*
X149922500Y-79554724D01*
%TO.C,R36*%
X117227500Y-53245276D02*
X117227500Y-53754724D01*
X118272500Y-53245276D02*
X118272500Y-53754724D01*
%TO.C,U7*%
X135890000Y-61440000D02*
X143610000Y-61440000D01*
X135890000Y-61685000D02*
X135890000Y-61440000D01*
X135890000Y-79560000D02*
X135890000Y-79315000D01*
X143610000Y-61440000D02*
X143610000Y-61685000D01*
X143610000Y-79315000D02*
X143610000Y-79560000D01*
X143610000Y-79560000D02*
X135890000Y-79560000D01*
X144400000Y-79320000D02*
X144740000Y-79790000D01*
X144060000Y-79790000D01*
X144400000Y-79320000D01*
G36*
X144740000Y-79790000D02*
G01*
X144060000Y-79790000D01*
X144400000Y-79320000D01*
X144740000Y-79790000D01*
G37*
%TO.C,R35*%
X119227500Y-54245276D02*
X119227500Y-54754724D01*
X120272500Y-54245276D02*
X120272500Y-54754724D01*
%TO.C,J10*%
X101130000Y-85630000D02*
X102460000Y-85630000D01*
X101130000Y-86960000D02*
X101130000Y-85630000D01*
X101130000Y-88230000D02*
X103730000Y-88230000D01*
X101130000Y-90830000D02*
X101130000Y-88230000D01*
X101130000Y-90830000D02*
X116490000Y-90830000D01*
X103730000Y-85630000D02*
X116490000Y-85630000D01*
X103730000Y-88230000D02*
X103730000Y-85630000D01*
X116490000Y-90830000D02*
X116490000Y-85630000D01*
%TO.C,U1*%
D15*
X150750000Y-78122500D02*
X150750000Y-85102500D01*
X161150000Y-78122500D02*
X161150000Y-85102500D01*
D12*
X160600000Y-74862500D02*
G75*
G02*
X160400000Y-74862500I-100000J0D01*
G01*
X160400000Y-74862500D02*
G75*
G02*
X160600000Y-74862500I100000J0D01*
G01*
%TO.C,D3*%
D11*
X120460000Y-59535000D02*
X120460000Y-58065000D01*
X120460000Y-58065000D02*
X118000000Y-58065000D01*
X118000000Y-59535000D02*
X120460000Y-59535000D01*
%TO.C,D37*%
X156265000Y-69227500D02*
X156265000Y-71512500D01*
X157735000Y-69227500D02*
X156265000Y-69227500D01*
X157735000Y-71512500D02*
X157735000Y-69227500D01*
%TO.C,D10*%
X110015000Y-92950000D02*
X110015000Y-95235000D01*
X110015000Y-95235000D02*
X111485000Y-95235000D01*
X111485000Y-95235000D02*
X111485000Y-92950000D01*
%TO.C,D36*%
X154265000Y-69227500D02*
X154265000Y-71512500D01*
X155735000Y-69227500D02*
X154265000Y-69227500D01*
X155735000Y-71512500D02*
X155735000Y-69227500D01*
%TO.C,R59*%
X125177500Y-89695276D02*
X125177500Y-90204724D01*
X126222500Y-89695276D02*
X126222500Y-90204724D01*
%TO.C,C45*%
X145591233Y-53290000D02*
X145883767Y-53290000D01*
X145591233Y-54310000D02*
X145883767Y-54310000D01*
%TO.C,R42*%
X142177500Y-85782776D02*
X142177500Y-86292224D01*
X143222500Y-85782776D02*
X143222500Y-86292224D01*
%TO.C,C5*%
X153240000Y-63646267D02*
X153240000Y-63353733D01*
X154260000Y-63646267D02*
X154260000Y-63353733D01*
%TO.C,R47*%
X137177500Y-89695276D02*
X137177500Y-90204724D01*
X138222500Y-89695276D02*
X138222500Y-90204724D01*
%TO.C,R46*%
X138177500Y-85695276D02*
X138177500Y-86204724D01*
X139222500Y-85695276D02*
X139222500Y-86204724D01*
%TO.C,C33*%
X108540000Y-60296267D02*
X108540000Y-60003733D01*
X109560000Y-60296267D02*
X109560000Y-60003733D01*
%TO.C,R63*%
X153995276Y-67477500D02*
X154504724Y-67477500D01*
X153995276Y-68522500D02*
X154504724Y-68522500D01*
%TO.C,J4*%
X152550000Y-92540000D02*
X152800000Y-93040000D01*
X152800000Y-93040000D02*
X153050000Y-92540000D01*
X153050000Y-92540000D02*
X152550000Y-92540000D01*
%TO.C,R66*%
X155227500Y-62745276D02*
X155227500Y-63254724D01*
X156272500Y-62745276D02*
X156272500Y-63254724D01*
%TO.C,R7*%
X152727500Y-70917224D02*
X152727500Y-70407776D01*
X153772500Y-70917224D02*
X153772500Y-70407776D01*
%TO.C,R45*%
X139177500Y-89695276D02*
X139177500Y-90204724D01*
X140222500Y-89695276D02*
X140222500Y-90204724D01*
%TO.C,C6*%
X146990000Y-67353733D02*
X146990000Y-67646267D01*
X148010000Y-67353733D02*
X148010000Y-67646267D01*
%TO.C,R56*%
X128177500Y-85695276D02*
X128177500Y-86204724D01*
X129222500Y-85695276D02*
X129222500Y-86204724D01*
%TO.C,C30*%
X108240000Y-93746267D02*
X108240000Y-93453733D01*
X109260000Y-93746267D02*
X109260000Y-93453733D01*
%TO.C,R14*%
X131054724Y-71077500D02*
X130545276Y-71077500D01*
X131054724Y-72122500D02*
X130545276Y-72122500D01*
%TO.C,J3*%
X101090000Y-52130000D02*
X102420000Y-52130000D01*
X101090000Y-53460000D02*
X101090000Y-52130000D01*
X101090000Y-54730000D02*
X103690000Y-54730000D01*
X101090000Y-57330000D02*
X101090000Y-54730000D01*
X101090000Y-57330000D02*
X116450000Y-57330000D01*
X103690000Y-52130000D02*
X116450000Y-52130000D01*
X103690000Y-54730000D02*
X103690000Y-52130000D01*
X116450000Y-57330000D02*
X116450000Y-52130000D01*
%TO.C,R51*%
X133177500Y-89695276D02*
X133177500Y-90204724D01*
X134222500Y-89695276D02*
X134222500Y-90204724D01*
%TO.C,R60*%
X124177500Y-85695276D02*
X124177500Y-86204724D01*
X125222500Y-85695276D02*
X125222500Y-86204724D01*
%TO.C,R13*%
X131495276Y-63727500D02*
X132004724Y-63727500D01*
X131495276Y-64772500D02*
X132004724Y-64772500D01*
%TO.C,R3*%
X154832776Y-73277500D02*
X155342224Y-73277500D01*
X154832776Y-74322500D02*
X155342224Y-74322500D01*
%TO.C,J5*%
X159715000Y-67890000D02*
X159715000Y-68940000D01*
X159715000Y-73060000D02*
X158725000Y-73060000D01*
X159715000Y-74110000D02*
X159715000Y-73060000D01*
X162215000Y-67890000D02*
X159715000Y-67890000D01*
X162215000Y-74110000D02*
X159715000Y-74110000D01*
X164185000Y-72940000D02*
X164185000Y-69060000D01*
%TO.C,R8*%
X150977500Y-68417224D02*
X150977500Y-67907776D01*
X152022500Y-68417224D02*
X152022500Y-67907776D01*
%TO.C,D47*%
X156802500Y-63015000D02*
X156802500Y-64485000D01*
X156802500Y-64485000D02*
X159087500Y-64485000D01*
X159087500Y-63015000D02*
X156802500Y-63015000D01*
%TO.C,C2*%
X151396267Y-73390000D02*
X151103733Y-73390000D01*
X151396267Y-74410000D02*
X151103733Y-74410000D01*
%TO.C,J9*%
X148510000Y-52130000D02*
X149840000Y-52130000D01*
X148510000Y-53460000D02*
X148510000Y-52130000D01*
X148510000Y-54730000D02*
X151110000Y-54730000D01*
X148510000Y-57330000D02*
X148510000Y-54730000D01*
X148510000Y-57330000D02*
X163870000Y-57330000D01*
X151110000Y-52130000D02*
X163870000Y-52130000D01*
X151110000Y-54730000D02*
X151110000Y-52130000D01*
X163870000Y-57330000D02*
X163870000Y-52130000D01*
%TO.C,D38*%
X156265000Y-66200000D02*
X156265000Y-68485000D01*
X156265000Y-68485000D02*
X157735000Y-68485000D01*
X157735000Y-68485000D02*
X157735000Y-66200000D01*
%TO.C,R49*%
X135177500Y-89782776D02*
X135177500Y-90292224D01*
X136222500Y-89782776D02*
X136222500Y-90292224D01*
%TO.C,D4*%
X100740000Y-83465000D02*
X100740000Y-84935000D01*
X100740000Y-84935000D02*
X103200000Y-84935000D01*
X103200000Y-83465000D02*
X100740000Y-83465000D01*
%TO.C,D2*%
X140340000Y-58665000D02*
X140340000Y-60135000D01*
X140340000Y-60135000D02*
X142800000Y-60135000D01*
X142800000Y-58665000D02*
X140340000Y-58665000D01*
%TO.C,J6*%
X112140000Y-94815000D02*
X113190000Y-94815000D01*
X112140000Y-97315000D02*
X112140000Y-94815000D01*
X113190000Y-94815000D02*
X113190000Y-93825000D01*
X113310000Y-99285000D02*
X117190000Y-99285000D01*
X118360000Y-94815000D02*
X117310000Y-94815000D01*
X118360000Y-97315000D02*
X118360000Y-94815000D01*
%TO.C,R44*%
X140177500Y-85695276D02*
X140177500Y-86204724D01*
X141222500Y-85695276D02*
X141222500Y-86204724D01*
%TO.C,R48*%
X136177500Y-85695276D02*
X136177500Y-86204724D01*
X137222500Y-85695276D02*
X137222500Y-86204724D01*
%TO.C,R12*%
X106454724Y-83677500D02*
X105945276Y-83677500D01*
X106454724Y-84722500D02*
X105945276Y-84722500D01*
%TO.C,D7*%
X125340000Y-72665000D02*
X125340000Y-74135000D01*
X125340000Y-74135000D02*
X127800000Y-74135000D01*
X127800000Y-72665000D02*
X125340000Y-72665000D01*
%TO.C,R2*%
X148677500Y-85767224D02*
X148677500Y-85257776D01*
X149722500Y-85767224D02*
X149722500Y-85257776D01*
%TO.C,C32*%
X117896267Y-91740000D02*
X117603733Y-91740000D01*
X117896267Y-92760000D02*
X117603733Y-92760000D01*
%TO.C,R52*%
X132177500Y-85695276D02*
X132177500Y-86204724D01*
X133222500Y-85695276D02*
X133222500Y-86204724D01*
%TO.C,R50*%
X134177500Y-85695276D02*
X134177500Y-86204724D01*
X135222500Y-85695276D02*
X135222500Y-86204724D01*
%TO.C,D48*%
X157450000Y-62485000D02*
X159735000Y-62485000D01*
X159735000Y-61015000D02*
X157450000Y-61015000D01*
X159735000Y-62485000D02*
X159735000Y-61015000D01*
%TO.C,R58*%
X126177500Y-85695276D02*
X126177500Y-86204724D01*
X127222500Y-85695276D02*
X127222500Y-86204724D01*
%TO.C,C31*%
X117265000Y-86361252D02*
X117265000Y-85838748D01*
X118735000Y-86361252D02*
X118735000Y-85838748D01*
%TO.C,R43*%
X141177500Y-89782776D02*
X141177500Y-90292224D01*
X142222500Y-89782776D02*
X142222500Y-90292224D01*
%TO.C,R16*%
X131054724Y-72877500D02*
X130545276Y-72877500D01*
X131054724Y-73922500D02*
X130545276Y-73922500D01*
%TO.C,R61*%
X123177500Y-89607776D02*
X123177500Y-90117224D01*
X124222500Y-89607776D02*
X124222500Y-90117224D01*
%TO.C,C34*%
X112135000Y-59888748D02*
X112135000Y-60411252D01*
X110665000Y-59888748D02*
X110665000Y-60411252D01*
%TO.C,R65*%
X157995276Y-59227500D02*
X158504724Y-59227500D01*
X157995276Y-60272500D02*
X158504724Y-60272500D01*
%TO.C,C46*%
X145998752Y-54865000D02*
X145476248Y-54865000D01*
X145998752Y-56335000D02*
X145476248Y-56335000D01*
%TO.C,R55*%
X129177500Y-89695276D02*
X129177500Y-90204724D01*
X130222500Y-89695276D02*
X130222500Y-90204724D01*
%TO.C,C3*%
X152440000Y-90892164D02*
X152440000Y-91107836D01*
X153160000Y-90892164D02*
X153160000Y-91107836D01*
%TO.C,D6*%
X125340000Y-70865000D02*
X125340000Y-72335000D01*
X125340000Y-72335000D02*
X127800000Y-72335000D01*
X127800000Y-70865000D02*
X125340000Y-70865000D01*
%TO.C,R9*%
X132004724Y-65477500D02*
X131495276Y-65477500D01*
X132004724Y-66522500D02*
X131495276Y-66522500D01*
%TO.C,R57*%
X127177500Y-89695276D02*
X127177500Y-90204724D01*
X128222500Y-89695276D02*
X128222500Y-90204724D01*
%TO.C,R53*%
X131177500Y-89695276D02*
X131177500Y-90204724D01*
X132222500Y-89695276D02*
X132222500Y-90204724D01*
%TO.C,R10*%
X146059724Y-58877500D02*
X145550276Y-58877500D01*
X146059724Y-59922500D02*
X145550276Y-59922500D01*
%TO.C,J7*%
X105710000Y-58765000D02*
X105710000Y-60565000D01*
X104260000Y-58765000D02*
X105710000Y-58765000D01*
X101440000Y-60035000D02*
X101440000Y-68465000D01*
X105710000Y-60565000D02*
X106700000Y-60565000D01*
X105710000Y-69735000D02*
X105710000Y-67935000D01*
X104260000Y-69735000D02*
X105710000Y-69735000D01*
%TD*%
M02*
