%TF.GenerationSoftware,KiCad,Pcbnew,10.0.3*%
%TF.CreationDate,2026-06-17T11:06:04-04:00*%
%TF.ProjectId,interface_db_hat,696e7465-7266-4616-9365-5f64625f6861,rev?*%
%TF.SameCoordinates,Original*%
%TF.FileFunction,Paste,Top*%
%TF.FilePolarity,Positive*%
%FSLAX46Y46*%
G04 Gerber Fmt 4.6, Leading zero omitted, Abs format (unit mm)*
G04 Created by KiCad (PCBNEW 10.0.3) date 2026-06-17 11:06:04*
%MOMM*%
%LPD*%
G01*
G04 APERTURE LIST*
G04 Aperture macros list*
%AMRoundRect*
0 Rectangle with rounded corners*
0 $1 Rounding radius*
0 $2 $3 $4 $5 $6 $7 $8 $9 X,Y pos of 4 corners*
0 Add a 4 corners polygon primitive as box body*
4,1,4,$2,$3,$4,$5,$6,$7,$8,$9,$2,$3,0*
0 Add four circle primitives for the rounded corners*
1,1,$1+$1,$2,$3*
1,1,$1+$1,$4,$5*
1,1,$1+$1,$6,$7*
1,1,$1+$1,$8,$9*
0 Add four rect primitives between the rounded corners*
20,1,$1+$1,$2,$3,$4,$5,0*
20,1,$1+$1,$4,$5,$6,$7,0*
20,1,$1+$1,$6,$7,$8,$9,0*
20,1,$1+$1,$8,$9,$2,$3,0*%
G04 Aperture macros list end*
%ADD10C,0.010000*%
%ADD11O,0.449999X1.699999*%
%ADD12R,0.609600X1.092200*%
%ADD13R,1.193800X2.590800*%
%ADD14RoundRect,0.237500X-0.250000X-0.237500X0.250000X-0.237500X0.250000X0.237500X-0.250000X0.237500X0*%
%ADD15RoundRect,0.200000X0.200000X0.275000X-0.200000X0.275000X-0.200000X-0.275000X0.200000X-0.275000X0*%
%ADD16RoundRect,0.237500X-0.237500X0.250000X-0.237500X-0.250000X0.237500X-0.250000X0.237500X0.250000X0*%
%ADD17RoundRect,0.150000X0.875000X0.150000X-0.875000X0.150000X-0.875000X-0.150000X0.875000X-0.150000X0*%
%ADD18RoundRect,0.237500X0.287500X0.237500X-0.287500X0.237500X-0.287500X-0.237500X0.287500X-0.237500X0*%
%ADD19RoundRect,0.218750X-0.256250X0.218750X-0.256250X-0.218750X0.256250X-0.218750X0.256250X0.218750X0*%
%ADD20RoundRect,0.218750X0.256250X-0.218750X0.256250X0.218750X-0.256250X0.218750X-0.256250X-0.218750X0*%
%ADD21RoundRect,0.150000X-0.700000X0.150000X-0.700000X-0.150000X0.700000X-0.150000X0.700000X0.150000X0*%
%ADD22RoundRect,0.250000X-1.100000X0.250000X-1.100000X-0.250000X1.100000X-0.250000X1.100000X0.250000X0*%
%ADD23RoundRect,0.237500X-0.300000X-0.237500X0.300000X-0.237500X0.300000X0.237500X-0.300000X0.237500X0*%
%ADD24RoundRect,0.237500X0.237500X-0.300000X0.237500X0.300000X-0.237500X0.300000X-0.237500X-0.300000X0*%
%ADD25R,1.500000X5.080000*%
%ADD26RoundRect,0.237500X0.237500X-0.250000X0.237500X0.250000X-0.237500X0.250000X-0.237500X-0.250000X0*%
%ADD27RoundRect,0.237500X-0.237500X0.300000X-0.237500X-0.300000X0.237500X-0.300000X0.237500X0.300000X0*%
%ADD28RoundRect,0.237500X0.250000X0.237500X-0.250000X0.237500X-0.250000X-0.237500X0.250000X-0.237500X0*%
%ADD29RoundRect,0.150000X0.625000X-0.150000X0.625000X0.150000X-0.625000X0.150000X-0.625000X-0.150000X0*%
%ADD30RoundRect,0.250000X0.650000X-0.350000X0.650000X0.350000X-0.650000X0.350000X-0.650000X-0.350000X0*%
%ADD31RoundRect,0.218750X-0.218750X-0.256250X0.218750X-0.256250X0.218750X0.256250X-0.218750X0.256250X0*%
%ADD32RoundRect,0.237500X0.300000X0.237500X-0.300000X0.237500X-0.300000X-0.237500X0.300000X-0.237500X0*%
%ADD33RoundRect,0.237500X-0.287500X-0.237500X0.287500X-0.237500X0.287500X0.237500X-0.287500X0.237500X0*%
%ADD34RoundRect,0.150000X-0.150000X-0.625000X0.150000X-0.625000X0.150000X0.625000X-0.150000X0.625000X0*%
%ADD35RoundRect,0.250000X-0.350000X-0.650000X0.350000X-0.650000X0.350000X0.650000X-0.350000X0.650000X0*%
%ADD36RoundRect,0.147500X-0.147500X-0.172500X0.147500X-0.172500X0.147500X0.172500X-0.147500X0.172500X0*%
%ADD37RoundRect,0.218750X0.218750X0.256250X-0.218750X0.256250X-0.218750X-0.256250X0.218750X-0.256250X0*%
%ADD38RoundRect,0.250000X0.475000X-0.250000X0.475000X0.250000X-0.475000X0.250000X-0.475000X-0.250000X0*%
%ADD39RoundRect,0.250000X-0.475000X0.250000X-0.475000X-0.250000X0.475000X-0.250000X0.475000X0.250000X0*%
%ADD40RoundRect,0.250000X0.250000X0.475000X-0.250000X0.475000X-0.250000X-0.475000X0.250000X-0.475000X0*%
%ADD41RoundRect,0.140000X-0.170000X0.140000X-0.170000X-0.140000X0.170000X-0.140000X0.170000X0.140000X0*%
G04 APERTURE END LIST*
D10*
%TO.C,U1*%
X152050000Y-75362500D02*
X151350000Y-75362500D01*
X151350000Y-76762500D01*
X151450000Y-76762500D01*
X151450000Y-77662500D01*
X151950000Y-77662500D01*
X151950000Y-76762500D01*
X152050000Y-76762500D01*
X152050000Y-75362500D01*
G36*
X152050000Y-76762500D02*
G01*
X151950000Y-76762500D01*
X151950000Y-77662500D01*
X151450000Y-77662500D01*
X151450000Y-76762500D01*
X151350000Y-76762500D01*
X151350000Y-75362500D01*
X152050000Y-75362500D01*
X152050000Y-76762500D01*
G37*
X152050000Y-87862500D02*
X151350000Y-87862500D01*
X151350000Y-86462500D01*
X151450000Y-86462500D01*
X151450000Y-85562500D01*
X151950000Y-85562500D01*
X151950000Y-86462500D01*
X152050000Y-86462500D01*
X152050000Y-87862500D01*
G36*
X151950000Y-86462500D02*
G01*
X152050000Y-86462500D01*
X152050000Y-87862500D01*
X151350000Y-87862500D01*
X151350000Y-86462500D01*
X151450000Y-86462500D01*
X151450000Y-85562500D01*
X151950000Y-85562500D01*
X151950000Y-86462500D01*
G37*
X153200000Y-75362500D02*
X152400000Y-75362500D01*
X152400000Y-76762500D01*
X152500000Y-76762500D01*
X152500000Y-77662500D01*
X153100000Y-77662500D01*
X153100000Y-76762500D01*
X153200000Y-76762500D01*
X153200000Y-75362500D01*
G36*
X153200000Y-76762500D02*
G01*
X153100000Y-76762500D01*
X153100000Y-77662500D01*
X152500000Y-77662500D01*
X152500000Y-76762500D01*
X152400000Y-76762500D01*
X152400000Y-75362500D01*
X153200000Y-75362500D01*
X153200000Y-76762500D01*
G37*
X153200000Y-87862500D02*
X152400000Y-87862500D01*
X152400000Y-86462500D01*
X152500000Y-86462500D01*
X152500000Y-85562500D01*
X153100000Y-85562500D01*
X153100000Y-86462500D01*
X153200000Y-86462500D01*
X153200000Y-87862500D01*
G36*
X153100000Y-86462500D02*
G01*
X153200000Y-86462500D01*
X153200000Y-87862500D01*
X152400000Y-87862500D01*
X152400000Y-86462500D01*
X152500000Y-86462500D01*
X152500000Y-85562500D01*
X153100000Y-85562500D01*
X153100000Y-86462500D01*
G37*
X154300000Y-75362500D02*
X153500000Y-75362500D01*
X153500000Y-76762500D01*
X153600000Y-76762500D01*
X153600000Y-77662500D01*
X154200000Y-77662500D01*
X154200000Y-76762500D01*
X154300000Y-76762500D01*
X154300000Y-75362500D01*
G36*
X154300000Y-76762500D02*
G01*
X154200000Y-76762500D01*
X154200000Y-77662500D01*
X153600000Y-77662500D01*
X153600000Y-76762500D01*
X153500000Y-76762500D01*
X153500000Y-75362500D01*
X154300000Y-75362500D01*
X154300000Y-76762500D01*
G37*
X154300000Y-87862500D02*
X153500000Y-87862500D01*
X153500000Y-86462500D01*
X153600000Y-86462500D01*
X153600000Y-85562500D01*
X154200000Y-85562500D01*
X154200000Y-86462500D01*
X154300000Y-86462500D01*
X154300000Y-87862500D01*
G36*
X154200000Y-86462500D02*
G01*
X154300000Y-86462500D01*
X154300000Y-87862500D01*
X153500000Y-87862500D01*
X153500000Y-86462500D01*
X153600000Y-86462500D01*
X153600000Y-85562500D01*
X154200000Y-85562500D01*
X154200000Y-86462500D01*
G37*
X155400000Y-75362500D02*
X154600000Y-75362500D01*
X154600000Y-76762500D01*
X154700000Y-76762500D01*
X154700000Y-77662500D01*
X155300000Y-77662500D01*
X155300000Y-76762500D01*
X155400000Y-76762500D01*
X155400000Y-75362500D01*
G36*
X155400000Y-76762500D02*
G01*
X155300000Y-76762500D01*
X155300000Y-77662500D01*
X154700000Y-77662500D01*
X154700000Y-76762500D01*
X154600000Y-76762500D01*
X154600000Y-75362500D01*
X155400000Y-75362500D01*
X155400000Y-76762500D01*
G37*
X155400000Y-87862500D02*
X154600000Y-87862500D01*
X154600000Y-86462500D01*
X154700000Y-86462500D01*
X154700000Y-85562500D01*
X155300000Y-85562500D01*
X155300000Y-86462500D01*
X155400000Y-86462500D01*
X155400000Y-87862500D01*
G36*
X155300000Y-86462500D02*
G01*
X155400000Y-86462500D01*
X155400000Y-87862500D01*
X154600000Y-87862500D01*
X154600000Y-86462500D01*
X154700000Y-86462500D01*
X154700000Y-85562500D01*
X155300000Y-85562500D01*
X155300000Y-86462500D01*
G37*
X156500000Y-75362500D02*
X155700000Y-75362500D01*
X155700000Y-76762500D01*
X155800000Y-76762500D01*
X155800000Y-77662500D01*
X156400000Y-77662500D01*
X156400000Y-76762500D01*
X156500000Y-76762500D01*
X156500000Y-75362500D01*
G36*
X156500000Y-76762500D02*
G01*
X156400000Y-76762500D01*
X156400000Y-77662500D01*
X155800000Y-77662500D01*
X155800000Y-76762500D01*
X155700000Y-76762500D01*
X155700000Y-75362500D01*
X156500000Y-75362500D01*
X156500000Y-76762500D01*
G37*
X156500000Y-87862500D02*
X155700000Y-87862500D01*
X155700000Y-86462500D01*
X155800000Y-86462500D01*
X155800000Y-85562500D01*
X156400000Y-85562500D01*
X156400000Y-86462500D01*
X156500000Y-86462500D01*
X156500000Y-87862500D01*
G36*
X156400000Y-86462500D02*
G01*
X156500000Y-86462500D01*
X156500000Y-87862500D01*
X155700000Y-87862500D01*
X155700000Y-86462500D01*
X155800000Y-86462500D01*
X155800000Y-85562500D01*
X156400000Y-85562500D01*
X156400000Y-86462500D01*
G37*
X157600000Y-75362500D02*
X156800000Y-75362500D01*
X156800000Y-76762500D01*
X156900000Y-76762500D01*
X156900000Y-77662500D01*
X157500000Y-77662500D01*
X157500000Y-76762500D01*
X157600000Y-76762500D01*
X157600000Y-75362500D01*
G36*
X157600000Y-76762500D02*
G01*
X157500000Y-76762500D01*
X157500000Y-77662500D01*
X156900000Y-77662500D01*
X156900000Y-76762500D01*
X156800000Y-76762500D01*
X156800000Y-75362500D01*
X157600000Y-75362500D01*
X157600000Y-76762500D01*
G37*
X157600000Y-87862500D02*
X156800000Y-87862500D01*
X156800000Y-86462500D01*
X156900000Y-86462500D01*
X156900000Y-85562500D01*
X157500000Y-85562500D01*
X157500000Y-86462500D01*
X157600000Y-86462500D01*
X157600000Y-87862500D01*
G36*
X157500000Y-86462500D02*
G01*
X157600000Y-86462500D01*
X157600000Y-87862500D01*
X156800000Y-87862500D01*
X156800000Y-86462500D01*
X156900000Y-86462500D01*
X156900000Y-85562500D01*
X157500000Y-85562500D01*
X157500000Y-86462500D01*
G37*
X158700000Y-75362500D02*
X157900000Y-75362500D01*
X157900000Y-76762500D01*
X158000000Y-76762500D01*
X158000000Y-77662500D01*
X158600000Y-77662500D01*
X158600000Y-76762500D01*
X158700000Y-76762500D01*
X158700000Y-75362500D01*
G36*
X158700000Y-76762500D02*
G01*
X158600000Y-76762500D01*
X158600000Y-77662500D01*
X158000000Y-77662500D01*
X158000000Y-76762500D01*
X157900000Y-76762500D01*
X157900000Y-75362500D01*
X158700000Y-75362500D01*
X158700000Y-76762500D01*
G37*
X158700000Y-87862500D02*
X157900000Y-87862500D01*
X157900000Y-86462500D01*
X158000000Y-86462500D01*
X158000000Y-85562500D01*
X158600000Y-85562500D01*
X158600000Y-86462500D01*
X158700000Y-86462500D01*
X158700000Y-87862500D01*
G36*
X158600000Y-86462500D02*
G01*
X158700000Y-86462500D01*
X158700000Y-87862500D01*
X157900000Y-87862500D01*
X157900000Y-86462500D01*
X158000000Y-86462500D01*
X158000000Y-85562500D01*
X158600000Y-85562500D01*
X158600000Y-86462500D01*
G37*
X159800000Y-75362500D02*
X159000000Y-75362500D01*
X159000000Y-76762500D01*
X159100000Y-76762500D01*
X159100000Y-77662500D01*
X159700000Y-77662500D01*
X159700000Y-76762500D01*
X159800000Y-76762500D01*
X159800000Y-75362500D01*
G36*
X159800000Y-76762500D02*
G01*
X159700000Y-76762500D01*
X159700000Y-77662500D01*
X159100000Y-77662500D01*
X159100000Y-76762500D01*
X159000000Y-76762500D01*
X159000000Y-75362500D01*
X159800000Y-75362500D01*
X159800000Y-76762500D01*
G37*
X159800000Y-87862500D02*
X159000000Y-87862500D01*
X159000000Y-86462500D01*
X159100000Y-86462500D01*
X159100000Y-85562500D01*
X159700000Y-85562500D01*
X159700000Y-86462500D01*
X159800000Y-86462500D01*
X159800000Y-87862500D01*
G36*
X159700000Y-86462500D02*
G01*
X159800000Y-86462500D01*
X159800000Y-87862500D01*
X159000000Y-87862500D01*
X159000000Y-86462500D01*
X159100000Y-86462500D01*
X159100000Y-85562500D01*
X159700000Y-85562500D01*
X159700000Y-86462500D01*
G37*
X160850000Y-75362500D02*
X160150000Y-75362500D01*
X160150000Y-76762500D01*
X160250000Y-76762500D01*
X160250000Y-77662500D01*
X160750000Y-77662500D01*
X160750000Y-76762500D01*
X160850000Y-76762500D01*
X160850000Y-75362500D01*
G36*
X160850000Y-76762500D02*
G01*
X160750000Y-76762500D01*
X160750000Y-77662500D01*
X160250000Y-77662500D01*
X160250000Y-76762500D01*
X160150000Y-76762500D01*
X160150000Y-75362500D01*
X160850000Y-75362500D01*
X160850000Y-76762500D01*
G37*
X160850000Y-87862500D02*
X160150000Y-87862500D01*
X160150000Y-86462500D01*
X160250000Y-86462500D01*
X160250000Y-85562500D01*
X160750000Y-85562500D01*
X160750000Y-86462500D01*
X160850000Y-86462500D01*
X160850000Y-87862500D01*
G36*
X160750000Y-86462500D02*
G01*
X160850000Y-86462500D01*
X160850000Y-87862500D01*
X160150000Y-87862500D01*
X160150000Y-86462500D01*
X160250000Y-86462500D01*
X160250000Y-85562500D01*
X160750000Y-85562500D01*
X160750000Y-86462500D01*
G37*
%TD*%
D11*
%TO.C,U2*%
X151725002Y-60400002D03*
X151075001Y-60400002D03*
X150425002Y-60400002D03*
X149775001Y-60400002D03*
X149775001Y-64600001D03*
X150425002Y-64600001D03*
X151075001Y-64600001D03*
X151725002Y-64600001D03*
%TD*%
D12*
%TO.C,J2*%
X123700019Y-93515602D03*
X124700017Y-93515602D03*
X125700015Y-93515602D03*
X126700013Y-93515602D03*
X127700011Y-93515602D03*
X128700009Y-93515602D03*
X129700007Y-93515602D03*
X130700005Y-93515602D03*
X131700003Y-93515602D03*
X132700001Y-93515602D03*
X133699999Y-93515602D03*
X134699997Y-93515602D03*
X135699995Y-93515602D03*
X136699993Y-93515602D03*
X137699991Y-93515602D03*
X138699989Y-93515602D03*
X139699987Y-93515602D03*
X140699985Y-93515602D03*
X141699983Y-93515602D03*
X142699981Y-93515602D03*
D13*
X121300001Y-97855601D03*
X145099999Y-97855601D03*
%TD*%
D14*
%TO.C,R64*%
X153337500Y-66250000D03*
X155162500Y-66250000D03*
%TD*%
%TO.C,R11*%
X114082500Y-58800000D03*
X115907500Y-58800000D03*
%TD*%
D15*
%TO.C,R19*%
X110075000Y-64875000D03*
X108425000Y-64875000D03*
%TD*%
D16*
%TO.C,R54*%
X130700000Y-85037500D03*
X130700000Y-86862500D03*
%TD*%
%TO.C,R4*%
X149400000Y-78387500D03*
X149400000Y-80212500D03*
%TD*%
%TO.C,R36*%
X117750000Y-52587500D03*
X117750000Y-54412500D03*
%TD*%
D15*
%TO.C,R20*%
X113075000Y-63625000D03*
X111425000Y-63625000D03*
%TD*%
D17*
%TO.C,U7*%
X144400000Y-78755000D03*
X144400000Y-77485000D03*
X144400000Y-76215000D03*
X144400000Y-74945000D03*
X144400000Y-73675000D03*
X144400000Y-72405000D03*
X144400000Y-71135000D03*
X144400000Y-69865000D03*
X144400000Y-68595000D03*
X144400000Y-67325000D03*
X144400000Y-66055000D03*
X144400000Y-64785000D03*
X144400000Y-63515000D03*
X144400000Y-62245000D03*
X135100000Y-62245000D03*
X135100000Y-63515000D03*
X135100000Y-64785000D03*
X135100000Y-66055000D03*
X135100000Y-67325000D03*
X135100000Y-68595000D03*
X135100000Y-69865000D03*
X135100000Y-71135000D03*
X135100000Y-72405000D03*
X135100000Y-73675000D03*
X135100000Y-74945000D03*
X135100000Y-76215000D03*
X135100000Y-77485000D03*
X135100000Y-78755000D03*
%TD*%
D16*
%TO.C,R35*%
X119750000Y-53587500D03*
X119750000Y-55412500D03*
%TD*%
D18*
%TO.C,D3*%
X119675000Y-58800000D03*
X117925000Y-58800000D03*
%TD*%
D19*
%TO.C,D37*%
X157000000Y-69925000D03*
X157000000Y-71500000D03*
%TD*%
D20*
%TO.C,D10*%
X110750000Y-94537500D03*
X110750000Y-92962500D03*
%TD*%
D19*
%TO.C,D36*%
X155000000Y-69925000D03*
X155000000Y-71500000D03*
%TD*%
D21*
%TO.C,J11*%
X105850000Y-73625000D03*
X105850000Y-74875000D03*
X105850000Y-76125000D03*
X105850000Y-77375000D03*
X105850000Y-78625000D03*
X105850000Y-79875000D03*
D22*
X102650000Y-71775000D03*
X102650000Y-81725000D03*
%TD*%
D16*
%TO.C,R59*%
X125700000Y-89037500D03*
X125700000Y-90862500D03*
%TD*%
D23*
%TO.C,C45*%
X144875000Y-53800000D03*
X146600000Y-53800000D03*
%TD*%
D16*
%TO.C,R42*%
X142700000Y-85125000D03*
X142700000Y-86950000D03*
%TD*%
D24*
%TO.C,C5*%
X153750000Y-64362500D03*
X153750000Y-62637500D03*
%TD*%
D16*
%TO.C,R47*%
X137700000Y-89037500D03*
X137700000Y-90862500D03*
%TD*%
%TO.C,R46*%
X138700000Y-85037500D03*
X138700000Y-86862500D03*
%TD*%
D21*
%TO.C,J7*%
X105850000Y-61125000D03*
X105850000Y-62375000D03*
X105850000Y-63625000D03*
X105850000Y-64875000D03*
X105850000Y-66125000D03*
X105850000Y-67375000D03*
D22*
X102650000Y-59275000D03*
X102650000Y-69225000D03*
%TD*%
D15*
%TO.C,R5*%
X113025000Y-78625000D03*
X111375000Y-78625000D03*
%TD*%
D24*
%TO.C,C33*%
X109050000Y-61012500D03*
X109050000Y-59287500D03*
%TD*%
D14*
%TO.C,R63*%
X153337500Y-68000000D03*
X155162500Y-68000000D03*
%TD*%
D25*
%TO.C,J4*%
X152800000Y-96250000D03*
X157050000Y-96250000D03*
X148550000Y-96250000D03*
%TD*%
D16*
%TO.C,R66*%
X155750000Y-62087500D03*
X155750000Y-63912500D03*
%TD*%
D26*
%TO.C,R7*%
X153250000Y-71575000D03*
X153250000Y-69750000D03*
%TD*%
D16*
%TO.C,R45*%
X139700000Y-89037500D03*
X139700000Y-90862500D03*
%TD*%
D27*
%TO.C,C6*%
X147500000Y-66637500D03*
X147500000Y-68362500D03*
%TD*%
D16*
%TO.C,R56*%
X128700000Y-85037500D03*
X128700000Y-86862500D03*
%TD*%
D24*
%TO.C,C30*%
X108750000Y-94462500D03*
X108750000Y-92737500D03*
%TD*%
D28*
%TO.C,R14*%
X131712500Y-71600000D03*
X129887500Y-71600000D03*
%TD*%
D16*
%TO.C,R51*%
X133700000Y-89037500D03*
X133700000Y-90862500D03*
%TD*%
%TO.C,R60*%
X124700000Y-85037500D03*
X124700000Y-86862500D03*
%TD*%
D14*
%TO.C,R13*%
X130837500Y-64250000D03*
X132662500Y-64250000D03*
%TD*%
%TO.C,R3*%
X154175000Y-73800000D03*
X156000000Y-73800000D03*
%TD*%
D29*
%TO.C,J5*%
X159500000Y-72500000D03*
X159500000Y-71500000D03*
X159500000Y-70500000D03*
X159500000Y-69500000D03*
D30*
X163375000Y-73800000D03*
X163375000Y-68200000D03*
%TD*%
D26*
%TO.C,R8*%
X151500000Y-69075000D03*
X151500000Y-67250000D03*
%TD*%
D31*
%TO.C,D47*%
X157500000Y-63750000D03*
X159075000Y-63750000D03*
%TD*%
D32*
%TO.C,C2*%
X152112500Y-73900000D03*
X150387500Y-73900000D03*
%TD*%
D20*
%TO.C,D38*%
X157000000Y-67787500D03*
X157000000Y-66212500D03*
%TD*%
D16*
%TO.C,R49*%
X135700000Y-89125000D03*
X135700000Y-90950000D03*
%TD*%
D33*
%TO.C,D4*%
X101525000Y-84200000D03*
X103275000Y-84200000D03*
%TD*%
%TO.C,D2*%
X141125000Y-59400000D03*
X142875000Y-59400000D03*
%TD*%
D34*
%TO.C,J6*%
X113750000Y-94600000D03*
X114750000Y-94600000D03*
X115750000Y-94600000D03*
X116750000Y-94600000D03*
D35*
X112450000Y-98475000D03*
X118050000Y-98475000D03*
%TD*%
D16*
%TO.C,R44*%
X140700000Y-85037500D03*
X140700000Y-86862500D03*
%TD*%
%TO.C,R48*%
X136700000Y-85037500D03*
X136700000Y-86862500D03*
%TD*%
D28*
%TO.C,R12*%
X107112500Y-84200000D03*
X105287500Y-84200000D03*
%TD*%
D33*
%TO.C,D7*%
X126125000Y-73400000D03*
X127875000Y-73400000D03*
%TD*%
D26*
%TO.C,R2*%
X149200000Y-86425000D03*
X149200000Y-84600000D03*
%TD*%
D15*
%TO.C,R15*%
X113025000Y-76125000D03*
X111375000Y-76125000D03*
%TD*%
%TO.C,R1*%
X110075000Y-79875000D03*
X108425000Y-79875000D03*
%TD*%
D32*
%TO.C,C32*%
X118612500Y-92250000D03*
X116887500Y-92250000D03*
%TD*%
D16*
%TO.C,R52*%
X132700000Y-85037500D03*
X132700000Y-86862500D03*
%TD*%
D36*
%TO.C,L1*%
X154315000Y-91500000D03*
X155285000Y-91500000D03*
%TD*%
D16*
%TO.C,R50*%
X134700000Y-85037500D03*
X134700000Y-86862500D03*
%TD*%
D37*
%TO.C,D48*%
X159037500Y-61750000D03*
X157462500Y-61750000D03*
%TD*%
D16*
%TO.C,R58*%
X126700000Y-85037500D03*
X126700000Y-86862500D03*
%TD*%
D38*
%TO.C,C31*%
X118000000Y-87050000D03*
X118000000Y-85150000D03*
%TD*%
D16*
%TO.C,R43*%
X141700000Y-89125000D03*
X141700000Y-90950000D03*
%TD*%
D28*
%TO.C,R16*%
X131712500Y-73400000D03*
X129887500Y-73400000D03*
%TD*%
D16*
%TO.C,R61*%
X123700000Y-88950000D03*
X123700000Y-90775000D03*
%TD*%
D39*
%TO.C,C34*%
X111400000Y-59200000D03*
X111400000Y-61100000D03*
%TD*%
D15*
%TO.C,R6*%
X110025000Y-77400000D03*
X108375000Y-77400000D03*
%TD*%
%TO.C,R17*%
X110075000Y-67375000D03*
X108425000Y-67375000D03*
%TD*%
D14*
%TO.C,R65*%
X157337500Y-59750000D03*
X159162500Y-59750000D03*
%TD*%
D40*
%TO.C,C46*%
X146687500Y-55600000D03*
X144787500Y-55600000D03*
%TD*%
D16*
%TO.C,R55*%
X129700000Y-89037500D03*
X129700000Y-90862500D03*
%TD*%
D41*
%TO.C,C3*%
X152800000Y-90520000D03*
X152800000Y-91480000D03*
%TD*%
D33*
%TO.C,D6*%
X126125000Y-71600000D03*
X127875000Y-71600000D03*
%TD*%
D28*
%TO.C,R9*%
X132662500Y-66000000D03*
X130837500Y-66000000D03*
%TD*%
D16*
%TO.C,R57*%
X127700000Y-89037500D03*
X127700000Y-90862500D03*
%TD*%
D15*
%TO.C,R18*%
X113075000Y-66125000D03*
X111425000Y-66125000D03*
%TD*%
D16*
%TO.C,R53*%
X131700000Y-89037500D03*
X131700000Y-90862500D03*
%TD*%
D28*
%TO.C,R10*%
X146717500Y-59400000D03*
X144892500Y-59400000D03*
%TD*%
M02*
