%TF.GenerationSoftware,KiCad,Pcbnew,10.0.3*%
%TF.CreationDate,2026-06-16T17:49:43-04:00*%
%TF.ProjectId,Photodiode-breakout,50686f74-6f64-4696-9f64-652d62726561,rev?*%
%TF.SameCoordinates,Original*%
%TF.FileFunction,Soldermask,Top*%
%TF.FilePolarity,Negative*%
%FSLAX46Y46*%
G04 Gerber Fmt 4.6, Leading zero omitted, Abs format (unit mm)*
G04 Created by KiCad (PCBNEW 10.0.3) date 2026-06-16 17:49:43*
%MOMM*%
%LPD*%
G01*
G04 APERTURE LIST*
G04 Aperture macros list*
%AMRoundRect*
0 Rectangle with rounded corners*
0 $1 Rounding radius*
0 $2 $3 $4 $5 $6 $7 $8 $9 X,Y pos of 4 corners*
0 Add a 4 corners polygon primitive as box body*
4,1,4,$2,$3,$4,$5,$6,$7,$8,$9,$2,$3,0*
0 Add four circle primitives for the rounded corners*
1,1,$1+$1,$2,$3*
1,1,$1+$1,$4,$5*
1,1,$1+$1,$6,$7*
1,1,$1+$1,$8,$9*
0 Add four rect primitives between the rounded corners*
20,1,$1+$1,$2,$3,$4,$5,0*
20,1,$1+$1,$4,$5,$6,$7,0*
20,1,$1+$1,$6,$7,$8,$9,0*
20,1,$1+$1,$8,$9,$2,$3,0*%
G04 Aperture macros list end*
%ADD10RoundRect,0.200000X-0.275000X0.200000X-0.275000X-0.200000X0.275000X-0.200000X0.275000X0.200000X0*%
%ADD11RoundRect,0.200000X0.200000X0.275000X-0.200000X0.275000X-0.200000X-0.275000X0.200000X-0.275000X0*%
%ADD12RoundRect,0.225000X-0.225000X-0.250000X0.225000X-0.250000X0.225000X0.250000X-0.225000X0.250000X0*%
%ADD13RoundRect,0.200000X0.275000X-0.200000X0.275000X0.200000X-0.275000X0.200000X-0.275000X-0.200000X0*%
%ADD14RoundRect,0.200000X-0.200000X-0.275000X0.200000X-0.275000X0.200000X0.275000X-0.200000X0.275000X0*%
%ADD15RoundRect,0.225000X-0.250000X0.225000X-0.250000X-0.225000X0.250000X-0.225000X0.250000X0.225000X0*%
%ADD16R,0.558800X1.473200*%
%ADD17RoundRect,0.100000X-0.637500X-0.100000X0.637500X-0.100000X0.637500X0.100000X-0.637500X0.100000X0*%
%ADD18RoundRect,0.150000X-0.150000X-0.700000X0.150000X-0.700000X0.150000X0.700000X-0.150000X0.700000X0*%
%ADD19RoundRect,0.250000X-0.250000X-1.150000X0.250000X-1.150000X0.250000X1.150000X-0.250000X1.150000X0*%
%ADD20R,1.700000X1.700000*%
%ADD21RoundRect,0.225000X0.225000X0.250000X-0.225000X0.250000X-0.225000X-0.250000X0.225000X-0.250000X0*%
G04 APERTURE END LIST*
D10*
%TO.C,R11*%
X199500000Y-96175000D03*
X199500000Y-97825000D03*
%TD*%
%TO.C,R10*%
X201500000Y-96175000D03*
X201500000Y-97825000D03*
%TD*%
%TO.C,R9*%
X207750000Y-98350000D03*
X207750000Y-100000000D03*
%TD*%
D11*
%TO.C,R8*%
X204825000Y-97500000D03*
X203175000Y-97500000D03*
%TD*%
D12*
%TO.C,C1*%
X217050000Y-104500000D03*
X218600000Y-104500000D03*
%TD*%
D13*
%TO.C,R4*%
X202000000Y-107325000D03*
X202000000Y-105675000D03*
%TD*%
D11*
%TO.C,R5*%
X211325000Y-98500000D03*
X209675000Y-98500000D03*
%TD*%
D14*
%TO.C,R1*%
X217000000Y-100500000D03*
X218650000Y-100500000D03*
%TD*%
D11*
%TO.C,R7*%
X209725000Y-105500000D03*
X208075000Y-105500000D03*
%TD*%
%TO.C,TH1*%
X211400000Y-100250000D03*
X209750000Y-100250000D03*
%TD*%
D15*
%TO.C,C5*%
X205500000Y-105700000D03*
X205500000Y-107250000D03*
%TD*%
D14*
%TO.C,R6*%
X209675000Y-103750000D03*
X211325000Y-103750000D03*
%TD*%
D16*
%TO.C,U1*%
X213049999Y-102693800D03*
X214000000Y-102693800D03*
X214950001Y-102693800D03*
X214950001Y-100306200D03*
X213049999Y-100306200D03*
%TD*%
D17*
%TO.C,U2*%
X200137500Y-99350000D03*
X200137500Y-100000000D03*
X200137500Y-100650000D03*
X200137500Y-101300000D03*
X200137500Y-101950000D03*
X200137500Y-102600000D03*
X200137500Y-103250000D03*
X200137500Y-103900000D03*
X205862500Y-103900000D03*
X205862500Y-103250000D03*
X205862500Y-102600000D03*
X205862500Y-101950000D03*
X205862500Y-101300000D03*
X205862500Y-100650000D03*
X205862500Y-100000000D03*
X205862500Y-99350000D03*
%TD*%
D11*
%TO.C,R2*%
X218650000Y-102500000D03*
X217000000Y-102500000D03*
%TD*%
D13*
%TO.C,R3*%
X203750000Y-107325000D03*
X203750000Y-105675000D03*
%TD*%
D18*
%TO.C,J1*%
X206750000Y-95950000D03*
X208000000Y-95950000D03*
X209250000Y-95950000D03*
X210500000Y-95950000D03*
X211750000Y-95950000D03*
X213000000Y-95950000D03*
D19*
X204900000Y-92600000D03*
X214850000Y-92600000D03*
%TD*%
D20*
%TO.C,TP1*%
X212500000Y-106500000D03*
%TD*%
D21*
%TO.C,C2*%
X214775000Y-98500000D03*
X213225000Y-98500000D03*
%TD*%
%TO.C,C3*%
X211275000Y-102000000D03*
X209725000Y-102000000D03*
%TD*%
M02*
