M48
; DRILL file KiCad 10.0.3 date 2026-06-17T16:26:57
; FORMAT={-:-/ absolute / inch / decimal}
; #@! TF.CreationDate,2026-06-17T16:26:57-04:00
; #@! TF.GenerationSoftware,Kicad,Pcbnew,10.0.3
; #@! TF.FileFunction,Plated,1,2,PTH
FMAT,2
INCH
; #@! TA.AperFunction,Plated,PTH,ViaDrill
T1C0.0079
; #@! TA.AperFunction,Plated,PTH,ViaDrill
T2C0.0118
%
G90
G05
T1
X4.252Y-4.4882
X4.252Y-4.9606
X4.3701Y-4.3701
X4.3701Y-5.0787
X4.4882Y-4.3701
X4.4882Y-4.6063
X4.4882Y-4.8425
X4.4882Y-5.0787
X4.6063Y-4.6063
X4.6063Y-4.7244
X4.6063Y-4.8425
X4.6063Y-4.9606
X4.6063Y-5.0787
X4.7244Y-4.3701
X4.7244Y-4.8425
X4.7244Y-5.0787
X4.8425Y-4.6063
X4.8425Y-4.7244
X4.8425Y-4.8425
X4.8425Y-4.9606
X4.8425Y-5.0787
X4.9606Y-4.3701
X4.9606Y-4.6063
X4.9606Y-4.8425
X4.9606Y-5.0787
X5.0787Y-4.3701
X5.0787Y-5.0787
X5.1969Y-4.4882
X5.1969Y-4.9606
T2
X4.3898Y-4.4291
X4.3898Y-4.4699
X4.3898Y-4.5107
X4.3898Y-4.5515
X4.3898Y-4.5922
X4.3898Y-4.633
X4.3898Y-4.6738
X4.3898Y-4.7146
X4.3898Y-4.7553
X4.3898Y-4.7961
X4.3898Y-4.8369
X4.3898Y-4.8777
X4.3898Y-4.9184
X4.3898Y-4.9592
X4.3898Y-5.0
X4.5079Y-4.439
X4.5079Y-4.4783
X4.5079Y-4.5177
X4.5079Y-4.6752
X4.5079Y-4.7146
X4.5079Y-4.7539
X4.5079Y-4.9114
X4.5079Y-4.9508
X4.5079Y-4.9902
X4.7244Y-4.439
X4.7244Y-4.4783
X4.7244Y-4.5177
X4.7244Y-4.6752
X4.7244Y-4.7146
X4.7244Y-4.7539
X4.7244Y-4.9114
X4.7244Y-4.9508
X4.7244Y-4.9902
X4.9409Y-4.439
X4.9409Y-4.4783
X4.9409Y-4.5177
X4.9409Y-4.6752
X4.9409Y-4.7146
X4.9409Y-4.7539
X4.9409Y-4.9114
X4.9409Y-4.9508
X4.9409Y-4.9902
X5.0591Y-4.4334
X5.0591Y-4.4741
X5.0591Y-4.5149
X5.0591Y-4.5557
X5.0591Y-4.5965
X5.0591Y-4.6372
X5.0591Y-4.678
X5.0591Y-4.7188
X5.0591Y-4.7596
X5.0591Y-4.8003
X5.0591Y-4.8411
X5.0591Y-4.8819
X5.0591Y-4.9227
X5.0591Y-4.9634
X5.0591Y-5.0042
M30
