%TF.GenerationSoftware,KiCad,Pcbnew,10.0.3*%
%TF.CreationDate,2026-06-08T14:59:42-04:00*%
%TF.ProjectId,hab-terminator,6861622d-7465-4726-9d69-6e61746f722e,rev?*%
%TF.SameCoordinates,Original*%
%TF.FileFunction,Legend,Top*%
%TF.FilePolarity,Positive*%
%FSLAX46Y46*%
G04 Gerber Fmt 4.6, Leading zero omitted, Abs format (unit mm)*
G04 Created by KiCad (PCBNEW 10.0.3) date 2026-06-08 14:59:42*
%MOMM*%
%LPD*%
G01*
G04 APERTURE LIST*
%ADD10C,0.100000*%
%ADD11C,0.106680*%
%ADD12C,0.200000*%
%ADD13C,0.127000*%
%ADD14C,0.120000*%
%ADD15C,0.504000*%
G04 APERTURE END LIST*
D10*
X92808646Y-138107085D02*
X92608646Y-138107085D01*
X92608646Y-138421371D02*
X92608646Y-137821371D01*
X92608646Y-137821371D02*
X92894360Y-137821371D01*
X93122932Y-138421371D02*
X93122932Y-137821371D01*
X93751503Y-138421371D02*
X93551503Y-138135657D01*
X93408646Y-138421371D02*
X93408646Y-137821371D01*
X93408646Y-137821371D02*
X93637217Y-137821371D01*
X93637217Y-137821371D02*
X93694360Y-137849942D01*
X93694360Y-137849942D02*
X93722931Y-137878514D01*
X93722931Y-137878514D02*
X93751503Y-137935657D01*
X93751503Y-137935657D02*
X93751503Y-138021371D01*
X93751503Y-138021371D02*
X93722931Y-138078514D01*
X93722931Y-138078514D02*
X93694360Y-138107085D01*
X93694360Y-138107085D02*
X93637217Y-138135657D01*
X93637217Y-138135657D02*
X93408646Y-138135657D01*
X94008646Y-138107085D02*
X94208646Y-138107085D01*
X94294360Y-138421371D02*
X94008646Y-138421371D01*
X94008646Y-138421371D02*
X94008646Y-137821371D01*
X94008646Y-137821371D02*
X94294360Y-137821371D01*
X92580074Y-139949942D02*
X92865789Y-139949942D01*
X92522931Y-140121371D02*
X92722931Y-139521371D01*
X92722931Y-139521371D02*
X92922931Y-140121371D01*
X93465789Y-140121371D02*
X93265789Y-139835657D01*
X93122932Y-140121371D02*
X93122932Y-139521371D01*
X93122932Y-139521371D02*
X93351503Y-139521371D01*
X93351503Y-139521371D02*
X93408646Y-139549942D01*
X93408646Y-139549942D02*
X93437217Y-139578514D01*
X93437217Y-139578514D02*
X93465789Y-139635657D01*
X93465789Y-139635657D02*
X93465789Y-139721371D01*
X93465789Y-139721371D02*
X93437217Y-139778514D01*
X93437217Y-139778514D02*
X93408646Y-139807085D01*
X93408646Y-139807085D02*
X93351503Y-139835657D01*
X93351503Y-139835657D02*
X93122932Y-139835657D01*
X93722932Y-140121371D02*
X93722932Y-139521371D01*
X93722932Y-139521371D02*
X93922932Y-139949942D01*
X93922932Y-139949942D02*
X94122932Y-139521371D01*
X94122932Y-139521371D02*
X94122932Y-140121371D01*
X103808646Y-141421371D02*
X103808646Y-140821371D01*
X103808646Y-141107085D02*
X104151503Y-141107085D01*
X104151503Y-141421371D02*
X104151503Y-140821371D01*
X104437217Y-141107085D02*
X104637217Y-141107085D01*
X104722931Y-141421371D02*
X104437217Y-141421371D01*
X104437217Y-141421371D02*
X104437217Y-140821371D01*
X104437217Y-140821371D02*
X104722931Y-140821371D01*
X104951502Y-141249942D02*
X105237217Y-141249942D01*
X104894359Y-141421371D02*
X105094359Y-140821371D01*
X105094359Y-140821371D02*
X105294359Y-141421371D01*
X105408645Y-140821371D02*
X105751503Y-140821371D01*
X105580074Y-141421371D02*
X105580074Y-140821371D01*
X105951503Y-141107085D02*
X106151503Y-141107085D01*
X106237217Y-141421371D02*
X105951503Y-141421371D01*
X105951503Y-141421371D02*
X105951503Y-140821371D01*
X105951503Y-140821371D02*
X106237217Y-140821371D01*
X106837217Y-141421371D02*
X106637217Y-141135657D01*
X106494360Y-141421371D02*
X106494360Y-140821371D01*
X106494360Y-140821371D02*
X106722931Y-140821371D01*
X106722931Y-140821371D02*
X106780074Y-140849942D01*
X106780074Y-140849942D02*
X106808645Y-140878514D01*
X106808645Y-140878514D02*
X106837217Y-140935657D01*
X106837217Y-140935657D02*
X106837217Y-141021371D01*
X106837217Y-141021371D02*
X106808645Y-141078514D01*
X106808645Y-141078514D02*
X106780074Y-141107085D01*
X106780074Y-141107085D02*
X106722931Y-141135657D01*
X106722931Y-141135657D02*
X106494360Y-141135657D01*
X107721371Y-108291353D02*
X107121371Y-108291353D01*
X107407085Y-108291353D02*
X107407085Y-107948496D01*
X107721371Y-107948496D02*
X107121371Y-107948496D01*
X107549942Y-107691354D02*
X107549942Y-107405640D01*
X107721371Y-107748497D02*
X107121371Y-107548497D01*
X107121371Y-107548497D02*
X107721371Y-107348497D01*
X107407085Y-106948496D02*
X107435657Y-106862782D01*
X107435657Y-106862782D02*
X107464228Y-106834211D01*
X107464228Y-106834211D02*
X107521371Y-106805639D01*
X107521371Y-106805639D02*
X107607085Y-106805639D01*
X107607085Y-106805639D02*
X107664228Y-106834211D01*
X107664228Y-106834211D02*
X107692800Y-106862782D01*
X107692800Y-106862782D02*
X107721371Y-106919925D01*
X107721371Y-106919925D02*
X107721371Y-107148496D01*
X107721371Y-107148496D02*
X107121371Y-107148496D01*
X107121371Y-107148496D02*
X107121371Y-106948496D01*
X107121371Y-106948496D02*
X107149942Y-106891354D01*
X107149942Y-106891354D02*
X107178514Y-106862782D01*
X107178514Y-106862782D02*
X107235657Y-106834211D01*
X107235657Y-106834211D02*
X107292800Y-106834211D01*
X107292800Y-106834211D02*
X107349942Y-106862782D01*
X107349942Y-106862782D02*
X107378514Y-106891354D01*
X107378514Y-106891354D02*
X107407085Y-106948496D01*
X107407085Y-106948496D02*
X107407085Y-107148496D01*
X107492800Y-106548496D02*
X107492800Y-106091354D01*
X107721371Y-105805639D02*
X107121371Y-105805639D01*
X107121371Y-105805639D02*
X107121371Y-105662782D01*
X107121371Y-105662782D02*
X107149942Y-105577068D01*
X107149942Y-105577068D02*
X107207085Y-105519925D01*
X107207085Y-105519925D02*
X107264228Y-105491354D01*
X107264228Y-105491354D02*
X107378514Y-105462782D01*
X107378514Y-105462782D02*
X107464228Y-105462782D01*
X107464228Y-105462782D02*
X107578514Y-105491354D01*
X107578514Y-105491354D02*
X107635657Y-105519925D01*
X107635657Y-105519925D02*
X107692800Y-105577068D01*
X107692800Y-105577068D02*
X107721371Y-105662782D01*
X107721371Y-105662782D02*
X107721371Y-105805639D01*
X107692800Y-104977068D02*
X107721371Y-105034211D01*
X107721371Y-105034211D02*
X107721371Y-105148497D01*
X107721371Y-105148497D02*
X107692800Y-105205639D01*
X107692800Y-105205639D02*
X107635657Y-105234211D01*
X107635657Y-105234211D02*
X107407085Y-105234211D01*
X107407085Y-105234211D02*
X107349942Y-105205639D01*
X107349942Y-105205639D02*
X107321371Y-105148497D01*
X107321371Y-105148497D02*
X107321371Y-105034211D01*
X107321371Y-105034211D02*
X107349942Y-104977068D01*
X107349942Y-104977068D02*
X107407085Y-104948497D01*
X107407085Y-104948497D02*
X107464228Y-104948497D01*
X107464228Y-104948497D02*
X107521371Y-105234211D01*
X107321371Y-104691353D02*
X107921371Y-104691353D01*
X107349942Y-104691353D02*
X107321371Y-104634211D01*
X107321371Y-104634211D02*
X107321371Y-104519925D01*
X107321371Y-104519925D02*
X107349942Y-104462782D01*
X107349942Y-104462782D02*
X107378514Y-104434211D01*
X107378514Y-104434211D02*
X107435657Y-104405639D01*
X107435657Y-104405639D02*
X107607085Y-104405639D01*
X107607085Y-104405639D02*
X107664228Y-104434211D01*
X107664228Y-104434211D02*
X107692800Y-104462782D01*
X107692800Y-104462782D02*
X107721371Y-104519925D01*
X107721371Y-104519925D02*
X107721371Y-104634211D01*
X107721371Y-104634211D02*
X107692800Y-104691353D01*
X107721371Y-104062782D02*
X107692800Y-104119925D01*
X107692800Y-104119925D02*
X107635657Y-104148496D01*
X107635657Y-104148496D02*
X107121371Y-104148496D01*
X107721371Y-103748496D02*
X107692800Y-103805639D01*
X107692800Y-103805639D02*
X107664228Y-103834210D01*
X107664228Y-103834210D02*
X107607085Y-103862782D01*
X107607085Y-103862782D02*
X107435657Y-103862782D01*
X107435657Y-103862782D02*
X107378514Y-103834210D01*
X107378514Y-103834210D02*
X107349942Y-103805639D01*
X107349942Y-103805639D02*
X107321371Y-103748496D01*
X107321371Y-103748496D02*
X107321371Y-103662782D01*
X107321371Y-103662782D02*
X107349942Y-103605639D01*
X107349942Y-103605639D02*
X107378514Y-103577068D01*
X107378514Y-103577068D02*
X107435657Y-103548496D01*
X107435657Y-103548496D02*
X107607085Y-103548496D01*
X107607085Y-103548496D02*
X107664228Y-103577068D01*
X107664228Y-103577068D02*
X107692800Y-103605639D01*
X107692800Y-103605639D02*
X107721371Y-103662782D01*
X107721371Y-103662782D02*
X107721371Y-103748496D01*
X107321371Y-103348496D02*
X107721371Y-103205639D01*
X107321371Y-103062782D02*
X107721371Y-103205639D01*
X107721371Y-103205639D02*
X107864228Y-103262782D01*
X107864228Y-103262782D02*
X107892800Y-103291353D01*
X107892800Y-103291353D02*
X107921371Y-103348496D01*
X107692800Y-102605639D02*
X107721371Y-102662782D01*
X107721371Y-102662782D02*
X107721371Y-102777068D01*
X107721371Y-102777068D02*
X107692800Y-102834210D01*
X107692800Y-102834210D02*
X107635657Y-102862782D01*
X107635657Y-102862782D02*
X107407085Y-102862782D01*
X107407085Y-102862782D02*
X107349942Y-102834210D01*
X107349942Y-102834210D02*
X107321371Y-102777068D01*
X107321371Y-102777068D02*
X107321371Y-102662782D01*
X107321371Y-102662782D02*
X107349942Y-102605639D01*
X107349942Y-102605639D02*
X107407085Y-102577068D01*
X107407085Y-102577068D02*
X107464228Y-102577068D01*
X107464228Y-102577068D02*
X107521371Y-102862782D01*
X107721371Y-102319924D02*
X107321371Y-102319924D01*
X107435657Y-102319924D02*
X107378514Y-102291353D01*
X107378514Y-102291353D02*
X107349942Y-102262782D01*
X107349942Y-102262782D02*
X107321371Y-102205639D01*
X107321371Y-102205639D02*
X107321371Y-102148496D01*
X107121371Y-101577067D02*
X107721371Y-101377067D01*
X107721371Y-101377067D02*
X107121371Y-101177067D01*
X107721371Y-100662781D02*
X107721371Y-101005638D01*
X107721371Y-100834209D02*
X107121371Y-100834209D01*
X107121371Y-100834209D02*
X107207085Y-100891352D01*
X107207085Y-100891352D02*
X107264228Y-100948495D01*
X107264228Y-100948495D02*
X107292800Y-101005638D01*
X107664228Y-100405637D02*
X107692800Y-100377066D01*
X107692800Y-100377066D02*
X107721371Y-100405637D01*
X107721371Y-100405637D02*
X107692800Y-100434209D01*
X107692800Y-100434209D02*
X107664228Y-100405637D01*
X107664228Y-100405637D02*
X107721371Y-100405637D01*
X107121371Y-100005638D02*
X107121371Y-99948495D01*
X107121371Y-99948495D02*
X107149942Y-99891352D01*
X107149942Y-99891352D02*
X107178514Y-99862781D01*
X107178514Y-99862781D02*
X107235657Y-99834209D01*
X107235657Y-99834209D02*
X107349942Y-99805638D01*
X107349942Y-99805638D02*
X107492800Y-99805638D01*
X107492800Y-99805638D02*
X107607085Y-99834209D01*
X107607085Y-99834209D02*
X107664228Y-99862781D01*
X107664228Y-99862781D02*
X107692800Y-99891352D01*
X107692800Y-99891352D02*
X107721371Y-99948495D01*
X107721371Y-99948495D02*
X107721371Y-100005638D01*
X107721371Y-100005638D02*
X107692800Y-100062781D01*
X107692800Y-100062781D02*
X107664228Y-100091352D01*
X107664228Y-100091352D02*
X107607085Y-100119923D01*
X107607085Y-100119923D02*
X107492800Y-100148495D01*
X107492800Y-100148495D02*
X107349942Y-100148495D01*
X107349942Y-100148495D02*
X107235657Y-100119923D01*
X107235657Y-100119923D02*
X107178514Y-100091352D01*
X107178514Y-100091352D02*
X107149942Y-100062781D01*
X107149942Y-100062781D02*
X107121371Y-100005638D01*
X108121371Y-119591353D02*
X107521371Y-119591353D01*
X107521371Y-119591353D02*
X107521371Y-119362782D01*
X107521371Y-119362782D02*
X107549942Y-119305639D01*
X107549942Y-119305639D02*
X107578514Y-119277068D01*
X107578514Y-119277068D02*
X107635657Y-119248496D01*
X107635657Y-119248496D02*
X107721371Y-119248496D01*
X107721371Y-119248496D02*
X107778514Y-119277068D01*
X107778514Y-119277068D02*
X107807085Y-119305639D01*
X107807085Y-119305639D02*
X107835657Y-119362782D01*
X107835657Y-119362782D02*
X107835657Y-119591353D01*
X107521371Y-118877068D02*
X107521371Y-118762782D01*
X107521371Y-118762782D02*
X107549942Y-118705639D01*
X107549942Y-118705639D02*
X107607085Y-118648496D01*
X107607085Y-118648496D02*
X107721371Y-118619925D01*
X107721371Y-118619925D02*
X107921371Y-118619925D01*
X107921371Y-118619925D02*
X108035657Y-118648496D01*
X108035657Y-118648496D02*
X108092800Y-118705639D01*
X108092800Y-118705639D02*
X108121371Y-118762782D01*
X108121371Y-118762782D02*
X108121371Y-118877068D01*
X108121371Y-118877068D02*
X108092800Y-118934211D01*
X108092800Y-118934211D02*
X108035657Y-118991353D01*
X108035657Y-118991353D02*
X107921371Y-119019925D01*
X107921371Y-119019925D02*
X107721371Y-119019925D01*
X107721371Y-119019925D02*
X107607085Y-118991353D01*
X107607085Y-118991353D02*
X107549942Y-118934211D01*
X107549942Y-118934211D02*
X107521371Y-118877068D01*
X107521371Y-118419925D02*
X108121371Y-118277068D01*
X108121371Y-118277068D02*
X107692800Y-118162782D01*
X107692800Y-118162782D02*
X108121371Y-118048497D01*
X108121371Y-118048497D02*
X107521371Y-117905640D01*
X107807085Y-117677068D02*
X107807085Y-117477068D01*
X108121371Y-117391354D02*
X108121371Y-117677068D01*
X108121371Y-117677068D02*
X107521371Y-117677068D01*
X107521371Y-117677068D02*
X107521371Y-117391354D01*
X108121371Y-116791354D02*
X107835657Y-116991354D01*
X108121371Y-117134211D02*
X107521371Y-117134211D01*
X107521371Y-117134211D02*
X107521371Y-116905640D01*
X107521371Y-116905640D02*
X107549942Y-116848497D01*
X107549942Y-116848497D02*
X107578514Y-116819926D01*
X107578514Y-116819926D02*
X107635657Y-116791354D01*
X107635657Y-116791354D02*
X107721371Y-116791354D01*
X107721371Y-116791354D02*
X107778514Y-116819926D01*
X107778514Y-116819926D02*
X107807085Y-116848497D01*
X107807085Y-116848497D02*
X107835657Y-116905640D01*
X107835657Y-116905640D02*
X107835657Y-117134211D01*
X108507085Y-109891353D02*
X108535657Y-109805639D01*
X108535657Y-109805639D02*
X108564228Y-109777068D01*
X108564228Y-109777068D02*
X108621371Y-109748496D01*
X108621371Y-109748496D02*
X108707085Y-109748496D01*
X108707085Y-109748496D02*
X108764228Y-109777068D01*
X108764228Y-109777068D02*
X108792800Y-109805639D01*
X108792800Y-109805639D02*
X108821371Y-109862782D01*
X108821371Y-109862782D02*
X108821371Y-110091353D01*
X108821371Y-110091353D02*
X108221371Y-110091353D01*
X108221371Y-110091353D02*
X108221371Y-109891353D01*
X108221371Y-109891353D02*
X108249942Y-109834211D01*
X108249942Y-109834211D02*
X108278514Y-109805639D01*
X108278514Y-109805639D02*
X108335657Y-109777068D01*
X108335657Y-109777068D02*
X108392800Y-109777068D01*
X108392800Y-109777068D02*
X108449942Y-109805639D01*
X108449942Y-109805639D02*
X108478514Y-109834211D01*
X108478514Y-109834211D02*
X108507085Y-109891353D01*
X108507085Y-109891353D02*
X108507085Y-110091353D01*
X108792800Y-109262782D02*
X108821371Y-109319925D01*
X108821371Y-109319925D02*
X108821371Y-109434211D01*
X108821371Y-109434211D02*
X108792800Y-109491353D01*
X108792800Y-109491353D02*
X108735657Y-109519925D01*
X108735657Y-109519925D02*
X108507085Y-109519925D01*
X108507085Y-109519925D02*
X108449942Y-109491353D01*
X108449942Y-109491353D02*
X108421371Y-109434211D01*
X108421371Y-109434211D02*
X108421371Y-109319925D01*
X108421371Y-109319925D02*
X108449942Y-109262782D01*
X108449942Y-109262782D02*
X108507085Y-109234211D01*
X108507085Y-109234211D02*
X108564228Y-109234211D01*
X108564228Y-109234211D02*
X108621371Y-109519925D01*
X108421371Y-108977067D02*
X108821371Y-108977067D01*
X108478514Y-108977067D02*
X108449942Y-108948496D01*
X108449942Y-108948496D02*
X108421371Y-108891353D01*
X108421371Y-108891353D02*
X108421371Y-108805639D01*
X108421371Y-108805639D02*
X108449942Y-108748496D01*
X108449942Y-108748496D02*
X108507085Y-108719925D01*
X108507085Y-108719925D02*
X108821371Y-108719925D01*
X108821371Y-107977067D02*
X108221371Y-107977067D01*
X108221371Y-107977067D02*
X108221371Y-107834210D01*
X108221371Y-107834210D02*
X108249942Y-107748496D01*
X108249942Y-107748496D02*
X108307085Y-107691353D01*
X108307085Y-107691353D02*
X108364228Y-107662782D01*
X108364228Y-107662782D02*
X108478514Y-107634210D01*
X108478514Y-107634210D02*
X108564228Y-107634210D01*
X108564228Y-107634210D02*
X108678514Y-107662782D01*
X108678514Y-107662782D02*
X108735657Y-107691353D01*
X108735657Y-107691353D02*
X108792800Y-107748496D01*
X108792800Y-107748496D02*
X108821371Y-107834210D01*
X108821371Y-107834210D02*
X108821371Y-107977067D01*
X108221371Y-107348496D02*
X108335657Y-107405639D01*
X108649942Y-107119925D02*
X108649942Y-106834211D01*
X108821371Y-107177068D02*
X108221371Y-106977068D01*
X108221371Y-106977068D02*
X108821371Y-106777068D01*
X108421371Y-106319925D02*
X108907085Y-106319925D01*
X108907085Y-106319925D02*
X108964228Y-106348496D01*
X108964228Y-106348496D02*
X108992800Y-106377067D01*
X108992800Y-106377067D02*
X109021371Y-106434210D01*
X109021371Y-106434210D02*
X109021371Y-106519925D01*
X109021371Y-106519925D02*
X108992800Y-106577067D01*
X108792800Y-106319925D02*
X108821371Y-106377067D01*
X108821371Y-106377067D02*
X108821371Y-106491353D01*
X108821371Y-106491353D02*
X108792800Y-106548496D01*
X108792800Y-106548496D02*
X108764228Y-106577067D01*
X108764228Y-106577067D02*
X108707085Y-106605639D01*
X108707085Y-106605639D02*
X108535657Y-106605639D01*
X108535657Y-106605639D02*
X108478514Y-106577067D01*
X108478514Y-106577067D02*
X108449942Y-106548496D01*
X108449942Y-106548496D02*
X108421371Y-106491353D01*
X108421371Y-106491353D02*
X108421371Y-106377067D01*
X108421371Y-106377067D02*
X108449942Y-106319925D01*
X108421371Y-106034210D02*
X108821371Y-106034210D01*
X108478514Y-106034210D02*
X108449942Y-106005639D01*
X108449942Y-106005639D02*
X108421371Y-105948496D01*
X108421371Y-105948496D02*
X108421371Y-105862782D01*
X108421371Y-105862782D02*
X108449942Y-105805639D01*
X108449942Y-105805639D02*
X108507085Y-105777068D01*
X108507085Y-105777068D02*
X108821371Y-105777068D01*
X108821371Y-105491353D02*
X108421371Y-105491353D01*
X108221371Y-105491353D02*
X108249942Y-105519925D01*
X108249942Y-105519925D02*
X108278514Y-105491353D01*
X108278514Y-105491353D02*
X108249942Y-105462782D01*
X108249942Y-105462782D02*
X108221371Y-105491353D01*
X108221371Y-105491353D02*
X108278514Y-105491353D01*
X108821371Y-105119925D02*
X108792800Y-105177068D01*
X108792800Y-105177068D02*
X108735657Y-105205639D01*
X108735657Y-105205639D02*
X108221371Y-105205639D01*
X108821371Y-104805639D02*
X108792800Y-104862782D01*
X108792800Y-104862782D02*
X108735657Y-104891353D01*
X108735657Y-104891353D02*
X108221371Y-104891353D01*
X108821371Y-104491353D02*
X108792800Y-104548496D01*
X108792800Y-104548496D02*
X108764228Y-104577067D01*
X108764228Y-104577067D02*
X108707085Y-104605639D01*
X108707085Y-104605639D02*
X108535657Y-104605639D01*
X108535657Y-104605639D02*
X108478514Y-104577067D01*
X108478514Y-104577067D02*
X108449942Y-104548496D01*
X108449942Y-104548496D02*
X108421371Y-104491353D01*
X108421371Y-104491353D02*
X108421371Y-104405639D01*
X108421371Y-104405639D02*
X108449942Y-104348496D01*
X108449942Y-104348496D02*
X108478514Y-104319925D01*
X108478514Y-104319925D02*
X108535657Y-104291353D01*
X108535657Y-104291353D02*
X108707085Y-104291353D01*
X108707085Y-104291353D02*
X108764228Y-104319925D01*
X108764228Y-104319925D02*
X108792800Y-104348496D01*
X108792800Y-104348496D02*
X108821371Y-104405639D01*
X108821371Y-104405639D02*
X108821371Y-104491353D01*
X108592800Y-103577067D02*
X108592800Y-103119925D01*
X108221371Y-102262782D02*
X108221371Y-102205639D01*
X108221371Y-102205639D02*
X108249942Y-102148496D01*
X108249942Y-102148496D02*
X108278514Y-102119925D01*
X108278514Y-102119925D02*
X108335657Y-102091353D01*
X108335657Y-102091353D02*
X108449942Y-102062782D01*
X108449942Y-102062782D02*
X108592800Y-102062782D01*
X108592800Y-102062782D02*
X108707085Y-102091353D01*
X108707085Y-102091353D02*
X108764228Y-102119925D01*
X108764228Y-102119925D02*
X108792800Y-102148496D01*
X108792800Y-102148496D02*
X108821371Y-102205639D01*
X108821371Y-102205639D02*
X108821371Y-102262782D01*
X108821371Y-102262782D02*
X108792800Y-102319925D01*
X108792800Y-102319925D02*
X108764228Y-102348496D01*
X108764228Y-102348496D02*
X108707085Y-102377067D01*
X108707085Y-102377067D02*
X108592800Y-102405639D01*
X108592800Y-102405639D02*
X108449942Y-102405639D01*
X108449942Y-102405639D02*
X108335657Y-102377067D01*
X108335657Y-102377067D02*
X108278514Y-102348496D01*
X108278514Y-102348496D02*
X108249942Y-102319925D01*
X108249942Y-102319925D02*
X108221371Y-102262782D01*
X108221371Y-101548496D02*
X108221371Y-101662781D01*
X108221371Y-101662781D02*
X108249942Y-101719924D01*
X108249942Y-101719924D02*
X108278514Y-101748496D01*
X108278514Y-101748496D02*
X108364228Y-101805638D01*
X108364228Y-101805638D02*
X108478514Y-101834210D01*
X108478514Y-101834210D02*
X108707085Y-101834210D01*
X108707085Y-101834210D02*
X108764228Y-101805638D01*
X108764228Y-101805638D02*
X108792800Y-101777067D01*
X108792800Y-101777067D02*
X108821371Y-101719924D01*
X108821371Y-101719924D02*
X108821371Y-101605638D01*
X108821371Y-101605638D02*
X108792800Y-101548496D01*
X108792800Y-101548496D02*
X108764228Y-101519924D01*
X108764228Y-101519924D02*
X108707085Y-101491353D01*
X108707085Y-101491353D02*
X108564228Y-101491353D01*
X108564228Y-101491353D02*
X108507085Y-101519924D01*
X108507085Y-101519924D02*
X108478514Y-101548496D01*
X108478514Y-101548496D02*
X108449942Y-101605638D01*
X108449942Y-101605638D02*
X108449942Y-101719924D01*
X108449942Y-101719924D02*
X108478514Y-101777067D01*
X108478514Y-101777067D02*
X108507085Y-101805638D01*
X108507085Y-101805638D02*
X108564228Y-101834210D01*
X108192800Y-100805638D02*
X108964228Y-101319924D01*
X108278514Y-100634210D02*
X108249942Y-100605638D01*
X108249942Y-100605638D02*
X108221371Y-100548496D01*
X108221371Y-100548496D02*
X108221371Y-100405638D01*
X108221371Y-100405638D02*
X108249942Y-100348496D01*
X108249942Y-100348496D02*
X108278514Y-100319924D01*
X108278514Y-100319924D02*
X108335657Y-100291353D01*
X108335657Y-100291353D02*
X108392800Y-100291353D01*
X108392800Y-100291353D02*
X108478514Y-100319924D01*
X108478514Y-100319924D02*
X108821371Y-100662781D01*
X108821371Y-100662781D02*
X108821371Y-100291353D01*
X108221371Y-99777067D02*
X108221371Y-99891352D01*
X108221371Y-99891352D02*
X108249942Y-99948495D01*
X108249942Y-99948495D02*
X108278514Y-99977067D01*
X108278514Y-99977067D02*
X108364228Y-100034209D01*
X108364228Y-100034209D02*
X108478514Y-100062781D01*
X108478514Y-100062781D02*
X108707085Y-100062781D01*
X108707085Y-100062781D02*
X108764228Y-100034209D01*
X108764228Y-100034209D02*
X108792800Y-100005638D01*
X108792800Y-100005638D02*
X108821371Y-99948495D01*
X108821371Y-99948495D02*
X108821371Y-99834209D01*
X108821371Y-99834209D02*
X108792800Y-99777067D01*
X108792800Y-99777067D02*
X108764228Y-99748495D01*
X108764228Y-99748495D02*
X108707085Y-99719924D01*
X108707085Y-99719924D02*
X108564228Y-99719924D01*
X108564228Y-99719924D02*
X108507085Y-99748495D01*
X108507085Y-99748495D02*
X108478514Y-99777067D01*
X108478514Y-99777067D02*
X108449942Y-99834209D01*
X108449942Y-99834209D02*
X108449942Y-99948495D01*
X108449942Y-99948495D02*
X108478514Y-100005638D01*
X108478514Y-100005638D02*
X108507085Y-100034209D01*
X108507085Y-100034209D02*
X108564228Y-100062781D01*
D11*
X95368450Y-96960641D02*
X95368450Y-97593948D01*
X95368450Y-97593948D02*
X95405704Y-97668454D01*
X95405704Y-97668454D02*
X95442957Y-97705708D01*
X95442957Y-97705708D02*
X95517464Y-97742961D01*
X95517464Y-97742961D02*
X95666477Y-97742961D01*
X95666477Y-97742961D02*
X95740984Y-97705708D01*
X95740984Y-97705708D02*
X95778237Y-97668454D01*
X95778237Y-97668454D02*
X95815490Y-97593948D01*
X95815490Y-97593948D02*
X95815490Y-96960641D01*
X96597810Y-97742961D02*
X96150770Y-97742961D01*
X96374290Y-97742961D02*
X96374290Y-96960641D01*
X96374290Y-96960641D02*
X96299783Y-97072401D01*
X96299783Y-97072401D02*
X96225277Y-97146908D01*
X96225277Y-97146908D02*
X96150770Y-97184161D01*
%TO.C,J4*%
D12*
X99500000Y-141150000D02*
G75*
G02*
X99300000Y-141150000I-100000J0D01*
G01*
X99300000Y-141150000D02*
G75*
G02*
X99500000Y-141150000I100000J0D01*
G01*
D13*
X104525000Y-154520000D02*
X104525000Y-157500000D01*
X104525000Y-144620000D02*
X104525000Y-151680000D01*
X102880000Y-143000000D02*
X100070000Y-143000000D01*
X89775000Y-157500000D02*
X104525000Y-157500000D01*
X89775000Y-154520000D02*
X89775000Y-157500000D01*
X89775000Y-145020000D02*
X89775000Y-151680000D01*
%TO.C,R13*%
D14*
X94277500Y-125762742D02*
X94277500Y-126237258D01*
X95322500Y-125762742D02*
X95322500Y-126237258D01*
%TO.C,SW2*%
X102600000Y-131670000D02*
X102600000Y-134330000D01*
X105200000Y-131670000D02*
X102600000Y-131670000D01*
X105200000Y-131670000D02*
X105200000Y-134330000D01*
X105200000Y-134330000D02*
X102600000Y-134330000D01*
X107800000Y-133000000D02*
X107800000Y-134330000D01*
X107800000Y-134330000D02*
X106470000Y-134330000D01*
%TO.C,C6*%
X85865000Y-123534420D02*
X85865000Y-123815580D01*
X86885000Y-123534420D02*
X86885000Y-123815580D01*
%TO.C,J5*%
X102600000Y-135470000D02*
X102600000Y-138130000D01*
X105200000Y-135470000D02*
X102600000Y-135470000D01*
X105200000Y-135470000D02*
X105200000Y-138130000D01*
X105200000Y-138130000D02*
X102600000Y-138130000D01*
X107800000Y-136800000D02*
X107800000Y-138130000D01*
X107800000Y-138130000D02*
X106470000Y-138130000D01*
%TO.C,Q1*%
X92040000Y-133690000D02*
X92090000Y-133690000D01*
X92040000Y-135510000D02*
X92040000Y-133690000D01*
X92090000Y-135510000D02*
X92040000Y-135510000D01*
X95110000Y-133690000D02*
X95160000Y-133690000D01*
X95160000Y-133690000D02*
X95160000Y-135510000D01*
X95160000Y-135510000D02*
X95110000Y-135510000D01*
X95110000Y-133150000D02*
X95440000Y-132910000D01*
X95440000Y-133390000D01*
X95110000Y-133150000D01*
G36*
X95440000Y-133390000D02*
G01*
X95110000Y-133150000D01*
X95440000Y-132910000D01*
X95440000Y-133390000D01*
G37*
%TO.C,D1*%
X85515000Y-137265000D02*
X85515000Y-138735000D01*
X85515000Y-138735000D02*
X87800000Y-138735000D01*
X87800000Y-137265000D02*
X85515000Y-137265000D01*
%TO.C,Q3*%
X97040000Y-123640000D02*
X98560000Y-123640000D01*
X97040000Y-124640000D02*
X97040000Y-123640000D01*
X97040000Y-126760000D02*
X97040000Y-125760000D01*
X98560000Y-123640000D02*
X98560000Y-123690000D01*
X98560000Y-124810000D02*
X98560000Y-125590000D01*
X98560000Y-126710000D02*
X98560000Y-126760000D01*
X98560000Y-126760000D02*
X97040000Y-126760000D01*
X99100000Y-125580000D02*
X98860000Y-125250000D01*
X99340000Y-125250000D01*
X99100000Y-125580000D01*
G36*
X99100000Y-125580000D02*
G01*
X98860000Y-125250000D01*
X99340000Y-125250000D01*
X99100000Y-125580000D01*
G37*
%TO.C,U3*%
X95265000Y-119690000D02*
X96735000Y-119690000D01*
X95265000Y-119715000D02*
X95265000Y-119690000D01*
X95265000Y-121910000D02*
X95265000Y-121885000D01*
X96735000Y-119690000D02*
X96735000Y-119715000D01*
X96735000Y-121885000D02*
X96735000Y-121910000D01*
X96735000Y-121910000D02*
X95265000Y-121910000D01*
X97180000Y-121890000D02*
X97320000Y-122080000D01*
X97040000Y-122080000D01*
X97180000Y-121890000D01*
G36*
X97320000Y-122080000D02*
G01*
X97040000Y-122080000D01*
X97180000Y-121890000D01*
X97320000Y-122080000D01*
G37*
%TO.C,J1*%
X100340000Y-122340000D02*
X100340000Y-123260000D01*
X100340000Y-123260000D02*
X101940000Y-123260000D01*
X100340000Y-127540000D02*
X100340000Y-128460000D01*
X100340000Y-128460000D02*
X108160000Y-128460000D01*
X101940000Y-122340000D02*
X101940000Y-123260000D01*
X101940000Y-123260000D02*
X101940000Y-123540000D01*
X101940000Y-127260000D02*
X100725000Y-127260000D01*
X101940000Y-127260000D02*
X101940000Y-127540000D01*
X101940000Y-127540000D02*
X100340000Y-127540000D01*
X101940000Y-128460000D02*
X101940000Y-127540000D01*
X103800000Y-124900000D02*
X108160000Y-124900000D01*
X103800000Y-125900000D02*
X103800000Y-124900000D01*
X105900000Y-126700000D02*
X108160000Y-126700000D01*
X105900000Y-127200000D02*
X108160000Y-127200000D01*
X108160000Y-122340000D02*
X100340000Y-122340000D01*
X108160000Y-125900000D02*
X103800000Y-125900000D01*
X108160000Y-128460000D02*
X108160000Y-122340000D01*
X104300000Y-123100000D02*
X105900000Y-123100000D01*
X105900000Y-124100000D01*
X104300000Y-124100000D01*
X104300000Y-123100000D01*
X104300000Y-126700000D02*
X105900000Y-126700000D01*
X105900000Y-127700000D01*
X104300000Y-127700000D01*
X104300000Y-126700000D01*
%TO.C,R3*%
X89962742Y-137477500D02*
X90437258Y-137477500D01*
X89962742Y-138522500D02*
X90437258Y-138522500D01*
%TO.C,R20*%
X94762742Y-122677500D02*
X95237258Y-122677500D01*
X94762742Y-123722500D02*
X95237258Y-123722500D01*
%TO.C,J2*%
X86000000Y-133870000D02*
X86000000Y-136530000D01*
X88600000Y-133870000D02*
X86000000Y-133870000D01*
X88600000Y-133870000D02*
X88600000Y-136530000D01*
X88600000Y-136530000D02*
X86000000Y-136530000D01*
X91200000Y-135200000D02*
X91200000Y-136530000D01*
X91200000Y-136530000D02*
X89870000Y-136530000D01*
%TO.C,R8*%
X96077500Y-135162742D02*
X96077500Y-135637258D01*
X97122500Y-135162742D02*
X97122500Y-135637258D01*
%TO.C,R17*%
X100237258Y-133677500D02*
X99762742Y-133677500D01*
X100237258Y-134722500D02*
X99762742Y-134722500D01*
%TO.C,U4*%
X87600000Y-122150000D02*
X88100000Y-122150000D01*
X87600000Y-122650000D02*
X87600000Y-122150000D01*
X87600000Y-125150000D02*
X87600000Y-124400000D01*
X92300000Y-122150000D02*
X92800000Y-122150000D01*
X92800000Y-122150000D02*
X92800000Y-122650000D01*
X92800000Y-124950000D02*
X92800000Y-125450000D01*
X92800000Y-125450000D02*
X92300000Y-125450000D01*
X87600000Y-125350000D02*
X87600000Y-125710000D01*
X87240000Y-125350000D01*
X87600000Y-125350000D01*
G36*
X87600000Y-125710000D02*
G01*
X87240000Y-125350000D01*
X87600000Y-125350000D01*
X87600000Y-125710000D01*
G37*
%TO.C,Q2*%
X96890000Y-127540000D02*
X98710000Y-127540000D01*
X96890000Y-127590000D02*
X96890000Y-127540000D01*
X96890000Y-130660000D02*
X96890000Y-130610000D01*
X98710000Y-127540000D02*
X98710000Y-127590000D01*
X98710000Y-130610000D02*
X98710000Y-130660000D01*
X98710000Y-130660000D02*
X96890000Y-130660000D01*
X99250000Y-130610000D02*
X99490000Y-130940000D01*
X99010000Y-130940000D01*
X99250000Y-130610000D01*
G36*
X99490000Y-130940000D02*
G01*
X99010000Y-130940000D01*
X99250000Y-130610000D01*
X99490000Y-130940000D01*
G37*
%TO.C,R14*%
X91787742Y-120277500D02*
X92262258Y-120277500D01*
X91787742Y-121322500D02*
X92262258Y-121322500D01*
%TO.C,U2*%
X87660000Y-128660000D02*
X87660000Y-126660000D01*
X89940000Y-128650000D02*
X89940000Y-126650000D01*
X87730000Y-129020000D02*
X87730000Y-129300000D01*
X87450000Y-129020000D01*
X87730000Y-129020000D01*
G36*
X87730000Y-129300000D02*
G01*
X87450000Y-129020000D01*
X87730000Y-129020000D01*
X87730000Y-129300000D01*
G37*
%TO.C,J3*%
X86000000Y-130070000D02*
X86000000Y-132730000D01*
X88600000Y-130070000D02*
X86000000Y-130070000D01*
X88600000Y-130070000D02*
X88600000Y-132730000D01*
X88600000Y-132730000D02*
X86000000Y-132730000D01*
X91200000Y-131400000D02*
X91200000Y-132730000D01*
X91200000Y-132730000D02*
X89870000Y-132730000D01*
%TO.C,C7*%
X93259420Y-128690000D02*
X93540580Y-128690000D01*
X93259420Y-129710000D02*
X93540580Y-129710000D01*
%TO.C,C4*%
X85890000Y-127540580D02*
X85890000Y-127259420D01*
X86910000Y-127540580D02*
X86910000Y-127259420D01*
%TO.C,R18*%
X97362742Y-131877500D02*
X97837258Y-131877500D01*
X97362742Y-132922500D02*
X97837258Y-132922500D01*
%TO.C,R16*%
X103637258Y-129477500D02*
X103162742Y-129477500D01*
X103637258Y-130522500D02*
X103162742Y-130522500D01*
%TO.C,R15*%
X88437258Y-120277500D02*
X87962742Y-120277500D01*
X88437258Y-121322500D02*
X87962742Y-121322500D01*
%TO.C,R19*%
X103437258Y-120277500D02*
X102962742Y-120277500D01*
X103437258Y-121322500D02*
X102962742Y-121322500D01*
%TO.C,D3*%
X105800000Y-130735000D02*
X108085000Y-130735000D01*
X108085000Y-129265000D02*
X105800000Y-129265000D01*
X108085000Y-130735000D02*
X108085000Y-129265000D01*
%TO.C,R4*%
X89962742Y-139277500D02*
X90437258Y-139277500D01*
X89962742Y-140322500D02*
X90437258Y-140322500D01*
%TO.C,Q4*%
X98440000Y-136440000D02*
X99440000Y-136440000D01*
X98440000Y-137960000D02*
X98440000Y-136440000D01*
X98490000Y-137960000D02*
X98440000Y-137960000D01*
X100390000Y-137960000D02*
X99610000Y-137960000D01*
X100560000Y-136440000D02*
X101560000Y-136440000D01*
X101560000Y-136440000D02*
X101560000Y-137960000D01*
X101560000Y-137960000D02*
X101510000Y-137960000D01*
X99620000Y-138500000D02*
X99950000Y-138260000D01*
X99950000Y-138740000D01*
X99620000Y-138500000D01*
G36*
X99950000Y-138740000D02*
G01*
X99620000Y-138500000D01*
X99950000Y-138260000D01*
X99950000Y-138740000D01*
G37*
%TO.C,D4*%
X105800000Y-121535000D02*
X108085000Y-121535000D01*
X108085000Y-120065000D02*
X105800000Y-120065000D01*
X108085000Y-121535000D02*
X108085000Y-120065000D01*
%TO.C,U1*%
D10*
X88000000Y-117193250D02*
X88000000Y-100048250D01*
X89905000Y-119098250D02*
X103875000Y-119098250D01*
D13*
X92395000Y-98143250D02*
X92398728Y-97132978D01*
X92898728Y-96633250D02*
X100894000Y-96633250D01*
X101394000Y-97133250D02*
X101394000Y-98143250D01*
D10*
X103875000Y-98143250D02*
X89905000Y-98143250D01*
X105780000Y-117193250D02*
X105780000Y-100048250D01*
X88000000Y-100044250D02*
G75*
G02*
X89905000Y-98139250I1905001J-1D01*
G01*
X89905000Y-119098250D02*
G75*
G02*
X88000000Y-117193250I0J1905000D01*
G01*
D13*
X92398728Y-97132978D02*
G75*
G02*
X92898728Y-96633248I500022J-292D01*
G01*
X100894000Y-96633250D02*
G75*
G02*
X101394000Y-97133250I0J-500000D01*
G01*
D10*
X103875000Y-98143250D02*
G75*
G02*
X105780000Y-100048250I0J-1905000D01*
G01*
X105780000Y-117193250D02*
G75*
G02*
X103875000Y-119098250I-1905000J0D01*
G01*
D15*
X88042000Y-98559250D02*
G75*
G02*
X87538000Y-98559250I-252000J0D01*
G01*
X87538000Y-98559250D02*
G75*
G02*
X88042000Y-98559250I252000J0D01*
G01*
X89185000Y-99439250D02*
G75*
G02*
X88681000Y-99439250I-252000J0D01*
G01*
X88681000Y-99439250D02*
G75*
G02*
X89185000Y-99439250I252000J0D01*
G01*
%TO.C,D5*%
D14*
X106012500Y-140535000D02*
X108297500Y-140535000D01*
X108297500Y-139065000D02*
X106012500Y-139065000D01*
X108297500Y-140535000D02*
X108297500Y-139065000D01*
%TO.C,R11*%
X100277500Y-131037258D02*
X100277500Y-130562742D01*
X101322500Y-131037258D02*
X101322500Y-130562742D01*
%TO.C,R21*%
X100037258Y-120277500D02*
X99562742Y-120277500D01*
X100037258Y-121322500D02*
X99562742Y-121322500D01*
%TO.C,R5*%
X103812258Y-139277500D02*
X103337742Y-139277500D01*
X103812258Y-140322500D02*
X103337742Y-140322500D01*
%TO.C,D2*%
X85515000Y-139065000D02*
X85515000Y-140535000D01*
X85515000Y-140535000D02*
X87800000Y-140535000D01*
X87800000Y-139065000D02*
X85515000Y-139065000D01*
%TO.C,R12*%
X93162742Y-130477500D02*
X93637258Y-130477500D01*
X93162742Y-131522500D02*
X93637258Y-131522500D01*
%TO.C,R10*%
X92437258Y-126277500D02*
X91962742Y-126277500D01*
X92437258Y-127322500D02*
X91962742Y-127322500D01*
%TD*%
M02*
