M48
; DRILL file KiCad 10.0.3 date 2026-06-08T14:59:51
; FORMAT={-:-/ absolute / metric / decimal}
; #@! TF.CreationDate,2026-06-08T14:59:51-04:00
; #@! TF.GenerationSoftware,Kicad,Pcbnew,10.0.3
; #@! TF.FileFunction,Plated,1,2,PTH
FMAT,2
METRIC
; #@! TA.AperFunction,Plated,PTH,ComponentDrill
T1C0.250
; #@! TA.AperFunction,Plated,PTH,ViaDrill
T2C0.300
; #@! TA.AperFunction,Plated,PTH,ComponentDrill
T3C0.750
; #@! TA.AperFunction,Plated,PTH,ComponentDrill
T4C1.000
%
G90
G05
T1
X88.3Y-127.65
X89.3Y-127.65
T2
X86.375Y-121.8
X86.5Y-100.4
X86.5Y-104.5
X86.5Y-108.3
X86.5Y-116.7
X86.5Y-119.3
X87.0Y-102.5
X87.6Y-118.5
X89.65Y-129.9
X89.925Y-120.603
X90.288Y-126.512
X90.3Y-123.8
X90.3Y-129.0
X90.7Y-103.7
X90.8Y-104.8
X90.9Y-112.5
X90.95Y-127.786
X91.2Y-119.4
X91.3Y-109.7
X91.8Y-134.6
X91.9Y-132.3
X91.9Y-139.9
X92.582Y-118.418
X92.6Y-128.0
X92.8Y-141.0
X92.9Y-100.3
X92.9Y-103.4
X93.4Y-116.4
X93.5Y-124.4
X93.5Y-139.0
X93.7Y-121.9
X93.9Y-111.0
X93.9Y-128.0
X95.0Y-141.0
X95.3Y-129.9
X95.6Y-133.2
X95.6Y-137.3
X95.974Y-131.474
X96.1Y-144.4
X96.8Y-122.6
X97.0Y-124.2
X97.2Y-139.8
X97.866Y-121.956
X97.9Y-120.9
X98.2Y-133.8
X98.3Y-139.8
X99.2Y-109.9
X100.3Y-112.3
X100.3Y-116.0
X100.9Y-128.8
X101.7Y-101.7
X101.7Y-104.5
X102.4Y-112.0
X102.4Y-117.9
X103.0Y-109.8
X103.6Y-114.945
T3
X101.8Y-124.4
X101.8Y-126.4
T4
X87.33Y-131.4
X87.33Y-135.2
X89.87Y-131.4
X89.87Y-135.2
X103.93Y-133.0
X103.93Y-136.8
X106.47Y-133.0
X106.47Y-136.8
M30
