%TF.GenerationSoftware,KiCad,Pcbnew,10.0.0*%
%TF.CreationDate,2026-06-19T00:55:50-04:00*%
%TF.ProjectId,PMDS-motor-drivers,504d4453-2d6d-46f7-946f-722d64726976,rev?*%
%TF.SameCoordinates,Original*%
%TF.FileFunction,Legend,Top*%
%TF.FilePolarity,Positive*%
%FSLAX46Y46*%
G04 Gerber Fmt 4.6, Leading zero omitted, Abs format (unit mm)*
G04 Created by KiCad (PCBNEW 10.0.0) date 2026-06-19 00:55:50*
%MOMM*%
%LPD*%
G01*
G04 APERTURE LIST*
G04 Aperture macros list*
%AMRoundRect*
0 Rectangle with rounded corners*
0 $1 Rounding radius*
0 $2 $3 $4 $5 $6 $7 $8 $9 X,Y pos of 4 corners*
0 Add a 4 corners polygon primitive as box body*
4,1,4,$2,$3,$4,$5,$6,$7,$8,$9,$2,$3,0*
0 Add four circle primitives for the rounded corners*
1,1,$1+$1,$2,$3*
1,1,$1+$1,$4,$5*
1,1,$1+$1,$6,$7*
1,1,$1+$1,$8,$9*
0 Add four rect primitives between the rounded corners*
20,1,$1+$1,$2,$3,$4,$5,0*
20,1,$1+$1,$4,$5,$6,$7,0*
20,1,$1+$1,$6,$7,$8,$9,0*
20,1,$1+$1,$8,$9,$2,$3,0*%
G04 Aperture macros list end*
%ADD10C,0.100000*%
%ADD11C,0.500000*%
%ADD12C,0.150000*%
%ADD13C,0.120000*%
%ADD14C,0.127000*%
%ADD15C,0.200000*%
%ADD16RoundRect,0.218750X0.218750X0.256250X-0.218750X0.256250X-0.218750X-0.256250X0.218750X-0.256250X0*%
%ADD17RoundRect,0.225000X-0.225000X-0.250000X0.225000X-0.250000X0.225000X0.250000X-0.225000X0.250000X0*%
%ADD18C,2.000000*%
%ADD19RoundRect,0.225000X-0.250000X0.225000X-0.250000X-0.225000X0.250000X-0.225000X0.250000X0.225000X0*%
%ADD20RoundRect,0.250000X0.550000X0.550000X-0.550000X0.550000X-0.550000X-0.550000X0.550000X-0.550000X0*%
%ADD21C,1.600000*%
%ADD22RoundRect,0.237500X-0.237500X0.250000X-0.237500X-0.250000X0.237500X-0.250000X0.237500X0.250000X0*%
%ADD23R,1.700000X1.700000*%
%ADD24C,1.700000*%
%ADD25RoundRect,0.218750X0.256250X-0.218750X0.256250X0.218750X-0.256250X0.218750X-0.256250X-0.218750X0*%
%ADD26RoundRect,0.225000X0.225000X0.250000X-0.225000X0.250000X-0.225000X-0.250000X0.225000X-0.250000X0*%
%ADD27RoundRect,0.225000X0.250000X-0.225000X0.250000X0.225000X-0.250000X0.225000X-0.250000X-0.225000X0*%
%ADD28RoundRect,0.250000X-0.750000X0.750000X-0.750000X-0.750000X0.750000X-0.750000X0.750000X0.750000X0*%
%ADD29RoundRect,0.250000X0.750000X-0.750000X0.750000X0.750000X-0.750000X0.750000X-0.750000X-0.750000X0*%
%ADD30C,1.000000*%
%ADD31RoundRect,0.102000X0.350000X0.800000X-0.350000X0.800000X-0.350000X-0.800000X0.350000X-0.800000X0*%
%ADD32RoundRect,0.102000X0.600000X0.900000X-0.600000X0.900000X-0.600000X-0.900000X0.600000X-0.900000X0*%
%ADD33RoundRect,0.102000X0.800000X0.750000X-0.800000X0.750000X-0.800000X-0.750000X0.800000X-0.750000X0*%
%ADD34RoundRect,0.102000X0.600000X1.100000X-0.600000X1.100000X-0.600000X-1.100000X0.600000X-1.100000X0*%
%ADD35R,0.900000X2.000000*%
%ADD36RoundRect,1.025000X1.025000X1.025000X-1.025000X1.025000X-1.025000X-1.025000X1.025000X-1.025000X0*%
%ADD37C,4.100000*%
%ADD38R,2.300000X1.300000*%
%ADD39R,0.550000X0.950000*%
%ADD40RoundRect,0.250000X0.550000X-0.550000X0.550000X0.550000X-0.550000X0.550000X-0.550000X-0.550000X0*%
%ADD41RoundRect,0.393701X0.606299X-1.106299X0.606299X1.106299X-0.606299X1.106299X-0.606299X-1.106299X0*%
%ADD42RoundRect,0.250000X0.385000X-1.020000X0.385000X1.020000X-0.385000X1.020000X-0.385000X-1.020000X0*%
G04 APERTURE END LIST*
D10*
X175611027Y-72142657D02*
X175801503Y-71999800D01*
X175801503Y-71999800D02*
X175991979Y-72142657D01*
X176325313Y-72047419D02*
X176325313Y-72856942D01*
X176325313Y-72856942D02*
X176372932Y-72952180D01*
X176372932Y-72952180D02*
X176420551Y-72999800D01*
X176420551Y-72999800D02*
X176515789Y-73047419D01*
X176515789Y-73047419D02*
X176706265Y-73047419D01*
X176706265Y-73047419D02*
X176801503Y-72999800D01*
X176801503Y-72999800D02*
X176849122Y-72952180D01*
X176849122Y-72952180D02*
X176896741Y-72856942D01*
X176896741Y-72856942D02*
X176896741Y-72047419D01*
X177325313Y-72999800D02*
X177468170Y-73047419D01*
X177468170Y-73047419D02*
X177706265Y-73047419D01*
X177706265Y-73047419D02*
X177801503Y-72999800D01*
X177801503Y-72999800D02*
X177849122Y-72952180D01*
X177849122Y-72952180D02*
X177896741Y-72856942D01*
X177896741Y-72856942D02*
X177896741Y-72761704D01*
X177896741Y-72761704D02*
X177849122Y-72666466D01*
X177849122Y-72666466D02*
X177801503Y-72618847D01*
X177801503Y-72618847D02*
X177706265Y-72571228D01*
X177706265Y-72571228D02*
X177515789Y-72523609D01*
X177515789Y-72523609D02*
X177420551Y-72475990D01*
X177420551Y-72475990D02*
X177372932Y-72428371D01*
X177372932Y-72428371D02*
X177325313Y-72333133D01*
X177325313Y-72333133D02*
X177325313Y-72237895D01*
X177325313Y-72237895D02*
X177372932Y-72142657D01*
X177372932Y-72142657D02*
X177420551Y-72095038D01*
X177420551Y-72095038D02*
X177515789Y-72047419D01*
X177515789Y-72047419D02*
X177753884Y-72047419D01*
X177753884Y-72047419D02*
X177896741Y-72095038D01*
X178658646Y-72523609D02*
X178801503Y-72571228D01*
X178801503Y-72571228D02*
X178849122Y-72618847D01*
X178849122Y-72618847D02*
X178896741Y-72714085D01*
X178896741Y-72714085D02*
X178896741Y-72856942D01*
X178896741Y-72856942D02*
X178849122Y-72952180D01*
X178849122Y-72952180D02*
X178801503Y-72999800D01*
X178801503Y-72999800D02*
X178706265Y-73047419D01*
X178706265Y-73047419D02*
X178325313Y-73047419D01*
X178325313Y-73047419D02*
X178325313Y-72047419D01*
X178325313Y-72047419D02*
X178658646Y-72047419D01*
X178658646Y-72047419D02*
X178753884Y-72095038D01*
X178753884Y-72095038D02*
X178801503Y-72142657D01*
X178801503Y-72142657D02*
X178849122Y-72237895D01*
X178849122Y-72237895D02*
X178849122Y-72333133D01*
X178849122Y-72333133D02*
X178801503Y-72428371D01*
X178801503Y-72428371D02*
X178753884Y-72475990D01*
X178753884Y-72475990D02*
X178658646Y-72523609D01*
X178658646Y-72523609D02*
X178325313Y-72523609D01*
X179182456Y-72142657D02*
X179372932Y-71999800D01*
X179372932Y-71999800D02*
X179563408Y-72142657D01*
D11*
X211393232Y-116664000D02*
X213678947Y-116664000D01*
X212536089Y-117806857D02*
X212536089Y-115521142D01*
X212639000Y-108076767D02*
X212639000Y-105791053D01*
D12*
X200048095Y-128294819D02*
X200048095Y-129104342D01*
X200048095Y-129104342D02*
X200095714Y-129199580D01*
X200095714Y-129199580D02*
X200143333Y-129247200D01*
X200143333Y-129247200D02*
X200238571Y-129294819D01*
X200238571Y-129294819D02*
X200429047Y-129294819D01*
X200429047Y-129294819D02*
X200524285Y-129247200D01*
X200524285Y-129247200D02*
X200571904Y-129199580D01*
X200571904Y-129199580D02*
X200619523Y-129104342D01*
X200619523Y-129104342D02*
X200619523Y-128294819D01*
X201524285Y-128628152D02*
X201524285Y-129294819D01*
X201286190Y-128247200D02*
X201048095Y-128961485D01*
X201048095Y-128961485D02*
X201667142Y-128961485D01*
X169796666Y-72184819D02*
X169796666Y-72899104D01*
X169796666Y-72899104D02*
X169749047Y-73041961D01*
X169749047Y-73041961D02*
X169653809Y-73137200D01*
X169653809Y-73137200D02*
X169510952Y-73184819D01*
X169510952Y-73184819D02*
X169415714Y-73184819D01*
X170796666Y-73184819D02*
X170225238Y-73184819D01*
X170510952Y-73184819D02*
X170510952Y-72184819D01*
X170510952Y-72184819D02*
X170415714Y-72327676D01*
X170415714Y-72327676D02*
X170320476Y-72422914D01*
X170320476Y-72422914D02*
X170225238Y-72470533D01*
X207809819Y-112363333D02*
X208524104Y-112363333D01*
X208524104Y-112363333D02*
X208666961Y-112410952D01*
X208666961Y-112410952D02*
X208762200Y-112506190D01*
X208762200Y-112506190D02*
X208809819Y-112649047D01*
X208809819Y-112649047D02*
X208809819Y-112744285D01*
X208238390Y-111744285D02*
X208190771Y-111839523D01*
X208190771Y-111839523D02*
X208143152Y-111887142D01*
X208143152Y-111887142D02*
X208047914Y-111934761D01*
X208047914Y-111934761D02*
X208000295Y-111934761D01*
X208000295Y-111934761D02*
X207905057Y-111887142D01*
X207905057Y-111887142D02*
X207857438Y-111839523D01*
X207857438Y-111839523D02*
X207809819Y-111744285D01*
X207809819Y-111744285D02*
X207809819Y-111553809D01*
X207809819Y-111553809D02*
X207857438Y-111458571D01*
X207857438Y-111458571D02*
X207905057Y-111410952D01*
X207905057Y-111410952D02*
X208000295Y-111363333D01*
X208000295Y-111363333D02*
X208047914Y-111363333D01*
X208047914Y-111363333D02*
X208143152Y-111410952D01*
X208143152Y-111410952D02*
X208190771Y-111458571D01*
X208190771Y-111458571D02*
X208238390Y-111553809D01*
X208238390Y-111553809D02*
X208238390Y-111744285D01*
X208238390Y-111744285D02*
X208286009Y-111839523D01*
X208286009Y-111839523D02*
X208333628Y-111887142D01*
X208333628Y-111887142D02*
X208428866Y-111934761D01*
X208428866Y-111934761D02*
X208619342Y-111934761D01*
X208619342Y-111934761D02*
X208714580Y-111887142D01*
X208714580Y-111887142D02*
X208762200Y-111839523D01*
X208762200Y-111839523D02*
X208809819Y-111744285D01*
X208809819Y-111744285D02*
X208809819Y-111553809D01*
X208809819Y-111553809D02*
X208762200Y-111458571D01*
X208762200Y-111458571D02*
X208714580Y-111410952D01*
X208714580Y-111410952D02*
X208619342Y-111363333D01*
X208619342Y-111363333D02*
X208428866Y-111363333D01*
X208428866Y-111363333D02*
X208333628Y-111410952D01*
X208333628Y-111410952D02*
X208286009Y-111458571D01*
X208286009Y-111458571D02*
X208238390Y-111553809D01*
X191146666Y-161894819D02*
X191146666Y-162609104D01*
X191146666Y-162609104D02*
X191099047Y-162751961D01*
X191099047Y-162751961D02*
X191003809Y-162847200D01*
X191003809Y-162847200D02*
X190860952Y-162894819D01*
X190860952Y-162894819D02*
X190765714Y-162894819D01*
X192051428Y-162228152D02*
X192051428Y-162894819D01*
X191813333Y-161847200D02*
X191575238Y-162561485D01*
X191575238Y-162561485D02*
X192194285Y-162561485D01*
X185008571Y-143154700D02*
X186151429Y-143154700D01*
X185580000Y-143726128D02*
X185580000Y-142583271D01*
X197308571Y-143154700D02*
X198451429Y-143154700D01*
X195036666Y-112504819D02*
X195036666Y-113219104D01*
X195036666Y-113219104D02*
X194989047Y-113361961D01*
X194989047Y-113361961D02*
X194893809Y-113457200D01*
X194893809Y-113457200D02*
X194750952Y-113504819D01*
X194750952Y-113504819D02*
X194655714Y-113504819D01*
X195417619Y-112504819D02*
X196036666Y-112504819D01*
X196036666Y-112504819D02*
X195703333Y-112885771D01*
X195703333Y-112885771D02*
X195846190Y-112885771D01*
X195846190Y-112885771D02*
X195941428Y-112933390D01*
X195941428Y-112933390D02*
X195989047Y-112981009D01*
X195989047Y-112981009D02*
X196036666Y-113076247D01*
X196036666Y-113076247D02*
X196036666Y-113314342D01*
X196036666Y-113314342D02*
X195989047Y-113409580D01*
X195989047Y-113409580D02*
X195941428Y-113457200D01*
X195941428Y-113457200D02*
X195846190Y-113504819D01*
X195846190Y-113504819D02*
X195560476Y-113504819D01*
X195560476Y-113504819D02*
X195465238Y-113457200D01*
X195465238Y-113457200D02*
X195417619Y-113409580D01*
X200048095Y-140844819D02*
X200048095Y-141654342D01*
X200048095Y-141654342D02*
X200095714Y-141749580D01*
X200095714Y-141749580D02*
X200143333Y-141797200D01*
X200143333Y-141797200D02*
X200238571Y-141844819D01*
X200238571Y-141844819D02*
X200429047Y-141844819D01*
X200429047Y-141844819D02*
X200524285Y-141797200D01*
X200524285Y-141797200D02*
X200571904Y-141749580D01*
X200571904Y-141749580D02*
X200619523Y-141654342D01*
X200619523Y-141654342D02*
X200619523Y-140844819D01*
X201619523Y-141844819D02*
X201048095Y-141844819D01*
X201333809Y-141844819D02*
X201333809Y-140844819D01*
X201333809Y-140844819D02*
X201238571Y-140987676D01*
X201238571Y-140987676D02*
X201143333Y-141082914D01*
X201143333Y-141082914D02*
X201048095Y-141130533D01*
X175309700Y-147108332D02*
X175357319Y-146965475D01*
X175357319Y-146965475D02*
X175357319Y-146727380D01*
X175357319Y-146727380D02*
X175309700Y-146632142D01*
X175309700Y-146632142D02*
X175262080Y-146584523D01*
X175262080Y-146584523D02*
X175166842Y-146536904D01*
X175166842Y-146536904D02*
X175071604Y-146536904D01*
X175071604Y-146536904D02*
X174976366Y-146584523D01*
X174976366Y-146584523D02*
X174928747Y-146632142D01*
X174928747Y-146632142D02*
X174881128Y-146727380D01*
X174881128Y-146727380D02*
X174833509Y-146917856D01*
X174833509Y-146917856D02*
X174785890Y-147013094D01*
X174785890Y-147013094D02*
X174738271Y-147060713D01*
X174738271Y-147060713D02*
X174643033Y-147108332D01*
X174643033Y-147108332D02*
X174547795Y-147108332D01*
X174547795Y-147108332D02*
X174452557Y-147060713D01*
X174452557Y-147060713D02*
X174404938Y-147013094D01*
X174404938Y-147013094D02*
X174357319Y-146917856D01*
X174357319Y-146917856D02*
X174357319Y-146679761D01*
X174357319Y-146679761D02*
X174404938Y-146536904D01*
X174357319Y-146203570D02*
X175357319Y-145965475D01*
X175357319Y-145965475D02*
X174643033Y-145774999D01*
X174643033Y-145774999D02*
X175357319Y-145584523D01*
X175357319Y-145584523D02*
X174357319Y-145346428D01*
X174690652Y-144536904D02*
X175357319Y-144536904D01*
X174309700Y-144774999D02*
X175023985Y-145013094D01*
X175023985Y-145013094D02*
X175023985Y-144394047D01*
X185036666Y-112504819D02*
X185036666Y-113219104D01*
X185036666Y-113219104D02*
X184989047Y-113361961D01*
X184989047Y-113361961D02*
X184893809Y-113457200D01*
X184893809Y-113457200D02*
X184750952Y-113504819D01*
X184750952Y-113504819D02*
X184655714Y-113504819D01*
X185465238Y-112600057D02*
X185512857Y-112552438D01*
X185512857Y-112552438D02*
X185608095Y-112504819D01*
X185608095Y-112504819D02*
X185846190Y-112504819D01*
X185846190Y-112504819D02*
X185941428Y-112552438D01*
X185941428Y-112552438D02*
X185989047Y-112600057D01*
X185989047Y-112600057D02*
X186036666Y-112695295D01*
X186036666Y-112695295D02*
X186036666Y-112790533D01*
X186036666Y-112790533D02*
X185989047Y-112933390D01*
X185989047Y-112933390D02*
X185417619Y-113504819D01*
X185417619Y-113504819D02*
X186036666Y-113504819D01*
%TO.C,D3*%
D13*
X199812500Y-85985000D02*
X202097500Y-85985000D01*
X202097500Y-84515000D02*
X199812500Y-84515000D01*
X202097500Y-85985000D02*
X202097500Y-84515000D01*
%TO.C,C3*%
X176834420Y-114090000D02*
X177115580Y-114090000D01*
X176834420Y-115110000D02*
X177115580Y-115110000D01*
%TO.C,SW1*%
X201800000Y-56725000D02*
X201800000Y-61225000D01*
X204300000Y-62475000D02*
X205800000Y-62475000D01*
X205800000Y-55475000D02*
X204300000Y-55475000D01*
X208300000Y-61225000D02*
X208300000Y-56725000D01*
%TO.C,SW2*%
X201800000Y-66350000D02*
X201800000Y-70850000D01*
X204300000Y-72100000D02*
X205800000Y-72100000D01*
X205800000Y-65100000D02*
X204300000Y-65100000D01*
X208300000Y-70850000D02*
X208300000Y-66350000D01*
%TO.C,C5*%
X172115000Y-78109420D02*
X172115000Y-78390580D01*
X173135000Y-78109420D02*
X173135000Y-78390580D01*
%TO.C,U4*%
X198160000Y-117560000D02*
X198160000Y-127840000D01*
X198160000Y-127840000D02*
X199810000Y-127840000D01*
X201810000Y-127840000D02*
X203460000Y-127840000D01*
X203460000Y-117560000D02*
X198160000Y-117560000D01*
X203460000Y-127840000D02*
X203460000Y-117560000D01*
X199810000Y-127840000D02*
G75*
G02*
X201810000Y-127840000I1000000J0D01*
G01*
%TO.C,R3*%
X199277500Y-82207776D02*
X199277500Y-82717224D01*
X200322500Y-82207776D02*
X200322500Y-82717224D01*
%TO.C,C8*%
X197290000Y-72621920D02*
X197290000Y-72903080D01*
X198310000Y-72621920D02*
X198310000Y-72903080D01*
%TO.C,J1*%
X168750000Y-73730000D02*
X170130000Y-73730000D01*
X168750000Y-75110000D02*
X168750000Y-73730000D01*
X168750000Y-76380000D02*
X168750000Y-112050000D01*
X168750000Y-76380000D02*
X171510000Y-76380000D01*
X168750000Y-112050000D02*
X171510000Y-112050000D01*
X171510000Y-76380000D02*
X171510000Y-112050000D01*
%TO.C,D2*%
X199065000Y-75562500D02*
X199065000Y-77847500D01*
X199065000Y-77847500D02*
X200535000Y-77847500D01*
X200535000Y-77847500D02*
X200535000Y-75562500D01*
%TO.C,C7*%
X175490000Y-79834420D02*
X175490000Y-80115580D01*
X176510000Y-79834420D02*
X176510000Y-80115580D01*
%TO.C,C2*%
X176990580Y-137365000D02*
X176709420Y-137365000D01*
X176990580Y-138385000D02*
X176709420Y-138385000D01*
%TO.C,C4*%
X172640000Y-110090580D02*
X172640000Y-109809420D01*
X173660000Y-110090580D02*
X173660000Y-109809420D01*
%TO.C,SW3*%
X201800000Y-76050000D02*
X201800000Y-80550000D01*
X204300000Y-81800000D02*
X205800000Y-81800000D01*
X205800000Y-74800000D02*
X204300000Y-74800000D01*
X208300000Y-80550000D02*
X208300000Y-76050000D01*
%TO.C,C12*%
X207615000Y-135164420D02*
X207615000Y-135445580D01*
X208635000Y-135164420D02*
X208635000Y-135445580D01*
%TO.C,J7*%
X210090000Y-119820000D02*
X216830000Y-119820000D01*
X210090000Y-121160000D02*
X210090000Y-119820000D01*
X210090000Y-125640000D02*
X210090000Y-121760000D01*
X211010000Y-119820000D02*
X211010000Y-125640000D01*
X212010000Y-119820000D02*
X212010000Y-125640000D01*
X215110000Y-119820000D02*
X215110000Y-125640000D01*
X216830000Y-119820000D02*
X216830000Y-125640000D01*
X216830000Y-125640000D02*
X210090000Y-125640000D01*
X210090000Y-121460000D02*
X209480000Y-121900000D01*
X209480000Y-121020000D01*
X210090000Y-121460000D01*
G36*
X210090000Y-121460000D02*
G01*
X209480000Y-121900000D01*
X209480000Y-121020000D01*
X210090000Y-121460000D01*
G37*
%TO.C,J8*%
X209355000Y-109120000D02*
X216095000Y-109120000D01*
X209355000Y-114940000D02*
X209355000Y-109120000D01*
X211075000Y-114940000D02*
X211075000Y-109120000D01*
X214175000Y-114940000D02*
X214175000Y-109120000D01*
X215175000Y-114940000D02*
X215175000Y-109120000D01*
X216095000Y-109120000D02*
X216095000Y-113000000D01*
X216095000Y-113600000D02*
X216095000Y-114940000D01*
X216095000Y-114940000D02*
X209355000Y-114940000D01*
X216705000Y-113740000D02*
X216095000Y-113300000D01*
X216705000Y-112860000D01*
X216705000Y-113740000D01*
G36*
X216705000Y-113740000D02*
G01*
X216095000Y-113300000D01*
X216705000Y-112860000D01*
X216705000Y-113740000D01*
G37*
%TO.C,R2*%
X199277500Y-72507776D02*
X199277500Y-73017224D01*
X200322500Y-72507776D02*
X200322500Y-73017224D01*
%TO.C,D1*%
X199065000Y-65937500D02*
X199065000Y-68222500D01*
X199065000Y-68222500D02*
X200535000Y-68222500D01*
X200535000Y-68222500D02*
X200535000Y-65937500D01*
%TO.C,J6*%
D14*
X177025000Y-57230000D02*
X177025000Y-54250000D01*
X177025000Y-67130000D02*
X177025000Y-60070000D01*
X178670000Y-68750000D02*
X181480000Y-68750000D01*
X191775000Y-54250000D02*
X177025000Y-54250000D01*
X191775000Y-57230000D02*
X191775000Y-54250000D01*
X191775000Y-66730000D02*
X191775000Y-60070000D01*
D15*
X182250000Y-70600000D02*
G75*
G02*
X182050000Y-70600000I-100000J0D01*
G01*
X182050000Y-70600000D02*
G75*
G02*
X182250000Y-70600000I100000J0D01*
G01*
%TO.C,C9*%
D13*
X197290000Y-62996920D02*
X197290000Y-63278080D01*
X198310000Y-62996920D02*
X198310000Y-63278080D01*
%TO.C,J5*%
X210080000Y-132400000D02*
X216820000Y-132400000D01*
X210080000Y-133740000D02*
X210080000Y-132400000D01*
X210080000Y-138220000D02*
X210080000Y-134340000D01*
X211000000Y-132400000D02*
X211000000Y-138220000D01*
X212000000Y-132400000D02*
X212000000Y-138220000D01*
X215100000Y-132400000D02*
X215100000Y-138220000D01*
X216820000Y-132400000D02*
X216820000Y-138220000D01*
X216820000Y-138220000D02*
X210080000Y-138220000D01*
X210080000Y-134040000D02*
X209470000Y-134480000D01*
X209470000Y-133600000D01*
X210080000Y-134040000D01*
G36*
X210080000Y-134040000D02*
G01*
X209470000Y-134480000D01*
X209470000Y-133600000D01*
X210080000Y-134040000D01*
G37*
%TO.C,C10*%
X197290000Y-82321920D02*
X197290000Y-82603080D01*
X198310000Y-82321920D02*
X198310000Y-82603080D01*
%TO.C,R1*%
X199277500Y-62882776D02*
X199277500Y-63392224D01*
X200322500Y-62882776D02*
X200322500Y-63392224D01*
%TO.C,J4*%
X183620000Y-161400000D02*
X183620000Y-147090000D01*
X185830000Y-143880000D02*
X185160000Y-143880000D01*
X192770000Y-143880000D02*
X189980000Y-143880000D01*
X197790000Y-143880000D02*
X197390000Y-143880000D01*
X199340000Y-161400000D02*
X183620000Y-161400000D01*
X199340000Y-161400000D02*
X199340000Y-147090000D01*
X183620000Y-147090000D02*
G75*
G02*
X185160253Y-143882431I4110000J0D01*
G01*
X197798715Y-143881605D02*
G75*
G02*
X199340000Y-147090000I-2568716J-3208396D01*
G01*
%TO.C,J3*%
X193990000Y-109400000D02*
X193990000Y-86430000D01*
X196750000Y-86430000D02*
X193990000Y-86430000D01*
X196750000Y-109400000D02*
X193990000Y-109400000D01*
X196750000Y-109400000D02*
X196750000Y-86430000D01*
X196750000Y-110670000D02*
X196750000Y-112050000D01*
X196750000Y-112050000D02*
X195370000Y-112050000D01*
%TO.C,U1*%
X198160000Y-130110000D02*
X198160000Y-140390000D01*
X198160000Y-140390000D02*
X199810000Y-140390000D01*
X201810000Y-140390000D02*
X203460000Y-140390000D01*
X203460000Y-130110000D02*
X198160000Y-130110000D01*
X203460000Y-140390000D02*
X203460000Y-130110000D01*
X199810000Y-140390000D02*
G75*
G02*
X201810000Y-140390000I1000000J0D01*
G01*
%TO.C,C6*%
X197490000Y-111540580D02*
X197490000Y-111259420D01*
X198510000Y-111540580D02*
X198510000Y-111259420D01*
%TO.C,U3*%
X175250000Y-74700000D02*
X175750000Y-74700000D01*
X175250000Y-75200000D02*
X175250000Y-74700000D01*
X175250000Y-77700000D02*
X175250000Y-76950000D01*
X179950000Y-74700000D02*
X180450000Y-74700000D01*
X180450000Y-74700000D02*
X180450000Y-75200000D01*
X180450000Y-77500000D02*
X180450000Y-78000000D01*
X180450000Y-78000000D02*
X179950000Y-78000000D01*
X175250000Y-78260000D02*
X174890000Y-77900000D01*
X175250000Y-77900000D01*
X175250000Y-78260000D01*
G36*
X175250000Y-78260000D02*
G01*
X174890000Y-77900000D01*
X175250000Y-77900000D01*
X175250000Y-78260000D01*
G37*
%TO.C,SW4*%
X175662500Y-151475000D02*
X175662500Y-150092000D01*
X175662500Y-151475000D02*
X177045500Y-151475000D01*
X175902500Y-140315000D02*
X180122500Y-140315000D01*
X175902500Y-151235000D02*
X175902500Y-140315000D01*
X175902500Y-151235000D02*
X180122500Y-151235000D01*
X177202500Y-151235000D02*
X178822500Y-151235000D01*
X177202500Y-153095000D02*
X177202500Y-151235000D01*
X178822500Y-151235000D02*
X178822500Y-153095000D01*
X178822500Y-153095000D02*
X177202500Y-153095000D01*
X180122500Y-151235000D02*
X180122500Y-140315000D01*
%TO.C,C1*%
X207715000Y-122609420D02*
X207715000Y-122890580D01*
X208735000Y-122609420D02*
X208735000Y-122890580D01*
%TO.C,J2*%
X183990000Y-109400000D02*
X183990000Y-73730000D01*
X186750000Y-73730000D02*
X183990000Y-73730000D01*
X186750000Y-109400000D02*
X183990000Y-109400000D01*
X186750000Y-109400000D02*
X186750000Y-73730000D01*
X186750000Y-110670000D02*
X186750000Y-112050000D01*
X186750000Y-112050000D02*
X185370000Y-112050000D01*
%TO.C,C11*%
X186365580Y-71940000D02*
X186084420Y-71940000D01*
X186365580Y-72960000D02*
X186084420Y-72960000D01*
%TD*%
%LPC*%
D16*
%TO.C,D3*%
X201400000Y-85250000D03*
X199825000Y-85250000D03*
%TD*%
D17*
%TO.C,C3*%
X176200000Y-114600000D03*
X177750000Y-114600000D03*
%TD*%
D18*
%TO.C,SW1*%
X207300000Y-55725000D03*
X207300000Y-62225000D03*
X202800000Y-55725000D03*
X202800000Y-62225000D03*
%TD*%
%TO.C,SW2*%
X207300000Y-65350000D03*
X207300000Y-71850000D03*
X202800000Y-65350000D03*
X202800000Y-71850000D03*
%TD*%
D19*
%TO.C,C5*%
X172625000Y-77475000D03*
X172625000Y-79025000D03*
%TD*%
D20*
%TO.C,U4*%
X204620000Y-126510000D03*
D21*
X204620000Y-123970000D03*
X204620000Y-121430000D03*
X204620000Y-118890000D03*
X197000000Y-118890000D03*
X197000000Y-121430000D03*
X197000000Y-123970000D03*
X197000000Y-126510000D03*
%TD*%
D22*
%TO.C,R3*%
X199800000Y-81550000D03*
X199800000Y-83375000D03*
%TD*%
D19*
%TO.C,C8*%
X197800000Y-71987500D03*
X197800000Y-73537500D03*
%TD*%
D23*
%TO.C,J1*%
X170130000Y-75110000D03*
D24*
X170130000Y-77650000D03*
X170130000Y-80190000D03*
X170130000Y-82730000D03*
X170130000Y-85270000D03*
X170130000Y-87810000D03*
X170130000Y-90350000D03*
X170130000Y-92890000D03*
X170130000Y-95430000D03*
X170130000Y-97970000D03*
X170130000Y-100510000D03*
X170130000Y-103050000D03*
X170130000Y-105590000D03*
X170130000Y-108130000D03*
X170130000Y-110670000D03*
%TD*%
D25*
%TO.C,D2*%
X199800000Y-77150000D03*
X199800000Y-75575000D03*
%TD*%
D19*
%TO.C,C7*%
X176000000Y-79200000D03*
X176000000Y-80750000D03*
%TD*%
D26*
%TO.C,C2*%
X177625000Y-137875000D03*
X176075000Y-137875000D03*
%TD*%
D27*
%TO.C,C4*%
X173150000Y-110725000D03*
X173150000Y-109175000D03*
%TD*%
D18*
%TO.C,SW3*%
X207300000Y-75050000D03*
X207300000Y-81550000D03*
X202800000Y-75050000D03*
X202800000Y-81550000D03*
%TD*%
D19*
%TO.C,C12*%
X208125000Y-134530000D03*
X208125000Y-136080000D03*
%TD*%
D28*
%TO.C,J7*%
X213610000Y-121460000D03*
D18*
X213610000Y-124000000D03*
%TD*%
D29*
%TO.C,J8*%
X212575000Y-113300000D03*
D18*
X212575000Y-110760000D03*
%TD*%
D22*
%TO.C,R2*%
X199800000Y-71850000D03*
X199800000Y-73675000D03*
%TD*%
D25*
%TO.C,D1*%
X199800000Y-67525000D03*
X199800000Y-65950000D03*
%TD*%
D30*
%TO.C,J6*%
X189350000Y-58250000D03*
X181350000Y-58250000D03*
D31*
X182150000Y-69250000D03*
X183250000Y-69250000D03*
X184350000Y-69250000D03*
X185450000Y-69250000D03*
X186550000Y-69250000D03*
X187650000Y-69250000D03*
X188750000Y-69250000D03*
X189850000Y-69250000D03*
X190950000Y-69250000D03*
D32*
X192150000Y-67950000D03*
D33*
X177550000Y-68200000D03*
D34*
X192150000Y-58650000D03*
X176650000Y-58650000D03*
%TD*%
D19*
%TO.C,C9*%
X197800000Y-62362500D03*
X197800000Y-63912500D03*
%TD*%
D28*
%TO.C,J5*%
X213600000Y-134040000D03*
D18*
X213600000Y-136580000D03*
%TD*%
D19*
%TO.C,C10*%
X197800000Y-81687500D03*
X197800000Y-83237500D03*
%TD*%
D22*
%TO.C,R1*%
X199800000Y-62225000D03*
X199800000Y-64050000D03*
%TD*%
D35*
%TO.C,J4*%
X198230000Y-150940000D03*
X184730000Y-150940000D03*
D36*
X195080000Y-144940000D03*
D37*
X187880000Y-144940000D03*
D38*
X191480000Y-148590000D03*
%TD*%
D23*
%TO.C,J3*%
X195370000Y-110670000D03*
D24*
X195370000Y-108130000D03*
X195370000Y-105590000D03*
X195370000Y-103050000D03*
X195370000Y-100510000D03*
X195370000Y-97970000D03*
X195370000Y-95430000D03*
X195370000Y-92890000D03*
X195370000Y-90350000D03*
X195370000Y-87810000D03*
%TD*%
D20*
%TO.C,U1*%
X204620000Y-139060000D03*
D21*
X204620000Y-136520000D03*
X204620000Y-133980000D03*
X204620000Y-131440000D03*
X197000000Y-131440000D03*
X197000000Y-133980000D03*
X197000000Y-136520000D03*
X197000000Y-139060000D03*
%TD*%
D27*
%TO.C,C6*%
X198000000Y-112175000D03*
X198000000Y-110625000D03*
%TD*%
D39*
%TO.C,U3*%
X175975000Y-77425000D03*
X177225000Y-77425000D03*
X178475000Y-77425000D03*
X179725000Y-77425000D03*
X179725000Y-75275000D03*
X178475000Y-75275000D03*
X177225000Y-75275000D03*
X175975000Y-75275000D03*
%TD*%
D40*
%TO.C,SW4*%
X178012500Y-149585000D03*
D21*
X178012500Y-141965000D03*
%TD*%
D19*
%TO.C,C1*%
X208225000Y-121975000D03*
X208225000Y-123525000D03*
%TD*%
D23*
%TO.C,J2*%
X185370000Y-110670000D03*
D24*
X185370000Y-108130000D03*
X185370000Y-105590000D03*
X185370000Y-103050000D03*
X185370000Y-100510000D03*
X185370000Y-97970000D03*
X185370000Y-95430000D03*
X185370000Y-92890000D03*
X185370000Y-90350000D03*
X185370000Y-87810000D03*
X185370000Y-85270000D03*
X185370000Y-82730000D03*
X185370000Y-80190000D03*
X185370000Y-77650000D03*
X185370000Y-75110000D03*
%TD*%
D26*
%TO.C,C11*%
X187000000Y-72450000D03*
X185450000Y-72450000D03*
%TD*%
D41*
%TO.C,U2*%
X171850000Y-135500000D03*
X181100000Y-135500000D03*
D42*
X183600000Y-135500000D03*
D41*
X181100000Y-116750000D03*
X171850000Y-116750000D03*
%TD*%
%LPD*%
M02*
