%TF.GenerationSoftware,KiCad,Pcbnew,10.0.0*%
%TF.CreationDate,2026-06-19T00:55:50-04:00*%
%TF.ProjectId,PMDS-motor-drivers,504d4453-2d6d-46f7-946f-722d64726976,rev?*%
%TF.SameCoordinates,Original*%
%TF.FileFunction,Copper,L2,Bot*%
%TF.FilePolarity,Positive*%
%FSLAX46Y46*%
G04 Gerber Fmt 4.6, Leading zero omitted, Abs format (unit mm)*
G04 Created by KiCad (PCBNEW 10.0.0) date 2026-06-19 00:55:50*
%MOMM*%
%LPD*%
G01*
G04 APERTURE LIST*
G04 Aperture macros list*
%AMRoundRect*
0 Rectangle with rounded corners*
0 $1 Rounding radius*
0 $2 $3 $4 $5 $6 $7 $8 $9 X,Y pos of 4 corners*
0 Add a 4 corners polygon primitive as box body*
4,1,4,$2,$3,$4,$5,$6,$7,$8,$9,$2,$3,0*
0 Add four circle primitives for the rounded corners*
1,1,$1+$1,$2,$3*
1,1,$1+$1,$4,$5*
1,1,$1+$1,$6,$7*
1,1,$1+$1,$8,$9*
0 Add four rect primitives between the rounded corners*
20,1,$1+$1,$2,$3,$4,$5,0*
20,1,$1+$1,$4,$5,$6,$7,0*
20,1,$1+$1,$6,$7,$8,$9,0*
20,1,$1+$1,$8,$9,$2,$3,0*%
G04 Aperture macros list end*
%TA.AperFunction,ComponentPad*%
%ADD10C,2.000000*%
%TD*%
%TA.AperFunction,ComponentPad*%
%ADD11RoundRect,0.250000X0.550000X0.550000X-0.550000X0.550000X-0.550000X-0.550000X0.550000X-0.550000X0*%
%TD*%
%TA.AperFunction,ComponentPad*%
%ADD12C,1.600000*%
%TD*%
%TA.AperFunction,ComponentPad*%
%ADD13R,1.700000X1.700000*%
%TD*%
%TA.AperFunction,ComponentPad*%
%ADD14C,1.700000*%
%TD*%
%TA.AperFunction,ComponentPad*%
%ADD15RoundRect,0.250000X-0.750000X0.750000X-0.750000X-0.750000X0.750000X-0.750000X0.750000X0.750000X0*%
%TD*%
%TA.AperFunction,ComponentPad*%
%ADD16RoundRect,0.250000X0.750000X-0.750000X0.750000X0.750000X-0.750000X0.750000X-0.750000X-0.750000X0*%
%TD*%
%TA.AperFunction,ComponentPad*%
%ADD17R,0.900000X2.000000*%
%TD*%
%TA.AperFunction,ComponentPad*%
%ADD18RoundRect,1.025000X1.025000X1.025000X-1.025000X1.025000X-1.025000X-1.025000X1.025000X-1.025000X0*%
%TD*%
%TA.AperFunction,ComponentPad*%
%ADD19C,4.100000*%
%TD*%
%TA.AperFunction,ComponentPad*%
%ADD20R,2.300000X1.300000*%
%TD*%
%TA.AperFunction,ComponentPad*%
%ADD21RoundRect,0.250000X0.550000X-0.550000X0.550000X0.550000X-0.550000X0.550000X-0.550000X-0.550000X0*%
%TD*%
%TA.AperFunction,ComponentPad*%
%ADD22RoundRect,0.393701X0.606299X-1.106299X0.606299X1.106299X-0.606299X1.106299X-0.606299X-1.106299X0*%
%TD*%
%TA.AperFunction,ComponentPad*%
%ADD23RoundRect,0.250000X0.385000X-1.020000X0.385000X1.020000X-0.385000X1.020000X-0.385000X-1.020000X0*%
%TD*%
%TA.AperFunction,ViaPad*%
%ADD24C,0.600000*%
%TD*%
%TA.AperFunction,Conductor*%
%ADD25C,0.800000*%
%TD*%
%TA.AperFunction,Conductor*%
%ADD26C,0.200000*%
%TD*%
G04 APERTURE END LIST*
D10*
%TO.P,SW1,1,1_1*%
%TO.N,+5V*%
X207300000Y-55725000D03*
X207300000Y-62225000D03*
%TO.P,SW1,2,2_2*%
%TO.N,/Button_1*%
X202800000Y-55725000D03*
X202800000Y-62225000D03*
%TD*%
%TO.P,SW2,1,1_1*%
%TO.N,+5V*%
X207300000Y-65350000D03*
X207300000Y-71850000D03*
%TO.P,SW2,2,2_2*%
%TO.N,/Button_2*%
X202800000Y-65350000D03*
X202800000Y-71850000D03*
%TD*%
D11*
%TO.P,U4,1,OA_1*%
%TO.N,Net-(J7-Pin_2)*%
X204620000Y-126510000D03*
D12*
%TO.P,U4,2,VCC_2*%
%TO.N,+12V*%
X204620000Y-123970000D03*
%TO.P,U4,3,VCC_3*%
X204620000Y-121430000D03*
%TO.P,U4,4,OB_4*%
%TO.N,Net-(J7-Pin_1)*%
X204620000Y-118890000D03*
%TO.P,U4,5,GND_5*%
%TO.N,GND*%
X197000000Y-118890000D03*
%TO.P,U4,6,IA_6*%
%TO.N,/FWD_2*%
X197000000Y-121430000D03*
%TO.P,U4,7,IB_7*%
%TO.N,/REV_2*%
X197000000Y-123970000D03*
%TO.P,U4,8,GND_8*%
%TO.N,GND*%
X197000000Y-126510000D03*
%TD*%
D13*
%TO.P,J1,1,Pin_1_1*%
%TO.N,/SCLK*%
X170130000Y-75110000D03*
D14*
%TO.P,J1,2,Pin_2_2*%
%TO.N,+3V3*%
X170130000Y-77650000D03*
%TO.P,J1,3,Pin_3_3*%
%TO.N,unconnected-(J1-Pin_3-Pad3)*%
X170130000Y-80190000D03*
%TO.P,J1,4,Pin_4_4*%
%TO.N,/FWD_2*%
X170130000Y-82730000D03*
%TO.P,J1,5,Pin_5_5*%
%TO.N,/REV_2*%
X170130000Y-85270000D03*
%TO.P,J1,6,Pin_6_6*%
%TO.N,/FWD_1*%
X170130000Y-87810000D03*
%TO.P,J1,7,Pin_7_7*%
%TO.N,/REV_1*%
X170130000Y-90350000D03*
%TO.P,J1,8,Pin_8_8*%
%TO.N,unconnected-(J1-Pin_8-Pad8)*%
X170130000Y-92890000D03*
%TO.P,J1,9,Pin_9_9*%
%TO.N,unconnected-(J1-Pin_9-Pad9)*%
X170130000Y-95430000D03*
%TO.P,J1,10,Pin_10_10*%
%TO.N,unconnected-(J1-Pin_10-Pad10)*%
X170130000Y-97970000D03*
%TO.P,J1,11,Pin_11_11*%
%TO.N,unconnected-(J1-Pin_11-Pad11)*%
X170130000Y-100510000D03*
%TO.P,J1,12,Pin_12_12*%
%TO.N,unconnected-(J1-Pin_12-Pad12)*%
X170130000Y-103050000D03*
%TO.P,J1,13,Pin_13_13*%
%TO.N,unconnected-(J1-Pin_13-Pad13)*%
X170130000Y-105590000D03*
%TO.P,J1,14,Pin_14_14*%
%TO.N,GND*%
X170130000Y-108130000D03*
%TO.P,J1,15,Pin_15_15*%
%TO.N,+5V*%
X170130000Y-110670000D03*
%TD*%
D10*
%TO.P,SW3,1,1_1*%
%TO.N,+5V*%
X207300000Y-75050000D03*
X207300000Y-81550000D03*
%TO.P,SW3,2,2_2*%
%TO.N,/Button_3*%
X202800000Y-75050000D03*
X202800000Y-81550000D03*
%TD*%
D15*
%TO.P,J7,1,Pin_1_1*%
%TO.N,Net-(J7-Pin_1)*%
X213610000Y-121460000D03*
D10*
%TO.P,J7,2,Pin_2_2*%
%TO.N,Net-(J7-Pin_2)*%
X213610000Y-124000000D03*
%TD*%
D16*
%TO.P,J8,1,Pin_1_1*%
%TO.N,+12V*%
X212575000Y-113300000D03*
D10*
%TO.P,J8,2,Pin_2_2*%
%TO.N,GND*%
X212575000Y-110760000D03*
%TD*%
D15*
%TO.P,J5,1,Pin_1_1*%
%TO.N,Net-(J5-Pin_1)*%
X213600000Y-134040000D03*
D10*
%TO.P,J5,2,Pin_2_2*%
%TO.N,Net-(J5-Pin_2)*%
X213600000Y-136580000D03*
%TD*%
D17*
%TO.P,J4,*%
%TO.N,*%
X198230000Y-150940000D03*
X184730000Y-150940000D03*
D18*
%TO.P,J4,1,Pin_1_1*%
%TO.N,GND*%
X195080000Y-144940000D03*
D19*
%TO.P,J4,2,Pin_2_2*%
%TO.N,+12V*%
X187880000Y-144940000D03*
D20*
%TO.P,J4,3*%
%TO.N,N/C*%
X191480000Y-148590000D03*
%TD*%
D13*
%TO.P,J3,1,Pin_1_1*%
%TO.N,+5V*%
X195370000Y-110670000D03*
D14*
%TO.P,J3,2,Pin_2_2*%
%TO.N,GND*%
X195370000Y-108130000D03*
%TO.P,J3,3,Pin_3_3*%
%TO.N,/Arduino nano/D2*%
X195370000Y-105590000D03*
%TO.P,J3,4,Pin_4_4*%
%TO.N,/Arduino nano/D3*%
X195370000Y-103050000D03*
%TO.P,J3,5,Pin_5_5*%
%TO.N,GND*%
X195370000Y-100510000D03*
%TO.P,J3,6,Pin_6_6*%
X195370000Y-97970000D03*
%TO.P,J3,7,Pin_7_7*%
X195370000Y-95430000D03*
%TO.P,J3,8,Pin_8_8*%
%TO.N,unconnected-(J3-Pin_8-Pad8)*%
X195370000Y-92890000D03*
%TO.P,J3,9,Pin_9_9*%
%TO.N,unconnected-(J3-Pin_9-Pad9)*%
X195370000Y-90350000D03*
%TO.P,J3,10,Pin_10_10*%
%TO.N,unconnected-(J3-Pin_10-Pad10)*%
X195370000Y-87810000D03*
%TD*%
D11*
%TO.P,U1,1,OA_1*%
%TO.N,Net-(J5-Pin_2)*%
X204620000Y-139060000D03*
D12*
%TO.P,U1,2,VCC_2*%
%TO.N,+12V*%
X204620000Y-136520000D03*
%TO.P,U1,3,VCC_3*%
X204620000Y-133980000D03*
%TO.P,U1,4,OB_4*%
%TO.N,Net-(J5-Pin_1)*%
X204620000Y-131440000D03*
%TO.P,U1,5,GND_5*%
%TO.N,GND*%
X197000000Y-131440000D03*
%TO.P,U1,6,IA_6*%
%TO.N,/FWD_1*%
X197000000Y-133980000D03*
%TO.P,U1,7,IB_7*%
%TO.N,/REV_1*%
X197000000Y-136520000D03*
%TO.P,U1,8,GND_8*%
%TO.N,GND*%
X197000000Y-139060000D03*
%TD*%
D21*
%TO.P,SW4,1,A_1*%
%TO.N,+12V*%
X178012500Y-149585000D03*
D12*
%TO.P,SW4,2,B_2*%
%TO.N,Net-(SW4A-B)*%
X178012500Y-141965000D03*
%TD*%
D13*
%TO.P,J2,1,Pin_1_1*%
%TO.N,unconnected-(J2-Pin_1-Pad1)*%
X185370000Y-110670000D03*
D14*
%TO.P,J2,2,Pin_2_2*%
%TO.N,unconnected-(J2-Pin_2-Pad2)*%
X185370000Y-108130000D03*
%TO.P,J2,3,Pin_3_3*%
%TO.N,unconnected-(J2-Pin_3-Pad3)*%
X185370000Y-105590000D03*
%TO.P,J2,4,Pin_4_4*%
%TO.N,GND*%
X185370000Y-103050000D03*
%TO.P,J2,5,Pin_5_5*%
%TO.N,/Arduino nano/D2*%
X185370000Y-100510000D03*
%TO.P,J2,6,Pin_6_6*%
%TO.N,/Arduino nano/D3*%
X185370000Y-97970000D03*
%TO.P,J2,7,Pin_7_7*%
%TO.N,unconnected-(J2-Pin_7-Pad7)*%
X185370000Y-95430000D03*
%TO.P,J2,8,Pin_8_8*%
%TO.N,unconnected-(J2-Pin_8-Pad8)*%
X185370000Y-92890000D03*
%TO.P,J2,9,Pin_9_9*%
%TO.N,/Button_3*%
X185370000Y-90350000D03*
%TO.P,J2,10,Pin_10_10*%
%TO.N,/Button_2*%
X185370000Y-87810000D03*
%TO.P,J2,11,Pin_11_11*%
%TO.N,/Button_1*%
X185370000Y-85270000D03*
%TO.P,J2,12,Pin_12_12*%
%TO.N,/CS-SD*%
X185370000Y-82730000D03*
%TO.P,J2,13,Pin_13_13*%
%TO.N,/CS-Baro*%
X185370000Y-80190000D03*
%TO.P,J2,14,Pin_14_14*%
%TO.N,/MOSI*%
X185370000Y-77650000D03*
%TO.P,J2,15,Pin_15_15*%
%TO.N,/MISO*%
X185370000Y-75110000D03*
%TD*%
D22*
%TO.P,U2,1,VIN-_1*%
%TO.N,GND*%
X171850000Y-135500000D03*
%TO.P,U2,2,VIN+_2*%
%TO.N,+12V*%
X181100000Y-135500000D03*
D23*
%TO.P,U2,3,EN_3*%
%TO.N,Net-(SW4A-B)*%
X183600000Y-135500000D03*
D22*
%TO.P,U2,4,Vout+_4*%
%TO.N,+5V*%
X181100000Y-116750000D03*
%TO.P,U2,5,Vout-_5*%
%TO.N,GND*%
X171850000Y-116750000D03*
%TD*%
D24*
%TO.N,GND*%
X208000000Y-152000000D03*
X176000000Y-140000000D03*
X204000000Y-64000000D03*
X168000000Y-64000000D03*
X180000000Y-132000000D03*
X184000000Y-148000000D03*
X168000000Y-100000000D03*
X192000000Y-80000000D03*
X192000000Y-104000000D03*
X172000000Y-56000000D03*
X184000000Y-116000000D03*
X168000000Y-152000000D03*
X204000000Y-104000000D03*
X184000000Y-124000000D03*
X184000000Y-120000000D03*
X196000000Y-129805000D03*
X176000000Y-124000000D03*
X204000000Y-60000000D03*
X208000000Y-129805000D03*
X176000000Y-92000000D03*
X204000000Y-129805000D03*
X188000000Y-120000000D03*
X188000000Y-140000000D03*
X180000000Y-88000000D03*
X168000000Y-128000000D03*
X196000000Y-60000000D03*
X200000000Y-112000000D03*
X172000000Y-104000000D03*
X168000000Y-96000000D03*
X180000000Y-104000000D03*
X168000000Y-60000000D03*
X208000000Y-108000000D03*
X176000000Y-132000000D03*
X168000000Y-144000000D03*
X188000000Y-128000000D03*
X168000000Y-80000000D03*
X188000000Y-124000000D03*
X192000000Y-92000000D03*
X168000000Y-132000000D03*
X204000000Y-84000000D03*
X168000000Y-72000000D03*
X204000000Y-112000000D03*
X184000000Y-104000000D03*
X176000000Y-148000000D03*
X180000000Y-144000000D03*
X176000000Y-120000000D03*
X168000000Y-148000000D03*
X200000000Y-152000000D03*
X172000000Y-152000000D03*
X208000000Y-112000000D03*
X168000000Y-68000000D03*
X184000000Y-56000000D03*
X212000000Y-104000000D03*
X204000000Y-80000000D03*
X200000000Y-108000000D03*
X168000000Y-140000000D03*
X199210000Y-116000000D03*
X192000000Y-100000000D03*
X192000000Y-137805000D03*
X168000000Y-92000000D03*
X172000000Y-68000000D03*
X208225000Y-120600000D03*
X172000000Y-148000000D03*
X172000000Y-60000000D03*
X176000000Y-108000000D03*
X180000000Y-80000000D03*
X180000000Y-128000000D03*
X172000000Y-120000000D03*
X212000000Y-100000000D03*
X208125000Y-133030000D03*
X176000000Y-68000000D03*
X212000000Y-96000000D03*
X192000000Y-76000000D03*
X200000000Y-56000000D03*
X212000000Y-64000000D03*
X184000000Y-132000000D03*
X176000000Y-84000000D03*
X180000000Y-92000000D03*
X176000000Y-64000000D03*
X192000000Y-72000000D03*
X208000000Y-128000000D03*
X192000000Y-108000000D03*
X168000000Y-136000000D03*
X168000000Y-76000000D03*
X180000000Y-96000000D03*
X196000000Y-116000000D03*
X200000000Y-80000000D03*
X180000000Y-72000000D03*
X176000000Y-128000000D03*
X168000000Y-84000000D03*
X196000000Y-84000000D03*
X172000000Y-128000000D03*
X172000000Y-108000000D03*
X212000000Y-80000000D03*
X200000000Y-92000000D03*
X208000000Y-141805000D03*
X172000000Y-72000000D03*
X172000000Y-64000000D03*
X188000000Y-60000000D03*
X212000000Y-84000000D03*
X172000000Y-132000000D03*
X180000000Y-84000000D03*
X184000000Y-92000000D03*
X196000000Y-128000000D03*
X188000000Y-84000000D03*
X192000000Y-116000000D03*
X208000000Y-104000000D03*
X180000000Y-124000000D03*
X204000000Y-108000000D03*
X168000000Y-56000000D03*
X180000000Y-64000000D03*
X176000000Y-100000000D03*
X176000000Y-136000000D03*
X168000000Y-88000000D03*
X208000000Y-116000000D03*
X172000000Y-144000000D03*
X188000000Y-76000000D03*
X184000000Y-128000000D03*
X196000000Y-56000000D03*
X188000000Y-80000000D03*
X188000000Y-56000000D03*
X180000000Y-56000000D03*
X212000000Y-76000000D03*
X188000000Y-108000000D03*
X188000000Y-96000000D03*
X212000000Y-60000000D03*
X208000000Y-148000000D03*
X208000000Y-100020000D03*
X176000000Y-116000000D03*
X192000000Y-56000000D03*
X184000000Y-84000000D03*
X180000000Y-120000000D03*
X212000000Y-116000000D03*
X204000000Y-68000000D03*
X184000000Y-64000000D03*
X212000000Y-72000000D03*
X168000000Y-116000000D03*
X172000000Y-140000000D03*
X176000000Y-96000000D03*
X180000000Y-148000000D03*
X184000000Y-60000000D03*
X168000000Y-112000000D03*
X180000000Y-60000000D03*
X204000000Y-116000000D03*
X200000000Y-60000000D03*
X180000000Y-68000000D03*
X180000000Y-100000000D03*
X188000000Y-64000000D03*
X212000000Y-68000000D03*
X204000000Y-128000000D03*
X192000000Y-96000000D03*
X176000000Y-88000000D03*
X168000000Y-108000000D03*
X188000000Y-92000000D03*
X212000000Y-92000000D03*
X168000000Y-104000000D03*
X176000000Y-72000000D03*
X212000000Y-129805000D03*
X176000000Y-152000000D03*
X176000000Y-56000000D03*
X168000000Y-124000000D03*
X212000000Y-88000000D03*
X188000000Y-132000000D03*
X192000000Y-88000000D03*
X172000000Y-124000000D03*
X168000000Y-120000000D03*
X204000000Y-152000000D03*
X192000000Y-64000000D03*
X212000000Y-108000000D03*
X176000000Y-144000000D03*
X212000000Y-141805000D03*
X208000000Y-137805000D03*
X200000000Y-148000000D03*
X180000000Y-152000000D03*
X204000000Y-141805000D03*
X204000000Y-92000000D03*
X188000000Y-136000000D03*
X212000000Y-128000000D03*
X204000000Y-148000000D03*
X200000000Y-96000000D03*
%TO.N,+3V3*%
X173925000Y-73850000D03*
%TO.N,/SCLK*%
X186550000Y-71025000D03*
%TO.N,/CS-SD*%
X183250000Y-71025000D03*
%TO.N,/MOSI*%
X184350000Y-71025000D03*
%TO.N,/MISO*%
X188750000Y-71025000D03*
%TD*%
%TO.N,+5V*%
D25*
X193390000Y-112650000D02*
X172110000Y-112650000D01*
X172110000Y-112650000D02*
X170130000Y-110670000D01*
X195370000Y-110670000D02*
X193390000Y-112650000D01*
%TO.N,/Button_1*%
D26*
X202800000Y-62225000D02*
X202800000Y-55725000D01*
%TO.N,/Button_2*%
X202800000Y-71850000D02*
X202800000Y-65350000D01*
%TO.N,+3V3*%
X173925000Y-73855000D02*
X170130000Y-77650000D01*
X173925000Y-73850000D02*
X173925000Y-73855000D01*
%TO.N,+12V*%
X178012500Y-149138971D02*
X182211471Y-144940000D01*
X178012500Y-149585000D02*
X178012500Y-149138971D01*
X182211471Y-144940000D02*
X187880000Y-144940000D01*
%TO.N,/Button_3*%
X202800000Y-81550000D02*
X202800000Y-75050000D01*
%TO.N,/SCLK*%
X186550000Y-71025000D02*
X185950000Y-70425000D01*
X174815000Y-70425000D02*
X170130000Y-75110000D01*
X185950000Y-70425000D02*
X174815000Y-70425000D01*
%TO.N,/CS-SD*%
X183250000Y-71025000D02*
X183250000Y-80610000D01*
X183250000Y-80610000D02*
X185370000Y-82730000D01*
%TO.N,/MOSI*%
X184220000Y-76500000D02*
X185370000Y-77650000D01*
X184220000Y-71155000D02*
X184220000Y-76500000D01*
X184350000Y-71025000D02*
X184220000Y-71155000D01*
%TO.N,/MISO*%
X188750000Y-71025000D02*
X188750000Y-71730000D01*
X188750000Y-71730000D02*
X185370000Y-75110000D01*
%TO.N,Net-(SW4A-B)*%
X178012500Y-141965000D02*
X183600000Y-136377500D01*
X183600000Y-136377500D02*
X183600000Y-135500000D01*
%TD*%
%TA.AperFunction,Conductor*%
%TO.N,GND*%
G36*
X182399191Y-71045185D02*
G01*
X182444946Y-71097989D01*
X182453769Y-71125308D01*
X182480261Y-71258491D01*
X182480264Y-71258501D01*
X182540602Y-71404172D01*
X182540609Y-71404185D01*
X182628602Y-71535874D01*
X182649480Y-71602551D01*
X182649500Y-71604765D01*
X182649500Y-80523330D01*
X182649499Y-80523348D01*
X182649499Y-80689054D01*
X182649498Y-80689054D01*
X182690422Y-80841783D01*
X182712685Y-80880343D01*
X182712687Y-80880346D01*
X182769479Y-80978714D01*
X182769481Y-80978717D01*
X182888349Y-81097585D01*
X182888355Y-81097590D01*
X184036241Y-82245476D01*
X184069726Y-82306799D01*
X184066492Y-82371473D01*
X184052753Y-82413757D01*
X184019500Y-82623713D01*
X184019500Y-82836286D01*
X184052753Y-83046239D01*
X184118444Y-83248414D01*
X184214951Y-83437820D01*
X184339890Y-83609786D01*
X184490213Y-83760109D01*
X184662182Y-83885050D01*
X184670946Y-83889516D01*
X184721742Y-83937491D01*
X184738536Y-84005312D01*
X184715998Y-84071447D01*
X184670946Y-84110484D01*
X184662182Y-84114949D01*
X184490213Y-84239890D01*
X184339890Y-84390213D01*
X184214951Y-84562179D01*
X184118444Y-84751585D01*
X184052753Y-84953760D01*
X184019500Y-85163713D01*
X184019500Y-85376286D01*
X184052753Y-85586239D01*
X184118444Y-85788414D01*
X184214951Y-85977820D01*
X184339890Y-86149786D01*
X184490213Y-86300109D01*
X184662182Y-86425050D01*
X184670946Y-86429516D01*
X184721742Y-86477491D01*
X184738536Y-86545312D01*
X184715998Y-86611447D01*
X184670946Y-86650484D01*
X184662182Y-86654949D01*
X184490213Y-86779890D01*
X184339890Y-86930213D01*
X184214951Y-87102179D01*
X184118444Y-87291585D01*
X184052753Y-87493760D01*
X184025484Y-87665932D01*
X184019500Y-87703713D01*
X184019500Y-87916287D01*
X184052754Y-88126243D01*
X184107175Y-88293734D01*
X184118444Y-88328414D01*
X184214951Y-88517820D01*
X184339890Y-88689786D01*
X184490213Y-88840109D01*
X184662182Y-88965050D01*
X184670946Y-88969516D01*
X184721742Y-89017491D01*
X184738536Y-89085312D01*
X184715998Y-89151447D01*
X184670946Y-89190484D01*
X184662182Y-89194949D01*
X184490213Y-89319890D01*
X184339890Y-89470213D01*
X184214951Y-89642179D01*
X184118444Y-89831585D01*
X184052753Y-90033760D01*
X184019500Y-90243713D01*
X184019500Y-90456286D01*
X184052753Y-90666239D01*
X184118444Y-90868414D01*
X184214951Y-91057820D01*
X184339890Y-91229786D01*
X184490213Y-91380109D01*
X184662182Y-91505050D01*
X184670946Y-91509516D01*
X184721742Y-91557491D01*
X184738536Y-91625312D01*
X184715998Y-91691447D01*
X184670946Y-91730484D01*
X184662182Y-91734949D01*
X184490213Y-91859890D01*
X184339890Y-92010213D01*
X184214951Y-92182179D01*
X184118444Y-92371585D01*
X184052753Y-92573760D01*
X184019500Y-92783713D01*
X184019500Y-92996286D01*
X184052753Y-93206239D01*
X184118444Y-93408414D01*
X184214951Y-93597820D01*
X184339890Y-93769786D01*
X184490213Y-93920109D01*
X184662182Y-94045050D01*
X184670946Y-94049516D01*
X184721742Y-94097491D01*
X184738536Y-94165312D01*
X184715998Y-94231447D01*
X184670946Y-94270484D01*
X184662182Y-94274949D01*
X184490213Y-94399890D01*
X184339890Y-94550213D01*
X184214951Y-94722179D01*
X184118444Y-94911585D01*
X184052753Y-95113760D01*
X184019500Y-95323713D01*
X184019500Y-95536286D01*
X184052753Y-95746239D01*
X184118444Y-95948414D01*
X184214951Y-96137820D01*
X184339890Y-96309786D01*
X184490213Y-96460109D01*
X184662182Y-96585050D01*
X184670946Y-96589516D01*
X184721742Y-96637491D01*
X184738536Y-96705312D01*
X184715998Y-96771447D01*
X184670946Y-96810484D01*
X184662182Y-96814949D01*
X184490213Y-96939890D01*
X184339890Y-97090213D01*
X184214951Y-97262179D01*
X184118444Y-97451585D01*
X184052753Y-97653760D01*
X184019500Y-97863713D01*
X184019500Y-98076286D01*
X184052753Y-98286239D01*
X184118444Y-98488414D01*
X184214951Y-98677820D01*
X184339890Y-98849786D01*
X184490213Y-99000109D01*
X184662182Y-99125050D01*
X184670946Y-99129516D01*
X184721742Y-99177491D01*
X184738536Y-99245312D01*
X184715998Y-99311447D01*
X184670946Y-99350484D01*
X184662182Y-99354949D01*
X184490213Y-99479890D01*
X184339890Y-99630213D01*
X184214951Y-99802179D01*
X184118444Y-99991585D01*
X184052753Y-100193760D01*
X184019500Y-100403713D01*
X184019500Y-100616286D01*
X184052753Y-100826239D01*
X184118444Y-101028414D01*
X184214951Y-101217820D01*
X184339890Y-101389786D01*
X184490213Y-101540109D01*
X184662179Y-101665048D01*
X184662181Y-101665049D01*
X184662184Y-101665051D01*
X184671493Y-101669794D01*
X184722290Y-101717766D01*
X184739087Y-101785587D01*
X184716552Y-101851722D01*
X184671505Y-101890760D01*
X184662446Y-101895376D01*
X184662440Y-101895380D01*
X184608282Y-101934727D01*
X184608282Y-101934728D01*
X185240591Y-102567037D01*
X185177007Y-102584075D01*
X185062993Y-102649901D01*
X184969901Y-102742993D01*
X184904075Y-102857007D01*
X184887037Y-102920591D01*
X184254728Y-102288282D01*
X184254727Y-102288282D01*
X184215380Y-102342439D01*
X184118904Y-102531782D01*
X184053242Y-102733869D01*
X184053242Y-102733872D01*
X184020000Y-102943753D01*
X184020000Y-103156246D01*
X184053242Y-103366127D01*
X184053242Y-103366130D01*
X184118904Y-103568217D01*
X184215375Y-103757550D01*
X184254728Y-103811716D01*
X184887037Y-103179408D01*
X184904075Y-103242993D01*
X184969901Y-103357007D01*
X185062993Y-103450099D01*
X185177007Y-103515925D01*
X185240590Y-103532962D01*
X184608282Y-104165269D01*
X184608282Y-104165270D01*
X184662452Y-104204626D01*
X184662451Y-104204626D01*
X184671495Y-104209234D01*
X184722292Y-104257208D01*
X184739087Y-104325029D01*
X184716550Y-104391164D01*
X184671499Y-104430202D01*
X184662182Y-104434949D01*
X184490213Y-104559890D01*
X184339890Y-104710213D01*
X184214951Y-104882179D01*
X184118444Y-105071585D01*
X184052753Y-105273760D01*
X184019500Y-105483713D01*
X184019500Y-105696286D01*
X184052753Y-105906239D01*
X184118444Y-106108414D01*
X184214951Y-106297820D01*
X184339890Y-106469786D01*
X184490213Y-106620109D01*
X184662182Y-106745050D01*
X184670946Y-106749516D01*
X184721742Y-106797491D01*
X184738536Y-106865312D01*
X184715998Y-106931447D01*
X184670946Y-106970484D01*
X184662182Y-106974949D01*
X184490213Y-107099890D01*
X184339890Y-107250213D01*
X184214951Y-107422179D01*
X184118444Y-107611585D01*
X184052753Y-107813760D01*
X184019500Y-108023713D01*
X184019500Y-108236286D01*
X184052753Y-108446239D01*
X184118444Y-108648414D01*
X184214951Y-108837820D01*
X184339890Y-109009786D01*
X184453430Y-109123326D01*
X184486915Y-109184649D01*
X184481931Y-109254341D01*
X184440059Y-109310274D01*
X184409083Y-109327189D01*
X184277669Y-109376203D01*
X184277664Y-109376206D01*
X184162455Y-109462452D01*
X184162452Y-109462455D01*
X184076206Y-109577664D01*
X184076202Y-109577671D01*
X184025908Y-109712517D01*
X184019501Y-109772116D01*
X184019501Y-109772123D01*
X184019500Y-109772135D01*
X184019500Y-111567870D01*
X184019501Y-111567876D01*
X184024271Y-111612247D01*
X184011864Y-111681006D01*
X183964253Y-111732143D01*
X183900981Y-111749500D01*
X172534362Y-111749500D01*
X172467323Y-111729815D01*
X172446681Y-111713181D01*
X171516819Y-110783319D01*
X171483334Y-110721996D01*
X171480500Y-110695638D01*
X171480500Y-110563713D01*
X171455591Y-110406446D01*
X171447246Y-110353757D01*
X171381557Y-110151588D01*
X171285051Y-109962184D01*
X171285049Y-109962181D01*
X171285048Y-109962179D01*
X171160109Y-109790213D01*
X171009786Y-109639890D01*
X170837817Y-109514949D01*
X170828504Y-109510204D01*
X170777707Y-109462230D01*
X170760912Y-109394409D01*
X170783449Y-109328274D01*
X170828507Y-109289232D01*
X170837555Y-109284622D01*
X170891716Y-109245270D01*
X170891717Y-109245270D01*
X170259408Y-108612962D01*
X170322993Y-108595925D01*
X170437007Y-108530099D01*
X170530099Y-108437007D01*
X170595925Y-108322993D01*
X170612962Y-108259409D01*
X171245270Y-108891717D01*
X171245270Y-108891716D01*
X171284622Y-108837554D01*
X171381095Y-108648217D01*
X171446757Y-108446130D01*
X171446757Y-108446127D01*
X171480000Y-108236246D01*
X171480000Y-108023753D01*
X171446757Y-107813872D01*
X171446757Y-107813869D01*
X171381095Y-107611782D01*
X171284624Y-107422449D01*
X171245270Y-107368282D01*
X171245269Y-107368282D01*
X170612962Y-108000590D01*
X170595925Y-107937007D01*
X170530099Y-107822993D01*
X170437007Y-107729901D01*
X170322993Y-107664075D01*
X170259409Y-107647037D01*
X170891716Y-107014728D01*
X170837547Y-106975373D01*
X170837547Y-106975372D01*
X170828500Y-106970763D01*
X170777706Y-106922788D01*
X170760912Y-106854966D01*
X170783451Y-106788832D01*
X170828508Y-106749793D01*
X170837816Y-106745051D01*
X170917007Y-106687515D01*
X171009786Y-106620109D01*
X171009788Y-106620106D01*
X171009792Y-106620104D01*
X171160104Y-106469792D01*
X171160106Y-106469788D01*
X171160109Y-106469786D01*
X171285048Y-106297820D01*
X171285047Y-106297820D01*
X171285051Y-106297816D01*
X171381557Y-106108412D01*
X171447246Y-105906243D01*
X171480500Y-105696287D01*
X171480500Y-105483713D01*
X171447246Y-105273757D01*
X171381557Y-105071588D01*
X171285051Y-104882184D01*
X171285049Y-104882181D01*
X171285048Y-104882179D01*
X171160109Y-104710213D01*
X171009786Y-104559890D01*
X170837820Y-104434951D01*
X170837115Y-104434591D01*
X170829054Y-104430485D01*
X170778259Y-104382512D01*
X170761463Y-104314692D01*
X170783999Y-104248556D01*
X170829054Y-104209515D01*
X170837816Y-104205051D01*
X170892572Y-104165269D01*
X171009786Y-104080109D01*
X171009788Y-104080106D01*
X171009792Y-104080104D01*
X171160104Y-103929792D01*
X171160106Y-103929788D01*
X171160109Y-103929786D01*
X171285048Y-103757820D01*
X171285047Y-103757820D01*
X171285051Y-103757816D01*
X171381557Y-103568412D01*
X171447246Y-103366243D01*
X171480500Y-103156287D01*
X171480500Y-102943713D01*
X171447246Y-102733757D01*
X171381557Y-102531588D01*
X171285051Y-102342184D01*
X171285049Y-102342181D01*
X171285048Y-102342179D01*
X171160109Y-102170213D01*
X171009786Y-102019890D01*
X170837820Y-101894951D01*
X170829600Y-101890763D01*
X170829054Y-101890485D01*
X170778259Y-101842512D01*
X170761463Y-101774692D01*
X170783999Y-101708556D01*
X170829054Y-101669515D01*
X170837816Y-101665051D01*
X170892572Y-101625269D01*
X171009786Y-101540109D01*
X171009788Y-101540106D01*
X171009792Y-101540104D01*
X171160104Y-101389792D01*
X171160106Y-101389788D01*
X171160109Y-101389786D01*
X171285048Y-101217820D01*
X171285047Y-101217820D01*
X171285051Y-101217816D01*
X171381557Y-101028412D01*
X171447246Y-100826243D01*
X171480500Y-100616287D01*
X171480500Y-100403713D01*
X171447246Y-100193757D01*
X171381557Y-99991588D01*
X171285051Y-99802184D01*
X171285049Y-99802181D01*
X171285048Y-99802179D01*
X171160109Y-99630213D01*
X171009786Y-99479890D01*
X170837820Y-99354951D01*
X170837115Y-99354591D01*
X170829054Y-99350485D01*
X170778259Y-99302512D01*
X170761463Y-99234692D01*
X170783999Y-99168556D01*
X170829054Y-99129515D01*
X170837816Y-99125051D01*
X170936187Y-99053581D01*
X171009786Y-99000109D01*
X171009788Y-99000106D01*
X171009792Y-99000104D01*
X171160104Y-98849792D01*
X171160106Y-98849788D01*
X171160109Y-98849786D01*
X171285048Y-98677820D01*
X171285047Y-98677820D01*
X171285051Y-98677816D01*
X171381557Y-98488412D01*
X171447246Y-98286243D01*
X171480500Y-98076287D01*
X171480500Y-97863713D01*
X171447246Y-97653757D01*
X171381557Y-97451588D01*
X171285051Y-97262184D01*
X171285049Y-97262181D01*
X171285048Y-97262179D01*
X171160109Y-97090213D01*
X171009786Y-96939890D01*
X170837820Y-96814951D01*
X170837115Y-96814591D01*
X170829054Y-96810485D01*
X170778259Y-96762512D01*
X170761463Y-96694692D01*
X170783999Y-96628556D01*
X170829054Y-96589515D01*
X170837816Y-96585051D01*
X170936187Y-96513581D01*
X171009786Y-96460109D01*
X171009788Y-96460106D01*
X171009792Y-96460104D01*
X171160104Y-96309792D01*
X171160106Y-96309788D01*
X171160109Y-96309786D01*
X171285048Y-96137820D01*
X171285047Y-96137820D01*
X171285051Y-96137816D01*
X171381557Y-95948412D01*
X171447246Y-95746243D01*
X171480500Y-95536287D01*
X171480500Y-95323713D01*
X171447246Y-95113757D01*
X171381557Y-94911588D01*
X171285051Y-94722184D01*
X171285049Y-94722181D01*
X171285048Y-94722179D01*
X171160109Y-94550213D01*
X171009786Y-94399890D01*
X170837820Y-94274951D01*
X170829600Y-94270763D01*
X170829054Y-94270485D01*
X170778259Y-94222512D01*
X170761463Y-94154692D01*
X170783999Y-94088556D01*
X170829054Y-94049515D01*
X170837816Y-94045051D01*
X170859789Y-94029086D01*
X171009786Y-93920109D01*
X171009788Y-93920106D01*
X171009792Y-93920104D01*
X171160104Y-93769792D01*
X171160106Y-93769788D01*
X171160109Y-93769786D01*
X171285048Y-93597820D01*
X171285047Y-93597820D01*
X171285051Y-93597816D01*
X171381557Y-93408412D01*
X171447246Y-93206243D01*
X171480500Y-92996287D01*
X171480500Y-92783713D01*
X171447246Y-92573757D01*
X171381557Y-92371588D01*
X171285051Y-92182184D01*
X171285049Y-92182181D01*
X171285048Y-92182179D01*
X171160109Y-92010213D01*
X171009786Y-91859890D01*
X170837820Y-91734951D01*
X170837115Y-91734591D01*
X170829054Y-91730485D01*
X170778259Y-91682512D01*
X170761463Y-91614692D01*
X170783999Y-91548556D01*
X170829054Y-91509515D01*
X170837816Y-91505051D01*
X170859789Y-91489086D01*
X171009786Y-91380109D01*
X171009788Y-91380106D01*
X171009792Y-91380104D01*
X171160104Y-91229792D01*
X171160106Y-91229788D01*
X171160109Y-91229786D01*
X171285048Y-91057820D01*
X171285047Y-91057820D01*
X171285051Y-91057816D01*
X171381557Y-90868412D01*
X171447246Y-90666243D01*
X171480500Y-90456287D01*
X171480500Y-90243713D01*
X171447246Y-90033757D01*
X171381557Y-89831588D01*
X171285051Y-89642184D01*
X171285049Y-89642181D01*
X171285048Y-89642179D01*
X171160109Y-89470213D01*
X171009786Y-89319890D01*
X170837820Y-89194951D01*
X170837115Y-89194591D01*
X170829054Y-89190485D01*
X170778259Y-89142512D01*
X170761463Y-89074692D01*
X170783999Y-89008556D01*
X170829054Y-88969515D01*
X170837816Y-88965051D01*
X170859789Y-88949086D01*
X171009786Y-88840109D01*
X171009788Y-88840106D01*
X171009792Y-88840104D01*
X171160104Y-88689792D01*
X171160106Y-88689788D01*
X171160109Y-88689786D01*
X171285048Y-88517820D01*
X171285047Y-88517820D01*
X171285051Y-88517816D01*
X171381557Y-88328412D01*
X171447246Y-88126243D01*
X171480500Y-87916287D01*
X171480500Y-87703713D01*
X171447246Y-87493757D01*
X171381557Y-87291588D01*
X171285051Y-87102184D01*
X171285049Y-87102181D01*
X171285048Y-87102179D01*
X171160109Y-86930213D01*
X171009786Y-86779890D01*
X170837820Y-86654951D01*
X170837115Y-86654591D01*
X170829054Y-86650485D01*
X170778259Y-86602512D01*
X170761463Y-86534692D01*
X170783999Y-86468556D01*
X170829054Y-86429515D01*
X170837816Y-86425051D01*
X170890595Y-86386705D01*
X171009786Y-86300109D01*
X171009788Y-86300106D01*
X171009792Y-86300104D01*
X171160104Y-86149792D01*
X171160106Y-86149788D01*
X171160109Y-86149786D01*
X171285048Y-85977820D01*
X171285047Y-85977820D01*
X171285051Y-85977816D01*
X171381557Y-85788412D01*
X171447246Y-85586243D01*
X171480500Y-85376287D01*
X171480500Y-85163713D01*
X171447246Y-84953757D01*
X171381557Y-84751588D01*
X171285051Y-84562184D01*
X171285049Y-84562181D01*
X171285048Y-84562179D01*
X171160109Y-84390213D01*
X171009786Y-84239890D01*
X170837820Y-84114951D01*
X170837115Y-84114591D01*
X170829054Y-84110485D01*
X170778259Y-84062512D01*
X170761463Y-83994692D01*
X170783999Y-83928556D01*
X170829054Y-83889515D01*
X170837816Y-83885051D01*
X170859789Y-83869086D01*
X171009786Y-83760109D01*
X171009788Y-83760106D01*
X171009792Y-83760104D01*
X171160104Y-83609792D01*
X171160106Y-83609788D01*
X171160109Y-83609786D01*
X171285048Y-83437820D01*
X171285047Y-83437820D01*
X171285051Y-83437816D01*
X171381557Y-83248412D01*
X171447246Y-83046243D01*
X171480500Y-82836287D01*
X171480500Y-82623713D01*
X171447246Y-82413757D01*
X171381557Y-82211588D01*
X171285051Y-82022184D01*
X171285049Y-82022181D01*
X171285048Y-82022179D01*
X171160109Y-81850213D01*
X171009786Y-81699890D01*
X170837820Y-81574951D01*
X170837115Y-81574591D01*
X170829054Y-81570485D01*
X170778259Y-81522512D01*
X170761463Y-81454692D01*
X170783999Y-81388556D01*
X170829054Y-81349515D01*
X170837816Y-81345051D01*
X170859789Y-81329086D01*
X171009786Y-81220109D01*
X171009788Y-81220106D01*
X171009792Y-81220104D01*
X171160104Y-81069792D01*
X171160106Y-81069788D01*
X171160109Y-81069786D01*
X171285048Y-80897820D01*
X171285047Y-80897820D01*
X171285051Y-80897816D01*
X171381557Y-80708412D01*
X171447246Y-80506243D01*
X171480500Y-80296287D01*
X171480500Y-80083713D01*
X171447246Y-79873757D01*
X171381557Y-79671588D01*
X171285051Y-79482184D01*
X171285049Y-79482181D01*
X171285048Y-79482179D01*
X171160109Y-79310213D01*
X171009786Y-79159890D01*
X170837820Y-79034951D01*
X170837115Y-79034591D01*
X170829054Y-79030485D01*
X170778259Y-78982512D01*
X170761463Y-78914692D01*
X170783999Y-78848556D01*
X170829054Y-78809515D01*
X170837816Y-78805051D01*
X170859789Y-78789086D01*
X171009786Y-78680109D01*
X171009788Y-78680106D01*
X171009792Y-78680104D01*
X171160104Y-78529792D01*
X171160106Y-78529788D01*
X171160109Y-78529786D01*
X171285048Y-78357820D01*
X171285047Y-78357820D01*
X171285051Y-78357816D01*
X171381557Y-78168412D01*
X171447246Y-77966243D01*
X171480500Y-77756287D01*
X171480500Y-77543713D01*
X171447246Y-77333757D01*
X171433506Y-77291473D01*
X171431512Y-77221635D01*
X171463755Y-77165478D01*
X173945904Y-74683330D01*
X174007225Y-74649847D01*
X174009392Y-74649396D01*
X174158497Y-74619737D01*
X174304179Y-74559394D01*
X174435289Y-74471789D01*
X174546789Y-74360289D01*
X174634394Y-74229179D01*
X174694737Y-74083497D01*
X174725500Y-73928842D01*
X174725500Y-73771158D01*
X174725500Y-73771155D01*
X174725499Y-73771153D01*
X174694738Y-73616510D01*
X174694737Y-73616503D01*
X174694735Y-73616498D01*
X174634397Y-73470827D01*
X174634390Y-73470814D01*
X174546789Y-73339711D01*
X174546786Y-73339707D01*
X174435292Y-73228213D01*
X174435288Y-73228210D01*
X174304185Y-73140609D01*
X174304172Y-73140602D01*
X174158501Y-73080264D01*
X174158489Y-73080261D01*
X174003845Y-73049500D01*
X174003842Y-73049500D01*
X173846158Y-73049500D01*
X173846155Y-73049500D01*
X173691510Y-73080261D01*
X173691498Y-73080264D01*
X173545827Y-73140602D01*
X173545814Y-73140609D01*
X173414711Y-73228210D01*
X173414707Y-73228213D01*
X173303213Y-73339707D01*
X173303210Y-73339711D01*
X173215609Y-73470814D01*
X173215602Y-73470827D01*
X173155264Y-73616498D01*
X173155261Y-73616510D01*
X173123311Y-73777132D01*
X173120710Y-73776614D01*
X173098836Y-73830754D01*
X173089291Y-73841473D01*
X171692180Y-75238584D01*
X171630857Y-75272069D01*
X171561165Y-75267085D01*
X171505232Y-75225213D01*
X171480815Y-75159749D01*
X171480499Y-75150903D01*
X171480499Y-74660097D01*
X171500184Y-74593058D01*
X171516818Y-74572416D01*
X172391363Y-73697872D01*
X175027417Y-71061819D01*
X175088740Y-71028334D01*
X175115098Y-71025500D01*
X182332152Y-71025500D01*
X182399191Y-71045185D01*
G37*
%TD.AperFunction*%
%TA.AperFunction,Conductor*%
G36*
X202135536Y-54170185D02*
G01*
X202181291Y-54222989D01*
X202191235Y-54292147D01*
X202162210Y-54355703D01*
X202124792Y-54384985D01*
X202013566Y-54441657D01*
X201904550Y-54520862D01*
X201822490Y-54580483D01*
X201822488Y-54580485D01*
X201822487Y-54580485D01*
X201655485Y-54747487D01*
X201655485Y-54747488D01*
X201655483Y-54747490D01*
X201595862Y-54829550D01*
X201516657Y-54938566D01*
X201409433Y-55149003D01*
X201336446Y-55373631D01*
X201299500Y-55606902D01*
X201299500Y-55843097D01*
X201336446Y-56076368D01*
X201409433Y-56300996D01*
X201516657Y-56511433D01*
X201655483Y-56702510D01*
X201822490Y-56869517D01*
X201948913Y-56961369D01*
X202013568Y-57008344D01*
X202088177Y-57046358D01*
X202131794Y-57068582D01*
X202182590Y-57116556D01*
X202199500Y-57179067D01*
X202199500Y-60770931D01*
X202179815Y-60837970D01*
X202131796Y-60881415D01*
X202013568Y-60941655D01*
X201879896Y-61038774D01*
X201822490Y-61080483D01*
X201822488Y-61080485D01*
X201822487Y-61080485D01*
X201655485Y-61247487D01*
X201655485Y-61247488D01*
X201655483Y-61247490D01*
X201595862Y-61329550D01*
X201516657Y-61438566D01*
X201409433Y-61649003D01*
X201336446Y-61873631D01*
X201299500Y-62106902D01*
X201299500Y-62343097D01*
X201336446Y-62576368D01*
X201409433Y-62800996D01*
X201516657Y-63011433D01*
X201655483Y-63202510D01*
X201822490Y-63369517D01*
X202013567Y-63508343D01*
X202112991Y-63559002D01*
X202224003Y-63615566D01*
X202224005Y-63615566D01*
X202224008Y-63615568D01*
X202343886Y-63654519D01*
X202390205Y-63669569D01*
X202447880Y-63709007D01*
X202475078Y-63773366D01*
X202463163Y-63842212D01*
X202415919Y-63893688D01*
X202390205Y-63905431D01*
X202224003Y-63959433D01*
X202013566Y-64066657D01*
X201904550Y-64145862D01*
X201822490Y-64205483D01*
X201822488Y-64205485D01*
X201822487Y-64205485D01*
X201655485Y-64372487D01*
X201655485Y-64372488D01*
X201655483Y-64372490D01*
X201595862Y-64454550D01*
X201516657Y-64563566D01*
X201409433Y-64774003D01*
X201336446Y-64998631D01*
X201299500Y-65231902D01*
X201299500Y-65468097D01*
X201336446Y-65701368D01*
X201409433Y-65925996D01*
X201516657Y-66136433D01*
X201655483Y-66327510D01*
X201822490Y-66494517D01*
X201965797Y-66598636D01*
X202013568Y-66633344D01*
X202088177Y-66671358D01*
X202131794Y-66693582D01*
X202182590Y-66741556D01*
X202199500Y-66804067D01*
X202199500Y-70395931D01*
X202179815Y-70462970D01*
X202131796Y-70506415D01*
X202013568Y-70566655D01*
X201904617Y-70645814D01*
X201822490Y-70705483D01*
X201822488Y-70705485D01*
X201822487Y-70705485D01*
X201655485Y-70872487D01*
X201655485Y-70872488D01*
X201655483Y-70872490D01*
X201601964Y-70946153D01*
X201516657Y-71063566D01*
X201409433Y-71274003D01*
X201336446Y-71498631D01*
X201299500Y-71731902D01*
X201299500Y-71968097D01*
X201336446Y-72201368D01*
X201409433Y-72425996D01*
X201516657Y-72636433D01*
X201655483Y-72827510D01*
X201822490Y-72994517D01*
X202013567Y-73133343D01*
X202112991Y-73184002D01*
X202224003Y-73240566D01*
X202224005Y-73240566D01*
X202224008Y-73240568D01*
X202344412Y-73279689D01*
X202448631Y-73313553D01*
X202536858Y-73327527D01*
X202599993Y-73357456D01*
X202636924Y-73416768D01*
X202635926Y-73486630D01*
X202597316Y-73544863D01*
X202536858Y-73572473D01*
X202448631Y-73586446D01*
X202224003Y-73659433D01*
X202013566Y-73766657D01*
X201926420Y-73829973D01*
X201822490Y-73905483D01*
X201822488Y-73905485D01*
X201822487Y-73905485D01*
X201655485Y-74072487D01*
X201655485Y-74072488D01*
X201655483Y-74072490D01*
X201647492Y-74083489D01*
X201516657Y-74263566D01*
X201409433Y-74474003D01*
X201336446Y-74698631D01*
X201299500Y-74931902D01*
X201299500Y-75168097D01*
X201336446Y-75401368D01*
X201409433Y-75625996D01*
X201507171Y-75817816D01*
X201516657Y-75836433D01*
X201655483Y-76027510D01*
X201822490Y-76194517D01*
X201965797Y-76298636D01*
X202013568Y-76333344D01*
X202068940Y-76361557D01*
X202131794Y-76393582D01*
X202182590Y-76441556D01*
X202199500Y-76504067D01*
X202199500Y-80095931D01*
X202179815Y-80162970D01*
X202131796Y-80206415D01*
X202013568Y-80266655D01*
X201883352Y-80361264D01*
X201822490Y-80405483D01*
X201822488Y-80405485D01*
X201822487Y-80405485D01*
X201655485Y-80572487D01*
X201655485Y-80572488D01*
X201655483Y-80572490D01*
X201595862Y-80654550D01*
X201516657Y-80763566D01*
X201409433Y-80974003D01*
X201336446Y-81198631D01*
X201299500Y-81431902D01*
X201299500Y-81668097D01*
X201336446Y-81901368D01*
X201409433Y-82125996D01*
X201453045Y-82211588D01*
X201516657Y-82336433D01*
X201655483Y-82527510D01*
X201822490Y-82694517D01*
X202013567Y-82833343D01*
X202112991Y-82884002D01*
X202224003Y-82940566D01*
X202224005Y-82940566D01*
X202224008Y-82940568D01*
X202344412Y-82979689D01*
X202448631Y-83013553D01*
X202681903Y-83050500D01*
X202681908Y-83050500D01*
X202918097Y-83050500D01*
X203151368Y-83013553D01*
X203375992Y-82940568D01*
X203586433Y-82833343D01*
X203777510Y-82694517D01*
X203944517Y-82527510D01*
X204083343Y-82336433D01*
X204190568Y-82125992D01*
X204263553Y-81901368D01*
X204295464Y-81699890D01*
X204300500Y-81668097D01*
X204300500Y-81431902D01*
X205799500Y-81431902D01*
X205799500Y-81668097D01*
X205836446Y-81901368D01*
X205909433Y-82125996D01*
X205953045Y-82211588D01*
X206016657Y-82336433D01*
X206155483Y-82527510D01*
X206322490Y-82694517D01*
X206513567Y-82833343D01*
X206612991Y-82884002D01*
X206724003Y-82940566D01*
X206724005Y-82940566D01*
X206724008Y-82940568D01*
X206844412Y-82979689D01*
X206948631Y-83013553D01*
X207181903Y-83050500D01*
X207181908Y-83050500D01*
X207418097Y-83050500D01*
X207651368Y-83013553D01*
X207875992Y-82940568D01*
X208086433Y-82833343D01*
X208277510Y-82694517D01*
X208444517Y-82527510D01*
X208583343Y-82336433D01*
X208690568Y-82125992D01*
X208763553Y-81901368D01*
X208795464Y-81699890D01*
X208800500Y-81668097D01*
X208800500Y-81431902D01*
X208763553Y-81198631D01*
X208692098Y-80978717D01*
X208690568Y-80974008D01*
X208690566Y-80974005D01*
X208690566Y-80974003D01*
X208583342Y-80763566D01*
X208444517Y-80572490D01*
X208277510Y-80405483D01*
X208086433Y-80266657D01*
X208086429Y-80266655D01*
X207875996Y-80159433D01*
X207651368Y-80086446D01*
X207418097Y-80049500D01*
X207418092Y-80049500D01*
X207181908Y-80049500D01*
X207181903Y-80049500D01*
X206948631Y-80086446D01*
X206724003Y-80159433D01*
X206513566Y-80266657D01*
X206404550Y-80345862D01*
X206322490Y-80405483D01*
X206322488Y-80405485D01*
X206322487Y-80405485D01*
X206155485Y-80572487D01*
X206155485Y-80572488D01*
X206155483Y-80572490D01*
X206095862Y-80654550D01*
X206016657Y-80763566D01*
X205909433Y-80974003D01*
X205836446Y-81198631D01*
X205799500Y-81431902D01*
X204300500Y-81431902D01*
X204263553Y-81198631D01*
X204192098Y-80978717D01*
X204190568Y-80974008D01*
X204190566Y-80974005D01*
X204190566Y-80974003D01*
X204083342Y-80763566D01*
X203944517Y-80572490D01*
X203777510Y-80405483D01*
X203681971Y-80336070D01*
X203586431Y-80266655D01*
X203468204Y-80206415D01*
X203417409Y-80158441D01*
X203400500Y-80095931D01*
X203400500Y-76504067D01*
X203420185Y-76437028D01*
X203468205Y-76393582D01*
X203586433Y-76333343D01*
X203777510Y-76194517D01*
X203944517Y-76027510D01*
X204083343Y-75836433D01*
X204190568Y-75625992D01*
X204263553Y-75401368D01*
X204284032Y-75272069D01*
X204300500Y-75168097D01*
X204300500Y-74931902D01*
X204263553Y-74698631D01*
X204190566Y-74474003D01*
X204083342Y-74263566D01*
X203944517Y-74072490D01*
X203777510Y-73905483D01*
X203586433Y-73766657D01*
X203501107Y-73723181D01*
X203375996Y-73659433D01*
X203151368Y-73586446D01*
X203063141Y-73572473D01*
X203000006Y-73542544D01*
X202963075Y-73483232D01*
X202964073Y-73413370D01*
X203002683Y-73355137D01*
X203063141Y-73327527D01*
X203151368Y-73313553D01*
X203375992Y-73240568D01*
X203586433Y-73133343D01*
X203777510Y-72994517D01*
X203944517Y-72827510D01*
X204083343Y-72636433D01*
X204190568Y-72425992D01*
X204263553Y-72201368D01*
X204300500Y-71968097D01*
X204300500Y-71731902D01*
X205799500Y-71731902D01*
X205799500Y-71968097D01*
X205836446Y-72201368D01*
X205909433Y-72425996D01*
X206016657Y-72636433D01*
X206155483Y-72827510D01*
X206322490Y-72994517D01*
X206513567Y-73133343D01*
X206612991Y-73184002D01*
X206724003Y-73240566D01*
X206724005Y-73240566D01*
X206724008Y-73240568D01*
X206844412Y-73279689D01*
X206948631Y-73313553D01*
X207036858Y-73327527D01*
X207099993Y-73357456D01*
X207136924Y-73416768D01*
X207135926Y-73486630D01*
X207097316Y-73544863D01*
X207036858Y-73572473D01*
X206948631Y-73586446D01*
X206724003Y-73659433D01*
X206513566Y-73766657D01*
X206426420Y-73829973D01*
X206322490Y-73905483D01*
X206322488Y-73905485D01*
X206322487Y-73905485D01*
X206155485Y-74072487D01*
X206155485Y-74072488D01*
X206155483Y-74072490D01*
X206147492Y-74083489D01*
X206016657Y-74263566D01*
X205909433Y-74474003D01*
X205836446Y-74698631D01*
X205799500Y-74931902D01*
X205799500Y-75168097D01*
X205836446Y-75401368D01*
X205909433Y-75625996D01*
X206007171Y-75817816D01*
X206016657Y-75836433D01*
X206155483Y-76027510D01*
X206322490Y-76194517D01*
X206513567Y-76333343D01*
X206594719Y-76374692D01*
X206724003Y-76440566D01*
X206724005Y-76440566D01*
X206724008Y-76440568D01*
X206844412Y-76479689D01*
X206948631Y-76513553D01*
X207181903Y-76550500D01*
X207181908Y-76550500D01*
X207418097Y-76550500D01*
X207651368Y-76513553D01*
X207680563Y-76504067D01*
X207875992Y-76440568D01*
X208086433Y-76333343D01*
X208277510Y-76194517D01*
X208444517Y-76027510D01*
X208583343Y-75836433D01*
X208690568Y-75625992D01*
X208763553Y-75401368D01*
X208784032Y-75272069D01*
X208800500Y-75168097D01*
X208800500Y-74931902D01*
X208763553Y-74698631D01*
X208690566Y-74474003D01*
X208583342Y-74263566D01*
X208444517Y-74072490D01*
X208277510Y-73905483D01*
X208086433Y-73766657D01*
X208001107Y-73723181D01*
X207875996Y-73659433D01*
X207651368Y-73586446D01*
X207563141Y-73572473D01*
X207500006Y-73542544D01*
X207463075Y-73483232D01*
X207464073Y-73413370D01*
X207502683Y-73355137D01*
X207563141Y-73327527D01*
X207651368Y-73313553D01*
X207875992Y-73240568D01*
X208086433Y-73133343D01*
X208277510Y-72994517D01*
X208444517Y-72827510D01*
X208583343Y-72636433D01*
X208690568Y-72425992D01*
X208763553Y-72201368D01*
X208800500Y-71968097D01*
X208800500Y-71731902D01*
X208763553Y-71498631D01*
X208690566Y-71274003D01*
X208634002Y-71162991D01*
X208583343Y-71063567D01*
X208444517Y-70872490D01*
X208277510Y-70705483D01*
X208086433Y-70566657D01*
X208086429Y-70566655D01*
X207875996Y-70459433D01*
X207651368Y-70386446D01*
X207418097Y-70349500D01*
X207418092Y-70349500D01*
X207181908Y-70349500D01*
X207181903Y-70349500D01*
X206948631Y-70386446D01*
X206724003Y-70459433D01*
X206513566Y-70566657D01*
X206404617Y-70645814D01*
X206322490Y-70705483D01*
X206322488Y-70705485D01*
X206322487Y-70705485D01*
X206155485Y-70872487D01*
X206155485Y-70872488D01*
X206155483Y-70872490D01*
X206101964Y-70946153D01*
X206016657Y-71063566D01*
X205909433Y-71274003D01*
X205836446Y-71498631D01*
X205799500Y-71731902D01*
X204300500Y-71731902D01*
X204263553Y-71498631D01*
X204190566Y-71274003D01*
X204134002Y-71162991D01*
X204083343Y-71063567D01*
X203944517Y-70872490D01*
X203777510Y-70705483D01*
X203681971Y-70636070D01*
X203586431Y-70566655D01*
X203468204Y-70506415D01*
X203417409Y-70458441D01*
X203400500Y-70395931D01*
X203400500Y-66804067D01*
X203420185Y-66737028D01*
X203468205Y-66693582D01*
X203586433Y-66633343D01*
X203777510Y-66494517D01*
X203944517Y-66327510D01*
X204083343Y-66136433D01*
X204190568Y-65925992D01*
X204263553Y-65701368D01*
X204300500Y-65468097D01*
X204300500Y-65231902D01*
X204263553Y-64998631D01*
X204190566Y-64774003D01*
X204083342Y-64563566D01*
X203944517Y-64372490D01*
X203777510Y-64205483D01*
X203586433Y-64066657D01*
X203375996Y-63959433D01*
X203272135Y-63925686D01*
X203209793Y-63905430D01*
X203152119Y-63865993D01*
X203124921Y-63801635D01*
X203136836Y-63732788D01*
X203184080Y-63681313D01*
X203209792Y-63669569D01*
X203375992Y-63615568D01*
X203586433Y-63508343D01*
X203777510Y-63369517D01*
X203944517Y-63202510D01*
X204083343Y-63011433D01*
X204190568Y-62800992D01*
X204263553Y-62576368D01*
X204300500Y-62343097D01*
X204300500Y-62106902D01*
X205799500Y-62106902D01*
X205799500Y-62343097D01*
X205836446Y-62576368D01*
X205909433Y-62800996D01*
X206016657Y-63011433D01*
X206155483Y-63202510D01*
X206322490Y-63369517D01*
X206513567Y-63508343D01*
X206612991Y-63559002D01*
X206724003Y-63615566D01*
X206724005Y-63615566D01*
X206724008Y-63615568D01*
X206843886Y-63654519D01*
X206890205Y-63669569D01*
X206947880Y-63709007D01*
X206975078Y-63773366D01*
X206963163Y-63842212D01*
X206915919Y-63893688D01*
X206890205Y-63905431D01*
X206724003Y-63959433D01*
X206513566Y-64066657D01*
X206404550Y-64145862D01*
X206322490Y-64205483D01*
X206322488Y-64205485D01*
X206322487Y-64205485D01*
X206155485Y-64372487D01*
X206155485Y-64372488D01*
X206155483Y-64372490D01*
X206095862Y-64454550D01*
X206016657Y-64563566D01*
X205909433Y-64774003D01*
X205836446Y-64998631D01*
X205799500Y-65231902D01*
X205799500Y-65468097D01*
X205836446Y-65701368D01*
X205909433Y-65925996D01*
X206016657Y-66136433D01*
X206155483Y-66327510D01*
X206322490Y-66494517D01*
X206513567Y-66633343D01*
X206612991Y-66684002D01*
X206724003Y-66740566D01*
X206724005Y-66740566D01*
X206724008Y-66740568D01*
X206844412Y-66779689D01*
X206948631Y-66813553D01*
X207181903Y-66850500D01*
X207181908Y-66850500D01*
X207418097Y-66850500D01*
X207651368Y-66813553D01*
X207680563Y-66804067D01*
X207875992Y-66740568D01*
X208086433Y-66633343D01*
X208277510Y-66494517D01*
X208444517Y-66327510D01*
X208583343Y-66136433D01*
X208690568Y-65925992D01*
X208763553Y-65701368D01*
X208800500Y-65468097D01*
X208800500Y-65231902D01*
X208763553Y-64998631D01*
X208690566Y-64774003D01*
X208583342Y-64563566D01*
X208444517Y-64372490D01*
X208277510Y-64205483D01*
X208086433Y-64066657D01*
X207875996Y-63959433D01*
X207772135Y-63925686D01*
X207709793Y-63905430D01*
X207652119Y-63865993D01*
X207624921Y-63801635D01*
X207636836Y-63732788D01*
X207684080Y-63681313D01*
X207709792Y-63669569D01*
X207875992Y-63615568D01*
X208086433Y-63508343D01*
X208277510Y-63369517D01*
X208444517Y-63202510D01*
X208583343Y-63011433D01*
X208690568Y-62800992D01*
X208763553Y-62576368D01*
X208800500Y-62343097D01*
X208800500Y-62106902D01*
X208763553Y-61873631D01*
X208690566Y-61649003D01*
X208583342Y-61438566D01*
X208444517Y-61247490D01*
X208277510Y-61080483D01*
X208086433Y-60941657D01*
X208086429Y-60941655D01*
X207875996Y-60834433D01*
X207651368Y-60761446D01*
X207418097Y-60724500D01*
X207418092Y-60724500D01*
X207181908Y-60724500D01*
X207181903Y-60724500D01*
X206948631Y-60761446D01*
X206724003Y-60834433D01*
X206513566Y-60941657D01*
X206404550Y-61020862D01*
X206322490Y-61080483D01*
X206322488Y-61080485D01*
X206322487Y-61080485D01*
X206155485Y-61247487D01*
X206155485Y-61247488D01*
X206155483Y-61247490D01*
X206095862Y-61329550D01*
X206016657Y-61438566D01*
X205909433Y-61649003D01*
X205836446Y-61873631D01*
X205799500Y-62106902D01*
X204300500Y-62106902D01*
X204263553Y-61873631D01*
X204190566Y-61649003D01*
X204083342Y-61438566D01*
X203944517Y-61247490D01*
X203777510Y-61080483D01*
X203681971Y-61011070D01*
X203586431Y-60941655D01*
X203468204Y-60881415D01*
X203417409Y-60833441D01*
X203400500Y-60770931D01*
X203400500Y-57512332D01*
X210712000Y-57512332D01*
X210712000Y-57787667D01*
X210712001Y-57787684D01*
X210747938Y-58060655D01*
X210747939Y-58060660D01*
X210747940Y-58060666D01*
X210783572Y-58193649D01*
X210819204Y-58326630D01*
X210924575Y-58581017D01*
X210924580Y-58581028D01*
X211004309Y-58719121D01*
X211062251Y-58819479D01*
X211062253Y-58819482D01*
X211062254Y-58819483D01*
X211229870Y-59037926D01*
X211229876Y-59037933D01*
X211424566Y-59232623D01*
X211424572Y-59232628D01*
X211643021Y-59400249D01*
X211796278Y-59488732D01*
X211881471Y-59537919D01*
X211881476Y-59537921D01*
X211881479Y-59537923D01*
X212135868Y-59643295D01*
X212401834Y-59714560D01*
X212674826Y-59750500D01*
X212674833Y-59750500D01*
X212950167Y-59750500D01*
X212950174Y-59750500D01*
X213223166Y-59714560D01*
X213489132Y-59643295D01*
X213743521Y-59537923D01*
X213981979Y-59400249D01*
X214200428Y-59232628D01*
X214395128Y-59037928D01*
X214562749Y-58819479D01*
X214700423Y-58581021D01*
X214805795Y-58326632D01*
X214877060Y-58060666D01*
X214913000Y-57787674D01*
X214913000Y-57512326D01*
X214877060Y-57239334D01*
X214805795Y-56973368D01*
X214700423Y-56718979D01*
X214700421Y-56718976D01*
X214700419Y-56718971D01*
X214648133Y-56628411D01*
X214562749Y-56480521D01*
X214436923Y-56316540D01*
X214395129Y-56262073D01*
X214395123Y-56262066D01*
X214200433Y-56067376D01*
X214200426Y-56067370D01*
X213981983Y-55899754D01*
X213981982Y-55899753D01*
X213981979Y-55899751D01*
X213883843Y-55843092D01*
X213743528Y-55762080D01*
X213743517Y-55762075D01*
X213489130Y-55656704D01*
X213356149Y-55621072D01*
X213223166Y-55585440D01*
X213223160Y-55585439D01*
X213223155Y-55585438D01*
X212950184Y-55549501D01*
X212950179Y-55549500D01*
X212950174Y-55549500D01*
X212674826Y-55549500D01*
X212674820Y-55549500D01*
X212674815Y-55549501D01*
X212401844Y-55585438D01*
X212401837Y-55585439D01*
X212401834Y-55585440D01*
X212345625Y-55600500D01*
X212135869Y-55656704D01*
X211881482Y-55762075D01*
X211881471Y-55762080D01*
X211643016Y-55899754D01*
X211424573Y-56067370D01*
X211424566Y-56067376D01*
X211229876Y-56262066D01*
X211229870Y-56262073D01*
X211062254Y-56480516D01*
X210924580Y-56718971D01*
X210924575Y-56718982D01*
X210819204Y-56973369D01*
X210747941Y-57239331D01*
X210747938Y-57239344D01*
X210712001Y-57512315D01*
X210712000Y-57512332D01*
X203400500Y-57512332D01*
X203400500Y-57179067D01*
X203420185Y-57112028D01*
X203468205Y-57068582D01*
X203586433Y-57008343D01*
X203777510Y-56869517D01*
X203944517Y-56702510D01*
X204083343Y-56511433D01*
X204186630Y-56308719D01*
X204190566Y-56300996D01*
X204190566Y-56300995D01*
X204190568Y-56300992D01*
X204263553Y-56076368D01*
X204274722Y-56005848D01*
X204300500Y-55843097D01*
X204300500Y-55606902D01*
X204263553Y-55373631D01*
X204216747Y-55229579D01*
X204190568Y-55149008D01*
X204190566Y-55149005D01*
X204190566Y-55149003D01*
X204086544Y-54944850D01*
X204083343Y-54938567D01*
X203944517Y-54747490D01*
X203777510Y-54580483D01*
X203586433Y-54441657D01*
X203475208Y-54384985D01*
X203424412Y-54337010D01*
X203407617Y-54269189D01*
X203430154Y-54203054D01*
X203484870Y-54159603D01*
X203531503Y-54150500D01*
X206568497Y-54150500D01*
X206635536Y-54170185D01*
X206681291Y-54222989D01*
X206691235Y-54292147D01*
X206662210Y-54355703D01*
X206624792Y-54384985D01*
X206513566Y-54441657D01*
X206404550Y-54520862D01*
X206322490Y-54580483D01*
X206322488Y-54580485D01*
X206322487Y-54580485D01*
X206155485Y-54747487D01*
X206155485Y-54747488D01*
X206155483Y-54747490D01*
X206095862Y-54829550D01*
X206016657Y-54938566D01*
X205909433Y-55149003D01*
X205836446Y-55373631D01*
X205799500Y-55606902D01*
X205799500Y-55843097D01*
X205836446Y-56076368D01*
X205909433Y-56300996D01*
X206016657Y-56511433D01*
X206155483Y-56702510D01*
X206322490Y-56869517D01*
X206513567Y-57008343D01*
X206612991Y-57059002D01*
X206724003Y-57115566D01*
X206724005Y-57115566D01*
X206724008Y-57115568D01*
X206844412Y-57154689D01*
X206948631Y-57188553D01*
X207181903Y-57225500D01*
X207181908Y-57225500D01*
X207418097Y-57225500D01*
X207651368Y-57188553D01*
X207680563Y-57179067D01*
X207875992Y-57115568D01*
X208086433Y-57008343D01*
X208277510Y-56869517D01*
X208444517Y-56702510D01*
X208583343Y-56511433D01*
X208686630Y-56308719D01*
X208690566Y-56300996D01*
X208690566Y-56300995D01*
X208690568Y-56300992D01*
X208763553Y-56076368D01*
X208774722Y-56005848D01*
X208800500Y-55843097D01*
X208800500Y-55606902D01*
X208763553Y-55373631D01*
X208716747Y-55229579D01*
X208690568Y-55149008D01*
X208690566Y-55149005D01*
X208690566Y-55149003D01*
X208586544Y-54944850D01*
X208583343Y-54938567D01*
X208444517Y-54747490D01*
X208277510Y-54580483D01*
X208086433Y-54441657D01*
X207975208Y-54384985D01*
X207924412Y-54337010D01*
X207907617Y-54269189D01*
X207930154Y-54203054D01*
X207984870Y-54159603D01*
X208031503Y-54150500D01*
X212746608Y-54150500D01*
X212809449Y-54150500D01*
X212815532Y-54150648D01*
X213149429Y-54167052D01*
X213161537Y-54168245D01*
X213174616Y-54170185D01*
X213489199Y-54216849D01*
X213501117Y-54219219D01*
X213822451Y-54299709D01*
X213834088Y-54303240D01*
X213905306Y-54328722D01*
X214145967Y-54414832D01*
X214157188Y-54419479D01*
X214456663Y-54561120D01*
X214467371Y-54566844D01*
X214751488Y-54737137D01*
X214761603Y-54743895D01*
X214982413Y-54907659D01*
X215027670Y-54941224D01*
X215037076Y-54948944D01*
X215282513Y-55171395D01*
X215291104Y-55179986D01*
X215478255Y-55386475D01*
X215513555Y-55425423D01*
X215521275Y-55434829D01*
X215718602Y-55700893D01*
X215725362Y-55711011D01*
X215854276Y-55926092D01*
X215895648Y-55995116D01*
X215901383Y-56005844D01*
X216022570Y-56262073D01*
X216043014Y-56305297D01*
X216047670Y-56316540D01*
X216159259Y-56628411D01*
X216162792Y-56640055D01*
X216243277Y-56961369D01*
X216245651Y-56973305D01*
X216294254Y-57300962D01*
X216295447Y-57313071D01*
X216311851Y-57646966D01*
X216312000Y-57653051D01*
X216312000Y-150068521D01*
X216311851Y-150074606D01*
X216295447Y-150408501D01*
X216294254Y-150420610D01*
X216245651Y-150748267D01*
X216243277Y-150760203D01*
X216162792Y-151081517D01*
X216159259Y-151093161D01*
X216047670Y-151405032D01*
X216043014Y-151416275D01*
X215901385Y-151715724D01*
X215895648Y-151726456D01*
X215725362Y-152010561D01*
X215718602Y-152020679D01*
X215521275Y-152286743D01*
X215513555Y-152296149D01*
X215291111Y-152541579D01*
X215282506Y-152550184D01*
X215037076Y-152772628D01*
X215027670Y-152780348D01*
X214761606Y-152977675D01*
X214751488Y-152984435D01*
X214467383Y-153154721D01*
X214456651Y-153160458D01*
X214157202Y-153302087D01*
X214145959Y-153306743D01*
X213834088Y-153418332D01*
X213822444Y-153421865D01*
X213501130Y-153502350D01*
X213489194Y-153504724D01*
X213161537Y-153553327D01*
X213149428Y-153554520D01*
X212834489Y-153569992D01*
X212815531Y-153570924D01*
X212809449Y-153571073D01*
X169840551Y-153571073D01*
X169834468Y-153570924D01*
X169814400Y-153569938D01*
X169500571Y-153554520D01*
X169488462Y-153553327D01*
X169160805Y-153504724D01*
X169148869Y-153502350D01*
X168827555Y-153421865D01*
X168815911Y-153418332D01*
X168504040Y-153306743D01*
X168492801Y-153302088D01*
X168193344Y-153160456D01*
X168182621Y-153154723D01*
X167898511Y-152984435D01*
X167888393Y-152977675D01*
X167622329Y-152780348D01*
X167612923Y-152772628D01*
X167573975Y-152737328D01*
X167367486Y-152550177D01*
X167358895Y-152541586D01*
X167136444Y-152296149D01*
X167128724Y-152286743D01*
X167028534Y-152151653D01*
X166931395Y-152020676D01*
X166924637Y-152010561D01*
X166754344Y-151726444D01*
X166748620Y-151715736D01*
X166606979Y-151416261D01*
X166602329Y-151405032D01*
X166490740Y-151093161D01*
X166487207Y-151081517D01*
X166478458Y-151046588D01*
X166406719Y-150760190D01*
X166404348Y-150748267D01*
X166355745Y-150420610D01*
X166354552Y-150408500D01*
X166338149Y-150074605D01*
X166338000Y-150068521D01*
X166338000Y-149933905D01*
X167737000Y-149933905D01*
X167737000Y-150209240D01*
X167737001Y-150209257D01*
X167772938Y-150482228D01*
X167772939Y-150482233D01*
X167772940Y-150482239D01*
X167772941Y-150482241D01*
X167844204Y-150748203D01*
X167949575Y-151002590D01*
X167949580Y-151002601D01*
X168001866Y-151093161D01*
X168087251Y-151241052D01*
X168087253Y-151241055D01*
X168087254Y-151241056D01*
X168254870Y-151459499D01*
X168254876Y-151459506D01*
X168449566Y-151654196D01*
X168449572Y-151654201D01*
X168668021Y-151821822D01*
X168821278Y-151910305D01*
X168906471Y-151959492D01*
X168906476Y-151959494D01*
X168906479Y-151959496D01*
X169160868Y-152064868D01*
X169426834Y-152136133D01*
X169699826Y-152172073D01*
X169699833Y-152172073D01*
X169975167Y-152172073D01*
X169975174Y-152172073D01*
X170248166Y-152136133D01*
X170514132Y-152064868D01*
X170768521Y-151959496D01*
X171006979Y-151821822D01*
X171225428Y-151654201D01*
X171420128Y-151459501D01*
X171587749Y-151241052D01*
X171725423Y-151002594D01*
X171830795Y-150748205D01*
X171902060Y-150482239D01*
X171938000Y-150209247D01*
X171938000Y-149933899D01*
X171902060Y-149660907D01*
X171830795Y-149394941D01*
X171725423Y-149140552D01*
X171725421Y-149140549D01*
X171725419Y-149140544D01*
X171669584Y-149043836D01*
X171669583Y-149043835D01*
X171635605Y-148984983D01*
X176712000Y-148984983D01*
X176712000Y-150185001D01*
X176712001Y-150185018D01*
X176722500Y-150287796D01*
X176722501Y-150287799D01*
X176735904Y-150328246D01*
X176777686Y-150454334D01*
X176869788Y-150603656D01*
X176993844Y-150727712D01*
X177143166Y-150819814D01*
X177309703Y-150874999D01*
X177412491Y-150885500D01*
X178612508Y-150885499D01*
X178715297Y-150874999D01*
X178881834Y-150819814D01*
X179031156Y-150727712D01*
X179155212Y-150603656D01*
X179247314Y-150454334D01*
X179302499Y-150287797D01*
X179313000Y-150185009D01*
X179313000Y-149892135D01*
X183779500Y-149892135D01*
X183779500Y-151987870D01*
X183779501Y-151987876D01*
X183785908Y-152047483D01*
X183836202Y-152182328D01*
X183836206Y-152182335D01*
X183922452Y-152297544D01*
X183922455Y-152297547D01*
X184037664Y-152383793D01*
X184037671Y-152383797D01*
X184172517Y-152434091D01*
X184172516Y-152434091D01*
X184179444Y-152434835D01*
X184232127Y-152440500D01*
X185227872Y-152440499D01*
X185287483Y-152434091D01*
X185422331Y-152383796D01*
X185537546Y-152297546D01*
X185623796Y-152182331D01*
X185674091Y-152047483D01*
X185680500Y-151987873D01*
X185680499Y-149892135D01*
X197279500Y-149892135D01*
X197279500Y-151987870D01*
X197279501Y-151987876D01*
X197285908Y-152047483D01*
X197336202Y-152182328D01*
X197336206Y-152182335D01*
X197422452Y-152297544D01*
X197422455Y-152297547D01*
X197537664Y-152383793D01*
X197537671Y-152383797D01*
X197672517Y-152434091D01*
X197672516Y-152434091D01*
X197679444Y-152434835D01*
X197732127Y-152440500D01*
X198727872Y-152440499D01*
X198787483Y-152434091D01*
X198922331Y-152383796D01*
X199037546Y-152297546D01*
X199123796Y-152182331D01*
X199174091Y-152047483D01*
X199180500Y-151987873D01*
X199180499Y-149933905D01*
X210712000Y-149933905D01*
X210712000Y-150209240D01*
X210712001Y-150209257D01*
X210747938Y-150482228D01*
X210747939Y-150482233D01*
X210747940Y-150482239D01*
X210747941Y-150482241D01*
X210819204Y-150748203D01*
X210924575Y-151002590D01*
X210924580Y-151002601D01*
X210976866Y-151093161D01*
X211062251Y-151241052D01*
X211062253Y-151241055D01*
X211062254Y-151241056D01*
X211229870Y-151459499D01*
X211229876Y-151459506D01*
X211424566Y-151654196D01*
X211424572Y-151654201D01*
X211643021Y-151821822D01*
X211796278Y-151910305D01*
X211881471Y-151959492D01*
X211881476Y-151959494D01*
X211881479Y-151959496D01*
X212135868Y-152064868D01*
X212401834Y-152136133D01*
X212674826Y-152172073D01*
X212674833Y-152172073D01*
X212950167Y-152172073D01*
X212950174Y-152172073D01*
X213223166Y-152136133D01*
X213489132Y-152064868D01*
X213743521Y-151959496D01*
X213981979Y-151821822D01*
X214200428Y-151654201D01*
X214395128Y-151459501D01*
X214562749Y-151241052D01*
X214700423Y-151002594D01*
X214805795Y-150748205D01*
X214877060Y-150482239D01*
X214913000Y-150209247D01*
X214913000Y-149933899D01*
X214877060Y-149660907D01*
X214805795Y-149394941D01*
X214700423Y-149140552D01*
X214700421Y-149140549D01*
X214700419Y-149140544D01*
X214644583Y-149043835D01*
X214562749Y-148902094D01*
X214419700Y-148715668D01*
X214395129Y-148683646D01*
X214395123Y-148683639D01*
X214200433Y-148488949D01*
X214200426Y-148488943D01*
X213981983Y-148321327D01*
X213981982Y-148321326D01*
X213981979Y-148321324D01*
X213855292Y-148248181D01*
X213743528Y-148183653D01*
X213743517Y-148183648D01*
X213489130Y-148078277D01*
X213356149Y-148042645D01*
X213223166Y-148007013D01*
X213223160Y-148007012D01*
X213223155Y-148007011D01*
X212950184Y-147971074D01*
X212950179Y-147971073D01*
X212950174Y-147971073D01*
X212674826Y-147971073D01*
X212674820Y-147971073D01*
X212674815Y-147971074D01*
X212401844Y-148007011D01*
X212401837Y-148007012D01*
X212401834Y-148007013D01*
X212345625Y-148022073D01*
X212135869Y-148078277D01*
X211881482Y-148183648D01*
X211881471Y-148183653D01*
X211643016Y-148321327D01*
X211424573Y-148488943D01*
X211424566Y-148488949D01*
X211229876Y-148683639D01*
X211229870Y-148683646D01*
X211062254Y-148902089D01*
X210924580Y-149140544D01*
X210924575Y-149140555D01*
X210819204Y-149394942D01*
X210747941Y-149660904D01*
X210747938Y-149660917D01*
X210712001Y-149933888D01*
X210712000Y-149933905D01*
X199180499Y-149933905D01*
X199180499Y-149892128D01*
X199174091Y-149832517D01*
X199167520Y-149814900D01*
X199123797Y-149697671D01*
X199123793Y-149697664D01*
X199037547Y-149582455D01*
X199037544Y-149582452D01*
X198922335Y-149496206D01*
X198922328Y-149496202D01*
X198787482Y-149445908D01*
X198787483Y-149445908D01*
X198727883Y-149439501D01*
X198727881Y-149439500D01*
X198727873Y-149439500D01*
X198727864Y-149439500D01*
X197732129Y-149439500D01*
X197732123Y-149439501D01*
X197672516Y-149445908D01*
X197537671Y-149496202D01*
X197537664Y-149496206D01*
X197422455Y-149582452D01*
X197422452Y-149582455D01*
X197336206Y-149697664D01*
X197336202Y-149697671D01*
X197285908Y-149832517D01*
X197279857Y-149888806D01*
X197279501Y-149892123D01*
X197279500Y-149892135D01*
X185680499Y-149892135D01*
X185680499Y-149892128D01*
X185674091Y-149832517D01*
X185667520Y-149814900D01*
X185623797Y-149697671D01*
X185623793Y-149697664D01*
X185537547Y-149582455D01*
X185537544Y-149582452D01*
X185422335Y-149496206D01*
X185422328Y-149496202D01*
X185287482Y-149445908D01*
X185287483Y-149445908D01*
X185227883Y-149439501D01*
X185227881Y-149439500D01*
X185227873Y-149439500D01*
X185227864Y-149439500D01*
X184232129Y-149439500D01*
X184232123Y-149439501D01*
X184172516Y-149445908D01*
X184037671Y-149496202D01*
X184037664Y-149496206D01*
X183922455Y-149582452D01*
X183922452Y-149582455D01*
X183836206Y-149697664D01*
X183836202Y-149697671D01*
X183785908Y-149832517D01*
X183779857Y-149888806D01*
X183779501Y-149892123D01*
X183779500Y-149892135D01*
X179313000Y-149892135D01*
X179312999Y-149582455D01*
X179312999Y-148984998D01*
X179312998Y-148984981D01*
X179302499Y-148882206D01*
X179302499Y-148882203D01*
X179280761Y-148816603D01*
X179278359Y-148746774D01*
X179310784Y-148689920D01*
X180108570Y-147892135D01*
X189829500Y-147892135D01*
X189829500Y-149287870D01*
X189829501Y-149287876D01*
X189835908Y-149347483D01*
X189886202Y-149482328D01*
X189886206Y-149482335D01*
X189972452Y-149597544D01*
X189972455Y-149597547D01*
X190087664Y-149683793D01*
X190087671Y-149683797D01*
X190222517Y-149734091D01*
X190222516Y-149734091D01*
X190229444Y-149734835D01*
X190282127Y-149740500D01*
X192677872Y-149740499D01*
X192737483Y-149734091D01*
X192872331Y-149683796D01*
X192987546Y-149597546D01*
X193073796Y-149482331D01*
X193124091Y-149347483D01*
X193130500Y-149287873D01*
X193130499Y-147892128D01*
X193124091Y-147832517D01*
X193073796Y-147697669D01*
X193073795Y-147697668D01*
X193073793Y-147697664D01*
X192987547Y-147582455D01*
X192987544Y-147582452D01*
X192872335Y-147496206D01*
X192872328Y-147496202D01*
X192737482Y-147445908D01*
X192737483Y-147445908D01*
X192677883Y-147439501D01*
X192677881Y-147439500D01*
X192677873Y-147439500D01*
X192677864Y-147439500D01*
X190282129Y-147439500D01*
X190282123Y-147439501D01*
X190222516Y-147445908D01*
X190087671Y-147496202D01*
X190087664Y-147496206D01*
X189972455Y-147582452D01*
X189972452Y-147582455D01*
X189886206Y-147697664D01*
X189886202Y-147697671D01*
X189835908Y-147832517D01*
X189829501Y-147892116D01*
X189829501Y-147892123D01*
X189829500Y-147892135D01*
X180108570Y-147892135D01*
X182423888Y-145576819D01*
X182485211Y-145543334D01*
X182511569Y-145540500D01*
X185302082Y-145540500D01*
X185369121Y-145560185D01*
X185414876Y-145612989D01*
X185422973Y-145636909D01*
X185425316Y-145647178D01*
X185425321Y-145647193D01*
X185519929Y-145917565D01*
X185519935Y-145917579D01*
X185644223Y-146175666D01*
X185644225Y-146175669D01*
X185796634Y-146418227D01*
X185975243Y-146642195D01*
X186177805Y-146844757D01*
X186401773Y-147023366D01*
X186644331Y-147175775D01*
X186902428Y-147300068D01*
X186902434Y-147300070D01*
X187172806Y-147394678D01*
X187172818Y-147394682D01*
X187452102Y-147458426D01*
X187452105Y-147458426D01*
X187452108Y-147458427D01*
X187452107Y-147458427D01*
X187594434Y-147474463D01*
X187736763Y-147490499D01*
X187736764Y-147490500D01*
X187736767Y-147490500D01*
X188023236Y-147490500D01*
X188023236Y-147490499D01*
X188228815Y-147467336D01*
X188307891Y-147458427D01*
X188307892Y-147458426D01*
X188307898Y-147458426D01*
X188587182Y-147394682D01*
X188857572Y-147300068D01*
X189115669Y-147175775D01*
X189358227Y-147023366D01*
X189582195Y-146844757D01*
X189784757Y-146642195D01*
X189963366Y-146418227D01*
X190115775Y-146175669D01*
X190240068Y-145917572D01*
X190334682Y-145647182D01*
X190398426Y-145367898D01*
X190411020Y-145256126D01*
X190425822Y-145124755D01*
X190425822Y-145124754D01*
X190427426Y-145110508D01*
X190430500Y-145083233D01*
X190430500Y-144796767D01*
X190398426Y-144512102D01*
X190334682Y-144232818D01*
X190240068Y-143962428D01*
X190183388Y-143844731D01*
X192530000Y-143844731D01*
X192530000Y-144690000D01*
X193752769Y-144690000D01*
X193730000Y-144833753D01*
X193730000Y-145046247D01*
X193752769Y-145190000D01*
X192530000Y-145190000D01*
X192530000Y-146035268D01*
X192540215Y-146179958D01*
X192540217Y-146179968D01*
X192594313Y-146420165D01*
X192594315Y-146420172D01*
X192686244Y-146648585D01*
X192813620Y-146859289D01*
X192813627Y-146859299D01*
X192973153Y-147046846D01*
X193160700Y-147206372D01*
X193160710Y-147206379D01*
X193371414Y-147333755D01*
X193599827Y-147425684D01*
X193599834Y-147425686D01*
X193840031Y-147479782D01*
X193840041Y-147479784D01*
X193984731Y-147489999D01*
X193984734Y-147490000D01*
X194830000Y-147490000D01*
X194830000Y-146267231D01*
X194973753Y-146290000D01*
X195186247Y-146290000D01*
X195330000Y-146267231D01*
X195330000Y-147490000D01*
X196175266Y-147490000D01*
X196175268Y-147489999D01*
X196319958Y-147479784D01*
X196319968Y-147479782D01*
X196560165Y-147425686D01*
X196560172Y-147425684D01*
X196788585Y-147333755D01*
X196999289Y-147206379D01*
X196999299Y-147206372D01*
X197186846Y-147046846D01*
X197346372Y-146859299D01*
X197346379Y-146859289D01*
X197473755Y-146648585D01*
X197565684Y-146420172D01*
X197565686Y-146420165D01*
X197619782Y-146179968D01*
X197619784Y-146179958D01*
X197629999Y-146035268D01*
X197630000Y-146035266D01*
X197630000Y-145190000D01*
X196407231Y-145190000D01*
X196430000Y-145046247D01*
X196430000Y-144833753D01*
X196407231Y-144690000D01*
X197630000Y-144690000D01*
X197630000Y-143844734D01*
X197629999Y-143844731D01*
X197619784Y-143700041D01*
X197619782Y-143700031D01*
X197565686Y-143459834D01*
X197565684Y-143459827D01*
X197473755Y-143231414D01*
X197346379Y-143020710D01*
X197346372Y-143020700D01*
X197186846Y-142833153D01*
X196999299Y-142673627D01*
X196999289Y-142673620D01*
X196788585Y-142546244D01*
X196560172Y-142454315D01*
X196560165Y-142454313D01*
X196319968Y-142400217D01*
X196319958Y-142400215D01*
X196175268Y-142390000D01*
X195330000Y-142390000D01*
X195330000Y-143612768D01*
X195186247Y-143590000D01*
X194973753Y-143590000D01*
X194830000Y-143612768D01*
X194830000Y-142390000D01*
X193984731Y-142390000D01*
X193840041Y-142400215D01*
X193840031Y-142400217D01*
X193599834Y-142454313D01*
X193599827Y-142454315D01*
X193371414Y-142546244D01*
X193160710Y-142673620D01*
X193160700Y-142673627D01*
X192973153Y-142833153D01*
X192813627Y-143020700D01*
X192813620Y-143020710D01*
X192686244Y-143231414D01*
X192594315Y-143459827D01*
X192594313Y-143459834D01*
X192540217Y-143700031D01*
X192540215Y-143700041D01*
X192530000Y-143844731D01*
X190183388Y-143844731D01*
X190154805Y-143785377D01*
X190115778Y-143704336D01*
X190106083Y-143688906D01*
X189963366Y-143461773D01*
X189784757Y-143237805D01*
X189582195Y-143035243D01*
X189358227Y-142856634D01*
X189115669Y-142704225D01*
X189115666Y-142704223D01*
X188857579Y-142579935D01*
X188857565Y-142579929D01*
X188587193Y-142485321D01*
X188587181Y-142485317D01*
X188307891Y-142421572D01*
X188307892Y-142421572D01*
X188023237Y-142389500D01*
X188023233Y-142389500D01*
X187736767Y-142389500D01*
X187736762Y-142389500D01*
X187452108Y-142421572D01*
X187172818Y-142485317D01*
X187172806Y-142485321D01*
X186902434Y-142579929D01*
X186902420Y-142579935D01*
X186644333Y-142704223D01*
X186401774Y-142856633D01*
X186177805Y-143035242D01*
X185975242Y-143237805D01*
X185796633Y-143461774D01*
X185644223Y-143704333D01*
X185519935Y-143962420D01*
X185519929Y-143962434D01*
X185425321Y-144232806D01*
X185425316Y-144232821D01*
X185422973Y-144243091D01*
X185388865Y-144304070D01*
X185327204Y-144336928D01*
X185302082Y-144339500D01*
X182298141Y-144339500D01*
X182298125Y-144339499D01*
X182290529Y-144339499D01*
X182132414Y-144339499D01*
X182056050Y-144359961D01*
X181979685Y-144380423D01*
X181979680Y-144380426D01*
X181842761Y-144459475D01*
X181842753Y-144459481D01*
X178054053Y-148248181D01*
X177992730Y-148281666D01*
X177966372Y-148284500D01*
X177412498Y-148284500D01*
X177412480Y-148284501D01*
X177309703Y-148295000D01*
X177309700Y-148295001D01*
X177143168Y-148350185D01*
X177143163Y-148350187D01*
X176993842Y-148442289D01*
X176869789Y-148566342D01*
X176777687Y-148715663D01*
X176777686Y-148715666D01*
X176722501Y-148882203D01*
X176722501Y-148882204D01*
X176722500Y-148882204D01*
X176712000Y-148984983D01*
X171635605Y-148984983D01*
X171587749Y-148902094D01*
X171587743Y-148902086D01*
X171420129Y-148683646D01*
X171420123Y-148683639D01*
X171225433Y-148488949D01*
X171225426Y-148488943D01*
X171006983Y-148321327D01*
X171006982Y-148321326D01*
X171006979Y-148321324D01*
X170880292Y-148248181D01*
X170768528Y-148183653D01*
X170768517Y-148183648D01*
X170514130Y-148078277D01*
X170381149Y-148042645D01*
X170248166Y-148007013D01*
X170248160Y-148007012D01*
X170248155Y-148007011D01*
X169975184Y-147971074D01*
X169975179Y-147971073D01*
X169975174Y-147971073D01*
X169699826Y-147971073D01*
X169699820Y-147971073D01*
X169699815Y-147971074D01*
X169426844Y-148007011D01*
X169426837Y-148007012D01*
X169426834Y-148007013D01*
X169370625Y-148022073D01*
X169160869Y-148078277D01*
X168906482Y-148183648D01*
X168906471Y-148183653D01*
X168668016Y-148321327D01*
X168449573Y-148488943D01*
X168449566Y-148488949D01*
X168254876Y-148683639D01*
X168254870Y-148683646D01*
X168087254Y-148902089D01*
X167949580Y-149140544D01*
X167949575Y-149140555D01*
X167844204Y-149394942D01*
X167772941Y-149660904D01*
X167772938Y-149660917D01*
X167737001Y-149933888D01*
X167737000Y-149933905D01*
X166338000Y-149933905D01*
X166338000Y-141862648D01*
X176712000Y-141862648D01*
X176712000Y-142067351D01*
X176744022Y-142269534D01*
X176807281Y-142464223D01*
X176900215Y-142646613D01*
X177020528Y-142812213D01*
X177165286Y-142956971D01*
X177320249Y-143069556D01*
X177330890Y-143077287D01*
X177447107Y-143136503D01*
X177513276Y-143170218D01*
X177513278Y-143170218D01*
X177513281Y-143170220D01*
X177617637Y-143204127D01*
X177707965Y-143233477D01*
X177735291Y-143237805D01*
X177910148Y-143265500D01*
X177910149Y-143265500D01*
X178114851Y-143265500D01*
X178114852Y-143265500D01*
X178317034Y-143233477D01*
X178511719Y-143170220D01*
X178694110Y-143077287D01*
X178787090Y-143009732D01*
X178859713Y-142956971D01*
X178859715Y-142956968D01*
X178859719Y-142956966D01*
X179004466Y-142812219D01*
X179004468Y-142812215D01*
X179004471Y-142812213D01*
X179057232Y-142739590D01*
X179124787Y-142646610D01*
X179217720Y-142464219D01*
X179280977Y-142269534D01*
X179313000Y-142067352D01*
X179313000Y-141862648D01*
X179280977Y-141660466D01*
X179276325Y-141646151D01*
X179274332Y-141576312D01*
X179306575Y-141520158D01*
X183519916Y-137306818D01*
X183581239Y-137273333D01*
X183607597Y-137270499D01*
X184035002Y-137270499D01*
X184035008Y-137270499D01*
X184137797Y-137259999D01*
X184304334Y-137204814D01*
X184453656Y-137112712D01*
X184577712Y-136988656D01*
X184669814Y-136839334D01*
X184724999Y-136672797D01*
X184735500Y-136570009D01*
X184735499Y-134429992D01*
X184724999Y-134327203D01*
X184669814Y-134160666D01*
X184577712Y-134011344D01*
X184453656Y-133887288D01*
X184438027Y-133877648D01*
X195699500Y-133877648D01*
X195699500Y-134082351D01*
X195731522Y-134284534D01*
X195794781Y-134479223D01*
X195887715Y-134661613D01*
X196008028Y-134827213D01*
X196152786Y-134971971D01*
X196307749Y-135084556D01*
X196318390Y-135092287D01*
X196409840Y-135138883D01*
X196411080Y-135139515D01*
X196461876Y-135187490D01*
X196478671Y-135255311D01*
X196456134Y-135321446D01*
X196411080Y-135360485D01*
X196318386Y-135407715D01*
X196152786Y-135528028D01*
X196008028Y-135672786D01*
X195887715Y-135838386D01*
X195794781Y-136020776D01*
X195731522Y-136215465D01*
X195699500Y-136417648D01*
X195699500Y-136622351D01*
X195731522Y-136824534D01*
X195794781Y-137019223D01*
X195833762Y-137095726D01*
X195864471Y-137155996D01*
X195887715Y-137201613D01*
X196008028Y-137367213D01*
X196152786Y-137511971D01*
X196318385Y-137632284D01*
X196318387Y-137632285D01*
X196318390Y-137632287D01*
X196411630Y-137679795D01*
X196462426Y-137727770D01*
X196479221Y-137795591D01*
X196456684Y-137861725D01*
X196411630Y-137900765D01*
X196318644Y-137948143D01*
X196274077Y-137980523D01*
X196274077Y-137980524D01*
X196953554Y-138660000D01*
X196947339Y-138660000D01*
X196845606Y-138687259D01*
X196754394Y-138739920D01*
X196679920Y-138814394D01*
X196627259Y-138905606D01*
X196600000Y-139007339D01*
X196600000Y-139013553D01*
X195920524Y-138334077D01*
X195920523Y-138334077D01*
X195888143Y-138378644D01*
X195795244Y-138560968D01*
X195732009Y-138755582D01*
X195700000Y-138957682D01*
X195700000Y-139162317D01*
X195732009Y-139364417D01*
X195795244Y-139559031D01*
X195888141Y-139741350D01*
X195888147Y-139741359D01*
X195920523Y-139785921D01*
X195920524Y-139785922D01*
X196600000Y-139106446D01*
X196600000Y-139112661D01*
X196627259Y-139214394D01*
X196679920Y-139305606D01*
X196754394Y-139380080D01*
X196845606Y-139432741D01*
X196947339Y-139460000D01*
X196953553Y-139460000D01*
X196274076Y-140139474D01*
X196318650Y-140171859D01*
X196500968Y-140264755D01*
X196695582Y-140327990D01*
X196897683Y-140360000D01*
X197102317Y-140360000D01*
X197304417Y-140327990D01*
X197499031Y-140264755D01*
X197681349Y-140171859D01*
X197725921Y-140139474D01*
X197046447Y-139460000D01*
X197052661Y-139460000D01*
X197154394Y-139432741D01*
X197245606Y-139380080D01*
X197320080Y-139305606D01*
X197372741Y-139214394D01*
X197400000Y-139112661D01*
X197400000Y-139106447D01*
X198079474Y-139785921D01*
X198111859Y-139741349D01*
X198204755Y-139559031D01*
X198267990Y-139364417D01*
X198300000Y-139162317D01*
X198300000Y-138957682D01*
X198267990Y-138755582D01*
X198204755Y-138560968D01*
X198111859Y-138378650D01*
X198079474Y-138334077D01*
X198079474Y-138334076D01*
X197400000Y-139013551D01*
X197400000Y-139007339D01*
X197372741Y-138905606D01*
X197320080Y-138814394D01*
X197245606Y-138739920D01*
X197154394Y-138687259D01*
X197052661Y-138660000D01*
X197046446Y-138660000D01*
X197725922Y-137980524D01*
X197725921Y-137980523D01*
X197681359Y-137948147D01*
X197681350Y-137948141D01*
X197588369Y-137900765D01*
X197537573Y-137852790D01*
X197520778Y-137784969D01*
X197543315Y-137718835D01*
X197588370Y-137679795D01*
X197681610Y-137632287D01*
X197753550Y-137580020D01*
X197847213Y-137511971D01*
X197847215Y-137511968D01*
X197847219Y-137511966D01*
X197991966Y-137367219D01*
X197991968Y-137367215D01*
X197991971Y-137367213D01*
X198044732Y-137294590D01*
X198112287Y-137201610D01*
X198205220Y-137019219D01*
X198268477Y-136824534D01*
X198300500Y-136622352D01*
X198300500Y-136417648D01*
X198268477Y-136215466D01*
X198205220Y-136020781D01*
X198205218Y-136020778D01*
X198205218Y-136020776D01*
X198171503Y-135954607D01*
X198112287Y-135838390D01*
X198098984Y-135820080D01*
X197991971Y-135672786D01*
X197847213Y-135528028D01*
X197681614Y-135407715D01*
X197675006Y-135404348D01*
X197588917Y-135360483D01*
X197538123Y-135312511D01*
X197521328Y-135244690D01*
X197543865Y-135178555D01*
X197588917Y-135139516D01*
X197681610Y-135092287D01*
X197702770Y-135076913D01*
X197847213Y-134971971D01*
X197847215Y-134971968D01*
X197847219Y-134971966D01*
X197991966Y-134827219D01*
X197991968Y-134827215D01*
X197991971Y-134827213D01*
X198044732Y-134754590D01*
X198112287Y-134661610D01*
X198205220Y-134479219D01*
X198268477Y-134284534D01*
X198300500Y-134082352D01*
X198300500Y-133877648D01*
X198278698Y-133740000D01*
X198268477Y-133675465D01*
X198229106Y-133554294D01*
X198205220Y-133480781D01*
X198205218Y-133480778D01*
X198205218Y-133480776D01*
X198171503Y-133414607D01*
X198112287Y-133298390D01*
X198069858Y-133239991D01*
X197991971Y-133132786D01*
X197847213Y-132988028D01*
X197681611Y-132867713D01*
X197588369Y-132820203D01*
X197537574Y-132772229D01*
X197520779Y-132704407D01*
X197543317Y-132638273D01*
X197588371Y-132599234D01*
X197681346Y-132551861D01*
X197681347Y-132551861D01*
X197725921Y-132519474D01*
X197046447Y-131840000D01*
X197052661Y-131840000D01*
X197154394Y-131812741D01*
X197245606Y-131760080D01*
X197320080Y-131685606D01*
X197372741Y-131594394D01*
X197400000Y-131492661D01*
X197400000Y-131486447D01*
X198079474Y-132165921D01*
X198111859Y-132121349D01*
X198204755Y-131939031D01*
X198267990Y-131744417D01*
X198300000Y-131542317D01*
X198300000Y-131337682D01*
X198299995Y-131337648D01*
X203319500Y-131337648D01*
X203319500Y-131542351D01*
X203351522Y-131744534D01*
X203414781Y-131939223D01*
X203478691Y-132064653D01*
X203507585Y-132121359D01*
X203507715Y-132121613D01*
X203628028Y-132287213D01*
X203772786Y-132431971D01*
X203893226Y-132519474D01*
X203938390Y-132552287D01*
X204029840Y-132598883D01*
X204031080Y-132599515D01*
X204081876Y-132647490D01*
X204098671Y-132715311D01*
X204076134Y-132781446D01*
X204031080Y-132820485D01*
X203938386Y-132867715D01*
X203772786Y-132988028D01*
X203628028Y-133132786D01*
X203507715Y-133298386D01*
X203414781Y-133480776D01*
X203351522Y-133675465D01*
X203319500Y-133877648D01*
X203319500Y-134082351D01*
X203351522Y-134284534D01*
X203414781Y-134479223D01*
X203507715Y-134661613D01*
X203628028Y-134827213D01*
X203772786Y-134971971D01*
X203927749Y-135084556D01*
X203938390Y-135092287D01*
X204029840Y-135138883D01*
X204031080Y-135139515D01*
X204081876Y-135187490D01*
X204098671Y-135255311D01*
X204076134Y-135321446D01*
X204031080Y-135360485D01*
X203938386Y-135407715D01*
X203772786Y-135528028D01*
X203628028Y-135672786D01*
X203507715Y-135838386D01*
X203414781Y-136020776D01*
X203351522Y-136215465D01*
X203319500Y-136417648D01*
X203319500Y-136622351D01*
X203351522Y-136824534D01*
X203414781Y-137019223D01*
X203453762Y-137095726D01*
X203484471Y-137155996D01*
X203507715Y-137201613D01*
X203628028Y-137367213D01*
X203628034Y-137367219D01*
X203772781Y-137511966D01*
X203866452Y-137580021D01*
X203909117Y-137635350D01*
X203915096Y-137704963D01*
X203882491Y-137766759D01*
X203832571Y-137798045D01*
X203750666Y-137825186D01*
X203750663Y-137825187D01*
X203601342Y-137917289D01*
X203477289Y-138041342D01*
X203385187Y-138190663D01*
X203385186Y-138190666D01*
X203330001Y-138357203D01*
X203330001Y-138357204D01*
X203330000Y-138357204D01*
X203319500Y-138459983D01*
X203319500Y-139660001D01*
X203319501Y-139660018D01*
X203330000Y-139762796D01*
X203330001Y-139762799D01*
X203385185Y-139929331D01*
X203385186Y-139929334D01*
X203477288Y-140078656D01*
X203601344Y-140202712D01*
X203750666Y-140294814D01*
X203917203Y-140349999D01*
X204019991Y-140360500D01*
X205220008Y-140360499D01*
X205322797Y-140349999D01*
X205489334Y-140294814D01*
X205638656Y-140202712D01*
X205762712Y-140078656D01*
X205854814Y-139929334D01*
X205909999Y-139762797D01*
X205920500Y-139660009D01*
X205920499Y-138459992D01*
X205909999Y-138357203D01*
X205854814Y-138190666D01*
X205762712Y-138041344D01*
X205638656Y-137917288D01*
X205545888Y-137860069D01*
X205489336Y-137825187D01*
X205489335Y-137825186D01*
X205489334Y-137825186D01*
X205407427Y-137798044D01*
X205349984Y-137758272D01*
X205323161Y-137693756D01*
X205335476Y-137624980D01*
X205373547Y-137580021D01*
X205467219Y-137511966D01*
X205611966Y-137367219D01*
X205611968Y-137367215D01*
X205611971Y-137367213D01*
X205664732Y-137294590D01*
X205732287Y-137201610D01*
X205825220Y-137019219D01*
X205888477Y-136824534D01*
X205920500Y-136622352D01*
X205920500Y-136417648D01*
X205888477Y-136215466D01*
X205825220Y-136020781D01*
X205825218Y-136020778D01*
X205825218Y-136020776D01*
X205791503Y-135954607D01*
X205732287Y-135838390D01*
X205718984Y-135820080D01*
X205611971Y-135672786D01*
X205467213Y-135528028D01*
X205301614Y-135407715D01*
X205295006Y-135404348D01*
X205208917Y-135360483D01*
X205158123Y-135312511D01*
X205141328Y-135244690D01*
X205163865Y-135178555D01*
X205208917Y-135139516D01*
X205301610Y-135092287D01*
X205322770Y-135076913D01*
X205467213Y-134971971D01*
X205467215Y-134971968D01*
X205467219Y-134971966D01*
X205611966Y-134827219D01*
X205611968Y-134827215D01*
X205611971Y-134827213D01*
X205664732Y-134754590D01*
X205732287Y-134661610D01*
X205825220Y-134479219D01*
X205888477Y-134284534D01*
X205920500Y-134082352D01*
X205920500Y-133877648D01*
X205898698Y-133740000D01*
X205888477Y-133675465D01*
X205849106Y-133554294D01*
X205825220Y-133480781D01*
X205825218Y-133480778D01*
X205825218Y-133480776D01*
X205732287Y-133298390D01*
X205732281Y-133298382D01*
X205689853Y-133239983D01*
X212099500Y-133239983D01*
X212099500Y-134840001D01*
X212099501Y-134840018D01*
X212110000Y-134942796D01*
X212110001Y-134942799D01*
X212119668Y-134971971D01*
X212165186Y-135109334D01*
X212257288Y-135258656D01*
X212381344Y-135382712D01*
X212421877Y-135407713D01*
X212429656Y-135412511D01*
X212476381Y-135464459D01*
X212487604Y-135533421D01*
X212459760Y-135597504D01*
X212458615Y-135598759D01*
X212458647Y-135598786D01*
X212455485Y-135602487D01*
X212455483Y-135602490D01*
X212404410Y-135672786D01*
X212316657Y-135793566D01*
X212209433Y-136004003D01*
X212136446Y-136228631D01*
X212099500Y-136461902D01*
X212099500Y-136698097D01*
X212136446Y-136931368D01*
X212209433Y-137155996D01*
X212313353Y-137359948D01*
X212316657Y-137366433D01*
X212455483Y-137557510D01*
X212622490Y-137724517D01*
X212813567Y-137863343D01*
X212887012Y-137900765D01*
X213024003Y-137970566D01*
X213024005Y-137970566D01*
X213024008Y-137970568D01*
X213144412Y-138009689D01*
X213248631Y-138043553D01*
X213481903Y-138080500D01*
X213481908Y-138080500D01*
X213718097Y-138080500D01*
X213951368Y-138043553D01*
X213958173Y-138041342D01*
X214175992Y-137970568D01*
X214386433Y-137863343D01*
X214577510Y-137724517D01*
X214744517Y-137557510D01*
X214883343Y-137366433D01*
X214990568Y-137155992D01*
X215063553Y-136931368D01*
X215064033Y-136928336D01*
X215100500Y-136698097D01*
X215100500Y-136461902D01*
X215063553Y-136228631D01*
X214990566Y-136004003D01*
X214883342Y-135793566D01*
X214744517Y-135602490D01*
X214744508Y-135602481D01*
X214741353Y-135598786D01*
X214743134Y-135597264D01*
X214714273Y-135544408D01*
X214719257Y-135474716D01*
X214761129Y-135418783D01*
X214770334Y-135412516D01*
X214818656Y-135382712D01*
X214942712Y-135258656D01*
X215034814Y-135109334D01*
X215089999Y-134942797D01*
X215100500Y-134840009D01*
X215100499Y-133239992D01*
X215089999Y-133137203D01*
X215034814Y-132970666D01*
X214942712Y-132821344D01*
X214818656Y-132697288D01*
X214669334Y-132605186D01*
X214502797Y-132550001D01*
X214502795Y-132550000D01*
X214400010Y-132539500D01*
X212799998Y-132539500D01*
X212799981Y-132539501D01*
X212697203Y-132550000D01*
X212697200Y-132550001D01*
X212530668Y-132605185D01*
X212530663Y-132605187D01*
X212381342Y-132697289D01*
X212257289Y-132821342D01*
X212165187Y-132970663D01*
X212165186Y-132970666D01*
X212110001Y-133137203D01*
X212110001Y-133137204D01*
X212110000Y-133137204D01*
X212099500Y-133239983D01*
X205689853Y-133239983D01*
X205611971Y-133132786D01*
X205467213Y-132988028D01*
X205301614Y-132867715D01*
X205295006Y-132864348D01*
X205208917Y-132820483D01*
X205158123Y-132772511D01*
X205141328Y-132704690D01*
X205163865Y-132638555D01*
X205208917Y-132599516D01*
X205301610Y-132552287D01*
X205346774Y-132519474D01*
X205467213Y-132431971D01*
X205467215Y-132431968D01*
X205467219Y-132431966D01*
X205611966Y-132287219D01*
X205611968Y-132287215D01*
X205611971Y-132287213D01*
X205664732Y-132214590D01*
X205732287Y-132121610D01*
X205825220Y-131939219D01*
X205888477Y-131744534D01*
X205920500Y-131542352D01*
X205920500Y-131337648D01*
X205912257Y-131285606D01*
X205888477Y-131135465D01*
X205857458Y-131040000D01*
X205825220Y-130940781D01*
X205825218Y-130940778D01*
X205825218Y-130940776D01*
X205732419Y-130758650D01*
X205732287Y-130758390D01*
X205700092Y-130714077D01*
X205611971Y-130592786D01*
X205467213Y-130448028D01*
X205301613Y-130327715D01*
X205301612Y-130327714D01*
X205301610Y-130327713D01*
X205244653Y-130298691D01*
X205119223Y-130234781D01*
X204924534Y-130171522D01*
X204749995Y-130143878D01*
X204722352Y-130139500D01*
X204517648Y-130139500D01*
X204493329Y-130143351D01*
X204315465Y-130171522D01*
X204120776Y-130234781D01*
X203938386Y-130327715D01*
X203772786Y-130448028D01*
X203628028Y-130592786D01*
X203507715Y-130758386D01*
X203414781Y-130940776D01*
X203351522Y-131135465D01*
X203319500Y-131337648D01*
X198299995Y-131337648D01*
X198267990Y-131135582D01*
X198204755Y-130940968D01*
X198111859Y-130758650D01*
X198079474Y-130714077D01*
X198079474Y-130714076D01*
X197400000Y-131393551D01*
X197400000Y-131387339D01*
X197372741Y-131285606D01*
X197320080Y-131194394D01*
X197245606Y-131119920D01*
X197154394Y-131067259D01*
X197052661Y-131040000D01*
X197046446Y-131040000D01*
X197725922Y-130360524D01*
X197725921Y-130360523D01*
X197681359Y-130328147D01*
X197681350Y-130328141D01*
X197499031Y-130235244D01*
X197304417Y-130172009D01*
X197102317Y-130140000D01*
X196897683Y-130140000D01*
X196695582Y-130172009D01*
X196500968Y-130235244D01*
X196318644Y-130328143D01*
X196274077Y-130360523D01*
X196274077Y-130360524D01*
X196953554Y-131040000D01*
X196947339Y-131040000D01*
X196845606Y-131067259D01*
X196754394Y-131119920D01*
X196679920Y-131194394D01*
X196627259Y-131285606D01*
X196600000Y-131387339D01*
X196600000Y-131393553D01*
X195920524Y-130714077D01*
X195920523Y-130714077D01*
X195888143Y-130758644D01*
X195795244Y-130940968D01*
X195732009Y-131135582D01*
X195700000Y-131337682D01*
X195700000Y-131542317D01*
X195732009Y-131744417D01*
X195795244Y-131939031D01*
X195888141Y-132121350D01*
X195888147Y-132121359D01*
X195920523Y-132165921D01*
X195920524Y-132165922D01*
X196600000Y-131486446D01*
X196600000Y-131492661D01*
X196627259Y-131594394D01*
X196679920Y-131685606D01*
X196754394Y-131760080D01*
X196845606Y-131812741D01*
X196947339Y-131840000D01*
X196953553Y-131840000D01*
X196274076Y-132519474D01*
X196318652Y-132551861D01*
X196411628Y-132599234D01*
X196462425Y-132647208D01*
X196479220Y-132715029D01*
X196456683Y-132781164D01*
X196411630Y-132820203D01*
X196318388Y-132867713D01*
X196152786Y-132988028D01*
X196008028Y-133132786D01*
X195887715Y-133298386D01*
X195794781Y-133480776D01*
X195731522Y-133675465D01*
X195699500Y-133877648D01*
X184438027Y-133877648D01*
X184304334Y-133795186D01*
X184137797Y-133740001D01*
X184137795Y-133740000D01*
X184035010Y-133729500D01*
X183164998Y-133729500D01*
X183164980Y-133729501D01*
X183062203Y-133740000D01*
X183062200Y-133740001D01*
X182895668Y-133795185D01*
X182895663Y-133795187D01*
X182746345Y-133887287D01*
X182671939Y-133961693D01*
X182610615Y-133995177D01*
X182540924Y-133990192D01*
X182484990Y-133948321D01*
X182473773Y-133930305D01*
X182460370Y-133904001D01*
X182460370Y-133904000D01*
X182342079Y-133757922D01*
X182342077Y-133757920D01*
X182195999Y-133639629D01*
X182028515Y-133554293D01*
X181846950Y-133505643D01*
X181768893Y-133499500D01*
X181768888Y-133499500D01*
X180431112Y-133499500D01*
X180431106Y-133499500D01*
X180353049Y-133505643D01*
X180353048Y-133505643D01*
X180171484Y-133554293D01*
X180004001Y-133639629D01*
X180004000Y-133639629D01*
X179857922Y-133757920D01*
X179857920Y-133757922D01*
X179739629Y-133904000D01*
X179739629Y-133904001D01*
X179654293Y-134071484D01*
X179605643Y-134253048D01*
X179605643Y-134253049D01*
X179599500Y-134331106D01*
X179599500Y-136668893D01*
X179605643Y-136746950D01*
X179605643Y-136746951D01*
X179654293Y-136928515D01*
X179739629Y-137095998D01*
X179739629Y-137095999D01*
X179857920Y-137242077D01*
X179857922Y-137242079D01*
X180004000Y-137360370D01*
X180087742Y-137403038D01*
X180171483Y-137445706D01*
X180353047Y-137494356D01*
X180431112Y-137500500D01*
X181328403Y-137500500D01*
X181395442Y-137520185D01*
X181441197Y-137572989D01*
X181451141Y-137642147D01*
X181422116Y-137705703D01*
X181416084Y-137712181D01*
X178457342Y-140670921D01*
X178396019Y-140704406D01*
X178331348Y-140701173D01*
X178317034Y-140696522D01*
X178142495Y-140668878D01*
X178114852Y-140664500D01*
X177910148Y-140664500D01*
X177885829Y-140668351D01*
X177707965Y-140696522D01*
X177513276Y-140759781D01*
X177330886Y-140852715D01*
X177165286Y-140973028D01*
X177020528Y-141117786D01*
X176900215Y-141283386D01*
X176807281Y-141465776D01*
X176744022Y-141660465D01*
X176712000Y-141862648D01*
X166338000Y-141862648D01*
X166338000Y-134331145D01*
X170350000Y-134331145D01*
X170350000Y-135250000D01*
X171534314Y-135250000D01*
X171529920Y-135254394D01*
X171477259Y-135345606D01*
X171450000Y-135447339D01*
X171450000Y-135552661D01*
X171477259Y-135654394D01*
X171529920Y-135745606D01*
X171534314Y-135750000D01*
X170350001Y-135750000D01*
X170350001Y-136668855D01*
X170356140Y-136746873D01*
X170404763Y-136928336D01*
X170490049Y-137095723D01*
X170490051Y-137095726D01*
X170608278Y-137241721D01*
X170754273Y-137359948D01*
X170754276Y-137359950D01*
X170921663Y-137445236D01*
X171103126Y-137493859D01*
X171181151Y-137499999D01*
X171599999Y-137499999D01*
X171600000Y-137499998D01*
X171600000Y-135815686D01*
X171604394Y-135820080D01*
X171695606Y-135872741D01*
X171797339Y-135900000D01*
X171902661Y-135900000D01*
X172004394Y-135872741D01*
X172095606Y-135820080D01*
X172100000Y-135815686D01*
X172100000Y-137499999D01*
X172518839Y-137499999D01*
X172518855Y-137499998D01*
X172596873Y-137493859D01*
X172778336Y-137445236D01*
X172945723Y-137359950D01*
X172945726Y-137359948D01*
X173091721Y-137241721D01*
X173209948Y-137095726D01*
X173209950Y-137095723D01*
X173295236Y-136928336D01*
X173343859Y-136746873D01*
X173343859Y-136746872D01*
X173349999Y-136668854D01*
X173350000Y-136668842D01*
X173350000Y-135750000D01*
X172165686Y-135750000D01*
X172170080Y-135745606D01*
X172222741Y-135654394D01*
X172250000Y-135552661D01*
X172250000Y-135447339D01*
X172222741Y-135345606D01*
X172170080Y-135254394D01*
X172165686Y-135250000D01*
X173349999Y-135250000D01*
X173349999Y-134331161D01*
X173349998Y-134331144D01*
X173343859Y-134253126D01*
X173295236Y-134071663D01*
X173209950Y-133904276D01*
X173209948Y-133904273D01*
X173091721Y-133758278D01*
X172945726Y-133640051D01*
X172945723Y-133640049D01*
X172778336Y-133554763D01*
X172596873Y-133506140D01*
X172518854Y-133500000D01*
X172100000Y-133500000D01*
X172100000Y-135184314D01*
X172095606Y-135179920D01*
X172004394Y-135127259D01*
X171902661Y-135100000D01*
X171797339Y-135100000D01*
X171695606Y-135127259D01*
X171604394Y-135179920D01*
X171600000Y-135184314D01*
X171600000Y-133500000D01*
X171181161Y-133500000D01*
X171181144Y-133500001D01*
X171103126Y-133506140D01*
X170921663Y-133554763D01*
X170754276Y-133640049D01*
X170754273Y-133640051D01*
X170608278Y-133758278D01*
X170490051Y-133904273D01*
X170490049Y-133904276D01*
X170404763Y-134071663D01*
X170356140Y-134253126D01*
X170356140Y-134253127D01*
X170350000Y-134331145D01*
X166338000Y-134331145D01*
X166338000Y-121327648D01*
X195699500Y-121327648D01*
X195699500Y-121532351D01*
X195731522Y-121734534D01*
X195794781Y-121929223D01*
X195887715Y-122111613D01*
X196008028Y-122277213D01*
X196152786Y-122421971D01*
X196300564Y-122529336D01*
X196318390Y-122542287D01*
X196409840Y-122588883D01*
X196411080Y-122589515D01*
X196461876Y-122637490D01*
X196478671Y-122705311D01*
X196456134Y-122771446D01*
X196411080Y-122810485D01*
X196318386Y-122857715D01*
X196152786Y-122978028D01*
X196008028Y-123122786D01*
X195887715Y-123288386D01*
X195794781Y-123470776D01*
X195731522Y-123665465D01*
X195699500Y-123867648D01*
X195699500Y-124072351D01*
X195731522Y-124274534D01*
X195794781Y-124469223D01*
X195887715Y-124651613D01*
X196008028Y-124817213D01*
X196152786Y-124961971D01*
X196318385Y-125082284D01*
X196318387Y-125082285D01*
X196318390Y-125082287D01*
X196411630Y-125129795D01*
X196462426Y-125177770D01*
X196479221Y-125245591D01*
X196456684Y-125311725D01*
X196411630Y-125350765D01*
X196318644Y-125398143D01*
X196274077Y-125430523D01*
X196274077Y-125430524D01*
X196953554Y-126110000D01*
X196947339Y-126110000D01*
X196845606Y-126137259D01*
X196754394Y-126189920D01*
X196679920Y-126264394D01*
X196627259Y-126355606D01*
X196600000Y-126457339D01*
X196600000Y-126463553D01*
X195920524Y-125784077D01*
X195920523Y-125784077D01*
X195888143Y-125828644D01*
X195795244Y-126010968D01*
X195732009Y-126205582D01*
X195700000Y-126407682D01*
X195700000Y-126612317D01*
X195732009Y-126814417D01*
X195795244Y-127009031D01*
X195888141Y-127191350D01*
X195888147Y-127191359D01*
X195920523Y-127235921D01*
X195920524Y-127235922D01*
X196600000Y-126556446D01*
X196600000Y-126562661D01*
X196627259Y-126664394D01*
X196679920Y-126755606D01*
X196754394Y-126830080D01*
X196845606Y-126882741D01*
X196947339Y-126910000D01*
X196953553Y-126910000D01*
X196274076Y-127589474D01*
X196318650Y-127621859D01*
X196500968Y-127714755D01*
X196695582Y-127777990D01*
X196897683Y-127810000D01*
X197102317Y-127810000D01*
X197304417Y-127777990D01*
X197499031Y-127714755D01*
X197681349Y-127621859D01*
X197725921Y-127589474D01*
X197046447Y-126910000D01*
X197052661Y-126910000D01*
X197154394Y-126882741D01*
X197245606Y-126830080D01*
X197320080Y-126755606D01*
X197372741Y-126664394D01*
X197400000Y-126562661D01*
X197400000Y-126556447D01*
X198079474Y-127235921D01*
X198111859Y-127191349D01*
X198204755Y-127009031D01*
X198267990Y-126814417D01*
X198300000Y-126612317D01*
X198300000Y-126407682D01*
X198267990Y-126205582D01*
X198204755Y-126010968D01*
X198111859Y-125828650D01*
X198079474Y-125784077D01*
X198079474Y-125784076D01*
X197400000Y-126463551D01*
X197400000Y-126457339D01*
X197372741Y-126355606D01*
X197320080Y-126264394D01*
X197245606Y-126189920D01*
X197154394Y-126137259D01*
X197052661Y-126110000D01*
X197046446Y-126110000D01*
X197725922Y-125430524D01*
X197725921Y-125430523D01*
X197681359Y-125398147D01*
X197681350Y-125398141D01*
X197588369Y-125350765D01*
X197537573Y-125302790D01*
X197520778Y-125234969D01*
X197543315Y-125168835D01*
X197588370Y-125129795D01*
X197681610Y-125082287D01*
X197825822Y-124977512D01*
X197847213Y-124961971D01*
X197847215Y-124961968D01*
X197847219Y-124961966D01*
X197991966Y-124817219D01*
X197991968Y-124817215D01*
X197991971Y-124817213D01*
X198044732Y-124744590D01*
X198112287Y-124651610D01*
X198205220Y-124469219D01*
X198268477Y-124274534D01*
X198300500Y-124072352D01*
X198300500Y-123867648D01*
X198268477Y-123665466D01*
X198263007Y-123648632D01*
X198205218Y-123470776D01*
X198171503Y-123404607D01*
X198112287Y-123288390D01*
X198104556Y-123277749D01*
X197991971Y-123122786D01*
X197847213Y-122978028D01*
X197681614Y-122857715D01*
X197675006Y-122854348D01*
X197588917Y-122810483D01*
X197538123Y-122762511D01*
X197521328Y-122694690D01*
X197543865Y-122628555D01*
X197588917Y-122589516D01*
X197681610Y-122542287D01*
X197702770Y-122526913D01*
X197847213Y-122421971D01*
X197847215Y-122421968D01*
X197847219Y-122421966D01*
X197991966Y-122277219D01*
X197991968Y-122277215D01*
X197991971Y-122277213D01*
X198044732Y-122204590D01*
X198112287Y-122111610D01*
X198205220Y-121929219D01*
X198268477Y-121734534D01*
X198300500Y-121532352D01*
X198300500Y-121327648D01*
X198268477Y-121125466D01*
X198205220Y-120930781D01*
X198205218Y-120930778D01*
X198205218Y-120930776D01*
X198171503Y-120864607D01*
X198112287Y-120748390D01*
X198098720Y-120729717D01*
X197991971Y-120582786D01*
X197847213Y-120438028D01*
X197681611Y-120317713D01*
X197588369Y-120270203D01*
X197537574Y-120222229D01*
X197520779Y-120154407D01*
X197543317Y-120088273D01*
X197588371Y-120049234D01*
X197681346Y-120001861D01*
X197681347Y-120001861D01*
X197725921Y-119969474D01*
X197046447Y-119290000D01*
X197052661Y-119290000D01*
X197154394Y-119262741D01*
X197245606Y-119210080D01*
X197320080Y-119135606D01*
X197372741Y-119044394D01*
X197400000Y-118942661D01*
X197400000Y-118936447D01*
X198079474Y-119615921D01*
X198111859Y-119571349D01*
X198204755Y-119389031D01*
X198267990Y-119194417D01*
X198300000Y-118992317D01*
X198300000Y-118787682D01*
X198299995Y-118787648D01*
X203319500Y-118787648D01*
X203319500Y-118992351D01*
X203351522Y-119194534D01*
X203414781Y-119389223D01*
X203478691Y-119514653D01*
X203507585Y-119571359D01*
X203507715Y-119571613D01*
X203628028Y-119737213D01*
X203772786Y-119881971D01*
X203927749Y-119994556D01*
X203938390Y-120002287D01*
X204029840Y-120048883D01*
X204031080Y-120049515D01*
X204081876Y-120097490D01*
X204098671Y-120165311D01*
X204076134Y-120231446D01*
X204031080Y-120270485D01*
X203938386Y-120317715D01*
X203772786Y-120438028D01*
X203628028Y-120582786D01*
X203507715Y-120748386D01*
X203414781Y-120930776D01*
X203351522Y-121125465D01*
X203319500Y-121327648D01*
X203319500Y-121532351D01*
X203351522Y-121734534D01*
X203414781Y-121929223D01*
X203507715Y-122111613D01*
X203628028Y-122277213D01*
X203772786Y-122421971D01*
X203920564Y-122529336D01*
X203938390Y-122542287D01*
X204029840Y-122588883D01*
X204031080Y-122589515D01*
X204081876Y-122637490D01*
X204098671Y-122705311D01*
X204076134Y-122771446D01*
X204031080Y-122810485D01*
X203938386Y-122857715D01*
X203772786Y-122978028D01*
X203628028Y-123122786D01*
X203507715Y-123288386D01*
X203414781Y-123470776D01*
X203351522Y-123665465D01*
X203319500Y-123867648D01*
X203319500Y-124072351D01*
X203351522Y-124274534D01*
X203414781Y-124469223D01*
X203507715Y-124651613D01*
X203628028Y-124817213D01*
X203628034Y-124817219D01*
X203772781Y-124961966D01*
X203866452Y-125030021D01*
X203909117Y-125085350D01*
X203915096Y-125154963D01*
X203882491Y-125216759D01*
X203832571Y-125248045D01*
X203750666Y-125275186D01*
X203750663Y-125275187D01*
X203601342Y-125367289D01*
X203477289Y-125491342D01*
X203385187Y-125640663D01*
X203385186Y-125640666D01*
X203330001Y-125807203D01*
X203330001Y-125807204D01*
X203330000Y-125807204D01*
X203319500Y-125909983D01*
X203319500Y-127110001D01*
X203319501Y-127110018D01*
X203330000Y-127212796D01*
X203330001Y-127212799D01*
X203385185Y-127379331D01*
X203385186Y-127379334D01*
X203477288Y-127528656D01*
X203601344Y-127652712D01*
X203750666Y-127744814D01*
X203917203Y-127799999D01*
X204019991Y-127810500D01*
X205220008Y-127810499D01*
X205322797Y-127799999D01*
X205489334Y-127744814D01*
X205638656Y-127652712D01*
X205762712Y-127528656D01*
X205854814Y-127379334D01*
X205909999Y-127212797D01*
X205920500Y-127110009D01*
X205920499Y-125909992D01*
X205909999Y-125807203D01*
X205854814Y-125640666D01*
X205762712Y-125491344D01*
X205638656Y-125367288D01*
X205545888Y-125310069D01*
X205489336Y-125275187D01*
X205489335Y-125275186D01*
X205489334Y-125275186D01*
X205407427Y-125248044D01*
X205349984Y-125208272D01*
X205323161Y-125143756D01*
X205335476Y-125074980D01*
X205373547Y-125030021D01*
X205467219Y-124961966D01*
X205611966Y-124817219D01*
X205611968Y-124817215D01*
X205611971Y-124817213D01*
X205664732Y-124744590D01*
X205732287Y-124651610D01*
X205825220Y-124469219D01*
X205888477Y-124274534D01*
X205920500Y-124072352D01*
X205920500Y-123867648D01*
X205888477Y-123665466D01*
X205883007Y-123648632D01*
X205825218Y-123470776D01*
X205791503Y-123404607D01*
X205732287Y-123288390D01*
X205724556Y-123277749D01*
X205611971Y-123122786D01*
X205467213Y-122978028D01*
X205301614Y-122857715D01*
X205295006Y-122854348D01*
X205208917Y-122810483D01*
X205158123Y-122762511D01*
X205141328Y-122694690D01*
X205163865Y-122628555D01*
X205208917Y-122589516D01*
X205301610Y-122542287D01*
X205322770Y-122526913D01*
X205467213Y-122421971D01*
X205467215Y-122421968D01*
X205467219Y-122421966D01*
X205611966Y-122277219D01*
X205611968Y-122277215D01*
X205611971Y-122277213D01*
X205664732Y-122204590D01*
X205732287Y-122111610D01*
X205825220Y-121929219D01*
X205888477Y-121734534D01*
X205920500Y-121532352D01*
X205920500Y-121327648D01*
X205888477Y-121125466D01*
X205825220Y-120930781D01*
X205825218Y-120930778D01*
X205825218Y-120930776D01*
X205732285Y-120748386D01*
X205718722Y-120729718D01*
X205718721Y-120729717D01*
X205668057Y-120659983D01*
X212109500Y-120659983D01*
X212109500Y-122260001D01*
X212109501Y-122260018D01*
X212120000Y-122362796D01*
X212120001Y-122362799D01*
X212175185Y-122529331D01*
X212175187Y-122529336D01*
X212183175Y-122542287D01*
X212267288Y-122678656D01*
X212391344Y-122802712D01*
X212433102Y-122828468D01*
X212439656Y-122832511D01*
X212486381Y-122884459D01*
X212497604Y-122953421D01*
X212469760Y-123017504D01*
X212468615Y-123018759D01*
X212468647Y-123018786D01*
X212465485Y-123022487D01*
X212465483Y-123022490D01*
X212405862Y-123104550D01*
X212326657Y-123213566D01*
X212219433Y-123424003D01*
X212146446Y-123648631D01*
X212109500Y-123881902D01*
X212109500Y-124118097D01*
X212146446Y-124351368D01*
X212219433Y-124575996D01*
X212326657Y-124786433D01*
X212465483Y-124977510D01*
X212632490Y-125144517D01*
X212823567Y-125283343D01*
X212861734Y-125302790D01*
X213034003Y-125390566D01*
X213034005Y-125390566D01*
X213034008Y-125390568D01*
X213154412Y-125429689D01*
X213258631Y-125463553D01*
X213491903Y-125500500D01*
X213491908Y-125500500D01*
X213728097Y-125500500D01*
X213961368Y-125463553D01*
X214063020Y-125430524D01*
X214185992Y-125390568D01*
X214396433Y-125283343D01*
X214587510Y-125144517D01*
X214754517Y-124977510D01*
X214893343Y-124786433D01*
X215000568Y-124575992D01*
X215073553Y-124351368D01*
X215085722Y-124274534D01*
X215110500Y-124118097D01*
X215110500Y-123881902D01*
X215073553Y-123648631D01*
X215039689Y-123544412D01*
X215000568Y-123424008D01*
X215000566Y-123424005D01*
X215000566Y-123424003D01*
X214893342Y-123213566D01*
X214754517Y-123022490D01*
X214754508Y-123022481D01*
X214751353Y-123018786D01*
X214753134Y-123017264D01*
X214724273Y-122964408D01*
X214729257Y-122894716D01*
X214771129Y-122838783D01*
X214780334Y-122832516D01*
X214828656Y-122802712D01*
X214952712Y-122678656D01*
X215044814Y-122529334D01*
X215099999Y-122362797D01*
X215110500Y-122260009D01*
X215110499Y-120659992D01*
X215099999Y-120557203D01*
X215044814Y-120390666D01*
X214952712Y-120241344D01*
X214828656Y-120117288D01*
X214679334Y-120025186D01*
X214512797Y-119970001D01*
X214512795Y-119970000D01*
X214410010Y-119959500D01*
X212809998Y-119959500D01*
X212809981Y-119959501D01*
X212707203Y-119970000D01*
X212707200Y-119970001D01*
X212540668Y-120025185D01*
X212540663Y-120025187D01*
X212391342Y-120117289D01*
X212267289Y-120241342D01*
X212175187Y-120390663D01*
X212175186Y-120390666D01*
X212120001Y-120557203D01*
X212120001Y-120557204D01*
X212120000Y-120557204D01*
X212109500Y-120659983D01*
X205668057Y-120659983D01*
X205611971Y-120582787D01*
X205611967Y-120582782D01*
X205467213Y-120438028D01*
X205301614Y-120317715D01*
X205295006Y-120314348D01*
X205208917Y-120270483D01*
X205158123Y-120222511D01*
X205141328Y-120154690D01*
X205163865Y-120088555D01*
X205208917Y-120049516D01*
X205301610Y-120002287D01*
X205346774Y-119969474D01*
X205467213Y-119881971D01*
X205467215Y-119881968D01*
X205467219Y-119881966D01*
X205611966Y-119737219D01*
X205611968Y-119737215D01*
X205611971Y-119737213D01*
X205664732Y-119664590D01*
X205732287Y-119571610D01*
X205825220Y-119389219D01*
X205888477Y-119194534D01*
X205920500Y-118992352D01*
X205920500Y-118787648D01*
X205902235Y-118672330D01*
X205888477Y-118585465D01*
X205857458Y-118490000D01*
X205825220Y-118390781D01*
X205825218Y-118390778D01*
X205825218Y-118390776D01*
X205732419Y-118208650D01*
X205732287Y-118208390D01*
X205700092Y-118164077D01*
X205611971Y-118042786D01*
X205467213Y-117898028D01*
X205301613Y-117777715D01*
X205301612Y-117777714D01*
X205301610Y-117777713D01*
X205244653Y-117748691D01*
X205119223Y-117684781D01*
X204924534Y-117621522D01*
X204749995Y-117593878D01*
X204722352Y-117589500D01*
X204517648Y-117589500D01*
X204493329Y-117593351D01*
X204315465Y-117621522D01*
X204120776Y-117684781D01*
X203938386Y-117777715D01*
X203772786Y-117898028D01*
X203628028Y-118042786D01*
X203507715Y-118208386D01*
X203414781Y-118390776D01*
X203351522Y-118585465D01*
X203319500Y-118787648D01*
X198299995Y-118787648D01*
X198267990Y-118585582D01*
X198204755Y-118390968D01*
X198111859Y-118208650D01*
X198079474Y-118164077D01*
X198079474Y-118164076D01*
X197400000Y-118843551D01*
X197400000Y-118837339D01*
X197372741Y-118735606D01*
X197320080Y-118644394D01*
X197245606Y-118569920D01*
X197154394Y-118517259D01*
X197052661Y-118490000D01*
X197046446Y-118490000D01*
X197725922Y-117810524D01*
X197725921Y-117810523D01*
X197681359Y-117778147D01*
X197681350Y-117778141D01*
X197499031Y-117685244D01*
X197304417Y-117622009D01*
X197102317Y-117590000D01*
X196897683Y-117590000D01*
X196695582Y-117622009D01*
X196500968Y-117685244D01*
X196318644Y-117778143D01*
X196274077Y-117810523D01*
X196274077Y-117810524D01*
X196953554Y-118490000D01*
X196947339Y-118490000D01*
X196845606Y-118517259D01*
X196754394Y-118569920D01*
X196679920Y-118644394D01*
X196627259Y-118735606D01*
X196600000Y-118837339D01*
X196600000Y-118843553D01*
X195920524Y-118164077D01*
X195920523Y-118164077D01*
X195888143Y-118208644D01*
X195795244Y-118390968D01*
X195732009Y-118585582D01*
X195700000Y-118787682D01*
X195700000Y-118992317D01*
X195732009Y-119194417D01*
X195795244Y-119389031D01*
X195888141Y-119571350D01*
X195888147Y-119571359D01*
X195920523Y-119615921D01*
X195920524Y-119615922D01*
X196600000Y-118936446D01*
X196600000Y-118942661D01*
X196627259Y-119044394D01*
X196679920Y-119135606D01*
X196754394Y-119210080D01*
X196845606Y-119262741D01*
X196947339Y-119290000D01*
X196953553Y-119290000D01*
X196274076Y-119969474D01*
X196318652Y-120001861D01*
X196411628Y-120049234D01*
X196462425Y-120097208D01*
X196479220Y-120165029D01*
X196456683Y-120231164D01*
X196411630Y-120270203D01*
X196318388Y-120317713D01*
X196152786Y-120438028D01*
X196008028Y-120582786D01*
X195887715Y-120748386D01*
X195794781Y-120930776D01*
X195731522Y-121125465D01*
X195699500Y-121327648D01*
X166338000Y-121327648D01*
X166338000Y-115581145D01*
X170350000Y-115581145D01*
X170350000Y-116500000D01*
X171534314Y-116500000D01*
X171529920Y-116504394D01*
X171477259Y-116595606D01*
X171450000Y-116697339D01*
X171450000Y-116802661D01*
X171477259Y-116904394D01*
X171529920Y-116995606D01*
X171534314Y-117000000D01*
X170350001Y-117000000D01*
X170350001Y-117918855D01*
X170356140Y-117996873D01*
X170404763Y-118178336D01*
X170490049Y-118345723D01*
X170490051Y-118345726D01*
X170608278Y-118491721D01*
X170754273Y-118609948D01*
X170754276Y-118609950D01*
X170921663Y-118695236D01*
X171103126Y-118743859D01*
X171181151Y-118749999D01*
X171599999Y-118749999D01*
X171600000Y-118749998D01*
X171600000Y-117065686D01*
X171604394Y-117070080D01*
X171695606Y-117122741D01*
X171797339Y-117150000D01*
X171902661Y-117150000D01*
X172004394Y-117122741D01*
X172095606Y-117070080D01*
X172100000Y-117065686D01*
X172100000Y-118749999D01*
X172518839Y-118749999D01*
X172518855Y-118749998D01*
X172596873Y-118743859D01*
X172778336Y-118695236D01*
X172945723Y-118609950D01*
X172945726Y-118609948D01*
X173091721Y-118491721D01*
X173209948Y-118345726D01*
X173209950Y-118345723D01*
X173295236Y-118178336D01*
X173343859Y-117996873D01*
X173343859Y-117996872D01*
X173349999Y-117918854D01*
X173350000Y-117918842D01*
X173350000Y-117000000D01*
X172165686Y-117000000D01*
X172170080Y-116995606D01*
X172222741Y-116904394D01*
X172250000Y-116802661D01*
X172250000Y-116697339D01*
X172222741Y-116595606D01*
X172170080Y-116504394D01*
X172165686Y-116500000D01*
X173349999Y-116500000D01*
X173349999Y-115581155D01*
X173349998Y-115581149D01*
X173349995Y-115581106D01*
X179599500Y-115581106D01*
X179599500Y-117918893D01*
X179605643Y-117996950D01*
X179605643Y-117996951D01*
X179654293Y-118178515D01*
X179739629Y-118345998D01*
X179739629Y-118345999D01*
X179857920Y-118492077D01*
X179857922Y-118492079D01*
X180004000Y-118610370D01*
X180070777Y-118644394D01*
X180171483Y-118695706D01*
X180353047Y-118744356D01*
X180431112Y-118750500D01*
X180431118Y-118750500D01*
X181768882Y-118750500D01*
X181768888Y-118750500D01*
X181846953Y-118744356D01*
X182028517Y-118695706D01*
X182195999Y-118610370D01*
X182342078Y-118492078D01*
X182460370Y-118345999D01*
X182545706Y-118178517D01*
X182594356Y-117996953D01*
X182600500Y-117918888D01*
X182600500Y-115581112D01*
X182594356Y-115503047D01*
X182545706Y-115321483D01*
X182460370Y-115154001D01*
X182460370Y-115154000D01*
X182342079Y-115007922D01*
X182342077Y-115007920D01*
X182195999Y-114889629D01*
X182028515Y-114804293D01*
X181846950Y-114755643D01*
X181768893Y-114749500D01*
X181768888Y-114749500D01*
X180431112Y-114749500D01*
X180431106Y-114749500D01*
X180353049Y-114755643D01*
X180353048Y-114755643D01*
X180171484Y-114804293D01*
X180004001Y-114889629D01*
X180004000Y-114889629D01*
X179857922Y-115007920D01*
X179857920Y-115007922D01*
X179739629Y-115154000D01*
X179739629Y-115154001D01*
X179654293Y-115321484D01*
X179605643Y-115503048D01*
X179605643Y-115503049D01*
X179599500Y-115581106D01*
X173349995Y-115581106D01*
X173343859Y-115503126D01*
X173295236Y-115321663D01*
X173209950Y-115154276D01*
X173209948Y-115154273D01*
X173091721Y-115008278D01*
X172945726Y-114890051D01*
X172945723Y-114890049D01*
X172778336Y-114804763D01*
X172596873Y-114756140D01*
X172518854Y-114750000D01*
X172100000Y-114750000D01*
X172100000Y-116434314D01*
X172095606Y-116429920D01*
X172004394Y-116377259D01*
X171902661Y-116350000D01*
X171797339Y-116350000D01*
X171695606Y-116377259D01*
X171604394Y-116429920D01*
X171600000Y-116434314D01*
X171600000Y-114750000D01*
X171181161Y-114750000D01*
X171181144Y-114750001D01*
X171103126Y-114756140D01*
X170921663Y-114804763D01*
X170754276Y-114890049D01*
X170754273Y-114890051D01*
X170608278Y-115008278D01*
X170490051Y-115154273D01*
X170490049Y-115154276D01*
X170404763Y-115321663D01*
X170356140Y-115503126D01*
X170356140Y-115503127D01*
X170350000Y-115581145D01*
X166338000Y-115581145D01*
X166338000Y-74212135D01*
X168779500Y-74212135D01*
X168779500Y-76007870D01*
X168779501Y-76007876D01*
X168785908Y-76067483D01*
X168836202Y-76202328D01*
X168836206Y-76202335D01*
X168922452Y-76317544D01*
X168922455Y-76317547D01*
X169037664Y-76403793D01*
X169037671Y-76403797D01*
X169169082Y-76452810D01*
X169225016Y-76494681D01*
X169249433Y-76560145D01*
X169234582Y-76628418D01*
X169213431Y-76656673D01*
X169099889Y-76770215D01*
X168974951Y-76942179D01*
X168878444Y-77131585D01*
X168812753Y-77333760D01*
X168812753Y-77333762D01*
X168779500Y-77543713D01*
X168779500Y-77756287D01*
X168812754Y-77966243D01*
X168852430Y-78088354D01*
X168878444Y-78168414D01*
X168974951Y-78357820D01*
X169099890Y-78529786D01*
X169250213Y-78680109D01*
X169422182Y-78805050D01*
X169430946Y-78809516D01*
X169481742Y-78857491D01*
X169498536Y-78925312D01*
X169475998Y-78991447D01*
X169430946Y-79030484D01*
X169422182Y-79034949D01*
X169250213Y-79159890D01*
X169099890Y-79310213D01*
X168974951Y-79482179D01*
X168878444Y-79671585D01*
X168812753Y-79873760D01*
X168784919Y-80049500D01*
X168779500Y-80083713D01*
X168779500Y-80296287D01*
X168812754Y-80506243D01*
X168872153Y-80689054D01*
X168878444Y-80708414D01*
X168974951Y-80897820D01*
X169099890Y-81069786D01*
X169250213Y-81220109D01*
X169422182Y-81345050D01*
X169430946Y-81349516D01*
X169481742Y-81397491D01*
X169498536Y-81465312D01*
X169475998Y-81531447D01*
X169430946Y-81570484D01*
X169422182Y-81574949D01*
X169250213Y-81699890D01*
X169099890Y-81850213D01*
X168974951Y-82022179D01*
X168878444Y-82211585D01*
X168812753Y-82413760D01*
X168779500Y-82623713D01*
X168779500Y-82836286D01*
X168812753Y-83046239D01*
X168878444Y-83248414D01*
X168974951Y-83437820D01*
X169099890Y-83609786D01*
X169250213Y-83760109D01*
X169422182Y-83885050D01*
X169430946Y-83889516D01*
X169481742Y-83937491D01*
X169498536Y-84005312D01*
X169475998Y-84071447D01*
X169430946Y-84110484D01*
X169422182Y-84114949D01*
X169250213Y-84239890D01*
X169099890Y-84390213D01*
X168974951Y-84562179D01*
X168878444Y-84751585D01*
X168812753Y-84953760D01*
X168779500Y-85163713D01*
X168779500Y-85376286D01*
X168812753Y-85586239D01*
X168878444Y-85788414D01*
X168974951Y-85977820D01*
X169099890Y-86149786D01*
X169250213Y-86300109D01*
X169422182Y-86425050D01*
X169430946Y-86429516D01*
X169481742Y-86477491D01*
X169498536Y-86545312D01*
X169475998Y-86611447D01*
X169430946Y-86650484D01*
X169422182Y-86654949D01*
X169250213Y-86779890D01*
X169099890Y-86930213D01*
X168974951Y-87102179D01*
X168878444Y-87291585D01*
X168812753Y-87493760D01*
X168785484Y-87665932D01*
X168779500Y-87703713D01*
X168779500Y-87916287D01*
X168812754Y-88126243D01*
X168867175Y-88293734D01*
X168878444Y-88328414D01*
X168974951Y-88517820D01*
X169099890Y-88689786D01*
X169250213Y-88840109D01*
X169422182Y-88965050D01*
X169430946Y-88969516D01*
X169481742Y-89017491D01*
X169498536Y-89085312D01*
X169475998Y-89151447D01*
X169430946Y-89190484D01*
X169422182Y-89194949D01*
X169250213Y-89319890D01*
X169099890Y-89470213D01*
X168974951Y-89642179D01*
X168878444Y-89831585D01*
X168812753Y-90033760D01*
X168779500Y-90243713D01*
X168779500Y-90456286D01*
X168812753Y-90666239D01*
X168878444Y-90868414D01*
X168974951Y-91057820D01*
X169099890Y-91229786D01*
X169250213Y-91380109D01*
X169422182Y-91505050D01*
X169430946Y-91509516D01*
X169481742Y-91557491D01*
X169498536Y-91625312D01*
X169475998Y-91691447D01*
X169430946Y-91730484D01*
X169422182Y-91734949D01*
X169250213Y-91859890D01*
X169099890Y-92010213D01*
X168974951Y-92182179D01*
X168878444Y-92371585D01*
X168812753Y-92573760D01*
X168779500Y-92783713D01*
X168779500Y-92996286D01*
X168812753Y-93206239D01*
X168878444Y-93408414D01*
X168974951Y-93597820D01*
X169099890Y-93769786D01*
X169250213Y-93920109D01*
X169422182Y-94045050D01*
X169430946Y-94049516D01*
X169481742Y-94097491D01*
X169498536Y-94165312D01*
X169475998Y-94231447D01*
X169430946Y-94270484D01*
X169422182Y-94274949D01*
X169250213Y-94399890D01*
X169099890Y-94550213D01*
X168974951Y-94722179D01*
X168878444Y-94911585D01*
X168812753Y-95113760D01*
X168779500Y-95323713D01*
X168779500Y-95536286D01*
X168812753Y-95746239D01*
X168878444Y-95948414D01*
X168974951Y-96137820D01*
X169099890Y-96309786D01*
X169250213Y-96460109D01*
X169422182Y-96585050D01*
X169430946Y-96589516D01*
X169481742Y-96637491D01*
X169498536Y-96705312D01*
X169475998Y-96771447D01*
X169430946Y-96810484D01*
X169422182Y-96814949D01*
X169250213Y-96939890D01*
X169099890Y-97090213D01*
X168974951Y-97262179D01*
X168878444Y-97451585D01*
X168812753Y-97653760D01*
X168779500Y-97863713D01*
X168779500Y-98076286D01*
X168812753Y-98286239D01*
X168878444Y-98488414D01*
X168974951Y-98677820D01*
X169099890Y-98849786D01*
X169250213Y-99000109D01*
X169422182Y-99125050D01*
X169430946Y-99129516D01*
X169481742Y-99177491D01*
X169498536Y-99245312D01*
X169475998Y-99311447D01*
X169430946Y-99350484D01*
X169422182Y-99354949D01*
X169250213Y-99479890D01*
X169099890Y-99630213D01*
X168974951Y-99802179D01*
X168878444Y-99991585D01*
X168812753Y-100193760D01*
X168779500Y-100403713D01*
X168779500Y-100616286D01*
X168812753Y-100826239D01*
X168878444Y-101028414D01*
X168974951Y-101217820D01*
X169099890Y-101389786D01*
X169250213Y-101540109D01*
X169422182Y-101665050D01*
X169430946Y-101669516D01*
X169481742Y-101717491D01*
X169498536Y-101785312D01*
X169475998Y-101851447D01*
X169430946Y-101890484D01*
X169422182Y-101894949D01*
X169250213Y-102019890D01*
X169099890Y-102170213D01*
X168974951Y-102342179D01*
X168878444Y-102531585D01*
X168812753Y-102733760D01*
X168779500Y-102943713D01*
X168779500Y-103156286D01*
X168812753Y-103366239D01*
X168878444Y-103568414D01*
X168974951Y-103757820D01*
X169099890Y-103929786D01*
X169250213Y-104080109D01*
X169422182Y-104205050D01*
X169430946Y-104209516D01*
X169481742Y-104257491D01*
X169498536Y-104325312D01*
X169475998Y-104391447D01*
X169430946Y-104430484D01*
X169422182Y-104434949D01*
X169250213Y-104559890D01*
X169099890Y-104710213D01*
X168974951Y-104882179D01*
X168878444Y-105071585D01*
X168812753Y-105273760D01*
X168779500Y-105483713D01*
X168779500Y-105696286D01*
X168812753Y-105906239D01*
X168878444Y-106108414D01*
X168974951Y-106297820D01*
X169099890Y-106469786D01*
X169250213Y-106620109D01*
X169422179Y-106745048D01*
X169422181Y-106745049D01*
X169422184Y-106745051D01*
X169431493Y-106749794D01*
X169482290Y-106797766D01*
X169499087Y-106865587D01*
X169476552Y-106931722D01*
X169431505Y-106970760D01*
X169422446Y-106975376D01*
X169422440Y-106975380D01*
X169368282Y-107014727D01*
X169368282Y-107014728D01*
X170000591Y-107647037D01*
X169937007Y-107664075D01*
X169822993Y-107729901D01*
X169729901Y-107822993D01*
X169664075Y-107937007D01*
X169647037Y-108000591D01*
X169014728Y-107368282D01*
X169014727Y-107368282D01*
X168975380Y-107422439D01*
X168878904Y-107611782D01*
X168813242Y-107813869D01*
X168813242Y-107813872D01*
X168780000Y-108023753D01*
X168780000Y-108236246D01*
X168813242Y-108446127D01*
X168813242Y-108446130D01*
X168878904Y-108648217D01*
X168975375Y-108837550D01*
X169014728Y-108891716D01*
X169647037Y-108259408D01*
X169664075Y-108322993D01*
X169729901Y-108437007D01*
X169822993Y-108530099D01*
X169937007Y-108595925D01*
X170000590Y-108612962D01*
X169368282Y-109245269D01*
X169368282Y-109245270D01*
X169422452Y-109284626D01*
X169422451Y-109284626D01*
X169431495Y-109289234D01*
X169482292Y-109337208D01*
X169499087Y-109405029D01*
X169476550Y-109471164D01*
X169431499Y-109510202D01*
X169422182Y-109514949D01*
X169250213Y-109639890D01*
X169099890Y-109790213D01*
X168974951Y-109962179D01*
X168878444Y-110151585D01*
X168812753Y-110353760D01*
X168796800Y-110454487D01*
X168779500Y-110563713D01*
X168779500Y-110776287D01*
X168812754Y-110986243D01*
X168858946Y-111128408D01*
X168878444Y-111188414D01*
X168974951Y-111377820D01*
X169099890Y-111549786D01*
X169250213Y-111700109D01*
X169422179Y-111825048D01*
X169422181Y-111825049D01*
X169422184Y-111825051D01*
X169611588Y-111921557D01*
X169813757Y-111987246D01*
X170023713Y-112020500D01*
X170155638Y-112020500D01*
X170222677Y-112040185D01*
X170243319Y-112056819D01*
X171535960Y-113349461D01*
X171535964Y-113349464D01*
X171683446Y-113448009D01*
X171683452Y-113448012D01*
X171683453Y-113448013D01*
X171847334Y-113515895D01*
X172021303Y-113550499D01*
X172021307Y-113550500D01*
X172021308Y-113550500D01*
X193478693Y-113550500D01*
X193478694Y-113550499D01*
X193652666Y-113515895D01*
X193734606Y-113481953D01*
X193816547Y-113448013D01*
X193908441Y-113386611D01*
X193964036Y-113349464D01*
X193964039Y-113349461D01*
X194813517Y-112499983D01*
X211074500Y-112499983D01*
X211074500Y-114100001D01*
X211074501Y-114100018D01*
X211085000Y-114202796D01*
X211085001Y-114202799D01*
X211140185Y-114369331D01*
X211140186Y-114369334D01*
X211232288Y-114518656D01*
X211356344Y-114642712D01*
X211505666Y-114734814D01*
X211672203Y-114789999D01*
X211774991Y-114800500D01*
X213375008Y-114800499D01*
X213477797Y-114789999D01*
X213644334Y-114734814D01*
X213793656Y-114642712D01*
X213917712Y-114518656D01*
X214009814Y-114369334D01*
X214064999Y-114202797D01*
X214075500Y-114100009D01*
X214075499Y-112499992D01*
X214064999Y-112397203D01*
X214009814Y-112230666D01*
X213917712Y-112081344D01*
X213793656Y-111957288D01*
X213700888Y-111900069D01*
X213644336Y-111865187D01*
X213644331Y-111865185D01*
X213642862Y-111864698D01*
X213477797Y-111810001D01*
X213477795Y-111810000D01*
X213375016Y-111799500D01*
X213312308Y-111799500D01*
X213245269Y-111779815D01*
X213224627Y-111763181D01*
X212786059Y-111324612D01*
X212806591Y-111319111D01*
X212943408Y-111240119D01*
X213055119Y-111128408D01*
X213134111Y-110991591D01*
X213139612Y-110971058D01*
X213797658Y-111629105D01*
X213797658Y-111629104D01*
X213857914Y-111546169D01*
X213857918Y-111546163D01*
X213965102Y-111335802D01*
X214038065Y-111111247D01*
X214075000Y-110878052D01*
X214075000Y-110641947D01*
X214038065Y-110408752D01*
X213965102Y-110184197D01*
X213857914Y-109973828D01*
X213797658Y-109890894D01*
X213797658Y-109890893D01*
X213139612Y-110548940D01*
X213134111Y-110528409D01*
X213055119Y-110391592D01*
X212943408Y-110279881D01*
X212806591Y-110200889D01*
X212786059Y-110195387D01*
X213444105Y-109537340D01*
X213444104Y-109537338D01*
X213361174Y-109477087D01*
X213150802Y-109369897D01*
X212926247Y-109296934D01*
X212926248Y-109296934D01*
X212693052Y-109260000D01*
X212456948Y-109260000D01*
X212223752Y-109296934D01*
X211999197Y-109369897D01*
X211788830Y-109477084D01*
X211705894Y-109537340D01*
X212363941Y-110195387D01*
X212343409Y-110200889D01*
X212206592Y-110279881D01*
X212094881Y-110391592D01*
X212015889Y-110528409D01*
X212010387Y-110548940D01*
X211352340Y-109890894D01*
X211292084Y-109973830D01*
X211184897Y-110184197D01*
X211111934Y-110408752D01*
X211075000Y-110641947D01*
X211075000Y-110878052D01*
X211111934Y-111111247D01*
X211184897Y-111335802D01*
X211292087Y-111546174D01*
X211352338Y-111629104D01*
X211352340Y-111629105D01*
X212010387Y-110971058D01*
X212015889Y-110991591D01*
X212094881Y-111128408D01*
X212206592Y-111240119D01*
X212343409Y-111319111D01*
X212363940Y-111324612D01*
X211925371Y-111763181D01*
X211864048Y-111796666D01*
X211837692Y-111799500D01*
X211774999Y-111799500D01*
X211774980Y-111799501D01*
X211672203Y-111810000D01*
X211672200Y-111810001D01*
X211505668Y-111865185D01*
X211505663Y-111865187D01*
X211356342Y-111957289D01*
X211232289Y-112081342D01*
X211140187Y-112230663D01*
X211140186Y-112230666D01*
X211085001Y-112397203D01*
X211085001Y-112397204D01*
X211085000Y-112397204D01*
X211074500Y-112499983D01*
X194813517Y-112499983D01*
X194904347Y-112409153D01*
X195256681Y-112056818D01*
X195318004Y-112023333D01*
X195344362Y-112020499D01*
X196267871Y-112020499D01*
X196267872Y-112020499D01*
X196327483Y-112014091D01*
X196462331Y-111963796D01*
X196577546Y-111877546D01*
X196663796Y-111762331D01*
X196714091Y-111627483D01*
X196720500Y-111567873D01*
X196720499Y-109772128D01*
X196717296Y-109742332D01*
X199669500Y-109742332D01*
X199669500Y-110017667D01*
X199669501Y-110017684D01*
X199705438Y-110290655D01*
X199705439Y-110290660D01*
X199705440Y-110290666D01*
X199705441Y-110290668D01*
X199776704Y-110556630D01*
X199882075Y-110811017D01*
X199882080Y-110811028D01*
X199961809Y-110949121D01*
X200019751Y-111049479D01*
X200019753Y-111049482D01*
X200019754Y-111049483D01*
X200187370Y-111267926D01*
X200187376Y-111267933D01*
X200382066Y-111462623D01*
X200382072Y-111462628D01*
X200600521Y-111630249D01*
X200721522Y-111700109D01*
X200838971Y-111767919D01*
X200838976Y-111767921D01*
X200838979Y-111767923D01*
X201093368Y-111873295D01*
X201359334Y-111944560D01*
X201632326Y-111980500D01*
X201632333Y-111980500D01*
X201907667Y-111980500D01*
X201907674Y-111980500D01*
X202180666Y-111944560D01*
X202446632Y-111873295D01*
X202701021Y-111767923D01*
X202939479Y-111630249D01*
X203157928Y-111462628D01*
X203352628Y-111267928D01*
X203520249Y-111049479D01*
X203657923Y-110811021D01*
X203763295Y-110556632D01*
X203834560Y-110290666D01*
X203870500Y-110017674D01*
X203870500Y-109742326D01*
X203834560Y-109469334D01*
X203763295Y-109203368D01*
X203657923Y-108948979D01*
X203657921Y-108948976D01*
X203657919Y-108948971D01*
X203593743Y-108837816D01*
X203520249Y-108710521D01*
X203352628Y-108492072D01*
X203352623Y-108492066D01*
X203157933Y-108297376D01*
X203157926Y-108297370D01*
X202939483Y-108129754D01*
X202939482Y-108129753D01*
X202939479Y-108129751D01*
X202844407Y-108074861D01*
X202701028Y-107992080D01*
X202701017Y-107992075D01*
X202446630Y-107886704D01*
X202313649Y-107851072D01*
X202180666Y-107815440D01*
X202180660Y-107815439D01*
X202180655Y-107815438D01*
X201907684Y-107779501D01*
X201907679Y-107779500D01*
X201907674Y-107779500D01*
X201632326Y-107779500D01*
X201632320Y-107779500D01*
X201632315Y-107779501D01*
X201359344Y-107815438D01*
X201359337Y-107815439D01*
X201359334Y-107815440D01*
X201331146Y-107822993D01*
X201093369Y-107886704D01*
X200838982Y-107992075D01*
X200838971Y-107992080D01*
X200600516Y-108129754D01*
X200382073Y-108297370D01*
X200382066Y-108297376D01*
X200187376Y-108492066D01*
X200187370Y-108492073D01*
X200019754Y-108710516D01*
X199882080Y-108948971D01*
X199882075Y-108948982D01*
X199776704Y-109203369D01*
X199730394Y-109376203D01*
X199707284Y-109462454D01*
X199705441Y-109469331D01*
X199705438Y-109469344D01*
X199669501Y-109742315D01*
X199669500Y-109742332D01*
X196717296Y-109742332D01*
X196714091Y-109712517D01*
X196663796Y-109577669D01*
X196663795Y-109577668D01*
X196663793Y-109577664D01*
X196577547Y-109462455D01*
X196577544Y-109462452D01*
X196462335Y-109376206D01*
X196462328Y-109376202D01*
X196327482Y-109325908D01*
X196327483Y-109325908D01*
X196267883Y-109319501D01*
X196267881Y-109319500D01*
X196267873Y-109319500D01*
X196267865Y-109319500D01*
X196257309Y-109319500D01*
X196190270Y-109299815D01*
X196169628Y-109283181D01*
X195499408Y-108612962D01*
X195562993Y-108595925D01*
X195677007Y-108530099D01*
X195770099Y-108437007D01*
X195835925Y-108322993D01*
X195852962Y-108259408D01*
X196485270Y-108891717D01*
X196485270Y-108891716D01*
X196524622Y-108837554D01*
X196621095Y-108648217D01*
X196686757Y-108446130D01*
X196686757Y-108446127D01*
X196720000Y-108236246D01*
X196720000Y-108023753D01*
X196686757Y-107813872D01*
X196686757Y-107813869D01*
X196621095Y-107611782D01*
X196524624Y-107422449D01*
X196485270Y-107368282D01*
X196485269Y-107368282D01*
X195852962Y-108000590D01*
X195835925Y-107937007D01*
X195770099Y-107822993D01*
X195677007Y-107729901D01*
X195562993Y-107664075D01*
X195499409Y-107647037D01*
X196131716Y-107014728D01*
X196077547Y-106975373D01*
X196077547Y-106975372D01*
X196068500Y-106970763D01*
X196017706Y-106922788D01*
X196000912Y-106854966D01*
X196023451Y-106788832D01*
X196068508Y-106749793D01*
X196077816Y-106745051D01*
X196157007Y-106687515D01*
X196249786Y-106620109D01*
X196249788Y-106620106D01*
X196249792Y-106620104D01*
X196400104Y-106469792D01*
X196400106Y-106469788D01*
X196400109Y-106469786D01*
X196525048Y-106297820D01*
X196525047Y-106297820D01*
X196525051Y-106297816D01*
X196621557Y-106108412D01*
X196687246Y-105906243D01*
X196720500Y-105696287D01*
X196720500Y-105483713D01*
X196687246Y-105273757D01*
X196621557Y-105071588D01*
X196525051Y-104882184D01*
X196525049Y-104882181D01*
X196525048Y-104882179D01*
X196400109Y-104710213D01*
X196249786Y-104559890D01*
X196077820Y-104434951D01*
X196077115Y-104434591D01*
X196069054Y-104430485D01*
X196018259Y-104382512D01*
X196001463Y-104314692D01*
X196023999Y-104248556D01*
X196069054Y-104209515D01*
X196077816Y-104205051D01*
X196132572Y-104165269D01*
X196249786Y-104080109D01*
X196249788Y-104080106D01*
X196249792Y-104080104D01*
X196400104Y-103929792D01*
X196400106Y-103929788D01*
X196400109Y-103929786D01*
X196525048Y-103757820D01*
X196525047Y-103757820D01*
X196525051Y-103757816D01*
X196621557Y-103568412D01*
X196687246Y-103366243D01*
X196720500Y-103156287D01*
X196720500Y-102943713D01*
X196687246Y-102733757D01*
X196621557Y-102531588D01*
X196525051Y-102342184D01*
X196525049Y-102342181D01*
X196525048Y-102342179D01*
X196400109Y-102170213D01*
X196249786Y-102019890D01*
X196077817Y-101894949D01*
X196068504Y-101890204D01*
X196017707Y-101842230D01*
X196000912Y-101774409D01*
X196023449Y-101708274D01*
X196068507Y-101669232D01*
X196077555Y-101664622D01*
X196131716Y-101625270D01*
X196131717Y-101625270D01*
X195499408Y-100992962D01*
X195562993Y-100975925D01*
X195677007Y-100910099D01*
X195770099Y-100817007D01*
X195835925Y-100702993D01*
X195852962Y-100639408D01*
X196485270Y-101271717D01*
X196485270Y-101271716D01*
X196524622Y-101217554D01*
X196621095Y-101028217D01*
X196686757Y-100826130D01*
X196686757Y-100826127D01*
X196720000Y-100616246D01*
X196720000Y-100403753D01*
X196686757Y-100193872D01*
X196686757Y-100193869D01*
X196621095Y-99991782D01*
X196524624Y-99802449D01*
X196485270Y-99748282D01*
X196485269Y-99748282D01*
X195852962Y-100380590D01*
X195835925Y-100317007D01*
X195770099Y-100202993D01*
X195677007Y-100109901D01*
X195562993Y-100044075D01*
X195499409Y-100027037D01*
X196131716Y-99394728D01*
X196077550Y-99355375D01*
X196067954Y-99350486D01*
X196017157Y-99302512D01*
X196000361Y-99234692D01*
X196022897Y-99168556D01*
X196067954Y-99129514D01*
X196077554Y-99124622D01*
X196131716Y-99085270D01*
X196131717Y-99085270D01*
X195499408Y-98452962D01*
X195562993Y-98435925D01*
X195677007Y-98370099D01*
X195770099Y-98277007D01*
X195835925Y-98162993D01*
X195852962Y-98099408D01*
X196485270Y-98731717D01*
X196485270Y-98731716D01*
X196524622Y-98677554D01*
X196621095Y-98488217D01*
X196686757Y-98286130D01*
X196686757Y-98286127D01*
X196720000Y-98076246D01*
X196720000Y-97863753D01*
X196686757Y-97653872D01*
X196686757Y-97653869D01*
X196621095Y-97451782D01*
X196524624Y-97262449D01*
X196485270Y-97208282D01*
X196485269Y-97208282D01*
X195852962Y-97840590D01*
X195835925Y-97777007D01*
X195770099Y-97662993D01*
X195677007Y-97569901D01*
X195562993Y-97504075D01*
X195499409Y-97487037D01*
X196131716Y-96854728D01*
X196077550Y-96815375D01*
X196067954Y-96810486D01*
X196017157Y-96762512D01*
X196000361Y-96694692D01*
X196022897Y-96628556D01*
X196067954Y-96589514D01*
X196077554Y-96584622D01*
X196131716Y-96545270D01*
X196131717Y-96545270D01*
X195499408Y-95912962D01*
X195562993Y-95895925D01*
X195677007Y-95830099D01*
X195770099Y-95737007D01*
X195835925Y-95622993D01*
X195852962Y-95559408D01*
X196485270Y-96191717D01*
X196485270Y-96191716D01*
X196524622Y-96137554D01*
X196621095Y-95948217D01*
X196686757Y-95746130D01*
X196686757Y-95746127D01*
X196720000Y-95536246D01*
X196720000Y-95323753D01*
X196686757Y-95113872D01*
X196686757Y-95113869D01*
X196621095Y-94911782D01*
X196524624Y-94722449D01*
X196485270Y-94668282D01*
X196485269Y-94668282D01*
X195852962Y-95300590D01*
X195835925Y-95237007D01*
X195770099Y-95122993D01*
X195677007Y-95029901D01*
X195562993Y-94964075D01*
X195499409Y-94947037D01*
X196131716Y-94314728D01*
X196077547Y-94275373D01*
X196077547Y-94275372D01*
X196068500Y-94270763D01*
X196017706Y-94222788D01*
X196000912Y-94154966D01*
X196023451Y-94088832D01*
X196068508Y-94049793D01*
X196077816Y-94045051D01*
X196157007Y-93987515D01*
X196249786Y-93920109D01*
X196249788Y-93920106D01*
X196249792Y-93920104D01*
X196400104Y-93769792D01*
X196400106Y-93769788D01*
X196400109Y-93769786D01*
X196525048Y-93597820D01*
X196525047Y-93597820D01*
X196525051Y-93597816D01*
X196621557Y-93408412D01*
X196687246Y-93206243D01*
X196720500Y-92996287D01*
X196720500Y-92783713D01*
X196687246Y-92573757D01*
X196621557Y-92371588D01*
X196525051Y-92182184D01*
X196525049Y-92182181D01*
X196525048Y-92182179D01*
X196400109Y-92010213D01*
X196249786Y-91859890D01*
X196077820Y-91734951D01*
X196077115Y-91734591D01*
X196069054Y-91730485D01*
X196018259Y-91682512D01*
X196001463Y-91614692D01*
X196023999Y-91548556D01*
X196069054Y-91509515D01*
X196077816Y-91505051D01*
X196099789Y-91489086D01*
X196249786Y-91380109D01*
X196249788Y-91380106D01*
X196249792Y-91380104D01*
X196400104Y-91229792D01*
X196400106Y-91229788D01*
X196400109Y-91229786D01*
X196525048Y-91057820D01*
X196525047Y-91057820D01*
X196525051Y-91057816D01*
X196621557Y-90868412D01*
X196687246Y-90666243D01*
X196720500Y-90456287D01*
X196720500Y-90243713D01*
X196687246Y-90033757D01*
X196621557Y-89831588D01*
X196525051Y-89642184D01*
X196525049Y-89642181D01*
X196525048Y-89642179D01*
X196400109Y-89470213D01*
X196249786Y-89319890D01*
X196077820Y-89194951D01*
X196077115Y-89194591D01*
X196069054Y-89190485D01*
X196018259Y-89142512D01*
X196001463Y-89074692D01*
X196023999Y-89008556D01*
X196069054Y-88969515D01*
X196077816Y-88965051D01*
X196099789Y-88949086D01*
X196249786Y-88840109D01*
X196249788Y-88840106D01*
X196249792Y-88840104D01*
X196400104Y-88689792D01*
X196400106Y-88689788D01*
X196400109Y-88689786D01*
X196525048Y-88517820D01*
X196525047Y-88517820D01*
X196525051Y-88517816D01*
X196621557Y-88328412D01*
X196649526Y-88242332D01*
X199669500Y-88242332D01*
X199669500Y-88517667D01*
X199669501Y-88517684D01*
X199705438Y-88790655D01*
X199705439Y-88790660D01*
X199705440Y-88790666D01*
X199705441Y-88790668D01*
X199776704Y-89056630D01*
X199882075Y-89311017D01*
X199882080Y-89311028D01*
X199961809Y-89449121D01*
X200019751Y-89549479D01*
X200019753Y-89549482D01*
X200019754Y-89549483D01*
X200187370Y-89767926D01*
X200187376Y-89767933D01*
X200382066Y-89962623D01*
X200382073Y-89962629D01*
X200474773Y-90033760D01*
X200600521Y-90130249D01*
X200753778Y-90218732D01*
X200838971Y-90267919D01*
X200838976Y-90267921D01*
X200838979Y-90267923D01*
X201093368Y-90373295D01*
X201359334Y-90444560D01*
X201632326Y-90480500D01*
X201632333Y-90480500D01*
X201907667Y-90480500D01*
X201907674Y-90480500D01*
X202180666Y-90444560D01*
X202446632Y-90373295D01*
X202701021Y-90267923D01*
X202939479Y-90130249D01*
X203157928Y-89962628D01*
X203352628Y-89767928D01*
X203520249Y-89549479D01*
X203657923Y-89311021D01*
X203763295Y-89056632D01*
X203834560Y-88790666D01*
X203870500Y-88517674D01*
X203870500Y-88242326D01*
X203834560Y-87969334D01*
X203763295Y-87703368D01*
X203657923Y-87448979D01*
X203657921Y-87448976D01*
X203657919Y-87448971D01*
X203608732Y-87363778D01*
X203520249Y-87210521D01*
X203451099Y-87120403D01*
X203352629Y-86992073D01*
X203352623Y-86992066D01*
X203157933Y-86797376D01*
X203157926Y-86797370D01*
X202939483Y-86629754D01*
X202939482Y-86629753D01*
X202939479Y-86629751D01*
X202793227Y-86545312D01*
X202701028Y-86492080D01*
X202701017Y-86492075D01*
X202446630Y-86386704D01*
X202313649Y-86351072D01*
X202180666Y-86315440D01*
X202180660Y-86315439D01*
X202180655Y-86315438D01*
X201907684Y-86279501D01*
X201907679Y-86279500D01*
X201907674Y-86279500D01*
X201632326Y-86279500D01*
X201632320Y-86279500D01*
X201632315Y-86279501D01*
X201359344Y-86315438D01*
X201359337Y-86315439D01*
X201359334Y-86315440D01*
X201303125Y-86330500D01*
X201093369Y-86386704D01*
X200838982Y-86492075D01*
X200838971Y-86492080D01*
X200600516Y-86629754D01*
X200382073Y-86797370D01*
X200382066Y-86797376D01*
X200187376Y-86992066D01*
X200187370Y-86992073D01*
X200019754Y-87210516D01*
X199882080Y-87448971D01*
X199882075Y-87448982D01*
X199776704Y-87703369D01*
X199705441Y-87969331D01*
X199705438Y-87969344D01*
X199669501Y-88242315D01*
X199669500Y-88242332D01*
X196649526Y-88242332D01*
X196687246Y-88126243D01*
X196720500Y-87916287D01*
X196720500Y-87703713D01*
X196687246Y-87493757D01*
X196621557Y-87291588D01*
X196525051Y-87102184D01*
X196525049Y-87102181D01*
X196525048Y-87102179D01*
X196400109Y-86930213D01*
X196249786Y-86779890D01*
X196077820Y-86654951D01*
X195888414Y-86558444D01*
X195888413Y-86558443D01*
X195888412Y-86558443D01*
X195686243Y-86492754D01*
X195686241Y-86492753D01*
X195686240Y-86492753D01*
X195524957Y-86467208D01*
X195476287Y-86459500D01*
X195263713Y-86459500D01*
X195215042Y-86467208D01*
X195053760Y-86492753D01*
X194851585Y-86558444D01*
X194662179Y-86654951D01*
X194490213Y-86779890D01*
X194339890Y-86930213D01*
X194214951Y-87102179D01*
X194118444Y-87291585D01*
X194052753Y-87493760D01*
X194025484Y-87665932D01*
X194019500Y-87703713D01*
X194019500Y-87916287D01*
X194052754Y-88126243D01*
X194107175Y-88293734D01*
X194118444Y-88328414D01*
X194214951Y-88517820D01*
X194339890Y-88689786D01*
X194490213Y-88840109D01*
X194662182Y-88965050D01*
X194670946Y-88969516D01*
X194721742Y-89017491D01*
X194738536Y-89085312D01*
X194715998Y-89151447D01*
X194670946Y-89190484D01*
X194662182Y-89194949D01*
X194490213Y-89319890D01*
X194339890Y-89470213D01*
X194214951Y-89642179D01*
X194118444Y-89831585D01*
X194052753Y-90033760D01*
X194019500Y-90243713D01*
X194019500Y-90456286D01*
X194052753Y-90666239D01*
X194118444Y-90868414D01*
X194214951Y-91057820D01*
X194339890Y-91229786D01*
X194490213Y-91380109D01*
X194662182Y-91505050D01*
X194670946Y-91509516D01*
X194721742Y-91557491D01*
X194738536Y-91625312D01*
X194715998Y-91691447D01*
X194670946Y-91730484D01*
X194662182Y-91734949D01*
X194490213Y-91859890D01*
X194339890Y-92010213D01*
X194214951Y-92182179D01*
X194118444Y-92371585D01*
X194052753Y-92573760D01*
X194019500Y-92783713D01*
X194019500Y-92996286D01*
X194052753Y-93206239D01*
X194118444Y-93408414D01*
X194214951Y-93597820D01*
X194339890Y-93769786D01*
X194490213Y-93920109D01*
X194662179Y-94045048D01*
X194662181Y-94045049D01*
X194662184Y-94045051D01*
X194671493Y-94049794D01*
X194722290Y-94097766D01*
X194739087Y-94165587D01*
X194716552Y-94231722D01*
X194671505Y-94270760D01*
X194662446Y-94275376D01*
X194662440Y-94275380D01*
X194608282Y-94314727D01*
X194608282Y-94314728D01*
X195240591Y-94947037D01*
X195177007Y-94964075D01*
X195062993Y-95029901D01*
X194969901Y-95122993D01*
X194904075Y-95237007D01*
X194887037Y-95300591D01*
X194254728Y-94668282D01*
X194254727Y-94668282D01*
X194215380Y-94722439D01*
X194118904Y-94911782D01*
X194053242Y-95113869D01*
X194053242Y-95113872D01*
X194020000Y-95323753D01*
X194020000Y-95536246D01*
X194053242Y-95746127D01*
X194053242Y-95746130D01*
X194118904Y-95948217D01*
X194215375Y-96137550D01*
X194254728Y-96191716D01*
X194887037Y-95559408D01*
X194904075Y-95622993D01*
X194969901Y-95737007D01*
X195062993Y-95830099D01*
X195177007Y-95895925D01*
X195240591Y-95912962D01*
X194639971Y-96513581D01*
X194718711Y-96630895D01*
X194719920Y-96634729D01*
X194722844Y-96637491D01*
X194730343Y-96667778D01*
X194739727Y-96697529D01*
X194738671Y-96701408D01*
X194739638Y-96705312D01*
X194729573Y-96734844D01*
X194721383Y-96764947D01*
X194718397Y-96767640D01*
X194717100Y-96771447D01*
X194672051Y-96810483D01*
X194662440Y-96815380D01*
X194608282Y-96854727D01*
X194608282Y-96854728D01*
X195240591Y-97487037D01*
X195177007Y-97504075D01*
X195062993Y-97569901D01*
X194969901Y-97662993D01*
X194904075Y-97777007D01*
X194887037Y-97840591D01*
X194254728Y-97208282D01*
X194254727Y-97208282D01*
X194215380Y-97262439D01*
X194118904Y-97451782D01*
X194053242Y-97653869D01*
X194053242Y-97653872D01*
X194020000Y-97863753D01*
X194020000Y-98076246D01*
X194053242Y-98286127D01*
X194053242Y-98286130D01*
X194118904Y-98488217D01*
X194215375Y-98677550D01*
X194254728Y-98731716D01*
X194887037Y-98099408D01*
X194904075Y-98162993D01*
X194969901Y-98277007D01*
X195062993Y-98370099D01*
X195177007Y-98435925D01*
X195240591Y-98452962D01*
X194639971Y-99053581D01*
X194718711Y-99170895D01*
X194719920Y-99174729D01*
X194722844Y-99177491D01*
X194730343Y-99207778D01*
X194739727Y-99237529D01*
X194738671Y-99241408D01*
X194739638Y-99245312D01*
X194729573Y-99274844D01*
X194721383Y-99304947D01*
X194718397Y-99307640D01*
X194717100Y-99311447D01*
X194672051Y-99350483D01*
X194662440Y-99355380D01*
X194608282Y-99394727D01*
X194608282Y-99394728D01*
X195240591Y-100027037D01*
X195177007Y-100044075D01*
X195062993Y-100109901D01*
X194969901Y-100202993D01*
X194904075Y-100317007D01*
X194887037Y-100380591D01*
X194254728Y-99748282D01*
X194254727Y-99748282D01*
X194215380Y-99802439D01*
X194118904Y-99991782D01*
X194053242Y-100193869D01*
X194053242Y-100193872D01*
X194020000Y-100403753D01*
X194020000Y-100616246D01*
X194053242Y-100826127D01*
X194053242Y-100826130D01*
X194118904Y-101028217D01*
X194215375Y-101217550D01*
X194254728Y-101271716D01*
X194887037Y-100639408D01*
X194904075Y-100702993D01*
X194969901Y-100817007D01*
X195062993Y-100910099D01*
X195177007Y-100975925D01*
X195240590Y-100992962D01*
X194608282Y-101625269D01*
X194608282Y-101625270D01*
X194662452Y-101664626D01*
X194662451Y-101664626D01*
X194671495Y-101669234D01*
X194722292Y-101717208D01*
X194739087Y-101785029D01*
X194716550Y-101851164D01*
X194671499Y-101890202D01*
X194662182Y-101894949D01*
X194490213Y-102019890D01*
X194339890Y-102170213D01*
X194214951Y-102342179D01*
X194118444Y-102531585D01*
X194052753Y-102733760D01*
X194019500Y-102943713D01*
X194019500Y-103156286D01*
X194052753Y-103366239D01*
X194118444Y-103568414D01*
X194214951Y-103757820D01*
X194339890Y-103929786D01*
X194490213Y-104080109D01*
X194662182Y-104205050D01*
X194670946Y-104209516D01*
X194721742Y-104257491D01*
X194738536Y-104325312D01*
X194715998Y-104391447D01*
X194670946Y-104430484D01*
X194662182Y-104434949D01*
X194490213Y-104559890D01*
X194339890Y-104710213D01*
X194214951Y-104882179D01*
X194118444Y-105071585D01*
X194052753Y-105273760D01*
X194019500Y-105483713D01*
X194019500Y-105696286D01*
X194052753Y-105906239D01*
X194118444Y-106108414D01*
X194214951Y-106297820D01*
X194339890Y-106469786D01*
X194490213Y-106620109D01*
X194662179Y-106745048D01*
X194662181Y-106745049D01*
X194662184Y-106745051D01*
X194671493Y-106749794D01*
X194722290Y-106797766D01*
X194739087Y-106865587D01*
X194716552Y-106931722D01*
X194671505Y-106970760D01*
X194662446Y-106975376D01*
X194662440Y-106975380D01*
X194608282Y-107014727D01*
X194608282Y-107014728D01*
X195240591Y-107647037D01*
X195177007Y-107664075D01*
X195062993Y-107729901D01*
X194969901Y-107822993D01*
X194904075Y-107937007D01*
X194887037Y-108000591D01*
X194254728Y-107368282D01*
X194254727Y-107368282D01*
X194215380Y-107422439D01*
X194118904Y-107611782D01*
X194053242Y-107813869D01*
X194053242Y-107813872D01*
X194020000Y-108023753D01*
X194020000Y-108236246D01*
X194053242Y-108446127D01*
X194053242Y-108446130D01*
X194118904Y-108648217D01*
X194215375Y-108837550D01*
X194254728Y-108891716D01*
X194887037Y-108259408D01*
X194904075Y-108322993D01*
X194969901Y-108437007D01*
X195062993Y-108530099D01*
X195177007Y-108595925D01*
X195240590Y-108612962D01*
X194570370Y-109283181D01*
X194509047Y-109316666D01*
X194482698Y-109319500D01*
X194472134Y-109319500D01*
X194472123Y-109319501D01*
X194412516Y-109325908D01*
X194277671Y-109376202D01*
X194277664Y-109376206D01*
X194162455Y-109462452D01*
X194162452Y-109462455D01*
X194076206Y-109577664D01*
X194076202Y-109577671D01*
X194025908Y-109712517D01*
X194019501Y-109772116D01*
X194019501Y-109772123D01*
X194019500Y-109772135D01*
X194019500Y-110695637D01*
X193999815Y-110762676D01*
X193983181Y-110783318D01*
X193053319Y-111713181D01*
X192991996Y-111746666D01*
X192965638Y-111749500D01*
X186839019Y-111749500D01*
X186771980Y-111729815D01*
X186726225Y-111677011D01*
X186715729Y-111612246D01*
X186720500Y-111567873D01*
X186720499Y-109772128D01*
X186714091Y-109712517D01*
X186680825Y-109623327D01*
X186663797Y-109577671D01*
X186663793Y-109577664D01*
X186577547Y-109462455D01*
X186577544Y-109462452D01*
X186462335Y-109376206D01*
X186462328Y-109376202D01*
X186330917Y-109327189D01*
X186274983Y-109285318D01*
X186250566Y-109219853D01*
X186265418Y-109151580D01*
X186286563Y-109123332D01*
X186400104Y-109009792D01*
X186525051Y-108837816D01*
X186621557Y-108648412D01*
X186687246Y-108446243D01*
X186720500Y-108236287D01*
X186720500Y-108023713D01*
X186687246Y-107813757D01*
X186621557Y-107611588D01*
X186525051Y-107422184D01*
X186525049Y-107422181D01*
X186525048Y-107422179D01*
X186400109Y-107250213D01*
X186249786Y-107099890D01*
X186077820Y-106974951D01*
X186069600Y-106970763D01*
X186069054Y-106970485D01*
X186018259Y-106922512D01*
X186001463Y-106854692D01*
X186023999Y-106788556D01*
X186069054Y-106749515D01*
X186077816Y-106745051D01*
X186099789Y-106729086D01*
X186249786Y-106620109D01*
X186249788Y-106620106D01*
X186249792Y-106620104D01*
X186400104Y-106469792D01*
X186400106Y-106469788D01*
X186400109Y-106469786D01*
X186525048Y-106297820D01*
X186525047Y-106297820D01*
X186525051Y-106297816D01*
X186621557Y-106108412D01*
X186687246Y-105906243D01*
X186720500Y-105696287D01*
X186720500Y-105483713D01*
X186687246Y-105273757D01*
X186621557Y-105071588D01*
X186525051Y-104882184D01*
X186525049Y-104882181D01*
X186525048Y-104882179D01*
X186400109Y-104710213D01*
X186249786Y-104559890D01*
X186077817Y-104434949D01*
X186068504Y-104430204D01*
X186017707Y-104382230D01*
X186000912Y-104314409D01*
X186023449Y-104248274D01*
X186068507Y-104209232D01*
X186077555Y-104204622D01*
X186131716Y-104165270D01*
X186131717Y-104165270D01*
X185499408Y-103532962D01*
X185562993Y-103515925D01*
X185677007Y-103450099D01*
X185770099Y-103357007D01*
X185835925Y-103242993D01*
X185852962Y-103179408D01*
X186485270Y-103811717D01*
X186485270Y-103811716D01*
X186524622Y-103757554D01*
X186621095Y-103568217D01*
X186686757Y-103366130D01*
X186686757Y-103366127D01*
X186720000Y-103156246D01*
X186720000Y-102943753D01*
X186686757Y-102733872D01*
X186686757Y-102733869D01*
X186621095Y-102531782D01*
X186524624Y-102342449D01*
X186485270Y-102288282D01*
X186485269Y-102288282D01*
X185852962Y-102920590D01*
X185835925Y-102857007D01*
X185770099Y-102742993D01*
X185677007Y-102649901D01*
X185562993Y-102584075D01*
X185499409Y-102567037D01*
X186131716Y-101934728D01*
X186077547Y-101895373D01*
X186077547Y-101895372D01*
X186068500Y-101890763D01*
X186017706Y-101842788D01*
X186000912Y-101774966D01*
X186023451Y-101708832D01*
X186068508Y-101669793D01*
X186077816Y-101665051D01*
X186157007Y-101607515D01*
X186249786Y-101540109D01*
X186249788Y-101540106D01*
X186249792Y-101540104D01*
X186400104Y-101389792D01*
X186400106Y-101389788D01*
X186400109Y-101389786D01*
X186525048Y-101217820D01*
X186525047Y-101217820D01*
X186525051Y-101217816D01*
X186621557Y-101028412D01*
X186687246Y-100826243D01*
X186720500Y-100616287D01*
X186720500Y-100403713D01*
X186687246Y-100193757D01*
X186621557Y-99991588D01*
X186525051Y-99802184D01*
X186525049Y-99802181D01*
X186525048Y-99802179D01*
X186400109Y-99630213D01*
X186249786Y-99479890D01*
X186077820Y-99354951D01*
X186077115Y-99354591D01*
X186069054Y-99350485D01*
X186018259Y-99302512D01*
X186001463Y-99234692D01*
X186023999Y-99168556D01*
X186069054Y-99129515D01*
X186077816Y-99125051D01*
X186176187Y-99053581D01*
X186249786Y-99000109D01*
X186249788Y-99000106D01*
X186249792Y-99000104D01*
X186400104Y-98849792D01*
X186400106Y-98849788D01*
X186400109Y-98849786D01*
X186525048Y-98677820D01*
X186525047Y-98677820D01*
X186525051Y-98677816D01*
X186621557Y-98488412D01*
X186687246Y-98286243D01*
X186720500Y-98076287D01*
X186720500Y-97863713D01*
X186687246Y-97653757D01*
X186621557Y-97451588D01*
X186525051Y-97262184D01*
X186525049Y-97262181D01*
X186525048Y-97262179D01*
X186400109Y-97090213D01*
X186249786Y-96939890D01*
X186077820Y-96814951D01*
X186077115Y-96814591D01*
X186069054Y-96810485D01*
X186018259Y-96762512D01*
X186001463Y-96694692D01*
X186023999Y-96628556D01*
X186069054Y-96589515D01*
X186077816Y-96585051D01*
X186176187Y-96513581D01*
X186249786Y-96460109D01*
X186249788Y-96460106D01*
X186249792Y-96460104D01*
X186400104Y-96309792D01*
X186400106Y-96309788D01*
X186400109Y-96309786D01*
X186525048Y-96137820D01*
X186525047Y-96137820D01*
X186525051Y-96137816D01*
X186621557Y-95948412D01*
X186687246Y-95746243D01*
X186720500Y-95536287D01*
X186720500Y-95323713D01*
X186687246Y-95113757D01*
X186621557Y-94911588D01*
X186525051Y-94722184D01*
X186525049Y-94722181D01*
X186525048Y-94722179D01*
X186400109Y-94550213D01*
X186249786Y-94399890D01*
X186077820Y-94274951D01*
X186069600Y-94270763D01*
X186069054Y-94270485D01*
X186018259Y-94222512D01*
X186001463Y-94154692D01*
X186023999Y-94088556D01*
X186069054Y-94049515D01*
X186077816Y-94045051D01*
X186099789Y-94029086D01*
X186249786Y-93920109D01*
X186249788Y-93920106D01*
X186249792Y-93920104D01*
X186400104Y-93769792D01*
X186400106Y-93769788D01*
X186400109Y-93769786D01*
X186525048Y-93597820D01*
X186525047Y-93597820D01*
X186525051Y-93597816D01*
X186621557Y-93408412D01*
X186687246Y-93206243D01*
X186720500Y-92996287D01*
X186720500Y-92783713D01*
X186687246Y-92573757D01*
X186621557Y-92371588D01*
X186525051Y-92182184D01*
X186525049Y-92182181D01*
X186525048Y-92182179D01*
X186400109Y-92010213D01*
X186249786Y-91859890D01*
X186077820Y-91734951D01*
X186077115Y-91734591D01*
X186069054Y-91730485D01*
X186018259Y-91682512D01*
X186001463Y-91614692D01*
X186023999Y-91548556D01*
X186069054Y-91509515D01*
X186077816Y-91505051D01*
X186099789Y-91489086D01*
X186249786Y-91380109D01*
X186249788Y-91380106D01*
X186249792Y-91380104D01*
X186400104Y-91229792D01*
X186400106Y-91229788D01*
X186400109Y-91229786D01*
X186525048Y-91057820D01*
X186525047Y-91057820D01*
X186525051Y-91057816D01*
X186621557Y-90868412D01*
X186687246Y-90666243D01*
X186720500Y-90456287D01*
X186720500Y-90243713D01*
X186687246Y-90033757D01*
X186621557Y-89831588D01*
X186525051Y-89642184D01*
X186525049Y-89642181D01*
X186525048Y-89642179D01*
X186400109Y-89470213D01*
X186249786Y-89319890D01*
X186077820Y-89194951D01*
X186077115Y-89194591D01*
X186069054Y-89190485D01*
X186018259Y-89142512D01*
X186001463Y-89074692D01*
X186023999Y-89008556D01*
X186069054Y-88969515D01*
X186077816Y-88965051D01*
X186099789Y-88949086D01*
X186249786Y-88840109D01*
X186249788Y-88840106D01*
X186249792Y-88840104D01*
X186400104Y-88689792D01*
X186400106Y-88689788D01*
X186400109Y-88689786D01*
X186525048Y-88517820D01*
X186525047Y-88517820D01*
X186525051Y-88517816D01*
X186621557Y-88328412D01*
X186687246Y-88126243D01*
X186720500Y-87916287D01*
X186720500Y-87703713D01*
X186687246Y-87493757D01*
X186621557Y-87291588D01*
X186525051Y-87102184D01*
X186525049Y-87102181D01*
X186525048Y-87102179D01*
X186400109Y-86930213D01*
X186249786Y-86779890D01*
X186077820Y-86654951D01*
X186077115Y-86654591D01*
X186069054Y-86650485D01*
X186018259Y-86602512D01*
X186001463Y-86534692D01*
X186023999Y-86468556D01*
X186069054Y-86429515D01*
X186077816Y-86425051D01*
X186130595Y-86386705D01*
X186249786Y-86300109D01*
X186249788Y-86300106D01*
X186249792Y-86300104D01*
X186400104Y-86149792D01*
X186400106Y-86149788D01*
X186400109Y-86149786D01*
X186525048Y-85977820D01*
X186525047Y-85977820D01*
X186525051Y-85977816D01*
X186621557Y-85788412D01*
X186687246Y-85586243D01*
X186720500Y-85376287D01*
X186720500Y-85163713D01*
X186687246Y-84953757D01*
X186621557Y-84751588D01*
X186525051Y-84562184D01*
X186525049Y-84562181D01*
X186525048Y-84562179D01*
X186400109Y-84390213D01*
X186249786Y-84239890D01*
X186077820Y-84114951D01*
X186077115Y-84114591D01*
X186069054Y-84110485D01*
X186018259Y-84062512D01*
X186001463Y-83994692D01*
X186023999Y-83928556D01*
X186069054Y-83889515D01*
X186077816Y-83885051D01*
X186099789Y-83869086D01*
X186249786Y-83760109D01*
X186249788Y-83760106D01*
X186249792Y-83760104D01*
X186400104Y-83609792D01*
X186400106Y-83609788D01*
X186400109Y-83609786D01*
X186525048Y-83437820D01*
X186525047Y-83437820D01*
X186525051Y-83437816D01*
X186621557Y-83248412D01*
X186687246Y-83046243D01*
X186720500Y-82836287D01*
X186720500Y-82623713D01*
X186687246Y-82413757D01*
X186621557Y-82211588D01*
X186525051Y-82022184D01*
X186525049Y-82022181D01*
X186525048Y-82022179D01*
X186400109Y-81850213D01*
X186249786Y-81699890D01*
X186077820Y-81574951D01*
X186077115Y-81574591D01*
X186069054Y-81570485D01*
X186018259Y-81522512D01*
X186001463Y-81454692D01*
X186023999Y-81388556D01*
X186069054Y-81349515D01*
X186077816Y-81345051D01*
X186099789Y-81329086D01*
X186249786Y-81220109D01*
X186249788Y-81220106D01*
X186249792Y-81220104D01*
X186400104Y-81069792D01*
X186400106Y-81069788D01*
X186400109Y-81069786D01*
X186525048Y-80897820D01*
X186525047Y-80897820D01*
X186525051Y-80897816D01*
X186621557Y-80708412D01*
X186687246Y-80506243D01*
X186720500Y-80296287D01*
X186720500Y-80083713D01*
X186687246Y-79873757D01*
X186621557Y-79671588D01*
X186525051Y-79482184D01*
X186525049Y-79482181D01*
X186525048Y-79482179D01*
X186400109Y-79310213D01*
X186249786Y-79159890D01*
X186077820Y-79034951D01*
X186077115Y-79034591D01*
X186069054Y-79030485D01*
X186018259Y-78982512D01*
X186001463Y-78914692D01*
X186023999Y-78848556D01*
X186069054Y-78809515D01*
X186077816Y-78805051D01*
X186099789Y-78789086D01*
X186249786Y-78680109D01*
X186249788Y-78680106D01*
X186249792Y-78680104D01*
X186400104Y-78529792D01*
X186400106Y-78529788D01*
X186400109Y-78529786D01*
X186525048Y-78357820D01*
X186525047Y-78357820D01*
X186525051Y-78357816D01*
X186621557Y-78168412D01*
X186687246Y-77966243D01*
X186720500Y-77756287D01*
X186720500Y-77543713D01*
X186687246Y-77333757D01*
X186621557Y-77131588D01*
X186525051Y-76942184D01*
X186525049Y-76942181D01*
X186525048Y-76942179D01*
X186400109Y-76770213D01*
X186249786Y-76619890D01*
X186077820Y-76494951D01*
X186077115Y-76494591D01*
X186069054Y-76490485D01*
X186018259Y-76442512D01*
X186001463Y-76374692D01*
X186023999Y-76308556D01*
X186069054Y-76269515D01*
X186077816Y-76265051D01*
X186164138Y-76202335D01*
X186249786Y-76140109D01*
X186249788Y-76140106D01*
X186249792Y-76140104D01*
X186400104Y-75989792D01*
X186400106Y-75989788D01*
X186400109Y-75989786D01*
X186525048Y-75817820D01*
X186525047Y-75817820D01*
X186525051Y-75817816D01*
X186621557Y-75628412D01*
X186687246Y-75426243D01*
X186720500Y-75216287D01*
X186720500Y-75003713D01*
X186687246Y-74793757D01*
X186673506Y-74751473D01*
X186671512Y-74681635D01*
X186703755Y-74625478D01*
X189118713Y-72210521D01*
X189118716Y-72210520D01*
X189230520Y-72098716D01*
X189280639Y-72011904D01*
X189309577Y-71961785D01*
X189350501Y-71809057D01*
X189350501Y-71650943D01*
X189350501Y-71643348D01*
X189350500Y-71643330D01*
X189350500Y-71604765D01*
X189370185Y-71537726D01*
X189371398Y-71535874D01*
X189459390Y-71404185D01*
X189459390Y-71404184D01*
X189459394Y-71404179D01*
X189519737Y-71258497D01*
X189550500Y-71103842D01*
X189550500Y-70946158D01*
X189550500Y-70946155D01*
X189550499Y-70946153D01*
X189519738Y-70791510D01*
X189519737Y-70791503D01*
X189519735Y-70791498D01*
X189459397Y-70645827D01*
X189459390Y-70645814D01*
X189371789Y-70514711D01*
X189371786Y-70514707D01*
X189260292Y-70403213D01*
X189260288Y-70403210D01*
X189129185Y-70315609D01*
X189129172Y-70315602D01*
X188983501Y-70255264D01*
X188983489Y-70255261D01*
X188828845Y-70224500D01*
X188828842Y-70224500D01*
X188671158Y-70224500D01*
X188671155Y-70224500D01*
X188516510Y-70255261D01*
X188516498Y-70255264D01*
X188370827Y-70315602D01*
X188370814Y-70315609D01*
X188239711Y-70403210D01*
X188239707Y-70403213D01*
X188128213Y-70514707D01*
X188128210Y-70514711D01*
X188040609Y-70645814D01*
X188040602Y-70645827D01*
X187980264Y-70791498D01*
X187980261Y-70791510D01*
X187949500Y-70946153D01*
X187949500Y-71103846D01*
X187980261Y-71258489D01*
X187980264Y-71258501D01*
X188040602Y-71404172D01*
X188040606Y-71404179D01*
X188058561Y-71431050D01*
X188079439Y-71497728D01*
X188060955Y-71565108D01*
X188043140Y-71587623D01*
X185854522Y-73776241D01*
X185793199Y-73809726D01*
X185728523Y-73806491D01*
X185686245Y-73792754D01*
X185521474Y-73766657D01*
X185476287Y-73759500D01*
X185263713Y-73759500D01*
X185224202Y-73765757D01*
X185053759Y-73792753D01*
X185053755Y-73792754D01*
X184982817Y-73815803D01*
X184912976Y-73817798D01*
X184853143Y-73781717D01*
X184822316Y-73719016D01*
X184820500Y-73697872D01*
X184820500Y-71737941D01*
X184840185Y-71670902D01*
X184856819Y-71650260D01*
X184971786Y-71535292D01*
X184971789Y-71535289D01*
X185059394Y-71404179D01*
X185119737Y-71258497D01*
X185124505Y-71234524D01*
X185146231Y-71125308D01*
X185178616Y-71063397D01*
X185239332Y-71028823D01*
X185267848Y-71025500D01*
X185632152Y-71025500D01*
X185699191Y-71045185D01*
X185744946Y-71097989D01*
X185753769Y-71125308D01*
X185780261Y-71258491D01*
X185780264Y-71258501D01*
X185840602Y-71404172D01*
X185840609Y-71404185D01*
X185928210Y-71535288D01*
X185928213Y-71535292D01*
X186039707Y-71646786D01*
X186039711Y-71646789D01*
X186170814Y-71734390D01*
X186170827Y-71734397D01*
X186316498Y-71794735D01*
X186316503Y-71794737D01*
X186471153Y-71825499D01*
X186471156Y-71825500D01*
X186471158Y-71825500D01*
X186628844Y-71825500D01*
X186628845Y-71825499D01*
X186783497Y-71794737D01*
X186929179Y-71734394D01*
X187060289Y-71646789D01*
X187171789Y-71535289D01*
X187259394Y-71404179D01*
X187319737Y-71258497D01*
X187350500Y-71103842D01*
X187350500Y-70946158D01*
X187350500Y-70946155D01*
X187350499Y-70946153D01*
X187319738Y-70791510D01*
X187319737Y-70791503D01*
X187319735Y-70791498D01*
X187259397Y-70645827D01*
X187259390Y-70645814D01*
X187171789Y-70514711D01*
X187171786Y-70514707D01*
X187060292Y-70403213D01*
X187060288Y-70403210D01*
X186929185Y-70315609D01*
X186929172Y-70315602D01*
X186783501Y-70255264D01*
X186783491Y-70255261D01*
X186628149Y-70224361D01*
X186566238Y-70191976D01*
X186564660Y-70190425D01*
X186437590Y-70063355D01*
X186437588Y-70063352D01*
X186318717Y-69944481D01*
X186318716Y-69944480D01*
X186231904Y-69894360D01*
X186231904Y-69894359D01*
X186231900Y-69894358D01*
X186181785Y-69865423D01*
X186029057Y-69824499D01*
X185870943Y-69824499D01*
X185863347Y-69824499D01*
X185863331Y-69824500D01*
X174901670Y-69824500D01*
X174901654Y-69824499D01*
X174894058Y-69824499D01*
X174735943Y-69824499D01*
X174659579Y-69844961D01*
X174583214Y-69865423D01*
X174583209Y-69865426D01*
X174446290Y-69944475D01*
X174446282Y-69944481D01*
X170667582Y-73723181D01*
X170606259Y-73756666D01*
X170579901Y-73759500D01*
X169232129Y-73759500D01*
X169232123Y-73759501D01*
X169172516Y-73765908D01*
X169037671Y-73816202D01*
X169037664Y-73816206D01*
X168922455Y-73902452D01*
X168922452Y-73902455D01*
X168836206Y-74017664D01*
X168836202Y-74017671D01*
X168785908Y-74152517D01*
X168779501Y-74212116D01*
X168779500Y-74212135D01*
X166338000Y-74212135D01*
X166338000Y-57653051D01*
X166338149Y-57646966D01*
X166344763Y-57512332D01*
X167737000Y-57512332D01*
X167737000Y-57787667D01*
X167737001Y-57787684D01*
X167772938Y-58060655D01*
X167772939Y-58060660D01*
X167772940Y-58060666D01*
X167808572Y-58193649D01*
X167844204Y-58326630D01*
X167949575Y-58581017D01*
X167949580Y-58581028D01*
X168029309Y-58719121D01*
X168087251Y-58819479D01*
X168087253Y-58819482D01*
X168087254Y-58819483D01*
X168254870Y-59037926D01*
X168254876Y-59037933D01*
X168449566Y-59232623D01*
X168449572Y-59232628D01*
X168668021Y-59400249D01*
X168821278Y-59488732D01*
X168906471Y-59537919D01*
X168906476Y-59537921D01*
X168906479Y-59537923D01*
X169160868Y-59643295D01*
X169426834Y-59714560D01*
X169699826Y-59750500D01*
X169699833Y-59750500D01*
X169975167Y-59750500D01*
X169975174Y-59750500D01*
X170248166Y-59714560D01*
X170514132Y-59643295D01*
X170768521Y-59537923D01*
X171006979Y-59400249D01*
X171225428Y-59232628D01*
X171420128Y-59037928D01*
X171587749Y-58819479D01*
X171725423Y-58581021D01*
X171830795Y-58326632D01*
X171831522Y-58323920D01*
X180599499Y-58323920D01*
X180628340Y-58468907D01*
X180628343Y-58468917D01*
X180684912Y-58605488D01*
X180684919Y-58605501D01*
X180767048Y-58728415D01*
X180767051Y-58728419D01*
X180871580Y-58832948D01*
X180871584Y-58832951D01*
X180994498Y-58915080D01*
X180994511Y-58915087D01*
X181131082Y-58971656D01*
X181131087Y-58971658D01*
X181131091Y-58971658D01*
X181131092Y-58971659D01*
X181276079Y-59000500D01*
X181276082Y-59000500D01*
X181423920Y-59000500D01*
X181521462Y-58981096D01*
X181568913Y-58971658D01*
X181705495Y-58915084D01*
X181828416Y-58832951D01*
X181932951Y-58728416D01*
X182015084Y-58605495D01*
X182071658Y-58468913D01*
X182081096Y-58421462D01*
X182100500Y-58323920D01*
X188599499Y-58323920D01*
X188628340Y-58468907D01*
X188628343Y-58468917D01*
X188684912Y-58605488D01*
X188684919Y-58605501D01*
X188767048Y-58728415D01*
X188767051Y-58728419D01*
X188871580Y-58832948D01*
X188871584Y-58832951D01*
X188994498Y-58915080D01*
X188994511Y-58915087D01*
X189131082Y-58971656D01*
X189131087Y-58971658D01*
X189131091Y-58971658D01*
X189131092Y-58971659D01*
X189276079Y-59000500D01*
X189276082Y-59000500D01*
X189423920Y-59000500D01*
X189521462Y-58981096D01*
X189568913Y-58971658D01*
X189705495Y-58915084D01*
X189828416Y-58832951D01*
X189932951Y-58728416D01*
X190015084Y-58605495D01*
X190071658Y-58468913D01*
X190081096Y-58421462D01*
X190100500Y-58323920D01*
X190100500Y-58176079D01*
X190071659Y-58031092D01*
X190071658Y-58031091D01*
X190071658Y-58031087D01*
X190071656Y-58031082D01*
X190015087Y-57894511D01*
X190015080Y-57894498D01*
X189932951Y-57771584D01*
X189932948Y-57771580D01*
X189828419Y-57667051D01*
X189828415Y-57667048D01*
X189705501Y-57584919D01*
X189705488Y-57584912D01*
X189568917Y-57528343D01*
X189568907Y-57528340D01*
X189423920Y-57499500D01*
X189423918Y-57499500D01*
X189276082Y-57499500D01*
X189276080Y-57499500D01*
X189131092Y-57528340D01*
X189131082Y-57528343D01*
X188994511Y-57584912D01*
X188994498Y-57584919D01*
X188871584Y-57667048D01*
X188871580Y-57667051D01*
X188767051Y-57771580D01*
X188767048Y-57771584D01*
X188684919Y-57894498D01*
X188684912Y-57894511D01*
X188628343Y-58031082D01*
X188628340Y-58031092D01*
X188599500Y-58176079D01*
X188599500Y-58176082D01*
X188599500Y-58323918D01*
X188599500Y-58323920D01*
X188599499Y-58323920D01*
X182100500Y-58323920D01*
X182100500Y-58176079D01*
X182071659Y-58031092D01*
X182071658Y-58031091D01*
X182071658Y-58031087D01*
X182071656Y-58031082D01*
X182015087Y-57894511D01*
X182015080Y-57894498D01*
X181932951Y-57771584D01*
X181932948Y-57771580D01*
X181828419Y-57667051D01*
X181828415Y-57667048D01*
X181705501Y-57584919D01*
X181705488Y-57584912D01*
X181568917Y-57528343D01*
X181568907Y-57528340D01*
X181423920Y-57499500D01*
X181423918Y-57499500D01*
X181276082Y-57499500D01*
X181276080Y-57499500D01*
X181131092Y-57528340D01*
X181131082Y-57528343D01*
X180994511Y-57584912D01*
X180994498Y-57584919D01*
X180871584Y-57667048D01*
X180871580Y-57667051D01*
X180767051Y-57771580D01*
X180767048Y-57771584D01*
X180684919Y-57894498D01*
X180684912Y-57894511D01*
X180628343Y-58031082D01*
X180628340Y-58031092D01*
X180599500Y-58176079D01*
X180599500Y-58176082D01*
X180599500Y-58323918D01*
X180599500Y-58323920D01*
X180599499Y-58323920D01*
X171831522Y-58323920D01*
X171902060Y-58060666D01*
X171938000Y-57787674D01*
X171938000Y-57512326D01*
X171902060Y-57239334D01*
X171830795Y-56973368D01*
X171725423Y-56718979D01*
X171725421Y-56718976D01*
X171725419Y-56718971D01*
X171673133Y-56628411D01*
X171587749Y-56480521D01*
X171461923Y-56316540D01*
X171420129Y-56262073D01*
X171420123Y-56262066D01*
X171225433Y-56067376D01*
X171225426Y-56067370D01*
X171006983Y-55899754D01*
X171006982Y-55899753D01*
X171006979Y-55899751D01*
X170908843Y-55843092D01*
X170768528Y-55762080D01*
X170768517Y-55762075D01*
X170514130Y-55656704D01*
X170381149Y-55621072D01*
X170248166Y-55585440D01*
X170248160Y-55585439D01*
X170248155Y-55585438D01*
X169975184Y-55549501D01*
X169975179Y-55549500D01*
X169975174Y-55549500D01*
X169699826Y-55549500D01*
X169699820Y-55549500D01*
X169699815Y-55549501D01*
X169426844Y-55585438D01*
X169426837Y-55585439D01*
X169426834Y-55585440D01*
X169370625Y-55600500D01*
X169160869Y-55656704D01*
X168906482Y-55762075D01*
X168906471Y-55762080D01*
X168668016Y-55899754D01*
X168449573Y-56067370D01*
X168449566Y-56067376D01*
X168254876Y-56262066D01*
X168254870Y-56262073D01*
X168087254Y-56480516D01*
X167949580Y-56718971D01*
X167949575Y-56718982D01*
X167844204Y-56973369D01*
X167772941Y-57239331D01*
X167772938Y-57239344D01*
X167737001Y-57512315D01*
X167737000Y-57512332D01*
X166344763Y-57512332D01*
X166345262Y-57502182D01*
X166345262Y-57502181D01*
X166354552Y-57313072D01*
X166355745Y-57300962D01*
X166383099Y-57116556D01*
X166404349Y-56973296D01*
X166406718Y-56961385D01*
X166487210Y-56640043D01*
X166490740Y-56628411D01*
X166507747Y-56580879D01*
X166602335Y-56316525D01*
X166606976Y-56305318D01*
X166748624Y-56005828D01*
X166754340Y-55995136D01*
X166924645Y-55710998D01*
X166931388Y-55700905D01*
X167128732Y-55434818D01*
X167136435Y-55425433D01*
X167358905Y-55179975D01*
X167367475Y-55171405D01*
X167612933Y-54948935D01*
X167622318Y-54941232D01*
X167888405Y-54743888D01*
X167898498Y-54737145D01*
X168182636Y-54566840D01*
X168193328Y-54561124D01*
X168492818Y-54419476D01*
X168504025Y-54414835D01*
X168815912Y-54303239D01*
X168827543Y-54299710D01*
X169148885Y-54219218D01*
X169160796Y-54216849D01*
X169488462Y-54168244D01*
X169500568Y-54167052D01*
X169834467Y-54150648D01*
X169840551Y-54150500D01*
X169903392Y-54150500D01*
X202068497Y-54150500D01*
X202135536Y-54170185D01*
G37*
%TD.AperFunction*%
%TD*%
M02*
