M48
; DRILL file KiCad 10.0.0 date 2026-06-19T00:55:50
; FORMAT={-:-/ absolute / inch / decimal}
; #@! TF.CreationDate,2026-06-19T00:55:50-04:00
; #@! TF.GenerationSoftware,Kicad,Pcbnew,10.0.0
; #@! TF.FileFunction,Plated,1,2,PTH
FMAT,2
INCH
; #@! TA.AperFunction,Plated,PTH,ViaDrill
T1C0.0118
; #@! TA.AperFunction,Plated,PTH,ComponentDrill
T2C0.0236
; #@! TA.AperFunction,Plated,PTH,ComponentDrill
T3C0.0315
; #@! TA.AperFunction,Plated,PTH,ComponentDrill
T4C0.0394
; #@! TA.AperFunction,Plated,PTH,ComponentDrill
T5C0.0433
; #@! TA.AperFunction,Plated,PTH,ComponentDrill
T6C0.0472
; #@! TA.AperFunction,Plated,PTH,ComponentDrill
T7C0.1063
%
G90
G05
T1
X6.6142Y-2.2047
X6.6142Y-2.3622
X6.6142Y-2.5197
X6.6142Y-2.6772
X6.6142Y-2.8346
X6.6142Y-2.9921
X6.6142Y-3.1496
X6.6142Y-3.3071
X6.6142Y-3.4646
X6.6142Y-3.622
X6.6142Y-3.7795
X6.6142Y-3.937
X6.6142Y-4.0945
X6.6142Y-4.252
X6.6142Y-4.4094
X6.6142Y-4.5669
X6.6142Y-4.7244
X6.6142Y-4.8819
X6.6142Y-5.0394
X6.6142Y-5.1969
X6.6142Y-5.3543
X6.6142Y-5.5118
X6.6142Y-5.6693
X6.6142Y-5.8268
X6.6142Y-5.9843
X6.7717Y-2.2047
X6.7717Y-2.3622
X6.7717Y-2.5197
X6.7717Y-2.6772
X6.7717Y-2.8346
X6.7717Y-4.0945
X6.7717Y-4.252
X6.7717Y-4.7244
X6.7717Y-4.8819
X6.7717Y-5.0394
X6.7717Y-5.1969
X6.7717Y-5.5118
X6.7717Y-5.6693
X6.7717Y-5.8268
X6.7717Y-5.9843
X6.8474Y-2.9075
X6.9291Y-2.2047
X6.9291Y-2.5197
X6.9291Y-2.6772
X6.9291Y-2.8346
X6.9291Y-3.3071
X6.9291Y-3.4646
X6.9291Y-3.622
X6.9291Y-3.7795
X6.9291Y-3.937
X6.9291Y-4.252
X6.9291Y-4.5669
X6.9291Y-4.7244
X6.9291Y-4.8819
X6.9291Y-5.0394
X6.9291Y-5.1969
X6.9291Y-5.3543
X6.9291Y-5.5118
X6.9291Y-5.6693
X6.9291Y-5.8268
X6.9291Y-5.9843
X7.0866Y-2.2047
X7.0866Y-2.3622
X7.0866Y-2.5197
X7.0866Y-2.6772
X7.0866Y-2.8346
X7.0866Y-3.1496
X7.0866Y-3.3071
X7.0866Y-3.4646
X7.0866Y-3.622
X7.0866Y-3.7795
X7.0866Y-3.937
X7.0866Y-4.0945
X7.0866Y-4.7244
X7.0866Y-4.8819
X7.0866Y-5.0394
X7.0866Y-5.1969
X7.0866Y-5.6693
X7.0866Y-5.8268
X7.0866Y-5.9843
X7.2146Y-2.7963
X7.2441Y-2.2047
X7.2441Y-2.3622
X7.2441Y-2.5197
X7.2441Y-3.3071
X7.2441Y-3.622
X7.2441Y-4.0945
X7.2441Y-4.5669
X7.2441Y-4.7244
X7.2441Y-4.8819
X7.2441Y-5.0394
X7.2441Y-5.1969
X7.2441Y-5.8268
X7.2579Y-2.7963
X7.3445Y-2.7963
X7.4016Y-2.2047
X7.4016Y-2.3622
X7.4016Y-2.5197
X7.4016Y-2.9921
X7.4016Y-3.1496
X7.4016Y-3.3071
X7.4016Y-3.622
X7.4016Y-3.7795
X7.4016Y-4.252
X7.4016Y-4.7244
X7.4016Y-4.8819
X7.4016Y-5.0394
X7.4016Y-5.1969
X7.4016Y-5.3543
X7.4016Y-5.5118
X7.4311Y-2.7963
X7.5591Y-2.2047
X7.5591Y-2.5197
X7.5591Y-2.8346
X7.5591Y-2.9921
X7.5591Y-3.1496
X7.5591Y-3.4646
X7.5591Y-3.622
X7.5591Y-3.7795
X7.5591Y-3.937
X7.5591Y-4.0945
X7.5591Y-4.252
X7.5591Y-4.5669
X7.5591Y-5.4254
X7.7165Y-2.2047
X7.7165Y-2.3622
X7.7165Y-3.3071
X7.7165Y-4.5669
X7.7165Y-5.0394
X7.7165Y-5.1104
X7.8429Y-4.5669
X7.874Y-2.2047
X7.874Y-2.3622
X7.874Y-3.1496
X7.874Y-3.622
X7.874Y-3.7795
X7.874Y-4.252
X7.874Y-4.4094
X7.874Y-5.8268
X7.874Y-5.9843
X8.0315Y-2.3622
X8.0315Y-2.5197
X8.0315Y-2.6772
X8.0315Y-3.1496
X8.0315Y-3.3071
X8.0315Y-3.622
X8.0315Y-4.0945
X8.0315Y-4.252
X8.0315Y-4.4094
X8.0315Y-4.5669
X8.0315Y-5.0394
X8.0315Y-5.1104
X8.0315Y-5.5829
X8.0315Y-5.8268
X8.0315Y-5.9843
X8.189Y-3.9378
X8.189Y-4.0945
X8.189Y-4.252
X8.189Y-4.4094
X8.189Y-4.5669
X8.189Y-5.0394
X8.189Y-5.1104
X8.189Y-5.4254
X8.189Y-5.5829
X8.189Y-5.8268
X8.189Y-5.9843
X8.1939Y-5.2374
X8.1978Y-4.748
X8.3465Y-2.3622
X8.3465Y-2.5197
X8.3465Y-2.6772
X8.3465Y-2.8346
X8.3465Y-2.9921
X8.3465Y-3.1496
X8.3465Y-3.3071
X8.3465Y-3.4646
X8.3465Y-3.622
X8.3465Y-3.7795
X8.3465Y-3.937
X8.3465Y-4.0945
X8.3465Y-4.252
X8.3465Y-4.5669
X8.3465Y-5.0394
X8.3465Y-5.1104
X8.3465Y-5.5829
T3
X6.7657Y-4.5965
X6.7657Y-5.3346
X7.0084Y-5.5892
X7.0084Y-5.8892
X7.1299Y-4.5965
X7.1299Y-5.3346
X7.2283Y-5.3346
X7.7559Y-4.6807
X7.7559Y-4.7807
X7.7559Y-4.8807
X7.7559Y-4.9807
X7.7559Y-5.1748
X7.7559Y-5.2748
X7.7559Y-5.3748
X7.7559Y-5.4748
X8.0559Y-4.6807
X8.0559Y-4.7807
X8.0559Y-4.8807
X8.0559Y-4.9807
X8.0559Y-5.1748
X8.0559Y-5.2748
X8.0559Y-5.3748
X8.0559Y-5.4748
T4
X6.698Y-2.9571
X6.698Y-3.0571
X6.698Y-3.1571
X6.698Y-3.2571
X6.698Y-3.3571
X6.698Y-3.4571
X6.698Y-3.5571
X6.698Y-3.6571
X6.698Y-3.7571
X6.698Y-3.8571
X6.698Y-3.9571
X6.698Y-4.0571
X6.698Y-4.1571
X6.698Y-4.2571
X6.698Y-4.3571
X7.298Y-2.9571
X7.298Y-3.0571
X7.298Y-3.1571
X7.298Y-3.2571
X7.298Y-3.3571
X7.298Y-3.4571
X7.298Y-3.5571
X7.298Y-3.6571
X7.298Y-3.7571
X7.298Y-3.8571
X7.298Y-3.9571
X7.298Y-4.0571
X7.298Y-4.1571
X7.298Y-4.2571
X7.298Y-4.3571
X7.6917Y-3.4571
X7.6917Y-3.5571
X7.6917Y-3.6571
X7.6917Y-3.7571
X7.6917Y-3.8571
X7.6917Y-3.9571
X7.6917Y-4.0571
X7.6917Y-4.1571
X7.6917Y-4.2571
X7.6917Y-4.3571
T5
X7.9843Y-2.1939
X7.9843Y-2.4498
X7.9843Y-2.5728
X7.9843Y-2.8287
X7.9843Y-2.9547
X7.9843Y-3.2106
X8.1614Y-2.1939
X8.1614Y-2.4498
X8.1614Y-2.5728
X8.1614Y-2.8287
X8.1614Y-2.9547
X8.1614Y-3.2106
T6
X8.3691Y-4.3606
X8.3691Y-4.4606
X8.4094Y-5.2772
X8.4094Y-5.3772
X8.4098Y-4.7819
X8.4098Y-4.8819
T7
X7.3969Y-5.7063
X7.6803Y-5.7063
T2
G00X7.2728Y-5.9642
M15
G01X7.2728Y-5.9209
M16
G05
G00X7.8043Y-5.9642
M15
G01X7.8043Y-5.9209
M16
G05
T4
G00X7.5583Y-5.85
M15
G01X7.5189Y-5.85
M16
G05
M30
