%TF.GenerationSoftware,KiCad,Pcbnew,10.0.0*%
%TF.CreationDate,2026-06-19T00:55:50-04:00*%
%TF.ProjectId,PMDS-motor-drivers,504d4453-2d6d-46f7-946f-722d64726976,rev?*%
%TF.SameCoordinates,Original*%
%TF.FileFunction,Soldermask,Top*%
%TF.FilePolarity,Negative*%
%FSLAX46Y46*%
G04 Gerber Fmt 4.6, Leading zero omitted, Abs format (unit mm)*
G04 Created by KiCad (PCBNEW 10.0.0) date 2026-06-19 00:55:50*
%MOMM*%
%LPD*%
G01*
G04 APERTURE LIST*
G04 Aperture macros list*
%AMRoundRect*
0 Rectangle with rounded corners*
0 $1 Rounding radius*
0 $2 $3 $4 $5 $6 $7 $8 $9 X,Y pos of 4 corners*
0 Add a 4 corners polygon primitive as box body*
4,1,4,$2,$3,$4,$5,$6,$7,$8,$9,$2,$3,0*
0 Add four circle primitives for the rounded corners*
1,1,$1+$1,$2,$3*
1,1,$1+$1,$4,$5*
1,1,$1+$1,$6,$7*
1,1,$1+$1,$8,$9*
0 Add four rect primitives between the rounded corners*
20,1,$1+$1,$2,$3,$4,$5,0*
20,1,$1+$1,$4,$5,$6,$7,0*
20,1,$1+$1,$6,$7,$8,$9,0*
20,1,$1+$1,$8,$9,$2,$3,0*%
G04 Aperture macros list end*
%ADD10RoundRect,0.218750X0.218750X0.256250X-0.218750X0.256250X-0.218750X-0.256250X0.218750X-0.256250X0*%
%ADD11RoundRect,0.225000X-0.225000X-0.250000X0.225000X-0.250000X0.225000X0.250000X-0.225000X0.250000X0*%
%ADD12C,2.000000*%
%ADD13RoundRect,0.225000X-0.250000X0.225000X-0.250000X-0.225000X0.250000X-0.225000X0.250000X0.225000X0*%
%ADD14RoundRect,0.250000X0.550000X0.550000X-0.550000X0.550000X-0.550000X-0.550000X0.550000X-0.550000X0*%
%ADD15C,1.600000*%
%ADD16RoundRect,0.237500X-0.237500X0.250000X-0.237500X-0.250000X0.237500X-0.250000X0.237500X0.250000X0*%
%ADD17R,1.700000X1.700000*%
%ADD18C,1.700000*%
%ADD19RoundRect,0.218750X0.256250X-0.218750X0.256250X0.218750X-0.256250X0.218750X-0.256250X-0.218750X0*%
%ADD20RoundRect,0.225000X0.225000X0.250000X-0.225000X0.250000X-0.225000X-0.250000X0.225000X-0.250000X0*%
%ADD21RoundRect,0.225000X0.250000X-0.225000X0.250000X0.225000X-0.250000X0.225000X-0.250000X-0.225000X0*%
%ADD22RoundRect,0.250000X-0.750000X0.750000X-0.750000X-0.750000X0.750000X-0.750000X0.750000X0.750000X0*%
%ADD23RoundRect,0.250000X0.750000X-0.750000X0.750000X0.750000X-0.750000X0.750000X-0.750000X-0.750000X0*%
%ADD24RoundRect,0.102000X0.350000X0.800000X-0.350000X0.800000X-0.350000X-0.800000X0.350000X-0.800000X0*%
%ADD25RoundRect,0.102000X0.600000X0.900000X-0.600000X0.900000X-0.600000X-0.900000X0.600000X-0.900000X0*%
%ADD26RoundRect,0.102000X0.800000X0.750000X-0.800000X0.750000X-0.800000X-0.750000X0.800000X-0.750000X0*%
%ADD27RoundRect,0.102000X0.600000X1.100000X-0.600000X1.100000X-0.600000X-1.100000X0.600000X-1.100000X0*%
%ADD28R,0.900000X2.000000*%
%ADD29RoundRect,1.025000X1.025000X1.025000X-1.025000X1.025000X-1.025000X-1.025000X1.025000X-1.025000X0*%
%ADD30C,4.100000*%
%ADD31R,2.300000X1.300000*%
%ADD32R,0.550000X0.950000*%
%ADD33RoundRect,0.250000X0.550000X-0.550000X0.550000X0.550000X-0.550000X0.550000X-0.550000X-0.550000X0*%
%ADD34RoundRect,0.393701X0.606299X-1.106299X0.606299X1.106299X-0.606299X1.106299X-0.606299X-1.106299X0*%
%ADD35RoundRect,0.250000X0.385000X-1.020000X0.385000X1.020000X-0.385000X1.020000X-0.385000X-1.020000X0*%
G04 APERTURE END LIST*
D10*
%TO.C,D3*%
X201400000Y-85250000D03*
X199825000Y-85250000D03*
%TD*%
D11*
%TO.C,C3*%
X176200000Y-114600000D03*
X177750000Y-114600000D03*
%TD*%
D12*
%TO.C,SW1*%
X207300000Y-55725000D03*
X207300000Y-62225000D03*
X202800000Y-55725000D03*
X202800000Y-62225000D03*
%TD*%
%TO.C,SW2*%
X207300000Y-65350000D03*
X207300000Y-71850000D03*
X202800000Y-65350000D03*
X202800000Y-71850000D03*
%TD*%
D13*
%TO.C,C5*%
X172625000Y-77475000D03*
X172625000Y-79025000D03*
%TD*%
D14*
%TO.C,U4*%
X204620000Y-126510000D03*
D15*
X204620000Y-123970000D03*
X204620000Y-121430000D03*
X204620000Y-118890000D03*
X197000000Y-118890000D03*
X197000000Y-121430000D03*
X197000000Y-123970000D03*
X197000000Y-126510000D03*
%TD*%
D16*
%TO.C,R3*%
X199800000Y-81550000D03*
X199800000Y-83375000D03*
%TD*%
D13*
%TO.C,C8*%
X197800000Y-71987500D03*
X197800000Y-73537500D03*
%TD*%
D17*
%TO.C,J1*%
X170130000Y-75110000D03*
D18*
X170130000Y-77650000D03*
X170130000Y-80190000D03*
X170130000Y-82730000D03*
X170130000Y-85270000D03*
X170130000Y-87810000D03*
X170130000Y-90350000D03*
X170130000Y-92890000D03*
X170130000Y-95430000D03*
X170130000Y-97970000D03*
X170130000Y-100510000D03*
X170130000Y-103050000D03*
X170130000Y-105590000D03*
X170130000Y-108130000D03*
X170130000Y-110670000D03*
%TD*%
D19*
%TO.C,D2*%
X199800000Y-77150000D03*
X199800000Y-75575000D03*
%TD*%
D13*
%TO.C,C7*%
X176000000Y-79200000D03*
X176000000Y-80750000D03*
%TD*%
D20*
%TO.C,C2*%
X177625000Y-137875000D03*
X176075000Y-137875000D03*
%TD*%
D21*
%TO.C,C4*%
X173150000Y-110725000D03*
X173150000Y-109175000D03*
%TD*%
D12*
%TO.C,SW3*%
X207300000Y-75050000D03*
X207300000Y-81550000D03*
X202800000Y-75050000D03*
X202800000Y-81550000D03*
%TD*%
D13*
%TO.C,C12*%
X208125000Y-134530000D03*
X208125000Y-136080000D03*
%TD*%
D22*
%TO.C,J7*%
X213610000Y-121460000D03*
D12*
X213610000Y-124000000D03*
%TD*%
D23*
%TO.C,J8*%
X212575000Y-113300000D03*
D12*
X212575000Y-110760000D03*
%TD*%
D16*
%TO.C,R2*%
X199800000Y-71850000D03*
X199800000Y-73675000D03*
%TD*%
D19*
%TO.C,D1*%
X199800000Y-67525000D03*
X199800000Y-65950000D03*
%TD*%
D24*
%TO.C,J6*%
X182150000Y-69250000D03*
X183250000Y-69250000D03*
X184350000Y-69250000D03*
X185450000Y-69250000D03*
X186550000Y-69250000D03*
X187650000Y-69250000D03*
X188750000Y-69250000D03*
X189850000Y-69250000D03*
X190950000Y-69250000D03*
D25*
X192150000Y-67950000D03*
D26*
X177550000Y-68200000D03*
D27*
X192150000Y-58650000D03*
X176650000Y-58650000D03*
%TD*%
D13*
%TO.C,C9*%
X197800000Y-62362500D03*
X197800000Y-63912500D03*
%TD*%
D22*
%TO.C,J5*%
X213600000Y-134040000D03*
D12*
X213600000Y-136580000D03*
%TD*%
D13*
%TO.C,C10*%
X197800000Y-81687500D03*
X197800000Y-83237500D03*
%TD*%
D16*
%TO.C,R1*%
X199800000Y-62225000D03*
X199800000Y-64050000D03*
%TD*%
D28*
%TO.C,J4*%
X198230000Y-150940000D03*
X184730000Y-150940000D03*
D29*
X195080000Y-144940000D03*
D30*
X187880000Y-144940000D03*
D31*
X191480000Y-148590000D03*
%TD*%
D17*
%TO.C,J3*%
X195370000Y-110670000D03*
D18*
X195370000Y-108130000D03*
X195370000Y-105590000D03*
X195370000Y-103050000D03*
X195370000Y-100510000D03*
X195370000Y-97970000D03*
X195370000Y-95430000D03*
X195370000Y-92890000D03*
X195370000Y-90350000D03*
X195370000Y-87810000D03*
%TD*%
D14*
%TO.C,U1*%
X204620000Y-139060000D03*
D15*
X204620000Y-136520000D03*
X204620000Y-133980000D03*
X204620000Y-131440000D03*
X197000000Y-131440000D03*
X197000000Y-133980000D03*
X197000000Y-136520000D03*
X197000000Y-139060000D03*
%TD*%
D21*
%TO.C,C6*%
X198000000Y-112175000D03*
X198000000Y-110625000D03*
%TD*%
D32*
%TO.C,U3*%
X175975000Y-77425000D03*
X177225000Y-77425000D03*
X178475000Y-77425000D03*
X179725000Y-77425000D03*
X179725000Y-75275000D03*
X178475000Y-75275000D03*
X177225000Y-75275000D03*
X175975000Y-75275000D03*
%TD*%
D33*
%TO.C,SW4*%
X178012500Y-149585000D03*
D15*
X178012500Y-141965000D03*
%TD*%
D13*
%TO.C,C1*%
X208225000Y-121975000D03*
X208225000Y-123525000D03*
%TD*%
D17*
%TO.C,J2*%
X185370000Y-110670000D03*
D18*
X185370000Y-108130000D03*
X185370000Y-105590000D03*
X185370000Y-103050000D03*
X185370000Y-100510000D03*
X185370000Y-97970000D03*
X185370000Y-95430000D03*
X185370000Y-92890000D03*
X185370000Y-90350000D03*
X185370000Y-87810000D03*
X185370000Y-85270000D03*
X185370000Y-82730000D03*
X185370000Y-80190000D03*
X185370000Y-77650000D03*
X185370000Y-75110000D03*
%TD*%
D20*
%TO.C,C11*%
X187000000Y-72450000D03*
X185450000Y-72450000D03*
%TD*%
D34*
%TO.C,U2*%
X171850000Y-135500000D03*
X181100000Y-135500000D03*
D35*
X183600000Y-135500000D03*
D34*
X181100000Y-116750000D03*
X171850000Y-116750000D03*
%TD*%
M02*
