%TF.GenerationSoftware,KiCad,Pcbnew,10.0.0*%
%TF.CreationDate,2026-06-17T14:35:22-04:00*%
%TF.ProjectId,power_db_hat,706f7765-725f-4646-925f-6861742e6b69,rev?*%
%TF.SameCoordinates,Original*%
%TF.FileFunction,Paste,Bot*%
%TF.FilePolarity,Positive*%
%FSLAX46Y46*%
G04 Gerber Fmt 4.6, Leading zero omitted, Abs format (unit mm)*
G04 Created by KiCad (PCBNEW 10.0.0) date 2026-06-17 14:35:22*
%MOMM*%
%LPD*%
G01*
G04 APERTURE LIST*
G04 Aperture macros list*
%AMRoundRect*
0 Rectangle with rounded corners*
0 $1 Rounding radius*
0 $2 $3 $4 $5 $6 $7 $8 $9 X,Y pos of 4 corners*
0 Add a 4 corners polygon primitive as box body*
4,1,4,$2,$3,$4,$5,$6,$7,$8,$9,$2,$3,0*
0 Add four circle primitives for the rounded corners*
1,1,$1+$1,$2,$3*
1,1,$1+$1,$4,$5*
1,1,$1+$1,$6,$7*
1,1,$1+$1,$8,$9*
0 Add four rect primitives between the rounded corners*
20,1,$1+$1,$2,$3,$4,$5,0*
20,1,$1+$1,$4,$5,$6,$7,0*
20,1,$1+$1,$6,$7,$8,$9,0*
20,1,$1+$1,$8,$9,$2,$3,0*%
%AMFreePoly0*
4,1,21,1.372500,0.787500,0.862500,0.787500,0.862500,0.532500,1.372500,0.532500,1.372500,0.127500,0.862500,0.127500,0.862500,-0.127500,1.372500,-0.127500,1.372500,-0.532500,0.862500,-0.532500,0.862500,-0.787500,1.372500,-0.787500,1.372500,-1.195000,0.612500,-1.195000,0.612500,-1.117500,-0.862500,-1.117500,-0.862500,1.117500,0.612500,1.117500,0.612500,1.195000,1.372500,1.195000,
1.372500,0.787500,1.372500,0.787500,$1*%
G04 Aperture macros list end*
%ADD10C,0.000000*%
%ADD11R,0.405000X0.990000*%
%ADD12FreePoly0,90.000000*%
%ADD13R,0.990000X0.405000*%
%ADD14FreePoly0,0.000000*%
%ADD15R,1.000000X3.000000*%
%ADD16RoundRect,0.237500X0.237500X-0.250000X0.237500X0.250000X-0.237500X0.250000X-0.237500X-0.250000X0*%
%ADD17RoundRect,0.237500X0.237500X-0.300000X0.237500X0.300000X-0.237500X0.300000X-0.237500X-0.300000X0*%
%ADD18RoundRect,0.475000X0.475000X2.075000X-0.475000X2.075000X-0.475000X-2.075000X0.475000X-2.075000X0*%
%ADD19RoundRect,0.237500X-0.300000X-0.237500X0.300000X-0.237500X0.300000X0.237500X-0.300000X0.237500X0*%
%ADD20RoundRect,0.237500X0.250000X0.237500X-0.250000X0.237500X-0.250000X-0.237500X0.250000X-0.237500X0*%
%ADD21RoundRect,0.250000X0.250000X0.475000X-0.250000X0.475000X-0.250000X-0.475000X0.250000X-0.475000X0*%
%ADD22RoundRect,0.237500X0.300000X0.237500X-0.300000X0.237500X-0.300000X-0.237500X0.300000X-0.237500X0*%
%ADD23R,1.050000X0.350000*%
%ADD24R,0.350000X1.050000*%
%ADD25R,2.200000X2.200000*%
%ADD26R,0.750000X0.650000*%
%ADD27RoundRect,0.062500X0.187500X0.062500X-0.187500X0.062500X-0.187500X-0.062500X0.187500X-0.062500X0*%
%ADD28RoundRect,0.250000X0.475000X-0.250000X0.475000X0.250000X-0.475000X0.250000X-0.475000X-0.250000X0*%
%ADD29RoundRect,0.249999X0.450001X1.425001X-0.450001X1.425001X-0.450001X-1.425001X0.450001X-1.425001X0*%
%ADD30RoundRect,0.237500X-0.237500X0.250000X-0.237500X-0.250000X0.237500X-0.250000X0.237500X0.250000X0*%
%ADD31RoundRect,0.237500X-0.250000X-0.237500X0.250000X-0.237500X0.250000X0.237500X-0.250000X0.237500X0*%
%ADD32RoundRect,0.250000X-0.250000X-0.475000X0.250000X-0.475000X0.250000X0.475000X-0.250000X0.475000X0*%
%ADD33RoundRect,0.237500X-0.237500X0.300000X-0.237500X-0.300000X0.237500X-0.300000X0.237500X0.300000X0*%
%ADD34RoundRect,0.250000X-0.475000X0.250000X-0.475000X-0.250000X0.475000X-0.250000X0.475000X0.250000X0*%
%ADD35RoundRect,0.249999X-0.450001X-1.425001X0.450001X-1.425001X0.450001X1.425001X-0.450001X1.425001X0*%
%ADD36RoundRect,0.250001X-0.624999X0.462499X-0.624999X-0.462499X0.624999X-0.462499X0.624999X0.462499X0*%
%ADD37R,0.965200X0.304800*%
%ADD38R,0.304800X0.965200*%
%ADD39R,3.200400X3.200400*%
%ADD40RoundRect,0.250000X1.500000X0.650000X-1.500000X0.650000X-1.500000X-0.650000X1.500000X-0.650000X0*%
%ADD41RoundRect,0.250000X-0.650000X1.500000X-0.650000X-1.500000X0.650000X-1.500000X0.650000X1.500000X0*%
G04 APERTURE END LIST*
D10*
%TO.C,U5*%
G36*
X40700000Y27450000D02*
G01*
X39299800Y27450000D01*
X39299800Y28850200D01*
X40700000Y28850200D01*
X40700000Y27450000D01*
G37*
G36*
X40700000Y25849800D02*
G01*
X39299800Y25849800D01*
X39299800Y27250000D01*
X40700000Y27250000D01*
X40700000Y25849800D01*
G37*
G36*
X42300200Y27450000D02*
G01*
X40900000Y27450000D01*
X40900000Y28850200D01*
X42300200Y28850200D01*
X42300200Y27450000D01*
G37*
G36*
X42300200Y25849800D02*
G01*
X40900000Y25849800D01*
X40900000Y27250000D01*
X42300200Y27250000D01*
X42300200Y25849800D01*
G37*
%TO.C,U3*%
G36*
X21400000Y33600000D02*
G01*
X19999800Y33600000D01*
X19999800Y35000200D01*
X21400000Y35000200D01*
X21400000Y33600000D01*
G37*
G36*
X21400000Y31999800D02*
G01*
X19999800Y31999800D01*
X19999800Y33400000D01*
X21400000Y33400000D01*
X21400000Y31999800D01*
G37*
G36*
X23000200Y33600000D02*
G01*
X21600000Y33600000D01*
X21600000Y35000200D01*
X23000200Y35000200D01*
X23000200Y33600000D01*
G37*
G36*
X23000200Y31999800D02*
G01*
X21600000Y31999800D01*
X21600000Y33400000D01*
X23000200Y33400000D01*
X23000200Y31999800D01*
G37*
%TD*%
D11*
%TO.C,Q7*%
X41808000Y19520000D03*
X41148000Y19520000D03*
X40488000Y19520000D03*
X39828000Y19520000D03*
D12*
X40818000Y21512500D03*
%TD*%
D13*
%TO.C,Q5*%
X19089500Y24410000D03*
X19089500Y25070000D03*
X19089500Y25730000D03*
X19089500Y26390000D03*
D14*
X21082000Y25400000D03*
%TD*%
D15*
%TO.C,U7*%
X2440000Y14460000D03*
X2420000Y48000000D03*
X49840000Y48000000D03*
X2440000Y9420000D03*
X2420000Y42960000D03*
X49840000Y42960000D03*
X4980000Y14460000D03*
X4960000Y48000000D03*
X52380000Y48000000D03*
X4980000Y9420000D03*
X4960000Y42960000D03*
X52380000Y42960000D03*
X7520000Y14460000D03*
X7500000Y48000000D03*
X54920000Y48000000D03*
X7520000Y9420000D03*
X7500000Y42960000D03*
X54920000Y42960000D03*
X10060000Y14460000D03*
X10040000Y48000000D03*
X57460000Y48000000D03*
X10060000Y9420000D03*
X10040000Y42960000D03*
X57460000Y42960000D03*
X12600000Y14460000D03*
X12580000Y48000000D03*
X60000000Y48000000D03*
X12600000Y9420000D03*
X12580000Y42960000D03*
X60000000Y42960000D03*
X15140000Y14460000D03*
X15120000Y48000000D03*
X62540000Y48000000D03*
X15140000Y9420000D03*
X15120000Y42960000D03*
X62540000Y42960000D03*
%TD*%
D16*
%TO.C,R23*%
X20350000Y37925000D03*
X20350000Y39750000D03*
%TD*%
D17*
%TO.C,C14*%
X17500000Y34250000D03*
X17500000Y35975000D03*
%TD*%
D18*
%TO.C,L2*%
X37100000Y19750000D03*
X32900000Y19750000D03*
%TD*%
D19*
%TO.C,C1*%
X7637500Y25300000D03*
X9362500Y25300000D03*
%TD*%
D17*
%TO.C,C6*%
X13750000Y32500000D03*
X13750000Y34225000D03*
%TD*%
D20*
%TO.C,R2*%
X53512500Y13800000D03*
X51687500Y13800000D03*
%TD*%
%TO.C,R41*%
X42912500Y37000000D03*
X41087500Y37000000D03*
%TD*%
D21*
%TO.C,C19*%
X57750000Y24400000D03*
X55850000Y24400000D03*
%TD*%
D22*
%TO.C,C3*%
X35962500Y42300000D03*
X34237500Y42300000D03*
%TD*%
D23*
%TO.C,U1*%
X37912500Y39750000D03*
X37912500Y40400000D03*
X37912500Y41050000D03*
X37912500Y41700000D03*
D24*
X38787500Y42575000D03*
X39437500Y42575000D03*
X40087500Y42575000D03*
X40737500Y42575000D03*
D23*
X41612500Y41700000D03*
X41612500Y41050000D03*
X41612500Y40400000D03*
X41612500Y39750000D03*
D24*
X40737500Y38875000D03*
X40087500Y38875000D03*
X39437500Y38875000D03*
X38787500Y38875000D03*
D25*
X39762500Y40725000D03*
%TD*%
D17*
%TO.C,C29*%
X27400000Y38075000D03*
X27400000Y39800000D03*
%TD*%
D19*
%TO.C,C35*%
X44887500Y30500000D03*
X46612500Y30500000D03*
%TD*%
D26*
%TO.C,U9*%
X56600000Y13400000D03*
X56600000Y14200000D03*
D27*
X57550000Y14550000D03*
X57550000Y14050000D03*
X57550000Y13550000D03*
X57550000Y13050000D03*
X55650000Y13050000D03*
X55650000Y13550000D03*
X55650000Y14050000D03*
X55650000Y14550000D03*
%TD*%
D28*
%TO.C,C39*%
X20800000Y18450000D03*
X20800000Y20350000D03*
%TD*%
D29*
%TO.C,R8*%
X12800000Y21700000D03*
X6700000Y21700000D03*
%TD*%
D30*
%TO.C,R22*%
X22600000Y39750000D03*
X22600000Y37925000D03*
%TD*%
D31*
%TO.C,R42*%
X44837500Y32250000D03*
X46662500Y32250000D03*
%TD*%
D32*
%TO.C,C42*%
X47050000Y21600000D03*
X48950000Y21600000D03*
%TD*%
D22*
%TO.C,C5*%
X57662500Y26200000D03*
X55937500Y26200000D03*
%TD*%
D33*
%TO.C,C16*%
X23750000Y28862500D03*
X23750000Y27137500D03*
%TD*%
D22*
%TO.C,C20*%
X53462500Y15600000D03*
X51737500Y15600000D03*
%TD*%
D28*
%TO.C,C46*%
X55250000Y51550000D03*
X55250000Y53450000D03*
%TD*%
D34*
%TO.C,C33*%
X32500000Y26300000D03*
X32500000Y24400000D03*
%TD*%
D35*
%TO.C,R33*%
X23700000Y18750000D03*
X29800000Y18750000D03*
%TD*%
D19*
%TO.C,C36*%
X44737500Y28400000D03*
X46462500Y28400000D03*
%TD*%
%TO.C,C40*%
X47137500Y25400000D03*
X48862500Y25400000D03*
%TD*%
D17*
%TO.C,C31*%
X34500000Y28087500D03*
X34500000Y29812500D03*
%TD*%
D36*
%TO.C,F1*%
X21250000Y11737500D03*
X21250000Y8762500D03*
%TD*%
D17*
%TO.C,C7*%
X15750000Y32500000D03*
X15750000Y34225000D03*
%TD*%
D20*
%TO.C,R65*%
X30512500Y34200000D03*
X28687500Y34200000D03*
%TD*%
D31*
%TO.C,R43*%
X34787500Y24350000D03*
X36612500Y24350000D03*
%TD*%
D26*
%TO.C,U8*%
X55712500Y21550000D03*
X55712500Y22350000D03*
D27*
X56662500Y22700000D03*
X56662500Y22200000D03*
X56662500Y21700000D03*
X56662500Y21200000D03*
X54762500Y21200000D03*
X54762500Y21700000D03*
X54762500Y22200000D03*
X54762500Y22700000D03*
%TD*%
D28*
%TO.C,C8*%
X11750000Y32437500D03*
X11750000Y34337500D03*
%TD*%
D17*
%TO.C,C41*%
X18600000Y18537500D03*
X18600000Y20262500D03*
%TD*%
D22*
%TO.C,C25*%
X57462500Y16000000D03*
X55737500Y16000000D03*
%TD*%
D33*
%TO.C,C45*%
X57200000Y53412500D03*
X57200000Y51687500D03*
%TD*%
D21*
%TO.C,C26*%
X57550000Y17800000D03*
X55650000Y17800000D03*
%TD*%
D31*
%TO.C,R20*%
X17337500Y28750000D03*
X19162500Y28750000D03*
%TD*%
D33*
%TO.C,C11*%
X27600000Y31325000D03*
X27600000Y29600000D03*
%TD*%
%TO.C,C37*%
X43900000Y23375000D03*
X43900000Y21650000D03*
%TD*%
D16*
%TO.C,R44*%
X48850000Y28387500D03*
X48850000Y30212500D03*
%TD*%
D28*
%TO.C,C43*%
X16400000Y18450000D03*
X16400000Y20350000D03*
%TD*%
D16*
%TO.C,R19*%
X25200000Y38000000D03*
X25200000Y39825000D03*
%TD*%
D30*
%TO.C,R39*%
X43450000Y43962500D03*
X43450000Y42137500D03*
%TD*%
D17*
%TO.C,C10*%
X54000000Y24537500D03*
X54000000Y26262500D03*
%TD*%
D37*
%TO.C,U5*%
X38425100Y26050000D03*
X38425100Y26700001D03*
X38425100Y27350000D03*
X38425100Y27999999D03*
X38425100Y28650000D03*
D38*
X39500000Y29724900D03*
X40150001Y29724900D03*
X40800000Y29724900D03*
X41449999Y29724900D03*
X42100000Y29724900D03*
D37*
X43174900Y28650000D03*
X43174900Y27999999D03*
X43174900Y27350000D03*
X43174900Y26700001D03*
X43174900Y26050000D03*
D38*
X42100000Y24975100D03*
X41449999Y24975100D03*
X40800000Y24975100D03*
X40150001Y24975100D03*
X39500000Y24975100D03*
D39*
X40800000Y27350000D03*
%TD*%
D33*
%TO.C,C9*%
X25600000Y31325000D03*
X25600000Y29600000D03*
%TD*%
D37*
%TO.C,U3*%
X19125100Y32200000D03*
X19125100Y32850001D03*
X19125100Y33500000D03*
X19125100Y34149999D03*
X19125100Y34800000D03*
D38*
X20200000Y35874900D03*
X20850001Y35874900D03*
X21500000Y35874900D03*
X22149999Y35874900D03*
X22800000Y35874900D03*
D37*
X23874900Y34800000D03*
X23874900Y34149999D03*
X23874900Y33500000D03*
X23874900Y32850001D03*
X23874900Y32200000D03*
D38*
X22800000Y31125100D03*
X22149999Y31125100D03*
X21500000Y31125100D03*
X20850001Y31125100D03*
X20200000Y31125100D03*
D39*
X21500000Y33500000D03*
%TD*%
D16*
%TO.C,R66*%
X50700000Y26537500D03*
X50700000Y28362500D03*
%TD*%
D19*
%TO.C,C38*%
X47137500Y23600000D03*
X48862500Y23600000D03*
%TD*%
D17*
%TO.C,C34*%
X36300000Y28087500D03*
X36300000Y29812500D03*
%TD*%
D30*
%TO.C,R40*%
X41200000Y46462500D03*
X41200000Y44637500D03*
%TD*%
D16*
%TO.C,R31*%
X31000000Y36487500D03*
X31000000Y38312500D03*
%TD*%
D34*
%TO.C,C13*%
X29600000Y31412500D03*
X29600000Y29512500D03*
%TD*%
D17*
%TO.C,C32*%
X32500000Y28087500D03*
X32500000Y29812500D03*
%TD*%
D20*
%TO.C,R32*%
X47175000Y41100000D03*
X45350000Y41100000D03*
%TD*%
D40*
%TO.C,D9*%
X48500000Y15500000D03*
X43500000Y15500000D03*
%TD*%
D30*
%TO.C,R35*%
X42100000Y33775000D03*
X42100000Y31950000D03*
%TD*%
D16*
%TO.C,R37*%
X34250000Y44037500D03*
X34250000Y45862500D03*
%TD*%
%TO.C,R36*%
X40300000Y31950000D03*
X40300000Y33775000D03*
%TD*%
%TO.C,R1*%
X52200000Y22287500D03*
X52200000Y24112500D03*
%TD*%
D19*
%TO.C,C15*%
X26537500Y36000000D03*
X28262500Y36000000D03*
%TD*%
D41*
%TO.C,D10*%
X3000000Y34900000D03*
X3000000Y29900000D03*
%TD*%
M02*
