%TF.GenerationSoftware,KiCad,Pcbnew,10.0.0*%
%TF.CreationDate,2026-06-17T14:35:22-04:00*%
%TF.ProjectId,power_db_hat,706f7765-725f-4646-925f-6861742e6b69,rev?*%
%TF.SameCoordinates,Original*%
%TF.FileFunction,Legend,Bot*%
%TF.FilePolarity,Positive*%
%FSLAX46Y46*%
G04 Gerber Fmt 4.6, Leading zero omitted, Abs format (unit mm)*
G04 Created by KiCad (PCBNEW 10.0.0) date 2026-06-17 14:35:22*
%MOMM*%
%LPD*%
G01*
G04 APERTURE LIST*
G04 Aperture macros list*
%AMRoundRect*
0 Rectangle with rounded corners*
0 $1 Rounding radius*
0 $2 $3 $4 $5 $6 $7 $8 $9 X,Y pos of 4 corners*
0 Add a 4 corners polygon primitive as box body*
4,1,4,$2,$3,$4,$5,$6,$7,$8,$9,$2,$3,0*
0 Add four circle primitives for the rounded corners*
1,1,$1+$1,$2,$3*
1,1,$1+$1,$4,$5*
1,1,$1+$1,$6,$7*
1,1,$1+$1,$8,$9*
0 Add four rect primitives between the rounded corners*
20,1,$1+$1,$2,$3,$4,$5,0*
20,1,$1+$1,$4,$5,$6,$7,0*
20,1,$1+$1,$6,$7,$8,$9,0*
20,1,$1+$1,$8,$9,$2,$3,0*%
%AMFreePoly0*
4,1,21,1.372500,0.787500,0.862500,0.787500,0.862500,0.532500,1.372500,0.532500,1.372500,0.127500,0.862500,0.127500,0.862500,-0.127500,1.372500,-0.127500,1.372500,-0.532500,0.862500,-0.532500,0.862500,-0.787500,1.372500,-0.787500,1.372500,-1.195000,0.612500,-1.195000,0.612500,-1.117500,-0.862500,-1.117500,-0.862500,1.117500,0.612500,1.117500,0.612500,1.195000,1.372500,1.195000,
1.372500,0.787500,1.372500,0.787500,$1*%
%AMFreePoly1*
4,1,6,1.000000,0.000000,0.500000,-0.750000,-0.500000,-0.750000,-0.500000,0.750000,0.500000,0.750000,1.000000,0.000000,1.000000,0.000000,$1*%
%AMFreePoly2*
4,1,6,0.500000,-0.750000,-0.650000,-0.750000,-0.150000,0.000000,-0.650000,0.750000,0.500000,0.750000,0.500000,-0.750000,0.500000,-0.750000,$1*%
G04 Aperture macros list end*
%ADD10C,0.150000*%
%ADD11C,0.120000*%
%ADD12C,0.325000*%
%ADD13C,0.152400*%
%ADD14C,0.000000*%
%ADD15R,0.405000X0.990000*%
%ADD16FreePoly0,90.000000*%
%ADD17R,0.990000X0.405000*%
%ADD18FreePoly0,0.000000*%
%ADD19R,2.000000X0.900000*%
%ADD20RoundRect,1.025000X1.025000X-1.025000X1.025000X1.025000X-1.025000X1.025000X-1.025000X-1.025000X0*%
%ADD21C,4.100000*%
%ADD22C,2.700000*%
%ADD23R,0.900000X2.000000*%
%ADD24RoundRect,1.025000X1.025000X1.025000X-1.025000X1.025000X-1.025000X-1.025000X1.025000X-1.025000X0*%
%ADD25RoundRect,0.250000X0.750000X-0.750000X0.750000X0.750000X-0.750000X0.750000X-0.750000X-0.750000X0*%
%ADD26C,2.000000*%
%ADD27R,1.730000X2.030000*%
%ADD28O,1.730000X2.030000*%
%ADD29RoundRect,0.250000X0.750000X0.750000X-0.750000X0.750000X-0.750000X-0.750000X0.750000X-0.750000X0*%
%ADD30RoundRect,0.250000X-0.750000X-0.750000X0.750000X-0.750000X0.750000X0.750000X-0.750000X0.750000X0*%
%ADD31R,1.000000X3.000000*%
%ADD32FreePoly1,270.000000*%
%ADD33FreePoly2,270.000000*%
%ADD34RoundRect,0.237500X0.237500X-0.250000X0.237500X0.250000X-0.237500X0.250000X-0.237500X-0.250000X0*%
%ADD35RoundRect,0.237500X0.237500X-0.300000X0.237500X0.300000X-0.237500X0.300000X-0.237500X-0.300000X0*%
%ADD36RoundRect,0.475000X0.475000X2.075000X-0.475000X2.075000X-0.475000X-2.075000X0.475000X-2.075000X0*%
%ADD37RoundRect,0.237500X-0.300000X-0.237500X0.300000X-0.237500X0.300000X0.237500X-0.300000X0.237500X0*%
%ADD38RoundRect,0.237500X0.250000X0.237500X-0.250000X0.237500X-0.250000X-0.237500X0.250000X-0.237500X0*%
%ADD39RoundRect,0.250000X0.250000X0.475000X-0.250000X0.475000X-0.250000X-0.475000X0.250000X-0.475000X0*%
%ADD40RoundRect,0.237500X0.300000X0.237500X-0.300000X0.237500X-0.300000X-0.237500X0.300000X-0.237500X0*%
%ADD41R,1.050000X0.350000*%
%ADD42R,0.350000X1.050000*%
%ADD43R,2.200000X2.200000*%
%ADD44RoundRect,0.062500X0.187500X0.062500X-0.187500X0.062500X-0.187500X-0.062500X0.187500X-0.062500X0*%
%ADD45R,0.900000X1.600000*%
%ADD46RoundRect,0.250000X0.475000X-0.250000X0.475000X0.250000X-0.475000X0.250000X-0.475000X-0.250000X0*%
%ADD47RoundRect,0.249999X0.450001X1.425001X-0.450001X1.425001X-0.450001X-1.425001X0.450001X-1.425001X0*%
%ADD48RoundRect,0.237500X-0.237500X0.250000X-0.237500X-0.250000X0.237500X-0.250000X0.237500X0.250000X0*%
%ADD49RoundRect,0.237500X-0.250000X-0.237500X0.250000X-0.237500X0.250000X0.237500X-0.250000X0.237500X0*%
%ADD50RoundRect,0.250000X-0.250000X-0.475000X0.250000X-0.475000X0.250000X0.475000X-0.250000X0.475000X0*%
%ADD51RoundRect,0.237500X-0.237500X0.300000X-0.237500X-0.300000X0.237500X-0.300000X0.237500X0.300000X0*%
%ADD52RoundRect,0.250000X-0.475000X0.250000X-0.475000X-0.250000X0.475000X-0.250000X0.475000X0.250000X0*%
%ADD53RoundRect,0.249999X-0.450001X-1.425001X0.450001X-1.425001X0.450001X1.425001X-0.450001X1.425001X0*%
%ADD54RoundRect,0.250001X-0.624999X0.462499X-0.624999X-0.462499X0.624999X-0.462499X0.624999X0.462499X0*%
%ADD55R,0.965200X0.304800*%
%ADD56R,0.304800X0.965200*%
%ADD57R,3.200400X3.200400*%
%ADD58FreePoly1,180.000000*%
%ADD59FreePoly2,180.000000*%
%ADD60RoundRect,0.250000X1.500000X0.650000X-1.500000X0.650000X-1.500000X-0.650000X1.500000X-0.650000X0*%
%ADD61RoundRect,0.250000X-0.650000X1.500000X-0.650000X-1.500000X0.650000X-1.500000X0.650000X1.500000X0*%
G04 APERTURE END LIST*
D10*
X20147161Y54562784D02*
X19670971Y54562784D01*
X20242399Y54277069D02*
X19909066Y55277069D01*
X19909066Y55277069D02*
X19575733Y54277069D01*
X18766209Y54277069D02*
X19242399Y54277069D01*
X19242399Y54277069D02*
X19242399Y55277069D01*
X18575732Y55277069D02*
X18004304Y55277069D01*
X18290018Y54277069D02*
X18290018Y55277069D01*
X17718589Y54562784D02*
X17242399Y54562784D01*
X17813827Y54277069D02*
X17480494Y55277069D01*
X17480494Y55277069D02*
X17147161Y54277069D01*
X16813827Y54277069D02*
X16813827Y55277069D01*
X15766209Y54277069D02*
X16099542Y54753260D01*
X16337637Y54277069D02*
X16337637Y55277069D01*
X16337637Y55277069D02*
X15956685Y55277069D01*
X15956685Y55277069D02*
X15861447Y55229450D01*
X15861447Y55229450D02*
X15813828Y55181831D01*
X15813828Y55181831D02*
X15766209Y55086593D01*
X15766209Y55086593D02*
X15766209Y54943736D01*
X15766209Y54943736D02*
X15813828Y54848498D01*
X15813828Y54848498D02*
X15861447Y54800879D01*
X15861447Y54800879D02*
X15956685Y54753260D01*
X15956685Y54753260D02*
X16337637Y54753260D01*
X14575732Y54277069D02*
X14575732Y55277069D01*
X14575732Y55277069D02*
X14194780Y55277069D01*
X14194780Y55277069D02*
X14099542Y55229450D01*
X14099542Y55229450D02*
X14051923Y55181831D01*
X14051923Y55181831D02*
X14004304Y55086593D01*
X14004304Y55086593D02*
X14004304Y54943736D01*
X14004304Y54943736D02*
X14051923Y54848498D01*
X14051923Y54848498D02*
X14099542Y54800879D01*
X14099542Y54800879D02*
X14194780Y54753260D01*
X14194780Y54753260D02*
X14575732Y54753260D01*
X13432875Y54277069D02*
X13528113Y54324688D01*
X13528113Y54324688D02*
X13575732Y54372308D01*
X13575732Y54372308D02*
X13623351Y54467546D01*
X13623351Y54467546D02*
X13623351Y54753260D01*
X13623351Y54753260D02*
X13575732Y54848498D01*
X13575732Y54848498D02*
X13528113Y54896117D01*
X13528113Y54896117D02*
X13432875Y54943736D01*
X13432875Y54943736D02*
X13290018Y54943736D01*
X13290018Y54943736D02*
X13194780Y54896117D01*
X13194780Y54896117D02*
X13147161Y54848498D01*
X13147161Y54848498D02*
X13099542Y54753260D01*
X13099542Y54753260D02*
X13099542Y54467546D01*
X13099542Y54467546D02*
X13147161Y54372308D01*
X13147161Y54372308D02*
X13194780Y54324688D01*
X13194780Y54324688D02*
X13290018Y54277069D01*
X13290018Y54277069D02*
X13432875Y54277069D01*
X12766208Y54943736D02*
X12575732Y54277069D01*
X12575732Y54277069D02*
X12385256Y54753260D01*
X12385256Y54753260D02*
X12194780Y54277069D01*
X12194780Y54277069D02*
X12004304Y54943736D01*
X11242399Y54324688D02*
X11337637Y54277069D01*
X11337637Y54277069D02*
X11528113Y54277069D01*
X11528113Y54277069D02*
X11623351Y54324688D01*
X11623351Y54324688D02*
X11670970Y54419927D01*
X11670970Y54419927D02*
X11670970Y54800879D01*
X11670970Y54800879D02*
X11623351Y54896117D01*
X11623351Y54896117D02*
X11528113Y54943736D01*
X11528113Y54943736D02*
X11337637Y54943736D01*
X11337637Y54943736D02*
X11242399Y54896117D01*
X11242399Y54896117D02*
X11194780Y54800879D01*
X11194780Y54800879D02*
X11194780Y54705641D01*
X11194780Y54705641D02*
X11670970Y54610403D01*
X10766208Y54277069D02*
X10766208Y54943736D01*
X10766208Y54753260D02*
X10718589Y54848498D01*
X10718589Y54848498D02*
X10670970Y54896117D01*
X10670970Y54896117D02*
X10575732Y54943736D01*
X10575732Y54943736D02*
X10480494Y54943736D01*
X9385255Y54277069D02*
X9385255Y55277069D01*
X9385255Y54800879D02*
X8813827Y54800879D01*
X8813827Y54277069D02*
X8813827Y55277069D01*
X8385255Y54562784D02*
X7909065Y54562784D01*
X8480493Y54277069D02*
X8147160Y55277069D01*
X8147160Y55277069D02*
X7813827Y54277069D01*
X7623350Y55277069D02*
X7051922Y55277069D01*
X7337636Y54277069D02*
X7337636Y55277069D01*
X16480494Y53190935D02*
X16337637Y53143316D01*
X16337637Y53143316D02*
X16290018Y53095697D01*
X16290018Y53095697D02*
X16242399Y53000459D01*
X16242399Y53000459D02*
X16242399Y52857602D01*
X16242399Y52857602D02*
X16290018Y52762364D01*
X16290018Y52762364D02*
X16337637Y52714744D01*
X16337637Y52714744D02*
X16432875Y52667125D01*
X16432875Y52667125D02*
X16813827Y52667125D01*
X16813827Y52667125D02*
X16813827Y53667125D01*
X16813827Y53667125D02*
X16480494Y53667125D01*
X16480494Y53667125D02*
X16385256Y53619506D01*
X16385256Y53619506D02*
X16337637Y53571887D01*
X16337637Y53571887D02*
X16290018Y53476649D01*
X16290018Y53476649D02*
X16290018Y53381411D01*
X16290018Y53381411D02*
X16337637Y53286173D01*
X16337637Y53286173D02*
X16385256Y53238554D01*
X16385256Y53238554D02*
X16480494Y53190935D01*
X16480494Y53190935D02*
X16813827Y53190935D01*
X15432875Y52714744D02*
X15528113Y52667125D01*
X15528113Y52667125D02*
X15718589Y52667125D01*
X15718589Y52667125D02*
X15813827Y52714744D01*
X15813827Y52714744D02*
X15861446Y52809983D01*
X15861446Y52809983D02*
X15861446Y53190935D01*
X15861446Y53190935D02*
X15813827Y53286173D01*
X15813827Y53286173D02*
X15718589Y53333792D01*
X15718589Y53333792D02*
X15528113Y53333792D01*
X15528113Y53333792D02*
X15432875Y53286173D01*
X15432875Y53286173D02*
X15385256Y53190935D01*
X15385256Y53190935D02*
X15385256Y53095697D01*
X15385256Y53095697D02*
X15861446Y53000459D01*
X14956684Y53333792D02*
X14956684Y52667125D01*
X14956684Y53238554D02*
X14909065Y53286173D01*
X14909065Y53286173D02*
X14813827Y53333792D01*
X14813827Y53333792D02*
X14670970Y53333792D01*
X14670970Y53333792D02*
X14575732Y53286173D01*
X14575732Y53286173D02*
X14528113Y53190935D01*
X14528113Y53190935D02*
X14528113Y52667125D01*
X13290017Y52667125D02*
X13290017Y53667125D01*
X13290017Y53667125D02*
X13051922Y53667125D01*
X13051922Y53667125D02*
X12909065Y53619506D01*
X12909065Y53619506D02*
X12813827Y53524268D01*
X12813827Y53524268D02*
X12766208Y53429030D01*
X12766208Y53429030D02*
X12718589Y53238554D01*
X12718589Y53238554D02*
X12718589Y53095697D01*
X12718589Y53095697D02*
X12766208Y52905221D01*
X12766208Y52905221D02*
X12813827Y52809983D01*
X12813827Y52809983D02*
X12909065Y52714744D01*
X12909065Y52714744D02*
X13051922Y52667125D01*
X13051922Y52667125D02*
X13290017Y52667125D01*
X12242398Y53667125D02*
X12337636Y53476649D01*
X11861446Y52952840D02*
X11385256Y52952840D01*
X11956684Y52667125D02*
X11623351Y53667125D01*
X11623351Y53667125D02*
X11290018Y52667125D01*
X10528113Y53333792D02*
X10528113Y52524268D01*
X10528113Y52524268D02*
X10575732Y52429030D01*
X10575732Y52429030D02*
X10623351Y52381411D01*
X10623351Y52381411D02*
X10718589Y52333792D01*
X10718589Y52333792D02*
X10861446Y52333792D01*
X10861446Y52333792D02*
X10956684Y52381411D01*
X10528113Y52714744D02*
X10623351Y52667125D01*
X10623351Y52667125D02*
X10813827Y52667125D01*
X10813827Y52667125D02*
X10909065Y52714744D01*
X10909065Y52714744D02*
X10956684Y52762364D01*
X10956684Y52762364D02*
X11004303Y52857602D01*
X11004303Y52857602D02*
X11004303Y53143316D01*
X11004303Y53143316D02*
X10956684Y53238554D01*
X10956684Y53238554D02*
X10909065Y53286173D01*
X10909065Y53286173D02*
X10813827Y53333792D01*
X10813827Y53333792D02*
X10623351Y53333792D01*
X10623351Y53333792D02*
X10528113Y53286173D01*
X10051922Y53333792D02*
X10051922Y52667125D01*
X10051922Y53238554D02*
X10004303Y53286173D01*
X10004303Y53286173D02*
X9909065Y53333792D01*
X9909065Y53333792D02*
X9766208Y53333792D01*
X9766208Y53333792D02*
X9670970Y53286173D01*
X9670970Y53286173D02*
X9623351Y53190935D01*
X9623351Y53190935D02*
X9623351Y52667125D01*
X9147160Y52667125D02*
X9147160Y53333792D01*
X9147160Y53667125D02*
X9194779Y53619506D01*
X9194779Y53619506D02*
X9147160Y53571887D01*
X9147160Y53571887D02*
X9099541Y53619506D01*
X9099541Y53619506D02*
X9147160Y53667125D01*
X9147160Y53667125D02*
X9147160Y53571887D01*
X8528113Y52667125D02*
X8623351Y52714744D01*
X8623351Y52714744D02*
X8670970Y52809983D01*
X8670970Y52809983D02*
X8670970Y53667125D01*
X8004303Y52667125D02*
X8099541Y52714744D01*
X8099541Y52714744D02*
X8147160Y52809983D01*
X8147160Y52809983D02*
X8147160Y53667125D01*
X7480493Y52667125D02*
X7575731Y52714744D01*
X7575731Y52714744D02*
X7623350Y52762364D01*
X7623350Y52762364D02*
X7670969Y52857602D01*
X7670969Y52857602D02*
X7670969Y53143316D01*
X7670969Y53143316D02*
X7623350Y53238554D01*
X7623350Y53238554D02*
X7575731Y53286173D01*
X7575731Y53286173D02*
X7480493Y53333792D01*
X7480493Y53333792D02*
X7337636Y53333792D01*
X7337636Y53333792D02*
X7242398Y53286173D01*
X7242398Y53286173D02*
X7194779Y53238554D01*
X7194779Y53238554D02*
X7147160Y53143316D01*
X7147160Y53143316D02*
X7147160Y52857602D01*
X7147160Y52857602D02*
X7194779Y52762364D01*
X7194779Y52762364D02*
X7242398Y52714744D01*
X7242398Y52714744D02*
X7337636Y52667125D01*
X7337636Y52667125D02*
X7480493Y52667125D01*
X21623351Y51057181D02*
X21623351Y52057181D01*
X21623351Y52057181D02*
X21290018Y51342896D01*
X21290018Y51342896D02*
X20956685Y52057181D01*
X20956685Y52057181D02*
X20956685Y51057181D01*
X20051923Y51057181D02*
X20051923Y51580991D01*
X20051923Y51580991D02*
X20099542Y51676229D01*
X20099542Y51676229D02*
X20194780Y51723848D01*
X20194780Y51723848D02*
X20385256Y51723848D01*
X20385256Y51723848D02*
X20480494Y51676229D01*
X20051923Y51104800D02*
X20147161Y51057181D01*
X20147161Y51057181D02*
X20385256Y51057181D01*
X20385256Y51057181D02*
X20480494Y51104800D01*
X20480494Y51104800D02*
X20528113Y51200039D01*
X20528113Y51200039D02*
X20528113Y51295277D01*
X20528113Y51295277D02*
X20480494Y51390515D01*
X20480494Y51390515D02*
X20385256Y51438134D01*
X20385256Y51438134D02*
X20147161Y51438134D01*
X20147161Y51438134D02*
X20051923Y51485753D01*
X19575732Y51057181D02*
X19575732Y51723848D01*
X19575732Y51533372D02*
X19528113Y51628610D01*
X19528113Y51628610D02*
X19480494Y51676229D01*
X19480494Y51676229D02*
X19385256Y51723848D01*
X19385256Y51723848D02*
X19290018Y51723848D01*
X18528113Y51104800D02*
X18623351Y51057181D01*
X18623351Y51057181D02*
X18813827Y51057181D01*
X18813827Y51057181D02*
X18909065Y51104800D01*
X18909065Y51104800D02*
X18956684Y51152420D01*
X18956684Y51152420D02*
X19004303Y51247658D01*
X19004303Y51247658D02*
X19004303Y51533372D01*
X19004303Y51533372D02*
X18956684Y51628610D01*
X18956684Y51628610D02*
X18909065Y51676229D01*
X18909065Y51676229D02*
X18813827Y51723848D01*
X18813827Y51723848D02*
X18623351Y51723848D01*
X18623351Y51723848D02*
X18528113Y51676229D01*
X18099541Y51057181D02*
X18099541Y52057181D01*
X17670970Y51057181D02*
X17670970Y51580991D01*
X17670970Y51580991D02*
X17718589Y51676229D01*
X17718589Y51676229D02*
X17813827Y51723848D01*
X17813827Y51723848D02*
X17956684Y51723848D01*
X17956684Y51723848D02*
X18051922Y51676229D01*
X18051922Y51676229D02*
X18099541Y51628610D01*
X16480493Y51961943D02*
X16432874Y52009562D01*
X16432874Y52009562D02*
X16337636Y52057181D01*
X16337636Y52057181D02*
X16099541Y52057181D01*
X16099541Y52057181D02*
X16004303Y52009562D01*
X16004303Y52009562D02*
X15956684Y51961943D01*
X15956684Y51961943D02*
X15909065Y51866705D01*
X15909065Y51866705D02*
X15909065Y51771467D01*
X15909065Y51771467D02*
X15956684Y51628610D01*
X15956684Y51628610D02*
X16528112Y51057181D01*
X16528112Y51057181D02*
X15909065Y51057181D01*
X15290017Y52057181D02*
X15194779Y52057181D01*
X15194779Y52057181D02*
X15099541Y52009562D01*
X15099541Y52009562D02*
X15051922Y51961943D01*
X15051922Y51961943D02*
X15004303Y51866705D01*
X15004303Y51866705D02*
X14956684Y51676229D01*
X14956684Y51676229D02*
X14956684Y51438134D01*
X14956684Y51438134D02*
X15004303Y51247658D01*
X15004303Y51247658D02*
X15051922Y51152420D01*
X15051922Y51152420D02*
X15099541Y51104800D01*
X15099541Y51104800D02*
X15194779Y51057181D01*
X15194779Y51057181D02*
X15290017Y51057181D01*
X15290017Y51057181D02*
X15385255Y51104800D01*
X15385255Y51104800D02*
X15432874Y51152420D01*
X15432874Y51152420D02*
X15480493Y51247658D01*
X15480493Y51247658D02*
X15528112Y51438134D01*
X15528112Y51438134D02*
X15528112Y51676229D01*
X15528112Y51676229D02*
X15480493Y51866705D01*
X15480493Y51866705D02*
X15432874Y51961943D01*
X15432874Y51961943D02*
X15385255Y52009562D01*
X15385255Y52009562D02*
X15290017Y52057181D01*
X14575731Y51961943D02*
X14528112Y52009562D01*
X14528112Y52009562D02*
X14432874Y52057181D01*
X14432874Y52057181D02*
X14194779Y52057181D01*
X14194779Y52057181D02*
X14099541Y52009562D01*
X14099541Y52009562D02*
X14051922Y51961943D01*
X14051922Y51961943D02*
X14004303Y51866705D01*
X14004303Y51866705D02*
X14004303Y51771467D01*
X14004303Y51771467D02*
X14051922Y51628610D01*
X14051922Y51628610D02*
X14623350Y51057181D01*
X14623350Y51057181D02*
X14004303Y51057181D01*
X13147160Y52057181D02*
X13337636Y52057181D01*
X13337636Y52057181D02*
X13432874Y52009562D01*
X13432874Y52009562D02*
X13480493Y51961943D01*
X13480493Y51961943D02*
X13575731Y51819086D01*
X13575731Y51819086D02*
X13623350Y51628610D01*
X13623350Y51628610D02*
X13623350Y51247658D01*
X13623350Y51247658D02*
X13575731Y51152420D01*
X13575731Y51152420D02*
X13528112Y51104800D01*
X13528112Y51104800D02*
X13432874Y51057181D01*
X13432874Y51057181D02*
X13242398Y51057181D01*
X13242398Y51057181D02*
X13147160Y51104800D01*
X13147160Y51104800D02*
X13099541Y51152420D01*
X13099541Y51152420D02*
X13051922Y51247658D01*
X13051922Y51247658D02*
X13051922Y51485753D01*
X13051922Y51485753D02*
X13099541Y51580991D01*
X13099541Y51580991D02*
X13147160Y51628610D01*
X13147160Y51628610D02*
X13242398Y51676229D01*
X13242398Y51676229D02*
X13432874Y51676229D01*
X13432874Y51676229D02*
X13528112Y51628610D01*
X13528112Y51628610D02*
X13575731Y51580991D01*
X13575731Y51580991D02*
X13623350Y51485753D01*
X11861445Y51438134D02*
X11099541Y51438134D01*
X9956683Y51723848D02*
X9718588Y51057181D01*
X9718588Y51057181D02*
X9480493Y51723848D01*
X8575731Y51057181D02*
X9147159Y51057181D01*
X8861445Y51057181D02*
X8861445Y52057181D01*
X8861445Y52057181D02*
X8956683Y51914324D01*
X8956683Y51914324D02*
X9051921Y51819086D01*
X9051921Y51819086D02*
X9147159Y51771467D01*
X8147159Y51152420D02*
X8099540Y51104800D01*
X8099540Y51104800D02*
X8147159Y51057181D01*
X8147159Y51057181D02*
X8194778Y51104800D01*
X8194778Y51104800D02*
X8147159Y51152420D01*
X8147159Y51152420D02*
X8147159Y51057181D01*
X7147160Y51057181D02*
X7718588Y51057181D01*
X7432874Y51057181D02*
X7432874Y52057181D01*
X7432874Y52057181D02*
X7528112Y51914324D01*
X7528112Y51914324D02*
X7623350Y51819086D01*
X7623350Y51819086D02*
X7718588Y51771467D01*
X37307499Y26270181D02*
X37307499Y26032086D01*
X37545594Y26127324D02*
X37307499Y26032086D01*
X37307499Y26032086D02*
X37069404Y26127324D01*
X37450356Y25841610D02*
X37307499Y26032086D01*
X37307499Y26032086D02*
X37164642Y25841610D01*
X37307500Y25179820D02*
X37307500Y25417915D01*
X37069405Y25322677D02*
X37307500Y25417915D01*
X37307500Y25417915D02*
X37545595Y25322677D01*
X37164643Y25608391D02*
X37307500Y25417915D01*
X37307500Y25417915D02*
X37450357Y25608391D01*
X18007499Y32420181D02*
X18007499Y32182086D01*
X18245594Y32277324D02*
X18007499Y32182086D01*
X18007499Y32182086D02*
X17769404Y32277324D01*
X18150356Y31991610D02*
X18007499Y32182086D01*
X18007499Y32182086D02*
X17864642Y31991610D01*
X18007500Y31329820D02*
X18007500Y31567915D01*
X17769405Y31472677D02*
X18007500Y31567915D01*
X18007500Y31567915D02*
X18245595Y31472677D01*
X17864643Y31758391D02*
X18007500Y31567915D01*
X18007500Y31567915D02*
X18150357Y31758391D01*
%TO.C,Q7*%
D11*
X42453000Y19320000D02*
X42268000Y19320000D01*
X42453000Y19320000D02*
X42453000Y22590000D01*
X39368000Y19320000D02*
X39183000Y19320000D01*
X39183000Y19320000D02*
X39183000Y22590000D01*
X42453000Y22590000D02*
X42268000Y22590000D01*
X39368000Y22590000D02*
X39183000Y22590000D01*
X42278000Y18600000D02*
X42278000Y19000000D01*
X42678000Y19000000D01*
X42278000Y18600000D01*
G36*
X42278000Y18600000D02*
G01*
X42278000Y19000000D01*
X42678000Y19000000D01*
X42278000Y18600000D01*
G37*
%TO.C,Q5*%
X18889500Y23765000D02*
X18889500Y23950000D01*
X18889500Y23765000D02*
X22159500Y23765000D01*
X18889500Y26850000D02*
X18889500Y27035000D01*
X18889500Y27035000D02*
X22159500Y27035000D01*
X22159500Y23765000D02*
X22159500Y23950000D01*
X22159500Y26850000D02*
X22159500Y27035000D01*
X18569500Y23540000D02*
X18169500Y23940000D01*
X18569500Y23940000D01*
X18569500Y23540000D01*
G36*
X18569500Y23540000D02*
G01*
X18169500Y23940000D01*
X18569500Y23940000D01*
X18569500Y23540000D01*
G37*
%TO.C,JP3*%
X52800000Y30114000D02*
X52800000Y27314000D01*
X52800000Y27314000D02*
X54800000Y27314000D01*
X54800000Y30114000D02*
X52800000Y30114000D01*
X54800000Y27314000D02*
X54800000Y30114000D01*
%TO.C,R23*%
X19827500Y38582776D02*
X19827500Y39092224D01*
X20872500Y38582776D02*
X20872500Y39092224D01*
%TO.C,C14*%
X16990000Y34966233D02*
X16990000Y35258767D01*
X18010000Y34966233D02*
X18010000Y35258767D01*
%TO.C,L2*%
X31900000Y22850000D02*
X31900000Y22450000D01*
X31900000Y16650000D02*
X31900000Y17050000D01*
X38100000Y22850000D02*
X31900000Y22850000D01*
X38100000Y22850000D02*
X38100000Y22450000D01*
X38100000Y16650000D02*
X31900000Y16650000D01*
X38100000Y16650000D02*
X38100000Y17050000D01*
%TO.C,C1*%
X8353733Y25810000D02*
X8646267Y25810000D01*
X8353733Y24790000D02*
X8646267Y24790000D01*
%TO.C,C6*%
X13240000Y33216233D02*
X13240000Y33508767D01*
X14260000Y33216233D02*
X14260000Y33508767D01*
%TO.C,R2*%
X52854724Y14322500D02*
X52345276Y14322500D01*
X52854724Y13277500D02*
X52345276Y13277500D01*
%TO.C,R41*%
X42254724Y37522500D02*
X41745276Y37522500D01*
X42254724Y36477500D02*
X41745276Y36477500D01*
%TO.C,C19*%
X57061252Y25135000D02*
X56538748Y25135000D01*
X57061252Y23665000D02*
X56538748Y23665000D01*
%TO.C,C3*%
X35246267Y42810000D02*
X34953733Y42810000D01*
X35246267Y41790000D02*
X34953733Y41790000D01*
%TO.C,U1*%
D12*
X37550500Y38775000D02*
G75*
G02*
X37225500Y38775000I-162500J0D01*
G01*
X37225500Y38775000D02*
G75*
G02*
X37550500Y38775000I162500J0D01*
G01*
%TO.C,C29*%
D11*
X26890000Y38791233D02*
X26890000Y39083767D01*
X27910000Y38791233D02*
X27910000Y39083767D01*
%TO.C,C35*%
X45603733Y31010000D02*
X45896267Y31010000D01*
X45603733Y29990000D02*
X45896267Y29990000D01*
%TO.C,U9*%
X57600000Y12660000D02*
X55600000Y12660000D01*
X57610000Y14940000D02*
X55610000Y14940000D01*
X58250000Y14870000D02*
X57970000Y14870000D01*
X57970000Y15150000D01*
X58250000Y14870000D01*
G36*
X58250000Y14870000D02*
G01*
X57970000Y14870000D01*
X57970000Y15150000D01*
X58250000Y14870000D01*
G37*
%TO.C,C39*%
X20065000Y19138748D02*
X20065000Y19661252D01*
X21535000Y19138748D02*
X21535000Y19661252D01*
%TO.C,R8*%
X11927064Y23410000D02*
X7572936Y23410000D01*
X11927064Y19990000D02*
X7572936Y19990000D01*
%TO.C,R22*%
X22077500Y39092224D02*
X22077500Y38582776D01*
X23122500Y39092224D02*
X23122500Y38582776D01*
%TO.C,R42*%
X45495276Y32772500D02*
X46004724Y32772500D01*
X45495276Y31727500D02*
X46004724Y31727500D01*
%TO.C,C42*%
X47738748Y22335000D02*
X48261252Y22335000D01*
X47738748Y20865000D02*
X48261252Y20865000D01*
%TO.C,C5*%
X56946267Y26710000D02*
X56653733Y26710000D01*
X56946267Y25690000D02*
X56653733Y25690000D01*
%TO.C,C16*%
X23240000Y28146267D02*
X23240000Y27853733D01*
X24260000Y28146267D02*
X24260000Y27853733D01*
%TO.C,C20*%
X52746267Y16110000D02*
X52453733Y16110000D01*
X52746267Y15090000D02*
X52453733Y15090000D01*
%TO.C,C46*%
X54515000Y52238748D02*
X54515000Y52761252D01*
X55985000Y52238748D02*
X55985000Y52761252D01*
%TO.C,C33*%
X31765000Y25611252D02*
X31765000Y25088748D01*
X33235000Y25611252D02*
X33235000Y25088748D01*
%TO.C,R33*%
X24572936Y20460000D02*
X28927064Y20460000D01*
X24572936Y17040000D02*
X28927064Y17040000D01*
%TO.C,C36*%
X45453733Y28910000D02*
X45746267Y28910000D01*
X45453733Y27890000D02*
X45746267Y27890000D01*
%TO.C,C40*%
X47853733Y25910000D02*
X48146267Y25910000D01*
X47853733Y24890000D02*
X48146267Y24890000D01*
%TO.C,C31*%
X33990000Y28803733D02*
X33990000Y29096267D01*
X35010000Y28803733D02*
X35010000Y29096267D01*
%TO.C,F1*%
X20340000Y10852064D02*
X20340000Y9647936D01*
X22160000Y10852064D02*
X22160000Y9647936D01*
%TO.C,C7*%
X15240000Y33216233D02*
X15240000Y33508767D01*
X16260000Y33216233D02*
X16260000Y33508767D01*
%TO.C,R65*%
X29854724Y34722500D02*
X29345276Y34722500D01*
X29854724Y33677500D02*
X29345276Y33677500D01*
%TO.C,R43*%
X35445276Y24872500D02*
X35954724Y24872500D01*
X35445276Y23827500D02*
X35954724Y23827500D01*
%TO.C,U8*%
X56712500Y20810000D02*
X54712500Y20810000D01*
X56722500Y23090000D02*
X54722500Y23090000D01*
X57362500Y23020000D02*
X57082500Y23020000D01*
X57082500Y23300000D01*
X57362500Y23020000D01*
G36*
X57362500Y23020000D02*
G01*
X57082500Y23020000D01*
X57082500Y23300000D01*
X57362500Y23020000D01*
G37*
%TO.C,C8*%
X11015000Y33126248D02*
X11015000Y33648752D01*
X12485000Y33126248D02*
X12485000Y33648752D01*
%TO.C,C41*%
X18090000Y19253733D02*
X18090000Y19546267D01*
X19110000Y19253733D02*
X19110000Y19546267D01*
%TO.C,C25*%
X56746267Y16510000D02*
X56453733Y16510000D01*
X56746267Y15490000D02*
X56453733Y15490000D01*
%TO.C,C45*%
X56690000Y52696267D02*
X56690000Y52403733D01*
X57710000Y52696267D02*
X57710000Y52403733D01*
%TO.C,C26*%
X56861252Y18535000D02*
X56338748Y18535000D01*
X56861252Y17065000D02*
X56338748Y17065000D01*
%TO.C,R20*%
X17995276Y29272500D02*
X18504724Y29272500D01*
X17995276Y28227500D02*
X18504724Y28227500D01*
%TO.C,C11*%
X27090000Y30608767D02*
X27090000Y30316233D01*
X28110000Y30608767D02*
X28110000Y30316233D01*
%TO.C,C37*%
X43390000Y22658767D02*
X43390000Y22366233D01*
X44410000Y22658767D02*
X44410000Y22366233D01*
%TO.C,R44*%
X48327500Y29045276D02*
X48327500Y29554724D01*
X49372500Y29045276D02*
X49372500Y29554724D01*
%TO.C,JP2*%
X55400000Y30139000D02*
X55400000Y27339000D01*
X55400000Y27339000D02*
X57400000Y27339000D01*
X57400000Y30139000D02*
X55400000Y30139000D01*
X57400000Y27339000D02*
X57400000Y30139000D01*
%TO.C,C43*%
X15665000Y19138748D02*
X15665000Y19661252D01*
X17135000Y19138748D02*
X17135000Y19661252D01*
%TO.C,R19*%
X24677500Y38657776D02*
X24677500Y39167224D01*
X25722500Y38657776D02*
X25722500Y39167224D01*
%TO.C,R39*%
X42927500Y43304724D02*
X42927500Y42795276D01*
X43972500Y43304724D02*
X43972500Y42795276D01*
%TO.C,C10*%
X53490000Y25253733D02*
X53490000Y25546267D01*
X54510000Y25253733D02*
X54510000Y25546267D01*
%TO.C,U5*%
D13*
X38120300Y30029700D02*
X39014860Y30029700D01*
X38120300Y29135140D02*
X38120300Y30029700D01*
X38120300Y24670300D02*
X38120300Y25564860D01*
X39014860Y24670300D02*
X38120300Y24670300D01*
X42585140Y30029700D02*
X43479700Y30029700D01*
X43479700Y30029700D02*
X43479700Y29135140D01*
X43479700Y25564860D02*
X43479700Y24670300D01*
X43479700Y24670300D02*
X42585140Y24670300D01*
D14*
G36*
X39690500Y23984500D02*
G01*
X39309500Y23984500D01*
X39309500Y24238500D01*
X39690500Y24238500D01*
X39690500Y23984500D01*
G37*
G36*
X42290500Y30461500D02*
G01*
X41909500Y30461500D01*
X41909500Y30715500D01*
X42290500Y30715500D01*
X42290500Y30461500D01*
G37*
%TO.C,JP5*%
D11*
X30050000Y46750000D02*
X30050000Y44750000D01*
X30050000Y44750000D02*
X32850000Y44750000D01*
X32850000Y46750000D02*
X30050000Y46750000D01*
X32850000Y44750000D02*
X32850000Y46750000D01*
%TO.C,C9*%
X25090000Y30608767D02*
X25090000Y30316233D01*
X26110000Y30608767D02*
X26110000Y30316233D01*
%TO.C,U3*%
D13*
X18820300Y36179700D02*
X19714860Y36179700D01*
X18820300Y35285140D02*
X18820300Y36179700D01*
X18820300Y30820300D02*
X18820300Y31714860D01*
X19714860Y30820300D02*
X18820300Y30820300D01*
X23285140Y36179700D02*
X24179700Y36179700D01*
X24179700Y36179700D02*
X24179700Y35285140D01*
X24179700Y31714860D02*
X24179700Y30820300D01*
X24179700Y30820300D02*
X23285140Y30820300D01*
D14*
G36*
X20390500Y30134500D02*
G01*
X20009500Y30134500D01*
X20009500Y30388500D01*
X20390500Y30388500D01*
X20390500Y30134500D01*
G37*
G36*
X22990500Y36611500D02*
G01*
X22609500Y36611500D01*
X22609500Y36865500D01*
X22990500Y36865500D01*
X22990500Y36611500D01*
G37*
%TO.C,R66*%
D11*
X50177500Y27195276D02*
X50177500Y27704724D01*
X51222500Y27195276D02*
X51222500Y27704724D01*
%TO.C,C38*%
X47853733Y24110000D02*
X48146267Y24110000D01*
X47853733Y23090000D02*
X48146267Y23090000D01*
%TO.C,C34*%
X35790000Y28803733D02*
X35790000Y29096267D01*
X36810000Y28803733D02*
X36810000Y29096267D01*
%TO.C,R40*%
X40677500Y45804724D02*
X40677500Y45295276D01*
X41722500Y45804724D02*
X41722500Y45295276D01*
%TO.C,R31*%
X30477500Y37145276D02*
X30477500Y37654724D01*
X31522500Y37145276D02*
X31522500Y37654724D01*
%TO.C,C13*%
X28865000Y30723752D02*
X28865000Y30201248D01*
X30335000Y30723752D02*
X30335000Y30201248D01*
%TO.C,C32*%
X31990000Y28803733D02*
X31990000Y29096267D01*
X33010000Y28803733D02*
X33010000Y29096267D01*
%TO.C,R32*%
X46517224Y41622500D02*
X46007776Y41622500D01*
X46517224Y40577500D02*
X46007776Y40577500D01*
%TO.C,D9*%
X50510000Y17150000D02*
X43500000Y17150000D01*
X50510000Y17150000D02*
X50510000Y13850000D01*
X50510000Y13850000D02*
X43500000Y13850000D01*
%TO.C,R35*%
X41577500Y33117224D02*
X41577500Y32607776D01*
X42622500Y33117224D02*
X42622500Y32607776D01*
%TO.C,R37*%
X33727500Y44695276D02*
X33727500Y45204724D01*
X34772500Y44695276D02*
X34772500Y45204724D01*
%TO.C,R36*%
X39777500Y32607776D02*
X39777500Y33117224D01*
X40822500Y32607776D02*
X40822500Y33117224D01*
%TO.C,R1*%
X51677500Y22945276D02*
X51677500Y23454724D01*
X52722500Y22945276D02*
X52722500Y23454724D01*
%TO.C,C15*%
X27253733Y36510000D02*
X27546267Y36510000D01*
X27253733Y35490000D02*
X27546267Y35490000D01*
%TO.C,D10*%
X1350000Y36910000D02*
X1350000Y29900000D01*
X1350000Y36910000D02*
X4650000Y36910000D01*
X4650000Y36910000D02*
X4650000Y29900000D01*
%TD*%
%LPC*%
%TO.C,JP3*%
G36*
X53050000Y29939000D02*
G01*
X54550000Y29939000D01*
X54550000Y27489000D01*
X53050000Y27489000D01*
X53050000Y29939000D01*
G37*
%TO.C,JP2*%
G36*
X55650000Y29964000D02*
G01*
X57150000Y29964000D01*
X57150000Y27514000D01*
X55650000Y27514000D01*
X55650000Y29964000D01*
G37*
%TO.C,JP5*%
G36*
X30225000Y46500000D02*
G01*
X32675000Y46500000D01*
X32675000Y45000000D01*
X30225000Y45000000D01*
X30225000Y46500000D01*
G37*
%TD*%
D15*
%TO.C,Q7*%
X41808000Y19520000D03*
X41148000Y19520000D03*
X40488000Y19520000D03*
X39828000Y19520000D03*
D16*
X40818000Y21512500D03*
%TD*%
D17*
%TO.C,Q5*%
X19089500Y24410000D03*
X19089500Y25070000D03*
X19089500Y25730000D03*
X19089500Y26390000D03*
D18*
X21082000Y25400000D03*
%TD*%
D19*
%TO.C,J5*%
X2400000Y25700000D03*
X2400000Y39200000D03*
D20*
X8400000Y36050000D03*
D21*
X8400000Y28850000D03*
%TD*%
D22*
%TO.C,MH2*%
X61500000Y52500000D03*
%TD*%
D23*
%TO.C,J2*%
X37500000Y4000000D03*
X24000000Y4000000D03*
D24*
X34350000Y10000000D03*
D21*
X27150000Y10000000D03*
%TD*%
D23*
%TO.C,J8*%
X55000000Y4000000D03*
X41500000Y4000000D03*
D24*
X51850000Y10000000D03*
D21*
X44650000Y10000000D03*
%TD*%
D22*
%TO.C,MH3*%
X3500000Y3500000D03*
%TD*%
D25*
%TO.C,J7*%
X60500000Y9210000D03*
D26*
X60500000Y11750000D03*
%TD*%
D22*
%TO.C,MH1*%
X3500000Y52500000D03*
%TD*%
D27*
%TO.C,J11*%
X28300000Y52000000D03*
D28*
X25760000Y52000000D03*
X23220000Y52000000D03*
%TD*%
D29*
%TO.C,J15*%
X44275000Y52000000D03*
D26*
X41735000Y52000000D03*
%TD*%
D22*
%TO.C,MH4*%
X61500000Y3500000D03*
%TD*%
D29*
%TO.C,J4*%
X51275000Y52017500D03*
D26*
X48735000Y52017500D03*
%TD*%
D25*
%TO.C,J3*%
X60500000Y16250000D03*
D26*
X60500000Y18790000D03*
%TD*%
D27*
%TO.C,J12*%
X37540000Y52000000D03*
D28*
X35000000Y52000000D03*
X32460000Y52000000D03*
%TD*%
D30*
%TO.C,J16*%
X16960000Y4500000D03*
D26*
X19500000Y4500000D03*
%TD*%
D22*
%TO.C,U7*%
X3520000Y52620000D03*
X3520000Y3620000D03*
X61520000Y52620000D03*
X61520000Y3620000D03*
D31*
X2440000Y14460000D03*
X2420000Y48000000D03*
X49840000Y48000000D03*
X2440000Y9420000D03*
X2420000Y42960000D03*
X49840000Y42960000D03*
X4980000Y14460000D03*
X4960000Y48000000D03*
X52380000Y48000000D03*
X4980000Y9420000D03*
X4960000Y42960000D03*
X52380000Y42960000D03*
X7520000Y14460000D03*
X7500000Y48000000D03*
X54920000Y48000000D03*
X7520000Y9420000D03*
X7500000Y42960000D03*
X54920000Y42960000D03*
X10060000Y14460000D03*
X10040000Y48000000D03*
X57460000Y48000000D03*
X10060000Y9420000D03*
X10040000Y42960000D03*
X57460000Y42960000D03*
X12600000Y14460000D03*
X12580000Y48000000D03*
X60000000Y48000000D03*
X12600000Y9420000D03*
X12580000Y42960000D03*
X60000000Y42960000D03*
X15140000Y14460000D03*
X15120000Y48000000D03*
X62540000Y48000000D03*
X15140000Y9420000D03*
X15120000Y42960000D03*
X62540000Y42960000D03*
%TD*%
D32*
%TO.C,JP3*%
X53800000Y29439000D03*
D33*
X53800000Y27989000D03*
%TD*%
D34*
%TO.C,R23*%
X20350000Y37925000D03*
X20350000Y39750000D03*
%TD*%
D35*
%TO.C,C14*%
X17500000Y34250000D03*
X17500000Y35975000D03*
%TD*%
D36*
%TO.C,L2*%
X37100000Y19750000D03*
X32900000Y19750000D03*
%TD*%
D37*
%TO.C,C1*%
X7637500Y25300000D03*
X9362500Y25300000D03*
%TD*%
D35*
%TO.C,C6*%
X13750000Y32500000D03*
X13750000Y34225000D03*
%TD*%
D38*
%TO.C,R2*%
X53512500Y13800000D03*
X51687500Y13800000D03*
%TD*%
%TO.C,R41*%
X42912500Y37000000D03*
X41087500Y37000000D03*
%TD*%
D39*
%TO.C,C19*%
X57750000Y24400000D03*
X55850000Y24400000D03*
%TD*%
D40*
%TO.C,C3*%
X35962500Y42300000D03*
X34237500Y42300000D03*
%TD*%
D41*
%TO.C,U1*%
X37912500Y39750000D03*
X37912500Y40400000D03*
X37912500Y41050000D03*
X37912500Y41700000D03*
D42*
X38787500Y42575000D03*
X39437500Y42575000D03*
X40087500Y42575000D03*
X40737500Y42575000D03*
D41*
X41612500Y41700000D03*
X41612500Y41050000D03*
X41612500Y40400000D03*
X41612500Y39750000D03*
D42*
X40737500Y38875000D03*
X40087500Y38875000D03*
X39437500Y38875000D03*
X38787500Y38875000D03*
D43*
X39762500Y40725000D03*
%TD*%
D35*
%TO.C,C29*%
X27400000Y38075000D03*
X27400000Y39800000D03*
%TD*%
D37*
%TO.C,C35*%
X44887500Y30500000D03*
X46612500Y30500000D03*
%TD*%
D44*
%TO.C,U9*%
X57550000Y14550000D03*
X57550000Y14050000D03*
X57550000Y13550000D03*
X57550000Y13050000D03*
X55650000Y13050000D03*
X55650000Y13550000D03*
X55650000Y14050000D03*
X55650000Y14550000D03*
D45*
X56600000Y13800000D03*
%TD*%
D46*
%TO.C,C39*%
X20800000Y18450000D03*
X20800000Y20350000D03*
%TD*%
D47*
%TO.C,R8*%
X12800000Y21700000D03*
X6700000Y21700000D03*
%TD*%
D48*
%TO.C,R22*%
X22600000Y39750000D03*
X22600000Y37925000D03*
%TD*%
D49*
%TO.C,R42*%
X44837500Y32250000D03*
X46662500Y32250000D03*
%TD*%
D50*
%TO.C,C42*%
X47050000Y21600000D03*
X48950000Y21600000D03*
%TD*%
D40*
%TO.C,C5*%
X57662500Y26200000D03*
X55937500Y26200000D03*
%TD*%
D51*
%TO.C,C16*%
X23750000Y28862500D03*
X23750000Y27137500D03*
%TD*%
D40*
%TO.C,C20*%
X53462500Y15600000D03*
X51737500Y15600000D03*
%TD*%
D46*
%TO.C,C46*%
X55250000Y51550000D03*
X55250000Y53450000D03*
%TD*%
D52*
%TO.C,C33*%
X32500000Y26300000D03*
X32500000Y24400000D03*
%TD*%
D53*
%TO.C,R33*%
X23700000Y18750000D03*
X29800000Y18750000D03*
%TD*%
D37*
%TO.C,C36*%
X44737500Y28400000D03*
X46462500Y28400000D03*
%TD*%
%TO.C,C40*%
X47137500Y25400000D03*
X48862500Y25400000D03*
%TD*%
D35*
%TO.C,C31*%
X34500000Y28087500D03*
X34500000Y29812500D03*
%TD*%
D54*
%TO.C,F1*%
X21250000Y11737500D03*
X21250000Y8762500D03*
%TD*%
D35*
%TO.C,C7*%
X15750000Y32500000D03*
X15750000Y34225000D03*
%TD*%
D38*
%TO.C,R65*%
X30512500Y34200000D03*
X28687500Y34200000D03*
%TD*%
D49*
%TO.C,R43*%
X34787500Y24350000D03*
X36612500Y24350000D03*
%TD*%
D44*
%TO.C,U8*%
X56662500Y22700000D03*
X56662500Y22200000D03*
X56662500Y21700000D03*
X56662500Y21200000D03*
X54762500Y21200000D03*
X54762500Y21700000D03*
X54762500Y22200000D03*
X54762500Y22700000D03*
D45*
X55712500Y21950000D03*
%TD*%
D46*
%TO.C,C8*%
X11750000Y32437500D03*
X11750000Y34337500D03*
%TD*%
D35*
%TO.C,C41*%
X18600000Y18537500D03*
X18600000Y20262500D03*
%TD*%
D40*
%TO.C,C25*%
X57462500Y16000000D03*
X55737500Y16000000D03*
%TD*%
D51*
%TO.C,C45*%
X57200000Y53412500D03*
X57200000Y51687500D03*
%TD*%
D39*
%TO.C,C26*%
X57550000Y17800000D03*
X55650000Y17800000D03*
%TD*%
D49*
%TO.C,R20*%
X17337500Y28750000D03*
X19162500Y28750000D03*
%TD*%
D51*
%TO.C,C11*%
X27600000Y31325000D03*
X27600000Y29600000D03*
%TD*%
%TO.C,C37*%
X43900000Y23375000D03*
X43900000Y21650000D03*
%TD*%
D34*
%TO.C,R44*%
X48850000Y28387500D03*
X48850000Y30212500D03*
%TD*%
D32*
%TO.C,JP2*%
X56400000Y29464000D03*
D33*
X56400000Y28014000D03*
%TD*%
D46*
%TO.C,C43*%
X16400000Y18450000D03*
X16400000Y20350000D03*
%TD*%
D34*
%TO.C,R19*%
X25200000Y38000000D03*
X25200000Y39825000D03*
%TD*%
D48*
%TO.C,R39*%
X43450000Y43962500D03*
X43450000Y42137500D03*
%TD*%
D35*
%TO.C,C10*%
X54000000Y24537500D03*
X54000000Y26262500D03*
%TD*%
D55*
%TO.C,U5*%
X38425100Y26050000D03*
X38425100Y26700001D03*
X38425100Y27350000D03*
X38425100Y27999999D03*
X38425100Y28650000D03*
D56*
X39500000Y29724900D03*
X40150001Y29724900D03*
X40800000Y29724900D03*
X41449999Y29724900D03*
X42100000Y29724900D03*
D55*
X43174900Y28650000D03*
X43174900Y27999999D03*
X43174900Y27350000D03*
X43174900Y26700001D03*
X43174900Y26050000D03*
D56*
X42100000Y24975100D03*
X41449999Y24975100D03*
X40800000Y24975100D03*
X40150001Y24975100D03*
X39500000Y24975100D03*
D57*
X40800000Y27350000D03*
%TD*%
D58*
%TO.C,JP5*%
X32175000Y45750000D03*
D59*
X30725000Y45750000D03*
%TD*%
D51*
%TO.C,C9*%
X25600000Y31325000D03*
X25600000Y29600000D03*
%TD*%
D55*
%TO.C,U3*%
X19125100Y32200000D03*
X19125100Y32850001D03*
X19125100Y33500000D03*
X19125100Y34149999D03*
X19125100Y34800000D03*
D56*
X20200000Y35874900D03*
X20850001Y35874900D03*
X21500000Y35874900D03*
X22149999Y35874900D03*
X22800000Y35874900D03*
D55*
X23874900Y34800000D03*
X23874900Y34149999D03*
X23874900Y33500000D03*
X23874900Y32850001D03*
X23874900Y32200000D03*
D56*
X22800000Y31125100D03*
X22149999Y31125100D03*
X21500000Y31125100D03*
X20850001Y31125100D03*
X20200000Y31125100D03*
D57*
X21500000Y33500000D03*
%TD*%
D34*
%TO.C,R66*%
X50700000Y26537500D03*
X50700000Y28362500D03*
%TD*%
D37*
%TO.C,C38*%
X47137500Y23600000D03*
X48862500Y23600000D03*
%TD*%
D35*
%TO.C,C34*%
X36300000Y28087500D03*
X36300000Y29812500D03*
%TD*%
D48*
%TO.C,R40*%
X41200000Y46462500D03*
X41200000Y44637500D03*
%TD*%
D34*
%TO.C,R31*%
X31000000Y36487500D03*
X31000000Y38312500D03*
%TD*%
D52*
%TO.C,C13*%
X29600000Y31412500D03*
X29600000Y29512500D03*
%TD*%
D35*
%TO.C,C32*%
X32500000Y28087500D03*
X32500000Y29812500D03*
%TD*%
D38*
%TO.C,R32*%
X47175000Y41100000D03*
X45350000Y41100000D03*
%TD*%
D60*
%TO.C,D9*%
X48500000Y15500000D03*
X43500000Y15500000D03*
%TD*%
D48*
%TO.C,R35*%
X42100000Y33775000D03*
X42100000Y31950000D03*
%TD*%
D34*
%TO.C,R37*%
X34250000Y44037500D03*
X34250000Y45862500D03*
%TD*%
%TO.C,R36*%
X40300000Y31950000D03*
X40300000Y33775000D03*
%TD*%
%TO.C,R1*%
X52200000Y22287500D03*
X52200000Y24112500D03*
%TD*%
D37*
%TO.C,C15*%
X26537500Y36000000D03*
X28262500Y36000000D03*
%TD*%
D61*
%TO.C,D10*%
X3000000Y34900000D03*
X3000000Y29900000D03*
%TD*%
%LPD*%
M02*
