%TF.GenerationSoftware,KiCad,Pcbnew,10.0.0*%
%TF.CreationDate,2026-06-17T14:35:22-04:00*%
%TF.ProjectId,power_db_hat,706f7765-725f-4646-925f-6861742e6b69,rev?*%
%TF.SameCoordinates,Original*%
%TF.FileFunction,Copper,L3,Inr*%
%TF.FilePolarity,Positive*%
%FSLAX46Y46*%
G04 Gerber Fmt 4.6, Leading zero omitted, Abs format (unit mm)*
G04 Created by KiCad (PCBNEW 10.0.0) date 2026-06-17 14:35:22*
%MOMM*%
%LPD*%
G01*
G04 APERTURE LIST*
G04 Aperture macros list*
%AMRoundRect*
0 Rectangle with rounded corners*
0 $1 Rounding radius*
0 $2 $3 $4 $5 $6 $7 $8 $9 X,Y pos of 4 corners*
0 Add a 4 corners polygon primitive as box body*
4,1,4,$2,$3,$4,$5,$6,$7,$8,$9,$2,$3,0*
0 Add four circle primitives for the rounded corners*
1,1,$1+$1,$2,$3*
1,1,$1+$1,$4,$5*
1,1,$1+$1,$6,$7*
1,1,$1+$1,$8,$9*
0 Add four rect primitives between the rounded corners*
20,1,$1+$1,$2,$3,$4,$5,0*
20,1,$1+$1,$4,$5,$6,$7,0*
20,1,$1+$1,$6,$7,$8,$9,0*
20,1,$1+$1,$8,$9,$2,$3,0*%
G04 Aperture macros list end*
%TA.AperFunction,ComponentPad*%
%ADD10R,2.000000X0.900000*%
%TD*%
%TA.AperFunction,ComponentPad*%
%ADD11RoundRect,1.025000X1.025000X-1.025000X1.025000X1.025000X-1.025000X1.025000X-1.025000X-1.025000X0*%
%TD*%
%TA.AperFunction,ComponentPad*%
%ADD12C,4.100000*%
%TD*%
%TA.AperFunction,ComponentPad*%
%ADD13R,0.900000X2.000000*%
%TD*%
%TA.AperFunction,ComponentPad*%
%ADD14RoundRect,1.025000X1.025000X1.025000X-1.025000X1.025000X-1.025000X-1.025000X1.025000X-1.025000X0*%
%TD*%
%TA.AperFunction,ComponentPad*%
%ADD15RoundRect,0.250000X0.750000X-0.750000X0.750000X0.750000X-0.750000X0.750000X-0.750000X-0.750000X0*%
%TD*%
%TA.AperFunction,ComponentPad*%
%ADD16C,2.000000*%
%TD*%
%TA.AperFunction,ComponentPad*%
%ADD17R,1.730000X2.030000*%
%TD*%
%TA.AperFunction,ComponentPad*%
%ADD18O,1.730000X2.030000*%
%TD*%
%TA.AperFunction,ComponentPad*%
%ADD19RoundRect,0.250000X0.750000X0.750000X-0.750000X0.750000X-0.750000X-0.750000X0.750000X-0.750000X0*%
%TD*%
%TA.AperFunction,ComponentPad*%
%ADD20RoundRect,0.250000X-0.750000X-0.750000X0.750000X-0.750000X0.750000X0.750000X-0.750000X0.750000X0*%
%TD*%
%TA.AperFunction,ViaPad*%
%ADD21C,0.600000*%
%TD*%
%TA.AperFunction,ViaPad*%
%ADD22C,0.800000*%
%TD*%
%TA.AperFunction,ViaPad*%
%ADD23C,0.900000*%
%TD*%
G04 APERTURE END LIST*
D10*
%TO.N,*%
%TO.C,J5*%
X2400000Y25700000D03*
X2400000Y39200000D03*
D11*
%TO.N,GND*%
X8400000Y36050000D03*
D12*
%TO.N,+24V*%
X8400000Y28850000D03*
%TD*%
D13*
%TO.N,*%
%TO.C,J2*%
X37500000Y4000000D03*
X24000000Y4000000D03*
D14*
%TO.N,/VBAT1+*%
X34350000Y10000000D03*
D12*
%TO.N,/VBAT2+*%
X27150000Y10000000D03*
%TD*%
D13*
%TO.N,*%
%TO.C,J8*%
X55000000Y4000000D03*
X41500000Y4000000D03*
D14*
%TO.N,GND*%
X51850000Y10000000D03*
D12*
%TO.N,/VBAT1+*%
X44650000Y10000000D03*
%TD*%
D15*
%TO.N,Net-(J7-Pin_1)*%
%TO.C,J7*%
X60500000Y9210000D03*
D16*
%TO.N,Net-(J7-Pin_2)*%
X60500000Y11750000D03*
%TD*%
D17*
%TO.N,/SERVO_1*%
%TO.C,J11*%
X28300000Y52000000D03*
D18*
%TO.N,+5V*%
X25760000Y52000000D03*
%TO.N,GND*%
X23220000Y52000000D03*
%TD*%
D19*
%TO.N,+5V*%
%TO.C,J15*%
X44275000Y52000000D03*
D16*
%TO.N,GND*%
X41735000Y52000000D03*
%TD*%
D19*
%TO.N,+12V*%
%TO.C,J4*%
X51275000Y52017500D03*
D16*
%TO.N,GND*%
X48735000Y52017500D03*
%TD*%
D15*
%TO.N,Net-(J3-Pin_1)*%
%TO.C,J3*%
X60500000Y16250000D03*
D16*
%TO.N,Net-(J3-Pin_2)*%
X60500000Y18790000D03*
%TD*%
D17*
%TO.N,/SERVO_2*%
%TO.C,J12*%
X37540000Y52000000D03*
D18*
%TO.N,+5V*%
X35000000Y52000000D03*
%TO.N,GND*%
X32460000Y52000000D03*
%TD*%
D20*
%TO.N,GND*%
%TO.C,J16*%
X16960000Y4500000D03*
D16*
%TO.N,Net-(J16-Pin_2)*%
X19500000Y4500000D03*
%TD*%
D21*
%TO.N,/VBAT_24V*%
X17442827Y8750000D03*
X19000000Y8000000D03*
X17500000Y9500000D03*
X17500000Y8000000D03*
X18192827Y8750000D03*
X18250000Y8000000D03*
X18250000Y9500000D03*
X19000000Y9500000D03*
X18942827Y8750000D03*
%TO.N,GND*%
X38550000Y1000000D03*
X48750000Y38250000D03*
X26550000Y1000000D03*
X23050000Y23050000D03*
X47550000Y1000000D03*
X14550000Y1000000D03*
X31000000Y24000000D03*
X5550000Y37000000D03*
X31950000Y43000000D03*
X17250000Y25000000D03*
X2550000Y1000000D03*
X7350000Y4000000D03*
X24250000Y44750000D03*
X46750000Y36000000D03*
X27000000Y34500000D03*
X39486276Y23611239D03*
X35500000Y23250000D03*
X58500000Y6250000D03*
X23550000Y1000000D03*
X11550000Y7000000D03*
X50550000Y7000000D03*
X25950000Y28000000D03*
X14550000Y37000000D03*
X52800000Y4000000D03*
X17550000Y1000000D03*
X20550000Y1000000D03*
X62550000Y1000000D03*
X11500000Y1000000D03*
X35550000Y1000000D03*
X28950000Y16000000D03*
X33500000Y15750000D03*
X47500000Y29000000D03*
X31200000Y40000000D03*
X56550000Y1000000D03*
X33250000Y49500000D03*
X1400000Y7000000D03*
X48000000Y49000000D03*
X39000000Y18250000D03*
X5500000Y1000000D03*
X5100000Y40000000D03*
X47250000Y19250000D03*
X5550000Y7000000D03*
X11550000Y37000000D03*
X4950000Y25000000D03*
X5700000Y34000000D03*
X4800000Y17400000D03*
X41550000Y1000000D03*
X29550000Y1000000D03*
X38250000Y49500000D03*
X59550000Y1000000D03*
X44250000Y19250000D03*
X8550000Y7000000D03*
X53550000Y1000000D03*
X29700000Y13000000D03*
X25000000Y36500000D03*
X57250000Y12000000D03*
X8500000Y1000000D03*
X15058601Y20375524D03*
X36500000Y30000000D03*
X44250000Y24750000D03*
%TO.N,+24V*%
X13000000Y27500000D03*
X45750000Y24050000D03*
X13000000Y29000000D03*
X13000000Y30500000D03*
X35000000Y26350000D03*
X11500000Y30500000D03*
X9012500Y40250000D03*
X28200000Y32600000D03*
X34000000Y26350000D03*
X44150000Y39750000D03*
X29200000Y32600000D03*
X60250000Y25000000D03*
X45750000Y25150000D03*
X41433000Y30922500D03*
X45750000Y22950000D03*
X36000000Y26350000D03*
X60000000Y34500000D03*
X26200000Y32600000D03*
X27200000Y32600000D03*
X11500000Y29000000D03*
X11500000Y27500000D03*
%TO.N,+12V*%
X39400000Y36500000D03*
D22*
X54250000Y31500000D03*
D21*
X40750000Y35500000D03*
X15800000Y25200000D03*
X10000000Y45200000D03*
D23*
X27800000Y25400000D03*
D21*
%TO.N,+3V3*%
X35962500Y43562500D03*
X50750000Y22250000D03*
X53400000Y16764000D03*
X37250000Y38500000D03*
X53750000Y47750000D03*
X39450000Y47000000D03*
X18400000Y49000000D03*
%TO.N,/power/5V_SNS-*%
X28400000Y43400000D03*
X19000000Y43400000D03*
%TO.N,/power/5V_SNS+*%
X32200000Y41800000D03*
%TO.N,/I2C_SCL*%
X22500000Y49750000D03*
X36753078Y46518470D03*
%TO.N,/I2C_SDA*%
X40086580Y43922366D03*
X27000000Y47500000D03*
%TO.N,/LED_PWM_1*%
X58592893Y41907107D03*
%TO.N,+5V*%
X61500000Y45500000D03*
D22*
X56500000Y31000000D03*
D21*
X52000000Y45500000D03*
X11400000Y47200000D03*
%TO.N,/power/24V_SNS*%
X31210000Y33000000D03*
X38250000Y37500000D03*
X2800000Y21650000D03*
X1300000Y21650000D03*
X2800000Y19150000D03*
X43100000Y39673000D03*
X1300000Y19150000D03*
X4250000Y22900000D03*
X2800000Y20400000D03*
X1300000Y22900000D03*
X2800000Y22900000D03*
X1300000Y20400000D03*
X4250000Y20400000D03*
X4250000Y21650000D03*
%TO.N,/IND*%
X61500000Y50250000D03*
%TO.N,Net-(C16-Pad2)*%
X21000000Y29000000D03*
X21000000Y28000000D03*
X22000000Y29000000D03*
X22000000Y28000000D03*
X22000000Y29800000D03*
X21000000Y29800000D03*
%TO.N,/MOTOR_1_B*%
X58000000Y20250000D03*
X61000000Y24000000D03*
%TO.N,/MOTOR_1_A*%
X58500000Y19500000D03*
X61758949Y23747017D03*
%TD*%
%TA.AperFunction,Conductor*%
%TO.N,GND*%
G36*
X62023472Y56069305D02*
G01*
X62343297Y56051344D01*
X62357094Y56049790D01*
X62669457Y55996717D01*
X62683014Y55993623D01*
X62987469Y55905911D01*
X63000595Y55901318D01*
X63293312Y55780070D01*
X63305826Y55774044D01*
X63472593Y55681875D01*
X63583132Y55620782D01*
X63594906Y55613384D01*
X63853312Y55430036D01*
X63864180Y55421368D01*
X64100418Y55210251D01*
X64110250Y55200419D01*
X64321367Y54964181D01*
X64330038Y54953309D01*
X64513383Y54694907D01*
X64520781Y54683133D01*
X64674039Y54405834D01*
X64680072Y54393306D01*
X64801320Y54100589D01*
X64805914Y54087459D01*
X64811336Y54068636D01*
X64816181Y54034618D01*
X64942469Y2750596D01*
X64940717Y2729521D01*
X64896717Y2470546D01*
X64893623Y2456988D01*
X64805910Y2152531D01*
X64801317Y2139406D01*
X64680072Y1846695D01*
X64674039Y1834167D01*
X64520781Y1556868D01*
X64513383Y1545094D01*
X64330038Y1286692D01*
X64321367Y1275820D01*
X64110250Y1039582D01*
X64100418Y1029750D01*
X63864180Y818633D01*
X63853308Y809962D01*
X63594906Y626617D01*
X63583132Y619219D01*
X63305833Y465961D01*
X63293305Y459928D01*
X63000594Y338683D01*
X62987469Y334090D01*
X62683014Y246378D01*
X62669457Y243284D01*
X62357105Y190213D01*
X62343287Y188656D01*
X62023472Y170695D01*
X62016519Y170500D01*
X3023481Y170500D01*
X3016528Y170695D01*
X2696712Y188656D01*
X2682894Y190213D01*
X2370542Y243284D01*
X2356985Y246378D01*
X2052530Y334090D01*
X2039405Y338683D01*
X1746694Y459928D01*
X1734166Y465961D01*
X1456867Y619219D01*
X1445093Y626617D01*
X1186691Y809962D01*
X1175819Y818633D01*
X939581Y1029750D01*
X929749Y1039582D01*
X718632Y1275820D01*
X709961Y1286692D01*
X526616Y1545094D01*
X519218Y1556868D01*
X485764Y1617398D01*
X365956Y1834174D01*
X359930Y1846688D01*
X238682Y2139406D01*
X234089Y2152531D01*
X146377Y2456986D01*
X143283Y2470543D01*
X90210Y2782906D01*
X88656Y2796703D01*
X70695Y3116528D01*
X70500Y3123481D01*
X70500Y3606287D01*
X2149500Y3606287D01*
X2149500Y3393713D01*
X2150042Y3390290D01*
X2150042Y3390287D01*
X2166220Y3288146D01*
X2182754Y3183757D01*
X2198138Y3136409D01*
X2248444Y2981586D01*
X2344951Y2792180D01*
X2469890Y2620214D01*
X2620213Y2469891D01*
X2792179Y2344952D01*
X2792181Y2344951D01*
X2792184Y2344949D01*
X2981588Y2248443D01*
X3183757Y2182754D01*
X3393713Y2149500D01*
X3393714Y2149500D01*
X3606286Y2149500D01*
X3606287Y2149500D01*
X3816243Y2182754D01*
X4018412Y2248443D01*
X4207816Y2344949D01*
X4229789Y2360914D01*
X4379786Y2469891D01*
X4379788Y2469894D01*
X4379792Y2469896D01*
X4530104Y2620208D01*
X4530106Y2620212D01*
X4530109Y2620214D01*
X4655048Y2792180D01*
X4655047Y2792180D01*
X4655051Y2792184D01*
X4751557Y2981588D01*
X4817246Y3183757D01*
X4833782Y3288165D01*
X4836375Y3298953D01*
X4836108Y3299017D01*
X4837242Y3303746D01*
X4837246Y3303757D01*
X4870500Y3513713D01*
X4870500Y3726287D01*
X4837246Y3936243D01*
X4771557Y4138412D01*
X4675051Y4327816D01*
X4675049Y4327819D01*
X4675048Y4327821D01*
X4550109Y4499787D01*
X4455409Y4594487D01*
X18299500Y4594487D01*
X18299500Y4405514D01*
X18329059Y4218882D01*
X18387454Y4039164D01*
X18439897Y3936240D01*
X18473240Y3870801D01*
X18584310Y3717927D01*
X18717927Y3584310D01*
X18870801Y3473240D01*
X18950347Y3432710D01*
X19039163Y3387455D01*
X19039165Y3387455D01*
X19039168Y3387453D01*
X19135497Y3356154D01*
X19218881Y3329060D01*
X19405514Y3299500D01*
X19405519Y3299500D01*
X19594486Y3299500D01*
X19781118Y3329060D01*
X19960832Y3387453D01*
X20129199Y3473240D01*
X20282073Y3584310D01*
X20415690Y3717927D01*
X20526760Y3870801D01*
X20612547Y4039168D01*
X20670940Y4218882D01*
X20700500Y4405514D01*
X20700500Y4594487D01*
X20670940Y4781119D01*
X20659780Y4815463D01*
X20612547Y4960832D01*
X20610436Y4964974D01*
X20608107Y4969547D01*
X20582526Y5019753D01*
X23349500Y5019753D01*
X23349500Y2980248D01*
X23361131Y2921771D01*
X23361132Y2921770D01*
X23405447Y2855448D01*
X23471769Y2811133D01*
X23471770Y2811132D01*
X23530247Y2799501D01*
X23530250Y2799500D01*
X23530252Y2799500D01*
X24469750Y2799500D01*
X24469751Y2799501D01*
X24484568Y2802448D01*
X24528229Y2811132D01*
X24528229Y2811133D01*
X24528231Y2811133D01*
X24594552Y2855448D01*
X24638867Y2921769D01*
X24638867Y2921771D01*
X24638868Y2921771D01*
X24650499Y2980248D01*
X24650500Y2980250D01*
X24650500Y5019751D01*
X24650499Y5019753D01*
X36849500Y5019753D01*
X36849500Y2980248D01*
X36861131Y2921771D01*
X36861132Y2921770D01*
X36905447Y2855448D01*
X36971769Y2811133D01*
X36971770Y2811132D01*
X37030247Y2799501D01*
X37030250Y2799500D01*
X37030252Y2799500D01*
X37969750Y2799500D01*
X37969751Y2799501D01*
X37984568Y2802448D01*
X38028229Y2811132D01*
X38028229Y2811133D01*
X38028231Y2811133D01*
X38094552Y2855448D01*
X38138867Y2921769D01*
X38138867Y2921771D01*
X38138868Y2921771D01*
X38150499Y2980248D01*
X38150500Y2980250D01*
X38150500Y5019751D01*
X38150499Y5019753D01*
X40849500Y5019753D01*
X40849500Y2980248D01*
X40861131Y2921771D01*
X40861132Y2921770D01*
X40905447Y2855448D01*
X40971769Y2811133D01*
X40971770Y2811132D01*
X41030247Y2799501D01*
X41030250Y2799500D01*
X41030252Y2799500D01*
X41969750Y2799500D01*
X41969751Y2799501D01*
X41984568Y2802448D01*
X42028229Y2811132D01*
X42028229Y2811133D01*
X42028231Y2811133D01*
X42094552Y2855448D01*
X42138867Y2921769D01*
X42138867Y2921771D01*
X42138868Y2921771D01*
X42150499Y2980248D01*
X42150500Y2980250D01*
X42150500Y5019751D01*
X42150499Y5019753D01*
X54349500Y5019753D01*
X54349500Y2980248D01*
X54361131Y2921771D01*
X54361132Y2921770D01*
X54405447Y2855448D01*
X54471769Y2811133D01*
X54471770Y2811132D01*
X54530247Y2799501D01*
X54530250Y2799500D01*
X54530252Y2799500D01*
X55469750Y2799500D01*
X55469751Y2799501D01*
X55484568Y2802448D01*
X55528229Y2811132D01*
X55528229Y2811133D01*
X55528231Y2811133D01*
X55594552Y2855448D01*
X55638867Y2921769D01*
X55638867Y2921771D01*
X55638868Y2921771D01*
X55650499Y2980248D01*
X55650500Y2980250D01*
X55650500Y3606287D01*
X60149500Y3606287D01*
X60149500Y3393713D01*
X60150042Y3390290D01*
X60150042Y3390287D01*
X60166220Y3288146D01*
X60182754Y3183757D01*
X60198138Y3136409D01*
X60248444Y2981586D01*
X60344951Y2792180D01*
X60469890Y2620214D01*
X60620213Y2469891D01*
X60792179Y2344952D01*
X60792181Y2344951D01*
X60792184Y2344949D01*
X60981588Y2248443D01*
X61183757Y2182754D01*
X61393713Y2149500D01*
X61393714Y2149500D01*
X61606286Y2149500D01*
X61606287Y2149500D01*
X61816243Y2182754D01*
X62018412Y2248443D01*
X62207816Y2344949D01*
X62229789Y2360914D01*
X62379786Y2469891D01*
X62379788Y2469894D01*
X62379792Y2469896D01*
X62530104Y2620208D01*
X62530106Y2620212D01*
X62530109Y2620214D01*
X62655048Y2792180D01*
X62655047Y2792180D01*
X62655051Y2792184D01*
X62751557Y2981588D01*
X62817246Y3183757D01*
X62833782Y3288165D01*
X62836375Y3298953D01*
X62836108Y3299017D01*
X62837242Y3303746D01*
X62837246Y3303757D01*
X62870500Y3513713D01*
X62870500Y3726287D01*
X62837246Y3936243D01*
X62771557Y4138412D01*
X62675051Y4327816D01*
X62675049Y4327819D01*
X62675048Y4327821D01*
X62550109Y4499787D01*
X62399786Y4650110D01*
X62227820Y4775049D01*
X62038414Y4871556D01*
X62038413Y4871557D01*
X62038412Y4871557D01*
X61836243Y4937246D01*
X61836241Y4937247D01*
X61836240Y4937247D01*
X61674957Y4962792D01*
X61626287Y4970500D01*
X61413713Y4970500D01*
X61365042Y4962792D01*
X61203760Y4937247D01*
X61001585Y4871556D01*
X60812179Y4775049D01*
X60640213Y4650110D01*
X60489890Y4499787D01*
X60364951Y4327821D01*
X60268444Y4138415D01*
X60202753Y3936240D01*
X60186940Y3836413D01*
X60186938Y3836394D01*
X60184692Y3822211D01*
X60182754Y3816243D01*
X60149500Y3606287D01*
X55650500Y3606287D01*
X55650500Y5019751D01*
X55650499Y5019753D01*
X55638868Y5078230D01*
X55638867Y5078231D01*
X55594552Y5144553D01*
X55528230Y5188868D01*
X55528229Y5188869D01*
X55469752Y5200500D01*
X55469748Y5200500D01*
X54530252Y5200500D01*
X54530247Y5200500D01*
X54471770Y5188869D01*
X54471769Y5188868D01*
X54405447Y5144553D01*
X54361132Y5078231D01*
X54361131Y5078230D01*
X54349500Y5019753D01*
X42150499Y5019753D01*
X42138868Y5078230D01*
X42138867Y5078231D01*
X42094552Y5144553D01*
X42028230Y5188868D01*
X42028229Y5188869D01*
X41969752Y5200500D01*
X41969748Y5200500D01*
X41030252Y5200500D01*
X41030247Y5200500D01*
X40971770Y5188869D01*
X40971769Y5188868D01*
X40905447Y5144553D01*
X40861132Y5078231D01*
X40861131Y5078230D01*
X40849500Y5019753D01*
X38150499Y5019753D01*
X38138868Y5078230D01*
X38138867Y5078231D01*
X38094552Y5144553D01*
X38028230Y5188868D01*
X38028229Y5188869D01*
X37969752Y5200500D01*
X37969748Y5200500D01*
X37030252Y5200500D01*
X37030247Y5200500D01*
X36971770Y5188869D01*
X36971769Y5188868D01*
X36905447Y5144553D01*
X36861132Y5078231D01*
X36861131Y5078230D01*
X36849500Y5019753D01*
X24650499Y5019753D01*
X24638868Y5078230D01*
X24638867Y5078231D01*
X24594552Y5144553D01*
X24528230Y5188868D01*
X24528229Y5188869D01*
X24469752Y5200500D01*
X24469748Y5200500D01*
X23530252Y5200500D01*
X23530247Y5200500D01*
X23471770Y5188869D01*
X23471769Y5188868D01*
X23405447Y5144553D01*
X23361132Y5078231D01*
X23361131Y5078230D01*
X23349500Y5019753D01*
X20582526Y5019753D01*
X20526759Y5129200D01*
X20515605Y5144552D01*
X20415690Y5282073D01*
X20282073Y5415690D01*
X20129199Y5526760D01*
X19960836Y5612546D01*
X19781118Y5670941D01*
X19594486Y5700500D01*
X19594481Y5700500D01*
X19405519Y5700500D01*
X19405514Y5700500D01*
X19218881Y5670941D01*
X19039163Y5612546D01*
X18870800Y5526760D01*
X18783579Y5463390D01*
X18717927Y5415690D01*
X18717925Y5415688D01*
X18717924Y5415688D01*
X18584312Y5282076D01*
X18584312Y5282075D01*
X18584310Y5282073D01*
X18536610Y5216421D01*
X18473240Y5129200D01*
X18387454Y4960837D01*
X18329059Y4781119D01*
X18299500Y4594487D01*
X4455409Y4594487D01*
X4399786Y4650110D01*
X4227820Y4775049D01*
X4038414Y4871556D01*
X4038413Y4871557D01*
X4038412Y4871557D01*
X3836243Y4937246D01*
X3836241Y4937247D01*
X3836240Y4937247D01*
X3674957Y4962792D01*
X3626287Y4970500D01*
X3413713Y4970500D01*
X3365042Y4962792D01*
X3203760Y4937247D01*
X3001585Y4871556D01*
X2812179Y4775049D01*
X2640213Y4650110D01*
X2489890Y4499787D01*
X2364951Y4327821D01*
X2268444Y4138415D01*
X2202753Y3936240D01*
X2186940Y3836413D01*
X2186938Y3836394D01*
X2184692Y3822211D01*
X2182754Y3816243D01*
X2149500Y3606287D01*
X70500Y3606287D01*
X70500Y8821158D01*
X16902327Y8821158D01*
X16902327Y8678843D01*
X16939161Y8541376D01*
X16939162Y8541373D01*
X17010316Y8418129D01*
X17010320Y8418124D01*
X17010854Y8417590D01*
X17011160Y8417030D01*
X17015265Y8411680D01*
X17014430Y8411040D01*
X17044339Y8356267D01*
X17039355Y8286575D01*
X17030561Y8267911D01*
X16996336Y8208630D01*
X16996334Y8208625D01*
X16959500Y8071158D01*
X16959500Y7928842D01*
X16975296Y7869893D01*
X16996334Y7791376D01*
X16996335Y7791373D01*
X17067489Y7668129D01*
X17067491Y7668126D01*
X17067492Y7668125D01*
X17168125Y7567492D01*
X17291375Y7496334D01*
X17428842Y7459500D01*
X17428844Y7459500D01*
X17571156Y7459500D01*
X17571158Y7459500D01*
X17708625Y7496334D01*
X17813001Y7556596D01*
X17880900Y7573068D01*
X17936998Y7556596D01*
X18041375Y7496334D01*
X18178842Y7459500D01*
X18178844Y7459500D01*
X18321156Y7459500D01*
X18321158Y7459500D01*
X18458625Y7496334D01*
X18563001Y7556596D01*
X18630900Y7573068D01*
X18686998Y7556596D01*
X18791375Y7496334D01*
X18928842Y7459500D01*
X18928844Y7459500D01*
X19071156Y7459500D01*
X19071158Y7459500D01*
X19208625Y7496334D01*
X19331875Y7567492D01*
X19432508Y7668125D01*
X19503666Y7791375D01*
X19540500Y7928842D01*
X19540500Y8071158D01*
X19503666Y8208625D01*
X19432508Y8331875D01*
X19431972Y8332411D01*
X19431665Y8332974D01*
X19427562Y8338320D01*
X19428395Y8338960D01*
X19398487Y8393734D01*
X19403471Y8463426D01*
X19412266Y8482092D01*
X19414828Y8486530D01*
X19446493Y8541375D01*
X19483327Y8678842D01*
X19483327Y8821158D01*
X19446493Y8958625D01*
X19412265Y9017909D01*
X19395793Y9085808D01*
X19418646Y9151835D01*
X19431979Y9167596D01*
X19431982Y9167600D01*
X19432508Y9168125D01*
X19503666Y9291375D01*
X19540500Y9428842D01*
X19540500Y9571158D01*
X19503666Y9708625D01*
X19432508Y9831875D01*
X19331875Y9932508D01*
X19331874Y9932509D01*
X19331871Y9932511D01*
X19208627Y10003665D01*
X19208626Y10003666D01*
X19208625Y10003666D01*
X19071158Y10040500D01*
X18928842Y10040500D01*
X18791375Y10003666D01*
X18791374Y10003666D01*
X18686999Y9943405D01*
X18619099Y9926933D01*
X18563001Y9943405D01*
X18458625Y10003666D01*
X18419050Y10014270D01*
X18321158Y10040500D01*
X18178842Y10040500D01*
X18041375Y10003666D01*
X18041374Y10003666D01*
X17936999Y9943405D01*
X17869099Y9926933D01*
X17813001Y9943405D01*
X17708625Y10003666D01*
X17669050Y10014270D01*
X17571158Y10040500D01*
X17428842Y10040500D01*
X17291375Y10003666D01*
X17291372Y10003665D01*
X17168128Y9932511D01*
X17168123Y9932507D01*
X17067493Y9831877D01*
X17067489Y9831872D01*
X16996335Y9708628D01*
X16996334Y9708625D01*
X16959500Y9571158D01*
X16959500Y9428843D01*
X16996334Y9291376D01*
X16996337Y9291369D01*
X17030560Y9232092D01*
X17047033Y9164192D01*
X17024180Y9098165D01*
X17010861Y9082419D01*
X17010320Y9081879D01*
X16939162Y8958628D01*
X16939161Y8958625D01*
X16902327Y8821158D01*
X70500Y8821158D01*
X70500Y10150121D01*
X24859500Y10150121D01*
X24859500Y9849880D01*
X24859501Y9849863D01*
X24898689Y9552198D01*
X24898690Y9552193D01*
X24898691Y9552187D01*
X24976402Y9262163D01*
X25091305Y8984764D01*
X25241432Y8724736D01*
X25241434Y8724733D01*
X25241435Y8724732D01*
X25424214Y8486530D01*
X25424220Y8486523D01*
X25636522Y8274221D01*
X25636529Y8274215D01*
X25776476Y8166830D01*
X25874736Y8091432D01*
X26134764Y7941305D01*
X26412163Y7826402D01*
X26702187Y7748691D01*
X26999873Y7709500D01*
X26999880Y7709500D01*
X27300120Y7709500D01*
X27300127Y7709500D01*
X27597813Y7748691D01*
X27887837Y7826402D01*
X28165236Y7941305D01*
X28425264Y8091432D01*
X28663472Y8274216D01*
X28875784Y8486528D01*
X29058568Y8724736D01*
X29208695Y8984764D01*
X29323598Y9262163D01*
X29401309Y9552187D01*
X29440500Y9849873D01*
X29440500Y10150127D01*
X29401309Y10447813D01*
X29323598Y10737837D01*
X29208695Y11015236D01*
X29165530Y11090000D01*
X32059500Y11090000D01*
X32059500Y8910001D01*
X32070028Y8776230D01*
X32070029Y8776224D01*
X32125686Y8555347D01*
X32125687Y8555344D01*
X32219892Y8347945D01*
X32219895Y8347939D01*
X32349612Y8160703D01*
X32349616Y8160698D01*
X32349619Y8160694D01*
X32510694Y7999619D01*
X32510698Y7999616D01*
X32510702Y7999613D01*
X32697938Y7869896D01*
X32697941Y7869894D01*
X32905342Y7775688D01*
X32905346Y7775687D01*
X33126223Y7720030D01*
X33126226Y7720030D01*
X33126232Y7720028D01*
X33260006Y7709500D01*
X33260014Y7709500D01*
X35439986Y7709500D01*
X35439994Y7709500D01*
X35573768Y7720028D01*
X35794658Y7775688D01*
X36002059Y7869894D01*
X36189306Y7999619D01*
X36350381Y8160694D01*
X36480106Y8347941D01*
X36574312Y8555342D01*
X36629972Y8776232D01*
X36640500Y8910006D01*
X36640500Y10150121D01*
X42359500Y10150121D01*
X42359500Y9849880D01*
X42359501Y9849863D01*
X42398689Y9552198D01*
X42398690Y9552193D01*
X42398691Y9552187D01*
X42476402Y9262163D01*
X42591305Y8984764D01*
X42741432Y8724736D01*
X42741434Y8724733D01*
X42741435Y8724732D01*
X42924214Y8486530D01*
X42924220Y8486523D01*
X43136522Y8274221D01*
X43136529Y8274215D01*
X43276476Y8166830D01*
X43374736Y8091432D01*
X43634764Y7941305D01*
X43912163Y7826402D01*
X44202187Y7748691D01*
X44499873Y7709500D01*
X44499880Y7709500D01*
X44800120Y7709500D01*
X44800127Y7709500D01*
X45097813Y7748691D01*
X45387837Y7826402D01*
X45665236Y7941305D01*
X45925264Y8091432D01*
X46163472Y8274216D01*
X46375784Y8486528D01*
X46558568Y8724736D01*
X46708695Y8984764D01*
X46823598Y9262163D01*
X46901309Y9552187D01*
X46940500Y9849873D01*
X46940500Y10150127D01*
X46901309Y10447813D01*
X46823598Y10737837D01*
X46708695Y11015236D01*
X46558568Y11275264D01*
X46375784Y11513472D01*
X46375779Y11513478D01*
X46163477Y11725780D01*
X46163467Y11725788D01*
X46130640Y11750978D01*
X46008776Y11844487D01*
X59299500Y11844487D01*
X59299500Y11655514D01*
X59329059Y11468882D01*
X59387454Y11289164D01*
X59473240Y11120801D01*
X59584310Y10967927D01*
X59717927Y10834310D01*
X59870801Y10723240D01*
X59967207Y10674119D01*
X60024385Y10644985D01*
X60075181Y10597010D01*
X60091976Y10529189D01*
X60069439Y10463054D01*
X60014723Y10419603D01*
X59968090Y10410500D01*
X59695730Y10410500D01*
X59665300Y10407647D01*
X59665298Y10407647D01*
X59537119Y10362794D01*
X59537117Y10362793D01*
X59427850Y10282150D01*
X59347207Y10172883D01*
X59347206Y10172881D01*
X59302353Y10044702D01*
X59302353Y10044700D01*
X59299500Y10014270D01*
X59299500Y8405731D01*
X59302353Y8375301D01*
X59302353Y8375299D01*
X59337725Y8274215D01*
X59347207Y8247118D01*
X59427850Y8137850D01*
X59537118Y8057207D01*
X59579845Y8042256D01*
X59665299Y8012354D01*
X59695730Y8009500D01*
X59695734Y8009500D01*
X61304270Y8009500D01*
X61334699Y8012354D01*
X61334701Y8012354D01*
X61398790Y8034781D01*
X61462882Y8057207D01*
X61572150Y8137850D01*
X61652793Y8247118D01*
X61682451Y8331875D01*
X61697646Y8375299D01*
X61697646Y8375301D01*
X61700500Y8405731D01*
X61700500Y10014270D01*
X61697646Y10044700D01*
X61697646Y10044702D01*
X61652793Y10172881D01*
X61652792Y10172883D01*
X61572150Y10282150D01*
X61462882Y10362793D01*
X61462880Y10362794D01*
X61334700Y10407647D01*
X61304270Y10410500D01*
X61304266Y10410500D01*
X61031910Y10410500D01*
X60964871Y10430185D01*
X60919116Y10482989D01*
X60909172Y10552147D01*
X60938197Y10615703D01*
X60975615Y10644985D01*
X61010224Y10662620D01*
X61129199Y10723240D01*
X61282073Y10834310D01*
X61415690Y10967927D01*
X61526760Y11120801D01*
X61612547Y11289168D01*
X61670940Y11468882D01*
X61699952Y11652056D01*
X61700500Y11655514D01*
X61700500Y11844487D01*
X61670940Y12031119D01*
X61612545Y12210837D01*
X61526759Y12379200D01*
X61415690Y12532073D01*
X61282073Y12665690D01*
X61129199Y12776760D01*
X60960836Y12862546D01*
X60781118Y12920941D01*
X60594486Y12950500D01*
X60594481Y12950500D01*
X60405519Y12950500D01*
X60405514Y12950500D01*
X60218881Y12920941D01*
X60039163Y12862546D01*
X59870800Y12776760D01*
X59783579Y12713390D01*
X59717927Y12665690D01*
X59717925Y12665688D01*
X59717924Y12665688D01*
X59584312Y12532076D01*
X59584312Y12532075D01*
X59584310Y12532073D01*
X59536610Y12466421D01*
X59473240Y12379200D01*
X59387454Y12210837D01*
X59329059Y12031119D01*
X59299500Y11844487D01*
X46008776Y11844487D01*
X45925268Y11908565D01*
X45925267Y11908566D01*
X45925264Y11908568D01*
X45665236Y12058695D01*
X45387837Y12173598D01*
X45387835Y12173599D01*
X45387834Y12173599D01*
X45301671Y12196686D01*
X45097813Y12251309D01*
X45097807Y12251310D01*
X45097802Y12251311D01*
X44800137Y12290499D01*
X44800132Y12290500D01*
X44800127Y12290500D01*
X44499873Y12290500D01*
X44499867Y12290500D01*
X44499862Y12290499D01*
X44202197Y12251311D01*
X44202190Y12251310D01*
X44202187Y12251309D01*
X44116021Y12228222D01*
X43912165Y12173599D01*
X43634770Y12058698D01*
X43634761Y12058694D01*
X43374731Y11908565D01*
X43136529Y11725786D01*
X43136522Y11725780D01*
X42924220Y11513478D01*
X42924214Y11513471D01*
X42741435Y11275269D01*
X42591306Y11015239D01*
X42591302Y11015230D01*
X42476401Y10737835D01*
X42398692Y10447816D01*
X42398689Y10447803D01*
X42359501Y10150138D01*
X42359500Y10150121D01*
X36640500Y10150121D01*
X36640500Y11089994D01*
X36629972Y11223768D01*
X36613493Y11289164D01*
X36574313Y11444654D01*
X36574312Y11444657D01*
X36563308Y11468882D01*
X36480106Y11652059D01*
X36429028Y11725786D01*
X36350387Y11839298D01*
X36350384Y11839302D01*
X36350381Y11839306D01*
X36189306Y12000381D01*
X36189302Y12000384D01*
X36189297Y12000388D01*
X36002061Y12130105D01*
X36002055Y12130108D01*
X35794656Y12224313D01*
X35794653Y12224314D01*
X35573776Y12279971D01*
X35573770Y12279972D01*
X35439999Y12290500D01*
X35439994Y12290500D01*
X33260006Y12290500D01*
X33260000Y12290500D01*
X33126229Y12279972D01*
X33126223Y12279971D01*
X32905346Y12224314D01*
X32905343Y12224313D01*
X32697944Y12130108D01*
X32697938Y12130105D01*
X32510702Y12000388D01*
X32510690Y12000378D01*
X32349622Y11839310D01*
X32349612Y11839298D01*
X32219895Y11652062D01*
X32219892Y11652056D01*
X32125687Y11444657D01*
X32125686Y11444654D01*
X32070029Y11223777D01*
X32070028Y11223771D01*
X32059500Y11090000D01*
X29165530Y11090000D01*
X29058568Y11275264D01*
X28875784Y11513472D01*
X28875779Y11513478D01*
X28663477Y11725780D01*
X28663470Y11725786D01*
X28425268Y11908565D01*
X28425267Y11908566D01*
X28425264Y11908568D01*
X28165236Y12058695D01*
X27887837Y12173598D01*
X27887835Y12173599D01*
X27887834Y12173599D01*
X27801671Y12196686D01*
X27597813Y12251309D01*
X27597807Y12251310D01*
X27597802Y12251311D01*
X27300137Y12290499D01*
X27300132Y12290500D01*
X27300127Y12290500D01*
X26999873Y12290500D01*
X26999867Y12290500D01*
X26999862Y12290499D01*
X26702197Y12251311D01*
X26702190Y12251310D01*
X26702187Y12251309D01*
X26616021Y12228222D01*
X26412165Y12173599D01*
X26134770Y12058698D01*
X26134761Y12058694D01*
X25874731Y11908565D01*
X25636529Y11725786D01*
X25636522Y11725780D01*
X25424220Y11513478D01*
X25424214Y11513471D01*
X25241435Y11275269D01*
X25091306Y11015239D01*
X25091302Y11015230D01*
X24976401Y10737835D01*
X24898692Y10447816D01*
X24898689Y10447803D01*
X24859501Y10150138D01*
X24859500Y10150121D01*
X70500Y10150121D01*
X70500Y16829892D01*
X52899500Y16829892D01*
X52899500Y16698109D01*
X52933608Y16570813D01*
X52966554Y16513750D01*
X52999500Y16456686D01*
X53092686Y16363500D01*
X53206814Y16297608D01*
X53334108Y16263500D01*
X53334110Y16263500D01*
X53465890Y16263500D01*
X53465892Y16263500D01*
X53593186Y16297608D01*
X53707314Y16363500D01*
X53800500Y16456686D01*
X53866392Y16570814D01*
X53900500Y16698108D01*
X53900500Y16829892D01*
X53866392Y16957186D01*
X53800500Y17071314D01*
X53707314Y17164500D01*
X53623516Y17212881D01*
X53593187Y17230392D01*
X53529539Y17247446D01*
X53465892Y17264500D01*
X53334108Y17264500D01*
X53206812Y17230392D01*
X53092686Y17164500D01*
X53092683Y17164498D01*
X52999502Y17071317D01*
X52999500Y17071314D01*
X52933608Y16957188D01*
X52899500Y16829892D01*
X70500Y16829892D01*
X70500Y22971158D01*
X759500Y22971158D01*
X759500Y22828842D01*
X782937Y22741376D01*
X796334Y22691376D01*
X796335Y22691373D01*
X867489Y22568129D01*
X867491Y22568126D01*
X867492Y22568125D01*
X968125Y22467492D01*
X1091375Y22396334D01*
X1097198Y22394774D01*
X1156856Y22358409D01*
X1187384Y22295562D01*
X1179089Y22226186D01*
X1134603Y22172309D01*
X1097199Y22155227D01*
X1091375Y22153666D01*
X1091374Y22153666D01*
X1091372Y22153665D01*
X968128Y22082511D01*
X968123Y22082507D01*
X867493Y21981877D01*
X867489Y21981872D01*
X796335Y21858628D01*
X796334Y21858625D01*
X759500Y21721158D01*
X759500Y21578843D01*
X796334Y21441376D01*
X796335Y21441373D01*
X867489Y21318129D01*
X867491Y21318126D01*
X867492Y21318125D01*
X968125Y21217492D01*
X1091375Y21146334D01*
X1097198Y21144774D01*
X1156856Y21108409D01*
X1187384Y21045562D01*
X1179089Y20976186D01*
X1134603Y20922309D01*
X1097199Y20905227D01*
X1091375Y20903666D01*
X1091374Y20903666D01*
X1091372Y20903665D01*
X968128Y20832511D01*
X968123Y20832507D01*
X867493Y20731877D01*
X867489Y20731872D01*
X796335Y20608628D01*
X796334Y20608625D01*
X759500Y20471158D01*
X759500Y20328842D01*
X762971Y20315890D01*
X796334Y20191376D01*
X796335Y20191373D01*
X867489Y20068129D01*
X867491Y20068126D01*
X867492Y20068125D01*
X968125Y19967492D01*
X968126Y19967491D01*
X968128Y19967490D01*
X1011094Y19942684D01*
X1091375Y19896334D01*
X1097198Y19894774D01*
X1156856Y19858409D01*
X1187384Y19795562D01*
X1179089Y19726186D01*
X1134603Y19672309D01*
X1097199Y19655227D01*
X1091375Y19653666D01*
X1091374Y19653666D01*
X1091372Y19653665D01*
X968128Y19582511D01*
X968123Y19582507D01*
X867493Y19481877D01*
X867489Y19481872D01*
X796335Y19358628D01*
X796334Y19358625D01*
X759500Y19221158D01*
X759500Y19078842D01*
X780760Y18999501D01*
X796334Y18941376D01*
X796335Y18941373D01*
X867489Y18818129D01*
X867491Y18818126D01*
X867492Y18818125D01*
X968125Y18717492D01*
X968126Y18717491D01*
X968128Y18717490D01*
X1006192Y18695514D01*
X1091375Y18646334D01*
X1228842Y18609500D01*
X1228844Y18609500D01*
X1371156Y18609500D01*
X1371158Y18609500D01*
X1508625Y18646334D01*
X1631875Y18717492D01*
X1732508Y18818125D01*
X1803666Y18941375D01*
X1840500Y19078842D01*
X1840500Y19221158D01*
X1803666Y19358625D01*
X1732508Y19481875D01*
X1631875Y19582508D01*
X1631874Y19582509D01*
X1631871Y19582511D01*
X1508627Y19653665D01*
X1508623Y19653667D01*
X1504489Y19654774D01*
X1502805Y19655226D01*
X1443145Y19691589D01*
X1412615Y19754436D01*
X1420909Y19823812D01*
X1465394Y19877690D01*
X1502804Y19894775D01*
X1508625Y19896334D01*
X1631875Y19967492D01*
X1732508Y20068125D01*
X1803666Y20191375D01*
X1840500Y20328842D01*
X1840500Y20471158D01*
X1803666Y20608625D01*
X1732508Y20731875D01*
X1631875Y20832508D01*
X1631874Y20832509D01*
X1631871Y20832511D01*
X1508627Y20903665D01*
X1508623Y20903667D01*
X1504489Y20904774D01*
X1502805Y20905226D01*
X1443145Y20941589D01*
X1412615Y21004436D01*
X1420909Y21073812D01*
X1465394Y21127690D01*
X1502804Y21144775D01*
X1508625Y21146334D01*
X1631875Y21217492D01*
X1732508Y21318125D01*
X1803666Y21441375D01*
X1840500Y21578842D01*
X1840500Y21721158D01*
X1803666Y21858625D01*
X1732508Y21981875D01*
X1631875Y22082508D01*
X1631874Y22082509D01*
X1631871Y22082511D01*
X1508627Y22153665D01*
X1508623Y22153667D01*
X1504489Y22154774D01*
X1502805Y22155226D01*
X1443145Y22191589D01*
X1412615Y22254436D01*
X1420909Y22323812D01*
X1465394Y22377690D01*
X1502804Y22394775D01*
X1508625Y22396334D01*
X1631875Y22467492D01*
X1732508Y22568125D01*
X1803666Y22691375D01*
X1840500Y22828842D01*
X1840500Y22971158D01*
X2259500Y22971158D01*
X2259500Y22828842D01*
X2282937Y22741376D01*
X2296334Y22691376D01*
X2296335Y22691373D01*
X2367489Y22568129D01*
X2367491Y22568126D01*
X2367492Y22568125D01*
X2468125Y22467492D01*
X2591375Y22396334D01*
X2597198Y22394774D01*
X2656856Y22358409D01*
X2687384Y22295562D01*
X2679089Y22226186D01*
X2634603Y22172309D01*
X2597199Y22155227D01*
X2591375Y22153666D01*
X2591374Y22153666D01*
X2591372Y22153665D01*
X2468128Y22082511D01*
X2468123Y22082507D01*
X2367493Y21981877D01*
X2367489Y21981872D01*
X2296335Y21858628D01*
X2296334Y21858625D01*
X2259500Y21721158D01*
X2259500Y21578843D01*
X2296334Y21441376D01*
X2296335Y21441373D01*
X2367489Y21318129D01*
X2367491Y21318126D01*
X2367492Y21318125D01*
X2468125Y21217492D01*
X2591375Y21146334D01*
X2597198Y21144774D01*
X2656856Y21108409D01*
X2687384Y21045562D01*
X2679089Y20976186D01*
X2634603Y20922309D01*
X2597199Y20905227D01*
X2591375Y20903666D01*
X2591374Y20903666D01*
X2591372Y20903665D01*
X2468128Y20832511D01*
X2468123Y20832507D01*
X2367493Y20731877D01*
X2367489Y20731872D01*
X2296335Y20608628D01*
X2296334Y20608625D01*
X2259500Y20471158D01*
X2259500Y20328842D01*
X2262971Y20315890D01*
X2296334Y20191376D01*
X2296335Y20191373D01*
X2367489Y20068129D01*
X2367491Y20068126D01*
X2367492Y20068125D01*
X2468125Y19967492D01*
X2468126Y19967491D01*
X2468128Y19967490D01*
X2511094Y19942684D01*
X2591375Y19896334D01*
X2597198Y19894774D01*
X2656856Y19858409D01*
X2687384Y19795562D01*
X2679089Y19726186D01*
X2634603Y19672309D01*
X2597199Y19655227D01*
X2591375Y19653666D01*
X2591374Y19653666D01*
X2591372Y19653665D01*
X2468128Y19582511D01*
X2468123Y19582507D01*
X2367493Y19481877D01*
X2367489Y19481872D01*
X2296335Y19358628D01*
X2296334Y19358625D01*
X2259500Y19221158D01*
X2259500Y19078842D01*
X2280760Y18999501D01*
X2296334Y18941376D01*
X2296335Y18941373D01*
X2367489Y18818129D01*
X2367491Y18818126D01*
X2367492Y18818125D01*
X2468125Y18717492D01*
X2468126Y18717491D01*
X2468128Y18717490D01*
X2506192Y18695514D01*
X2591375Y18646334D01*
X2728842Y18609500D01*
X2728844Y18609500D01*
X2871156Y18609500D01*
X2871158Y18609500D01*
X3008625Y18646334D01*
X3131875Y18717492D01*
X3232508Y18818125D01*
X3270822Y18884487D01*
X59299500Y18884487D01*
X59299500Y18695514D01*
X59329059Y18508882D01*
X59387454Y18329164D01*
X59473240Y18160801D01*
X59584310Y18007927D01*
X59717927Y17874310D01*
X59870801Y17763240D01*
X59967207Y17714119D01*
X60024385Y17684985D01*
X60075181Y17637010D01*
X60091976Y17569189D01*
X60069439Y17503054D01*
X60014723Y17459603D01*
X59968090Y17450500D01*
X59695730Y17450500D01*
X59665300Y17447647D01*
X59665298Y17447647D01*
X59537119Y17402794D01*
X59537117Y17402793D01*
X59427850Y17322150D01*
X59347207Y17212883D01*
X59347206Y17212881D01*
X59302353Y17084702D01*
X59302353Y17084700D01*
X59299500Y17054270D01*
X59299500Y15445731D01*
X59302353Y15415301D01*
X59302353Y15415299D01*
X59347206Y15287120D01*
X59347207Y15287118D01*
X59427850Y15177850D01*
X59537118Y15097207D01*
X59579845Y15082256D01*
X59665299Y15052354D01*
X59695730Y15049500D01*
X59695734Y15049500D01*
X61304270Y15049500D01*
X61334699Y15052354D01*
X61334701Y15052354D01*
X61398790Y15074781D01*
X61462882Y15097207D01*
X61572150Y15177850D01*
X61652793Y15287118D01*
X61675219Y15351210D01*
X61697646Y15415299D01*
X61697646Y15415301D01*
X61700500Y15445731D01*
X61700500Y17054270D01*
X61697646Y17084700D01*
X61697646Y17084702D01*
X61652793Y17212881D01*
X61652792Y17212883D01*
X61614697Y17264500D01*
X61572150Y17322150D01*
X61462882Y17402793D01*
X61462880Y17402794D01*
X61334700Y17447647D01*
X61304270Y17450500D01*
X61304266Y17450500D01*
X61031910Y17450500D01*
X60964871Y17470185D01*
X60919116Y17522989D01*
X60909172Y17592147D01*
X60938197Y17655703D01*
X60975615Y17684985D01*
X61010224Y17702620D01*
X61129199Y17763240D01*
X61282073Y17874310D01*
X61415690Y18007927D01*
X61526760Y18160801D01*
X61612547Y18329168D01*
X61670940Y18508882D01*
X61700500Y18695514D01*
X61700500Y18884487D01*
X61670940Y19071119D01*
X61643846Y19154503D01*
X61612547Y19250832D01*
X61612545Y19250835D01*
X61612545Y19250837D01*
X61526759Y19419200D01*
X61515926Y19434110D01*
X61415690Y19572073D01*
X61282073Y19705690D01*
X61129199Y19816760D01*
X61115359Y19823812D01*
X60960836Y19902546D01*
X60781118Y19960941D01*
X60594486Y19990500D01*
X60594481Y19990500D01*
X60405519Y19990500D01*
X60405514Y19990500D01*
X60218881Y19960941D01*
X60039163Y19902546D01*
X59870800Y19816760D01*
X59825171Y19783608D01*
X59717927Y19705690D01*
X59717925Y19705688D01*
X59717924Y19705688D01*
X59584312Y19572076D01*
X59584312Y19572075D01*
X59584310Y19572073D01*
X59579818Y19565890D01*
X59473240Y19419200D01*
X59387454Y19250837D01*
X59329059Y19071119D01*
X59299500Y18884487D01*
X3270822Y18884487D01*
X3303666Y18941375D01*
X3340500Y19078842D01*
X3340500Y19221158D01*
X3303666Y19358625D01*
X3232508Y19481875D01*
X3131875Y19582508D01*
X3131874Y19582509D01*
X3131871Y19582511D01*
X3008627Y19653665D01*
X3008623Y19653667D01*
X3004489Y19654774D01*
X3002805Y19655226D01*
X2943145Y19691589D01*
X2912615Y19754436D01*
X2920909Y19823812D01*
X2965394Y19877690D01*
X3002804Y19894775D01*
X3008625Y19896334D01*
X3131875Y19967492D01*
X3232508Y20068125D01*
X3303666Y20191375D01*
X3340500Y20328842D01*
X3340500Y20471158D01*
X3303666Y20608625D01*
X3232508Y20731875D01*
X3131875Y20832508D01*
X3131874Y20832509D01*
X3131871Y20832511D01*
X3008627Y20903665D01*
X3008623Y20903667D01*
X3004489Y20904774D01*
X3002805Y20905226D01*
X2943145Y20941589D01*
X2912615Y21004436D01*
X2920909Y21073812D01*
X2965394Y21127690D01*
X3002804Y21144775D01*
X3008625Y21146334D01*
X3131875Y21217492D01*
X3232508Y21318125D01*
X3303666Y21441375D01*
X3340500Y21578842D01*
X3340500Y21721158D01*
X3303666Y21858625D01*
X3232508Y21981875D01*
X3131875Y22082508D01*
X3131874Y22082509D01*
X3131871Y22082511D01*
X3008627Y22153665D01*
X3008623Y22153667D01*
X3004489Y22154774D01*
X3002805Y22155226D01*
X2943145Y22191589D01*
X2912615Y22254436D01*
X2920909Y22323812D01*
X2965394Y22377690D01*
X3002804Y22394775D01*
X3008625Y22396334D01*
X3131875Y22467492D01*
X3232508Y22568125D01*
X3303666Y22691375D01*
X3340500Y22828842D01*
X3340500Y22971158D01*
X3709500Y22971158D01*
X3709500Y22828842D01*
X3732937Y22741376D01*
X3746334Y22691376D01*
X3746335Y22691373D01*
X3817489Y22568129D01*
X3817491Y22568126D01*
X3817492Y22568125D01*
X3918125Y22467492D01*
X4041375Y22396334D01*
X4047198Y22394774D01*
X4106856Y22358409D01*
X4137384Y22295562D01*
X4129089Y22226186D01*
X4084603Y22172309D01*
X4047199Y22155227D01*
X4041375Y22153666D01*
X4041374Y22153666D01*
X4041372Y22153665D01*
X3918128Y22082511D01*
X3918123Y22082507D01*
X3817493Y21981877D01*
X3817489Y21981872D01*
X3746335Y21858628D01*
X3746334Y21858625D01*
X3709500Y21721158D01*
X3709500Y21578843D01*
X3746334Y21441376D01*
X3746335Y21441373D01*
X3817489Y21318129D01*
X3817491Y21318126D01*
X3817492Y21318125D01*
X3918125Y21217492D01*
X4041375Y21146334D01*
X4047198Y21144774D01*
X4106856Y21108409D01*
X4137384Y21045562D01*
X4129089Y20976186D01*
X4084603Y20922309D01*
X4047199Y20905227D01*
X4041375Y20903666D01*
X4041374Y20903666D01*
X4041372Y20903665D01*
X3918128Y20832511D01*
X3918123Y20832507D01*
X3817493Y20731877D01*
X3817489Y20731872D01*
X3746335Y20608628D01*
X3746334Y20608625D01*
X3709500Y20471158D01*
X3709500Y20328842D01*
X3712971Y20315890D01*
X3746334Y20191376D01*
X3746335Y20191373D01*
X3817489Y20068129D01*
X3817491Y20068126D01*
X3817492Y20068125D01*
X3918125Y19967492D01*
X3918126Y19967491D01*
X3918128Y19967490D01*
X3961094Y19942684D01*
X4041375Y19896334D01*
X4178842Y19859500D01*
X4178844Y19859500D01*
X4321156Y19859500D01*
X4321158Y19859500D01*
X4458625Y19896334D01*
X4581875Y19967492D01*
X4682508Y20068125D01*
X4753666Y20191375D01*
X4787030Y20315892D01*
X57499500Y20315892D01*
X57499500Y20184108D01*
X57516554Y20120461D01*
X57533608Y20056813D01*
X57547115Y20033419D01*
X57599500Y19942686D01*
X57692686Y19849500D01*
X57806814Y19783608D01*
X57921247Y19752946D01*
X57980907Y19716582D01*
X58011436Y19653736D01*
X58008928Y19601080D01*
X57999500Y19565894D01*
X57999500Y19434109D01*
X58033608Y19306813D01*
X58065926Y19250837D01*
X58099500Y19192686D01*
X58192686Y19099500D01*
X58306814Y19033608D01*
X58434108Y18999500D01*
X58434110Y18999500D01*
X58565890Y18999500D01*
X58565892Y18999500D01*
X58693186Y19033608D01*
X58807314Y19099500D01*
X58900500Y19192686D01*
X58966392Y19306814D01*
X59000500Y19434108D01*
X59000500Y19565892D01*
X58966392Y19693186D01*
X58900500Y19807314D01*
X58807314Y19900500D01*
X58693186Y19966392D01*
X58578751Y19997055D01*
X58519092Y20033419D01*
X58488563Y20096266D01*
X58491071Y20148922D01*
X58500500Y20184108D01*
X58500500Y20315892D01*
X58466392Y20443186D01*
X58400500Y20557314D01*
X58307314Y20650500D01*
X58250250Y20683446D01*
X58193187Y20716392D01*
X58129539Y20733446D01*
X58065892Y20750500D01*
X57934108Y20750500D01*
X57806812Y20716392D01*
X57692686Y20650500D01*
X57692683Y20650498D01*
X57599502Y20557317D01*
X57599500Y20557314D01*
X57533608Y20443188D01*
X57502970Y20328844D01*
X57499500Y20315892D01*
X4787030Y20315892D01*
X4790500Y20328842D01*
X4790500Y20471158D01*
X4753666Y20608625D01*
X4682508Y20731875D01*
X4581875Y20832508D01*
X4581874Y20832509D01*
X4581871Y20832511D01*
X4458627Y20903665D01*
X4458623Y20903667D01*
X4454489Y20904774D01*
X4452805Y20905226D01*
X4393145Y20941589D01*
X4362615Y21004436D01*
X4370909Y21073812D01*
X4415394Y21127690D01*
X4452804Y21144775D01*
X4458625Y21146334D01*
X4581875Y21217492D01*
X4682508Y21318125D01*
X4753666Y21441375D01*
X4790500Y21578842D01*
X4790500Y21721158D01*
X4753666Y21858625D01*
X4682508Y21981875D01*
X4581875Y22082508D01*
X4581874Y22082509D01*
X4581871Y22082511D01*
X4458627Y22153665D01*
X4458623Y22153667D01*
X4454489Y22154774D01*
X4452805Y22155226D01*
X4393145Y22191589D01*
X4362615Y22254436D01*
X4369962Y22315892D01*
X50249500Y22315892D01*
X50249500Y22184109D01*
X50283608Y22056813D01*
X50316554Y21999750D01*
X50349500Y21942686D01*
X50442686Y21849500D01*
X50556814Y21783608D01*
X50684108Y21749500D01*
X50684110Y21749500D01*
X50815890Y21749500D01*
X50815892Y21749500D01*
X50943186Y21783608D01*
X51057314Y21849500D01*
X51150500Y21942686D01*
X51216392Y22056814D01*
X51250500Y22184108D01*
X51250500Y22315892D01*
X51216392Y22443186D01*
X51214574Y22446334D01*
X51173490Y22517494D01*
X51150500Y22557314D01*
X51057314Y22650500D01*
X50986515Y22691376D01*
X50943187Y22716392D01*
X50879539Y22733446D01*
X50815892Y22750500D01*
X50684108Y22750500D01*
X50556812Y22716392D01*
X50442686Y22650500D01*
X50442683Y22650498D01*
X50349502Y22557317D01*
X50349500Y22557314D01*
X50283608Y22443188D01*
X50249500Y22315892D01*
X4369962Y22315892D01*
X4370909Y22323812D01*
X4415394Y22377690D01*
X4452804Y22394775D01*
X4458625Y22396334D01*
X4581875Y22467492D01*
X4682508Y22568125D01*
X4753666Y22691375D01*
X4790500Y22828842D01*
X4790500Y22971158D01*
X4753666Y23108625D01*
X4682508Y23231875D01*
X4581875Y23332508D01*
X4581874Y23332509D01*
X4581871Y23332511D01*
X4458627Y23403665D01*
X4458626Y23403666D01*
X4458625Y23403666D01*
X4321158Y23440500D01*
X4178842Y23440500D01*
X4041375Y23403666D01*
X4041372Y23403665D01*
X3918128Y23332511D01*
X3918123Y23332507D01*
X3817493Y23231877D01*
X3817489Y23231872D01*
X3746335Y23108628D01*
X3746334Y23108625D01*
X3709500Y22971158D01*
X3340500Y22971158D01*
X3303666Y23108625D01*
X3232508Y23231875D01*
X3131875Y23332508D01*
X3131874Y23332509D01*
X3131871Y23332511D01*
X3008627Y23403665D01*
X3008626Y23403666D01*
X3008625Y23403666D01*
X2871158Y23440500D01*
X2728842Y23440500D01*
X2591375Y23403666D01*
X2591372Y23403665D01*
X2468128Y23332511D01*
X2468123Y23332507D01*
X2367493Y23231877D01*
X2367489Y23231872D01*
X2296335Y23108628D01*
X2296334Y23108625D01*
X2259500Y22971158D01*
X1840500Y22971158D01*
X1803666Y23108625D01*
X1732508Y23231875D01*
X1631875Y23332508D01*
X1631874Y23332509D01*
X1631871Y23332511D01*
X1508627Y23403665D01*
X1508626Y23403666D01*
X1508625Y23403666D01*
X1371158Y23440500D01*
X1228842Y23440500D01*
X1091375Y23403666D01*
X1091372Y23403665D01*
X968128Y23332511D01*
X968123Y23332507D01*
X867493Y23231877D01*
X867489Y23231872D01*
X796335Y23108628D01*
X796334Y23108625D01*
X759500Y22971158D01*
X70500Y22971158D01*
X70500Y26169753D01*
X1199500Y26169753D01*
X1199500Y25230248D01*
X1211131Y25171771D01*
X1211132Y25171770D01*
X1255447Y25105448D01*
X1321769Y25061133D01*
X1321770Y25061132D01*
X1380247Y25049501D01*
X1380250Y25049500D01*
X1380252Y25049500D01*
X3419750Y25049500D01*
X3419751Y25049501D01*
X3434568Y25052448D01*
X3478229Y25061132D01*
X3478229Y25061133D01*
X3478231Y25061133D01*
X3544552Y25105448D01*
X3588867Y25171769D01*
X3588867Y25171771D01*
X3588868Y25171771D01*
X3600499Y25230248D01*
X3600500Y25230250D01*
X3600500Y25265892D01*
X15299500Y25265892D01*
X15299500Y25134109D01*
X15333608Y25006813D01*
X15346011Y24985331D01*
X15399500Y24892686D01*
X15492686Y24799500D01*
X15606814Y24733608D01*
X15734108Y24699500D01*
X15734110Y24699500D01*
X15865890Y24699500D01*
X15865892Y24699500D01*
X15993186Y24733608D01*
X16107314Y24799500D01*
X16200500Y24892686D01*
X16266392Y25006814D01*
X16300500Y25134108D01*
X16300500Y25265892D01*
X16281734Y25335929D01*
X27149499Y25335929D01*
X27174497Y25210262D01*
X27174499Y25210256D01*
X27223533Y25091876D01*
X27223538Y25091867D01*
X27294723Y24985332D01*
X27294726Y24985328D01*
X27385327Y24894727D01*
X27385331Y24894724D01*
X27491866Y24823539D01*
X27491872Y24823536D01*
X27491873Y24823535D01*
X27610256Y24774499D01*
X27610260Y24774499D01*
X27610261Y24774498D01*
X27735928Y24749500D01*
X27735931Y24749500D01*
X27864071Y24749500D01*
X27948615Y24766318D01*
X27989744Y24774499D01*
X28108127Y24823535D01*
X28214669Y24894724D01*
X28305276Y24985331D01*
X28376465Y25091873D01*
X28425501Y25210256D01*
X28427670Y25221158D01*
X45209500Y25221158D01*
X45209500Y25078842D01*
X45214246Y25061132D01*
X45246334Y24941376D01*
X45246335Y24941373D01*
X45317489Y24818129D01*
X45317491Y24818126D01*
X45317492Y24818125D01*
X45418125Y24717492D01*
X45418127Y24717491D01*
X45418131Y24717488D01*
X45435627Y24707386D01*
X45483842Y24656819D01*
X45497064Y24588212D01*
X45471096Y24523347D01*
X45435627Y24492614D01*
X45418131Y24482513D01*
X45418123Y24482507D01*
X45317493Y24381877D01*
X45317489Y24381872D01*
X45246335Y24258628D01*
X45246334Y24258625D01*
X45209500Y24121158D01*
X45209500Y23978842D01*
X45221487Y23934108D01*
X45246334Y23841376D01*
X45246335Y23841373D01*
X45317489Y23718129D01*
X45317491Y23718126D01*
X45317492Y23718125D01*
X45418125Y23617492D01*
X45418127Y23617491D01*
X45418131Y23617488D01*
X45435627Y23607386D01*
X45483842Y23556819D01*
X45497064Y23488212D01*
X45471096Y23423347D01*
X45435627Y23392614D01*
X45418131Y23382513D01*
X45418123Y23382507D01*
X45317493Y23281877D01*
X45317489Y23281872D01*
X45246335Y23158628D01*
X45246334Y23158625D01*
X45209500Y23021158D01*
X45209500Y22878842D01*
X45222898Y22828842D01*
X45246334Y22741376D01*
X45246335Y22741373D01*
X45317489Y22618129D01*
X45317491Y22618126D01*
X45317492Y22618125D01*
X45418125Y22517492D01*
X45541375Y22446334D01*
X45678842Y22409500D01*
X45678844Y22409500D01*
X45821156Y22409500D01*
X45821158Y22409500D01*
X45958625Y22446334D01*
X46081875Y22517492D01*
X46182508Y22618125D01*
X46253666Y22741375D01*
X46290500Y22878842D01*
X46290500Y23021158D01*
X46253666Y23158625D01*
X46182508Y23281875D01*
X46081875Y23382508D01*
X46081873Y23382509D01*
X46081868Y23382513D01*
X46064374Y23392613D01*
X46016158Y23443179D01*
X46002934Y23511786D01*
X46028902Y23576651D01*
X46064374Y23607387D01*
X46081868Y23617488D01*
X46081867Y23617488D01*
X46081875Y23617492D01*
X46182508Y23718125D01*
X46253666Y23841375D01*
X46290500Y23978842D01*
X46290500Y24121158D01*
X46253666Y24258625D01*
X46182508Y24381875D01*
X46081875Y24482508D01*
X46081873Y24482509D01*
X46081868Y24482513D01*
X46064374Y24492613D01*
X46016158Y24543179D01*
X46002934Y24611786D01*
X46028902Y24676651D01*
X46064374Y24707387D01*
X46081868Y24717488D01*
X46081867Y24717488D01*
X46081875Y24717492D01*
X46182508Y24818125D01*
X46253666Y24941375D01*
X46288441Y25071158D01*
X59709500Y25071158D01*
X59709500Y24928842D01*
X59739167Y24818125D01*
X59746334Y24791376D01*
X59746335Y24791373D01*
X59817489Y24668129D01*
X59817491Y24668126D01*
X59817492Y24668125D01*
X59918125Y24567492D01*
X59918126Y24567491D01*
X59918128Y24567490D01*
X59979750Y24531913D01*
X60041375Y24496334D01*
X60178842Y24459500D01*
X60178844Y24459500D01*
X60321155Y24459500D01*
X60321158Y24459500D01*
X60458625Y24496334D01*
X60458630Y24496337D01*
X60465695Y24498230D01*
X60535545Y24496567D01*
X60593407Y24457405D01*
X60620912Y24393177D01*
X60609326Y24324274D01*
X60603294Y24314508D01*
X60603564Y24314352D01*
X60599501Y24307316D01*
X60599500Y24307314D01*
X60579684Y24272994D01*
X60533608Y24193188D01*
X60499500Y24065892D01*
X60499500Y23934109D01*
X60533608Y23806813D01*
X60566554Y23749750D01*
X60599500Y23692686D01*
X60692686Y23599500D01*
X60806814Y23533608D01*
X60934108Y23499500D01*
X60934110Y23499500D01*
X61065889Y23499500D01*
X61065892Y23499500D01*
X61193186Y23533608D01*
X61193189Y23533610D01*
X61197448Y23534751D01*
X61267298Y23533088D01*
X61325161Y23493926D01*
X61336927Y23476979D01*
X61358449Y23439703D01*
X61451635Y23346517D01*
X61565763Y23280625D01*
X61693057Y23246517D01*
X61693059Y23246517D01*
X61824839Y23246517D01*
X61824841Y23246517D01*
X61952135Y23280625D01*
X62066263Y23346517D01*
X62159449Y23439703D01*
X62225341Y23553831D01*
X62259449Y23681125D01*
X62259449Y23812909D01*
X62225341Y23940203D01*
X62159449Y24054331D01*
X62066263Y24147517D01*
X62009199Y24180463D01*
X61952136Y24213409D01*
X61888488Y24230463D01*
X61824841Y24247517D01*
X61693057Y24247517D01*
X61561499Y24212267D01*
X61491649Y24213930D01*
X61433786Y24253093D01*
X61422019Y24270042D01*
X61400500Y24307314D01*
X61307314Y24400500D01*
X61250250Y24433446D01*
X61193187Y24466392D01*
X61129539Y24483446D01*
X61065892Y24500500D01*
X60934108Y24500500D01*
X60934106Y24500500D01*
X60808318Y24466796D01*
X60738468Y24468459D01*
X60680606Y24507622D01*
X60653103Y24571851D01*
X60664690Y24640753D01*
X60677858Y24662068D01*
X60682499Y24668117D01*
X60682508Y24668125D01*
X60753666Y24791375D01*
X60790500Y24928842D01*
X60790500Y25071158D01*
X60753666Y25208625D01*
X60682508Y25331875D01*
X60581875Y25432508D01*
X60581874Y25432509D01*
X60581871Y25432511D01*
X60458627Y25503665D01*
X60458626Y25503666D01*
X60458625Y25503666D01*
X60321158Y25540500D01*
X60178842Y25540500D01*
X60041375Y25503666D01*
X60041372Y25503665D01*
X59918128Y25432511D01*
X59918123Y25432507D01*
X59817493Y25331877D01*
X59817489Y25331872D01*
X59746335Y25208628D01*
X59746334Y25208625D01*
X59709500Y25071158D01*
X46288441Y25071158D01*
X46290500Y25078842D01*
X46290500Y25221158D01*
X46253666Y25358625D01*
X46218087Y25420250D01*
X46182510Y25481872D01*
X46182506Y25481877D01*
X46081876Y25582507D01*
X46081871Y25582511D01*
X45958627Y25653665D01*
X45958626Y25653666D01*
X45958625Y25653666D01*
X45821158Y25690500D01*
X45678842Y25690500D01*
X45541375Y25653666D01*
X45541372Y25653665D01*
X45418128Y25582511D01*
X45418123Y25582507D01*
X45317493Y25481877D01*
X45317489Y25481872D01*
X45246335Y25358628D01*
X45246334Y25358625D01*
X45209500Y25221158D01*
X28427670Y25221158D01*
X28429479Y25230252D01*
X28434099Y25253477D01*
X28450500Y25335929D01*
X28450500Y25464072D01*
X28425502Y25589739D01*
X28425501Y25589740D01*
X28425501Y25589744D01*
X28376465Y25708127D01*
X28376464Y25708128D01*
X28376461Y25708134D01*
X28305276Y25814669D01*
X28305273Y25814673D01*
X28214672Y25905274D01*
X28214668Y25905277D01*
X28108133Y25976462D01*
X28108124Y25976467D01*
X27989744Y26025501D01*
X27989738Y26025503D01*
X27864071Y26050500D01*
X27864069Y26050500D01*
X27735931Y26050500D01*
X27735929Y26050500D01*
X27610261Y26025503D01*
X27610255Y26025501D01*
X27491875Y25976467D01*
X27491866Y25976462D01*
X27385331Y25905277D01*
X27385327Y25905274D01*
X27294726Y25814673D01*
X27294723Y25814669D01*
X27223538Y25708134D01*
X27223533Y25708125D01*
X27174499Y25589745D01*
X27174497Y25589739D01*
X27149500Y25464072D01*
X27149500Y25464069D01*
X27149500Y25335931D01*
X27149500Y25335929D01*
X27149499Y25335929D01*
X16281734Y25335929D01*
X16266392Y25393186D01*
X16200500Y25507314D01*
X16107314Y25600500D01*
X16015230Y25653665D01*
X15993187Y25666392D01*
X15929539Y25683446D01*
X15865892Y25700500D01*
X15734108Y25700500D01*
X15606812Y25666392D01*
X15492686Y25600500D01*
X15492683Y25600498D01*
X15399502Y25507317D01*
X15399500Y25507314D01*
X15333608Y25393188D01*
X15299500Y25265892D01*
X3600500Y25265892D01*
X3600500Y26169751D01*
X3600499Y26169753D01*
X3588868Y26228230D01*
X3588867Y26228231D01*
X3544552Y26294553D01*
X3497214Y26326183D01*
X3478230Y26338868D01*
X3478229Y26338869D01*
X3419752Y26350500D01*
X3419748Y26350500D01*
X1380252Y26350500D01*
X1380247Y26350500D01*
X1321770Y26338869D01*
X1321769Y26338868D01*
X1255447Y26294553D01*
X1211132Y26228231D01*
X1211131Y26228230D01*
X1199500Y26169753D01*
X70500Y26169753D01*
X70500Y26421158D01*
X33459500Y26421158D01*
X33459500Y26278842D01*
X33473062Y26228230D01*
X33496334Y26141376D01*
X33496335Y26141373D01*
X33567489Y26018129D01*
X33567491Y26018126D01*
X33567492Y26018125D01*
X33668125Y25917492D01*
X33791375Y25846334D01*
X33928842Y25809500D01*
X33928844Y25809500D01*
X34071156Y25809500D01*
X34071158Y25809500D01*
X34208625Y25846334D01*
X34331875Y25917492D01*
X34412319Y25997936D01*
X34473642Y26031421D01*
X34543334Y26026437D01*
X34587681Y25997936D01*
X34668125Y25917492D01*
X34791375Y25846334D01*
X34928842Y25809500D01*
X34928844Y25809500D01*
X35071156Y25809500D01*
X35071158Y25809500D01*
X35208625Y25846334D01*
X35331875Y25917492D01*
X35412319Y25997936D01*
X35473642Y26031421D01*
X35543334Y26026437D01*
X35587681Y25997936D01*
X35668125Y25917492D01*
X35791375Y25846334D01*
X35928842Y25809500D01*
X35928844Y25809500D01*
X36071156Y25809500D01*
X36071158Y25809500D01*
X36208625Y25846334D01*
X36331875Y25917492D01*
X36432508Y26018125D01*
X36503666Y26141375D01*
X36540500Y26278842D01*
X36540500Y26421158D01*
X36503666Y26558625D01*
X36468087Y26620250D01*
X36432510Y26681872D01*
X36432506Y26681877D01*
X36331876Y26782507D01*
X36331871Y26782511D01*
X36208627Y26853665D01*
X36208626Y26853666D01*
X36208625Y26853666D01*
X36071158Y26890500D01*
X35928842Y26890500D01*
X35791375Y26853666D01*
X35791372Y26853665D01*
X35668128Y26782511D01*
X35668123Y26782507D01*
X35587681Y26702064D01*
X35526358Y26668579D01*
X35456666Y26673563D01*
X35412319Y26702064D01*
X35331876Y26782507D01*
X35331871Y26782511D01*
X35208627Y26853665D01*
X35208626Y26853666D01*
X35208625Y26853666D01*
X35071158Y26890500D01*
X34928842Y26890500D01*
X34791375Y26853666D01*
X34791372Y26853665D01*
X34668128Y26782511D01*
X34668123Y26782507D01*
X34587681Y26702064D01*
X34526358Y26668579D01*
X34456666Y26673563D01*
X34412319Y26702064D01*
X34331876Y26782507D01*
X34331871Y26782511D01*
X34208627Y26853665D01*
X34208626Y26853666D01*
X34208625Y26853666D01*
X34071158Y26890500D01*
X33928842Y26890500D01*
X33791375Y26853666D01*
X33791372Y26853665D01*
X33668128Y26782511D01*
X33668123Y26782507D01*
X33567493Y26681877D01*
X33567489Y26681872D01*
X33496335Y26558628D01*
X33496334Y26558625D01*
X33459500Y26421158D01*
X70500Y26421158D01*
X70500Y29000121D01*
X6109500Y29000121D01*
X6109500Y28699880D01*
X6109501Y28699863D01*
X6148689Y28402198D01*
X6148690Y28402193D01*
X6148691Y28402187D01*
X6226402Y28112163D01*
X6341305Y27834764D01*
X6491432Y27574736D01*
X6491434Y27574733D01*
X6491435Y27574732D01*
X6674214Y27336530D01*
X6674220Y27336523D01*
X6886522Y27124221D01*
X6886529Y27124215D01*
X7026476Y27016830D01*
X7124736Y26941432D01*
X7384764Y26791305D01*
X7662163Y26676402D01*
X7952187Y26598691D01*
X8249873Y26559500D01*
X8249880Y26559500D01*
X8550120Y26559500D01*
X8550127Y26559500D01*
X8847813Y26598691D01*
X9137837Y26676402D01*
X9415236Y26791305D01*
X9675264Y26941432D01*
X9913472Y27124216D01*
X10125784Y27336528D01*
X10305822Y27571158D01*
X10959500Y27571158D01*
X10959500Y27428842D01*
X10984236Y27336528D01*
X10996334Y27291376D01*
X10996335Y27291373D01*
X11067489Y27168129D01*
X11067491Y27168126D01*
X11067492Y27168125D01*
X11168125Y27067492D01*
X11291375Y26996334D01*
X11428842Y26959500D01*
X11428844Y26959500D01*
X11571156Y26959500D01*
X11571158Y26959500D01*
X11708625Y26996334D01*
X11831875Y27067492D01*
X11932508Y27168125D01*
X12003666Y27291375D01*
X12040500Y27428842D01*
X12040500Y27571158D01*
X12459500Y27571158D01*
X12459500Y27428842D01*
X12484236Y27336528D01*
X12496334Y27291376D01*
X12496335Y27291373D01*
X12567489Y27168129D01*
X12567491Y27168126D01*
X12567492Y27168125D01*
X12668125Y27067492D01*
X12791375Y26996334D01*
X12928842Y26959500D01*
X12928844Y26959500D01*
X13071156Y26959500D01*
X13071158Y26959500D01*
X13208625Y26996334D01*
X13331875Y27067492D01*
X13432508Y27168125D01*
X13503666Y27291375D01*
X13540500Y27428842D01*
X13540500Y27571158D01*
X13503666Y27708625D01*
X13468087Y27770250D01*
X13432510Y27831872D01*
X13432506Y27831877D01*
X13331876Y27932507D01*
X13331871Y27932511D01*
X13208627Y28003665D01*
X13208626Y28003666D01*
X13208625Y28003666D01*
X13071158Y28040500D01*
X12928842Y28040500D01*
X12791375Y28003666D01*
X12791372Y28003665D01*
X12668128Y27932511D01*
X12668123Y27932507D01*
X12567493Y27831877D01*
X12567489Y27831872D01*
X12496335Y27708628D01*
X12496334Y27708625D01*
X12459500Y27571158D01*
X12040500Y27571158D01*
X12003666Y27708625D01*
X11968087Y27770250D01*
X11932510Y27831872D01*
X11932506Y27831877D01*
X11831876Y27932507D01*
X11831871Y27932511D01*
X11708627Y28003665D01*
X11708626Y28003666D01*
X11708625Y28003666D01*
X11571158Y28040500D01*
X11428842Y28040500D01*
X11291375Y28003666D01*
X11291372Y28003665D01*
X11168128Y27932511D01*
X11168123Y27932507D01*
X11067493Y27831877D01*
X11067489Y27831872D01*
X10996335Y27708628D01*
X10996334Y27708625D01*
X10959500Y27571158D01*
X10305822Y27571158D01*
X10308568Y27574736D01*
X10458695Y27834764D01*
X10573598Y28112163D01*
X10651309Y28402187D01*
X10690500Y28699873D01*
X10690500Y29000127D01*
X10686272Y29032242D01*
X10682210Y29063100D01*
X10681149Y29071158D01*
X10959500Y29071158D01*
X10959500Y28928842D01*
X10992198Y28806813D01*
X10996334Y28791376D01*
X10996335Y28791373D01*
X11067489Y28668129D01*
X11067491Y28668126D01*
X11067492Y28668125D01*
X11168125Y28567492D01*
X11168126Y28567491D01*
X11168128Y28567490D01*
X11226814Y28533608D01*
X11291375Y28496334D01*
X11428842Y28459500D01*
X11428844Y28459500D01*
X11571156Y28459500D01*
X11571158Y28459500D01*
X11708625Y28496334D01*
X11831875Y28567492D01*
X11932508Y28668125D01*
X12003666Y28791375D01*
X12040500Y28928842D01*
X12040500Y29071158D01*
X12459500Y29071158D01*
X12459500Y28928842D01*
X12492198Y28806813D01*
X12496334Y28791376D01*
X12496335Y28791373D01*
X12567489Y28668129D01*
X12567491Y28668126D01*
X12567492Y28668125D01*
X12668125Y28567492D01*
X12668126Y28567491D01*
X12668128Y28567490D01*
X12726814Y28533608D01*
X12791375Y28496334D01*
X12928842Y28459500D01*
X12928844Y28459500D01*
X13071156Y28459500D01*
X13071158Y28459500D01*
X13208625Y28496334D01*
X13331875Y28567492D01*
X13432508Y28668125D01*
X13503666Y28791375D01*
X13540500Y28928842D01*
X13540500Y29071158D01*
X13503666Y29208625D01*
X13446688Y29307314D01*
X13432510Y29331872D01*
X13432506Y29331877D01*
X13331876Y29432507D01*
X13331871Y29432511D01*
X13208627Y29503665D01*
X13208626Y29503666D01*
X13208625Y29503666D01*
X13071158Y29540500D01*
X12928842Y29540500D01*
X12791375Y29503666D01*
X12791372Y29503665D01*
X12668128Y29432511D01*
X12668123Y29432507D01*
X12567493Y29331877D01*
X12567489Y29331872D01*
X12496335Y29208628D01*
X12496334Y29208625D01*
X12459500Y29071158D01*
X12040500Y29071158D01*
X12003666Y29208625D01*
X11946688Y29307314D01*
X11932510Y29331872D01*
X11932506Y29331877D01*
X11831876Y29432507D01*
X11831871Y29432511D01*
X11708627Y29503665D01*
X11708626Y29503666D01*
X11708625Y29503666D01*
X11571158Y29540500D01*
X11428842Y29540500D01*
X11291375Y29503666D01*
X11291372Y29503665D01*
X11168128Y29432511D01*
X11168123Y29432507D01*
X11067493Y29331877D01*
X11067489Y29331872D01*
X10996335Y29208628D01*
X10996334Y29208625D01*
X10959500Y29071158D01*
X10681149Y29071158D01*
X10665083Y29193188D01*
X10651309Y29297813D01*
X10573598Y29587837D01*
X10458695Y29865236D01*
X10458316Y29865892D01*
X20499500Y29865892D01*
X20499500Y29734109D01*
X20533608Y29606813D01*
X20566554Y29549750D01*
X20599500Y29492686D01*
X20599502Y29492684D01*
X20604505Y29487681D01*
X20637990Y29426358D01*
X20633006Y29356666D01*
X20604505Y29312319D01*
X20599502Y29307317D01*
X20599500Y29307314D01*
X20533608Y29193188D01*
X20500911Y29071158D01*
X20499500Y29065892D01*
X20499500Y28934108D01*
X20500911Y28928843D01*
X20533608Y28806813D01*
X20566554Y28749750D01*
X20599500Y28692686D01*
X20599502Y28692684D01*
X20692687Y28599499D01*
X20694158Y28598370D01*
X20695083Y28597103D01*
X20698433Y28593753D01*
X20697910Y28593231D01*
X20735356Y28541940D01*
X20739506Y28472193D01*
X20705289Y28411275D01*
X20694158Y28401630D01*
X20692687Y28400502D01*
X20599502Y28307317D01*
X20599500Y28307314D01*
X20533608Y28193188D01*
X20499500Y28065892D01*
X20499500Y27934109D01*
X20533608Y27806813D01*
X20566554Y27749750D01*
X20599500Y27692686D01*
X20692686Y27599500D01*
X20806814Y27533608D01*
X20934108Y27499500D01*
X20934110Y27499500D01*
X21065890Y27499500D01*
X21065892Y27499500D01*
X21193186Y27533608D01*
X21307314Y27599500D01*
X21400500Y27692686D01*
X21400504Y27692694D01*
X21401625Y27694153D01*
X21402892Y27695079D01*
X21406247Y27698433D01*
X21406770Y27697910D01*
X21458053Y27735355D01*
X21527799Y27739509D01*
X21588719Y27705296D01*
X21598375Y27694153D01*
X21599498Y27692689D01*
X21599500Y27692686D01*
X21692686Y27599500D01*
X21806814Y27533608D01*
X21934108Y27499500D01*
X21934110Y27499500D01*
X22065890Y27499500D01*
X22065892Y27499500D01*
X22193186Y27533608D01*
X22307314Y27599500D01*
X22400500Y27692686D01*
X22466392Y27806814D01*
X22500500Y27934108D01*
X22500500Y28065892D01*
X22466392Y28193186D01*
X22400500Y28307314D01*
X22307314Y28400500D01*
X22307311Y28400502D01*
X22305847Y28401625D01*
X22304921Y28402893D01*
X22301567Y28406247D01*
X22302090Y28406771D01*
X22264645Y28458053D01*
X22260491Y28527799D01*
X22294704Y28588719D01*
X22305847Y28598375D01*
X22307306Y28599496D01*
X22307314Y28599500D01*
X22400500Y28692686D01*
X22466392Y28806814D01*
X22500500Y28934108D01*
X22500500Y29065892D01*
X22466392Y29193186D01*
X22400500Y29307314D01*
X22395495Y29312319D01*
X22362010Y29373642D01*
X22366994Y29443334D01*
X22395495Y29487681D01*
X22400500Y29492686D01*
X22466392Y29606814D01*
X22500500Y29734108D01*
X22500500Y29865892D01*
X22466392Y29993186D01*
X22464574Y29996334D01*
X22457563Y30008479D01*
X22400500Y30107314D01*
X22307314Y30200500D01*
X22250250Y30233446D01*
X22193187Y30266392D01*
X22129539Y30283446D01*
X22065892Y30300500D01*
X21934108Y30300500D01*
X21806812Y30266392D01*
X21692686Y30200500D01*
X21692683Y30200498D01*
X21599498Y30107313D01*
X21598370Y30105842D01*
X21597102Y30104917D01*
X21593753Y30101567D01*
X21593230Y30102090D01*
X21541940Y30064644D01*
X21472193Y30060494D01*
X21411275Y30094711D01*
X21401630Y30105842D01*
X21400501Y30107313D01*
X21307316Y30200498D01*
X21307314Y30200500D01*
X21250250Y30233446D01*
X21193187Y30266392D01*
X21129539Y30283446D01*
X21065892Y30300500D01*
X20934108Y30300500D01*
X20806812Y30266392D01*
X20692686Y30200500D01*
X20692683Y30200498D01*
X20599502Y30107317D01*
X20599500Y30107314D01*
X20533608Y29993188D01*
X20499500Y29865892D01*
X10458316Y29865892D01*
X10308568Y30125264D01*
X10125784Y30363472D01*
X10125779Y30363478D01*
X9918099Y30571158D01*
X10959500Y30571158D01*
X10959500Y30428842D01*
X10962182Y30418835D01*
X10996334Y30291376D01*
X10996335Y30291373D01*
X11067489Y30168129D01*
X11067491Y30168126D01*
X11067492Y30168125D01*
X11168125Y30067492D01*
X11168126Y30067491D01*
X11168128Y30067490D01*
X11180246Y30060494D01*
X11291375Y29996334D01*
X11428842Y29959500D01*
X11428844Y29959500D01*
X11571156Y29959500D01*
X11571158Y29959500D01*
X11708625Y29996334D01*
X11831875Y30067492D01*
X11932508Y30168125D01*
X12003666Y30291375D01*
X12040500Y30428842D01*
X12040500Y30571158D01*
X12459500Y30571158D01*
X12459500Y30428842D01*
X12462182Y30418835D01*
X12496334Y30291376D01*
X12496335Y30291373D01*
X12567489Y30168129D01*
X12567491Y30168126D01*
X12567492Y30168125D01*
X12668125Y30067492D01*
X12668126Y30067491D01*
X12668128Y30067490D01*
X12680246Y30060494D01*
X12791375Y29996334D01*
X12928842Y29959500D01*
X12928844Y29959500D01*
X13071156Y29959500D01*
X13071158Y29959500D01*
X13208625Y29996334D01*
X13331875Y30067492D01*
X13432508Y30168125D01*
X13503666Y30291375D01*
X13540500Y30428842D01*
X13540500Y30571158D01*
X13503666Y30708625D01*
X13432508Y30831875D01*
X13331875Y30932508D01*
X13331874Y30932509D01*
X13331871Y30932511D01*
X13225960Y30993658D01*
X40892500Y30993658D01*
X40892500Y30851342D01*
X40917360Y30758565D01*
X40929334Y30713876D01*
X40929335Y30713873D01*
X41000489Y30590629D01*
X41000491Y30590626D01*
X41000492Y30590625D01*
X41101125Y30489992D01*
X41224375Y30418834D01*
X41361842Y30382000D01*
X41361844Y30382000D01*
X41504156Y30382000D01*
X41504158Y30382000D01*
X41641625Y30418834D01*
X41764875Y30489992D01*
X41865508Y30590625D01*
X41936666Y30713875D01*
X41973500Y30851342D01*
X41973500Y30993658D01*
X41936666Y31131125D01*
X41865508Y31254375D01*
X41764875Y31355008D01*
X41764874Y31355009D01*
X41764871Y31355011D01*
X41641627Y31426165D01*
X41641626Y31426166D01*
X41641625Y31426166D01*
X41504158Y31463000D01*
X41361842Y31463000D01*
X41224375Y31426166D01*
X41224372Y31426165D01*
X41101128Y31355011D01*
X41101123Y31355007D01*
X41000493Y31254377D01*
X41000489Y31254372D01*
X40929335Y31131128D01*
X40929334Y31131125D01*
X40892500Y30993658D01*
X13225960Y30993658D01*
X13208627Y31003665D01*
X13208626Y31003666D01*
X13208625Y31003666D01*
X13071158Y31040500D01*
X12928842Y31040500D01*
X12791375Y31003666D01*
X12791372Y31003665D01*
X12668128Y30932511D01*
X12668123Y30932507D01*
X12567493Y30831877D01*
X12567489Y30831872D01*
X12496335Y30708628D01*
X12496334Y30708625D01*
X12459500Y30571158D01*
X12040500Y30571158D01*
X12003666Y30708625D01*
X11932508Y30831875D01*
X11831875Y30932508D01*
X11831874Y30932509D01*
X11831871Y30932511D01*
X11708627Y31003665D01*
X11708626Y31003666D01*
X11708625Y31003666D01*
X11571158Y31040500D01*
X11428842Y31040500D01*
X11291375Y31003666D01*
X11291372Y31003665D01*
X11168128Y30932511D01*
X11168123Y30932507D01*
X11067493Y30831877D01*
X11067489Y30831872D01*
X10996335Y30708628D01*
X10996334Y30708625D01*
X10959500Y30571158D01*
X9918099Y30571158D01*
X9913477Y30575780D01*
X9913470Y30575786D01*
X9675268Y30758565D01*
X9675267Y30758566D01*
X9675264Y30758568D01*
X9415236Y30908695D01*
X9385664Y30920944D01*
X9185959Y31003665D01*
X9137837Y31023598D01*
X9137835Y31023599D01*
X9137834Y31023599D01*
X9051671Y31046686D01*
X8847813Y31101309D01*
X8847807Y31101310D01*
X8847802Y31101311D01*
X8550137Y31140499D01*
X8550132Y31140500D01*
X8550127Y31140500D01*
X8249873Y31140500D01*
X8249867Y31140500D01*
X8249862Y31140499D01*
X7952197Y31101311D01*
X7952190Y31101310D01*
X7952187Y31101309D01*
X7869141Y31079057D01*
X7662165Y31023599D01*
X7384770Y30908698D01*
X7384761Y30908694D01*
X7251702Y30831872D01*
X7141437Y30768210D01*
X7124731Y30758565D01*
X6886529Y30575786D01*
X6886522Y30575780D01*
X6674220Y30363478D01*
X6674214Y30363471D01*
X6491435Y30125269D01*
X6341306Y29865239D01*
X6341302Y29865230D01*
X6226401Y29587835D01*
X6187683Y29443334D01*
X6164461Y29356666D01*
X6148692Y29297816D01*
X6148689Y29297803D01*
X6109501Y29000138D01*
X6109500Y29000121D01*
X70500Y29000121D01*
X70500Y31579057D01*
X53649500Y31579057D01*
X53649500Y31420943D01*
X53667168Y31355007D01*
X53690423Y31268217D01*
X53690426Y31268210D01*
X53769475Y31131291D01*
X53769479Y31131286D01*
X53769480Y31131284D01*
X53881284Y31019480D01*
X53881286Y31019479D01*
X53881290Y31019476D01*
X54018209Y30940427D01*
X54018216Y30940423D01*
X54170943Y30899500D01*
X54170945Y30899500D01*
X54329055Y30899500D01*
X54329057Y30899500D01*
X54481784Y30940423D01*
X54618716Y31019480D01*
X54678293Y31079057D01*
X55899500Y31079057D01*
X55899500Y30920943D01*
X55923367Y30831872D01*
X55940423Y30768217D01*
X55940426Y30768210D01*
X56019475Y30631291D01*
X56019479Y30631286D01*
X56019480Y30631284D01*
X56131284Y30519480D01*
X56131286Y30519479D01*
X56131290Y30519476D01*
X56268209Y30440427D01*
X56268216Y30440423D01*
X56420943Y30399500D01*
X56420945Y30399500D01*
X56579055Y30399500D01*
X56579057Y30399500D01*
X56731784Y30440423D01*
X56868716Y30519480D01*
X56980520Y30631284D01*
X57059577Y30768216D01*
X57100500Y30920943D01*
X57100500Y31079057D01*
X57059577Y31231784D01*
X56988435Y31355007D01*
X56980524Y31368710D01*
X56980518Y31368718D01*
X56868717Y31480519D01*
X56868709Y31480525D01*
X56731790Y31559574D01*
X56731786Y31559576D01*
X56731784Y31559577D01*
X56579057Y31600500D01*
X56420943Y31600500D01*
X56268216Y31559577D01*
X56268209Y31559574D01*
X56131290Y31480525D01*
X56131282Y31480519D01*
X56019481Y31368718D01*
X56019475Y31368710D01*
X55940426Y31231791D01*
X55940423Y31231784D01*
X55899500Y31079057D01*
X54678293Y31079057D01*
X54730520Y31131284D01*
X54735841Y31140500D01*
X54740855Y31149184D01*
X54788547Y31231791D01*
X54809577Y31268216D01*
X54850500Y31420943D01*
X54850500Y31579057D01*
X54809577Y31731784D01*
X54809573Y31731791D01*
X54730524Y31868710D01*
X54730518Y31868718D01*
X54618717Y31980519D01*
X54618709Y31980525D01*
X54481790Y32059574D01*
X54481786Y32059576D01*
X54481784Y32059577D01*
X54329057Y32100500D01*
X54170943Y32100500D01*
X54018216Y32059577D01*
X54018209Y32059574D01*
X53881290Y31980525D01*
X53881282Y31980519D01*
X53769481Y31868718D01*
X53769475Y31868710D01*
X53690426Y31731791D01*
X53690423Y31731784D01*
X53649500Y31579057D01*
X70500Y31579057D01*
X70500Y32671158D01*
X25659500Y32671158D01*
X25659500Y32528842D01*
X25668211Y32496334D01*
X25696334Y32391376D01*
X25696335Y32391373D01*
X25767489Y32268129D01*
X25767491Y32268126D01*
X25767492Y32268125D01*
X25868125Y32167492D01*
X25991375Y32096334D01*
X26128842Y32059500D01*
X26128844Y32059500D01*
X26271156Y32059500D01*
X26271158Y32059500D01*
X26408625Y32096334D01*
X26531875Y32167492D01*
X26612319Y32247936D01*
X26673642Y32281421D01*
X26743334Y32276437D01*
X26787681Y32247936D01*
X26868125Y32167492D01*
X26991375Y32096334D01*
X27128842Y32059500D01*
X27128844Y32059500D01*
X27271156Y32059500D01*
X27271158Y32059500D01*
X27408625Y32096334D01*
X27531875Y32167492D01*
X27612319Y32247936D01*
X27673642Y32281421D01*
X27743334Y32276437D01*
X27787681Y32247936D01*
X27868125Y32167492D01*
X27991375Y32096334D01*
X28128842Y32059500D01*
X28128844Y32059500D01*
X28271156Y32059500D01*
X28271158Y32059500D01*
X28408625Y32096334D01*
X28531875Y32167492D01*
X28612319Y32247936D01*
X28673642Y32281421D01*
X28743334Y32276437D01*
X28787681Y32247936D01*
X28868125Y32167492D01*
X28991375Y32096334D01*
X29128842Y32059500D01*
X29128844Y32059500D01*
X29271156Y32059500D01*
X29271158Y32059500D01*
X29408625Y32096334D01*
X29531875Y32167492D01*
X29632508Y32268125D01*
X29703666Y32391375D01*
X29740500Y32528842D01*
X29740500Y32671158D01*
X29703666Y32808625D01*
X29668087Y32870250D01*
X29632510Y32931872D01*
X29632506Y32931877D01*
X29531876Y33032507D01*
X29531871Y33032511D01*
X29464932Y33071158D01*
X30669500Y33071158D01*
X30669500Y32928842D01*
X30700011Y32814975D01*
X30706334Y32791376D01*
X30706335Y32791373D01*
X30777489Y32668129D01*
X30777491Y32668126D01*
X30777492Y32668125D01*
X30878125Y32567492D01*
X31001375Y32496334D01*
X31138842Y32459500D01*
X31138844Y32459500D01*
X31281156Y32459500D01*
X31281158Y32459500D01*
X31418625Y32496334D01*
X31541875Y32567492D01*
X31642508Y32668125D01*
X31713666Y32791375D01*
X31750500Y32928842D01*
X31750500Y33071158D01*
X31713666Y33208625D01*
X31642508Y33331875D01*
X31541875Y33432508D01*
X31541874Y33432509D01*
X31541871Y33432511D01*
X31418627Y33503665D01*
X31418626Y33503666D01*
X31418625Y33503666D01*
X31281158Y33540500D01*
X31138842Y33540500D01*
X31001375Y33503666D01*
X31001372Y33503665D01*
X30878128Y33432511D01*
X30878123Y33432507D01*
X30777493Y33331877D01*
X30777489Y33331872D01*
X30706335Y33208628D01*
X30706334Y33208625D01*
X30669500Y33071158D01*
X29464932Y33071158D01*
X29408627Y33103665D01*
X29408626Y33103666D01*
X29408625Y33103666D01*
X29271158Y33140500D01*
X29128842Y33140500D01*
X28991375Y33103666D01*
X28991372Y33103665D01*
X28868128Y33032511D01*
X28868123Y33032507D01*
X28787681Y32952064D01*
X28726358Y32918579D01*
X28656666Y32923563D01*
X28612319Y32952064D01*
X28531876Y33032507D01*
X28531871Y33032511D01*
X28408627Y33103665D01*
X28408626Y33103666D01*
X28408625Y33103666D01*
X28271158Y33140500D01*
X28128842Y33140500D01*
X27991375Y33103666D01*
X27991372Y33103665D01*
X27868128Y33032511D01*
X27868123Y33032507D01*
X27787681Y32952064D01*
X27726358Y32918579D01*
X27656666Y32923563D01*
X27612319Y32952064D01*
X27531876Y33032507D01*
X27531871Y33032511D01*
X27408627Y33103665D01*
X27408626Y33103666D01*
X27408625Y33103666D01*
X27271158Y33140500D01*
X27128842Y33140500D01*
X26991375Y33103666D01*
X26991372Y33103665D01*
X26868128Y33032511D01*
X26868123Y33032507D01*
X26787681Y32952064D01*
X26726358Y32918579D01*
X26656666Y32923563D01*
X26612319Y32952064D01*
X26531876Y33032507D01*
X26531871Y33032511D01*
X26408627Y33103665D01*
X26408626Y33103666D01*
X26408625Y33103666D01*
X26271158Y33140500D01*
X26128842Y33140500D01*
X25991375Y33103666D01*
X25991372Y33103665D01*
X25868128Y33032511D01*
X25868123Y33032507D01*
X25767493Y32931877D01*
X25767489Y32931872D01*
X25696335Y32808628D01*
X25696334Y32808625D01*
X25659500Y32671158D01*
X70500Y32671158D01*
X70500Y34571158D01*
X59459500Y34571158D01*
X59459500Y34428843D01*
X59496334Y34291376D01*
X59496335Y34291373D01*
X59567489Y34168129D01*
X59567491Y34168126D01*
X59567492Y34168125D01*
X59668125Y34067492D01*
X59791375Y33996334D01*
X59928842Y33959500D01*
X59928844Y33959500D01*
X60071156Y33959500D01*
X60071158Y33959500D01*
X60208625Y33996334D01*
X60331875Y34067492D01*
X60432508Y34168125D01*
X60503666Y34291375D01*
X60540500Y34428842D01*
X60540500Y34571158D01*
X60503666Y34708625D01*
X60432508Y34831875D01*
X60331875Y34932508D01*
X60331874Y34932509D01*
X60331871Y34932511D01*
X60208627Y35003665D01*
X60208626Y35003666D01*
X60208625Y35003666D01*
X60071158Y35040500D01*
X59928842Y35040500D01*
X59791375Y35003666D01*
X59791372Y35003665D01*
X59668128Y34932511D01*
X59668123Y34932507D01*
X59567493Y34831877D01*
X59567489Y34831872D01*
X59496335Y34708628D01*
X59496334Y34708625D01*
X59459500Y34571158D01*
X70500Y34571158D01*
X70500Y35565892D01*
X40249500Y35565892D01*
X40249500Y35434109D01*
X40283608Y35306813D01*
X40316554Y35249750D01*
X40349500Y35192686D01*
X40442686Y35099500D01*
X40556814Y35033608D01*
X40684108Y34999500D01*
X40684110Y34999500D01*
X40815890Y34999500D01*
X40815892Y34999500D01*
X40943186Y35033608D01*
X41057314Y35099500D01*
X41150500Y35192686D01*
X41216392Y35306814D01*
X41250500Y35434108D01*
X41250500Y35565892D01*
X41216392Y35693186D01*
X41150500Y35807314D01*
X41057314Y35900500D01*
X41000250Y35933446D01*
X40943187Y35966392D01*
X40879539Y35983446D01*
X40815892Y36000500D01*
X40684108Y36000500D01*
X40556812Y35966392D01*
X40442686Y35900500D01*
X40442683Y35900498D01*
X40349502Y35807317D01*
X40349500Y35807314D01*
X40283608Y35693188D01*
X40249500Y35565892D01*
X70500Y35565892D01*
X70500Y36565892D01*
X38899500Y36565892D01*
X38899500Y36434109D01*
X38933608Y36306813D01*
X38966554Y36249750D01*
X38999500Y36192686D01*
X39092686Y36099500D01*
X39206814Y36033608D01*
X39334108Y35999500D01*
X39334110Y35999500D01*
X39465890Y35999500D01*
X39465892Y35999500D01*
X39593186Y36033608D01*
X39707314Y36099500D01*
X39800500Y36192686D01*
X39866392Y36306814D01*
X39900500Y36434108D01*
X39900500Y36565892D01*
X39866392Y36693186D01*
X39800500Y36807314D01*
X39707314Y36900500D01*
X39650250Y36933446D01*
X39593187Y36966392D01*
X39529539Y36983446D01*
X39465892Y37000500D01*
X39334108Y37000500D01*
X39206812Y36966392D01*
X39092686Y36900500D01*
X39092683Y36900498D01*
X38999502Y36807317D01*
X38999500Y36807314D01*
X38933608Y36693188D01*
X38899500Y36565892D01*
X70500Y36565892D01*
X70500Y37571158D01*
X37709500Y37571158D01*
X37709500Y37428843D01*
X37746334Y37291376D01*
X37746335Y37291373D01*
X37817489Y37168129D01*
X37817491Y37168126D01*
X37817492Y37168125D01*
X37918125Y37067492D01*
X38041375Y36996334D01*
X38178842Y36959500D01*
X38178844Y36959500D01*
X38321156Y36959500D01*
X38321158Y36959500D01*
X38458625Y36996334D01*
X38581875Y37067492D01*
X38682508Y37168125D01*
X38753666Y37291375D01*
X38790500Y37428842D01*
X38790500Y37571158D01*
X38753666Y37708625D01*
X38682508Y37831875D01*
X38581875Y37932508D01*
X38581874Y37932509D01*
X38581871Y37932511D01*
X38458627Y38003665D01*
X38458626Y38003666D01*
X38458625Y38003666D01*
X38321158Y38040500D01*
X38178842Y38040500D01*
X38041375Y38003666D01*
X38041372Y38003665D01*
X37918128Y37932511D01*
X37918123Y37932507D01*
X37817493Y37831877D01*
X37817489Y37831872D01*
X37746335Y37708628D01*
X37746334Y37708625D01*
X37709500Y37571158D01*
X70500Y37571158D01*
X70500Y39669753D01*
X1199500Y39669753D01*
X1199500Y38730248D01*
X1211131Y38671771D01*
X1211132Y38671770D01*
X1255447Y38605448D01*
X1321769Y38561133D01*
X1321770Y38561132D01*
X1380247Y38549501D01*
X1380250Y38549500D01*
X1380252Y38549500D01*
X3419750Y38549500D01*
X3419751Y38549501D01*
X3434568Y38552448D01*
X3478229Y38561132D01*
X3478229Y38561133D01*
X3478231Y38561133D01*
X3485353Y38565892D01*
X36749500Y38565892D01*
X36749500Y38434109D01*
X36783608Y38306813D01*
X36816554Y38249750D01*
X36849500Y38192686D01*
X36942686Y38099500D01*
X37056814Y38033608D01*
X37184108Y37999500D01*
X37184110Y37999500D01*
X37315890Y37999500D01*
X37315892Y37999500D01*
X37443186Y38033608D01*
X37557314Y38099500D01*
X37650500Y38192686D01*
X37716392Y38306814D01*
X37750500Y38434108D01*
X37750500Y38565892D01*
X37716392Y38693186D01*
X37650500Y38807314D01*
X37557314Y38900500D01*
X37500250Y38933446D01*
X37443187Y38966392D01*
X37379539Y38983446D01*
X37315892Y39000500D01*
X37184108Y39000500D01*
X37056812Y38966392D01*
X36942686Y38900500D01*
X36942683Y38900498D01*
X36849502Y38807317D01*
X36849500Y38807314D01*
X36783608Y38693188D01*
X36749500Y38565892D01*
X3485353Y38565892D01*
X3544552Y38605448D01*
X3588867Y38671769D01*
X3588867Y38671771D01*
X3588868Y38671771D01*
X3600499Y38730248D01*
X3600500Y38730250D01*
X3600500Y39669751D01*
X3600499Y39669753D01*
X3588868Y39728230D01*
X3588867Y39728231D01*
X3544552Y39794553D01*
X3478230Y39838868D01*
X3478229Y39838869D01*
X3419752Y39850500D01*
X3419748Y39850500D01*
X1380252Y39850500D01*
X1380247Y39850500D01*
X1321770Y39838869D01*
X1321769Y39838868D01*
X1255447Y39794553D01*
X1211132Y39728231D01*
X1211131Y39728230D01*
X1199500Y39669753D01*
X70500Y39669753D01*
X70500Y40321158D01*
X8472000Y40321158D01*
X8472000Y40178842D01*
X8504988Y40055731D01*
X8508834Y40041376D01*
X8508835Y40041373D01*
X8579989Y39918129D01*
X8579991Y39918126D01*
X8579992Y39918125D01*
X8680625Y39817492D01*
X8803875Y39746334D01*
X8941342Y39709500D01*
X8941344Y39709500D01*
X9083656Y39709500D01*
X9083658Y39709500D01*
X9213004Y39744158D01*
X42559500Y39744158D01*
X42559500Y39601843D01*
X42596334Y39464376D01*
X42596335Y39464373D01*
X42667489Y39341129D01*
X42667491Y39341126D01*
X42667492Y39341125D01*
X42768125Y39240492D01*
X42891375Y39169334D01*
X43028842Y39132500D01*
X43028844Y39132500D01*
X43171156Y39132500D01*
X43171158Y39132500D01*
X43308625Y39169334D01*
X43431875Y39240492D01*
X43532508Y39341125D01*
X43547600Y39367267D01*
X43598167Y39415482D01*
X43666774Y39428706D01*
X43731639Y39402738D01*
X43742669Y39392948D01*
X43818125Y39317492D01*
X43941375Y39246334D01*
X44078842Y39209500D01*
X44078844Y39209500D01*
X44221156Y39209500D01*
X44221158Y39209500D01*
X44358625Y39246334D01*
X44481875Y39317492D01*
X44582508Y39418125D01*
X44653666Y39541375D01*
X44690500Y39678842D01*
X44690500Y39821158D01*
X44653666Y39958625D01*
X44582508Y40081875D01*
X44481875Y40182508D01*
X44481874Y40182509D01*
X44481871Y40182511D01*
X44358627Y40253665D01*
X44358626Y40253666D01*
X44358625Y40253666D01*
X44221158Y40290500D01*
X44078842Y40290500D01*
X43941375Y40253666D01*
X43941372Y40253665D01*
X43818128Y40182511D01*
X43818123Y40182507D01*
X43717493Y40081877D01*
X43717491Y40081874D01*
X43702397Y40055731D01*
X43651828Y40007517D01*
X43583221Y39994296D01*
X43518357Y40020265D01*
X43507330Y40030053D01*
X43431876Y40105507D01*
X43431871Y40105511D01*
X43308627Y40176665D01*
X43308626Y40176666D01*
X43308625Y40176666D01*
X43171158Y40213500D01*
X43028842Y40213500D01*
X42891375Y40176666D01*
X42891372Y40176665D01*
X42768128Y40105511D01*
X42768123Y40105507D01*
X42667493Y40004877D01*
X42667489Y40004872D01*
X42596335Y39881628D01*
X42596334Y39881625D01*
X42559500Y39744158D01*
X9213004Y39744158D01*
X9221125Y39746334D01*
X9344375Y39817492D01*
X9445008Y39918125D01*
X9516166Y40041375D01*
X9553000Y40178842D01*
X9553000Y40321158D01*
X9516166Y40458625D01*
X9445008Y40581875D01*
X9344375Y40682508D01*
X9344374Y40682509D01*
X9344371Y40682511D01*
X9221127Y40753665D01*
X9221126Y40753666D01*
X9221125Y40753666D01*
X9083658Y40790500D01*
X8941342Y40790500D01*
X8803875Y40753666D01*
X8803872Y40753665D01*
X8680628Y40682511D01*
X8680623Y40682507D01*
X8579993Y40581877D01*
X8579989Y40581872D01*
X8508835Y40458628D01*
X8508834Y40458625D01*
X8472000Y40321158D01*
X70500Y40321158D01*
X70500Y41865892D01*
X31699500Y41865892D01*
X31699500Y41734109D01*
X31733608Y41606813D01*
X31766554Y41549750D01*
X31799500Y41492686D01*
X31892686Y41399500D01*
X32006814Y41333608D01*
X32134108Y41299500D01*
X32134110Y41299500D01*
X32265890Y41299500D01*
X32265892Y41299500D01*
X32393186Y41333608D01*
X32507314Y41399500D01*
X32600500Y41492686D01*
X32666392Y41606814D01*
X32700500Y41734108D01*
X32700500Y41865892D01*
X32671801Y41972999D01*
X58092393Y41972999D01*
X58092393Y41841216D01*
X58126501Y41713920D01*
X58159447Y41656857D01*
X58192393Y41599793D01*
X58285579Y41506607D01*
X58399707Y41440715D01*
X58527001Y41406607D01*
X58527003Y41406607D01*
X58658783Y41406607D01*
X58658785Y41406607D01*
X58786079Y41440715D01*
X58900207Y41506607D01*
X58993393Y41599793D01*
X59059285Y41713921D01*
X59093393Y41841215D01*
X59093393Y41972999D01*
X59059285Y42100293D01*
X58993393Y42214421D01*
X58900207Y42307607D01*
X58843143Y42340553D01*
X58786080Y42373499D01*
X58722432Y42390553D01*
X58658785Y42407607D01*
X58527001Y42407607D01*
X58399705Y42373499D01*
X58285579Y42307607D01*
X58285576Y42307605D01*
X58192395Y42214424D01*
X58192393Y42214421D01*
X58126501Y42100295D01*
X58092393Y41972999D01*
X32671801Y41972999D01*
X32666392Y41993186D01*
X32600500Y42107314D01*
X32507314Y42200500D01*
X32450250Y42233446D01*
X32393187Y42266392D01*
X32329539Y42283446D01*
X32265892Y42300500D01*
X32134108Y42300500D01*
X32006812Y42266392D01*
X31892686Y42200500D01*
X31892683Y42200498D01*
X31799502Y42107317D01*
X31799500Y42107314D01*
X31733608Y41993188D01*
X31699500Y41865892D01*
X70500Y41865892D01*
X70500Y43465892D01*
X18499500Y43465892D01*
X18499500Y43334109D01*
X18533608Y43206813D01*
X18559480Y43162003D01*
X18599500Y43092686D01*
X18692686Y42999500D01*
X18806814Y42933608D01*
X18934108Y42899500D01*
X18934110Y42899500D01*
X19065890Y42899500D01*
X19065892Y42899500D01*
X19193186Y42933608D01*
X19307314Y42999500D01*
X19400500Y43092686D01*
X19466392Y43206814D01*
X19500500Y43334108D01*
X19500500Y43465892D01*
X27899500Y43465892D01*
X27899500Y43334109D01*
X27933608Y43206813D01*
X27959480Y43162003D01*
X27999500Y43092686D01*
X28092686Y42999500D01*
X28206814Y42933608D01*
X28334108Y42899500D01*
X28334110Y42899500D01*
X28465890Y42899500D01*
X28465892Y42899500D01*
X28593186Y42933608D01*
X28707314Y42999500D01*
X28800500Y43092686D01*
X28866392Y43206814D01*
X28900500Y43334108D01*
X28900500Y43465892D01*
X28866392Y43593186D01*
X28846066Y43628392D01*
X35462000Y43628392D01*
X35462000Y43496608D01*
X35472888Y43455974D01*
X35496108Y43369313D01*
X35516434Y43334108D01*
X35562000Y43255186D01*
X35655186Y43162000D01*
X35769314Y43096108D01*
X35896608Y43062000D01*
X35896610Y43062000D01*
X36028390Y43062000D01*
X36028392Y43062000D01*
X36155686Y43096108D01*
X36269814Y43162000D01*
X36363000Y43255186D01*
X36428892Y43369314D01*
X36463000Y43496608D01*
X36463000Y43628392D01*
X36428892Y43755686D01*
X36363000Y43869814D01*
X36269814Y43963000D01*
X36226066Y43988258D01*
X39586080Y43988258D01*
X39586080Y43856475D01*
X39620188Y43729179D01*
X39632812Y43707314D01*
X39686080Y43615052D01*
X39779266Y43521866D01*
X39893394Y43455974D01*
X40020688Y43421866D01*
X40020690Y43421866D01*
X40152470Y43421866D01*
X40152472Y43421866D01*
X40279766Y43455974D01*
X40393894Y43521866D01*
X40487080Y43615052D01*
X40552972Y43729180D01*
X40587080Y43856474D01*
X40587080Y43988258D01*
X40552972Y44115552D01*
X40487080Y44229680D01*
X40393894Y44322866D01*
X40336830Y44355812D01*
X40279767Y44388758D01*
X40216119Y44405812D01*
X40152472Y44422866D01*
X40020688Y44422866D01*
X39893392Y44388758D01*
X39779266Y44322866D01*
X39779263Y44322864D01*
X39686082Y44229683D01*
X39686080Y44229680D01*
X39620188Y44115554D01*
X39586080Y43988258D01*
X36226066Y43988258D01*
X36212750Y43995946D01*
X36155687Y44028892D01*
X36092039Y44045946D01*
X36028392Y44063000D01*
X35896608Y44063000D01*
X35769312Y44028892D01*
X35655186Y43963000D01*
X35655183Y43962998D01*
X35562002Y43869817D01*
X35562000Y43869814D01*
X35496108Y43755688D01*
X35483147Y43707314D01*
X35462000Y43628392D01*
X28846066Y43628392D01*
X28800500Y43707314D01*
X28707314Y43800500D01*
X28650250Y43833446D01*
X28593187Y43866392D01*
X28529539Y43883446D01*
X28465892Y43900500D01*
X28334108Y43900500D01*
X28206812Y43866392D01*
X28092686Y43800500D01*
X28092683Y43800498D01*
X27999502Y43707317D01*
X27999500Y43707314D01*
X27933608Y43593188D01*
X27899500Y43465892D01*
X19500500Y43465892D01*
X19466392Y43593186D01*
X19400500Y43707314D01*
X19307314Y43800500D01*
X19250250Y43833446D01*
X19193187Y43866392D01*
X19129539Y43883446D01*
X19065892Y43900500D01*
X18934108Y43900500D01*
X18806812Y43866392D01*
X18692686Y43800500D01*
X18692683Y43800498D01*
X18599502Y43707317D01*
X18599500Y43707314D01*
X18533608Y43593188D01*
X18499500Y43465892D01*
X70500Y43465892D01*
X70500Y45265892D01*
X9499500Y45265892D01*
X9499500Y45134109D01*
X9533608Y45006813D01*
X9566554Y44949750D01*
X9599500Y44892686D01*
X9692686Y44799500D01*
X9806814Y44733608D01*
X9934108Y44699500D01*
X9934110Y44699500D01*
X10065890Y44699500D01*
X10065892Y44699500D01*
X10193186Y44733608D01*
X10307314Y44799500D01*
X10400500Y44892686D01*
X10466392Y45006814D01*
X10500500Y45134108D01*
X10500500Y45265892D01*
X10466392Y45393186D01*
X10442764Y45434110D01*
X10400503Y45507309D01*
X10400502Y45507310D01*
X10400500Y45507314D01*
X10341922Y45565892D01*
X51499500Y45565892D01*
X51499500Y45434109D01*
X51533608Y45306813D01*
X51566554Y45249750D01*
X51599500Y45192686D01*
X51692686Y45099500D01*
X51806814Y45033608D01*
X51934108Y44999500D01*
X51934110Y44999500D01*
X52065890Y44999500D01*
X52065892Y44999500D01*
X52193186Y45033608D01*
X52307314Y45099500D01*
X52400500Y45192686D01*
X52466392Y45306814D01*
X52500500Y45434108D01*
X52500500Y45565892D01*
X60999500Y45565892D01*
X60999500Y45434109D01*
X61033608Y45306813D01*
X61066554Y45249750D01*
X61099500Y45192686D01*
X61192686Y45099500D01*
X61306814Y45033608D01*
X61434108Y44999500D01*
X61434110Y44999500D01*
X61565890Y44999500D01*
X61565892Y44999500D01*
X61693186Y45033608D01*
X61807314Y45099500D01*
X61900500Y45192686D01*
X61966392Y45306814D01*
X62000500Y45434108D01*
X62000500Y45565892D01*
X61966392Y45693186D01*
X61900500Y45807314D01*
X61807314Y45900500D01*
X61750250Y45933446D01*
X61693187Y45966392D01*
X61629539Y45983446D01*
X61565892Y46000500D01*
X61434108Y46000500D01*
X61306812Y45966392D01*
X61192686Y45900500D01*
X61192683Y45900498D01*
X61099502Y45807317D01*
X61099500Y45807314D01*
X61033608Y45693188D01*
X60999500Y45565892D01*
X52500500Y45565892D01*
X52466392Y45693186D01*
X52400500Y45807314D01*
X52307314Y45900500D01*
X52250250Y45933446D01*
X52193187Y45966392D01*
X52129539Y45983446D01*
X52065892Y46000500D01*
X51934108Y46000500D01*
X51806812Y45966392D01*
X51692686Y45900500D01*
X51692683Y45900498D01*
X51599502Y45807317D01*
X51599500Y45807314D01*
X51533608Y45693188D01*
X51499500Y45565892D01*
X10341922Y45565892D01*
X10307314Y45600500D01*
X10250250Y45633446D01*
X10193187Y45666392D01*
X10093188Y45693186D01*
X10065892Y45700500D01*
X9934108Y45700500D01*
X9806812Y45666392D01*
X9692686Y45600500D01*
X9692683Y45600498D01*
X9599502Y45507317D01*
X9599500Y45507314D01*
X9533608Y45393188D01*
X9499500Y45265892D01*
X70500Y45265892D01*
X70500Y46584362D01*
X36252578Y46584362D01*
X36252578Y46452579D01*
X36286686Y46325283D01*
X36319632Y46268220D01*
X36352578Y46211156D01*
X36445764Y46117970D01*
X36559892Y46052078D01*
X36687186Y46017970D01*
X36687188Y46017970D01*
X36818968Y46017970D01*
X36818970Y46017970D01*
X36946264Y46052078D01*
X37060392Y46117970D01*
X37153578Y46211156D01*
X37219470Y46325284D01*
X37253578Y46452578D01*
X37253578Y46584362D01*
X37219470Y46711656D01*
X37153578Y46825784D01*
X37060392Y46918970D01*
X36977838Y46966633D01*
X36977837Y46966634D01*
X36946266Y46984861D01*
X36946265Y46984862D01*
X36946264Y46984862D01*
X36818970Y47018970D01*
X36687186Y47018970D01*
X36559890Y46984862D01*
X36445764Y46918970D01*
X36445761Y46918968D01*
X36352580Y46825787D01*
X36352578Y46825784D01*
X36286686Y46711658D01*
X36252578Y46584362D01*
X70500Y46584362D01*
X70500Y47265892D01*
X10899500Y47265892D01*
X10899500Y47134109D01*
X10933608Y47006813D01*
X10956806Y46966634D01*
X10999500Y46892686D01*
X11092686Y46799500D01*
X11206814Y46733608D01*
X11334108Y46699500D01*
X11334110Y46699500D01*
X11465890Y46699500D01*
X11465892Y46699500D01*
X11593186Y46733608D01*
X11707314Y46799500D01*
X11800500Y46892686D01*
X11866392Y47006814D01*
X11900500Y47134108D01*
X11900500Y47265892D01*
X11866392Y47393186D01*
X11862170Y47400498D01*
X11800503Y47507309D01*
X11800502Y47507310D01*
X11800500Y47507314D01*
X11741922Y47565892D01*
X26499500Y47565892D01*
X26499500Y47434109D01*
X26533608Y47306813D01*
X26566554Y47249750D01*
X26599500Y47192686D01*
X26692686Y47099500D01*
X26806814Y47033608D01*
X26934108Y46999500D01*
X26934110Y46999500D01*
X27065890Y46999500D01*
X27065892Y46999500D01*
X27193186Y47033608D01*
X27249103Y47065892D01*
X38949500Y47065892D01*
X38949500Y46934108D01*
X38966554Y46870461D01*
X38983608Y46806813D01*
X39016554Y46749750D01*
X39049500Y46692686D01*
X39142686Y46599500D01*
X39256814Y46533608D01*
X39384108Y46499500D01*
X39384110Y46499500D01*
X39515890Y46499500D01*
X39515892Y46499500D01*
X39643186Y46533608D01*
X39757314Y46599500D01*
X39850500Y46692686D01*
X39916392Y46806814D01*
X39950500Y46934108D01*
X39950500Y47065892D01*
X39916392Y47193186D01*
X39850500Y47307314D01*
X39757314Y47400500D01*
X39699100Y47434110D01*
X39643187Y47466392D01*
X39579539Y47483446D01*
X39515892Y47500500D01*
X39384108Y47500500D01*
X39256812Y47466392D01*
X39142686Y47400500D01*
X39142683Y47400498D01*
X39049502Y47307317D01*
X39049500Y47307314D01*
X38983608Y47193188D01*
X38967778Y47134108D01*
X38949500Y47065892D01*
X27249103Y47065892D01*
X27307314Y47099500D01*
X27400500Y47192686D01*
X27466392Y47306814D01*
X27500500Y47434108D01*
X27500500Y47565892D01*
X27466392Y47693186D01*
X27400500Y47807314D01*
X27391922Y47815892D01*
X53249500Y47815892D01*
X53249500Y47684109D01*
X53283608Y47556813D01*
X53312185Y47507317D01*
X53349500Y47442686D01*
X53442686Y47349500D01*
X53556814Y47283608D01*
X53684108Y47249500D01*
X53684110Y47249500D01*
X53815890Y47249500D01*
X53815892Y47249500D01*
X53943186Y47283608D01*
X54057314Y47349500D01*
X54150500Y47442686D01*
X54216392Y47556814D01*
X54250500Y47684108D01*
X54250500Y47815892D01*
X54216392Y47943186D01*
X54150500Y48057314D01*
X54057314Y48150500D01*
X54000250Y48183446D01*
X53943187Y48216392D01*
X53879539Y48233446D01*
X53815892Y48250500D01*
X53684108Y48250500D01*
X53556812Y48216392D01*
X53442686Y48150500D01*
X53442683Y48150498D01*
X53349502Y48057317D01*
X53349500Y48057314D01*
X53283608Y47943188D01*
X53249500Y47815892D01*
X27391922Y47815892D01*
X27307314Y47900500D01*
X27233380Y47943186D01*
X27193187Y47966392D01*
X27129539Y47983446D01*
X27065892Y48000500D01*
X26934108Y48000500D01*
X26806812Y47966392D01*
X26692686Y47900500D01*
X26692683Y47900498D01*
X26599502Y47807317D01*
X26599500Y47807314D01*
X26533608Y47693188D01*
X26499500Y47565892D01*
X11741922Y47565892D01*
X11707314Y47600500D01*
X11650250Y47633446D01*
X11593187Y47666392D01*
X11493188Y47693186D01*
X11465892Y47700500D01*
X11334108Y47700500D01*
X11206812Y47666392D01*
X11092686Y47600500D01*
X11092683Y47600498D01*
X10999502Y47507317D01*
X10999500Y47507314D01*
X10933608Y47393188D01*
X10899500Y47265892D01*
X70500Y47265892D01*
X70500Y49065892D01*
X17899500Y49065892D01*
X17899500Y48934109D01*
X17933608Y48806813D01*
X17966554Y48749750D01*
X17999500Y48692686D01*
X18092686Y48599500D01*
X18206814Y48533608D01*
X18334108Y48499500D01*
X18334110Y48499500D01*
X18465890Y48499500D01*
X18465892Y48499500D01*
X18593186Y48533608D01*
X18707314Y48599500D01*
X18800500Y48692686D01*
X18866392Y48806814D01*
X18900500Y48934108D01*
X18900500Y49065892D01*
X18866392Y49193186D01*
X18800500Y49307314D01*
X18707314Y49400500D01*
X18650250Y49433446D01*
X18593187Y49466392D01*
X18529539Y49483446D01*
X18465892Y49500500D01*
X18334108Y49500500D01*
X18206812Y49466392D01*
X18092686Y49400500D01*
X18092683Y49400498D01*
X17999502Y49307317D01*
X17999500Y49307314D01*
X17933608Y49193188D01*
X17899500Y49065892D01*
X70500Y49065892D01*
X70500Y49815892D01*
X21999500Y49815892D01*
X21999500Y49684109D01*
X22033608Y49556813D01*
X22066121Y49500500D01*
X22099500Y49442686D01*
X22192686Y49349500D01*
X22306814Y49283608D01*
X22434108Y49249500D01*
X22434110Y49249500D01*
X22565890Y49249500D01*
X22565892Y49249500D01*
X22693186Y49283608D01*
X22807314Y49349500D01*
X22900500Y49442686D01*
X22966392Y49556814D01*
X23000500Y49684108D01*
X23000500Y49815892D01*
X22966392Y49943186D01*
X22900500Y50057314D01*
X22807314Y50150500D01*
X22693186Y50216392D01*
X22565892Y50250500D01*
X22434108Y50250500D01*
X22306812Y50216392D01*
X22192686Y50150500D01*
X22192683Y50150498D01*
X22099502Y50057317D01*
X22099500Y50057314D01*
X22033608Y49943188D01*
X21999500Y49815892D01*
X70500Y49815892D01*
X70500Y50315892D01*
X60999500Y50315892D01*
X60999500Y50184109D01*
X61033608Y50056813D01*
X61066554Y49999750D01*
X61099500Y49942686D01*
X61192686Y49849500D01*
X61306814Y49783608D01*
X61434108Y49749500D01*
X61434110Y49749500D01*
X61565890Y49749500D01*
X61565892Y49749500D01*
X61693186Y49783608D01*
X61807314Y49849500D01*
X61900500Y49942686D01*
X61966392Y50056814D01*
X62000500Y50184108D01*
X62000500Y50315892D01*
X61966392Y50443186D01*
X61900500Y50557314D01*
X61807314Y50650500D01*
X61750250Y50683446D01*
X61693187Y50716392D01*
X61629539Y50733446D01*
X61565892Y50750500D01*
X61434108Y50750500D01*
X61306812Y50716392D01*
X61192686Y50650500D01*
X61192683Y50650498D01*
X61099502Y50557317D01*
X61099500Y50557314D01*
X61033608Y50443188D01*
X60999500Y50315892D01*
X70500Y50315892D01*
X70500Y52606287D01*
X2149500Y52606287D01*
X2149500Y52393713D01*
X2150042Y52390290D01*
X2150042Y52390287D01*
X2182753Y52183761D01*
X2248444Y51981586D01*
X2344951Y51792180D01*
X2469890Y51620214D01*
X2620213Y51469891D01*
X2792179Y51344952D01*
X2792181Y51344951D01*
X2792184Y51344949D01*
X2981588Y51248443D01*
X3183757Y51182754D01*
X3393713Y51149500D01*
X3393714Y51149500D01*
X3606286Y51149500D01*
X3606287Y51149500D01*
X3816243Y51182754D01*
X4018412Y51248443D01*
X4207816Y51344949D01*
X4229789Y51360914D01*
X4379786Y51469891D01*
X4379788Y51469894D01*
X4379792Y51469896D01*
X4530104Y51620208D01*
X4530106Y51620212D01*
X4530109Y51620214D01*
X4620810Y51745055D01*
X24694499Y51745055D01*
X24735445Y51539211D01*
X24735447Y51539205D01*
X24815765Y51345299D01*
X24932373Y51170782D01*
X25080781Y51022374D01*
X25255298Y50905766D01*
X25352251Y50865607D01*
X25449205Y50825447D01*
X25449209Y50825447D01*
X25449210Y50825446D01*
X25655054Y50784500D01*
X25655057Y50784500D01*
X25864945Y50784500D01*
X26003433Y50812048D01*
X26070795Y50825447D01*
X26264703Y50905767D01*
X26439216Y51022372D01*
X26587628Y51170784D01*
X26704233Y51345297D01*
X26784553Y51539205D01*
X26825500Y51745057D01*
X26825500Y52254943D01*
X26825500Y52254946D01*
X26784554Y52460790D01*
X26784553Y52460791D01*
X26784553Y52460795D01*
X26724288Y52606287D01*
X26704234Y52654702D01*
X26587626Y52829219D01*
X26439218Y52977627D01*
X26353723Y53034753D01*
X27234500Y53034753D01*
X27234500Y50965248D01*
X27246131Y50906771D01*
X27246132Y50906770D01*
X27290447Y50840448D01*
X27356769Y50796133D01*
X27356770Y50796132D01*
X27415247Y50784501D01*
X27415250Y50784500D01*
X27415252Y50784500D01*
X29184750Y50784500D01*
X29184751Y50784501D01*
X29199568Y50787448D01*
X29243229Y50796132D01*
X29243229Y50796133D01*
X29243231Y50796133D01*
X29309552Y50840448D01*
X29353867Y50906769D01*
X29353867Y50906771D01*
X29353868Y50906771D01*
X29365499Y50965248D01*
X29365500Y50965250D01*
X29365500Y51745055D01*
X33934499Y51745055D01*
X33975445Y51539211D01*
X33975447Y51539205D01*
X34055765Y51345299D01*
X34172373Y51170782D01*
X34320781Y51022374D01*
X34495298Y50905766D01*
X34592251Y50865607D01*
X34689205Y50825447D01*
X34689209Y50825447D01*
X34689210Y50825446D01*
X34895054Y50784500D01*
X34895057Y50784500D01*
X35104945Y50784500D01*
X35243433Y50812048D01*
X35310795Y50825447D01*
X35504703Y50905767D01*
X35679216Y51022372D01*
X35827628Y51170784D01*
X35944233Y51345297D01*
X36024553Y51539205D01*
X36065500Y51745057D01*
X36065500Y52254943D01*
X36065500Y52254946D01*
X36024554Y52460790D01*
X36024553Y52460791D01*
X36024553Y52460795D01*
X35964288Y52606287D01*
X35944234Y52654702D01*
X35827626Y52829219D01*
X35679218Y52977627D01*
X35593723Y53034753D01*
X36474500Y53034753D01*
X36474500Y50965248D01*
X36486131Y50906771D01*
X36486132Y50906770D01*
X36530447Y50840448D01*
X36596769Y50796133D01*
X36596770Y50796132D01*
X36655247Y50784501D01*
X36655250Y50784500D01*
X36655252Y50784500D01*
X38424750Y50784500D01*
X38424751Y50784501D01*
X38439568Y50787448D01*
X38483229Y50796132D01*
X38483229Y50796133D01*
X38483231Y50796133D01*
X38549552Y50840448D01*
X38593867Y50906769D01*
X38593867Y50906771D01*
X38593868Y50906771D01*
X38605499Y50965248D01*
X38605500Y50965250D01*
X38605500Y52804270D01*
X43074500Y52804270D01*
X43074500Y51195731D01*
X43077353Y51165301D01*
X43077353Y51165299D01*
X43122206Y51037120D01*
X43122207Y51037118D01*
X43202850Y50927850D01*
X43312118Y50847207D01*
X43354845Y50832256D01*
X43440299Y50802354D01*
X43470730Y50799500D01*
X43470734Y50799500D01*
X45079270Y50799500D01*
X45109699Y50802354D01*
X45109701Y50802354D01*
X45175698Y50825448D01*
X45237882Y50847207D01*
X45347150Y50927850D01*
X45427793Y51037118D01*
X45450219Y51101210D01*
X45472646Y51165299D01*
X45472646Y51165301D01*
X45475500Y51195731D01*
X45475500Y52804269D01*
X45474673Y52813087D01*
X45474673Y52813088D01*
X45473859Y52821770D01*
X50074500Y52821770D01*
X50074500Y51213231D01*
X50077353Y51182801D01*
X50077353Y51182799D01*
X50122206Y51054620D01*
X50122207Y51054618D01*
X50202850Y50945350D01*
X50312118Y50864707D01*
X50354845Y50849756D01*
X50440299Y50819854D01*
X50470730Y50817000D01*
X50470734Y50817000D01*
X52079270Y50817000D01*
X52109699Y50819854D01*
X52109701Y50819854D01*
X52173790Y50842281D01*
X52237882Y50864707D01*
X52347150Y50945350D01*
X52427793Y51054618D01*
X52466523Y51165301D01*
X52472646Y51182799D01*
X52472646Y51182801D01*
X52475500Y51213231D01*
X52475500Y52606287D01*
X60149500Y52606287D01*
X60149500Y52393713D01*
X60150042Y52390290D01*
X60150042Y52390287D01*
X60182753Y52183761D01*
X60248444Y51981586D01*
X60344951Y51792180D01*
X60469890Y51620214D01*
X60620213Y51469891D01*
X60792179Y51344952D01*
X60792181Y51344951D01*
X60792184Y51344949D01*
X60981588Y51248443D01*
X61183757Y51182754D01*
X61393713Y51149500D01*
X61393714Y51149500D01*
X61606286Y51149500D01*
X61606287Y51149500D01*
X61816243Y51182754D01*
X62018412Y51248443D01*
X62207816Y51344949D01*
X62229789Y51360914D01*
X62379786Y51469891D01*
X62379788Y51469894D01*
X62379792Y51469896D01*
X62530104Y51620208D01*
X62530106Y51620212D01*
X62530109Y51620214D01*
X62655048Y51792180D01*
X62655047Y51792180D01*
X62655051Y51792184D01*
X62751557Y51981588D01*
X62817246Y52183757D01*
X62833782Y52288165D01*
X62836375Y52298953D01*
X62836108Y52299017D01*
X62837242Y52303746D01*
X62837246Y52303757D01*
X62870500Y52513713D01*
X62870500Y52726287D01*
X62837246Y52936243D01*
X62771557Y53138412D01*
X62675051Y53327816D01*
X62675049Y53327819D01*
X62675048Y53327821D01*
X62550109Y53499787D01*
X62399786Y53650110D01*
X62227820Y53775049D01*
X62038414Y53871556D01*
X62038413Y53871557D01*
X62038412Y53871557D01*
X61836243Y53937246D01*
X61836241Y53937247D01*
X61836240Y53937247D01*
X61674957Y53962792D01*
X61626287Y53970500D01*
X61413713Y53970500D01*
X61365042Y53962792D01*
X61203760Y53937247D01*
X61001585Y53871556D01*
X60812179Y53775049D01*
X60640213Y53650110D01*
X60489890Y53499787D01*
X60364951Y53327821D01*
X60268444Y53138415D01*
X60202753Y52936240D01*
X60186940Y52836413D01*
X60186938Y52836394D01*
X60184692Y52822211D01*
X60182754Y52816243D01*
X60149500Y52606287D01*
X52475500Y52606287D01*
X52475500Y52821770D01*
X52472646Y52852200D01*
X52472646Y52852202D01*
X52428757Y52977627D01*
X52427793Y52980382D01*
X52347150Y53089650D01*
X52237882Y53170293D01*
X52237880Y53170294D01*
X52109700Y53215147D01*
X52079270Y53218000D01*
X52079266Y53218000D01*
X50470734Y53218000D01*
X50470730Y53218000D01*
X50440300Y53215147D01*
X50440298Y53215147D01*
X50312119Y53170294D01*
X50312117Y53170293D01*
X50202850Y53089650D01*
X50122207Y52980383D01*
X50122206Y52980381D01*
X50077353Y52852202D01*
X50077353Y52852200D01*
X50074500Y52821770D01*
X45473859Y52821770D01*
X45472646Y52834700D01*
X45472646Y52834702D01*
X45427793Y52962881D01*
X45427792Y52962883D01*
X45347150Y53072150D01*
X45237882Y53152793D01*
X45237880Y53152794D01*
X45109700Y53197647D01*
X45079270Y53200500D01*
X45079266Y53200500D01*
X43470734Y53200500D01*
X43470730Y53200500D01*
X43440300Y53197647D01*
X43440298Y53197647D01*
X43312119Y53152794D01*
X43312117Y53152793D01*
X43202850Y53072150D01*
X43122207Y52962883D01*
X43122206Y52962881D01*
X43077353Y52834702D01*
X43077353Y52834700D01*
X43074500Y52804270D01*
X38605500Y52804270D01*
X38605500Y53034751D01*
X38605499Y53034753D01*
X38593868Y53093230D01*
X38593867Y53093231D01*
X38549552Y53159553D01*
X38483230Y53203868D01*
X38483229Y53203869D01*
X38424752Y53215500D01*
X38424748Y53215500D01*
X36655252Y53215500D01*
X36655247Y53215500D01*
X36596770Y53203869D01*
X36596769Y53203868D01*
X36530447Y53159553D01*
X36486132Y53093231D01*
X36486131Y53093230D01*
X36474500Y53034753D01*
X35593723Y53034753D01*
X35504701Y53094235D01*
X35310795Y53174553D01*
X35310789Y53174555D01*
X35104945Y53215500D01*
X35104943Y53215500D01*
X34895057Y53215500D01*
X34895055Y53215500D01*
X34689210Y53174555D01*
X34689204Y53174553D01*
X34495298Y53094235D01*
X34320781Y52977627D01*
X34172373Y52829219D01*
X34055765Y52654702D01*
X33975447Y52460796D01*
X33975445Y52460790D01*
X33934500Y52254946D01*
X33934500Y52254943D01*
X33934500Y51745057D01*
X33934500Y51745055D01*
X33934499Y51745055D01*
X29365500Y51745055D01*
X29365500Y53034751D01*
X29365499Y53034753D01*
X29353868Y53093230D01*
X29353867Y53093231D01*
X29309552Y53159553D01*
X29243230Y53203868D01*
X29243229Y53203869D01*
X29184752Y53215500D01*
X29184748Y53215500D01*
X27415252Y53215500D01*
X27415247Y53215500D01*
X27356770Y53203869D01*
X27356769Y53203868D01*
X27290447Y53159553D01*
X27246132Y53093231D01*
X27246131Y53093230D01*
X27234500Y53034753D01*
X26353723Y53034753D01*
X26264701Y53094235D01*
X26070795Y53174553D01*
X26070789Y53174555D01*
X25864945Y53215500D01*
X25864943Y53215500D01*
X25655057Y53215500D01*
X25655055Y53215500D01*
X25449210Y53174555D01*
X25449204Y53174553D01*
X25255298Y53094235D01*
X25080781Y52977627D01*
X24932373Y52829219D01*
X24815765Y52654702D01*
X24735447Y52460796D01*
X24735445Y52460790D01*
X24694500Y52254946D01*
X24694500Y52254943D01*
X24694500Y51745057D01*
X24694500Y51745055D01*
X24694499Y51745055D01*
X4620810Y51745055D01*
X4655048Y51792180D01*
X4655047Y51792180D01*
X4655051Y51792184D01*
X4751557Y51981588D01*
X4817246Y52183757D01*
X4833782Y52288165D01*
X4836375Y52298953D01*
X4836108Y52299017D01*
X4837242Y52303746D01*
X4837246Y52303757D01*
X4870500Y52513713D01*
X4870500Y52726287D01*
X4837246Y52936243D01*
X4771557Y53138412D01*
X4675051Y53327816D01*
X4675049Y53327819D01*
X4675048Y53327821D01*
X4550109Y53499787D01*
X4399786Y53650110D01*
X4227820Y53775049D01*
X4038414Y53871556D01*
X4038413Y53871557D01*
X4038412Y53871557D01*
X3836243Y53937246D01*
X3836241Y53937247D01*
X3836240Y53937247D01*
X3674957Y53962792D01*
X3626287Y53970500D01*
X3413713Y53970500D01*
X3365042Y53962792D01*
X3203760Y53937247D01*
X3001585Y53871556D01*
X2812179Y53775049D01*
X2640213Y53650110D01*
X2489890Y53499787D01*
X2364951Y53327821D01*
X2268444Y53138415D01*
X2202753Y52936240D01*
X2186940Y52836413D01*
X2186938Y52836394D01*
X2184692Y52822211D01*
X2182754Y52816243D01*
X2149500Y52606287D01*
X70500Y52606287D01*
X70500Y53116520D01*
X70695Y53123473D01*
X73564Y53174555D01*
X88656Y53443300D01*
X90210Y53457093D01*
X143283Y53769463D01*
X146377Y53783015D01*
X171886Y53871556D01*
X234090Y54087474D01*
X238682Y54100595D01*
X359933Y54393320D01*
X365953Y54405820D01*
X519221Y54683139D01*
X526616Y54694907D01*
X709970Y54953322D01*
X718621Y54964169D01*
X929750Y55200421D01*
X939581Y55210251D01*
X1175831Y55421379D01*
X1186678Y55430030D01*
X1445098Y55613388D01*
X1456861Y55620779D01*
X1734180Y55774047D01*
X1746680Y55780067D01*
X2039409Y55901320D01*
X2052526Y55905910D01*
X2356990Y55993625D01*
X2370537Y55996717D01*
X2682907Y56049790D01*
X2696700Y56051344D01*
X3016528Y56069305D01*
X3023481Y56069500D01*
X3036409Y56069500D01*
X62003591Y56069500D01*
X62016519Y56069500D01*
X62023472Y56069305D01*
G37*
%TD.AperFunction*%
%TD*%
M02*
