M48
; DRILL file KiCad 10.0.3 date 2026-06-17T19:41:34
; FORMAT={-:-/ absolute / inch / decimal}
; #@! TF.CreationDate,2026-06-17T19:41:34-04:00
; #@! TF.GenerationSoftware,Kicad,Pcbnew,10.0.3
; #@! TF.FileFunction,Plated,1,4,PTH
FMAT,2
INCH
; #@! TA.AperFunction,Plated,PTH,ViaDrill
T1C0.0118
; #@! TA.AperFunction,Plated,PTH,ViaDrill
T2C0.0157
; #@! TA.AperFunction,Plated,PTH,ViaDrill
T3C0.0236
; #@! TA.AperFunction,Plated,PTH,ComponentDrill
T4C0.0236
; #@! TA.AperFunction,Plated,PTH,ComponentDrill
T5C0.0402
; #@! TA.AperFunction,Plated,PTH,ComponentDrill
T6C0.0472
; #@! TA.AperFunction,Plated,PTH,ComponentDrill
T7C0.1063
%
G90
G05
T1
X0.0512Y0.9016
X0.0512Y0.8524
X0.0512Y0.8031
X0.0512Y0.7539
X0.0551Y0.2756
X0.1004Y0.0394
X0.1102Y0.9016
X0.1102Y0.8524
X0.1102Y0.8031
X0.1102Y0.7539
X0.1673Y0.9016
X0.1673Y0.8524
X0.1673Y0.8031
X0.189Y0.685
X0.1949Y0.9843
X0.2008Y1.5748
X0.2165Y0.0394
X0.2185Y1.4567
X0.2185Y0.2756
X0.2244Y1.3386
X0.2894Y0.1575
X0.3346Y0.0394
X0.3366Y0.2756
X0.3548Y1.5846
X0.3937Y1.7795
X0.4488Y1.8583
X0.4528Y1.2008
X0.4528Y1.1417
X0.4528Y1.0827
X0.4528Y0.0394
X0.4547Y1.4567
X0.4547Y0.2756
X0.5118Y1.2008
X0.5118Y1.1417
X0.5118Y1.0827
X0.5728Y1.4567
X0.5728Y0.0394
X0.5929Y0.8022
X0.622Y0.9921
X0.6791Y0.9843
X0.6867Y0.3445
X0.689Y0.374
X0.689Y0.315
X0.6909Y0.0394
X0.7163Y0.3445
X0.7185Y0.374
X0.7185Y0.315
X0.7244Y1.9291
X0.7458Y0.3445
X0.748Y1.7087
X0.748Y0.374
X0.748Y0.315
X0.8091Y0.0394
X0.8268Y1.1732
X0.8268Y1.1417
X0.8268Y1.1024
X0.8661Y1.1732
X0.8661Y1.1417
X0.8661Y1.1024
X0.8858Y1.9587
X0.9075Y0.9075
X0.9272Y0.0394
X0.9547Y1.7618
X0.9843Y1.437
X1.0217Y1.1024
X1.0315Y1.2835
X1.0453Y0.0394
X1.063Y1.8701
X1.063Y1.3583
X1.0709Y1.2835
X1.1102Y1.2835
X1.1181Y1.7087
X1.1398Y0.6299
X1.1496Y1.2835
X1.1634Y0.0394
X1.1693Y0.5118
X1.2205Y0.9449
X1.2283Y1.5748
X1.2287Y1.2992
X1.2579Y1.6929
X1.2677Y1.6457
X1.3091Y1.9488
X1.3189Y0.6201
X1.3386Y1.0374
X1.378Y1.0374
X1.3976Y0.9154
X1.3996Y0.0394
X1.4158Y1.7151
X1.4173Y1.0374
X1.437Y1.1811
X1.447Y1.8314
X1.4665Y1.5157
X1.5059Y1.9488
X1.5059Y1.4764
X1.5177Y0.0394
X1.5354Y0.7185
X1.5512Y1.437
X1.5531Y1.8504
X1.5546Y0.9296
X1.5782Y1.7292
X1.6043Y1.3976
X1.6312Y1.2174
X1.6358Y0.0394
X1.6969Y1.5619
X1.7382Y1.565
X1.7421Y0.9744
X1.7421Y0.7579
X1.8012Y0.9902
X1.8012Y0.9469
X1.8012Y0.9035
X1.8406Y1.4173
X1.8602Y0.7579
X1.8701Y1.1417
X1.872Y0.0394
X1.8898Y1.9291
X1.9193Y1.5059
X1.9902Y0.2756
X1.998Y0.876
X2.0472Y1.7913
X2.0787Y0.1575
X2.1024Y0.66
X2.1083Y0.0394
X2.1161Y1.8799
X2.2264Y0.0394
X2.2539Y0.4724
X2.2835Y0.7972
X2.3031Y0.7677
X2.3031Y0.2461
X2.3068Y1.6499
X2.3445Y0.0394
X2.3622Y1.3583
X2.372Y0.9843
X2.4016Y0.9449
X2.4213Y1.9783
X2.4213Y1.7913
X2.4315Y0.9349
X2.4626Y0.0394
T2
X2.1358Y1.2402
X2.2244Y1.2205
T3
X1.0945Y1.0
T5
X0.9142Y2.0472
X1.0142Y2.0472
X1.1142Y2.0472
X1.278Y2.0472
X1.378Y2.0472
X1.478Y2.0472
T6
X0.6677Y0.1772
X0.7677Y0.1772
X1.6431Y2.0472
X1.7431Y2.0472
X1.9187Y2.0479
X2.0187Y2.0479
X2.3819Y0.7398
X2.3819Y0.6398
X2.3819Y0.4626
X2.3819Y0.3626
T7
X0.3307Y1.4193
X0.3307Y1.1358
X1.0689Y0.3937
X1.3524Y0.3937
X1.7579Y0.3937
X2.0413Y0.3937
T4
G00X0.0728Y1.5433
M15
G01X0.1161Y1.5433
M16
G05
G00X0.0728Y1.0118
M15
G01X0.1161Y1.0118
M16
G05
G00X0.9449Y0.1358
M15
G01X0.9449Y0.1791
M16
G05
G00X1.4764Y0.1358
M15
G01X1.4764Y0.1791
M16
G05
G00X1.6339Y0.1358
M15
G01X1.6339Y0.1791
M16
G05
G00X2.1654Y0.1358
M15
G01X2.1654Y0.1791
M16
G05
M30
