%TF.GenerationSoftware,KiCad,Pcbnew,10.0.3*%
%TF.CreationDate,2026-06-17T11:21:42-04:00*%
%TF.ProjectId,power_db_hat,706f7765-725f-4646-925f-6861742e6b69,rev?*%
%TF.SameCoordinates,Original*%
%TF.FileFunction,Legend,Bot*%
%TF.FilePolarity,Positive*%
%FSLAX46Y46*%
G04 Gerber Fmt 4.6, Leading zero omitted, Abs format (unit mm)*
G04 Created by KiCad (PCBNEW 10.0.3) date 2026-06-17 11:21:42*
%MOMM*%
%LPD*%
G01*
G04 APERTURE LIST*
%ADD10C,0.150000*%
%ADD11C,0.120000*%
%ADD12C,0.325000*%
%ADD13C,0.127000*%
%ADD14C,0.200000*%
%ADD15C,0.152400*%
%ADD16C,0.000000*%
G04 APERTURE END LIST*
D10*
X19689161Y54035784D02*
X19212971Y54035784D01*
X19784399Y53750069D02*
X19451066Y54750069D01*
X19451066Y54750069D02*
X19117733Y53750069D01*
X18308209Y53750069D02*
X18784399Y53750069D01*
X18784399Y53750069D02*
X18784399Y54750069D01*
X18117732Y54750069D02*
X17546304Y54750069D01*
X17832018Y53750069D02*
X17832018Y54750069D01*
X17260589Y54035784D02*
X16784399Y54035784D01*
X17355827Y53750069D02*
X17022494Y54750069D01*
X17022494Y54750069D02*
X16689161Y53750069D01*
X16355827Y53750069D02*
X16355827Y54750069D01*
X15308209Y53750069D02*
X15641542Y54226260D01*
X15879637Y53750069D02*
X15879637Y54750069D01*
X15879637Y54750069D02*
X15498685Y54750069D01*
X15498685Y54750069D02*
X15403447Y54702450D01*
X15403447Y54702450D02*
X15355828Y54654831D01*
X15355828Y54654831D02*
X15308209Y54559593D01*
X15308209Y54559593D02*
X15308209Y54416736D01*
X15308209Y54416736D02*
X15355828Y54321498D01*
X15355828Y54321498D02*
X15403447Y54273879D01*
X15403447Y54273879D02*
X15498685Y54226260D01*
X15498685Y54226260D02*
X15879637Y54226260D01*
X14117732Y53750069D02*
X14117732Y54750069D01*
X14117732Y54750069D02*
X13736780Y54750069D01*
X13736780Y54750069D02*
X13641542Y54702450D01*
X13641542Y54702450D02*
X13593923Y54654831D01*
X13593923Y54654831D02*
X13546304Y54559593D01*
X13546304Y54559593D02*
X13546304Y54416736D01*
X13546304Y54416736D02*
X13593923Y54321498D01*
X13593923Y54321498D02*
X13641542Y54273879D01*
X13641542Y54273879D02*
X13736780Y54226260D01*
X13736780Y54226260D02*
X14117732Y54226260D01*
X12974875Y53750069D02*
X13070113Y53797688D01*
X13070113Y53797688D02*
X13117732Y53845308D01*
X13117732Y53845308D02*
X13165351Y53940546D01*
X13165351Y53940546D02*
X13165351Y54226260D01*
X13165351Y54226260D02*
X13117732Y54321498D01*
X13117732Y54321498D02*
X13070113Y54369117D01*
X13070113Y54369117D02*
X12974875Y54416736D01*
X12974875Y54416736D02*
X12832018Y54416736D01*
X12832018Y54416736D02*
X12736780Y54369117D01*
X12736780Y54369117D02*
X12689161Y54321498D01*
X12689161Y54321498D02*
X12641542Y54226260D01*
X12641542Y54226260D02*
X12641542Y53940546D01*
X12641542Y53940546D02*
X12689161Y53845308D01*
X12689161Y53845308D02*
X12736780Y53797688D01*
X12736780Y53797688D02*
X12832018Y53750069D01*
X12832018Y53750069D02*
X12974875Y53750069D01*
X12308208Y54416736D02*
X12117732Y53750069D01*
X12117732Y53750069D02*
X11927256Y54226260D01*
X11927256Y54226260D02*
X11736780Y53750069D01*
X11736780Y53750069D02*
X11546304Y54416736D01*
X10784399Y53797688D02*
X10879637Y53750069D01*
X10879637Y53750069D02*
X11070113Y53750069D01*
X11070113Y53750069D02*
X11165351Y53797688D01*
X11165351Y53797688D02*
X11212970Y53892927D01*
X11212970Y53892927D02*
X11212970Y54273879D01*
X11212970Y54273879D02*
X11165351Y54369117D01*
X11165351Y54369117D02*
X11070113Y54416736D01*
X11070113Y54416736D02*
X10879637Y54416736D01*
X10879637Y54416736D02*
X10784399Y54369117D01*
X10784399Y54369117D02*
X10736780Y54273879D01*
X10736780Y54273879D02*
X10736780Y54178641D01*
X10736780Y54178641D02*
X11212970Y54083403D01*
X10308208Y53750069D02*
X10308208Y54416736D01*
X10308208Y54226260D02*
X10260589Y54321498D01*
X10260589Y54321498D02*
X10212970Y54369117D01*
X10212970Y54369117D02*
X10117732Y54416736D01*
X10117732Y54416736D02*
X10022494Y54416736D01*
X8927255Y53750069D02*
X8927255Y54750069D01*
X8927255Y54273879D02*
X8355827Y54273879D01*
X8355827Y53750069D02*
X8355827Y54750069D01*
X7927255Y54035784D02*
X7451065Y54035784D01*
X8022493Y53750069D02*
X7689160Y54750069D01*
X7689160Y54750069D02*
X7355827Y53750069D01*
X7165350Y54750069D02*
X6593922Y54750069D01*
X6879636Y53750069D02*
X6879636Y54750069D01*
X16022494Y52663935D02*
X15879637Y52616316D01*
X15879637Y52616316D02*
X15832018Y52568697D01*
X15832018Y52568697D02*
X15784399Y52473459D01*
X15784399Y52473459D02*
X15784399Y52330602D01*
X15784399Y52330602D02*
X15832018Y52235364D01*
X15832018Y52235364D02*
X15879637Y52187744D01*
X15879637Y52187744D02*
X15974875Y52140125D01*
X15974875Y52140125D02*
X16355827Y52140125D01*
X16355827Y52140125D02*
X16355827Y53140125D01*
X16355827Y53140125D02*
X16022494Y53140125D01*
X16022494Y53140125D02*
X15927256Y53092506D01*
X15927256Y53092506D02*
X15879637Y53044887D01*
X15879637Y53044887D02*
X15832018Y52949649D01*
X15832018Y52949649D02*
X15832018Y52854411D01*
X15832018Y52854411D02*
X15879637Y52759173D01*
X15879637Y52759173D02*
X15927256Y52711554D01*
X15927256Y52711554D02*
X16022494Y52663935D01*
X16022494Y52663935D02*
X16355827Y52663935D01*
X14974875Y52187744D02*
X15070113Y52140125D01*
X15070113Y52140125D02*
X15260589Y52140125D01*
X15260589Y52140125D02*
X15355827Y52187744D01*
X15355827Y52187744D02*
X15403446Y52282983D01*
X15403446Y52282983D02*
X15403446Y52663935D01*
X15403446Y52663935D02*
X15355827Y52759173D01*
X15355827Y52759173D02*
X15260589Y52806792D01*
X15260589Y52806792D02*
X15070113Y52806792D01*
X15070113Y52806792D02*
X14974875Y52759173D01*
X14974875Y52759173D02*
X14927256Y52663935D01*
X14927256Y52663935D02*
X14927256Y52568697D01*
X14927256Y52568697D02*
X15403446Y52473459D01*
X14498684Y52806792D02*
X14498684Y52140125D01*
X14498684Y52711554D02*
X14451065Y52759173D01*
X14451065Y52759173D02*
X14355827Y52806792D01*
X14355827Y52806792D02*
X14212970Y52806792D01*
X14212970Y52806792D02*
X14117732Y52759173D01*
X14117732Y52759173D02*
X14070113Y52663935D01*
X14070113Y52663935D02*
X14070113Y52140125D01*
X12832017Y52140125D02*
X12832017Y53140125D01*
X12832017Y53140125D02*
X12593922Y53140125D01*
X12593922Y53140125D02*
X12451065Y53092506D01*
X12451065Y53092506D02*
X12355827Y52997268D01*
X12355827Y52997268D02*
X12308208Y52902030D01*
X12308208Y52902030D02*
X12260589Y52711554D01*
X12260589Y52711554D02*
X12260589Y52568697D01*
X12260589Y52568697D02*
X12308208Y52378221D01*
X12308208Y52378221D02*
X12355827Y52282983D01*
X12355827Y52282983D02*
X12451065Y52187744D01*
X12451065Y52187744D02*
X12593922Y52140125D01*
X12593922Y52140125D02*
X12832017Y52140125D01*
X11784398Y53140125D02*
X11879636Y52949649D01*
X11403446Y52425840D02*
X10927256Y52425840D01*
X11498684Y52140125D02*
X11165351Y53140125D01*
X11165351Y53140125D02*
X10832018Y52140125D01*
X10070113Y52806792D02*
X10070113Y51997268D01*
X10070113Y51997268D02*
X10117732Y51902030D01*
X10117732Y51902030D02*
X10165351Y51854411D01*
X10165351Y51854411D02*
X10260589Y51806792D01*
X10260589Y51806792D02*
X10403446Y51806792D01*
X10403446Y51806792D02*
X10498684Y51854411D01*
X10070113Y52187744D02*
X10165351Y52140125D01*
X10165351Y52140125D02*
X10355827Y52140125D01*
X10355827Y52140125D02*
X10451065Y52187744D01*
X10451065Y52187744D02*
X10498684Y52235364D01*
X10498684Y52235364D02*
X10546303Y52330602D01*
X10546303Y52330602D02*
X10546303Y52616316D01*
X10546303Y52616316D02*
X10498684Y52711554D01*
X10498684Y52711554D02*
X10451065Y52759173D01*
X10451065Y52759173D02*
X10355827Y52806792D01*
X10355827Y52806792D02*
X10165351Y52806792D01*
X10165351Y52806792D02*
X10070113Y52759173D01*
X9593922Y52806792D02*
X9593922Y52140125D01*
X9593922Y52711554D02*
X9546303Y52759173D01*
X9546303Y52759173D02*
X9451065Y52806792D01*
X9451065Y52806792D02*
X9308208Y52806792D01*
X9308208Y52806792D02*
X9212970Y52759173D01*
X9212970Y52759173D02*
X9165351Y52663935D01*
X9165351Y52663935D02*
X9165351Y52140125D01*
X8689160Y52140125D02*
X8689160Y52806792D01*
X8689160Y53140125D02*
X8736779Y53092506D01*
X8736779Y53092506D02*
X8689160Y53044887D01*
X8689160Y53044887D02*
X8641541Y53092506D01*
X8641541Y53092506D02*
X8689160Y53140125D01*
X8689160Y53140125D02*
X8689160Y53044887D01*
X8070113Y52140125D02*
X8165351Y52187744D01*
X8165351Y52187744D02*
X8212970Y52282983D01*
X8212970Y52282983D02*
X8212970Y53140125D01*
X7546303Y52140125D02*
X7641541Y52187744D01*
X7641541Y52187744D02*
X7689160Y52282983D01*
X7689160Y52282983D02*
X7689160Y53140125D01*
X7022493Y52140125D02*
X7117731Y52187744D01*
X7117731Y52187744D02*
X7165350Y52235364D01*
X7165350Y52235364D02*
X7212969Y52330602D01*
X7212969Y52330602D02*
X7212969Y52616316D01*
X7212969Y52616316D02*
X7165350Y52711554D01*
X7165350Y52711554D02*
X7117731Y52759173D01*
X7117731Y52759173D02*
X7022493Y52806792D01*
X7022493Y52806792D02*
X6879636Y52806792D01*
X6879636Y52806792D02*
X6784398Y52759173D01*
X6784398Y52759173D02*
X6736779Y52711554D01*
X6736779Y52711554D02*
X6689160Y52616316D01*
X6689160Y52616316D02*
X6689160Y52330602D01*
X6689160Y52330602D02*
X6736779Y52235364D01*
X6736779Y52235364D02*
X6784398Y52187744D01*
X6784398Y52187744D02*
X6879636Y52140125D01*
X6879636Y52140125D02*
X7022493Y52140125D01*
X21165351Y50530181D02*
X21165351Y51530181D01*
X21165351Y51530181D02*
X20832018Y50815896D01*
X20832018Y50815896D02*
X20498685Y51530181D01*
X20498685Y51530181D02*
X20498685Y50530181D01*
X19593923Y50530181D02*
X19593923Y51053991D01*
X19593923Y51053991D02*
X19641542Y51149229D01*
X19641542Y51149229D02*
X19736780Y51196848D01*
X19736780Y51196848D02*
X19927256Y51196848D01*
X19927256Y51196848D02*
X20022494Y51149229D01*
X19593923Y50577800D02*
X19689161Y50530181D01*
X19689161Y50530181D02*
X19927256Y50530181D01*
X19927256Y50530181D02*
X20022494Y50577800D01*
X20022494Y50577800D02*
X20070113Y50673039D01*
X20070113Y50673039D02*
X20070113Y50768277D01*
X20070113Y50768277D02*
X20022494Y50863515D01*
X20022494Y50863515D02*
X19927256Y50911134D01*
X19927256Y50911134D02*
X19689161Y50911134D01*
X19689161Y50911134D02*
X19593923Y50958753D01*
X19117732Y50530181D02*
X19117732Y51196848D01*
X19117732Y51006372D02*
X19070113Y51101610D01*
X19070113Y51101610D02*
X19022494Y51149229D01*
X19022494Y51149229D02*
X18927256Y51196848D01*
X18927256Y51196848D02*
X18832018Y51196848D01*
X18070113Y50577800D02*
X18165351Y50530181D01*
X18165351Y50530181D02*
X18355827Y50530181D01*
X18355827Y50530181D02*
X18451065Y50577800D01*
X18451065Y50577800D02*
X18498684Y50625420D01*
X18498684Y50625420D02*
X18546303Y50720658D01*
X18546303Y50720658D02*
X18546303Y51006372D01*
X18546303Y51006372D02*
X18498684Y51101610D01*
X18498684Y51101610D02*
X18451065Y51149229D01*
X18451065Y51149229D02*
X18355827Y51196848D01*
X18355827Y51196848D02*
X18165351Y51196848D01*
X18165351Y51196848D02*
X18070113Y51149229D01*
X17641541Y50530181D02*
X17641541Y51530181D01*
X17212970Y50530181D02*
X17212970Y51053991D01*
X17212970Y51053991D02*
X17260589Y51149229D01*
X17260589Y51149229D02*
X17355827Y51196848D01*
X17355827Y51196848D02*
X17498684Y51196848D01*
X17498684Y51196848D02*
X17593922Y51149229D01*
X17593922Y51149229D02*
X17641541Y51101610D01*
X16022493Y51434943D02*
X15974874Y51482562D01*
X15974874Y51482562D02*
X15879636Y51530181D01*
X15879636Y51530181D02*
X15641541Y51530181D01*
X15641541Y51530181D02*
X15546303Y51482562D01*
X15546303Y51482562D02*
X15498684Y51434943D01*
X15498684Y51434943D02*
X15451065Y51339705D01*
X15451065Y51339705D02*
X15451065Y51244467D01*
X15451065Y51244467D02*
X15498684Y51101610D01*
X15498684Y51101610D02*
X16070112Y50530181D01*
X16070112Y50530181D02*
X15451065Y50530181D01*
X14832017Y51530181D02*
X14736779Y51530181D01*
X14736779Y51530181D02*
X14641541Y51482562D01*
X14641541Y51482562D02*
X14593922Y51434943D01*
X14593922Y51434943D02*
X14546303Y51339705D01*
X14546303Y51339705D02*
X14498684Y51149229D01*
X14498684Y51149229D02*
X14498684Y50911134D01*
X14498684Y50911134D02*
X14546303Y50720658D01*
X14546303Y50720658D02*
X14593922Y50625420D01*
X14593922Y50625420D02*
X14641541Y50577800D01*
X14641541Y50577800D02*
X14736779Y50530181D01*
X14736779Y50530181D02*
X14832017Y50530181D01*
X14832017Y50530181D02*
X14927255Y50577800D01*
X14927255Y50577800D02*
X14974874Y50625420D01*
X14974874Y50625420D02*
X15022493Y50720658D01*
X15022493Y50720658D02*
X15070112Y50911134D01*
X15070112Y50911134D02*
X15070112Y51149229D01*
X15070112Y51149229D02*
X15022493Y51339705D01*
X15022493Y51339705D02*
X14974874Y51434943D01*
X14974874Y51434943D02*
X14927255Y51482562D01*
X14927255Y51482562D02*
X14832017Y51530181D01*
X14117731Y51434943D02*
X14070112Y51482562D01*
X14070112Y51482562D02*
X13974874Y51530181D01*
X13974874Y51530181D02*
X13736779Y51530181D01*
X13736779Y51530181D02*
X13641541Y51482562D01*
X13641541Y51482562D02*
X13593922Y51434943D01*
X13593922Y51434943D02*
X13546303Y51339705D01*
X13546303Y51339705D02*
X13546303Y51244467D01*
X13546303Y51244467D02*
X13593922Y51101610D01*
X13593922Y51101610D02*
X14165350Y50530181D01*
X14165350Y50530181D02*
X13546303Y50530181D01*
X12689160Y51530181D02*
X12879636Y51530181D01*
X12879636Y51530181D02*
X12974874Y51482562D01*
X12974874Y51482562D02*
X13022493Y51434943D01*
X13022493Y51434943D02*
X13117731Y51292086D01*
X13117731Y51292086D02*
X13165350Y51101610D01*
X13165350Y51101610D02*
X13165350Y50720658D01*
X13165350Y50720658D02*
X13117731Y50625420D01*
X13117731Y50625420D02*
X13070112Y50577800D01*
X13070112Y50577800D02*
X12974874Y50530181D01*
X12974874Y50530181D02*
X12784398Y50530181D01*
X12784398Y50530181D02*
X12689160Y50577800D01*
X12689160Y50577800D02*
X12641541Y50625420D01*
X12641541Y50625420D02*
X12593922Y50720658D01*
X12593922Y50720658D02*
X12593922Y50958753D01*
X12593922Y50958753D02*
X12641541Y51053991D01*
X12641541Y51053991D02*
X12689160Y51101610D01*
X12689160Y51101610D02*
X12784398Y51149229D01*
X12784398Y51149229D02*
X12974874Y51149229D01*
X12974874Y51149229D02*
X13070112Y51101610D01*
X13070112Y51101610D02*
X13117731Y51053991D01*
X13117731Y51053991D02*
X13165350Y50958753D01*
X11403445Y50911134D02*
X10641541Y50911134D01*
X9498683Y51196848D02*
X9260588Y50530181D01*
X9260588Y50530181D02*
X9022493Y51196848D01*
X8117731Y50530181D02*
X8689159Y50530181D01*
X8403445Y50530181D02*
X8403445Y51530181D01*
X8403445Y51530181D02*
X8498683Y51387324D01*
X8498683Y51387324D02*
X8593921Y51292086D01*
X8593921Y51292086D02*
X8689159Y51244467D01*
X7689159Y50625420D02*
X7641540Y50577800D01*
X7641540Y50577800D02*
X7689159Y50530181D01*
X7689159Y50530181D02*
X7736778Y50577800D01*
X7736778Y50577800D02*
X7689159Y50625420D01*
X7689159Y50625420D02*
X7689159Y50530181D01*
X7022493Y51530181D02*
X6927255Y51530181D01*
X6927255Y51530181D02*
X6832017Y51482562D01*
X6832017Y51482562D02*
X6784398Y51434943D01*
X6784398Y51434943D02*
X6736779Y51339705D01*
X6736779Y51339705D02*
X6689160Y51149229D01*
X6689160Y51149229D02*
X6689160Y50911134D01*
X6689160Y50911134D02*
X6736779Y50720658D01*
X6736779Y50720658D02*
X6784398Y50625420D01*
X6784398Y50625420D02*
X6832017Y50577800D01*
X6832017Y50577800D02*
X6927255Y50530181D01*
X6927255Y50530181D02*
X7022493Y50530181D01*
X7022493Y50530181D02*
X7117731Y50577800D01*
X7117731Y50577800D02*
X7165350Y50625420D01*
X7165350Y50625420D02*
X7212969Y50720658D01*
X7212969Y50720658D02*
X7260588Y50911134D01*
X7260588Y50911134D02*
X7260588Y51149229D01*
X7260588Y51149229D02*
X7212969Y51339705D01*
X7212969Y51339705D02*
X7165350Y51434943D01*
X7165350Y51434943D02*
X7117731Y51482562D01*
X7117731Y51482562D02*
X7022493Y51530181D01*
X37307499Y26270181D02*
X37307499Y26032086D01*
X37545594Y26127324D02*
X37307499Y26032086D01*
X37307499Y26032086D02*
X37069404Y26127324D01*
X37450356Y25841610D02*
X37307499Y26032086D01*
X37307499Y26032086D02*
X37164642Y25841610D01*
X37307500Y25179820D02*
X37307500Y25417915D01*
X37069405Y25322677D02*
X37307500Y25417915D01*
X37307500Y25417915D02*
X37545595Y25322677D01*
X37164643Y25608391D02*
X37307500Y25417915D01*
X37307500Y25417915D02*
X37450357Y25608391D01*
X18007499Y32420181D02*
X18007499Y32182086D01*
X18245594Y32277324D02*
X18007499Y32182086D01*
X18007499Y32182086D02*
X17769404Y32277324D01*
X18150356Y31991610D02*
X18007499Y32182086D01*
X18007499Y32182086D02*
X17864642Y31991610D01*
X18007500Y31329820D02*
X18007500Y31567915D01*
X17769405Y31472677D02*
X18007500Y31567915D01*
X18007500Y31567915D02*
X18245595Y31472677D01*
X17864643Y31758391D02*
X18007500Y31567915D01*
X18007500Y31567915D02*
X18150357Y31758391D01*
%TO.C,JP3*%
D11*
X52800000Y30114000D02*
X52800000Y27314000D01*
X52800000Y27314000D02*
X54800000Y27314000D01*
X54800000Y30114000D02*
X52800000Y30114000D01*
X54800000Y27314000D02*
X54800000Y30114000D01*
%TO.C,R23*%
X19827500Y38582776D02*
X19827500Y39092224D01*
X20872500Y38582776D02*
X20872500Y39092224D01*
%TO.C,C14*%
X16990000Y34966233D02*
X16990000Y35258767D01*
X18010000Y34966233D02*
X18010000Y35258767D01*
%TO.C,L2*%
X31900000Y22850000D02*
X31900000Y22450000D01*
X31900000Y16650000D02*
X31900000Y17050000D01*
X38100000Y22850000D02*
X31900000Y22850000D01*
X38100000Y22850000D02*
X38100000Y22450000D01*
X38100000Y16650000D02*
X31900000Y16650000D01*
X38100000Y16650000D02*
X38100000Y17050000D01*
%TO.C,C1*%
X8353733Y25810000D02*
X8646267Y25810000D01*
X8353733Y24790000D02*
X8646267Y24790000D01*
%TO.C,C6*%
X13240000Y33216233D02*
X13240000Y33508767D01*
X14260000Y33216233D02*
X14260000Y33508767D01*
%TO.C,R2*%
X52854724Y14322500D02*
X52345276Y14322500D01*
X52854724Y13277500D02*
X52345276Y13277500D01*
%TO.C,R41*%
X42254724Y37522500D02*
X41745276Y37522500D01*
X42254724Y36477500D02*
X41745276Y36477500D01*
%TO.C,C19*%
X57061252Y25135000D02*
X56538748Y25135000D01*
X57061252Y23665000D02*
X56538748Y23665000D01*
%TO.C,C3*%
X35246267Y42810000D02*
X34953733Y42810000D01*
X35246267Y41790000D02*
X34953733Y41790000D01*
%TO.C,U1*%
D12*
X37550500Y38775000D02*
G75*
G02*
X37225500Y38775000I-162500J0D01*
G01*
X37225500Y38775000D02*
G75*
G02*
X37550500Y38775000I162500J0D01*
G01*
%TO.C,Q5*%
D13*
X18850000Y27150000D02*
X22150000Y27150000D01*
X18850000Y23850000D02*
X22150000Y23850000D01*
D14*
X18100000Y24500000D02*
G75*
G02*
X17900000Y24500000I-100000J0D01*
G01*
X17900000Y24500000D02*
G75*
G02*
X18100000Y24500000I100000J0D01*
G01*
%TO.C,C29*%
D11*
X26890000Y38791233D02*
X26890000Y39083767D01*
X27910000Y38791233D02*
X27910000Y39083767D01*
%TO.C,C35*%
X45603733Y31010000D02*
X45896267Y31010000D01*
X45603733Y29990000D02*
X45896267Y29990000D01*
%TO.C,U9*%
X57600000Y12660000D02*
X55600000Y12660000D01*
X57610000Y14940000D02*
X55610000Y14940000D01*
X57970000Y14870000D02*
X58250000Y14870000D01*
X57970000Y15150000D01*
X57970000Y14870000D01*
G36*
X58250000Y14870000D02*
G01*
X57970000Y14870000D01*
X57970000Y15150000D01*
X58250000Y14870000D01*
G37*
%TO.C,C39*%
X20065000Y19138748D02*
X20065000Y19661252D01*
X21535000Y19138748D02*
X21535000Y19661252D01*
%TO.C,R8*%
X11927064Y23410000D02*
X7572936Y23410000D01*
X11927064Y19990000D02*
X7572936Y19990000D01*
%TO.C,R22*%
X22077500Y39092224D02*
X22077500Y38582776D01*
X23122500Y39092224D02*
X23122500Y38582776D01*
%TO.C,R42*%
X45495276Y32772500D02*
X46004724Y32772500D01*
X45495276Y31727500D02*
X46004724Y31727500D01*
%TO.C,C42*%
X47738748Y22335000D02*
X48261252Y22335000D01*
X47738748Y20865000D02*
X48261252Y20865000D01*
%TO.C,C5*%
X56946267Y26710000D02*
X56653733Y26710000D01*
X56946267Y25690000D02*
X56653733Y25690000D01*
%TO.C,C16*%
X23240000Y28146267D02*
X23240000Y27853733D01*
X24260000Y28146267D02*
X24260000Y27853733D01*
%TO.C,C20*%
X52746267Y16110000D02*
X52453733Y16110000D01*
X52746267Y15090000D02*
X52453733Y15090000D01*
%TO.C,C46*%
X54515000Y52238748D02*
X54515000Y52761252D01*
X55985000Y52238748D02*
X55985000Y52761252D01*
%TO.C,C33*%
X31765000Y25611252D02*
X31765000Y25088748D01*
X33235000Y25611252D02*
X33235000Y25088748D01*
%TO.C,R33*%
X24572936Y20460000D02*
X28927064Y20460000D01*
X24572936Y17040000D02*
X28927064Y17040000D01*
%TO.C,C36*%
X45453733Y28910000D02*
X45746267Y28910000D01*
X45453733Y27890000D02*
X45746267Y27890000D01*
%TO.C,C40*%
X47853733Y25910000D02*
X48146267Y25910000D01*
X47853733Y24890000D02*
X48146267Y24890000D01*
%TO.C,C31*%
X33990000Y28803733D02*
X33990000Y29096267D01*
X35010000Y28803733D02*
X35010000Y29096267D01*
%TO.C,F1*%
X19340000Y10852064D02*
X19340000Y9647936D01*
X21160000Y10852064D02*
X21160000Y9647936D01*
%TO.C,C7*%
X15240000Y33216233D02*
X15240000Y33508767D01*
X16260000Y33216233D02*
X16260000Y33508767D01*
%TO.C,R65*%
X29854724Y34722500D02*
X29345276Y34722500D01*
X29854724Y33677500D02*
X29345276Y33677500D01*
%TO.C,R43*%
X35445276Y24872500D02*
X35954724Y24872500D01*
X35445276Y23827500D02*
X35954724Y23827500D01*
%TO.C,U8*%
X56712500Y20810000D02*
X54712500Y20810000D01*
X56722500Y23090000D02*
X54722500Y23090000D01*
X57082500Y23020000D02*
X57362500Y23020000D01*
X57082500Y23300000D01*
X57082500Y23020000D01*
G36*
X57362500Y23020000D02*
G01*
X57082500Y23020000D01*
X57082500Y23300000D01*
X57362500Y23020000D01*
G37*
%TO.C,C8*%
X11015000Y33126248D02*
X11015000Y33648752D01*
X12485000Y33126248D02*
X12485000Y33648752D01*
%TO.C,C41*%
X18090000Y19253733D02*
X18090000Y19546267D01*
X19110000Y19253733D02*
X19110000Y19546267D01*
%TO.C,C25*%
X56746267Y16510000D02*
X56453733Y16510000D01*
X56746267Y15490000D02*
X56453733Y15490000D01*
%TO.C,C45*%
X56690000Y52696267D02*
X56690000Y52403733D01*
X57710000Y52696267D02*
X57710000Y52403733D01*
%TO.C,C26*%
X56861252Y18535000D02*
X56338748Y18535000D01*
X56861252Y17065000D02*
X56338748Y17065000D01*
%TO.C,R20*%
X17995276Y29272500D02*
X18504724Y29272500D01*
X17995276Y28227500D02*
X18504724Y28227500D01*
%TO.C,C11*%
X27090000Y30608767D02*
X27090000Y30316233D01*
X28110000Y30608767D02*
X28110000Y30316233D01*
%TO.C,C37*%
X43390000Y22658767D02*
X43390000Y22366233D01*
X44410000Y22658767D02*
X44410000Y22366233D01*
%TO.C,R44*%
X48327500Y29045276D02*
X48327500Y29554724D01*
X49372500Y29045276D02*
X49372500Y29554724D01*
%TO.C,JP2*%
X55400000Y30139000D02*
X55400000Y27339000D01*
X55400000Y27339000D02*
X57400000Y27339000D01*
X57400000Y30139000D02*
X55400000Y30139000D01*
X57400000Y27339000D02*
X57400000Y30139000D01*
%TO.C,C43*%
X15665000Y19138748D02*
X15665000Y19661252D01*
X17135000Y19138748D02*
X17135000Y19661252D01*
%TO.C,R19*%
X24677500Y38657776D02*
X24677500Y39167224D01*
X25722500Y38657776D02*
X25722500Y39167224D01*
%TO.C,R39*%
X42927500Y43304724D02*
X42927500Y42795276D01*
X43972500Y43304724D02*
X43972500Y42795276D01*
%TO.C,C10*%
X53490000Y25253733D02*
X53490000Y25546267D01*
X54510000Y25253733D02*
X54510000Y25546267D01*
%TO.C,U5*%
D15*
X38120300Y30029700D02*
X39014860Y30029700D01*
X38120300Y29135140D02*
X38120300Y30029700D01*
X38120300Y24670300D02*
X38120300Y25564860D01*
X39014860Y24670300D02*
X38120300Y24670300D01*
X42585140Y30029700D02*
X43479700Y30029700D01*
X43479700Y30029700D02*
X43479700Y29135140D01*
X43479700Y25564860D02*
X43479700Y24670300D01*
X43479700Y24670300D02*
X42585140Y24670300D01*
D16*
G36*
X39690500Y23984500D02*
G01*
X39309500Y23984500D01*
X39309500Y24238500D01*
X39690500Y24238500D01*
X39690500Y23984500D01*
G37*
G36*
X42290500Y30461500D02*
G01*
X41909500Y30461500D01*
X41909500Y30715500D01*
X42290500Y30715500D01*
X42290500Y30461500D01*
G37*
%TO.C,JP5*%
D11*
X30050000Y46750000D02*
X30050000Y44750000D01*
X30050000Y44750000D02*
X32850000Y44750000D01*
X32850000Y46750000D02*
X30050000Y46750000D01*
X32850000Y44750000D02*
X32850000Y46750000D01*
%TO.C,C9*%
X25090000Y30608767D02*
X25090000Y30316233D01*
X26110000Y30608767D02*
X26110000Y30316233D01*
%TO.C,U3*%
D15*
X18820300Y36179700D02*
X19714860Y36179700D01*
X18820300Y35285140D02*
X18820300Y36179700D01*
X18820300Y30820300D02*
X18820300Y31714860D01*
X19714860Y30820300D02*
X18820300Y30820300D01*
X23285140Y36179700D02*
X24179700Y36179700D01*
X24179700Y36179700D02*
X24179700Y35285140D01*
X24179700Y31714860D02*
X24179700Y30820300D01*
X24179700Y30820300D02*
X23285140Y30820300D01*
D16*
G36*
X20390500Y30134500D02*
G01*
X20009500Y30134500D01*
X20009500Y30388500D01*
X20390500Y30388500D01*
X20390500Y30134500D01*
G37*
G36*
X22990500Y36611500D02*
G01*
X22609500Y36611500D01*
X22609500Y36865500D01*
X22990500Y36865500D01*
X22990500Y36611500D01*
G37*
%TO.C,R66*%
D11*
X50177500Y27195276D02*
X50177500Y27704724D01*
X51222500Y27195276D02*
X51222500Y27704724D01*
%TO.C,C38*%
X47853733Y24110000D02*
X48146267Y24110000D01*
X47853733Y23090000D02*
X48146267Y23090000D01*
%TO.C,Q7*%
D13*
X39092500Y19535000D02*
X39092500Y22835000D01*
X42392500Y19535000D02*
X42392500Y22835000D01*
D14*
X41842500Y18685000D02*
G75*
G02*
X41642500Y18685000I-100000J0D01*
G01*
X41642500Y18685000D02*
G75*
G02*
X41842500Y18685000I100000J0D01*
G01*
%TO.C,C34*%
D11*
X35790000Y28803733D02*
X35790000Y29096267D01*
X36810000Y28803733D02*
X36810000Y29096267D01*
%TO.C,R40*%
X40677500Y45804724D02*
X40677500Y45295276D01*
X41722500Y45804724D02*
X41722500Y45295276D01*
%TO.C,R31*%
X30477500Y37145276D02*
X30477500Y37654724D01*
X31522500Y37145276D02*
X31522500Y37654724D01*
%TO.C,C13*%
X28865000Y30723752D02*
X28865000Y30201248D01*
X30335000Y30723752D02*
X30335000Y30201248D01*
%TO.C,C32*%
X31990000Y28803733D02*
X31990000Y29096267D01*
X33010000Y28803733D02*
X33010000Y29096267D01*
%TO.C,R32*%
X46517224Y41622500D02*
X46007776Y41622500D01*
X46517224Y40577500D02*
X46007776Y40577500D01*
%TO.C,D9*%
X50510000Y17150000D02*
X43500000Y17150000D01*
X50510000Y17150000D02*
X50510000Y13850000D01*
X50510000Y13850000D02*
X43500000Y13850000D01*
%TO.C,R35*%
X41577500Y33117224D02*
X41577500Y32607776D01*
X42622500Y33117224D02*
X42622500Y32607776D01*
%TO.C,R37*%
X33727500Y44695276D02*
X33727500Y45204724D01*
X34772500Y44695276D02*
X34772500Y45204724D01*
%TO.C,R36*%
X39777500Y32607776D02*
X39777500Y33117224D01*
X40822500Y32607776D02*
X40822500Y33117224D01*
%TO.C,R1*%
X51677500Y22945276D02*
X51677500Y23454724D01*
X52722500Y22945276D02*
X52722500Y23454724D01*
%TO.C,C15*%
X27253733Y36510000D02*
X27546267Y36510000D01*
X27253733Y35490000D02*
X27546267Y35490000D01*
%TO.C,D10*%
X1350000Y36910000D02*
X1350000Y29900000D01*
X1350000Y36910000D02*
X4650000Y36910000D01*
X4650000Y36910000D02*
X4650000Y29900000D01*
%TD*%
M02*
