M48
; DRILL file KiCad 10.0.3 date 2026-06-17T16:13:11
; FORMAT={-:-/ absolute / inch / decimal}
; #@! TF.CreationDate,2026-06-17T16:13:11-04:00
; #@! TF.GenerationSoftware,Kicad,Pcbnew,10.0.3
; #@! TF.FileFunction,Plated,1,2,PTH
FMAT,2
INCH
; #@! TA.AperFunction,Plated,PTH,ComponentDrill
T1C0.0098
; #@! TA.AperFunction,Plated,PTH,ViaDrill
T2C0.0118
; #@! TA.AperFunction,Plated,PTH,ComponentDrill
T3C0.0295
; #@! TA.AperFunction,Plated,PTH,ComponentDrill
T4C0.0394
%
G90
G05
T1
X3.4764Y-5.0256
X3.5157Y-5.0256
T2
X3.4006Y-4.7953
X3.4055Y-3.9528
X3.4055Y-4.1142
X3.4055Y-4.2638
X3.4055Y-4.5945
X3.4055Y-4.6969
X3.4252Y-4.0354
X3.4488Y-4.6654
X3.5295Y-5.1142
X3.5404Y-4.7482
X3.5547Y-4.9808
X3.5551Y-4.874
X3.5551Y-5.0787
X3.5709Y-4.0827
X3.5748Y-4.126
X3.5787Y-4.4291
X3.5807Y-5.0309
X3.5906Y-4.7008
X3.5945Y-4.3189
X3.6142Y-5.2992
X3.6181Y-5.2087
X3.6181Y-5.5079
X3.645Y-4.6621
X3.6457Y-5.0394
X3.6535Y-5.5512
X3.6575Y-3.9488
X3.6575Y-4.0709
X3.6772Y-4.5827
X3.6811Y-4.8976
X3.6811Y-5.4724
X3.689Y-4.7992
X3.6969Y-4.3701
X3.6969Y-5.0394
X3.7402Y-5.5512
X3.752Y-5.1142
X3.7638Y-5.2441
X3.7638Y-5.4055
X3.7785Y-5.1762
X3.7835Y-5.685
X3.811Y-4.8268
X3.8189Y-4.8898
X3.8268Y-5.5039
X3.853Y-4.8014
X3.8543Y-4.7598
X3.8661Y-5.2677
X3.8701Y-5.5039
X3.9055Y-4.3268
X3.9488Y-4.4213
X3.9488Y-4.5669
X3.9724Y-5.0709
X4.0039Y-4.0039
X4.0039Y-4.1142
X4.0315Y-4.4094
X4.0315Y-4.6417
X4.0551Y-4.3228
X4.0787Y-4.5254
T3
X4.0079Y-4.8976
X4.0079Y-4.9764
T4
X3.4382Y-5.1732
X3.4382Y-5.3228
X3.5382Y-5.1732
X3.5382Y-5.3228
X4.0917Y-5.2362
X4.0917Y-5.3858
X4.1917Y-5.2362
X4.1917Y-5.3858
M30
